<?xml version="1.0" encoding="UTF-8"?> <svg xmlns="http://www.w3.org/2000/svg" width="384" height="384" viewBox="0 0 384 384" fill="none"> <circle cx="192" cy="192" r="192" fill="#FF5F00"></circle> <path d="M134.025 222.666C136.728 220.158 138.465 216.492 138.465 212.44C138.465 204.529 133.252 198.355 124.177 198.162C123.598 198.162 113.172 198.162 113.172 198.162V203.179V221.316V228.455V250.258V257.397C113.172 257.397 126.301 257.397 127.46 257.397C137.5 257.397 145.609 249.293 145.609 239.26C145.609 231.735 140.782 225.175 134.025 222.666ZM131.901 212.247C131.901 215.72 130.356 219.579 126.301 220.737C126.108 220.737 125.915 220.737 125.529 220.93V204.722C130.163 205.687 131.901 208.002 131.901 212.247ZM127.46 250.837C126.881 250.837 126.301 250.837 125.722 250.644V228.455C126.301 228.455 126.881 228.262 127.46 228.262C134.025 228.262 138.658 232.893 138.658 239.453C138.852 246.013 134.218 250.837 127.46 250.837Z" fill="white"></path> <path d="M115.103 185.428L104.29 185.621L89.423 158.415V185.428H82.8583H76.2935V158.415L62.1987 185.428H51L69.7288 149.154L55.2478 126H63.5502L76.2935 145.681L76.1005 126H89.6161V145.681L102.746 126H110.855L96.1808 148.961L115.103 185.428Z" fill="white"></path> <path d="M250.261 257.397L239.449 257.59L224.775 230.384V257.397H218.21H211.645V230.384L197.55 257.397H186.352L205.08 221.123L190.599 198.162H198.902L211.645 217.843L211.259 198.162H224.775V217.843L237.904 198.162H246.013L231.339 221.123L250.261 257.397Z" fill="white"></path> <path d="M146.004 172.114H128.82L125.538 185.62H118.008L133.454 126.192H148.515L162.03 185.62H148.901C148.515 183.691 146.777 175.201 146.004 172.114ZM143.301 159.186L137.895 135.647L131.91 159.186H143.301Z" fill="white"></path> <path d="M162.991 208.582V220.93H180.561V228.262H162.991V245.242H182.299V257.398H162.991H151.406V245.242V228.262V218.036V208.582V198.355H162.991H182.299V208.582H162.991Z" fill="white"></path> <path d="M181.711 126.192H179.973H169.547V129.472V138.927V149.153V158.801V185.427H181.711V162.081C190.786 161.116 197.93 153.591 197.93 144.137C198.123 134.682 190.979 127.157 181.711 126.192ZM181.711 154.363V133.717C187.31 134.489 191.172 138.348 191.172 144.137C191.365 149.925 187.31 153.591 181.711 154.363Z" fill="white"></path> <path d="M281.153 244.084H263.969L260.686 257.59H253.156L268.603 198.162H283.663L297.179 257.59H284.049C283.663 255.661 281.925 247.171 281.153 244.084ZM278.257 231.156L273.044 208.388L267.058 231.156H278.257Z" fill="white"></path> <path d="M317.648 198.355H315.911H305.484V201.636V211.09V221.316V230.771V257.398H317.648V234.051C326.723 233.086 333.867 225.561 333.867 216.107C334.06 206.845 326.916 199.127 317.648 198.355ZM317.648 226.526V205.88C323.248 206.652 327.109 210.511 327.109 216.3C327.302 222.088 323.441 225.561 317.648 226.526Z" fill="white"></path> <path d="M94.6328 250.259C88.4543 249.873 85.1719 238.489 84.9788 228.07C84.9788 217.651 88.4543 206.267 94.6328 205.881C99.6529 205.495 100.811 208.968 101.97 211.476L107.376 208.003C102.742 197.584 93.6674 198.549 93.6674 198.549C83.8203 198.549 73.0078 207.232 73.0078 227.491C73.0078 227.684 73.0078 228.07 73.0078 228.263C73.0078 228.456 73.0078 228.842 73.0078 229.035C73.0078 249.294 83.8203 257.977 93.6674 257.977C93.6674 257.977 102.742 258.942 107.376 248.522L101.97 245.049C100.811 247.365 99.6529 250.645 94.6328 250.259Z" fill="white"></path> <path d="M225.151 147.416V139.505L220.517 147.416H217.234V134.488H220.517V142.206L225.151 134.488H228.433V147.416H225.151Z" fill="black"></path> <path d="M236.349 147.416C234.225 147.416 232.295 147.03 230.75 145.487L232.681 143.557C233.646 144.329 234.805 144.715 235.963 144.715C237.122 144.715 238.28 144.329 238.28 143.172C238.28 142.207 237.508 141.821 236.349 141.821H234.419V139.698H236.349C237.508 139.698 238.087 139.12 238.087 138.348C238.087 137.383 237.122 136.997 235.963 136.997C234.998 136.997 234.032 137.383 233.067 137.962L231.329 136.032C232.488 134.682 234.419 134.296 236.349 134.296C238.859 134.296 241.176 135.454 241.176 137.769C241.176 138.927 240.404 140.084 239.439 140.663C240.597 141.049 241.369 142.207 241.369 143.557C241.176 145.873 238.859 147.416 236.349 147.416Z" fill="black"></path> <path d="M257.4 147.416V137.19H253.345V147.223H250.062V134.488H260.682V147.416H257.4Z" fill="black"></path> <path d="M266.66 141.82C266.66 143.557 267.625 144.715 269.556 144.715C270.907 144.715 271.68 144.329 272.452 143.557L274.383 145.486C273.031 146.837 271.873 147.609 269.556 147.609C266.467 147.609 263.57 146.258 263.57 141.049C263.57 136.804 265.887 134.488 269.17 134.488C272.838 134.488 274.769 136.997 274.769 140.663V142.013H266.66V141.82ZM271.294 138.347C270.907 137.575 270.135 136.997 269.17 136.997C268.204 136.997 267.432 137.575 267.046 138.347C266.853 138.733 266.853 139.119 266.66 139.698H271.487C271.68 139.119 271.487 138.733 271.294 138.347Z" fill="black"></path> <path d="M284.425 147.416V142.785C283.653 142.978 282.301 143.171 280.95 143.171C278.826 143.171 277.281 141.82 277.281 139.698V134.488H280.564V138.733C280.564 139.891 281.143 140.277 282.108 140.277C282.881 140.277 283.846 140.084 284.425 140.084V134.488H287.708V147.416H284.425Z" fill="black"></path> <path d="M299.096 147.416V139.505L294.462 147.416H291.18V134.488H294.462V142.206L299.096 134.488H302.378V147.416H299.096Z" fill="black"></path> <path d="M224.775 172.499V167.289H220.72V172.499H217.438V159.571H220.72V164.395H224.775V159.571H228.057V172.499H224.775Z" fill="black"></path> <path d="M238.28 172.499V171.342C237.315 172.306 236.542 172.499 235.191 172.499C233.646 172.499 232.681 172.113 231.908 171.342C231.136 170.57 230.75 169.605 230.75 168.447C230.75 166.325 232.102 164.781 235.191 164.781H238.28V164.203C238.28 162.852 237.508 162.08 235.963 162.08C234.805 162.08 234.225 162.466 233.453 163.238L231.329 161.308C232.681 159.958 233.839 159.379 235.963 159.379C239.632 159.379 241.563 160.922 241.563 164.01V172.499H238.28ZM238.087 167.097H235.577C234.225 167.097 233.646 167.676 233.646 168.64C233.646 169.605 234.225 170.184 235.577 170.184C236.349 170.184 236.929 169.991 237.508 169.605C237.894 169.219 238.087 168.833 238.087 168.062V167.097Z" fill="black"></path> <path d="M255.855 172.692C253.345 172.692 250.062 171.341 250.062 166.132C250.062 160.922 253.345 159.571 255.855 159.571C257.593 159.571 258.944 160.15 260.103 161.308L257.979 163.43C257.4 162.658 256.82 162.466 255.855 162.466C255.083 162.466 254.503 162.658 253.924 163.237C253.345 163.816 253.152 164.781 253.152 166.132C253.152 167.482 253.345 168.447 253.924 169.026C254.31 169.605 255.083 169.798 255.855 169.798C256.627 169.798 257.206 169.412 257.979 168.833L260.103 170.955C258.944 172.113 257.593 172.692 255.855 172.692Z" fill="black"></path> <path d="M268.011 162.466V172.499H264.729V162.466H260.867V159.571H271.68V162.466H268.011Z" fill="black"></path> <path d="M282.685 170.956C281.913 171.728 280.561 172.499 278.631 172.499C276.7 172.499 275.541 171.728 274.576 170.956C273.417 169.798 273.031 168.255 273.031 165.939C273.031 163.624 273.417 162.08 274.576 160.922C275.348 160.151 276.7 159.379 278.631 159.379C280.561 159.379 281.913 160.151 282.685 160.922C283.844 162.08 284.23 163.624 284.23 165.939C284.23 168.255 283.844 169.798 282.685 170.956ZM280.175 162.852C279.789 162.466 279.403 162.273 278.631 162.273C278.051 162.273 277.472 162.466 277.086 162.852C276.507 163.431 276.314 164.589 276.314 165.939C276.314 167.29 276.314 168.447 277.086 169.026C277.472 169.412 278.051 169.605 278.631 169.605C279.21 169.605 279.789 169.412 280.175 169.026C280.754 168.447 280.948 167.29 280.948 165.939C280.948 164.589 280.754 163.431 280.175 162.852Z" fill="black"></path> <path d="M294.079 172.499V162.466H290.99V165.553C290.99 171.148 289.445 172.499 286.935 172.499H285.391V169.605H285.777C286.935 169.605 287.901 169.412 287.901 164.781V159.571H297.362V172.499H294.079Z" fill="black"></path> </svg> 