<svg width="16" height="16" viewBox="0 0 16 16" fill="none" xmlns="http://www.w3.org/2000/svg">
<rect width="16" height="16" fill="white"/>
<path d="M5.46061 9.79429C5.46061 11.3429 6.17041 12.3539 7.97717 12.3539C9.78393 12.3539 10.5152 11.3429 10.5152 9.79429V5.23438H12.5586V9.96637C12.5586 12.5044 11.053 14.1391 7.99868 14.1391C4.9659 14.1391 3.43876 12.5044 3.43876 9.96637V5.23438H5.48212V9.79429H5.46061Z" fill="black"/>
<path d="M7.97647 4.09632C7.73987 4.09632 7.50327 4.11783 7.28818 4.16085L6.21273 2.50465C6.68592 2.11748 7.20214 1.85938 7.97647 1.85938C8.7508 1.85938 9.28852 2.09597 9.76172 2.50465L8.68627 4.16085C8.44967 4.11783 8.21307 4.09632 7.97647 4.09632Z" fill="black"/>
</svg>
