<?xml version="1.0" encoding="utf-8"?>
<!-- Generator: Adobe Illustrator 22.0.1, SVG Export Plug-In . SVG Version: 6.00 Build 0)  -->
<svg version="1.1" id="Layer_1" xmlns="http://www.w3.org/2000/svg" xmlns:xlink="http://www.w3.org/1999/xlink" x="0px" y="0px"
	 viewBox="0 0 44.9 45" style="enable-background:new 0 0 44.9 45;" xml:space="preserve">
<style type="text/css">
	.st0{fill:#008895;}
</style>
<g>
	<g>
		<path class="st0" d="M19.4,13.8v5.5h-5.6v6.5h5.6v5.4h6.5v-5.4h5.4v-6.5h-5.4v-5.5H19.4z"/>
		<path class="st0" d="M0,13.7C0,10,1.4,6.6,4,4c2.6-2.6,6-4,9.7-4h31.6v7H13.7C11.9,7,10.3,7.7,9,9c-1.3,1.3-2,2.9-2,4.7v11.7
			c-0.4,3.1-2.6,5.5-5.7,6l-1.2,0.2V13.7H0z"/>
		<path class="st0" d="M0,45v-7h31.6c1.8,0,3.4-0.7,4.7-2c1.3-1.3,2-2.9,2-4.7V20.3c0-3.3,2.5-6.1,5.7-6.6l1.2-0.2v17.8
			c0,3.7-1.4,7.1-4,9.7c-2.6,2.6-6,4-9.7,4H0V45z"/>
	</g>
</g>
</svg>
