<?xml version="1.0" encoding="UTF-8"?> <svg xmlns="http://www.w3.org/2000/svg" width="210" height="210" viewBox="0 0 210 210" fill="none"><g clip-path="url(#clip0_26_2808)"><rect width="210" height="210" rx="40" fill="#F8F9FA"></rect><path d="M175.336 -0.205078V210" stroke="#E1E4E8" stroke-width="1.23047"></path><path d="M140.266 -0.205078V210" stroke="#E1E4E8" stroke-width="1.23047"></path><path d="M105.195 -0.205078V210" stroke="#E1E4E8" stroke-width="1.23047"></path><path d="M70.1328 -0.205078V210" stroke="#E1E4E8" stroke-width="1.23047"></path><path d="M35.0625 -0.205078V210" stroke="#E1E4E8" stroke-width="1.23047"></path><path d="M209.992 175.137L-0.212875 175.137" stroke="#E1E4E8" stroke-width="1.23047"></path><path d="M209.992 140.068L-0.212875 140.068" stroke="#E1E4E8" stroke-width="1.23047"></path><path d="M209.992 105L-0.212875 105" stroke="#E1E4E8" stroke-width="1.23047"></path><path d="M209.992 69.9316L-0.212875 69.9316" stroke="#E1E4E8" stroke-width="1.23047"></path><path d="M209.992 34.8633L-0.212875 34.8633" stroke="#E1E4E8" stroke-width="1.23047"></path><circle cx="104.998" cy="104.795" r="69.1113" stroke="#D1D5DA" stroke-width="2.46094"></circle><circle cx="105" cy="105" r="34.043" stroke="#D1D5DA" stroke-width="2.46094"></circle><circle cx="105" cy="105" r="89.8242" stroke="#D1D5DA" stroke-width="2.46094"></circle><rect y="-0.193359" width="210" height="210" fill="#1A1A1A"></rect><circle cx="61.1441" cy="59.1079" r="30.9048" fill="white"></circle><path fill-rule="evenodd" clip-rule="evenodd" d="M60.1479 22.0234C81.2035 22.0234 98.2959 39.1157 98.2959 60.1712C98.2959 81.2268 81.2035 98.3192 60.1479 98.3192C39.0922 98.3192 22 81.2268 22 60.1712C22 39.1157 39.0922 22.0234 60.1479 22.0234ZM69.0655 78.7498L60.1479 69.8322L51.2302 78.7498C50.7347 79.2454 49.7439 79.2454 49.2485 78.7498L41.5694 71.0706C41.0739 70.5753 41.0739 69.5844 41.5694 69.0892L50.487 60.1712L41.5694 51.2536C41.0739 50.7582 41.0739 49.7673 41.5694 49.2719L49.2485 41.5928C49.7439 41.0974 50.7347 41.0974 51.2302 41.5928L60.1479 50.5105L69.0655 41.5928C69.5611 41.0974 70.552 41.0974 71.0473 41.5928L78.7265 49.2719C79.2217 49.7673 79.2217 50.7582 78.7265 51.2536L69.8086 60.1712L78.7265 69.0892C79.2217 69.5844 79.2217 70.5753 78.7265 71.0706L71.0473 78.7498C70.552 79.2454 69.5611 79.2454 69.0655 78.7498Z" fill="#008FCA"></path><circle cx="148.43" cy="59.1118" r="30.9048" fill="white"></circle><path fill-rule="evenodd" clip-rule="evenodd" d="M148.806 22.0234C169.862 22.0234 186.954 39.1157 186.954 60.1712C186.954 81.2268 169.862 98.3192 148.806 98.3192C127.75 98.3192 110.658 81.2268 110.658 60.1712C110.658 39.1157 127.75 22.0234 148.806 22.0234ZM129.484 53.483H168.128C168.871 53.483 169.614 53.9785 169.614 54.9693V65.6209C169.614 66.364 168.871 67.1074 168.128 67.1074H129.484C128.493 67.1074 127.998 66.364 127.998 65.6209V54.9693C127.998 53.9785 128.493 53.483 129.484 53.483Z" fill="#FBBA00"></path><circle cx="60.1489" cy="147.765" r="30.9048" fill="white"></circle><path fill-rule="evenodd" clip-rule="evenodd" d="M60.1475 110.681C81.2035 110.681 98.2955 127.773 98.2955 148.829C98.2955 169.884 81.2035 186.977 60.1475 186.977C39.092 186.977 22 169.884 22 148.829C22 127.773 39.092 110.681 60.1475 110.681ZM40.8129 130.743H79.4565C80.1995 130.743 80.9426 131.238 80.9426 132.229V142.881C80.9426 143.624 80.1995 144.12 79.4565 144.12H40.8129C39.822 144.12 39.3268 143.624 39.3268 142.881V132.229C39.3268 131.238 39.822 130.743 40.8129 130.743ZM40.8129 153.285H79.4565C80.1995 153.285 80.9426 154.028 80.9426 154.771V165.423C80.9426 166.166 80.1995 166.909 79.4565 166.909H40.8129C39.822 166.909 39.3268 166.166 39.3268 165.423V154.771C39.3268 154.028 39.822 153.285 40.8129 153.285Z" fill="#3D935E"></path><circle cx="148.605" cy="147.765" r="30.9048" fill="white"></circle><path fill-rule="evenodd" clip-rule="evenodd" d="M148.805 110.681C169.861 110.681 186.953 127.773 186.953 148.829C186.953 169.884 169.861 186.977 148.805 186.977C127.749 186.977 110.657 169.884 110.657 148.829C110.657 127.773 127.749 110.681 148.805 110.681ZM142.104 168.152V155.518H129.47C128.727 155.518 127.984 155.023 127.984 154.032V143.38C127.984 142.637 128.727 141.894 129.47 141.894H142.104V129.509C142.104 128.518 142.599 128.022 143.59 128.022H154.242C154.985 128.022 155.728 128.518 155.728 129.509V141.894H168.114C169.104 141.894 169.6 142.637 169.6 143.38V154.032C169.6 155.023 169.104 155.518 168.114 155.518H155.728V168.152C155.728 168.895 154.985 169.638 154.242 169.638H143.59C142.599 169.638 142.104 168.895 142.104 168.152Z" fill="#E41D36"></path></g><defs><clipPath id="clip0_26_2808"><rect width="210" height="210" rx="40" fill="white"></rect></clipPath></defs></svg> 