                                                                                                                                                                                                                                                                                                    <svg width="128" height="128" viewBox="0 0 128 128" fill="none" xmlns="http://www.w3.org/2000/svg">
<rect width="128" height="128" fill="white"/>
<path fill-rule="evenodd" clip-rule="evenodd" d="M60.6056 13.2386C59.0975 13.3568 56.3325 13.3977 54.4615 13.3293C50.4643 13.1837 49.8556 13.2725 48.9135 14.1395C48.3379 14.6695 48.2075 14.9797 48.2103 15.8119C48.2146 16.9719 48.3441 17.2365 49.1009 17.6291L49.6374 17.9075V31.399V44.8902L48.7986 45.0452C47.0661 45.3657 46.3725 47.6742 47.5899 49.0689L48.1655 49.7282H57.1482H66.131L66.7065 49.0689C67.13 48.5837 67.2819 48.1312 67.2819 47.3549C67.2819 46.0777 66.5806 45.2586 65.2819 45.0185L64.4206 44.8592V32.4171C64.4206 24.3032 64.5065 19.8171 64.6669 19.5212C64.8026 19.2715 65.3658 18.8434 65.9187 18.5694C67.3417 17.8645 67.7278 17.4707 67.9042 16.5438C68.1384 15.3133 67.6298 13.9557 66.7325 13.4165C65.8856 12.9078 65.1178 12.8855 60.6056 13.2386ZM26.3543 13.4367C25.9413 13.5612 25.2587 14.0497 24.8374 14.5227C24.1468 15.2976 24.0822 15.4961 24.1831 16.5304C24.318 17.9153 25.2 18.9536 26.5443 19.3103C27.0353 19.4407 27.6385 19.7994 27.8846 20.1079C28.1307 20.4162 30.8386 27.2334 33.9021 35.2573L39.4718 49.8457H40.8235H42.175L44.3565 43.7844L46.5377 37.7232L46.51 28.8057C46.4948 23.9011 46.4483 20.0469 46.4068 20.2407C46.3651 20.4345 46.2628 21.0034 46.1793 21.5048C46.0935 22.021 45.9383 22.3269 45.8217 22.2097C45.7084 22.0959 45.2759 20.9543 44.8605 19.6726C44.304 17.9552 44.1438 17.1049 44.2513 16.4411C44.484 15.0072 43.9397 14.0347 42.6282 13.5413C41.6685 13.1799 41.1218 13.1531 38.2524 13.326C34.2304 13.5685 34.0464 13.5695 30.2046 13.3709C28.388 13.2769 26.7942 13.3042 26.3543 13.4367ZM70.7684 13.5446C70.4901 13.6813 70.1122 14.1019 69.9286 14.4792C69.4147 15.5351 69.9686 16.8331 71.3354 17.7755C72.2617 18.4141 72.8483 19.2708 75.6273 24.0442C77.3977 27.0851 80.8252 32.9713 83.244 37.1247C85.6627 41.2784 87.7013 44.6714 87.7743 44.6651C87.8838 44.6554 92.6001 35.0094 93.5336 32.8856C93.7918 32.2979 93.5417 31.7946 89.8454 25.4629C87.6644 21.7271 85.8801 18.4975 85.8801 18.2863C85.8801 18.0748 86.1629 17.7193 86.5087 17.4961C87.8544 16.6272 88.0673 14.4771 86.8835 13.7128C86.3601 13.3747 85.331 13.3237 78.7792 13.3108C73.9503 13.3011 71.0941 13.3845 70.7684 13.5446ZM93.2148 13.3853C91.451 13.8307 90.8862 15.4865 92.0481 16.8056C92.2622 17.0483 92.8864 17.4381 93.4353 17.6716C93.9842 17.9052 94.6206 18.3782 94.8495 18.7226C95.2632 19.3448 95.2556 19.3695 93.6957 22.4536L92.1256 25.5583L93.6866 28.2021L95.2477 30.8456L98.0444 25.2496C99.5823 22.1716 101.07 19.3706 101.351 19.025C101.633 18.6782 102.393 18.2229 103.048 18.0086C104.541 17.5199 105.194 16.7365 105.194 15.4332C105.194 14.6782 105.05 14.3157 104.578 13.8789C103.965 13.3119 103.939 13.3094 98.7387 13.3094C95.866 13.3094 93.38 13.3434 93.2148 13.3853ZM35.2645 14.9708C36.1158 15.1416 36.3833 15.8923 35.9107 16.7837C35.6 17.3692 35.4844 18.4085 35.395 21.4155C35.3315 23.5478 35.1832 25.3936 35.0652 25.5172C34.6935 25.9072 34.1176 25.0835 32.2464 21.4841C30.4776 18.0823 30.4226 18.0083 29.3727 17.6293C27.9933 17.1312 27.3011 16.2779 27.6922 15.5575C27.8453 15.2757 28.2051 14.9578 28.4914 14.8514C28.996 14.6639 34.192 14.7555 35.2645 14.9708ZM99.0351 15.2255C99.8293 15.9336 99.3989 17.3161 98.0308 18.4505C97.0663 19.2501 96.6659 19.2275 96.438 18.3601C96.3123 17.8833 95.9816 17.5215 95.4177 17.244C94.514 16.7997 94.2599 16.1214 94.6957 15.3187C94.9246 14.8972 95.1864 14.8366 96.7782 14.8366C98.1381 14.8366 98.7096 14.9351 99.0351 15.2255ZM58.9246 15.6449C59.0813 15.8307 59.1747 16.2793 59.1325 16.6413C59.072 17.1615 58.8276 17.4061 57.9668 17.8074C56.8139 18.3453 56.4668 18.9237 54.5309 23.5301C54.1778 24.3701 53.6847 25.2646 53.435 25.5181C52.5781 26.3877 52.3861 25.7228 52.3027 21.592C52.2285 17.9214 52.2071 17.779 51.647 17.2675C50.9674 16.647 50.8966 15.8982 51.4853 15.5603C51.7149 15.4285 53.4183 15.3176 55.2712 15.3136C57.9184 15.3082 58.7007 15.3789 58.9246 15.6449ZM81.1233 16.0335C81.3441 16.44 81.2983 16.6225 80.8598 17.0826L80.3288 17.6394L80.9797 20.8835C81.7156 24.5517 81.7182 25.5273 80.9929 25.5273C80.628 25.5273 80.0045 24.6504 78.3316 21.7856C76.8867 19.3107 75.9377 17.9357 75.5295 17.725C75.0917 17.4989 74.9119 17.2168 74.9119 16.7558C74.9119 15.6698 75.2563 15.5415 78.1702 15.5415C80.6524 15.5415 80.8765 15.5788 81.1233 16.0335ZM26.7473 33.3134C26.7473 42.588 26.8896 42.0077 24.1156 44.0478C23.2679 44.6712 22.4441 45.4113 22.2849 45.6926C21.8805 46.4066 21.91 47.6239 22.3519 48.466C22.9806 49.6641 23.8257 49.8457 28.774 49.8457C32.0602 49.8457 33.4092 49.7597 34.0115 49.5118C34.8501 49.1664 35.5695 48.1275 35.5695 47.2612C35.5695 46.674 34.9281 45.3815 34.6367 45.3815C34.2557 45.3815 32.697 43.6258 32.2242 42.6639C31.8704 41.9442 31.7547 41.2199 31.7554 39.7269C31.7564 37.8127 31.6822 37.5458 29.5739 31.8712C28.3739 28.6405 27.2468 25.8424 27.0696 25.6532C26.7983 25.3635 26.7473 26.5762 26.7473 33.3134ZM75.1857 39.0171C73.5967 39.558 72.8421 40.1019 71.9424 41.3554C71.0984 42.5314 70.848 44.7238 71.3544 46.506C71.801 48.0779 73.4188 49.6169 75.2059 50.1693C76.9404 50.7054 79.8937 50.7259 81.3498 50.2118C82.7544 49.7158 84.6875 48.4 85.393 47.4595L85.9548 46.7106L85.2802 45.5175C84.9092 44.861 84.3291 43.9125 83.991 43.4094C83.6531 42.9064 83.1443 42.0511 82.8606 41.5091C82.1791 40.2067 81.1242 39.3641 79.6261 38.9259C78.0257 38.4574 76.7534 38.4837 75.1857 39.0171ZM78.087 39.7699C79.5272 40.4957 79.907 42.3176 78.8378 43.3712C77.1845 45.0004 74.3266 44.0445 74.3266 41.8627C74.3266 40.0831 76.4091 38.9243 78.087 39.7699ZM29.1154 45.7257C30.0227 46.1879 30.3024 47.1056 29.7268 47.732C28.149 49.45 23.6866 49.0896 23.4575 47.2257C23.2558 45.5866 26.9306 44.6122 29.1154 45.7257Z" fill="#E31E24"/>
<path fill-rule="evenodd" clip-rule="evenodd" d="M60.6056 78.2386C59.0975 78.3568 56.3325 78.3977 54.4615 78.3293C50.4643 78.1837 49.8556 78.2725 48.9135 79.1395C48.3379 79.6695 48.2075 79.9797 48.2103 80.8119C48.2146 81.9719 48.3441 82.2365 49.1009 82.6291L49.6374 82.9075V96.399V109.89L48.7986 110.045C47.0661 110.366 46.3725 112.674 47.5899 114.069L48.1655 114.728H57.1482H66.131L66.7065 114.069C67.13 113.584 67.2819 113.131 67.2819 112.355C67.2819 111.078 66.5806 110.259 65.2819 110.018L64.4206 109.859V97.4171C64.4206 89.3032 64.5065 84.8171 64.6669 84.5212C64.8026 84.2715 65.3658 83.8434 65.9187 83.5694C67.3417 82.8645 67.7278 82.4707 67.9042 81.5438C68.1384 80.3133 67.6298 78.9557 66.7325 78.4165C65.8856 77.9078 65.1178 77.8855 60.6056 78.2386ZM26.3543 78.4367C25.9413 78.5612 25.2587 79.0497 24.8374 79.5227C24.1468 80.2976 24.0822 80.4961 24.1831 81.5304C24.318 82.9153 25.2 83.9536 26.5443 84.3103C27.0353 84.4407 27.6385 84.7994 27.8846 85.1079C28.1307 85.4162 30.8386 92.2334 33.9021 100.257L39.4718 114.846H40.8235H42.175L44.3565 108.784L46.5377 102.723L46.51 93.8057C46.4948 88.9011 46.4483 85.0469 46.4068 85.2407C46.3651 85.4345 46.2628 86.0034 46.1793 86.5048C46.0935 87.021 45.9383 87.3269 45.8217 87.2097C45.7084 87.0959 45.2759 85.9543 44.8605 84.6726C44.304 82.9552 44.1438 82.1049 44.2513 81.4411C44.484 80.0072 43.9397 79.0347 42.6282 78.5413C41.6685 78.1799 41.1218 78.1531 38.2524 78.326C34.2304 78.5685 34.0464 78.5695 30.2046 78.3709C28.388 78.2769 26.7942 78.3042 26.3543 78.4367ZM70.7684 78.5446C70.4901 78.6813 70.1122 79.1019 69.9286 79.4792C69.4147 80.5351 69.9686 81.8331 71.3354 82.7755C72.2617 83.4141 72.8483 84.2708 75.6273 89.0442C77.3977 92.0851 80.8252 97.9713 83.244 102.125C85.6627 106.278 87.7013 109.671 87.7743 109.665C87.8838 109.655 92.6001 100.009 93.5336 97.8856C93.7918 97.2979 93.5417 96.7946 89.8454 90.4629C87.6644 86.7271 85.8801 83.4975 85.8801 83.2863C85.8801 83.0748 86.1629 82.7193 86.5087 82.4961C87.8544 81.6272 88.0673 79.4771 86.8835 78.7128C86.3601 78.3747 85.331 78.3237 78.7792 78.3108C73.9503 78.3011 71.0941 78.3845 70.7684 78.5446ZM93.2148 78.3853C91.451 78.8307 90.8862 80.4865 92.0481 81.8056C92.2622 82.0483 92.8864 82.4381 93.4353 82.6716C93.9842 82.9052 94.6206 83.3782 94.8495 83.7226C95.2632 84.3448 95.2556 84.3695 93.6957 87.4536L92.1256 90.5583L93.6866 93.2021L95.2477 95.8456L98.0444 90.2496C99.5823 87.1716 101.07 84.3706 101.351 84.025C101.633 83.6782 102.393 83.2229 103.048 83.0086C104.541 82.5199 105.194 81.7365 105.194 80.4332C105.194 79.6782 105.05 79.3157 104.578 78.8789C103.965 78.3119 103.939 78.3094 98.7387 78.3094C95.866 78.3094 93.38 78.3434 93.2148 78.3853ZM35.2645 79.9708C36.1158 80.1416 36.3833 80.8923 35.9107 81.7837C35.6 82.3692 35.4844 83.4085 35.395 86.4155C35.3315 88.5478 35.1832 90.3936 35.0652 90.5172C34.6935 90.9072 34.1176 90.0835 32.2464 86.4841C30.4776 83.0823 30.4226 83.0083 29.3727 82.6293C27.9933 82.1312 27.3011 81.2779 27.6922 80.5575C27.8453 80.2757 28.2051 79.9578 28.4914 79.8514C28.996 79.6639 34.192 79.7555 35.2645 79.9708ZM99.0351 80.2255C99.8293 80.9336 99.3989 82.3161 98.0308 83.4505C97.0663 84.2501 96.6659 84.2275 96.438 83.3601C96.3123 82.8833 95.9816 82.5215 95.4177 82.244C94.514 81.7997 94.2599 81.1214 94.6957 80.3187C94.9246 79.8972 95.1864 79.8366 96.7782 79.8366C98.1381 79.8366 98.7096 79.9351 99.0351 80.2255ZM58.9246 80.6449C59.0813 80.8307 59.1747 81.2793 59.1325 81.6413C59.072 82.1615 58.8276 82.4061 57.9668 82.8074C56.8139 83.3453 56.4668 83.9237 54.5309 88.5301C54.1778 89.3701 53.6847 90.2646 53.435 90.5181C52.5781 91.3877 52.3861 90.7228 52.3027 86.592C52.2285 82.9214 52.2071 82.779 51.647 82.2675C50.9674 81.647 50.8966 80.8982 51.4853 80.5603C51.7149 80.4285 53.4183 80.3176 55.2712 80.3136C57.9184 80.3082 58.7007 80.3789 58.9246 80.6449ZM81.1233 81.0335C81.3441 81.44 81.2983 81.6225 80.8598 82.0826L80.3288 82.6394L80.9797 85.8835C81.7156 89.5517 81.7182 90.5273 80.9929 90.5273C80.628 90.5273 80.0045 89.6504 78.3316 86.7856C76.8867 84.3107 75.9377 82.9357 75.5295 82.725C75.0917 82.4989 74.9119 82.2168 74.9119 81.7558C74.9119 80.6698 75.2563 80.5415 78.1702 80.5415C80.6524 80.5415 80.8765 80.5788 81.1233 81.0335ZM26.7473 98.3134C26.7473 107.588 26.8896 107.008 24.1156 109.048C23.2679 109.671 22.4441 110.411 22.2849 110.693C21.8805 111.407 21.91 112.624 22.3519 113.466C22.9806 114.664 23.8257 114.846 28.774 114.846C32.0602 114.846 33.4092 114.76 34.0115 114.512C34.8501 114.166 35.5695 113.127 35.5695 112.261C35.5695 111.674 34.9281 110.381 34.6367 110.381C34.2557 110.381 32.697 108.626 32.2242 107.664C31.8704 106.944 31.7547 106.22 31.7554 104.727C31.7564 102.813 31.6822 102.546 29.5739 96.8712C28.3739 93.6405 27.2468 90.8424 27.0696 90.6532C26.7983 90.3635 26.7473 91.5762 26.7473 98.3134ZM75.1857 104.017C73.5967 104.558 72.8421 105.102 71.9424 106.355C71.0984 107.531 70.848 109.724 71.3544 111.506C71.801 113.078 73.4188 114.617 75.2059 115.169C76.9404 115.705 79.8937 115.726 81.3498 115.212C82.7544 114.716 84.6875 113.4 85.393 112.459L85.9548 111.711L85.2802 110.518C84.9092 109.861 84.3291 108.912 83.991 108.409C83.6531 107.906 83.1443 107.051 82.8606 106.509C82.1791 105.207 81.1242 104.364 79.6261 103.926C78.0257 103.457 76.7534 103.484 75.1857 104.017ZM78.087 104.77C79.5272 105.496 79.907 107.318 78.8378 108.371C77.1845 110 74.3266 109.045 74.3266 106.863C74.3266 105.083 76.4091 103.924 78.087 104.77ZM29.1154 110.726C30.0227 111.188 30.3024 112.106 29.7268 112.732C28.149 114.45 23.6866 114.09 23.4575 112.226C23.2558 110.587 26.9306 109.612 29.1154 110.726Z" fill="#E31E24"/>
<path fill-rule="evenodd" clip-rule="evenodd" d="M60.9964 57.2955C58.9306 58.0939 57.4019 59.4771 56.5381 61.3302C56.0996 62.271 55.9925 62.9028 56.0004 64.5022C56.0087 66.2268 56.1051 66.6871 56.7059 67.8743C58.994 72.3954 64.7685 73.3921 68.4543 69.902C70.3373 68.1194 71.193 65.5029 70.663 63.1512C70.0597 60.4757 68.802 58.8098 66.5468 57.6994C65.3181 57.0943 64.8312 56.9863 63.4023 57.0013C62.4726 57.0112 61.3898 57.1435 60.9964 57.2955ZM62.5408 59.7532C62.8715 59.9912 63.3412 60.58 63.5842 61.0619C64.2027 62.2884 63.948 63.411 62.793 64.5494C62.0048 65.326 61.7434 65.442 60.7825 65.442C58.1471 65.442 56.772 62.1986 58.525 60.1171C59.4041 59.0734 61.3495 58.897 62.5408 59.7532Z" fill="#E31E24"/>
</svg>
