<?xml version="1.0" encoding="utf-8"?>
<!-- Generator: Adobe Illustrator 16.0.3, SVG Export Plug-In . SVG Version: 6.00 Build 0)  -->
<!DOCTYPE svg PUBLIC "-//W3C//DTD SVG 1.1//EN" "http://www.w3.org/Graphics/SVG/1.1/DTD/svg11.dtd">
<svg version="1.1" id="Layer_1" xmlns="http://www.w3.org/2000/svg" xmlns:xlink="http://www.w3.org/1999/xlink" x="0px" y="0px"
	 width="16px" height="16px" viewBox="0 0 16 16" enable-background="new 0 0 16 16" xml:space="preserve">
<g>
	<path fill-rule="evenodd" clip-rule="evenodd" fill="#FEFEFE" d="M5.589,4.669C4.751,4.893,4.002,5.199,3.314,5.624
		C2.656,6.031,2.062,6.507,1.737,7.193c-0.491,1.034-0.779,2.113-0.729,3.251c0.068,1.523,0.496,2.937,1.659,4.058
		c1.189,1.147,2.58,1.827,4.377,1.338c0.564-0.155,1.153-0.236,1.742-0.152c1.019,0.146,1.834-0.226,2.405-0.943
		c1.399-1.757,2.278-3.682,1.997-5.938c-0.174-1.407-0.61-2.673-2.023-3.45c-0.172-0.095-0.121-0.155,0.025-0.228
		c0.352-0.175,0.71-0.348,1.048-0.544c0.803-0.467,1.627-0.918,2.235-1.606c0.521-0.592,0.662-1.29,0.389-2.02
		c-0.256-0.682-0.904-0.827-1.578-0.915c-0.936-0.122-1.847,0.021-2.748,0.236C9.9,0.433,9.265,0.605,8.788,1.071
		C8.7,1.158,8.585,1.151,8.471,1.122C8.322,1.081,8.166,1.063,8.028,1.002C7.737,0.874,7.505,0.961,7.298,1.146
		C6.963,1.445,6.592,1.7,6.229,1.967C5.915,2.198,5.596,2.426,5.354,2.729C4.945,3.24,4.926,3.762,5.3,4.297
		C5.383,4.416,5.479,4.528,5.589,4.669z"/>
	<path fill-rule="evenodd" clip-rule="evenodd" fill="#0EA555" d="M5.589,4.669C5.479,4.528,5.383,4.416,5.3,4.297
		C4.926,3.762,4.945,3.24,5.354,2.729c0.242-0.303,0.561-0.53,0.875-0.761C6.592,1.7,6.963,1.445,7.298,1.146
		c0.207-0.185,0.439-0.272,0.729-0.144c0.138,0.06,0.294,0.078,0.443,0.119c0.115,0.03,0.229,0.037,0.317-0.05
		C9.265,0.605,9.9,0.433,10.537,0.28c0.901-0.215,1.812-0.357,2.748-0.236c0.674,0.088,1.322,0.233,1.578,0.915
		c0.273,0.73,0.133,1.428-0.389,2.02c-0.607,0.688-1.432,1.139-2.235,1.606c-0.338,0.196-0.696,0.369-1.048,0.544
		c-0.146,0.073-0.198,0.133-0.025,0.228c1.414,0.777,1.849,2.043,2.023,3.45c0.281,2.256-0.598,4.181-1.997,5.938
		c-0.571,0.718-1.386,1.09-2.405,0.943c-0.589-0.084-1.177-0.003-1.742,0.152c-1.798,0.489-3.188-0.19-4.377-1.338
		c-1.164-1.121-1.591-2.534-1.659-4.058c-0.051-1.139,0.1-2.202,0.729-3.251c0.325-0.686,0.918-1.162,1.577-1.569
		C4.002,5.199,4.751,4.893,5.589,4.669z M8.642,14.977c1.08,0.073,1.498-0.038,2.258-1.055c1.174-1.57,1.654-3.312,1.48-5.205
		c-0.068-0.76-0.309-1.48-0.832-2.093c-0.387-0.454-0.816-0.834-1.513-0.791C9.921,5.841,9.793,5.792,9.681,5.747
		C9.459,5.656,9.375,5.479,9.37,5.262c-0.002-0.22,0.118-0.358,0.326-0.44c0.113-0.045,0.227-0.085,0.345-0.124
		c1.106-0.362,2.185-0.783,3.102-1.487c0.438-0.337,0.846-0.701,1.053-1.209c0.289-0.711-0.111-1.277-0.928-1.316
		c-0.567-0.026-1.133-0.016-1.695,0.069C10.756,0.877,9.928,1.009,9.267,1.49C8.867,1.78,8.516,1.866,8.06,1.686
		c-0.201-0.08-0.403-0.059-0.559,0.116c-0.281,0.314-0.65,0.519-1.025,0.72c-0.945,0.506-0.961,1.555-0.03,2.082
		C6.9,4.862,7.414,4.967,7.932,5.05c0.202,0.031,0.372,0.091,0.393,0.299c0.033,0.313-0.241,0.442-0.466,0.584
		c-0.167,0.105-0.313,0.029-0.422-0.11C7.287,5.634,7.105,5.475,6.86,5.411C6.271,5.257,5.68,5.262,5.1,5.453
		c-2.28,0.747-3.675,2.667-3.39,5.122c0.051,0.438,0.152,0.866,0.219,1.3c0.175,1.152,0.746,2.084,1.783,2.762
		c0.816,0.533,1.715,0.835,2.701,0.591C7.173,15.038,7.934,15.008,8.642,14.977z"/>
	<path fill-rule="evenodd" clip-rule="evenodd" fill="#F4DF1B" d="M8.642,14.977c-0.708,0.031-1.469,0.062-2.229,0.25
		c-0.986,0.244-1.884-0.058-2.701-0.591c-1.037-0.678-1.608-1.609-1.783-2.762c-0.066-0.434-0.167-0.861-0.219-1.3
		C1.425,8.12,2.819,6.199,5.1,5.453c0.58-0.19,1.171-0.195,1.76-0.042c0.245,0.063,0.427,0.223,0.577,0.413
		c0.11,0.139,0.255,0.215,0.422,0.11c0.225-0.142,0.499-0.271,0.466-0.584C8.303,5.141,8.133,5.081,7.932,5.05
		C7.414,4.967,6.9,4.862,6.445,4.604c-0.931-0.527-0.915-1.576,0.03-2.082c0.375-0.201,0.744-0.406,1.025-0.72
		C7.657,1.627,7.859,1.606,8.06,1.686C8.516,1.866,8.867,1.78,9.267,1.49c0.662-0.48,1.489-0.612,2.306-0.734
		c0.562-0.085,1.128-0.096,1.695-0.069c0.816,0.039,1.217,0.605,0.928,1.316c-0.207,0.508-0.615,0.872-1.053,1.209
		c-0.917,0.704-1.996,1.125-3.102,1.487C9.923,4.737,9.809,4.777,9.696,4.822c-0.208,0.082-0.328,0.22-0.326,0.44
		c0.005,0.217,0.09,0.394,0.312,0.484c0.112,0.045,0.24,0.094,0.354,0.086c0.697-0.044,1.126,0.336,1.513,0.791
		c0.523,0.613,0.763,1.333,0.832,2.093c0.174,1.894-0.307,3.635-1.48,5.205C10.14,14.938,9.722,15.05,8.642,14.977z M11.412,9.12
		c0.014-0.365-0.152-0.959-0.512-1.501c-0.219-0.331-0.488-0.617-0.879-0.781C9.577,6.652,9.28,6.737,9.023,7.118
		C8.844,7.385,8.679,7.662,8.48,7.916c-0.245,0.314-0.542,0.58-0.97,0.669C7.078,8.676,6.813,8.499,6.756,8.091
		C6.739,7.968,6.72,7.845,6.709,7.722c-0.048-0.537-0.32-0.813-0.891-0.904C4.812,6.66,3.764,7.223,3.31,8.167
		C3.135,8.53,3.19,8.646,3.593,8.771C3.642,8.786,3.692,8.798,3.74,8.816c0.642,0.246,0.708,0.646,0.172,1.048
		c-0.264,0.196-0.538,0.386-0.79,0.597c-0.297,0.252-0.404,0.574-0.293,0.938c0.29,0.956,0.763,1.812,1.628,2.44
		c0.654,0.476,1.347,0.803,2.221,0.553c0.667-0.19,1.348-0.345,2.018-0.531c0.476-0.133,0.927-0.315,1.253-0.689
		C10.918,12.07,11.374,10.802,11.412,9.12z M12.871,1.543c-0.029,0.003-0.125,0.001-0.215,0.02c-0.872,0.177-1.717,0.44-2.531,0.787
		c-0.364,0.154-0.72,0.327-0.971,0.633C8.987,3.185,8.921,3.414,9.039,3.651C9.156,3.89,9.392,3.986,9.661,4.01
		c0.165,0.014,0.329,0.003,0.483-0.063c0.306-0.133,0.623-0.251,0.919-0.398c0.749-0.372,1.497-0.749,2.158-1.255
		c0.166-0.129,0.328-0.299,0.252-0.513C13.398,1.552,13.158,1.538,12.871,1.543z M7.817,4.36c0.09,0.007,0.249-0.017,0.402-0.084
		c0.146-0.062,0.294-0.135,0.265-0.305C8.455,3.796,8.31,3.692,8.122,3.673c-0.143-0.015-0.288-0.016-0.43-0.002
		C7.484,3.692,7.359,3.648,7.346,3.427C7.337,3.285,7.247,3.176,7.08,3.153C6.911,3.129,6.784,3.201,6.689,3.328
		c-0.2,0.269-0.129,0.605,0.179,0.794C7.131,4.282,7.426,4.354,7.817,4.36z"/>
	<path fill-rule="evenodd" clip-rule="evenodd" fill="#DC2B1A" d="M11.412,9.12c-0.039,1.682-0.494,2.95-1.462,4.052
		c-0.327,0.374-0.778,0.557-1.253,0.689c-0.67,0.187-1.351,0.341-2.018,0.531c-0.874,0.25-1.567-0.077-2.221-0.553
		c-0.865-0.629-1.338-1.484-1.628-2.44c-0.111-0.364-0.004-0.687,0.293-0.938c0.252-0.211,0.525-0.4,0.79-0.597
		C4.447,9.463,4.381,9.063,3.74,8.816c-0.048-0.019-0.098-0.03-0.146-0.046C3.19,8.646,3.135,8.53,3.31,8.167
		C3.764,7.223,4.812,6.66,5.818,6.818c0.57,0.091,0.842,0.367,0.891,0.904c0.011,0.123,0.03,0.246,0.047,0.369
		C6.813,8.499,7.078,8.676,7.51,8.585c0.428-0.09,0.725-0.355,0.97-0.669c0.199-0.253,0.364-0.531,0.543-0.797
		c0.257-0.381,0.554-0.466,0.998-0.28c0.391,0.164,0.66,0.45,0.879,0.781C11.26,8.161,11.426,8.755,11.412,9.12z"/>
	<path fill-rule="evenodd" clip-rule="evenodd" fill="#0BA550" d="M12.871,1.543c0.288-0.006,0.528,0.009,0.602,0.236
		c0.076,0.214-0.086,0.384-0.252,0.513c-0.661,0.506-1.409,0.883-2.158,1.255c-0.296,0.147-0.613,0.266-0.919,0.398
		C9.99,4.013,9.826,4.023,9.661,4.01C9.392,3.986,9.156,3.89,9.039,3.651C8.921,3.414,8.987,3.185,9.154,2.983
		c0.25-0.307,0.607-0.479,0.971-0.633c0.814-0.347,1.659-0.61,2.531-0.787C12.746,1.544,12.841,1.547,12.871,1.543z"/>
	<path fill-rule="evenodd" clip-rule="evenodd" fill="#14A448" d="M7.817,4.36C7.426,4.354,7.131,4.282,6.868,4.122
		C6.56,3.934,6.489,3.597,6.689,3.328C6.784,3.201,6.911,3.129,7.08,3.153c0.167,0.023,0.257,0.132,0.266,0.274
		c0.014,0.221,0.139,0.265,0.346,0.244c0.142-0.014,0.287-0.013,0.43,0.002C8.31,3.692,8.455,3.796,8.484,3.971
		c0.029,0.17-0.119,0.243-0.265,0.305C8.066,4.343,7.907,4.367,7.817,4.36z"/>
</g>
</svg>
