<?xml version="1.0" encoding="UTF-8"?> <!-- Generator: Adobe Illustrator 28.0.0, SVG Export Plug-In . SVG Version: 6.00 Build 0) --> <svg xmlns="http://www.w3.org/2000/svg" xmlns:xlink="http://www.w3.org/1999/xlink" id="Слой_1" x="0px" y="0px" viewBox="0 0 32 32" style="enable-background:new 0 0 32 32;" xml:space="preserve"> <g> <path d="M3.1,11.5c-0.1,0-0.2,0.1-0.2,0.2C3,11.7,3.1,11.6,3.1,11.5z"></path> <path d="M8.6,9.8l0-0.2L8.5,9.7c0,0.1-0.1,0.1-0.1,0.1v0.4c0,0,0.1,0,0.1,0l0-0.1h0.1L8.6,9.8C8.6,9.8,8.5,9.8,8.6,9.8z"></path> <path d="M8.9,9.7c0,0,0.1-0.1,0.1-0.2c0,0,0,0-0.1,0C8.9,9.6,8.9,9.6,8.9,9.7C8.9,9.7,8.9,9.7,8.9,9.7z"></path> <path d="M4.4,18.8C4.4,18.8,4.4,18.8,4.4,18.8L4.4,18.8L4.4,18.8z"></path> <path d="M5.2,9.7l0.2-0.1c0.1,0,0.1-0.1,0.2-0.1c0.1-0.1,0.1-0.2,0.2-0.2l0.1-0.1C6,9.2,6.3,9,6.4,9c0.1,0,0.1-0.2,0.2-0.2l0.2-0.1 c0-0.1,0-0.1-0.1-0.1c0,0-0.1,0-0.1,0c0,0-0.1,0.1-0.1,0.1L6.4,8.8c0,0.1-0.2,0.1-0.2,0.2L6,9.1c0,0-0.1,0-0.1,0.1L5.8,9.3 c-0.1,0-0.7,0.4-0.7,0.4h0c0,0,0,0,0,0.1h0.1L5.2,9.7z"></path> <path d="M1.7,18.4l0-0.1c0,0,0,0,0-0.1L1.7,18.4z"></path> <path d="M1.5,18.7L1.5,18.7c0,0,0.1-0.2,0.1-0.3h0C1.7,18.5,1.5,18.7,1.5,18.7z"></path> <path d="M5.2,17.2c0,0-0.1,0-0.1,0.1L5.2,17.2c-0.1,0.1,0,0.2,0,0.2v0c0-0.1,0.1,0,0.1-0.3C5.3,17,5.2,17,5.2,17V17.2z"></path> <polygon points="5.3,16.9 5.4,16.8 5.3,16.7 "></polygon> <path d="M0.1,14.9l0.1-0.1c0-0.1,0-0.1,0.1-0.1c0,0,0.1-0.1,0.1-0.1l0.1-0.1c0.1,0,0.1-0.1,0.1-0.1c0,0,0.1,0.1,0.1,0.1 c0,0,0,0,0,0l-0.1,0.3c-0.1,0-0.1,0.2-0.1,0.3c-0.2,0-0.1,0.6-0.3,0.6l0,0.1c0.1,0,0.1,0,0.1-0.1l0.1-0.1l0.1-0.1c0,0,0.1,0,0.1,0 l0.1-0.1c0,0,0-0.1,0,0c0,0,0,0,0,0c0,0,0.3-0.2,0.3-0.2c0,0,0.1-0.1,0.1-0.1c0,0,0,0,0,0c0,0.1-0.2,0.2-0.2,0.2h0 c0,0-0.1,0-0.1,0.1l0,0.1l0.1,0l0.1-0.1c0.1,0,0.2-0.1,0.2-0.2h0.1l0-0.1h0.1c0.1,0,0.2-0.1,0.3-0.2c0,0,0.1,0.1,0.1,0.1 c0,0,0,0,0,0c0,0,0.1-0.1,0.1-0.1c0-0.1-0.1,0-0.1,0c0,0,0,0,0.1,0c0,0,0.1-0.1,0.1-0.1c0.1,0,0.1-0.1,0.2-0.1l-0.1,0.1 c0,0.2-0.2,0.2-0.2,0.3c0,0,0.1,0.1,0.1,0.1c0.2,0,0-0.3,0.2-0.3c0.1,0,0.1,0,0.1-0.1c0.5-0.1,0-0.2,0.5-0.3c0-0.1,0.1-0.1,0.1-0.2 l0.1-0.1l0.1-0.1c0,0,0.1,0,0.1,0c0,0,0.1,0,0.1,0c0,0-0.1,0.1-0.1,0.1v0.1c-0.1,0-0.1,0.2-0.2,0.3c0,0,0-0.1,0-0.1 c-0.1,0,0,0.3-0.2,0.2c0,0,0,0.1,0,0.2c0,0.1,0,0.1-0.1,0.1l0,0.2c-0.2,0,0,0.3-0.2,0.2l-0.1,0.1c0,0-0.1,0-0.1,0 c0,0.1,0,0.1,0.1,0.1l-0.1,0.1c0,0,0,0,0,0c0,0,0,0.1,0,0.1c0,0,0,0.1-0.1,0.1c0,0.1-0.1,0.2-0.2,0.3c0,0.1-0.1,0.2-0.1,0.3 l-0.1,0.1c0,0.1-0.1,0.3-0.2,0.4c0,0.1-0.1,0.3-0.1,0.3c0,0.1-0.1,0.1-0.1,0.2c0,0-0.1,0.1-0.1,0.1c0,0.1-0.1,0.1-0.1,0.2 c0,0,0,0.1,0.1,0.1c0-0.1,0.1-0.2,0.1-0.3c0.1-0.1,0.1-0.2,0.1-0.3l0.1,0c0-0.1,0.1-0.2,0.2-0.3c0,0,0,0.1,0,0.1 c0,0.1-0.1,0.1-0.1,0.2L2,17.7l0,0.2c-0.1,0-0.1,0.4-0.1,0.3h0l0,0v0v0l0,0.1c0,0.1,0,0.1,0,0.2l-0.1,0.3c0,0,0,0.1,0,0.1 c0,0-0.1,0-0.1,0c0,0,0,0.2-0.1,0.2c0,0,0,0.1-0.1,0.1l0,0.1v0.4l-0.1,0l0.1,0.1c0.1,0,0.1,0,0.1,0.1l0.1,0.1c0,0,0,0,0,0 c0,0,0,0.1,0,0.1c0,0,0,0.1-0.1,0.1v0.2c-0.1,0.1,0,0.2-0.2,0.2v0.3c0,0,0.1,0.1,0.1,0.1c0,0,0,0-0.1,0c0,0.1,0,0.3-0.1,0.4v0.1 c0,0.1,0,0.1,0.1,0.1l0-0.2c0,0,0.1,0,0.1-0.1c0,0,0,0,0-0.1c0,0,0,0,0.1,0v-0.2l0.1-0.1c0-0.1,0.1-0.2,0.1-0.3c0,0,0-0.1,0-0.1H2 c0,0,0.2-0.3,0.2-0.3l0.1-0.3c0.1,0,0.1-0.2,0.2-0.2c0,0,0.1-0.2,0.1-0.2c0,0,0,0,0,0.1c0,0.1,0,0.1-0.1,0.2c0,0.1,0,0.1,0,0.1 c-0.1,0.2-0.6,1.4-0.6,1.7c-0.1,0-0.1,0.2-0.1,0.3l-0.1,0.1v0.1c0,0,0,0,0,0c0.1,0,0.2-0.3,0.2-0.3l0.2-0.3c0.1,0,0-0.2,0.1-0.2 c0,0,0.1-0.1,0.1-0.1l0.1,0c0-0.2,0.2-0.4,0.3-0.6v0.2c-0.1,0,0,0.1-0.1,0.1l-0.1,0.2c0,0,0.1,0,0.1,0c0,0.1-0.1,0.2-0.1,0.2v0.2 c0,0,0,0.1,0,0.1c0,0,0,0,0,0c0-0.1,0.2-0.3,0.2-0.5c0,0,0-0.1,0.1-0.1c0,0,0-0.1,0-0.1c0,0,0.1,0.1,0.1,0.1c0,0,0,0,0,0l-0.1,0.4 c0,0-0.2,0.2-0.1,0.2c0,0.1-0.1,0.3-0.1,0.4l-0.1,0c0,0,0,0.1-0.1,0.1l-0.1,0.1c0,0.1,0.1,0.1,0.1,0.1l-0.1,0.1 c-0.1,0.1-0.2,0.7-0.2,0.8L2,23.4c0,0.2-0.2,0.4-0.2,0.6L2,24c0,0,0-0.3,0.1-0.2c0.1-0.2,0.2-0.3,0.3-0.5c0-0.2,0.1,0,0.1-0.2 c0,0,0-0.1,0.1-0.1h0c0,0,0-0.1,0-0.1l0.1-0.1l0.1-0.2h0.1c0,0,0,0,0-0.1l0.1-0.1c0-0.1,0-0.1,0-0.2V22L3,22c0-0.1,0-0.1,0.1-0.2 l0-0.1c0,0,0,0,0,0c0,0,0-0.1,0.1-0.1c0.1,0,0-0.1,0.1-0.1l0.1-0.3l0-0.1l0-0.2c0.1,0,0.1-0.1,0.1-0.2l0.1-0.1c0-0.1,0.1,0,0.1-0.1 c0,0,0.1,0,0.1,0c0,0,0-0.1-0.1-0.1l0.1-0.1c0-0.1,0.1-0.1,0.1-0.1l0.1-0.1c0,0,0,0,0-0.1c0,0,0,0,0,0c0-0.1,0.1-0.2,0.1-0.3 c0-0.2,0.3-0.6,0.3-0.6L4.3,19c0-0.1,0-0.1,0-0.1l0,0l0,0v0c0,0,0,0,0,0l0.1-0.2v0l-0.1,0.1c0-0.1,0-0.1,0-0.2l0,0.1 c0-0.1,0-0.1,0.1-0.2l-0.1,0l0.1-0.1l0,0.1h0l0-0.1l0,0c0-0.1,0.1-0.1,0-0.2l0,0l0.1-0.1c0.1,0,0-0.1,0.1-0.1V18l-0.1,0.1 c0.1,0,0.1,0,0.2,0l0.1-0.3c0.1,0,0.1-0.1,0.1-0.2v-0.1c0,0-0.1-0.1-0.1-0.1l-0.1,0l0-0.2c0.1,0,0.1,0,0.1-0.1c0-0.1,0-0.2-0.1-0.2 l0-0.1c0,0,0.2-0.1,0.2-0.1L5.2,17c0.1,0,0-0.1,0-0.1l0.2-0.3h0c0,0,0.1,0,0.1-0.1c0,0,0-0.1,0-0.1c0,0,0.1,0.2,0.1,0.2 c0,0,0,0,0,0c0,0,0.1-0.1,0.1-0.1c0-0.1,0-0.1-0.1-0.1c0,0,0,0,0-0.1c0,0,0-0.2,0.1-0.2h0.2c0-0.1,0.1-0.3,0.1-0.5l0.1-0.1l0-0.2 C6,15.2,6,15.1,6.1,15c0,0,0.1-0.2,0.1-0.2c0,0,0,0.2,0.1,0.2c0,0,0-0.1,0-0.1c0.1,0,0.1-0.2,0.1-0.3l0-0.1l0.1,0l0.1-0.1 c0-0.1,0.2-0.3,0.2-0.5c0.1-0.1,0.1-0.2,0-0.3l0.1-0.1c0-0.1,0-0.3,0.1-0.3L7,13h0c0,0,0.2-0.3,0.2-0.4l0-0.1l0,0l0-0.1 c0,0,0.1,0.2,0.1,0.2c0,0,0-0.1,0-0.1c0,0,0-0.1,0.1-0.2c0.1,0,0.1,0,0.1-0.1c0,0,0,0,0.1,0c0-0.1,0.1-0.3,0.2-0.4l0-0.2l0.1-0.1v0 c0,0,0-0.1,0.1-0.1l0.1-0.2c-0.1,0-0.1,0-0.1-0.1c0.1,0,0-0.1,0.1-0.1l0,0c0,0-0.1,0-0.1-0.1c0,0,0,0,0.1,0h0c0.1,0,0-0.1,0-0.1 c0,0,0.1,0,0.1,0c0-0.1,0.2-0.5,0.3-0.5c0,0,0-0.2,0-0.2s-0.2,0.2-0.2,0.3h0l0-0.1c0,0,0-0.1,0-0.1l-0.1-0.1c0-0.1,0-0.4,0.1-0.4 c0-0.1,0.1-0.1,0.1-0.2V9.5c0-0.1,0.1,0,0.1,0c0,0,0-0.1,0-0.1c0.1-0.2,0.1-0.3,0.2-0.5h0c-0.1,0-0.1-0.2-0.1-0.2l0-0.1h0 c0,0,0,0,0-0.1c0-0.1-0.3-0.3-0.4-0.3c0,0-0.1-0.1-0.2-0.1L8,8.3c0,0-0.1,0-0.1,0c0,0,0.1,0,0.1,0L8,8.1L7.7,8c0,0,0,0,0,0 c0,0-0.1,0-0.1,0.1C7.6,8,7.5,8.1,7.4,8.1C7.3,8.2,7.2,8.3,7.1,8.4c0,0.1-0.1,0.1-0.1,0.1C7,8.6,7,8.6,7,8.7h0c0,0-0.1,0-0.1,0.1 c-0.1,0,0,0.1-0.1,0.1C6.6,9,6.5,9,6.4,9L6.3,9.1h0c0,0-0.1,0-0.1,0.1C6,9.5,5.6,9.7,5.3,9.9L5.2,10L5,10l-0.1,0.1 c-0.1,0-0.1,0-0.2,0.1l-0.1,0.1c0,0.1-0.1,0.2-0.2,0.2l-0.1,0c0,0,0.1,0.1,0.1,0.2c-0.1,0-0.1,0-0.2,0c0,0-0.1,0.1-0.1,0.1l-0.1,0 c0,0.1,0,0.1,0.1,0.1c0,0,0.1,0.1,0.1,0.1c0,0,0,0-0.1,0C4.1,11,4.1,11,4,11c0,0.1-0.3,0.1-0.4,0.1l-0.1,0c0.1,0,0.1-0.1,0.2-0.1h0 l0,0l-0.1,0c-0.1,0-0.1,0-0.2,0l-0.2,0.2c-0.1,0-0.1,0.1-0.1,0.1c0,0,0,0,0,0c0,0,0,0.1,0.1,0.1l0.1-0.1c0,0,0.1,0,0.1,0 c0,0.1-0.2,0.3-0.3,0.3c-0.1,0-0.2,0.1-0.3,0.2c0,0.1,0,0.1-0.1,0.1c0,0-0.1,0.1-0.1,0.2l-0.1,0.1c0,0.1-0.1,0-0.1,0.1 c0,0-0.1,0-0.1,0c0,0-0.1-0.1,0-0.1c0,0-0.1-0.2-0.1-0.2c0,0,0,0.1,0,0.1c-0.1,0,0,0,0,0.1c0,0,0,0-0.1,0c0,0,0.1,0.1,0,0.1 l-0.2,0.2l-0.1,0.1h0c-0.1,0-0.1,0-0.1,0.1l-0.1,0.1C1.4,13,1.2,13.2,1,13.3c-0.2,0-0.1,0.2-0.3,0.2l-0.2,0.2c0,0.1,0,0.2-0.1,0.3 c-0.1,0.1-0.1,0.2-0.2,0.3c0.1,0,0.1,0.1,0.1,0.2l-0.1,0.1c0,0.1-0.3,0.3-0.3,0.4C0,14.9,0.1,14.9,0.1,14.9z M1.7,20.2 C1.7,20.2,1.7,20.3,1.7,20.2C1.6,20.3,1.6,20.2,1.7,20.2C1.6,20.2,1.8,20.2,1.7,20.2C1.8,20.2,1.7,20.2,1.7,20.2z M1.9,19.6 C1.8,19.6,1.8,19.6,1.9,19.6c0-0.1,0-0.1,0-0.1C1.9,19.5,1.9,19.5,1.9,19.6C1.9,19.6,1.9,19.6,1.9,19.6z M2.2,17.1 C2.2,17.1,2.2,17.1,2.2,17.1L2.2,17.1C2.2,17.1,2.2,17.1,2.2,17.1z M2.4,16.7C2.4,16.7,2.4,16.7,2.4,16.7L2.4,16.7 C2.5,16.7,2.5,16.7,2.4,16.7z M2.5,16.6C2.5,16.6,2.5,16.6,2.5,16.6L2.5,16.6C2.5,16.6,2.5,16.6,2.5,16.6z M2.6,16.5 C2.5,16.5,2.5,16.5,2.6,16.5C2.5,16.5,2.5,16.4,2.6,16.5C2.6,16.4,2.6,16.5,2.6,16.5C2.6,16.5,2.6,16.5,2.6,16.5z M2.7,19.1 C2.7,19.1,2.7,19.1,2.7,19.1L2.7,19.1C2.7,19.1,2.7,19.1,2.7,19.1z M2.9,22.1C2.9,22.1,2.9,22.1,2.9,22.1L2.9,22.1z M2.9,18.6 C2.9,18.6,2.9,18.5,2.9,18.6L2.9,18.6C2.9,18.5,2.9,18.6,2.9,18.6z M8.3,10.6C8.3,10.6,8.3,10.6,8.3,10.6 C8.3,10.6,8.3,10.6,8.3,10.6C8.3,10.6,8.2,10.6,8.3,10.6L8.3,10.6z M8.2,10.2L8.2,10.2C8.1,10.2,8.1,10.2,8.2,10.2 C8.2,10.2,8.2,10.2,8.2,10.2z M7.7,11.2C7.7,11.2,7.7,11.2,7.7,11.2C7.6,11.2,7.6,11.2,7.7,11.2L7.7,11.2z M7.5,12.4 C7.4,12.4,7.4,12.4,7.5,12.4C7.4,12.4,7.4,12.3,7.5,12.4C7.5,12.3,7.5,12.4,7.5,12.4C7.5,12.4,7.5,12.4,7.5,12.4z M7.1,12.3 c0.1-0.1,0.1-0.3,0.2-0.4c0,0,0-0.3,0.1-0.3l0.1,0.1l-0.1,0.1c0,0.1-0.1,0.2-0.1,0.3c0,0-0.1,0.1-0.1,0.1l-0.1,0.3c0,0-0.1,0-0.1,0 C7.1,12.4,7.1,12.3,7.1,12.3z M6.5,13.8L6.5,13.8L6.5,13.8C6.5,13.8,6.5,13.8,6.5,13.8z M6.7,13.5C6.6,13.5,6.6,13.5,6.7,13.5 L6.7,13.5C6.7,13.5,6.7,13.5,6.7,13.5L6.7,13.5z M6.7,13.5C6.7,13.5,6.7,13.4,6.7,13.5C6.7,13.4,6.7,13.4,6.7,13.5 C6.7,13.4,6.7,13.4,6.7,13.5C6.7,13.4,6.7,13.5,6.7,13.5z M6.8,13.3C6.8,13.3,6.7,13.2,6.8,13.3L6.8,13.3 C6.8,13.2,6.8,13.3,6.8,13.3z M6.9,12.9C6.9,12.9,6.9,12.8,6.9,12.9L6.9,12.9C6.9,12.8,7,12.8,6.9,12.9C7,12.8,7,12.9,6.9,12.9z M7.1,12.6C7,12.6,7,12.6,7.1,12.6L7,12.5L7.1,12.6z M6.7,11.9l0.1-0.2c0,0,0,0,0.1,0c0,0,0-0.1,0-0.1L7,11.8C7,11.9,7,11.9,7,12.1 l-0.1,0.1l-0.1,0v-0.1c0,0,0,0,0,0C6.8,12,6.7,12,6.7,11.9C6.7,11.9,6.7,11.9,6.7,11.9z M6.4,12.8l0.1-0.1l-0.1-0.1l0.1,0.1 l0.1,0.1c-0.1,0-0.1,0.1-0.1,0.2h0c-0.1,0-0.1,0-0.1-0.1V12.8z M6.5,13.9C6.5,13.9,6.5,13.9,6.5,13.9L6.5,13.9 C6.5,13.9,6.4,13.9,6.5,13.9L6.5,13.9z M6.3,14.3c0-0.1,0-0.2,0.1-0.2C6.4,14.2,6.3,14.2,6.3,14.3c0,0.1,0,0.2-0.1,0.2c0,0,0,0,0,0 C6.2,14.4,6.2,14.3,6.3,14.3z M6,14.3c0-0.1,0-0.1,0.1-0.2c0,0,0.1,0.1,0.1,0.1c0,0,0,0,0,0L6,14.5l-0.1,0 C5.9,14.4,5.9,14.3,6,14.3z M5.9,15c0,0,0-0.1,0-0.1C5.9,15,5.9,15,5.9,15c0,0.1,0,0.1,0,0.1C5.8,15.1,5.8,15,5.9,15L5.9,15z M5.6,15.5v-0.1l0.1,0v-0.1l0.1,0.1c0,0.1,0,0-0.1,0c-0.1,0,0,0.1,0,0.2l-0.1,0.1v0C5.6,15.7,5.6,15.6,5.6,15.5L5.6,15.5z M5.3,15.6c0-0.1,0.1-0.2,0.1-0.3l0.1,0.1c0,0,0,0.1-0.1,0.1l0,0.2l0.1,0.1c0,0.1,0.1,0.1,0.1,0.1c0,0,0.1,0,0.1,0 c0,0-0.3,0.2-0.3,0.1c-0.1,0-0.1,0.1-0.1,0.2c-0.1,0-0.1,0-0.1-0.1C5.2,15.9,5.3,15.5,5.3,15.6z M4.9,17.7 C4.9,17.7,4.9,17.7,4.9,17.7C4.8,17.7,4.8,17.7,4.9,17.7L4.9,17.7z M4.6,18.2L4.6,18.2C4.6,18.2,4.6,18.2,4.6,18.2L4.6,18.2z M3.5,11.2C3.5,11.2,3.5,11.2,3.5,11.2C3.5,11.2,3.4,11.2,3.5,11.2L3.5,11.2z"></path> <path d="M6.3,15.5l0-0.2c0,0-0.1,0.1-0.1,0.1v0.1c0,0-0.1,0.1-0.1,0.1s0,0,0,0C6.2,15.6,6.2,15.5,6.3,15.5z"></path> <path d="M15.1,19.9L15.1,19.9c0,0.2,0.2,0.2,0.3,0.2l0.1-0.1c0,0,0.1,0,0.1,0c0-0.1-0.1-0.1-0.2-0.1H15.1z"></path> <path d="M18.1,18.4l0.2,0l0-0.1c0,0-0.1,0-0.1,0H18C18,18.3,18.1,18.4,18.1,18.4z"></path> <path d="M13.4,17.4C13.4,17.4,13.4,17.4,13.4,17.4l-0.2,0.1c0,0.1,0,0.1,0.1,0.1l0.1,0l0.2-0.2C13.6,17.3,13.5,17.3,13.4,17.4 L13.4,17.4z"></path> <path d="M18.5,10.7c0,0,0-0.1,0-0.1c0-0.1,0-0.2-0.2-0.2C18.3,10.4,18.4,10.7,18.5,10.7z"></path> <path d="M8.7,13C8.7,13,8.7,13.1,8.7,13C8.8,13,9,13,9,12.9c0,0,0.1,0.1,0.1,0.1c0,0,0,0-0.1,0l-0.1,0.1c0,0.1-0.2,0.1-0.2,0.3 l-0.1,0.1l-0.1,0c-0.1,0.1-0.2,0.2-0.2,0.3c0,0,0,0,0,0c0.1-0.2,0.3-0.3,0.5-0.4l0-0.1H9c0,0,0-0.1,0-0.1c0,0,0,0,0,0.1 c0,0,0.1,0,0.1,0.1c0,0.1-0.2,0-0.1,0.2l-0.1,0.1c-0.1,0.1-0.1,0.2-0.2,0.3l0.3-0.1L9,13.7l0.1-0.1c0.1-0.1,0.2-0.2,0.3-0.3 c0-0.1,0.1-0.1,0.2-0.1l0.1-0.1h0.1v0c0,0,0,0,0.1,0l0.1-0.1c0.1,0,0-0.1,0.2-0.1c0,0,0.1-0.1,0.1,0c0.1,0,0.1-0.1,0.2-0.1h0 c0,0,0.1,0,0.1-0.1c0.1,0,0.2-0.1,0.2-0.2c0,0,0.1,0,0.1,0c0.1,0,0.2-0.1,0.2-0.1l0.2-0.1l0-0.2l0,0.1c0.1,0,0.2-0.1,0.3-0.1 l0.1-0.1l0.1,0.1c0.2-0.1,0.3-0.2,0.5-0.3c0.1,0,0.1,0,0.2-0.1c0-0.1,0.1-0.1,0.1-0.1l0.1-0.1c0.1,0,0.1-0.1,0.2-0.1l0.2-0.1 l0.1-0.1c0.1,0,0.3-0.1,0.4-0.1c0,0,0.1,0,0.1-0.1H14c0.1-0.1,0-0.1,0.2-0.1l0.1-0.1h0.1c0.1-0.1,0.2-0.1,0.4-0.1 c0-0.1,0.2-0.1,0.2-0.1c0,0,0,0.1-0.1,0.1l-0.1,0.1c0,0.1-0.1,0.1-0.1,0.1c0,0.1,0,0.1-0.1,0.1v0c0,0.1,0,0.1-0.1,0.1l-0.1,0.2 c0,0,0,0.1-0.1,0.1c0,0.1-0.1,0.2-0.2,0.2l-0.2,0.2l0,0.2l-0.1,0l-0.1,0.1c0,0.1,0,0.1-0.1,0.1c-0.1,0.1-0.3,0.3-0.4,0.3l0,0.1 L13,13.3c-0.2,0-0.3,0-0.3,0.3l-0.1,0.1c0,0-0.1,0-0.1-0.1l0,0.1c0,0-0.1,0-0.1,0c0,0,0.1,0,0.1,0c0,0,0,0.1-0.1,0.1l0,0.1l-0.1,0 c0,0-0.1,0.1-0.1,0.1c0,0.1,0,0.2-0.2,0.2c0,0,0,0.2,0,0.2c0,0-0.1,0-0.1,0c-0.1,0-0.1,0.1-0.1,0.2c0,0.1-0.1,0.1-0.1,0.1l-0.1,0.2 l-0.1,0l-0.1,0.1c-0.1,0-0.4,0.2-0.4,0.3l-0.1,0.1l-0.2,0.1c0,0.1-0.1,0.2-0.2,0.2c0,0.1-0.1,0.2-0.2,0.2c0,0.1-0.2,0.1-0.2,0.2 c-0.1,0.1-0.2,0.3-0.3,0.4c-0.1,0,0,0.1-0.2,0.1c-0.1,0.1-0.2,0.2-0.3,0.3l0,0l-0.1,0.1H9.1L9,17.2l-0.1,0.1c0,0.1-0.1,0.2-0.2,0.2 l-0.4,0.3c-0.1,0-0.1,0.1-0.1,0.1c0,0.1-0.2,0.2-0.2,0.3c-0.1,0,0,0.3-0.1,0.3c0,0,0,0,0,0c0,0.1-0.2,0.1-0.2,0.1l-0.1,0.3 l-0.1,0.1c-0.1,0-0.1,0-0.1,0.1c0,0,0,0-0.1,0l-0.1,0.1c-0.1,0-0.2,0-0.2,0.2c0,0,0,0-0.1,0c0,0-0.1,0-0.1,0.1c0,0-0.1,0.1-0.1,0.1 h0c-0.1,0-0.1,0-0.1,0.1l-0.2,0.1c0,0.3-0.3,0.6-0.5,0.8c0,0,0,0.1,0,0.1c0.1-0.1,0.2-0.1,0.2-0.2l0.2,0c0-0.1,0.1,0,0.1,0l0.1-0.1 c0.1,0,0.2,0,0.2-0.1v0c0,0,0,0.1,0,0.1c-0.1,0-0.1,0.3-0.1,0.3c0,0,0.1,0,0.1,0c0,0-0.1,0-0.1,0c0,0.1-0.1,0.1-0.1,0.2L7,21 c0.1,0,0.1,0,0.2,0.1v0.1c0,0.1,0,0.1,0.1,0.1c0.1,0.1,0.7,0.1,0.7,0.1c0-0.1,0.1,0,0.1,0l0.2,0l-0.1,0.1C8,21.4,8,21.5,8,21.6h0 c0.1,0,0.1,0.1,0.1,0.1l0.1,0.1c0,0,0.2-0.1,0.2,0c0.2,0,0.3-0.1,0.5-0.1c0,0,0.1,0,0.1-0.1l0-0.1c0.1,0,0.1,0.1,0.2,0.1 c0,0,0.1,0,0.1-0.1h0c0.1,0,0-0.3,0.2-0.1h0.2l0.1-0.1c0.1,0,0.2,0,0.3,0c0,0,0.1,0,0.1-0.1c0.3,0,0-0.1,0.3-0.1l0.1-0.1h0.1l0-0.1 c0.2,0,0.9-0.1,0.9-0.4c0,0-0.1,0-0.1-0.1c0,0,0.1,0,0.1,0l0,0.1v0c0,0.1,0.2,0.1,0.2,0.1c0.1,0,0.2,0,0.4,0c0-0.2,0.6,0,0.6-0.2 c0-0.1,0-0.1-0.1-0.1c-0.3,0-0.7,0.2-1,0.2c0,0-0.1,0-0.1,0c0-0.1,0.4,0,0.3-0.1c0.5,0,0.9-0.2,1.4-0.2c0,0,0,0,0,0 c0,0.1-0.1,0.1-0.1,0.1c0,0.1,0.2,0.1,0.2,0.1c0.1,0,0.3,0,0.4-0.1c0.1,0,0.3,0,0.4-0.1c0-0.1,0-0.1-0.1-0.1c0-0.1,0.1-0.1,0.1-0.1 l0.3-0.1l0-0.1c0,0,0,0,0,0c0,0,0.1-0.1,0.1,0c0.1,0,0.4,0,0.5-0.1h0.1l0-0.1c0.2,0,0.4-0.1,0.5-0.1c0,0,0.1,0.1,0.2,0.1 c0.1,0,0.1-0.1,0.1-0.2c0-0.1,0.1-0.1,0.1-0.1c0.1,0,0.2,0,0.2-0.1l0.1-0.1c-0.1,0-0.1,0-0.1-0.1c0.1-0.1,0.3-0.1,0.4-0.1 c0.1,0,0.2,0,0.2-0.1l0.8,0c0.1,0,0.1-0.1,0.1-0.2c0,0-0.1,0-0.2,0c0,0-0.1,0-0.1,0c0,0,0,0,0,0c0.1-0.1,0.2-0.1,0.3-0.1l0.2-0.1 c-0.1-0.1-0.3,0-0.5,0l-0.1-0.1c-0.2,0-0.4,0-0.6,0l0,0c0,0,0.2,0,0.2,0c0.1,0,0.1-0.1,0.2-0.1c0.1,0,0.2-0.1,0.3-0.1l0-0.1l0,0 c0.1,0,0.1-0.1,0.1-0.1c0,0,0.3-0.2,0.3-0.1c0.1,0,0.1-0.1,0.2-0.1h0.1l0,0c-0.1,0.1-0.1,0.3-0.1,0.5h0c0,0-0.1,0-0.1,0.1l-0.1,0.1 c0,0.2,0,0.5-0.2,0.5c-0.1,0-0.1,0.2,0,0.2c0,0.1,0,0.1,0,0.2h-0.8c-0.1,0-0.3,0.1-0.5,0.1l0,0.1c0,0,0,0.1,0.1,0.1h0.2 c0.3,0,0.7-0.1,1-0.1c0,0.1,0,0.1,0,0.2l-0.1,0.1L18,19.6c0,0.1-0.1,0.2-0.1,0.3l0.1,0.1l0,0.1h0c0,0,0,0.1,0,0.1 c0,0.2,0,0.2-0.1,0.4l-0.1,0h0c0,0-0.1,0-0.1,0.1l0,0.1c0,0.1,0,0.3,0,0.4l-0.1,0.1l-0.1,0.1c0,0.1-0.1,0.2-0.1,0.3 c0,0,0.1,0.1,0.1,0.1c0,0,0,0,0,0c0,0.1,0,0.2,0,0.3l0,0.1c0,0.1-0.1,0.2,0,0.2c0,0,0,0.1,0,0.1c0,0.2-0.1,0.4-0.2,0.6 c-0.1,0-0.1,0.2-0.1,0.3l0,0.1l-0.1,0.1c0,0.1,0,0.2,0,0.3c0,0.1,0,0.1,0,0.2c0.1,0,0-0.1,0.1-0.1c0,0,0-0.1,0.1-0.1c0,0,0,0,0,0 l0.1,0.1c0-0.2,0.1-0.4,0.2-0.5c0-0.1,0.1-0.2,0.1-0.3l0.2-0.2c0,0,0-0.1,0-0.1l0.1-0.1l0.1,0c0-0.1,0-0.2,0.1-0.2 c0-0.1,0-0.3,0.1-0.3c0.1,0,0,0.4,0,0.4c0.1,0,0.2-0.2,0.2-0.3c0,0,0,0,0-0.1c0,0,0,0,0.1,0l0.2-0.5c0-0.1,0.1-0.2,0.1-0.2 c0,0,0.1-0.1,0.1-0.1c0,0,0,0.1,0,0.1c0,0-0.1,0.1-0.1,0.2c0,0,0,0,0.1,0c0.1,0,0.2-0.1,0-0.1c0,0,0-0.1,0-0.1c0,0,0.1,0,0.1,0.1 c0,0.1,0,0.1,0,0.2c0,0-0.1,0.2-0.1,0.3c0,0-0.1,0.1,0,0.1c-0.1,0.1-0.1,0.4-0.1,0.6c-0.1,0.1-0.1,0.3-0.1,0.4 c-0.1,0-0.1,0.2-0.1,0.2l-0.1,0.1l0.1,0l0.1-0.1c0.1,0,0,0,0-0.1c0,0,0,0,0,0c0,0,0.1-0.3,0.1-0.1h0.1c0-0.1,0-0.2,0-0.3l0.1-0.1 c0.1,0,0.1-0.1,0.1-0.1l0.1-0.2l0.1-0.1l0-0.1c0,0,0.1-0.1,0-0.1c0-0.1,0.1-0.2,0.1-0.3l0.1,0L19.6,22l0,0.1l-0.1,0.1v0 c0,0,0,0.1-0.1,0.1v0.1c0,0,0,0.1-0.1,0.1c0,0-0.1,0.1-0.1,0.1c0,0.1-0.1,0.2-0.1,0.3c0,0,0,0,0,0c0,0,0.1,0,0.1-0.1 c0.1,0,0,0,0-0.1c0,0,0,0,0,0c0.1-0.1,0.1-0.2,0.1-0.3l0.1-0.1c0,0,0.1,0,0.1,0h0c0,0.1-0.1,0.2-0.1,0.2l0,0.1h0.1c0,0,0,0,0-0.1 c0,0,0,0,0,0c0-0.1,0.1-0.2,0.1-0.3c0,0,0.1,0.1,0.1,0.1c0,0,0,0,0-0.1c0,0,0.2-0.3,0.1-0.3c0-0.1,0.3-0.7,0.4-0.7 c0-0.2,0-0.2,0.1-0.4h0.1l0-0.1c0.1-0.1,0.1-0.1,0.1-0.2c0,0,0.1-0.1,0.1-0.1l0.1-0.2c0.1-0.1,0.2-0.2,0.1-0.3 c0.1-0.2,0.1-0.3,0.2-0.5l0.1,0c0-0.1,0.1-0.2,0.1-0.3c0,0,0.1-0.1,0.1-0.1c0-0.1,0.1-0.1,0.1-0.3l0.1-0.1c0-0.1,0-0.1,0-0.1 l0.1-0.1c0.1,0,0-0.2,0.1-0.2l0.2-0.2c0,0,0,0,0,0c0-0.1,0.1-0.1,0.1-0.2c0-0.1,0.1-0.2,0.1-0.3c0.1,0,0.1,0.1,0.2,0.1 c0,0.1-0.1,0.3,0.1,0.3l-0.1,0.1l0.1,0.1c0.1,0,0.1,0.2,0.2,0.2l0,0.1c0,0,0,0.1,0.1,0.1c0.2,0.1,0.2,0.3,0.3,0.5l0.1,0l0,0.1 c0.1,0.1,0.2,0.2,0.3,0.3v0c0,0,0,0.1,0.1,0.1c0.1,0.1,0.2,0.3,0.3,0.4c0,0.2,0.4,0.2,0.4,0.4c0.1,0,0.1,0.2,0.3,0.2 c0.1,0.1,0.2,0.2,0.3,0.3c0,0.1,0,0.1,0.1,0.1c0,0,0,0,0,0c0.2,0.1,0.4,0.2,0.5,0.4c0.1,0,0.6,0.5,0.6,0.5l0.1,0.1h0 c0.1,0,0.3,0.2,0.3,0.2c0.1,0.1,0.2,0.2,0.3,0.2c0,0,0,0,0.1,0c0,0,0,0,0,0.1c0,0,0.1,0,0.1,0h0c0.2,0,0.3,0.2,0.5,0.3 c0,0.1,0.1,0.1,0.1,0.1c0,0,0.1,0,0.2,0c0.1,0.1,0.3,0.2,0.4,0.2c0.1,0.1,0.2,0.2,0.4,0.2c0,0,0.1,0.1,0.2,0.1 c0.2,0.1,0.3,0.1,0.5,0.2c0,0,0,0,0.1,0c0,0,0,0,0,0c0.2,0,0.4,0.1,0.6,0.1c0,0.1,0,0,0.1,0c0,0,0,0,0,0c0,0,0.4,0,0.4,0l0.1,0 l0.2-0.1c0,0,0.2,0,0.2,0c0,0-0.1-0.1-0.1,0l-0.1-0.1l-0.1,0c-0.1,0,0-0.1-0.1-0.1l-0.1,0c-0.2,0-0.2-0.1-0.3,0l-0.1-0.1l-0.1,0 c0,0-0.1-0.1-0.2,0c0,0-0.1-0.1-0.1-0.1l-0.1-0.1c-0.1,0-0.3-0.1-0.4-0.2v-0.1l0.1,0c0,0,0,0,0,0c0,0,0,0,0,0.1c0,0,0,0,0,0 c0,0,0.1,0,0.1,0c0,0,0-0.1,0-0.1l0.5,0.1c0.1,0,0.1,0,0.2,0c0,0,0.1,0.1,0.1,0l0,0l0.2,0c0,0,0.1,0.1,0.2,0.1 c-0.1-0.1-0.3-0.2-0.5-0.3l-0.1,0c0-0.1-0.1-0.1-0.1-0.1c-0.2-0.2-0.5-0.3-0.7-0.4h0c-0.1,0-0.1-0.1-0.2-0.1l-0.2-0.1L28.5,22 L28.4,22l0-0.1c0.1,0,0.2,0.1,0.3,0.2c0,0,0,0,0,0h0l-0.1-0.1l0,0c0,0,0.4,0.3,0.5,0.3l0.2,0.1c0.1,0.1,0.2,0.2,0.3,0.2 c0,0,0.3,0.1,0.3,0.1l0.1,0.1c0.1,0,0.2,0,0.4,0.1c0,0,0.1,0,0.1-0.1c0,0-0.1,0-0.1,0c-0.3-0.1-0.2-0.2-0.5-0.3l0-0.1l-0.2-0.1 l0-0.1c-0.1-0.1-0.2-0.2-0.3-0.2l-0.2-0.1l0-0.1l-0.1,0c-0.1-0.1-0.2-0.2-0.4-0.3l0-0.1c-0.1-0.1-0.2-0.2-0.3-0.3l0-0.1h0 c-0.1,0-0.1-0.1-0.1-0.1c0,0-0.1,0-0.1,0c-0.2-0.1-0.2-0.2-0.3-0.4l-0.1,0c0,0-0.1-0.1-0.1-0.2l-0.1-0.1l0-0.1l-0.1-0.1l0-0.1 c-0.2-0.1-0.5-0.6-0.7-0.6l0.1-0.1c0,0-0.1-0.1-0.1-0.1c0,0-0.1-0.1-0.1-0.1c-0.1-0.1-0.2-0.2-0.2-0.2v-0.1c-0.1,0-0.1-0.1,0-0.2 c-0.1,0-0.1-0.1-0.2-0.1c0-0.1-0.1-0.2-0.1-0.2l-0.1-0.2c-0.1,0-0.1-0.1-0.1-0.2c0-0.1-0.1-0.2-0.2-0.4c0,0-0.1-0.1-0.1-0.1 c-0.1-0.1-0.1-0.1-0.1-0.2c0,0,0-0.1,0-0.1l-0.1-0.1c-0.1-0.2-0.2-0.5-0.4-0.6v0c0-0.1,0-0.1-0.1-0.1c-0.1-0.2-0.2-0.4-0.2-0.7 l0.2-0.1c0.1,0,0.1-0.1,0-0.1l0-0.1c0.1,0,0.3-0.1,0.3-0.1c0,0,0,0,0,0c0,0,0.1,0,0.1,0c0,0,0,0.1,0,0.1h0c0-0.1,0.1-0.2,0.2-0.2 c0-0.2,0.3,0,0.2-0.3l0.1,0c0,0,0,0,0.1,0c0,0,0,0,0,0c0.1,0,0.3-0.1,0.4-0.1c0,0-0.1,0-0.1-0.1c0,0,0,0,0,0c0.1,0,0.2,0,0.3-0.1 l0.1-0.1c0-0.1,0.1-0.1,0.2-0.1c0.1-0.1,0.1-0.1,0.2-0.1c0,0,0.1,0,0.1,0l0.1-0.1c0,0,0-0.1-0.1-0.1c0,0-0.1,0-0.1,0 c0,0-0.1,0.1-0.1,0.1c0,0-0.1,0.1-0.1,0.1l-0.1,0l0-0.2c0,0-0.1,0-0.1,0l0-0.1l0.1,0.1c0,0,0.1-0.1,0-0.1l0-0.1c0-0.1,0.1,0,0.1,0 c0,0,0,0,0,0l0.1-0.1c0.1,0,0.2,0,0.2-0.1c0,0,0.2-0.1,0.2-0.2c0.1,0,0.1,0,0.2,0.1c0,0,0,0,0,0c0,0,0.3-0.2,0.3-0.3 c0,0,0.1,0,0.1-0.1c0,0-0.2-0.1-0.2-0.1c0,0,0,0,0,0l0.1,0.1c0.1,0,0.1,0.1,0.2,0.1c0.1-0.1,0-0.1,0.1-0.1l0.1-0.1 c0,0,0.5-0.2,0.5-0.3c0.2,0,0.4-0.2,0.6-0.2l0.4-0.3c0.1,0,0.2-0.1,0.2-0.2c0,0,0.5-0.2,0.5-0.3c0.2,0,0.2-0.1,0.2-0.2 c-0.1,0-0.1,0.1-0.1,0.1l-0.2,0.1h-0.1c0,0-0.1,0.1-0.1,0.1h-0.1c0,0-0.1,0-0.1-0.1c0,0,0,0,0,0c0,0-0.1,0-0.1,0 c0,0-0.1,0.1-0.1,0.1c-0.1,0-0.1-0.1-0.1-0.1c0,0,0-0.1,0-0.1h0c0.2,0,0-0.1,0.2-0.1c0,0,0.1,0,0.1-0.1l0.1-0.1l0.1-0.1 c0-0.1,0-0.1,0.1-0.1c0,0,0,0,0,0l0.2-0.1l0.1-0.1h0.2c0,0,0-0.1,0-0.1c0,0,0,0-0.1,0c-0.1,0-0.6,0.1-0.6,0.2h-0.2 c0,0.1-0.1,0.1-0.1,0.1c0,0-0.1,0-0.1,0l0,0.1h-0.1c0,0-0.1,0-0.1-0.1c0,0,0-0.1,0-0.1c0,0,0,0,0,0.1c-0.1,0.1-0.4,0.2-0.6,0.2 c0,0,0,0,0,0c0-0.1,0.4-0.2,0.5-0.2c0-0.1,0.2-0.1,0.2-0.1l0-0.1h0.1l0.1,0l0-0.1h0.1l0-0.1c0,0,0,0,0-0.1c0,0,0,0,0,0 c0,0,0,0.1,0,0.1c0,0,0.1,0,0.1-0.1c0,0,0,0,0,0c0-0.1,0.1-0.1,0.1-0.2l0.2-0.1c0,0,0.2-0.2,0.2-0.1c0.1,0,0.1-0.2,0.2-0.2L31,9.4 c0,0,0.2-0.2,0.3-0.2l0.2-0.1c0.1,0,0-0.1,0.1-0.1L31.6,9c0.1,0,0.2,0,0.2-0.2c0,0,0.1,0,0.1-0.1c0,0-0.1,0-0.1,0 c-0.1,0.1-1,0.4-1,0.4c-0.1,0-0.1,0-0.2,0.1c-0.1,0.1-1.3,0.5-1.4,0.5l-0.1,0.1c0,0-0.2,0.1-0.2,0.1c0,0-0.1,0-0.1,0.1l-0.4,0.2 l-0.1-0.1c-0.1,0,0,0.1-0.1,0.1c0,0.1,0,0.1-0.1,0.1c0,0,0-0.1,0-0.1c0,0,0,0,0,0.1l-0.2,0.1c-0.1,0-0.6,0.3-0.7,0.3 c0,0,0-0.1,0-0.1c0,0,0,0,0,0.1H27c-0.1,0.2-0.4,0.3-0.5,0.5c-0.1,0-0.1,0.1-0.2,0.1c0,0,0,0.1,0,0.1c0,0-0.1,0-0.1-0.1 c0,0,0,0,0,0c-0.1,0-0.2,0.2-0.3,0.3c-0.1,0-0.2,0.1-0.2,0.2l-0.1,0c0,0-0.1,0-0.1,0c0,0-0.1,0.1-0.1,0.1v0c0,0,0,0-0.1,0 C25,11.9,24.8,12,24.7,12c0,0,0,0,0,0c0,0-0.1,0-0.1,0c0,0,0,0,0,0c0,0,0-0.1,0-0.1c0-0.1,0.2-0.2,0.2-0.3l-0.1-0.1l0.1-0.1 c0,0,0.1,0,0.1-0.1l0.1-0.3c0,0,0.1-0.1,0-0.1c0-0.2,0.1-0.3,0.2-0.5v0c0,0,0-0.1,0.1-0.1c0,0,0-0.1,0.1-0.1c0-0.1,0-0.2,0.1-0.3 c-0.1,0-0.2,0-0.2-0.1c0-0.2,0.1-0.4,0.1-0.6L25,8.9c0,0,0,0,0,0c-0.1,0-0.2-0.2-0.4-0.2l0,0h-0.1c0,0-0.1-0.2,0-0.2 c0,0-0.1-0.1-0.1-0.1c0,0-0.1-0.1-0.1-0.1c0,0,0,0,0,0.1c-0.1,0.1-0.2,0.1-0.2,0.2l-0.1,0.1L24,8.6C24,8.5,24,8.5,24,8.5l-0.2-0.1 v0.2l-0.3-0.2c-0.1,0.1-0.1,0.1-0.1,0.2c-0.1,0-0.2,0.1-0.2,0.2l-0.1,0.1l-0.1,0.2c-0.1,0-0.1,0-0.1,0.1l-0.2,0l-0.1,0l-0.1,0.1 c0,0.1,0,0.1-0.1,0.1c0,0,0,0,0,0c0,0-0.1,0.1-0.1,0.2c0,0,0,0,0,0l0.1-0.1l0,0.1l-0.1,0.1l-0.1-0.1l-0.1,0.1c-0.1,0,0,0.2-0.1,0.2 c0,0.1-0.2,0.1-0.2,0.2L22,10.3l0,0.1l-0.1,0.1l-0.1,0.1l-0.1,0.1c0,0,0,0.1,0,0.2c0,0.1-0.1,0-0.1,0.1c0,0-0.1,0.1-0.1,0.1l0,0.1 c0,0.1,0,0.1-0.1,0.1l0,0.1c0,0,0,0.1,0,0.1l-0.1,0.1l-0.1,0.1c0,0.5-0.3,1-0.5,1.4c-0.1,0-0.1,0.4-0.1,0.5h0c-0.1,0-0.1,0-0.1,0.1 l-0.1,0.1l0,0.2c0,0-0.2,0.4-0.2,0.5c-0.1,0-0.1,0.1-0.1,0.2L20,14.7c0,0.1,0,0.2-0.1,0.2c0,0,0,0,0,0L19.9,15 c-0.1,0-0.1,0.1-0.2,0.1c-0.1,0-0.2,0.1-0.3,0.1l-0.1,0.1l0,0l-0.2,0.1c0,0.1-0.1,0.1-0.2,0.1c-0.1,0-0.1,0-0.2,0.1 c-0.1,0-0.1,0.1-0.2,0.1c-0.4,0.1-0.6,0.2-0.9,0.5c-0.1,0-0.2,0.1-0.3,0.2l-0.1,0c-0.2,0.1-0.5,0.3-0.7,0.5l-0.1,0l0,0l0.2,0.1 c0,0,0,0,0.1-0.1l-0.1,0c0,0,0-0.1,0.1-0.1h0l0.1-0.1c0,0,0.1,0,0.1,0c0,0,0,0,0,0L17,16.8l0,0.1c0.1-0.1,0.2-0.1,0.3-0.1 c0,0,0.4-0.2,0.5-0.2c0,0,0,0,0,0c0,0,0,0,0,0.1l-0.1,0l0,0.1l0.1-0.1l0.1,0c0.1-0.1,0.3-0.1,0.4-0.2l-0.1,0.1l-0.1,0 c-0.1,0.1-0.1,0.1-0.2,0.1c0,0.1,0,0.1,0,0.2c-0.1,0-0.1,0.1-0.2,0.1c0,0.1-0.1,0-0.2,0.1l0,0c-0.1,0-0.2,0-0.2,0.1 c0,0-0.1-0.1-0.2-0.1c-0.2,0-0.5,0.1-0.6,0.1c0,0,0-0.1-0.1-0.1c-0.1,0-0.6,0.1-0.6,0.1c-0.6,0.1-1.2,0.2-1.8,0.2l-0.1,0 c-0.2,0-0.4,0-0.6,0.1c-0.1,0.1-0.3,0-0.3,0.1c-0.1,0-0.3,0-0.3,0.1l0,0l0,0c0,0,0,0,0-0.1c0.1-0.1,0.2-0.2,0.4-0.3l0.1-0.2 l0.2-0.1l0.1-0.1c0-0.1,0-0.1,0.1-0.1c0-0.1,0.1-0.1,0.1-0.2l0.1-0.1l0-0.2l0.1,0l0.1-0.1c0.1,0,0.1-0.2,0.2-0.2l0.2-0.1 c0-0.1,0.1-0.1,0.1-0.1c0,0,0-0.1,0-0.1l0.1-0.1c0-0.1,0.2-0.2,0.2-0.3l0.1-0.1l0.1-0.1c0-0.1,0.2-0.1,0.2-0.2l0.1-0.1 c0,0,0,0,0-0.1c0-0.1,0.3-0.1,0.3-0.2c0,0,0,0,0-0.1c0,0,0,0,0.1,0c0.1,0,0.1-0.1,0.2-0.1l0.1,0c-0.1,0.1-0.2,0.2-0.2,0.4 c-0.1,0.1-0.7,0.5-0.7,0.7c0.1,0,0.4-0.3,0.4-0.3l0-0.1h0.1c0.1-0.1,0.2-0.2,0.2-0.3c0.1-0.1,0.2-0.2,0.4-0.4 c0-0.1,0.1-0.2,0.1-0.3l0.1-0.1l0.1-0.1c0,0,0-0.1,0.1-0.1c0-0.1,0.1-0.1,0.1-0.2l0.8-0.8V13c0.3-0.4,0.6-0.8,0.7-1.3l0.1-0.1 c0,0,0.2-0.5,0.2-0.5l0-0.2c-0.1,0-0.1-0.1-0.1-0.1c0-0.1,0-0.5-0.1-0.5c0,0-0.1-0.2,0-0.2c0-0.1,0-0.5-0.2-0.5c0,0-0.1,0.3,0,0.3 l0,0.1l-0.1-0.1c0-0.1-0.1-0.2-0.1-0.3c-0.1-0.1-0.2-0.3-0.2-0.4c-0.1,0-0.3-0.2-0.4-0.3c-0.1,0-0.1,0-0.2-0.1 c-0.1,0-0.1-0.1-0.3-0.1l-0.1-0.1c-0.2-0.1-0.2,0-0.3-0.2c-0.1,0-0.2,0-0.3,0c-0.1,0-0.2,0-0.3,0c0,0-0.1-0.1-0.1-0.1s0,0,0,0.1 l-0.2,0c0,0-0.1,0.1-0.1,0.1c0,0-0.1,0-0.1,0c0,0,0-0.1,0.1-0.1l0.2,0h0c0,0-0.1-0.1-0.1-0.1c-0.1,0-0.6,0.1-0.7,0.2 c0,0-0.1-0.1-0.1-0.1c0,0,0,0,0,0.1c-0.1,0.1-0.3,0-0.3,0.1c0,0,0-0.1-0.1-0.1c0,0,0,0.1,0,0.1l-0.1,0c0,0-0.1,0-0.1,0c0,0,0,0,0,0 c-0.1,0-0.5,0.2-0.7,0.2L13,8.8c0,0.1-0.1,0.1-0.1,0.1l-0.1,0.1c0,0.1-0.1,0.1-0.1,0l0,0.1c-0.1,0-0.1,0-0.2,0.1 c0,0.1-0.2,0.1-0.2,0.1c-0.1,0.1-0.1,0.1-0.2,0.1c-0.1,0.1-0.1,0.2-0.2,0.2c-0.1,0.1-0.1,0.2-0.2,0.2l-0.1,0.1c0,0-0.1,0-0.1,0.1 l-0.2,0.1v0c0,0-0.1,0-0.1,0l-0.1,0.1l-0.1,0.1l-0.1,0.1l-0.1,0l-0.1,0.1c-0.4,0.2-0.8,0.9-1,1.2c-0.1,0-0.1,0.2-0.2,0.2 c-0.1,0.2-0.2,0.3-0.3,0.5c-0.1,0-0.1,0.3-0.1,0.3v0.2l-0.1,0.1C8.7,12.9,8.7,12.9,8.7,13z M8.2,18.1C8.2,18.1,8.1,18.2,8.2,18.1 c-0.1,0.1-0.1,0.1-0.1,0.1C8.1,18.1,8.1,18.1,8.2,18.1L8.2,18.1C8.2,18,8.2,18,8.2,18.1C8.2,18.1,8.2,18.1,8.2,18.1z M8.4,17.9 C8.3,17.9,8.3,17.9,8.4,17.9L8.4,17.9C8.4,17.8,8.4,17.9,8.4,17.9C8.4,17.9,8.4,17.9,8.4,17.9z M11.6,20.7c-0.1,0-0.2,0.1-0.3,0.1 c0,0-0.1,0-0.1,0c0-0.1,0.3,0,0.3-0.1h0.1C11.6,20.6,11.6,20.6,11.6,20.7z M12.1,17.9C12.1,17.9,12.1,17.9,12.1,17.9L12.1,17.9 C12.1,17.9,12.1,17.9,12.1,17.9z M17.1,23.7L17.1,23.7L17.1,23.7C17.1,23.8,17.1,23.7,17.1,23.7z M29.9,23C29.9,23,29.9,23,29.9,23 C29.9,23,29.9,23,29.9,23L29.9,23z M29.2,22.9L29.2,22.9L29.2,22.9L29.2,22.9L29.2,22.9C29.2,22.9,29.2,22.9,29.2,22.9z M29,22.7 C29,22.7,29,22.7,29,22.7L29,22.7z M28.8,22.8L28.8,22.8l0.1,0.1L28.8,22.8L28.8,22.8C28.7,22.8,28.8,22.8,28.8,22.8z M28.7,22.8 C28.7,22.8,28.7,22.8,28.7,22.8C28.7,22.8,28.7,22.8,28.7,22.8C28.6,22.8,28.6,22.8,28.7,22.8z M28.5,22.6L28.5,22.6L28.5,22.6 c-0.1,0-0.1,0-0.1-0.1L28.5,22.6z M28.3,22.4C28.4,22.4,28.4,22.5,28.3,22.4C28.4,22.5,28.3,22.5,28.3,22.4L28.3,22.4z M28.3,22.6 l0.1,0L28.3,22.6L28.3,22.6z M28.2,22.5L28.2,22.5c0,0.1,0,0.1,0,0.1C28.2,22.5,28.2,22.5,28.2,22.5L28.2,22.5z M27.5,21.3 L27.5,21.3C27.5,21.3,27.5,21.3,27.5,21.3z M28.1,22.3C28.1,22.4,28.1,22.4,28.1,22.3C28,22.4,28,22.4,28.1,22.3L28.1,22.3 L28.1,22.3z M28,21.6C28,21.6,28,21.6,28,21.6l0.1,0.1L28,21.6L28,21.6C27.9,21.6,28,21.6,28,21.6z M28,22.3L28,22.3l-0.1-0.1 l0-0.1l-0.1,0l0-0.1v0l0.2,0.1C27.8,22.2,27.9,22.3,28,22.3z M27.5,21.1C27.5,21.1,27.5,21.1,27.5,21.1L27.5,21.1L27.5,21.1z M27.3,21L27.3,21C27.3,20.9,27.3,21,27.3,21l0.2,0.1c0,0.1,0.1,0.1,0.1,0.1l0-0.1h0l0,0.1c0,0,0,0,0,0l0.1,0l-0.1,0 C27.5,21.2,27.3,21.1,27.3,21L27.3,21z M27.2,19.9C27.2,19.9,27.1,19.9,27.2,19.9C27.1,19.9,27.2,19.9,27.2,19.9z M27.1,20.8 C27.2,20.8,27.2,20.8,27.1,20.8L27.1,20.8C27.1,20.8,27.1,20.8,27.1,20.8z M27,20.7L27,20.7C27,20.7,27,20.7,27,20.7L27,20.7z M24.8,18.2L24.8,18.2C24.9,18.2,24.9,18.2,24.8,18.2L24.8,18.2C24.8,18.2,24.8,18.2,24.8,18.2z M25.4,20.4c0-0.1-0.1-0.2-0.1-0.2 l-0.1,0c0,0-0.1,0-0.1-0.1L25.1,20l0.2,0.1C25.4,20.2,25.4,20.2,25.4,20.4L25.4,20.4z M25.2,19L25.2,19L25.2,19 C25.2,19,25.2,19,25.2,19z M25.7,19.5C25.7,19.5,25.8,19.5,25.7,19.5l0.2,0.1l-0.2,0L25.7,19.5L25.7,19.5z M25.2,17L25.2,17 C25.1,17,25.1,17,25.2,17C25.1,17,25.2,17,25.2,17z M25,18.4C25,18.4,25,18.4,25,18.4C25,18.4,25,18.4,25,18.4 c0,0.1,0.2,0.3,0.2,0.3l0.1,0l-0.1,0.1c0,0,0.1,0.1,0.1,0.1v0c0,0,0.1-0.1,0.1-0.1l0,0.2l0.2,0.1c0,0,0,0,0,0 c-0.2,0-0.4-0.3-0.5-0.4l-0.1-0.1C24.9,18.4,24.9,18.4,25,18.4C25,18.4,25,18.4,25,18.4z M25,16.8C24.9,16.8,24.9,16.7,25,16.8 L25,16.8C25,16.7,25,16.8,25,16.8z M24.9,16.6L24.9,16.6L24.9,16.6L24.9,16.6L24.9,16.6C24.8,16.6,24.9,16.6,24.9,16.6z M24.8,16.5 C24.8,16.5,24.8,16.5,24.8,16.5C24.8,16.5,24.8,16.5,24.8,16.5L24.8,16.5z M24.7,16.3C24.8,16.3,24.8,16.4,24.7,16.3 C24.8,16.4,24.8,16.4,24.7,16.3C24.7,16.4,24.7,16.4,24.7,16.3C24.7,16.4,24.7,16.3,24.7,16.3z M24.8,18.1 C24.8,18.1,24.8,18.1,24.8,18.1C24.7,18.1,24.7,18.1,24.8,18.1L24.8,18.1z M29.3,11L29.3,11l0.1-0.1c0,0,0.1,0.1,0.1,0.1 c0,0-0.2,0-0.2,0.1c0,0-0.2,0-0.2-0.1C29.2,11,29.3,11,29.3,11z M29,11.2C29.1,11.2,29.1,11.2,29,11.2C29.1,11.2,29,11.2,29,11.2 L29,11.3C29,11.2,29,11.2,29,11.2z M29.8,10.3C29.8,10.3,29.8,10.3,29.8,10.3L29.8,10.3C29.8,10.3,29.8,10.3,29.8,10.3L29.8,10.3z M28.7,11.2C28.7,11.2,28.7,11.2,28.7,11.2C28.7,11.3,28.7,11.3,28.7,11.2C28.7,11.3,28.7,11.3,28.7,11.2 C28.7,11.2,28.7,11.2,28.7,11.2z M28.6,11.3C28.6,11.3,28.6,11.3,28.6,11.3C28.6,11.3,28.6,11.3,28.6,11.3 C28.6,11.3,28.6,11.3,28.6,11.3L28.6,11.3z M28.5,11.4C28.5,11.4,28.5,11.4,28.5,11.4C28.5,11.3,28.5,11.4,28.5,11.4z M28.5,11.5 C28.5,11.5,28.5,11.5,28.5,11.5C28.5,11.5,28.5,11.5,28.5,11.5L28.5,11.5z M28.2,11.5l0.1-0.2c0,0,0.1,0,0.1,0.1c0,0,0,0,0,0 C28.3,11.5,28.3,11.5,28.2,11.5L28.2,11.5L28.2,11.5z M28.4,11.6C28.4,11.5,28.4,11.5,28.4,11.6C28.4,11.5,28.4,11.5,28.4,11.6 C28.4,11.6,28.3,11.6,28.4,11.6c-0.1,0.1-0.2,0.1-0.3,0.1c0,0,0,0,0,0c0,0,0,0,0,0S28.3,11.6,28.4,11.6z M27.8,11.8 C27.8,11.8,27.8,11.8,27.8,11.8C27.8,11.8,27.8,11.8,27.8,11.8C27.7,11.8,27.7,11.8,27.8,11.8C27.7,11.8,27.7,11.8,27.8,11.8z M27.8,12.9C27.8,13,27.8,13,27.8,12.9C27.7,13,27.7,12.9,27.8,12.9L27.8,12.9z M27.7,13C27.7,13,27.7,13.1,27.7,13 C27.7,13.1,27.7,13.1,27.7,13C27.7,13.1,27.6,13.1,27.7,13L27.7,13z M27.4,12.1C27.4,12.1,27.4,12.1,27.4,12.1L27.4,12.1 C27.5,12.1,27.5,12.1,27.4,12.1z M27.6,12C27.5,12,27.5,12,27.6,12L27.6,12C27.6,12,27.6,12,27.6,12z M27.5,11.9 C27.5,11.9,27.5,11.9,27.5,11.9C27.5,11.9,27.5,11.9,27.5,11.9c0,0-0.1,0.1-0.1,0.1c0,0,0,0,0-0.1C27.4,12,27.4,11.9,27.5,11.9z M27.3,12.1C27.3,12.1,27.4,12.1,27.3,12.1L27.3,12.1C27.3,12.1,27.3,12.1,27.3,12.1L27.3,12.1z M27.2,12.1 C27.2,12.1,27.2,12.1,27.2,12.1C27.2,12.1,27.2,12.1,27.2,12.1L27.2,12.1z M27.2,13.1C27.2,13.1,27.2,13.1,27.2,13.1 C27.2,13.1,27.2,13.1,27.2,13.1C27.2,13.1,27.1,13.1,27.2,13.1C27.2,13.1,27.2,13.1,27.2,13.1z M26.9,12.3c0.1,0,0-0.1,0.2-0.1 c0,0-0.1,0.1,0,0.1c-0.1,0-0.1,0.1-0.2,0.1l-0.1,0.1l-0.2,0.1C26.6,12.4,26.7,12.3,26.9,12.3z M26,13.7L26,13.7l0.1,0.2 c-0.1,0-0.1,0-0.1-0.1V13.7z M25.9,14c0.2,0,0.4-0.1,0.5-0.2c0.1,0,0.1-0.1,0.1-0.1l0.1,0.1c0,0,0,0,0,0c0,0,0.1,0,0.1,0L26.4,14 c0,0,0,0.1-0.1,0.1c0,0,0-0.1,0-0.1c0,0,0,0,0,0.1l-0.2,0.1h-0.2C25.8,14.1,25.8,14.1,25.9,14C25.8,14.1,25.8,14.1,25.9,14z M25.7,14.1l0.1,0.1C25.7,14.3,25.7,14.2,25.7,14.1L25.7,14.1z M25.2,12C25.2,12,25.2,12,25.2,12C25.2,12,25.2,12,25.2,12L25.2,12z M24.8,14.6l0.2-0.1c0-0.1,0.1,0,0.1,0l0.1-0.1l0.1,0c0,0,0,0.1,0,0.1c0.1,0,0.2-0.1,0.2-0.2c0,0,0.2,0.1,0.2,0.1c0,0-0.1,0-0.1,0 c-0.1,0.1-0.6,0.4-0.8,0.4c0,0,0-0.1,0-0.1c0,0,0,0,0,0.1c0,0-0.1,0-0.1-0.1L24.8,14.6z M24.8,10.2l0.1,0.1 C24.8,10.3,24.8,10.3,24.8,10.2L24.8,10.2z M24.7,15C24.7,15,24.7,15,24.7,15C24.6,15,24.6,15,24.7,15C24.6,15,24.6,14.9,24.7,15 C24.6,14.9,24.7,15,24.7,15z M24.6,12.3C24.6,12.3,24.6,12.2,24.6,12.3C24.6,12.2,24.6,12.2,24.6,12.3 C24.6,12.3,24.6,12.3,24.6,12.3c0,0.1,0,0.1-0.1,0.1C24.5,12.4,24.5,12.3,24.6,12.3C24.5,12.3,24.6,12.3,24.6,12.3z M24.5,16.2 L24.5,16.2l0.1,0.1l0.1,0.1c0,0,0,0.1-0.1,0.1c0,0,0,0,0-0.1L24.5,16.2L24.5,16.2c-0.1,0.1-0.2,0-0.2,0c-0.1,0-0.1,0-0.1-0.1 c-0.1,0-0.2-0.1-0.2-0.2c0-0.1,0-0.1,0.1-0.1c0,0,0,0,0,0l-0.1-0.1c0,0,0-0.1,0-0.1c0.1,0,0.2,0.3,0.2,0.4c0.1,0,0,0.1,0,0.1 L24.5,16.2z M24.4,12.4L24.4,12.4l0,0.2c0,0-0.1,0-0.1,0s0,0,0.1,0C24.3,12.5,24.3,12.4,24.4,12.4z M24.3,12.2L24.3,12.2 C24.4,12.2,24.4,12.3,24.3,12.2C24.3,12.3,24.3,12.3,24.3,12.2z M24.3,11.8l0-0.1c0,0,0,0,0.1,0l0.1,0.1c0,0,0,0,0,0 c0,0.1-0.1,0.1-0.1,0.2c0,0,0,0.1,0,0.1c0,0-0.1,0-0.1,0c0,0,0,0,0,0C24.2,11.9,24.2,11.9,24.3,11.8z M24.1,12.3L24.1,12.3 c0.1,0,0.1-0.1,0.2-0.1c0,0,0,0.1,0,0.1c0,0-0.2,0.2-0.3,0.2c0,0,0,0,0,0L24.1,12.3z M23.8,12.4C23.9,12.4,23.9,12.4,23.8,12.4 C23.9,12.5,23.9,12.5,23.8,12.4C23.8,12.5,23.8,12.5,23.8,12.4L23.8,12.4z M23.8,12.5C23.8,12.5,23.8,12.5,23.8,12.5 C23.8,12.6,23.8,12.6,23.8,12.5C23.8,12.6,23.8,12.6,23.8,12.5L23.8,12.5z M23.4,17C23.4,17,23.4,17.1,23.4,17 C23.4,17.1,23.4,17.1,23.4,17C23.4,17.1,23.4,17.1,23.4,17L23.4,17z M22.9,9.2C22.9,9.2,23,9.3,22.9,9.2C23,9.3,23,9.3,22.9,9.2 C22.9,9.3,22.9,9.3,22.9,9.2C22.9,9.3,22.9,9.2,22.9,9.2z M22.8,18.4l0.1,0.2c-0.1,0-0.1,0-0.1-0.1c0,0,0,0-0.1,0 C22.8,18.5,22.8,18.5,22.8,18.4C22.8,18.4,22.8,18.4,22.8,18.4z M22.7,18.3l0.1,0.1L22.7,18.3l-0.1-0.1 C22.7,18.1,22.7,18.3,22.7,18.3z M22.6,18C22.6,18,22.6,18,22.6,18C22.5,18,22.5,18,22.6,18L22.6,18z M21.5,18.4 C21.4,18.4,21.4,18.4,21.5,18.4L21.5,18.4C21.5,18.4,21.5,18.4,21.5,18.4z M22,17.2c0,0-0.1,0-0.1,0L22,17.2z M21.4,18.1 c0-0.2,0.3-0.5,0.3-0.6c0,0,0-0.1,0-0.1c0,0,0-0.1,0-0.1c0,0,0,0.1,0,0.1l-0.1,0.1v0.1c0.1,0,0,0.1,0,0.1l-0.1,0.2 c-0.1,0,0,0.2-0.2,0.2C21.5,18.1,21.4,18.1,21.4,18.1C21.4,18.1,21.4,18.1,21.4,18.1C21.4,18.1,21.4,18.1,21.4,18.1z M21.4,17.7 C21.4,17.7,21.4,17.8,21.4,17.7C21.3,17.8,21.3,17.7,21.4,17.7L21.4,17.7z M21.3,17.9C21.3,17.9,21.3,17.9,21.3,17.9 C21.3,17.9,21.3,17.9,21.3,17.9C21.3,17.9,21.3,17.9,21.3,17.9C21.3,17.9,21.3,17.9,21.3,17.9z M17.3,16.6 C17.3,16.6,17.3,16.7,17.3,16.6L17.3,16.6c-0.1,0.1-0.1,0-0.1,0C17.2,16.6,17.2,16.7,17.3,16.6C17.3,16.7,17.3,16.6,17.3,16.6 L17.3,16.6z M17.3,18.5c0,0-0.1,0-0.1,0L17.3,18.5z M18.8,22.9c-0.1,0-0.1,0-0.1-0.1h0.1V22.9z M18.8,22.8 C18.8,22.8,18.8,22.7,18.8,22.8C18.8,22.7,18.8,22.7,18.8,22.8C18.9,22.7,18.9,22.7,18.8,22.8C18.9,22.7,18.9,22.8,18.8,22.8z M19.2,21C19.1,21,19.1,21,19.2,21c-0.1-0.1,0-0.2,0-0.3l0.1,0.1C19.2,20.8,19.2,20.9,19.2,21z M19.3,20.6L19.3,20.6l0-0.1 c0-0.1,0.1-0.1,0.1-0.2c0,0,0.1,0,0.1,0.1L19.3,20.6z M19.7,19.1l0.1-0.2l0.1,0.1c0,0.1-0.1,0.1-0.1,0.2 C19.8,19.2,19.7,19.2,19.7,19.1z M19.7,22.2L19.7,22.2L19.7,22.2C19.7,22.3,19.7,22.3,19.7,22.2z M19.8,21.6 C19.8,21.6,19.8,21.6,19.8,21.6L19.8,21.6C19.8,21.6,19.8,21.6,19.8,21.6z M19.9,21.4l0.1,0.1v0C19.9,21.5,19.9,21.4,19.9,21.4z M19.9,22.2L19.9,22.2L19.9,22.2C19.9,22.3,19.9,22.2,19.9,22.2z M20,18.8l-0.1,0.1l0-0.1c0-0.1,0.1-0.1,0.1-0.2 c0.1,0,0.1,0.1,0.1,0.1C20,18.7,20,18.7,20,18.8z M20.3,17.5C20.3,17.5,20.3,17.6,20.3,17.5C20.3,17.6,20.3,17.5,20.3,17.5 L20.3,17.5z M20.2,21.3L20.2,21.3l-0.1-0.1l0.1,0V21.3z M20.3,21.1C20.3,21.1,20.2,21,20.3,21.1L20.3,21.1L20.3,21.1 C20.3,21,20.3,21.1,20.3,21.1z M20.3,18c0,0-0.1-0.1-0.1-0.1c0-0.1,0.1-0.1,0.1-0.2l0.1,0.1v0.1C20.3,17.9,20.3,17.9,20.3,18 L20.3,18z M20.3,21.2L20.3,21.2L20.3,21.2C20.4,21.3,20.3,21.2,20.3,21.2z M20.4,21L20.4,21c0-0.1,0-0.1,0.1-0.1l0-0.1h0 c0,0,0,0,0,0C20.5,20.9,20.4,21,20.4,21z M20.5,19.9C20.5,19.9,20.5,19.9,20.5,19.9L20.5,19.9L20.5,19.9L20.5,19.9L20.5,19.9z M20.6,19.8c0,0-0.1-0.1-0.1-0.1L20.6,19.8L20.6,19.8z M20.9,19.6L20.9,19.6l-0.1-0.1l0.1,0V19.6z M21,19.3 C20.9,19.3,20.9,19.3,21,19.3L21,19.3C21,19.3,21,19.3,21,19.3C21,19.3,21,19.3,21,19.3z M21,19.5L21,19.5L21,19.5 C21.1,19.5,21,19.5,21,19.5z M21.2,19c0,0,0,0.1-0.1,0.1c0,0,0,0.1-0.1,0.1h0V19L21.2,19C21.2,19,21.2,19,21.2,19z M21,18.6 L21,18.6C21,18.6,21,18.7,21,18.6C21,18.7,21,18.7,21,18.6z M18.7,16.3L18.7,16.3L18.7,16.3C18.6,16.4,18.6,16.4,18.7,16.3 C18.6,16.3,18.7,16.3,18.7,16.3z M18.5,16.4L18.5,16.4v0.1V16.4C18.5,16.4,18.5,16.4,18.5,16.4z M17.8,17.1L17.8,17.1L17.8,17.1 C17.8,17.2,17.8,17.1,17.8,17.1L17.8,17.1z M16.6,18.3C16.5,18.3,16.5,18.3,16.6,18.3c-0.1,0-0.1,0-0.1,0L16.6,18.3z M16.2,17.9 C16.2,17.9,16.2,17.9,16.2,17.9l-0.1,0L16.2,17.9z M15.8,17.9c0,0-0.1,0.1-0.1,0L15.8,17.9z M15.7,18.3 C15.7,18.3,15.7,18.3,15.7,18.3c0.1,0,0.2,0,0.2,0.1c0,0.1-0.4,0.1-0.4,0.1l-0.1,0.1H15l0-0.1C15.2,18.4,15.5,18.4,15.7,18.3z M14,18.8C14,18.8,14,18.8,14,18.8C13.9,18.8,13.9,18.8,14,18.8L14,18.8z M13.6,18.7C13.6,18.7,13.6,18.7,13.6,18.7 c0.1,0,0.2,0,0.2,0.1c0,0-0.1,0.1-0.1,0.1C13.6,18.8,13.5,18.8,13.6,18.7L13.6,18.7z M12.3,17.8C12.3,17.8,12.2,17.8,12.3,17.8 c-0.1-0.1,0-0.1,0-0.1C12.3,17.7,12.3,17.7,12.3,17.8C12.3,17.8,12.3,17.8,12.3,17.8z M12.8,17.3c-0.1,0-0.1,0.1-0.1,0.2 c-0.1,0-0.1,0.1-0.1,0.1l-0.1,0.1c0,0-0.1,0-0.1,0c0-0.1,0.1-0.1,0.2-0.1c0-0.1,0-0.2,0.1-0.2l0-0.1l0.1-0.1V17.3L12.8,17.3z M13.6,16.6C13.6,16.6,13.6,16.6,13.6,16.6L13.6,16.6C13.6,16.5,13.6,16.5,13.6,16.6L13.6,16.6z M13.9,16.3 C13.9,16.3,13.9,16.2,13.9,16.3L13.9,16.3C13.9,16.3,13.9,16.3,13.9,16.3z M14.1,16.2c0,0-0.1,0-0.1,0C14,16.1,14.1,16.1,14.1,16.2 L14.1,16.2L14.1,16.2z M14.3,16C14.2,16,14.2,15.9,14.3,16L14.3,16C14.3,15.9,14.3,16,14.3,16z M14.3,15.7c-0.1,0-0.3,0.4-0.4,0.4 c0,0-0.1,0-0.1-0.1c0,0,0.1,0,0.1,0l0.1-0.1c0-0.1,0.2-0.1,0.2-0.2h0C14.2,15.7,14.3,15.7,14.3,15.7L14.3,15.7z M14.4,15.8 L14.4,15.8L14.4,15.8C14.4,15.8,14.4,15.8,14.4,15.8z M14.8,15.4C14.8,15.4,14.8,15.3,14.8,15.4C14.8,15.3,14.9,15.3,14.8,15.4 L14.8,15.4z M14.8,15c-0.1,0-0.1,0.2-0.2,0.2h-0.1l0.1-0.1c0.1-0.1,0.2-0.1,0.2-0.2h0c0,0,0.1,0,0.1,0.1L14.8,15z M17.4,12.2 l0.2,0.1c0,0-0.1,0.2-0.2,0.2c0,0,0,0,0-0.1C17.3,12.3,17.3,12.2,17.4,12.2z M17.3,12.8c0,0,0.1,0,0.1,0.1L17.3,12.8 c0,0.1,0,0.2-0.1,0.2c0,0.1-0.3,0.4-0.3,0.5l-0.1,0.1l-0.1,0l0.1-0.1v0c0-0.1,0-0.1,0.1-0.1l0.2-0.2v-0.1c0,0,0-0.1,0.1-0.1 C17.2,12.9,17.2,12.8,17.3,12.8z M16.7,13c0,0,0.1-0.1,0.1-0.1h0.2c0-0.1,0-0.1,0-0.2l0.1-0.1c0,0,0.1,0.1,0.1,0.1c0,0,0,0,0,0 c0,0.1-0.1,0.1-0.1,0.1c0,0.1-0.2,0.1-0.2,0.3c0,0,0,0,0,0C16.7,13.1,16.6,13.1,16.7,13C16.6,13,16.7,13,16.7,13z M16.5,13.9 C16.5,13.9,16.5,13.9,16.5,13.9C16.5,13.9,16.5,13.9,16.5,13.9c-0.1,0.1-0.1,0-0.1-0.1C16.4,13.8,16.5,13.8,16.5,13.9z M16.3,13.6 c0-0.1,0.1-0.1,0.1-0.1l0.1-0.1l0.1-0.2c0,0,0,0.1,0,0.1c0,0.1,0,0-0.1,0s-0.1,0.1-0.1,0.2L16.3,13.6L16.3,13.6L16.3,13.6z M16.2,13.8C16.2,13.8,16.2,13.8,16.2,13.8C16.2,13.8,16.2,13.8,16.2,13.8L16.2,13.8c-0.1,0.1-0.1,0.1-0.1,0.1 C16.1,13.9,16.1,13.9,16.2,13.8L16.2,13.8z M15.9,14.3L15.9,14.3C15.9,14.2,15.9,14.3,15.9,14.3l-0.1,0.1c0,0,0,0.1,0,0.1 c0,0,0-0.1,0-0.1C15.8,14.2,15.8,14.3,15.9,14.3z M15,15.1C15,15.1,15,15.2,15,15.1C15,15.2,15,15.2,15,15.1z M15.7,14.6 C15.7,14.6,15.7,14.5,15.7,14.6L15.7,14.6C15.7,14.5,15.7,14.6,15.7,14.6z M15.3,14.6c0.1-0.1,0.2-0.2,0.3-0.4l0.1-0.1l0,0.1 c0,0.1,0,0.1,0,0.2l-0.1,0.1c0,0,0,0.1-0.1,0.1c0,0-0.1,0.1-0.1,0.1l0.1,0l-0.2,0.1L15,15H15c0,0,0-0.1,0-0.1l0.2-0.1 C15.1,14.7,15.3,14.7,15.3,14.6z M15,8.4C15,8.4,15,8.4,15,8.4C15,8.4,15,8.4,15,8.4C15,8.4,15,8.4,15,8.4L15,8.4z M13.6,11.1 C13.6,11.1,13.7,11,13.6,11.1c0.3,0,0.5-0.1,0.7-0.1l0.1,0.1c0,0,0,0,0,0c0,0-0.2,0.1-0.2,0.1H14c0,0-0.1,0-0.1,0c0,0,0,0,0,0 c0,0,0,0,0,0C13.7,11.2,13.6,11.2,13.6,11.1h-0.1H13.6z M12.1,12L12.1,12L12.1,12C12.1,12.1,12.1,12.1,12.1,12z M12.4,11.9 L12.4,11.9L12.4,11.9C12.4,11.8,12.4,11.9,12.4,11.9z M13,11.2l0.2,0.1L13,11.4c0,0,0,0,0,0c0,0-0.1-0.1-0.1-0.1L13,11.2z M12.2,11.7c0.1,0,0.1-0.1,0.1-0.1c0.1,0,0.2,0,0.2,0c0,0,0.1-0.1,0.2-0.1c0,0,0,0.1,0,0.1c0,0,0.1,0,0.1,0c0,0-0.1,0-0.1,0 l-0.1,0.1c-0.1,0-0.2,0-0.2,0.1c0,0-0.2,0.1-0.2,0.1c0,0,0,0,0,0C12,11.7,12.2,11.7,12.2,11.7z M11.8,11.8 C11.8,11.8,11.9,11.9,11.8,11.8C11.9,11.9,11.9,11.9,11.8,11.8C11.8,11.9,11.8,11.9,11.8,11.8C11.8,11.9,11.8,11.8,11.8,11.8z M11.8,12C11.8,12,11.8,12,11.8,12L11.8,12C11.8,12.1,11.7,12.1,11.8,12L11.8,12z M11.6,12.2C11.6,12.2,11.6,12.3,11.6,12.2l-0.1,0 L11.6,12.2z M11,12.5C11,12.5,11,12.5,11,12.5C11,12.5,11,12.5,11,12.5L11,12.5z M10.8,11.4c0,0,0-0.2,0.1-0.2c0,0,0,0,0,0.1 c0,0.1-0.1,0.2-0.2,0.2l0-0.1H10.8z M9.5,11.8L9.5,11.8C9.6,11.8,9.6,11.7,9.5,11.8c0.1-0.1,0.1-0.1,0.1-0.2h0c0.1,0,0.1,0,0.1-0.1 l0.1,0.1l-0.1,0.1c0,0.1-0.1,0.2-0.1,0.2c-0.1,0.1-0.2,0.2-0.3,0.3c0,0,0,0,0,0C9.3,12.1,9.5,11.9,9.5,11.8z M9.4,12.5 C9.4,12.5,9.4,12.5,9.4,12.5c-0.1,0-0.1,0-0.1,0L9.4,12.5C9.4,12.4,9.4,12.4,9.4,12.5z M9.3,12.8c0-0.1,0-0.2,0.1-0.2c0,0,0,0,0,0 c0,0-0.2,0.3-0.2,0.3c-0.1,0-0.1,0-0.1-0.1L9.3,12.8z"></path> <path d="M14.4,16.6c0.1-0.1,0.3-0.3,0.4-0.4c-0.2,0-0.2,0.2-0.4,0.2c0,0.1-0.1,0.1-0.2,0.1c0,0-0.1,0.1-0.1,0.1c0,0,0,0,0,0 C14.2,16.6,14.3,16.6,14.4,16.6z"></path> <path d="M19.9,22.6L19.9,22.6c0.1-0.1,0-0.1-0.1-0.1C19.8,22.5,19.8,22.6,19.9,22.6z"></path> <path d="M26.7,19c0,0.1,0,0.1,0.1,0.1h0.1C26.8,19.1,26.8,19,26.7,19z"></path> <path d="M26.4,18.6L26.4,18.6l-0.1,0.1c0.1,0,0.1,0.1,0.1,0.2c0,0,0.1,0,0.1-0.1c0,0,0,0-0.1,0C26.5,18.7,26.5,18.7,26.4,18.6z"></path> <path d="M29.6,23.2c0.1,0,0.2,0,0.3,0.1l-0.1-0.1L29.6,23.2L29.6,23.2z"></path> <path d="M25.5,17c0,0.1,0.1,0.2,0.1,0.2c0,0.1,0.1,0.2,0.1,0.2c0,0.1,0,0.2,0.1,0.4l0.1,0c0,0,0,0,0,0c0-0.1-0.3-0.4-0.3-0.5 c-0.1,0-0.1-0.1,0-0.1C25.6,17.2,25.6,17,25.5,17z"></path> <path d="M26.3,18.3C26.3,18.3,26.3,18.3,26.3,18.3l0.1,0.1l0.1,0v-0.1C26.4,18.4,26.4,18.3,26.3,18.3l-0.1-0.2c0-0.1,0-0.1-0.1-0.1 h-0.1l0.1,0.2C26.2,18.2,26.2,18.3,26.3,18.3C26.2,18.4,26.2,18.3,26.3,18.3z"></path> <path d="M28.3,20.7L28.3,20.7L28.3,20.7c0-0.1-0.1-0.2-0.2-0.2c0,0,0-0.1,0-0.1c0,0,0,0-0.1,0c0.1,0.1,0.1,0.1,0.1,0.2L28.3,20.7 L28.3,20.7z"></path> <polygon points="28.6,22 28.6,22 28.6,22 "></polygon> <path d="M25.3,16.8C25.3,16.8,25.3,16.8,25.3,16.8c0,0.1,0.1,0.1,0.1,0.2C25.4,17,25.4,16.8,25.3,16.8 C25.3,16.8,25.3,16.8,25.3,16.8z"></path> <path d="M28.8,21.3C28.9,21.3,28.9,21.2,28.8,21.3l0-0.1L28.8,21.3z"></path> <path d="M28.6,21.1C28.6,21.2,28.6,21.2,28.6,21.1l0.2,0.1C28.8,21.1,28.7,21.1,28.6,21.1z"></path> <path d="M28.4,20.9L28.4,20.9L28.4,20.9c0,0.1,0,0.1,0.1,0.2c0,0,0.1,0,0.1-0.1c0,0,0,0,0,0L28.4,20.9z"></path> <path d="M30,10.5c0.1,0,0.2,0,0.2-0.1v-0.1C30.2,10.3,30,10.4,30,10.5z"></path> <path d="M16.6,16.9L16.6,16.9c0,0.1,0.1,0.1,0.1,0.1L16.6,16.9z"></path> <polygon points="27,19.3 26.8,19.1 26.9,19.3 "></polygon> <path d="M27.5,13.5C27.6,13.5,27.6,13.5,27.5,13.5v-0.2c0,0.1-0.1,0.1-0.1,0.1l-0.1,0.1h-0.2v0.1c0,0,0,0,0.1,0h0.1 C27.4,13.7,27.5,13.6,27.5,13.5z"></path> <path d="M27.7,20.2c0,0.1,0.1,0.2,0.1,0.2l0.1,0c-0.1-0.2-0.2-0.2-0.3-0.4c0-0.1-0.1-0.2-0.2-0.2h0l0.1,0.1 C27.6,20.1,27.7,20.2,27.7,20.2z"></path> <path d="M28.2,13.3l0-0.1c0,0-0.1-0.1-0.1-0.1L28,13.2c-0.1,0-0.2,0.1-0.2,0.2c0.1,0,0.2,0,0.3,0L28.2,13.3z"></path> <path d="M27.2,19.7L27.2,19.7l0.1,0.1C27.4,19.8,27.3,19.7,27.2,19.7C27.2,19.7,27.2,19.7,27.2,19.7z"></path> </g> </svg> 