<svg width="56" height="56" viewBox="0 0 56 56" fill="none" xmlns="http://www.w3.org/2000/svg">
<mask id="mask0_4175_280" style="mask-type:luminance" maskUnits="userSpaceOnUse" x="0" y="0" width="56" height="56">
<path d="M49.4356 0H6.56438C2.93897 0 0 2.93897 0 6.56438V49.4356C0 53.061 2.93897 56 6.56438 56H49.4356C53.061 56 56 53.061 56 49.4356V6.56438C56 2.93897 53.061 0 49.4356 0Z" fill="white"/>
</mask>
<g mask="url(#mask0_4175_280)">
<path d="M56 0H0V56H56V0Z" fill="black"/>
</g>
<path d="M12.8658 24.3199C12.8658 21.7663 11.8068 20.497 9.69624 20.4894H5.90332V35.4884H8.11147V30.7266L10.2595 29.7051C10.8604 29.4422 11.4012 29.0742 11.8593 28.6161C12.2048 28.233 12.4677 27.7824 12.6254 27.2942C12.7982 26.6783 12.8808 26.0399 12.8658 25.4015V24.3199ZM10.4248 26.6032C10.2295 26.9637 9.91405 27.2416 9.53851 27.3993L8.11147 28.0978V22.6751H9.20053C9.72628 22.6751 10.1093 22.8253 10.3347 23.1482C10.56 23.4712 10.6726 23.9294 10.6726 24.5528V25.2813C10.6952 25.7319 10.605 26.1826 10.4248 26.6032Z" fill="white"/>
<path d="M38.4173 20.3242H38.0492C35.8486 20.3242 34.6619 21.5109 34.6619 23.7116V32.2813C34.6619 34.4819 35.8486 35.6686 38.0492 35.6686L38.4173 35.6761C40.6179 35.6761 41.8046 34.4895 41.8046 32.2888V23.7116C41.8046 21.5109 40.6179 20.3242 38.4173 20.3242ZM39.6565 31.9884C39.6565 32.8671 39.1834 33.5131 38.3046 33.5131H38.1694C37.2982 33.5131 36.8175 32.8671 36.8175 31.9884V23.9819C36.8175 23.1032 37.2907 22.4573 38.1694 22.4573H38.3046C39.1834 22.4573 39.6565 23.1032 39.6565 23.9819V31.9884Z" fill="white"/>
<path d="M25.3261 20.4894H23.0203V35.4884H25.3261V20.4894Z" fill="white"/>
<path d="M26.9033 22.6225H31.2145L26.9033 34.2191V35.4884H33.2649L33.7231 33.3403H29.4194L33.7231 21.7437V20.4894H27.3765L26.9033 22.6225Z" fill="white"/>
<path d="M47.8958 20.4894V28.4058L45.0492 20.4894H43.3894V35.4884H45.59V27.4744L48.4366 35.4884H50.0965V20.4894H47.8958Z" fill="white"/>
<path d="M17.9956 20.3242H17.6201C15.4194 20.3242 14.2327 21.5109 14.2327 23.7116V32.2813C14.2327 34.4819 15.4194 35.6686 17.6201 35.6686L17.9956 35.6761C20.1962 35.6761 21.3829 34.4895 21.3829 32.2888V23.7116C21.3829 21.5109 20.1962 20.3242 17.9956 20.3242ZM19.2274 31.7105V31.9884C19.2274 32.8671 18.7542 33.5131 17.8754 33.5131H17.7402C16.8615 33.5131 16.3883 32.8671 16.3883 31.9884V23.9819C16.3883 23.1032 16.8615 22.4573 17.7402 22.4573H17.8754C18.7542 22.4573 19.2274 23.1032 19.2274 23.9819V31.718V31.7105Z" fill="white"/>
<path d="M16.3809 31.8455L19.2274 28.3305V24.1245L16.3809 27.6395V31.8455Z" fill="#00FEFF"/>
</svg>
