<?xml version="1.0" encoding="utf-8"?>
<!-- Generator: Adobe Illustrator 25.4.1, SVG Export Plug-In . SVG Version: 6.00 Build 0)  -->
<svg version="1.1" id="Слой_1" xmlns="http://www.w3.org/2000/svg" xmlns:xlink="http://www.w3.org/1999/xlink" x="0px" y="0px"
	 width="53.9px" height="53.9px" viewBox="0 0 53.9 53.9" style="enable-background:new 0 0 53.9 53.9;" xml:space="preserve">
<style type="text/css">
	.st0{fill:#EC1C24;}
</style>
<path class="st0" d="M34.8,16.9l-6-9.1c-0.1-0.1-0.2-0.4-0.2-0.6V2.4c0-0.9-0.8-1.7-1.7-1.7c-0.9,0-1.7,0.8-1.7,1.7v4.8
	c0,0.2-0.1,0.4-0.2,0.6l-6,9.1c-0.1,0.1-0.1,0.4,0,0.5l1.5,2.1c0.1,0.1,0.3,0.1,0.4,0l4-5.6c0.1-0.1,0.2-0.1,0.2,0.1v7.1
	c0,0.2-0.1,0.3-0.3,0.3h-0.7c-0.2,0-0.3,0.1-0.3,0.3v1.3c0,0.2,0.1,0.3,0.3,0.3h5.4c0.2,0,0.3-0.1,0.3-0.3v-1.3
	c0-0.2-0.1-0.3-0.3-0.3h-0.7c-0.2,0-0.3-0.1-0.3-0.3V14c0-0.2,0.1-0.2,0.2-0.1l4,5.6c0.1,0.1,0.3,0.1,0.4,0l1.5-2.1
	C34.9,17.3,34.9,17.1,34.8,16.9"/>
<path class="st0" d="M17.9,17.8L7.4,20.7c-0.2,0-0.4,0-0.6,0l-4.6-1.5c-0.9-0.3-1.8,0.2-2.1,1.1c-0.3,0.9,0.2,1.8,1.1,2.1l4.6,1.5
	c0.2,0.1,0.4,0.2,0.5,0.3l6.9,8.5c0.1,0.1,0.3,0.2,0.5,0.1l2.5-0.8c0.2-0.1,0.2-0.2,0.1-0.4L12,26.1c-0.1-0.1,0-0.2,0.1-0.2l6.7,2.2
	c0.2,0.1,0.2,0.2,0.2,0.4l-0.2,0.7c-0.1,0.2,0,0.3,0.2,0.4l1.2,0.4c0.2,0.1,0.3,0,0.4-0.2l1.7-5.2c0.1-0.2,0-0.3-0.2-0.4l-1.2-0.4
	c-0.2-0.1-0.3,0-0.4,0.2l-0.2,0.7c-0.1,0.2-0.2,0.2-0.4,0.2l-6.7-2.2c-0.2-0.1-0.2-0.1,0-0.2l6.6-2.1c0.2-0.1,0.2-0.2,0.1-0.4
	L18.4,18C18.3,17.8,18.1,17.8,17.9,17.8"/>
<path class="st0" d="M13.5,34.1L13,45c0,0.2-0.1,0.4-0.2,0.5L10,49.5c-0.5,0.8-0.4,1.8,0.4,2.4c0.8,0.6,1.8,0.4,2.4-0.4l2.8-3.9
	c0.1-0.1,0.3-0.3,0.5-0.4l10.2-3.9c0.2-0.1,0.3-0.2,0.3-0.4l0-2.6c0-0.2-0.2-0.3-0.3-0.2l-6.6,2.2c-0.2,0-0.2,0-0.1-0.2l4.2-5.7
	c0.1-0.1,0.3-0.2,0.4-0.1l0.6,0.4c0.1,0.1,0.3,0.1,0.4-0.1l0.7-1c0.1-0.1,0.1-0.3-0.1-0.4L21.3,32c-0.1-0.1-0.3-0.1-0.4,0.1l-0.7,1
	c-0.1,0.1-0.1,0.3,0.1,0.4l0.6,0.4c0.1,0.1,0.2,0.3,0.1,0.4l-4.2,5.7c-0.1,0.1-0.2,0.1-0.2-0.1l0-6.9c0-0.2-0.1-0.3-0.3-0.2
	l-2.5,0.8C13.7,33.8,13.5,33.9,13.5,34.1"/>
<path class="st0" d="M27.7,43.3l10.2,3.9c0.2,0.1,0.4,0.2,0.5,0.4l2.8,3.9c0.5,0.8,1.6,0.9,2.4,0.4c0.8-0.6,0.9-1.6,0.4-2.4
	l-2.8-3.9c-0.1-0.1-0.2-0.4-0.2-0.5l-0.5-10.9c0-0.2-0.1-0.3-0.3-0.4l-2.5-0.8c-0.2,0-0.3,0.1-0.3,0.2l0,6.9c0,0.2-0.1,0.2-0.2,0.1
	L33,34.4c-0.1-0.1-0.1-0.3,0.1-0.4l0.6-0.4c0.1-0.1,0.2-0.3,0.1-0.4l-0.7-1c-0.1-0.1-0.3-0.2-0.4-0.1l-4.4,3.2
	c-0.1,0.1-0.2,0.3-0.1,0.4l0.7,1c0.1,0.1,0.3,0.2,0.4,0.1l0.6-0.4c0.1-0.1,0.3-0.1,0.4,0.1l4.2,5.7c0.1,0.1,0,0.2-0.1,0.2l-6.6-2.2
	c-0.2,0-0.3,0-0.3,0.2l0,2.6C27.4,43.1,27.5,43.3,27.7,43.3"/>
<path class="st0" d="M40.8,32.7l6.8-8.5c0.1-0.1,0.3-0.3,0.5-0.3l4.6-1.5c0.9-0.3,1.4-1.2,1.1-2.1c-0.3-0.9-1.2-1.4-2.1-1.1
	l-4.6,1.5c-0.2,0.1-0.4,0.1-0.6,0L36,17.8c-0.2,0-0.4,0-0.5,0.2L34,20.1c-0.1,0.1,0,0.3,0.1,0.4l6.6,2.1c0.2,0.1,0.2,0.1,0,0.2
	l-6.7,2.2c-0.2,0.1-0.3,0-0.4-0.2L33.3,24c-0.1-0.2-0.2-0.2-0.4-0.2l-1.2,0.4c-0.2,0.1-0.2,0.2-0.2,0.4l1.7,5.2
	c0.1,0.2,0.2,0.2,0.4,0.2l1.2-0.4c0.2-0.1,0.2-0.2,0.2-0.4l-0.2-0.7c-0.1-0.2,0-0.3,0.2-0.4l6.7-2.2c0.2-0.1,0.2,0,0.1,0.2l-4.1,5.6
	c-0.1,0.1,0,0.3,0.1,0.4l2.5,0.8C40.5,32.9,40.7,32.9,40.8,32.7"/>
</svg>
