<?xml version="1.0" encoding="UTF-8"?>
<svg xmlns="http://www.w3.org/2000/svg" viewBox="20 20 120 120">
  <defs>
    <linearGradient id="a" x1="73.342" x2="73.342" y1="15.602" y2="131.99" gradientUnits="userSpaceOnUse">
      <stop offset="0" style="stop-color:#373b45"/>
      <stop offset="1" style="stop-color:#181a1d"/>
    </linearGradient>
  </defs>
  <rect width="119.4" height="119.47" x="12.257" y="14.183" rx="20" ry="20" style="fill:url(#a);paint-order:markers fill stroke;stroke-linecap:round;stroke-linejoin:round;stroke-width:10" transform="translate(8 6)"/>
  <path fill="#fff" d="M60.103 89.321V75.85c0-3.821-2.046-5.635-5.48-5.635-2.857 0-5.327 1.698-6.408 3.396-.695-2.123-2.432-3.396-5.172-3.396-2.857 0-5.327 1.775-6.099 2.895v-2.432h-4.902V89.32h4.902V76.777c.733-1.042 2.162-2.2 3.86-2.2 2.007 0 2.779 1.235 2.779 2.972V89.32h4.94V76.738c.695-1.004 2.123-2.162 3.86-2.162 2.007 0 2.78 1.235 2.78 2.972V89.32zm13.471.463c-6.137 0-9.842-4.477-9.842-9.804 0-5.288 3.705-9.765 9.842-9.765 6.176 0 9.881 4.477 9.881 9.765 0 5.327-3.705 9.804-9.881 9.804zm0-4.361c3.05 0 4.786-2.51 4.786-5.443 0-2.895-1.737-5.403-4.786-5.403-3.05 0-4.748 2.508-4.748 5.403 0 2.934 1.699 5.443 4.748 5.443zm30.994 3.898V76.159c0-3.628-1.968-5.944-6.06-5.944-3.05 0-5.326 1.467-6.523 2.895v-2.432h-4.902v18.643h4.902V76.777c.81-1.12 2.316-2.2 4.246-2.2 2.084 0 3.435.888 3.435 3.474v11.27zm13.509.463c-6.137 0-9.842-4.477-9.842-9.804 0-5.288 3.705-9.765 9.842-9.765 6.176 0 9.881 4.477 9.881 9.765 0 5.327-3.705 9.804-9.881 9.804zm0-4.361c3.05 0 4.786-2.51 4.786-5.443 0-2.895-1.737-5.403-4.786-5.403-3.05 0-4.748 2.508-4.748 5.403 0 2.934 1.699 5.443 4.748 5.443z" />
</svg>