<?xml version="1.0" encoding="utf-8"?>
<!-- Generator: Adobe Illustrator 23.0.1, SVG Export Plug-In . SVG Version: 6.00 Build 0)  -->
<svg version="1.1" id="Layer_1" xmlns="http://www.w3.org/2000/svg" xmlns:xlink="http://www.w3.org/1999/xlink" x="0px" y="0px"
	 viewBox="0 0 120 120" style="enable-background:new 0 0 120 120;" xml:space="preserve">
<style type="text/css">
	.st0{display:none;}
	.st1{display:inline;fill:#6BD8F9;}
	.st2{display:inline;fill:#2BB2FC;}
	.st3{fill:#057FE2;}
	.st4{fill:#4FBBF7;}
</style>
<g class="st0">
	<path class="st1" d="M53.4,50.2H28.2c0,0,25.3,34,25.4,33.8c6.6-4.8,14.7-13.7,14.7-13.7L53.4,50.2z"/>
	<path class="st2" d="M11.3,119.6H50c6.6-5.1,12.7-9.9,18.3-15.2l11,15.2h25.2l-22-30c7.3-8.7,24.5-29,24.5-50.1S77,3.7,51.3,1.4
		C72.7,4.6,94.4,18.6,94.6,36S62.8,88.6,12,119.6H11.3z"/>
</g>
<path class="st3" d="M107.4,40.6c0-30.1-44-40.6-55.6-40.2c0,0,42.9,4.4,42.9,37.3S6,119.8,6,119.8c0.1,0,43.5,0,43.6,0
	c0,0,8.4-6.1,18.7-15.8l11.2,15.8h25.5L83,89.2C95.8,74.8,107.4,57.2,107.4,40.6z"/>
<path class="st4" d="M26,47.5l25.5,34.2c0,0,9.7-7.4,15.4-12.9c-4-5.6-15.4-21.3-15.4-21.3H26z"/>
</svg>
