<svg width="192" height="192" viewBox="0 0 192 192" fill="none" xmlns="http://www.w3.org/2000/svg">
<rect width="192" height="192" fill="white"/>
<path d="M180.118 181.532H161.4C157.143 181.532 153.691 178.081 153.691 173.823V70.4327C153.691 66.1749 157.143 62.7233 161.4 62.7233H180.118C184.376 62.7233 187.828 66.1749 187.828 70.4327V173.823C187.828 178.081 184.376 181.532 180.118 181.532Z" fill="#EC008C"/>
<path d="M179.78 41.4797H161.739C157.294 41.4797 153.691 37.8765 153.691 33.4318V15.3906C153.691 10.9459 157.294 7.34277 161.739 7.34277H179.78C184.225 7.34277 187.828 10.9459 187.828 15.3906V33.4318C187.828 37.8765 184.225 41.4797 179.78 41.4797Z" fill="#EC008C"/>
<path d="M123.463 6H25.4189C17.7251 6 10.9338 22.0565 19.7306 30.7543C28.5274 39.452 65.4846 70.1393 65.4846 70.1393C59.6622 67.2774 48.6203 68.2133 42.6886 69.8432C20.7806 75.8629 5 98.3065 5 122.856C5 157.153 29.9455 183.729 63.554 185.874C96.9283 188.004 126.764 162.9 130.211 129.636C132.299 109.481 125.043 86.7422 108.017 68.0026C95.9725 54.7449 76.6391 38.699 76.6391 38.699C76.6391 38.699 80.3089 40.5091 108.398 40.5091C112.485 40.5825 121.227 40.4969 121.227 40.4969C127.245 40.8039 132.294 36.0069 132.294 29.9804V14.831C132.294 9.95378 128.34 6 123.463 6ZM95.7719 121.929C96.2199 138.009 84.9848 151.291 69.296 152.105C53.3852 152.931 40.2004 139.709 39.7568 123.783C39.309 107.703 50.5443 94.4217 66.2329 93.6076C82.1436 92.7819 95.3281 106.003 95.7719 121.929Z" fill="#EC008C"/>
</svg>
