<?xml version="1.0" standalone="no"?>
<!DOCTYPE svg PUBLIC "-//W3C//DTD SVG 20010904//EN"
 "http://www.w3.org/TR/2001/REC-SVG-20010904/DTD/svg10.dtd">
<svg width="120" height="120" viewBox="0 0 120 120" fill="none" xmlns="http://www.w3.org/2000/svg">
<rect width="120" height="120" rx="24" fill="#50B848"/>
<path d="M14 68.3899V81.5316C14.0078 82.0685 14.1394 82.5964 14.3847 83.0749C14.6299 83.5535 14.9823 83.97 15.4149 84.2926C15.8474 84.6152 16.3487 84.8352 16.8802 84.9359C17.4117 85.0365 17.9593 85.0151 18.4812 84.8734L74.1137 68.8543C75.8378 68.3597 77.6579 68.2936 79.4138 68.6617C81.1696 69.0297 82.8073 69.8207 84.1823 70.9648L100.044 84.1558C100.572 84.597 101.217 84.8792 101.902 84.969C102.587 85.0588 103.283 84.9525 103.909 84.6627C104.535 84.3729 105.064 83.9116 105.435 83.3332C105.805 82.7548 106.001 82.0833 106 81.398V68.404C106.002 66.8464 105.484 65.3321 104.525 64.0985L85.1538 39.1377C83.6273 37.1702 81.4538 35.7963 79.0115 35.2551C76.5693 34.7139 74.0131 35.0397 71.788 36.1759L16.4108 64.4643C15.6846 64.8362 15.0755 65.3991 14.6503 66.0915C14.2251 66.7839 14.0001 67.5791 14 68.3899V68.3899Z" fill="#FFDD00"/>
</svg>

