<svg xmlns="http://www.w3.org/2000/svg" version="1.1" xmlns:xlink="http://www.w3.org/1999/xlink" xmlns:svgjs="http://svgjs.com/svgjs" width="1000" height="1000"><svg version="1.1" id="SvgjsSvg1000" xmlns="http://www.w3.org/2000/svg" xmlns:xlink="http://www.w3.org/1999/xlink" x="0px" y="0px" viewBox="0 0 1000 1000" style="enable-background:new 0 0 1000 1000;" xml:space="preserve">
<style type="text/css">
	.st0{fill:#0071BC;}
	.st1{fill:#FFFF00;}
</style>
<polygon class="st0" points="529.76,760.98 529.76,854.15 396.75,854.15 396.75,760.57 "></polygon>
<polygon class="st0" points="681.07,738.49 727.89,738.61 726.66,737.69 727.99,737.69 621.97,658.89 621.97,583.29 559.72,583.29 
	559.72,612.64 520.21,583.29 462.82,540.64 405.43,583.29 210.52,728.13 198.51,737.03 198.55,737.03 197.66,737.69 245.58,737.69 
	245.58,854.15 114.44,854.15 84.47,854.06 9,853.84 68.63,760.83 83.47,737.69 182.45,583.29 462.92,145.82 500.8,204.86 
	578.92,326.7 634.26,413.25 742.96,583.29 841.66,737.69 856.46,760.83 916.11,854.15 681.07,854.15 "></polygon>
<polygon class="st1" points="991,854.18 916.14,854.18 501.27,205.22 538.51,147.25 754.57,484.18 "></polygon>
</svg><style>@media (prefers-color-scheme: light) { :root { filter: none; } }
</style></svg>