<?xml version="1.0" encoding="utf-8"?>
<!-- Generator: Adobe Illustrator 26.3.1, SVG Export Plug-In . SVG Version: 6.00 Build 0)  -->
<svg version="1.1" id="Слой_1" xmlns="http://www.w3.org/2000/svg" xmlns:xlink="http://www.w3.org/1999/xlink" x="0px" y="0px"
	 viewBox="0 0 120 120" style="enable-background:new 0 0 120 120;" xml:space="preserve">
<style type="text/css">
	.st0{fill:#282560;}
	.st1{fill-rule:evenodd;clip-rule:evenodd;fill:#FFFFFF;}
	.st2{fill:#3075B9;}
	.st3{fill:#003340;}
	.st4{fill:#DF1F27;}
	.st5{fill:#6B190F;}
	.st6{fill:#009AC4;}
	.st7{fill:#2A6230;}
	.st8{fill:#EC8B22;}
	.st9{fill:#C42B27;}
	.st10{fill:#A41E22;}
</style>
<path class="st0" d="M106.87,120H13.13C5.88,120,0,114.12,0,106.87V13.13C0,5.88,5.88,0,13.13,0h93.74C114.12,0,120,5.88,120,13.13
	v93.74C120,114.12,114.12,120,106.87,120z"/>
<g>
	<path class="st1" d="M7.7,113.63l-1.06-5.23c0.7-0.14,2.84-0.57,4.7-1.14c1.39-0.43,2.52-1.15,2.51-2.61
		c-0.01-0.65,0-0.66-0.43-0.8c-14.23-4.61-9.56-15.5-5.72-25.8c0.28-0.75,0.76-2.21,1.29-2.78l0.7-0.77h3.9
		c-0.09-2.03-0.17-4.07-0.26-6.1c-0.15-3.54,1.23-6.64,3.79-9.01c1.19-1.1,2.39-2.17,3.71-3.09c2.87-1.99,3.95-4.78,4.06-8.23
		c0.18-5.96,0.32-11.92,0.49-17.88c0.08-2.71,0.29-5.43,0.29-8.13c0-0.78-0.63-2.1-0.63-3.65c0-3.98-0.29-10.89,4.81-11.28
		c1.87-0.14,7.27-0.14,9.14,0c5.11,0.39,4.84,7.42,4.81,11.42c-0.01,1.39-0.63,2.75-0.63,3.5c0,0.01,0,0.01,0,0.01
		c0.03,2.71,0.21,5.41,0.29,8.12c0.18,6.05,0.11,12.55,0.53,18.54c1.64-0.9,3.3-1.76,4.93-2.68c0.63-0.35,0.95-0.86,1.04-1.59
		c0.19-1.55,0.23-3.12,0.33-4.68c0.09-1.38,0.17-2.77,0.24-4.15c-0.03-0.18-0.25-0.74-0.33-1.45c-0.41-3.55-1.16-9.67,3.67-9.84
		c1.44-0.04,2.9-0.03,4.34-0.03c1.44,0,2.9-0.01,4.34,0.03c5.08,0.17,4.31,6.79,3.58,10.39c-0.06,0.3-0.14,0.6-0.25,0.89
		c0.08,1.39,0.16,2.77,0.24,4.15c0.1,1.56,0.14,3.13,0.33,4.68c0.09,0.72,0.41,1.24,1.04,1.59c2.06,1.16,4.33,2.24,6.31,3.44
		c1.12-2.7,2-5.52,3.11-8.23c1.9-4.66,2.5-19.2,2.37-23.92c-0.06-2.33-0.35-4.65-0.46-6.99c-0.13-2.77,1.08-4.58,3.91-4.8
		c1.33-0.11,4.78-0.11,6.11,0c2.84,0.23,4.05,2.03,3.91,4.8c-0.12,2.57-0.47,5.13-0.47,7.71c0,4.84,0.45,18.47,2.38,23.2
		c1.27,3.1,2.23,6.35,3.62,9.4c4.47,9.89,3.48,17.39,3.35,27.8c5.62,0,9.46,0,14.6,0l-12.67,19.13v8.82
		c0.72,0.72,4.89,1.48,6.1,1.66l-0.55,5.57C75.3,113.63,41.51,113.63,7.7,113.63L7.7,113.63z"/>
	<path class="st2" d="M24.34,111.24c-2.42,0-4.83,0-7.25,0h-0.07c-2.41,0-4.83,0-7.25,0c-0.05-0.14-0.1-1.11-0.14-1.25
		c1.43-0.43,6.49,0,6.54-4.32c0-0.3,0.01-0.6,0.01-0.89c0-1.33-0.2-2.6-2.07-3.21c-5.43-1.76-7.98-4.59-7.97-9.09
		c0-1.4,0.25-2.98,0.75-4.72c0.92-3.29,3.56-10.59,3.81-10.87h5.33l0,0c0.03,0.61,0.05,1.23,0.08,1.84
		c0.46,9.11,0.92,18.22,1.43,27.33c0.19,3.44,1.29,4.59,4.65,5.02c0.25,0.03,1.03,0.06,2.16,0.08L24.34,111.24L24.34,111.24z"/>
	<path class="st3" d="M24.36,111.17c-1.13-0.02-1.91-0.05-2.16-0.08c-3.35-0.43-4.46-1.59-4.65-5.02
		c-0.5-9.11-0.96-18.22-1.43-27.33c-0.03-0.61-0.06-1.23-0.08-1.84h7.37c0.25,0.27,2.88,7.58,3.81,10.87
		c0.49,1.75,0.74,3.32,0.75,4.72c0.01,4.5-2.54,7.33-7.97,9.09c-1.87,0.6-2.07,1.87-2.07,3.21c0,0.3,0.01,0.59,0.01,0.89
		c0.05,4.31,5.12,3.89,6.54,4.32C24.44,110.11,24.4,110.91,24.36,111.17L24.36,111.17L24.36,111.17L24.36,111.17z"/>
	<path class="st4" d="M34.45,111.24c-3.87,0-7.75-0.02-10.09-0.07c0.04-0.26,0.09-1.06,0.13-1.19l0,0c-1.43-0.43-6.49,0-6.54-4.32
		c0-0.3-0.01-0.6-0.01-0.89c0-1.33,0.2-2.6,2.07-3.21c5.43-1.76,7.98-4.59,7.97-9.09c0-1.4-0.25-2.98-0.75-4.72
		c-0.92-3.29-3.56-10.59-3.81-10.87h-7.37l0,0l0,0c-0.13-2.86-0.25-5.73-0.37-8.59c-0.01-0.15-0.01-0.29-0.01-0.44
		c0-2.68,1.08-4.9,3.03-6.7c1.11-1.02,2.23-2.03,3.46-2.89c3.53-2.45,4.95-5.95,5.08-10.14c0.18-5.96,0.32-11.93,0.5-17.89
		c0.08-2.72,0.26-5.44,0.29-8.16c0-0.01,0-0.03,0-0.04c0-1.17-0.62-2.35-0.63-3.52c0-0.04,0-0.08,0-0.12c0-2.04,0.4-4.06,0.46-6.1
		c0-0.07,0.06-0.15,0.05-0.22c0,0,0,0,0,0c0-0.11,0-0.21,0-0.31c0-1.64,0.39-2.13,2.12-2.26c0.73-0.06,2.56-0.08,4.4-0.08
		c1.83,0,3.67,0.03,4.4,0.08c1.74,0.13,2.12,0.62,2.12,2.26c0,0.1,0,0.2,0,0.31c0,0,0,0,0,0c0,0.07,0.05,0.15,0.05,0.22
		c0.06,2.04,0.46,4.06,0.46,6.1c0,0.04,0,0.08,0,0.12c-0.01,1.17-0.63,2.35-0.63,3.52c0,0.01,0,0.03,0,0.04
		c0.03,2.72,0.21,5.44,0.29,8.16c0.18,5.96,0.32,11.93,0.49,17.89c0.05,1.54,0.27,2.98,0.71,4.31c-1.76,1.05-3.5,2.13-5.24,3.21
		c-0.99,0.61-1.41,1.53-1.42,2.71c-0.01,1.67-0.02,5.08-0.02,9.38c0,0.01,0,0.02,0,0.03c0,0.01,0,0.02,0,0.03c0,0.01,0,0.02,0,0.03
		c0,0.01,0,0.02,0,0.03c0,14.39,0.07,38.53,0.12,40.23c0.06,2.06,0.77,2.85,2.81,3.02c0.38,0.03,2.05,0.06,4.5,0.08
		C40.73,111.22,37.59,111.24,34.45,111.24L34.45,111.24z"/>
	<path class="st5" d="M43.05,111.19c-2.45-0.02-4.12-0.05-4.5-0.08c-2.04-0.17-2.75-0.96-2.81-3.02c-0.05-1.7-0.12-25.84-0.12-40.23
		c0-0.01,0-0.02,0-0.03c0-0.01,0-0.02,0-0.03c0-0.01,0-0.02,0-0.03c0-0.01,0-0.02,0-0.03c0-4.3,0.01-7.71,0.02-9.38
		c0.01-1.18,0.43-2.1,1.42-2.71c1.74-1.08,3.49-2.16,5.24-3.21c0.75,2.3,2.14,4.27,4.37,5.83c1.23,0.85,2.36,1.87,3.46,2.89
		c1.95,1.8,3.03,4.03,3.03,6.7c0,0.14,0,0.29-0.01,0.44c-0.14,3.48-0.28,6.96-0.45,10.43c-0.46,9.11-0.92,18.22-1.43,27.33
		c-0.19,3.44-1.29,4.59-4.65,5.02c-0.34,0.04-1.66,0.08-3.52,0.1c-0.01,0-0.02,0-0.03,0C43.07,111.19,43.06,111.19,43.05,111.19
		L43.05,111.19z"/>
	<path class="st6" d="M58.19,111.24c-5.64,0-11.28-0.01-15.08-0.04c1.86-0.03,3.18-0.06,3.52-0.1c3.35-0.43,4.46-1.59,4.65-5.02
		c0.5-9.11,0.96-18.22,1.43-27.33c0.18-3.47,0.31-6.95,0.45-10.43c0.01-0.15,0.01-0.29,0.01-0.44c0-2.68-1.08-4.9-3.03-6.7
		c-1.1-1.02-2.23-2.03-3.46-2.89c-2.23-1.55-3.62-3.53-4.37-5.83c0.49-0.29,0.97-0.59,1.46-0.87c2.06-1.2,4.2-2.27,6.27-3.43
		c1.3-0.73,2.06-1.92,2.24-3.39c0.19-1.6,0.24-3.21,0.34-4.82c0.09-1.49,0.18-2.98,0.26-4.47c0-0.03,0-0.07,0-0.1
		c0-0.1-0.01-0.2-0.05-0.29c-0.26-0.58-0.35-1.16-0.35-1.75c0-0.75,0.15-1.5,0.28-2.27c0.05-0.3,0.08-0.62,0.08-0.94
		c0-0.4-0.05-0.8-0.17-1.15c-0.11-0.33-0.16-0.64-0.16-0.91c0-0.77,0.45-1.29,1.41-1.32c0.64-0.02,2.45-0.03,4.26-0.03
		c1.81,0,3.62,0.01,4.26,0.03c0.96,0.03,1.41,0.55,1.41,1.32c0,0.27-0.06,0.58-0.16,0.91c-0.12,0.35-0.17,0.75-0.17,1.15
		c0,0.32,0.03,0.64,0.08,0.94c0.13,0.76,0.28,1.52,0.28,2.27c0,0.59-0.09,1.17-0.35,1.75c-0.04,0.09-0.05,0.19-0.05,0.29
		c0,0.03,0,0.07,0,0.1c0.08,1.49,0.17,2.98,0.26,4.47c0.1,1.61,0.15,3.22,0.34,4.82c0.18,1.47,0.94,2.66,2.23,3.39
		c2.08,1.17,4.21,2.24,6.28,3.43c0.76,0.44,1.51,0.9,2.26,1.36c-1.89,4.61-2.77,9.38-2.77,14.37l0,0c0,0.49,0.01,0.99,0.02,1.49
		c0.18,5.44,0.25,32.51,0.33,38.19c0.03,2.33,0.71,3.21,2.94,3.67c0.88,0.18,1.78,0.33,2.68,0.44c-0.09,0.01-0.16,0.03-0.25,0.03
		C76.85,111.2,67.52,111.24,58.19,111.24L58.19,111.24z"/>
	<path class="st7" d="M78.08,111.08c-0.9-0.11-1.8-0.26-2.68-0.44c-2.23-0.46-2.91-1.34-2.94-3.67c-0.08-5.68-0.14-32.75-0.33-38.19
		c-0.02-0.5-0.02-0.99-0.02-1.49c0-4.99,0.88-9.76,2.77-14.37c1.49,0.9,2.96,1.81,4.44,2.72c0.99,0.61,1.41,1.53,1.42,2.71
		c0.01,1.64,0.02,4.98,0.02,9.19c0,0.01,0,0.02,0,0.03l0,0c0,0.01,0,0.02,0,0.03c0,0.01,0,0.02,0,0.03l0,0c0,0.01,0,0.02,0,0.03
		c0,14.37-0.07,38.71-0.12,40.42C80.58,110.06,79.92,110.86,78.08,111.08C78.08,111.08,78.08,111.08,78.08,111.08
		C78.08,111.08,78.08,111.08,78.08,111.08L78.08,111.08z"/>
	<path class="st8" d="M85.77,111.24c-2.23,0-4.47,0-5.36-0.01c-0.77,0-1.55-0.06-2.33-0.15c1.84-0.22,2.5-1.02,2.56-2.99
		c0.05-1.71,0.12-26.05,0.12-40.42l0,0c0-0.01,0-0.02,0-0.03c0-0.01,0-0.01,0-0.03l0,0c0-0.01,0-0.02,0-0.02c0-0.01,0-0.02,0-0.03
		l0,0c0-4.2-0.01-7.54-0.02-9.19c-0.01-1.18-0.43-2.1-1.42-2.71c-1.48-0.91-2.96-1.83-4.44-2.73c0.17-0.43,0.34-0.85,0.53-1.28
		c1.39-3.08,2.37-6.35,3.65-9.48c2.16-5.29,2.56-20.02,2.56-24.11c0-0.34,0-0.61-0.01-0.79c-0.06-2.35-0.35-4.69-0.46-7.03
		c-0.01-0.14-0.01-0.26-0.01-0.39c0-1.29,0.39-1.82,1.76-1.92c0.46-0.04,1.66-0.06,2.87-0.06c1.21,0,2.41,0.02,2.87,0.06
		c1.38,0.11,1.76,0.64,1.76,1.92c0,0.12,0,0.25-0.01,0.39c-0.11,2.35-0.4,4.69-0.46,7.03c0,0.18-0.01,0.45-0.01,0.79
		c0,4.09,0.4,18.82,2.56,24.11c1.28,3.14,2.26,6.41,3.65,9.48c2.27,5.02,3.3,10.2,3.3,15.66c0,0.49-0.01,0.98-0.02,1.47
		c-0.07,1.93-0.12,6.6-0.16,12.06l0,0l0,0H88.62l10.61,16c-0.03,4.61,0.04,8.36,0.02,10.13c0,0.12-0.01,0.25-0.02,0.37
		c-0.47,0.82-1.38,1.43-2.46,1.74c-1.11,0.33-2.22,0.65-3.33,0.98l0,0c0.02,0.08,0.03,0.7,0.05,1.01c-0.79,0.09-1.58,0.15-2.36,0.15
		C90.24,111.23,88,111.24,85.77,111.24L85.77,111.24z"/>
	<path class="st9" d="M106.93,111.24c-1.91,0-3.81,0-5.72,0h-1.99c-1.91,0-3.81,0-5.72,0c0-0.02-0.01-0.08-0.01-0.16
		c0.89-0.1,1.78-0.25,2.66-0.43c2.1-0.43,2.82-1.25,2.92-3.3l0,0c0.05-0.08,0.11-0.16,0.15-0.25V96.85l-0.06-0.09
		c0.03-4.95,0.06-10.78,0.1-15.91h12.55l-10.6,16v10.24c0.45,0.96,1.25,1.65,2.45,2c1.11,0.33,2.22,0.65,3.33,0.98
		C106.97,110.18,106.95,111.12,106.93,111.24L106.93,111.24z"/>
	<polygon class="st10" points="99.16,96.76 99.16,96.76 88.62,80.85 99.25,80.85 99.16,96.76 	"/>
	<path class="st10" d="M93.49,111.08L93.49,111.08L93.49,111.08c-0.02-0.3-0.03-0.92-0.05-1.01c1.11-0.33,2.22-0.65,3.33-0.98
		c1.07-0.33,1.94-1.07,2.45-2c-0.09,2.08-0.95,3.19-3.07,3.55C95.27,110.83,94.38,110.97,93.49,111.08L93.49,111.08z"/>
</g>
</svg>
