<?xml version="1.0" encoding="utf-8"?>
<!-- Generator: Adobe Illustrator 27.5.0, SVG Export Plug-In . SVG Version: 6.00 Build 0)  -->
<svg version="1.1" id="Слой_1" xmlns="http://www.w3.org/2000/svg" xmlns:xlink="http://www.w3.org/1999/xlink" x="0px" y="0px"
	 viewBox="0 0 610 610" style="enable-background:new 0 0 610 610;" xml:space="preserve">
<style type="text/css">
	.st0{fill:#009933;}
	.st1{fill-rule:evenodd;clip-rule:evenodd;fill:#FFCC10;}
	.st2{fill:#FFFFFF;}
	.st3{fill:#E83103;}
	.st4{fill:#FFCC10;}
	.st5{fill-rule:evenodd;clip-rule:evenodd;fill:#FFFFFF;}
</style>
<circle class="st0" cx="305" cy="305" r="305"/>
<path class="st1" d="M268.5,24.3c0.2,1.6-0.9,3.2-2.6,3.4C129.8,46.7,25,163.6,25,305c0,154.6,125.4,280,280,280s280-125.4,280-280
	c0-141.4-104.8-258.3-240.9-277.3c-1.6-0.2-2.8-1.7-2.6-3.4s1.7-2.8,3.4-2.6C484,41.2,591,160.6,591,305c0,158-128,286-286,286
	S19,463,19,305C19,160.6,126,41.2,265.1,21.8C266.7,21.5,268.2,22.7,268.5,24.3z"/>
<circle class="st2" cx="305" cy="305" r="261"/>
<circle class="st3" cx="305" cy="305" r="241"/>
<circle class="st4" cx="305" cy="22" r="9"/>
<path class="st2" d="M339.6,280.8c-0.1-15.2-0.2-27.4,5.5-38.8c4.5-9,16.4-13.2,26.7-5.4c0.2-3-3-10.9-11.2-14.9
	c-11.7-5.9-29.2-3.9-36.6,11c-1.3,2.7-2.5,5.3-3.6,7.9c-1.3-5.4-2.7-10.5-4.1-15.2c-4.4-15.8-7.9-28.3-5.1-42.2
	c2.3-11,13.8-18.9,27.2-13.5c-0.7-3.3-6.4-10.8-16.4-12.8c-14.3-2.9-31.7,4.4-35.4,22.6c-1,5.1-1.7,9.9-2.1,14.5
	c-2.6-5.3-5.1-10.2-7.5-14.9c-8.4-16.4-15.2-29.5-15.2-45.5c0-12.7,11-24,27-21c-1.5-3.5-9.5-10.5-21-10.5c-16.5,0-32,12-32,33
	c0,29.4,8.8,49.7,17.3,69.3c11.1,25.6,21.6,49.8,11.1,91.5c8.2-6.4,18.5-10.3,29.7-10.3c19.9,0,36.9,12.1,44.2,29.3
	C339.7,301.8,339.6,290.6,339.6,280.8z"/>
<circle class="st2" cx="294" cy="333.5" r="40"/>
<path class="st5" d="M180.3,215.5c2.9,0,5.7,1.5,5.7,4s-2.9,4-5.7,4c-2.4,0-5.3-0.5-5.3-3.5C175,218.5,176.9,215.5,180.3,215.5z
	 M246,333.5c0-4.3,0.6-8.5,1.6-12.5c0.1-0.5,0.2-0.9,0.4-1.4c0.7-2.2,1.5-4.4,2.5-6.5c5.7-15.5,8.6-28.5,9.7-39.9
	c-6.6-6.9-11-15.5-15.4-24.2c-2.5-4.9-5-9.8-8-14.5c-7.7-12.4-14.8-20.1-22.5-24.7c0-3.8-5.5-11.8-12.5-11.8c-4.9,0-8.3,4-8.3,6.1
	c-1.2-0.1-2.4-0.1-3.7-0.1c-15.3,0-20.1,5.8-23.4,9.6c-0.6,0.7-1.1,1.3-1.6,1.9c-1.1,1.1-3.6,2.1-6.6,3.4
	c-6.1,2.5-13.2,6.3-13.2,11.6c0,11,11.5,20,11.5,20c0,2,0,5.5,2,7.5c4.3,4.3,10.2,2.3,15.3,0.6c2.4-0.8,4.7-1.6,6.6-1.6
	c2.5,0,12,5.5,12,23.5c0,6.1-0.4,10.3-0.8,14.6c-0.4,4.2-0.7,8.5-0.7,14.4c0,15.5,4.5,29.5,13.5,44c-10.4-8.4-20.2-20-24.8-33
	c-34.7-1.7-55,10.5-64,19.5c-7,7-2.7,23,5.8,31.5c9.5,9.5,26.5,4,26.5-2s-5-14-12.5-16.5c3.5-3.5,9-6,16.5-6
	c13.2,0,21.9,6.2,31,12.8c10.2,7.4,21,15.2,39.5,15.2c-5.5-20,4-37,11-46.5c-7.5,23-3,40.5,0,49.5c5,15-14.8,70-25,70
	c-2.5,0-4.2-0.2-6.2-0.4c-2.8-0.3-6.3-0.6-13.3-0.6c-9.6,0-15.5,11-15.5,18.5c0,3,3.5,10,24,10c11.8,0,23.8-3.1,33-11
	c19.3-16.6,31.8-47,40-67l0,0c0.9-2.1,1.7-4.1,2.5-6c46,13.5,77.5-28,89-52.5c0,8.7,5.4,17.2,9.7,24c2.9,4.6,5.3,8.4,5.3,11
	c0,7.9-16.5,32.5-25,32.5c-4.1,0-6.8-0.3-9.6-0.7c-3-0.4-6.2-0.8-11.4-0.8c-11.5,0-16.5,12-16.5,19c0,9,18.5,9.5,22,9.5
	c32.4,0,61.5-26.5,81-57l-0.7-0.6C403.8,364,387,348.5,389,322c6,23.7,23.9,34.8,32.3,39.9l0,0c1.3,0.8,2.4,1.5,3.2,2.1
	c0,7.1,3.6,14.8,6.7,21.3c2.3,4.9,4.3,9.2,4.3,12.2c0,7-8.7,40-13.2,40c-1.8,0-3.6-0.2-5.8-0.5l0,0l0,0l0,0c-3.5-0.4-8-1-14.7-1
	c-11,0-16.5,11-16.5,18.5c0,4.5,4.5,10,24.5,10c37.5,0,65-57,65-68.5c0-5-1.3-7.5-2.8-10.4c-1.9-3.7-4.1-8.1-4.1-19.1
	c0-9.4,1.2-15.1,2.4-21c1.3-6.3,2.6-12.9,2.6-24.5c0-5.7-1.4-11.3-2.7-16.3c-1.7-6.7-3.1-12.1-0.2-15c0.6-0.6,1.2-1.2,1.7-1.7
	c8.5-8.4,17.7-17.5,17.7-33.4c0-17.2-9.8-29.8-20.4-38.9c-10.1-8.7-23.2-16-34.7-22.5l-1.1-0.6c-12.5-7-23.1-13.1-30.8-19.8
	c-7.5-6.6-10-11.8-10-16.7c0-3.7,0.9-7.4,1.7-10.8c1.8-7.4,3.3-13.9-4.2-18.2c-13.5-7.7-27.5,11.7-27.5,29
	c0,17.3,9.6,30.1,20.3,39.4c10.4,9,23.8,16.6,35.4,23.1l0.4,0.2c12.5,7,23.2,13.1,30.9,19.7c13.6,11.6,13.9,29.1-2.6,29.1
	c-5.3,0-10.4-2.9-16.4-6.4c-8.7-5-19.4-11.1-35.6-11.1c-21.3,0-34.6,9.4-47.3,18.9c-0.1,3.6-0.1,7.5-0.1,11.9l0,0.1
	c0.1,16.2,0.2,36.4-6.7,62.9c-4.7,21.6-23.9,37.8-46.9,37.8C267.5,381.5,246,360,246,333.5z"/>
</svg>
