<svg xmlns="http://www.w3.org/2000/svg" version="1.1" xmlns:xlink="http://www.w3.org/1999/xlink" width="38" height="38"><svg width="38" height="38" viewBox="0 0 38 38" fill="none" xmlns="http://www.w3.org/2000/svg">
<g clip-path="url(#clip0_5656_5739)">
<path d="M31.4429 32.8104H32.041C28.6378 36.0252 24.0507 37.9999 19 38C14.0932 38 9.62138 36.139 6.25002 33.0853L18.9268 11.1326L31.4429 32.8104Z" fill="#00AD31"></path>
<path d="M19 0C29.4931 0.000167713 38 8.50681 38 19C37.9999 22.4939 37.0518 25.7649 35.4061 28.5777L18.9286 0.0374894L18.9268 0.0392746L18.925 0.0374894L2.52072 28.4509C0.920441 25.6667 0.000109088 22.4416 0 19C0 8.50676 8.50679 8.99848e-05 19 0Z" fill="#00AD31"></path>
<path d="M31.443 32.8105H32.041C28.6378 36.0253 24.0508 38 19 38.0001C14.0932 38.0001 9.62142 36.1391 6.25006 33.0854L18.9268 11.1327L31.443 32.8105Z" fill="#212121"></path>
</g>
<defs>
<clipPath id="SvgjsClipPath1003">
<rect width="38" height="38" fill="white"></rect>
</clipPath>
</defs>
</svg><style>@media (prefers-color-scheme: light) { :root { filter: none; } }
@media (prefers-color-scheme: dark) { :root { filter: none; } }
</style></svg>