<?xml version="1.0" encoding="UTF-8"?>
<svg id="_Слой_1" data-name="Слой 1" xmlns="http://www.w3.org/2000/svg" viewBox="0 0 50 50">
  <defs>
    <style>
      .cls-1 {
        fill: #ffe63f;
      }

      .cls-2 {
        fill: #ed1c42;
      }
    </style>
  </defs>
  <rect class="cls-2" width="50" height="50"/>
  <path class="cls-1" d="m15.42,42.76h.04c3.52.19,10.73.3,11.39-.78.66-1.07,1.61-3.87,2.01-5.13.45-1.83,2.04-7.85,2.22-8.77.19-1.03.36-1.98.51-2.85.15-.88.28-1.65.4-2.29.12-.64.21-1.06.24-1.23.1-.51.31-1.31.64-2.39.33-1.09.67-2.23,1.03-3.43.36-1.2.7-2.32,1.05-3.36.33-1.04.6-1.77.78-2.2.07-.18.22-.4.46-.67h0c.24-.27.48-.54.73-.8.25-.27.48-.52.67-.73.19-.22.3-.39.3-.49,0-.25-.19-.37-.6-.37-.28,0-.67.03-1.14.1-.48.07-.9.1-1.3.1-.58,0-1.15-.06-1.71-.16-.57-.1-1.09-.16-1.6-.16-.54,0-.81.19-.81.59.07.51.13.89.19,1.16.04.27.07.46.07.56s-.07.58-.24,1.43c-.16.85-.39,1.86-.67,3.06-.28,1.19-.63,2.47-1.05,3.84-.42,1.37-.87,2.62-1.38,3.76s-1.05,2.1-1.65,2.87c-.6.77-1.23,1.16-1.87,1.16-1.36,0-2.05-.94-2.05-2.79,0-.56.06-1.34.16-2.3.1-.97.22-1.98.34-3.03.13-1.06.25-2.08.36-3.06.1-.98.16-1.8.16-2.44,0-3.23-.73-4.83-2.17-4.83-1.03.15-1.81.25-2.32.33-.49.07-.9.1-1.18.1l-3.96-.37c-1.05,0-1.57.24-1.57.7,0,.28.33.64.97,1.07.87.56,1.5,1.2,1.92,1.9.4.7.72,1.5.91,2.39.19.89.31,1.89.37,3,.06,1.1.15,2.33.3,3.7.28,2.79,1.06,4.85,2.35,6.15,1.27,1.31,3.22,1.96,5.82,1.96l.06.06c-.79,2.84-5.25,11.33-9.98,13.01-.82.3-1.24.58-1.24.86,0,.18.12.36.37.54.25.18.52.27.81.27s.54-.01.83-.03Z"/>
</svg>