<?xml version="1.0" encoding="UTF-8"?> <svg xmlns="http://www.w3.org/2000/svg" width="100" height="100" viewBox="0 0 100 100" fill="none"><rect x="40.187" y="15.491" width="4.47286" height="4.47286" transform="rotate(163.854 40.187 15.491)" fill="#E6582A"></rect><rect x="15.7661" y="59.813" width="4.47286" height="4.47286" transform="rotate(163.854 15.7661 59.813)" fill="#E6582A"></rect><rect x="50.1377" y="49.8623" width="4.47286" height="4.47286" transform="rotate(163.854 50.1377 49.8623)" fill="#E6582A"></rect><rect x="48.7798" y="13.0034" width="4.47286" height="4.47286" transform="rotate(163.854 48.7798 13.0034)" fill="#E6582A"></rect><rect x="24.3591" y="57.3257" width="4.47286" height="4.47286" transform="rotate(163.854 24.3591 57.3257)" fill="#E6582A"></rect><rect x="58.7305" y="47.3745" width="4.47286" height="4.47286" transform="rotate(163.854 58.7305 47.3745)" fill="#E6582A"></rect><rect x="32.9519" y="54.8379" width="4.47286" height="4.47286" transform="rotate(163.854 32.9519 54.8379)" fill="#E6582A"></rect><rect x="67.3235" y="44.8872" width="4.47286" height="4.47286" transform="rotate(163.854 67.3235 44.8872)" fill="#E6582A"></rect><rect x="31.594" y="17.9788" width="4.47286" height="4.47286" transform="rotate(163.854 31.594 17.9788)" fill="#E6582A"></rect><rect x="41.5447" y="52.3501" width="4.47286" height="4.47286" transform="rotate(163.854 41.5447 52.3501)" fill="#E6582A"></rect><rect x="75.9163" y="42.3994" width="4.47286" height="4.47286" transform="rotate(163.854 75.9163 42.3994)" fill="#E6582A"></rect><rect x="84.509" y="39.9116" width="4.47286" height="4.47286" transform="rotate(163.854 84.509 39.9116)" fill="#E6582A"></rect><rect x="41.4307" y="19.7876" width="4.47286" height="4.47286" transform="rotate(163.854 41.4307 19.7876)" fill="#E6582A"></rect><rect x="17.01" y="64.1099" width="4.47286" height="4.47286" transform="rotate(163.854 17.01 64.1099)" fill="#E6582A"></rect><rect x="51.3816" y="54.1587" width="4.47286" height="4.47286" transform="rotate(163.854 51.3816 54.1587)" fill="#E6582A"></rect><rect x="50.0237" y="17.2998" width="4.47286" height="4.47286" transform="rotate(163.854 50.0237 17.2998)" fill="#E6582A"></rect><rect x="25.603" y="61.6221" width="4.47286" height="4.47286" transform="rotate(163.854 25.603 61.6221)" fill="#E6582A"></rect><rect x="59.9744" y="51.6714" width="4.47286" height="4.47286" transform="rotate(163.854 59.9744 51.6714)" fill="#E6582A"></rect><rect x="24.2451" y="24.7629" width="4.47286" height="4.47286" transform="rotate(163.854 24.2451 24.7629)" fill="#E6582A"></rect><rect x="58.6165" y="14.812" width="4.47286" height="4.47286" transform="rotate(163.854 58.6165 14.812)" fill="#E6582A"></rect><rect x="34.1958" y="59.1343" width="4.47286" height="4.47286" transform="rotate(163.854 34.1958 59.1343)" fill="#E6582A"></rect><rect x="68.5671" y="49.1836" width="4.47286" height="4.47286" transform="rotate(163.854 68.5671 49.1836)" fill="#E6582A"></rect><rect x="32.8379" y="22.2751" width="4.47286" height="4.47286" transform="rotate(163.854 32.8379 22.2751)" fill="#E6582A"></rect><rect x="42.7886" y="56.6465" width="4.47286" height="4.47286" transform="rotate(163.854 42.7886 56.6465)" fill="#E6582A"></rect><rect x="77.1602" y="46.6958" width="4.47286" height="4.47286" transform="rotate(163.854 77.1602 46.6958)" fill="#E6582A"></rect><rect x="85.7529" y="44.208" width="4.47286" height="4.47286" transform="rotate(163.854 85.7529 44.208)" fill="#E6582A"></rect><rect x="42.6746" y="24.0837" width="4.47286" height="4.47286" transform="rotate(163.854 42.6746 24.0837)" fill="#E6582A"></rect><rect x="18.2539" y="68.4062" width="4.47286" height="4.47286" transform="rotate(163.854 18.2539 68.4062)" fill="#E6582A"></rect><rect x="52.6255" y="58.4556" width="4.47286" height="4.47286" transform="rotate(163.854 52.6255 58.4556)" fill="#E6582A"></rect><rect x="16.896" y="31.5469" width="4.47286" height="4.47286" transform="rotate(163.854 16.896 31.5469)" fill="#E6582A"></rect><rect x="51.2673" y="21.5962" width="4.47286" height="4.47286" transform="rotate(163.854 51.2673 21.5962)" fill="#E6582A"></rect><rect x="26.8467" y="65.9185" width="4.47286" height="4.47286" transform="rotate(163.854 26.8467 65.9185)" fill="#E6582A"></rect><rect x="61.2183" y="55.9678" width="4.47286" height="4.47286" transform="rotate(163.854 61.2183 55.9678)" fill="#E6582A"></rect><rect x="25.4888" y="29.0591" width="4.47286" height="4.47286" transform="rotate(163.854 25.4888 29.0591)" fill="#E6582A"></rect><rect x="59.8604" y="19.1084" width="4.47286" height="4.47286" transform="rotate(163.854 59.8604 19.1084)" fill="#E6582A"></rect><rect x="35.4397" y="63.4307" width="4.47286" height="4.47286" transform="rotate(163.854 35.4397 63.4307)" fill="#E6582A"></rect><rect x="69.811" y="53.48" width="4.47286" height="4.47286" transform="rotate(163.854 69.811 53.48)" fill="#E6582A"></rect><rect x="34.0818" y="26.5713" width="4.47286" height="4.47286" transform="rotate(163.854 34.0818 26.5713)" fill="#E6582A"></rect><rect x="68.4531" y="16.6206" width="4.47286" height="4.47286" transform="rotate(163.854 68.4531 16.6206)" fill="#E6582A"></rect><rect x="44.0325" y="60.9429" width="4.47286" height="4.47286" transform="rotate(163.854 44.0325 60.9429)" fill="#E6582A"></rect><rect x="78.4041" y="50.9922" width="4.47286" height="4.47286" transform="rotate(163.854 78.4041 50.9922)" fill="#E6582A"></rect><rect x="86.9968" y="48.5044" width="4.47286" height="4.47286" transform="rotate(163.854 86.9968 48.5044)" fill="#E6582A"></rect><rect x="43.9185" y="28.3804" width="4.47286" height="4.47286" transform="rotate(163.854 43.9185 28.3804)" fill="#E6582A"></rect><rect x="19.4978" y="72.7026" width="4.47286" height="4.47286" transform="rotate(163.854 19.4978 72.7026)" fill="#E6582A"></rect><rect x="53.8691" y="62.7515" width="4.47286" height="4.47286" transform="rotate(163.854 53.8691 62.7515)" fill="#E6582A"></rect><rect x="46.4062" y="36.9731" width="4.47286" height="4.47286" transform="rotate(163.854 46.4062 36.9731)" fill="#E6582A"></rect><rect x="56.3569" y="71.3447" width="4.47286" height="4.47286" transform="rotate(163.854 56.3569 71.3447)" fill="#E6582A"></rect><rect x="18.1399" y="35.8433" width="4.47286" height="4.47286" transform="rotate(163.854 18.1399 35.8433)" fill="#E6582A"></rect><rect x="52.5112" y="25.8926" width="4.47286" height="4.47286" transform="rotate(163.854 52.5112 25.8926)" fill="#E6582A"></rect><rect x="28.0906" y="70.2148" width="4.47286" height="4.47286" transform="rotate(163.854 28.0906 70.2148)" fill="#E6582A"></rect><rect x="62.4619" y="60.2642" width="4.47286" height="4.47286" transform="rotate(163.854 62.4619 60.2642)" fill="#E6582A"></rect><rect x="20.6274" y="44.436" width="4.47286" height="4.47286" transform="rotate(163.854 20.6274 44.436)" fill="#E6582A"></rect><rect x="54.999" y="34.4854" width="4.47286" height="4.47286" transform="rotate(163.854 54.999 34.4854)" fill="#E6582A"></rect><rect x="30.5784" y="78.8076" width="4.47286" height="4.47286" transform="rotate(163.854 30.5784 78.8076)" fill="#E6582A"></rect><rect x="64.9497" y="68.8569" width="4.47286" height="4.47286" transform="rotate(163.854 64.9497 68.8569)" fill="#E6582A"></rect><rect x="26.7327" y="33.3555" width="4.47286" height="4.47286" transform="rotate(163.854 26.7327 33.3555)" fill="#E6582A"></rect><rect x="61.1042" y="23.4048" width="4.47286" height="4.47286" transform="rotate(163.854 61.1042 23.4048)" fill="#E6582A"></rect><rect x="36.6833" y="67.7271" width="4.47286" height="4.47286" transform="rotate(163.854 36.6833 67.7271)" fill="#E6582A"></rect><rect x="71.0549" y="57.7764" width="4.47286" height="4.47286" transform="rotate(163.854 71.0549 57.7764)" fill="#E6582A"></rect><rect x="29.2205" y="41.9487" width="4.47286" height="4.47286" transform="rotate(163.854 29.2205 41.9487)" fill="#E6582A"></rect><rect x="63.5918" y="31.9976" width="4.47286" height="4.47286" transform="rotate(163.854 63.5918 31.9976)" fill="#E6582A"></rect><rect x="39.1711" y="76.3198" width="4.47286" height="4.47286" transform="rotate(163.854 39.1711 76.3198)" fill="#E6582A"></rect><rect x="73.5427" y="66.3691" width="4.47286" height="4.47286" transform="rotate(163.854 73.5427 66.3691)" fill="#E6582A"></rect><rect x="35.3257" y="30.8677" width="4.47286" height="4.47286" transform="rotate(163.854 35.3257 30.8677)" fill="#E6582A"></rect><rect x="69.697" y="20.917" width="4.47286" height="4.47286" transform="rotate(163.854 69.697 20.917)" fill="#E6582A"></rect><rect x="45.2764" y="65.2393" width="4.47286" height="4.47286" transform="rotate(163.854 45.2764 65.2393)" fill="#E6582A"></rect><rect x="79.6477" y="55.2886" width="4.47286" height="4.47286" transform="rotate(163.854 79.6477 55.2886)" fill="#E6582A"></rect><rect x="88.2407" y="52.8008" width="4.47286" height="4.47286" transform="rotate(163.854 88.2407 52.8008)" fill="#E6582A"></rect><rect x="37.8132" y="39.4609" width="4.47286" height="4.47286" transform="rotate(163.854 37.8132 39.4609)" fill="#E6582A"></rect><rect x="72.1848" y="29.5103" width="4.47286" height="4.47286" transform="rotate(163.854 72.1848 29.5103)" fill="#E6582A"></rect><rect x="80.7776" y="27.0225" width="4.47286" height="4.47286" transform="rotate(163.854 80.7776 27.0225)" fill="#E6582A"></rect><rect x="47.7642" y="73.832" width="4.47286" height="4.47286" transform="rotate(163.854 47.7642 73.832)" fill="#E6582A"></rect><rect x="82.1355" y="63.8813" width="4.47286" height="4.47286" transform="rotate(163.854 82.1355 63.8813)" fill="#E6582A"></rect><rect x="90.7283" y="61.394" width="4.47286" height="4.47286" transform="rotate(163.854 90.7283 61.394)" fill="#E6582A"></rect><rect x="45.1624" y="32.6768" width="4.47286" height="4.47286" transform="rotate(163.854 45.1624 32.6768)" fill="#E6582A"></rect><rect x="55.113" y="67.0483" width="4.47286" height="4.47286" transform="rotate(163.854 55.113 67.0483)" fill="#E6582A"></rect><rect x="13.2786" y="51.2202" width="4.47286" height="4.47286" transform="rotate(163.854 13.2786 51.2202)" fill="#E6582A"></rect><rect x="47.6499" y="41.2695" width="4.47286" height="4.47286" transform="rotate(163.854 47.6499 41.2695)" fill="#E6582A"></rect><rect x="57.6008" y="75.6411" width="4.47286" height="4.47286" transform="rotate(163.854 57.6008 75.6411)" fill="#E6582A"></rect><rect x="60.0884" y="84.2339" width="4.47286" height="4.47286" transform="rotate(163.854 60.0884 84.2339)" fill="#E6582A"></rect><rect x="14.5225" y="55.5166" width="4.47286" height="4.47286" transform="rotate(163.854 14.5225 55.5166)" fill="#E6582A"></rect><rect x="48.8938" y="45.5659" width="4.47286" height="4.47286" transform="rotate(163.854 48.8938 45.5659)" fill="#E6582A"></rect><rect x="58.8445" y="79.9375" width="4.47286" height="4.47286" transform="rotate(163.854 58.8445 79.9375)" fill="#E6582A"></rect><rect x="61.3323" y="88.5303" width="4.47286" height="4.47286" transform="rotate(163.854 61.3323 88.5303)" fill="#E6582A"></rect><rect x="19.3838" y="40.1396" width="4.47286" height="4.47286" transform="rotate(163.854 19.3838 40.1396)" fill="#E6582A"></rect><rect x="53.7551" y="30.189" width="4.47286" height="4.47286" transform="rotate(163.854 53.7551 30.189)" fill="#E6582A"></rect><rect x="29.3345" y="74.5112" width="4.47286" height="4.47286" transform="rotate(163.854 29.3345 74.5112)" fill="#E6582A"></rect><rect x="63.7058" y="64.5605" width="4.47286" height="4.47286" transform="rotate(163.854 63.7058 64.5605)" fill="#E6582A"></rect><rect x="21.8713" y="48.7324" width="4.47286" height="4.47286" transform="rotate(163.854 21.8713 48.7324)" fill="#E6582A"></rect><rect x="56.2427" y="38.7817" width="4.47286" height="4.47286" transform="rotate(163.854 56.2427 38.7817)" fill="#E6582A"></rect><rect x="31.8223" y="83.104" width="4.47286" height="4.47286" transform="rotate(163.854 31.8223 83.104)" fill="#E6582A"></rect><rect x="66.1936" y="73.1533" width="4.47286" height="4.47286" transform="rotate(163.854 66.1936 73.1533)" fill="#E6582A"></rect><rect x="68.6812" y="81.7461" width="4.47286" height="4.47286" transform="rotate(163.854 68.6812 81.7461)" fill="#E6582A"></rect><rect x="23.1152" y="53.0288" width="4.47286" height="4.47286" transform="rotate(163.854 23.1152 53.0288)" fill="#E6582A"></rect><rect x="57.4866" y="43.0781" width="4.47286" height="4.47286" transform="rotate(163.854 57.4866 43.0781)" fill="#E6582A"></rect><rect x="33.0659" y="87.4004" width="4.47286" height="4.47286" transform="rotate(163.854 33.0659 87.4004)" fill="#E6582A"></rect><rect x="67.4375" y="77.4497" width="4.47286" height="4.47286" transform="rotate(163.854 67.4375 77.4497)" fill="#E6582A"></rect><rect x="69.925" y="86.0425" width="4.47286" height="4.47286" transform="rotate(163.854 69.925 86.0425)" fill="#E6582A"></rect><rect x="27.9766" y="37.6523" width="4.47286" height="4.47286" transform="rotate(163.854 27.9766 37.6523)" fill="#E6582A"></rect><rect x="62.3479" y="27.7012" width="4.47286" height="4.47286" transform="rotate(163.854 62.3479 27.7012)" fill="#E6582A"></rect><rect x="37.9272" y="72.0234" width="4.47286" height="4.47286" transform="rotate(163.854 37.9272 72.0234)" fill="#E6582A"></rect><rect x="72.2988" y="62.0728" width="4.47286" height="4.47286" transform="rotate(163.854 72.2988 62.0728)" fill="#E6582A"></rect><rect x="30.4641" y="46.2451" width="4.47286" height="4.47286" transform="rotate(163.854 30.4641 46.2451)" fill="#E6582A"></rect><rect x="64.8357" y="36.2939" width="4.47286" height="4.47286" transform="rotate(163.854 64.8357 36.2939)" fill="#E6582A"></rect><rect x="40.415" y="80.6167" width="4.47286" height="4.47286" transform="rotate(163.854 40.415 80.6167)" fill="#E6582A"></rect><rect x="42.9026" y="89.209" width="4.47286" height="4.47286" transform="rotate(163.854 42.9026 89.209)" fill="#E6582A"></rect><rect x="74.7864" y="70.6655" width="4.47286" height="4.47286" transform="rotate(163.854 74.7864 70.6655)" fill="#E6582A"></rect><rect x="77.2742" y="79.2583" width="4.47286" height="4.47286" transform="rotate(163.854 77.2742 79.2583)" fill="#E6582A"></rect><rect x="31.708" y="50.5415" width="4.47286" height="4.47286" transform="rotate(163.854 31.708 50.5415)" fill="#E6582A"></rect><rect x="66.0796" y="40.5908" width="4.47286" height="4.47286" transform="rotate(163.854 66.0796 40.5908)" fill="#E6582A"></rect><rect x="41.6589" y="84.9126" width="4.47286" height="4.47286" transform="rotate(163.854 41.6589 84.9126)" fill="#E6582A"></rect><rect x="76.0303" y="74.9619" width="4.47286" height="4.47286" transform="rotate(163.854 76.0303 74.9619)" fill="#E6582A"></rect><rect x="36.5693" y="35.1646" width="4.47286" height="4.47286" transform="rotate(163.854 36.5693 35.1646)" fill="#E6582A"></rect><rect x="70.9409" y="25.2136" width="4.47286" height="4.47286" transform="rotate(163.854 70.9409 25.2136)" fill="#E6582A"></rect><rect x="79.5337" y="22.7258" width="4.47286" height="4.47286" transform="rotate(163.854 79.5337 22.7258)" fill="#E6582A"></rect><rect x="46.5203" y="69.5356" width="4.47286" height="4.47286" transform="rotate(163.854 46.5203 69.5356)" fill="#E6582A"></rect><rect x="80.8916" y="59.585" width="4.47286" height="4.47286" transform="rotate(163.854 80.8916 59.585)" fill="#E6582A"></rect><rect x="89.4844" y="57.0972" width="4.47286" height="4.47286" transform="rotate(163.854 89.4844 57.0972)" fill="#E6582A"></rect><rect x="39.0571" y="43.7573" width="4.47286" height="4.47286" transform="rotate(163.854 39.0571 43.7573)" fill="#E6582A"></rect><rect x="73.4285" y="33.8062" width="4.47286" height="4.47286" transform="rotate(163.854 73.4285 33.8062)" fill="#E6582A"></rect><rect x="82.0215" y="31.3188" width="4.47286" height="4.47286" transform="rotate(163.854 82.0215 31.3188)" fill="#E6582A"></rect><rect x="49.0078" y="78.1289" width="4.47286" height="4.47286" transform="rotate(163.854 49.0078 78.1289)" fill="#E6582A"></rect><rect x="51.4956" y="86.7217" width="4.47286" height="4.47286" transform="rotate(163.854 51.4956 86.7217)" fill="#E6582A"></rect><rect x="83.3794" y="68.1782" width="4.47286" height="4.47286" transform="rotate(163.854 83.3794 68.1782)" fill="#E6582A"></rect><rect x="40.301" y="48.0537" width="4.47286" height="4.47286" transform="rotate(163.854 40.301 48.0537)" fill="#E6582A"></rect><rect x="74.6724" y="38.103" width="4.47286" height="4.47286" transform="rotate(163.854 74.6724 38.103)" fill="#E6582A"></rect><rect x="83.2651" y="35.6152" width="4.47286" height="4.47286" transform="rotate(163.854 83.2651 35.6152)" fill="#E6582A"></rect><rect x="50.2517" y="82.4253" width="4.47286" height="4.47286" transform="rotate(163.854 50.2517 82.4253)" fill="#E6582A"></rect><rect x="52.7395" y="91.0181" width="4.47286" height="4.47286" transform="rotate(163.854 52.7395 91.0181)" fill="#E6582A"></rect><rect x="84.623" y="72.4741" width="4.47286" height="4.47286" transform="rotate(163.854 84.623 72.4741)" fill="#E6582A"></rect><rect x="44.4834" y="14.2473" width="4.47286" height="4.47286" transform="rotate(163.854 44.4834 14.2473)" fill="#E6582A"></rect><rect x="20.0627" y="58.5693" width="4.47286" height="4.47286" transform="rotate(163.854 20.0627 58.5693)" fill="#E6582A"></rect><rect x="54.4341" y="48.6187" width="4.47286" height="4.47286" transform="rotate(163.854 54.4341 48.6187)" fill="#E6582A"></rect><rect x="53.0762" y="11.7595" width="4.47286" height="4.47286" transform="rotate(163.854 53.0762 11.7595)" fill="#E6582A"></rect><rect x="28.6555" y="56.0815" width="4.47286" height="4.47286" transform="rotate(163.854 28.6555 56.0815)" fill="#E6582A"></rect><rect x="63.0269" y="46.1309" width="4.47286" height="4.47286" transform="rotate(163.854 63.0269 46.1309)" fill="#E6582A"></rect><rect x="37.2483" y="53.5938" width="4.47286" height="4.47286" transform="rotate(163.854 37.2483 53.5938)" fill="#E6582A"></rect><rect x="71.6199" y="43.6431" width="4.47286" height="4.47286" transform="rotate(163.854 71.6199 43.6431)" fill="#E6582A"></rect><rect x="35.8904" y="16.7349" width="4.47286" height="4.47286" transform="rotate(163.854 35.8904 16.7349)" fill="#E6582A"></rect><rect x="45.8413" y="51.1064" width="4.47286" height="4.47286" transform="rotate(163.854 45.8413 51.1064)" fill="#E6582A"></rect><rect x="80.2126" y="41.1553" width="4.47286" height="4.47286" transform="rotate(163.854 80.2126 41.1553)" fill="#E6582A"></rect><rect x="88.8054" y="38.668" width="4.47286" height="4.47286" transform="rotate(163.854 88.8054 38.668)" fill="#E6582A"></rect><rect x="45.7271" y="18.5437" width="4.47286" height="4.47286" transform="rotate(163.854 45.7271 18.5437)" fill="#E6582A"></rect><rect x="21.3064" y="62.8657" width="4.47286" height="4.47286" transform="rotate(163.854 21.3064 62.8657)" fill="#E6582A"></rect><rect x="55.678" y="52.915" width="4.47286" height="4.47286" transform="rotate(163.854 55.678 52.915)" fill="#E6582A"></rect><rect x="54.3201" y="16.0559" width="4.47286" height="4.47286" transform="rotate(163.854 54.3201 16.0559)" fill="#E6582A"></rect><rect x="29.8994" y="60.3779" width="4.47286" height="4.47286" transform="rotate(163.854 29.8994 60.3779)" fill="#E6582A"></rect><rect x="64.2708" y="50.4272" width="4.47286" height="4.47286" transform="rotate(163.854 64.2708 50.4272)" fill="#E6582A"></rect><rect x="28.5415" y="23.519" width="4.47286" height="4.47286" transform="rotate(163.854 28.5415 23.519)" fill="#E6582A"></rect><rect x="62.9128" y="13.5684" width="4.47286" height="4.47286" transform="rotate(163.854 62.9128 13.5684)" fill="#E6582A"></rect><rect x="38.4922" y="57.8906" width="4.47286" height="4.47286" transform="rotate(163.854 38.4922 57.8906)" fill="#E6582A"></rect><rect x="72.8638" y="47.9395" width="4.47286" height="4.47286" transform="rotate(163.854 72.8638 47.9395)" fill="#E6582A"></rect><rect x="37.1343" y="21.0312" width="4.47286" height="4.47286" transform="rotate(163.854 37.1343 21.0312)" fill="#E6582A"></rect><rect x="47.0852" y="55.4028" width="4.47286" height="4.47286" transform="rotate(163.854 47.0852 55.4028)" fill="#E6582A"></rect><rect x="81.4565" y="45.4521" width="4.47286" height="4.47286" transform="rotate(163.854 81.4565 45.4521)" fill="#E6582A"></rect><rect x="90.0493" y="42.9644" width="4.47286" height="4.47286" transform="rotate(163.854 90.0493 42.9644)" fill="#E6582A"></rect><rect x="46.9709" y="22.8398" width="4.47286" height="4.47286" transform="rotate(163.854 46.9709 22.8398)" fill="#E6582A"></rect><rect x="22.5503" y="67.1621" width="4.47286" height="4.47286" transform="rotate(163.854 22.5503 67.1621)" fill="#E6582A"></rect><rect x="56.9219" y="57.2114" width="4.47286" height="4.47286" transform="rotate(163.854 56.9219 57.2114)" fill="#E6582A"></rect><rect x="21.1924" y="30.3032" width="4.47286" height="4.47286" transform="rotate(163.854 21.1924 30.3032)" fill="#E6582A"></rect><rect x="55.564" y="20.3523" width="4.47286" height="4.47286" transform="rotate(163.854 55.564 20.3523)" fill="#E6582A"></rect><rect x="31.1433" y="64.6748" width="4.47286" height="4.47286" transform="rotate(163.854 31.1433 64.6748)" fill="#E6582A"></rect><rect x="65.5146" y="54.7236" width="4.47286" height="4.47286" transform="rotate(163.854 65.5146 54.7236)" fill="#E6582A"></rect><rect x="29.7852" y="27.8154" width="4.47286" height="4.47286" transform="rotate(163.854 29.7852 27.8154)" fill="#E6582A"></rect><rect x="64.1567" y="17.8645" width="4.47286" height="4.47286" transform="rotate(163.854 64.1567 17.8645)" fill="#E6582A"></rect><rect x="39.7361" y="62.187" width="4.47286" height="4.47286" transform="rotate(163.854 39.7361 62.187)" fill="#E6582A"></rect><rect x="74.1074" y="52.2363" width="4.47286" height="4.47286" transform="rotate(163.854 74.1074 52.2363)" fill="#E6582A"></rect><rect x="38.3782" y="25.3276" width="4.47286" height="4.47286" transform="rotate(163.854 38.3782 25.3276)" fill="#E6582A"></rect><rect x="72.7495" y="15.377" width="4.47286" height="4.47286" transform="rotate(163.854 72.7495 15.377)" fill="#E6582A"></rect><rect x="48.3289" y="59.6992" width="4.47286" height="4.47286" transform="rotate(163.854 48.3289 59.6992)" fill="#E6582A"></rect><rect x="82.7004" y="49.7485" width="4.47286" height="4.47286" transform="rotate(163.854 82.7004 49.7485)" fill="#E6582A"></rect><rect x="91.2932" y="47.2607" width="4.47286" height="4.47286" transform="rotate(163.854 91.2932 47.2607)" fill="#E6582A"></rect><rect x="48.2148" y="27.1362" width="4.47286" height="4.47286" transform="rotate(163.854 48.2148 27.1362)" fill="#E6582A"></rect><rect x="23.7942" y="71.4585" width="4.47286" height="4.47286" transform="rotate(163.854 23.7942 71.4585)" fill="#E6582A"></rect><rect x="58.1655" y="61.5078" width="4.47286" height="4.47286" transform="rotate(163.854 58.1655 61.5078)" fill="#E6582A"></rect><rect x="16.3311" y="45.6802" width="4.47286" height="4.47286" transform="rotate(163.854 16.3311 45.6802)" fill="#E6582A"></rect><rect x="50.7026" y="35.7295" width="4.47286" height="4.47286" transform="rotate(163.854 50.7026 35.7295)" fill="#E6582A"></rect><rect x="26.282" y="80.0513" width="4.47286" height="4.47286" transform="rotate(163.854 26.282 80.0513)" fill="#E6582A"></rect><rect x="60.6533" y="70.1006" width="4.47286" height="4.47286" transform="rotate(163.854 60.6533 70.1006)" fill="#E6582A"></rect><rect x="22.4363" y="34.5996" width="4.47286" height="4.47286" transform="rotate(163.854 22.4363 34.5996)" fill="#E6582A"></rect><rect x="56.8076" y="24.6487" width="4.47286" height="4.47286" transform="rotate(163.854 56.8076 24.6487)" fill="#E6582A"></rect><rect x="32.387" y="68.9707" width="4.47286" height="4.47286" transform="rotate(163.854 32.387 68.9707)" fill="#E6582A"></rect><rect x="66.7585" y="59.02" width="4.47286" height="4.47286" transform="rotate(163.854 66.7585 59.02)" fill="#E6582A"></rect><rect x="24.9241" y="43.1924" width="4.47286" height="4.47286" transform="rotate(163.854 24.9241 43.1924)" fill="#E6582A"></rect><rect x="59.2954" y="33.2417" width="4.47286" height="4.47286" transform="rotate(163.854 59.2954 33.2417)" fill="#E6582A"></rect><rect x="34.8748" y="77.564" width="4.47286" height="4.47286" transform="rotate(163.854 34.8748 77.564)" fill="#E6582A"></rect><rect x="69.2461" y="67.6128" width="4.47286" height="4.47286" transform="rotate(163.854 69.2461 67.6128)" fill="#E6582A"></rect><rect x="31.0291" y="32.1118" width="4.47286" height="4.47286" transform="rotate(163.854 31.0291 32.1118)" fill="#E6582A"></rect><rect x="65.4006" y="22.1609" width="4.47286" height="4.47286" transform="rotate(163.854 65.4006 22.1609)" fill="#E6582A"></rect><rect x="40.98" y="66.4834" width="4.47286" height="4.47286" transform="rotate(163.854 40.98 66.4834)" fill="#E6582A"></rect><rect x="75.3513" y="56.5322" width="4.47286" height="4.47286" transform="rotate(163.854 75.3513 56.5322)" fill="#E6582A"></rect><rect x="33.5168" y="40.7046" width="4.47286" height="4.47286" transform="rotate(163.854 33.5168 40.7046)" fill="#E6582A"></rect><rect x="67.8882" y="30.7539" width="4.47286" height="4.47286" transform="rotate(163.854 67.8882 30.7539)" fill="#E6582A"></rect><rect x="43.4675" y="75.0762" width="4.47286" height="4.47286" transform="rotate(163.854 43.4675 75.0762)" fill="#E6582A"></rect><rect x="77.8391" y="65.1255" width="4.47286" height="4.47286" transform="rotate(163.854 77.8391 65.1255)" fill="#E6582A"></rect><rect x="39.6221" y="29.624" width="4.47286" height="4.47286" transform="rotate(163.854 39.6221 29.624)" fill="#E6582A"></rect><rect x="73.9934" y="19.6733" width="4.47286" height="4.47286" transform="rotate(163.854 73.9934 19.6733)" fill="#E6582A"></rect><rect x="49.5728" y="63.9956" width="4.47286" height="4.47286" transform="rotate(163.854 49.5728 63.9956)" fill="#E6582A"></rect><rect x="83.9441" y="54.0449" width="4.47286" height="4.47286" transform="rotate(163.854 83.9441 54.0449)" fill="#E6582A"></rect><rect x="92.5371" y="51.5571" width="4.47286" height="4.47286" transform="rotate(163.854 92.5371 51.5571)" fill="#E6582A"></rect><rect x="42.1096" y="38.2168" width="4.47286" height="4.47286" transform="rotate(163.854 42.1096 38.2168)" fill="#E6582A"></rect><rect x="76.4812" y="28.2661" width="4.47286" height="4.47286" transform="rotate(163.854 76.4812 28.2661)" fill="#E6582A"></rect><rect x="52.0605" y="72.5884" width="4.47286" height="4.47286" transform="rotate(163.854 52.0605 72.5884)" fill="#E6582A"></rect><rect x="86.4319" y="62.6377" width="4.47286" height="4.47286" transform="rotate(163.854 86.4319 62.6377)" fill="#E6582A"></rect><rect x="15.0872" y="41.3838" width="4.47286" height="4.47286" transform="rotate(163.854 15.0872 41.3838)" fill="#E6582A"></rect><rect x="49.4587" y="31.4331" width="4.47286" height="4.47286" transform="rotate(163.854 49.4587 31.4331)" fill="#E6582A"></rect><rect x="25.0381" y="75.7549" width="4.47286" height="4.47286" transform="rotate(163.854 25.0381 75.7549)" fill="#E6582A"></rect><rect x="59.4094" y="65.8042" width="4.47286" height="4.47286" transform="rotate(163.854 59.4094 65.8042)" fill="#E6582A"></rect><rect x="17.575" y="49.9766" width="4.47286" height="4.47286" transform="rotate(163.854 17.575 49.9766)" fill="#E6582A"></rect><rect x="51.9463" y="40.0254" width="4.47286" height="4.47286" transform="rotate(163.854 51.9463 40.0254)" fill="#E6582A"></rect><rect x="61.8972" y="74.3975" width="4.47286" height="4.47286" transform="rotate(163.854 61.8972 74.3975)" fill="#E6582A"></rect><rect x="64.3848" y="82.9897" width="4.47286" height="4.47286" transform="rotate(163.854 64.3848 82.9897)" fill="#E6582A"></rect><rect x="18.8188" y="54.2729" width="4.47286" height="4.47286" transform="rotate(163.854 18.8188 54.2729)" fill="#E6582A"></rect><rect x="53.1902" y="44.3223" width="4.47286" height="4.47286" transform="rotate(163.854 53.1902 44.3223)" fill="#E6582A"></rect><rect x="63.1409" y="78.6934" width="4.47286" height="4.47286" transform="rotate(163.854 63.1409 78.6934)" fill="#E6582A"></rect><rect x="65.6287" y="87.2866" width="4.47286" height="4.47286" transform="rotate(163.854 65.6287 87.2866)" fill="#E6582A"></rect><rect x="23.6802" y="38.896" width="4.47286" height="4.47286" transform="rotate(163.854 23.6802 38.896)" fill="#E6582A"></rect><rect x="58.0515" y="28.9453" width="4.47286" height="4.47286" transform="rotate(163.854 58.0515 28.9453)" fill="#E6582A"></rect><rect x="33.6309" y="73.2676" width="4.47286" height="4.47286" transform="rotate(163.854 33.6309 73.2676)" fill="#E6582A"></rect><rect x="68.0024" y="63.3164" width="4.47286" height="4.47286" transform="rotate(163.854 68.0024 63.3164)" fill="#E6582A"></rect><rect x="26.1677" y="47.4888" width="4.47286" height="4.47286" transform="rotate(163.854 26.1677 47.4888)" fill="#E6582A"></rect><rect x="60.5393" y="37.5381" width="4.47286" height="4.47286" transform="rotate(163.854 60.5393 37.5381)" fill="#E6582A"></rect><rect x="36.1187" y="81.8604" width="4.47286" height="4.47286" transform="rotate(163.854 36.1187 81.8604)" fill="#E6582A"></rect><rect x="70.49" y="71.9097" width="4.47286" height="4.47286" transform="rotate(163.854 70.49 71.9097)" fill="#E6582A"></rect><rect x="72.9778" y="80.5024" width="4.47286" height="4.47286" transform="rotate(163.854 72.9778 80.5024)" fill="#E6582A"></rect><rect x="27.4116" y="51.7852" width="4.47286" height="4.47286" transform="rotate(163.854 27.4116 51.7852)" fill="#E6582A"></rect><rect x="61.7832" y="41.8345" width="4.47286" height="4.47286" transform="rotate(163.854 61.7832 41.8345)" fill="#E6582A"></rect><rect x="37.3623" y="86.1567" width="4.47286" height="4.47286" transform="rotate(163.854 37.3623 86.1567)" fill="#E6582A"></rect><rect x="71.7339" y="76.2061" width="4.47286" height="4.47286" transform="rotate(163.854 71.7339 76.2061)" fill="#E6582A"></rect><rect x="74.2217" y="84.7988" width="4.47286" height="4.47286" transform="rotate(163.854 74.2217 84.7988)" fill="#E6582A"></rect><rect x="32.2729" y="36.4082" width="4.47286" height="4.47286" transform="rotate(163.854 32.2729 36.4082)" fill="#E6582A"></rect><rect x="66.6445" y="26.4575" width="4.47286" height="4.47286" transform="rotate(163.854 66.6445 26.4575)" fill="#E6582A"></rect><rect x="42.2236" y="70.7798" width="4.47286" height="4.47286" transform="rotate(163.854 42.2236 70.7798)" fill="#E6582A"></rect><rect x="76.5952" y="60.8291" width="4.47286" height="4.47286" transform="rotate(163.854 76.5952 60.8291)" fill="#E6582A"></rect><rect x="34.7607" y="45.001" width="4.47286" height="4.47286" transform="rotate(163.854 34.7607 45.001)" fill="#E6582A"></rect><rect x="69.1321" y="35.0503" width="4.47286" height="4.47286" transform="rotate(163.854 69.1321 35.0503)" fill="#E6582A"></rect><rect x="44.7114" y="79.3726" width="4.47286" height="4.47286" transform="rotate(163.854 44.7114 79.3726)" fill="#E6582A"></rect><rect x="47.1992" y="87.9653" width="4.47286" height="4.47286" transform="rotate(163.854 47.1992 87.9653)" fill="#E6582A"></rect><rect x="79.083" y="69.4219" width="4.47286" height="4.47286" transform="rotate(163.854 79.083 69.4219)" fill="#E6582A"></rect><rect x="81.5706" y="78.0146" width="4.47286" height="4.47286" transform="rotate(163.854 81.5706 78.0146)" fill="#E6582A"></rect><rect x="36.0044" y="49.2974" width="4.47286" height="4.47286" transform="rotate(163.854 36.0044 49.2974)" fill="#E6582A"></rect><rect x="70.376" y="39.3467" width="4.47286" height="4.47286" transform="rotate(163.854 70.376 39.3467)" fill="#E6582A"></rect><rect x="45.9553" y="83.6689" width="4.47286" height="4.47286" transform="rotate(163.854 45.9553 83.6689)" fill="#E6582A"></rect><rect x="80.3267" y="73.7183" width="4.47286" height="4.47286" transform="rotate(163.854 80.3267 73.7183)" fill="#E6582A"></rect><rect x="40.866" y="33.9204" width="4.47286" height="4.47286" transform="rotate(163.854 40.866 33.9204)" fill="#E6582A"></rect><rect x="75.2373" y="23.9697" width="4.47286" height="4.47286" transform="rotate(163.854 75.2373 23.9697)" fill="#E6582A"></rect><rect x="50.8167" y="68.292" width="4.47286" height="4.47286" transform="rotate(163.854 50.8167 68.292)" fill="#E6582A"></rect><rect x="85.188" y="58.3413" width="4.47286" height="4.47286" transform="rotate(163.854 85.188 58.3413)" fill="#E6582A"></rect><rect x="43.3535" y="42.5132" width="4.47286" height="4.47286" transform="rotate(163.854 43.3535 42.5132)" fill="#E6582A"></rect><rect x="77.7249" y="32.5625" width="4.47286" height="4.47286" transform="rotate(163.854 77.7249 32.5625)" fill="#E6582A"></rect><rect x="86.3179" y="30.0747" width="4.47286" height="4.47286" transform="rotate(163.854 86.3179 30.0747)" fill="#E6582A"></rect><rect x="53.3044" y="76.8848" width="4.47286" height="4.47286" transform="rotate(163.854 53.3044 76.8848)" fill="#E6582A"></rect><rect x="55.792" y="85.4775" width="4.47286" height="4.47286" transform="rotate(163.854 55.792 85.4775)" fill="#E6582A"></rect><rect x="87.6758" y="66.9341" width="4.47286" height="4.47286" transform="rotate(163.854 87.6758 66.9341)" fill="#E6582A"></rect><rect x="44.5974" y="46.8096" width="4.47286" height="4.47286" transform="rotate(163.854 44.5974 46.8096)" fill="#E6582A"></rect><rect x="78.9688" y="36.8589" width="4.47286" height="4.47286" transform="rotate(163.854 78.9688 36.8589)" fill="#E6582A"></rect><rect x="87.5618" y="34.3716" width="4.47286" height="4.47286" transform="rotate(163.854 87.5618 34.3716)" fill="#E6582A"></rect><rect x="54.5481" y="81.1812" width="4.47286" height="4.47286" transform="rotate(163.854 54.5481 81.1812)" fill="#E6582A"></rect><rect x="57.0359" y="89.7744" width="4.47286" height="4.47286" transform="rotate(163.854 57.0359 89.7744)" fill="#E6582A"></rect><rect x="88.9197" y="71.2305" width="4.47286" height="4.47286" transform="rotate(163.854 88.9197 71.2305)" fill="#E6582A"></rect><path d="M43.6129 47.5953C44.036 46.8724 43.8245 45.9567 42.3438 45.0892C40.9689 44.318 38.5892 43.0167 38.5892 43.0167L35.8394 41.4263C35.8394 41.4263 35.2048 41.5227 35.0461 41.6191C34.5702 42.0046 34.1471 42.7758 34.0943 43.3541C34.0414 43.7397 34.5702 44.4144 34.8346 44.5108C35.099 44.6554 41.2333 48.0773 41.9207 48.2701C42.6082 48.5111 43.2957 48.1737 43.6129 47.5953Z" fill="white"></path><path d="M40.0161 52.3193C40.7036 52.5121 41.3911 52.2711 41.7612 51.6928C42.2372 50.9698 42.3958 50.2951 41.1267 49.283C39.9633 48.3672 37.5307 46.7768 37.6365 46.8732L34.6222 45.2827C34.6222 45.2827 33.9876 45.3791 33.829 45.4755C33.3002 45.8129 32.8771 46.584 32.7714 47.1624C32.7185 47.5479 33.1415 48.2227 33.4059 48.3672C33.6175 48.4154 39.3287 52.0783 40.0161 52.3193Z" fill="white"></path><path d="M68.6784 53.4275L68.6255 53.2829L68.4669 53.2347C68.414 53.2347 65.717 51.9816 64.8181 51.3068C64.2364 50.8249 63.6018 49.62 63.1258 48.6561C63.073 48.5115 62.9672 48.3669 62.9143 48.2705C61.8567 46.2463 59.7943 43.5473 58.578 42.5834C59.1068 41.8604 60.6404 39.6434 61.5923 38.1976C61.6452 38.1494 61.6452 38.1012 61.698 38.053C62.3326 36.9445 62.2269 36.0287 61.275 35.113C61.8038 34.7757 63.2845 33.7635 62.597 32.7032C61.8567 31.5465 60.5346 32.7032 60.1645 31.8839C60.0058 31.4983 60.6933 30.679 60.376 29.9561C60.1116 29.3777 59.2655 29.0885 58.6838 29.3777C58.1021 29.6187 57.0445 29.3777 57.1502 28.462C57.2031 27.8355 57.1502 26.5824 56.0397 26.486C54.8234 26.3896 54.8234 27.6909 53.8716 27.2571C53.4485 27.0643 52.5495 25.3775 51.4919 25.8594C50.9102 26.1004 50.3285 27.5945 50.0641 28.221C49.1122 27.7873 47.2614 26.9197 46.7326 27.0161C46.3624 27.1125 46.098 27.8836 45.8865 28.7994C45.8336 28.7512 45.7807 28.703 45.6749 28.703C45.622 28.703 44.1414 28.462 43.1366 29.8597C42.4492 30.8236 41.0214 34.9202 40.1224 37.6192C39.3291 37.6674 37.3725 37.812 36.8966 38.1976C36.4207 38.5831 35.839 39.4989 35.7861 40.0772C35.7332 40.4628 36.2091 41.0893 36.4735 41.2339C36.7379 41.3785 42.6607 44.704 43.3481 44.8968C44.0356 45.0896 44.6702 44.7522 45.0404 44.1738C45.4634 43.4509 45.3048 42.5352 43.8241 41.7159C43.5597 41.5713 43.2424 41.3785 42.8722 41.1857C43.2424 40.5592 43.7183 39.788 44.0356 39.4989C44.0885 39.4507 44.1942 39.3061 44.3529 39.1615C45.3576 38.0048 48.4777 34.4865 51.8621 33.7153C55.2465 32.9442 58.5252 33.5708 60.6404 35.354C61.5923 36.1733 61.7509 36.8963 61.0635 37.9084C60.1116 39.3543 58.5251 41.5713 58.0492 42.2942C56.9387 41.9568 54.9821 42.8244 52.5495 43.9329C52.2322 44.0775 51.915 44.222 51.6505 44.3666L50.9631 44.5594C49.8526 44.9932 48.5305 45.3787 47.42 45.7161C46.3624 46.0053 45.8336 46.1981 45.5692 46.2945C45.199 46.4873 44.8288 47.0656 44.8817 47.6921C44.9346 48.3187 45.3048 48.8007 45.9922 49.0898C46.997 49.5236 48.5834 49.9092 50.6987 49.4754C51.2275 49.379 51.6505 49.2826 52.0736 49.1862C52.5495 49.0898 53.1312 48.9452 53.4485 48.897C53.0783 49.5236 52.338 50.7767 51.7563 51.8852C51.2804 52.8491 47.3671 60.4159 46.4682 62.0545C46.3095 62.3437 46.1509 62.7774 45.8865 63.2594C44.3 66.2957 42.2376 69.3803 39.4878 68.6092C37.7427 68.1272 34.0939 66.4403 33.7237 66.103C32.5074 65.1872 31.8728 64.0305 31.7671 62.4883C31.6084 60.705 34.464 56.1746 35.2044 54.3432C35.4688 54.536 37.4783 55.8854 37.7427 55.9818C38.3773 56.2228 39.1176 56.03 39.5407 55.4517C40.0695 54.7769 39.9108 53.9576 38.6946 52.8491C37.6369 51.8852 35.0986 49.8128 35.0986 49.8128L33.4064 48.7525C33.4064 48.7525 32.8776 48.9452 32.6132 49.0898C32.0844 49.379 31.6084 49.9092 31.5027 50.4875C31.3969 50.8731 31.6613 51.4996 31.9786 51.837C32.0315 51.9334 34.1468 53.4756 34.6756 53.8612C33.9881 55.5481 30.9739 60.2713 31.1325 62.4883C31.2383 64.2715 31.6084 65.38 33.1949 66.4403C34.5698 67.4043 38.3244 68.8019 39.4349 69.0911C41.6559 69.7177 43.9298 68.2718 45.1461 66.2957C45.7807 65.2354 46.3624 64.2233 46.7326 63.3558C46.9441 62.8738 47.1556 62.4883 47.2614 62.1991C47.4729 61.7653 47.896 60.9942 48.4248 60.0303C48.7421 60.3195 49.4824 60.8496 51.1746 61.6689C52.3909 62.2473 53.237 62.4883 54.559 62.8256C55.2994 63.0184 56.2512 63.3076 57.4146 63.645C60.0587 64.4643 61.275 65.1872 61.275 65.1872L61.3808 65.2836L61.5394 65.2354C61.6452 65.2354 64.2892 64.6571 67.2506 59.7411C67.3564 59.5483 67.515 59.3073 67.6208 59.1146C69.313 56.2228 68.7313 53.5238 68.6784 53.4275ZM45.5163 33.9081C44.9875 34.1009 44.6173 33.7635 44.3529 34.1491C44.0356 34.5829 44.8817 34.9202 44.6173 35.4022C44.3529 35.836 43.6654 35.4022 43.4539 36.0287C43.2424 36.6071 44.0885 36.7517 43.7183 37.33C43.401 37.8602 42.9251 37.7156 42.7664 38.1012C42.5549 38.5831 42.978 39.0169 43.2424 39.3061C42.9251 39.6916 42.6078 40.27 42.3434 40.7037C42.1319 40.5592 41.8675 40.4628 41.6559 40.3182C41.8675 39.1615 42.2905 36.7517 42.7136 35.6432C42.8193 35.354 42.9251 35.113 42.978 34.9202C43.5597 33.3298 43.8241 32.655 44.8288 32.2695C45.0404 32.1731 45.3576 32.1731 45.622 32.1731C45.5692 32.7032 45.5692 33.2334 45.7278 33.7635C45.5692 33.8599 45.5692 33.8599 45.5163 33.9081ZM45.5692 31.5465C45.2519 31.5465 44.8288 31.5465 44.4587 31.6911C43.1366 32.1731 42.8193 33.0888 42.1847 34.7275C42.079 34.9684 42.0261 35.2094 41.9203 35.4504C41.4973 36.5107 41.0742 38.7277 40.8627 39.9808C40.5983 39.8362 40.3339 39.6916 40.1224 39.5952C41.1271 36.5107 42.978 31.1128 43.6654 30.0525C44.4058 28.9922 45.4105 29.1849 45.4634 29.1849C45.5692 29.1849 45.6749 29.1849 45.7278 29.1367C45.6749 30.1007 45.622 31.0646 45.5692 31.5465ZM51.6505 32.9924C49.9055 33.378 48.2661 34.4383 46.8912 35.595V35.5468H46.9441C47.1027 35.4504 47.1556 35.2576 47.0499 35.113C46.2037 34.0045 46.0451 32.5586 46.5739 31.3056C46.997 30.2934 47.8431 29.5705 48.9536 29.1367C49.641 28.8476 50.4343 28.7994 51.1217 28.8476L53.1312 29.5705C54.136 30.1971 54.8234 31.2092 54.9821 32.3659C54.9821 32.4623 55.035 32.5586 55.1407 32.6068L55.1936 32.7514C54.0302 32.655 52.8668 32.7514 51.6505 32.9924Z" fill="white"></path><path d="M47.0481 32.7515C46.8366 32.7515 46.678 32.8479 46.678 33.0406C46.678 33.2334 46.7837 33.378 46.9953 33.378L48.1587 33.4744C48.3173 33.4744 48.4231 33.4262 48.476 33.3298C48.476 33.2816 48.5288 33.2334 48.5288 33.1852C48.5288 32.9924 48.4231 32.8479 48.2115 32.8479L47.0481 32.7515Z" fill="white"></path><path d="M47.3142 30.9678C47.2084 31.1124 47.2084 31.3052 47.3671 31.4016L48.5833 32.2209C48.742 32.3173 48.9535 32.3173 49.0593 32.1727C49.0593 32.1727 49.0593 32.1245 49.1122 32.1245C49.2179 31.9799 49.165 31.7872 49.0064 31.6908L47.7901 30.8714C47.6315 30.775 47.42 30.8232 47.3142 30.9678Z" fill="white"></path><path d="M50.0615 31.4982C50.1144 31.45 50.1144 31.3536 50.1144 31.3054L49.7971 29.8114C49.7442 29.6186 49.5856 29.5222 49.3741 29.5704C49.1625 29.6186 49.0568 29.7632 49.1097 29.956L49.427 31.45C49.4798 31.6428 49.6385 31.7392 49.85 31.691C49.9558 31.6428 50.0087 31.5464 50.0615 31.4982Z" fill="white"></path><path d="M50.9103 31.7876C51.0689 31.884 51.2805 31.8358 51.3862 31.6912L52.2323 30.4864C52.3381 30.3418 52.2852 30.149 52.1266 30.0526C51.9679 29.9562 51.7564 30.0044 51.6506 30.149L50.8045 31.3539C50.6988 31.4985 50.7517 31.6912 50.9103 31.7876Z" fill="white"></path><path d="M53.0244 31.7398L51.8082 32.0772C51.5966 32.1254 51.4909 32.3182 51.5437 32.4628C51.5966 32.6555 51.8082 32.7519 51.9668 32.7037L53.1831 32.3664C53.2888 32.3182 53.3417 32.27 53.3946 32.2218C53.4475 32.1254 53.4475 32.0772 53.4475 31.9808C53.3946 31.788 53.1831 31.6916 53.0244 31.7398Z" fill="white"></path><path d="M44.2995 61.2831H44.2467L38.747 60.4637C38.5354 60.4155 38.3768 60.2227 38.4297 60.03C38.4826 59.8372 38.6941 59.6926 38.9056 59.7408L44.4053 60.5601C44.6168 60.6083 44.7755 60.8011 44.7226 60.9939C44.6697 61.1867 44.5111 61.2831 44.2995 61.2831Z" fill="white"></path><path d="M42.289 63.4518H42.2361L38.4815 62.9699C38.27 62.9217 38.1113 62.7289 38.1113 62.5361C38.1642 62.3433 38.3229 62.1987 38.5873 62.1987L42.3419 62.6807C42.5534 62.7289 42.712 62.9217 42.712 63.1145C42.6591 63.3554 42.5005 63.4518 42.289 63.4518Z" fill="white"></path><path d="M44.5629 58.4884H44.51L40.7554 58.0065C40.5439 57.9583 40.3853 57.7655 40.3853 57.5727C40.4381 57.3799 40.5968 57.2354 40.8612 57.2354L44.6158 57.7173C44.8273 57.7655 44.9859 57.9583 44.9859 58.1511C44.9331 58.3921 44.7215 58.4884 44.5629 58.4884Z" fill="white"></path></svg> 