<?xml version="1.0" encoding="UTF-8"?> <svg xmlns="http://www.w3.org/2000/svg" xmlns:xlink="http://www.w3.org/1999/xlink" version="1.1" id="Слой_1" x="0px" y="0px" viewBox="0 0 150 150" style="enable-background:new 0 0 150 150;" xml:space="preserve"> <style type="text/css"> .st0{fill:#402020;} .st1{fill:#13A438;} </style> <g> <path class="st0" d="M54.23,71.09L54.23,71.09c-0.37-0.97-0.91-1.83-1.59-2.55c-0.7-0.74-1.54-1.33-2.49-1.75 c-0.99-0.43-2.1-0.66-3.3-0.66c-1.26,0-2.42,0.24-3.45,0.71c-1.01,0.47-1.87,1.1-2.56,1.87c-0.7,0.78-1.24,1.67-1.59,2.64 c-0.36,0.97-0.55,1.98-0.55,2.98c0,1.02,0.18,2.01,0.55,2.95c0.35,0.93,0.87,1.77,1.55,2.51c0.68,0.73,1.5,1.32,2.46,1.75 c0.96,0.44,2.05,0.66,3.26,0.66c1.16,0,2.2-0.2,3.19-0.6c0.99-0.39,1.85-0.94,2.64-1.67c0.74-0.7,1.34-1.56,1.78-2.55 c0.42-1,0.64-2.09,0.64-3.26C54.77,73.08,54.59,72.06,54.23,71.09z M52.67,76.73c-0.26,0.78-0.65,1.5-1.17,2.15 c-0.52,0.66-1.17,1.19-1.95,1.61c-0.78,0.43-1.68,0.66-2.72,0.7c-0.92,0-1.77-0.21-2.55-0.64c-0.79-0.43-1.46-1-2.03-1.69 c-0.58-0.69-1.02-1.45-1.34-2.32c-0.33-0.85-0.48-1.7-0.48-2.55c0-0.79,0.14-1.58,0.41-2.4c0.29-0.81,0.68-1.55,1.22-2.22 c0.53-0.66,1.17-1.2,1.93-1.62c0.75-0.42,1.62-0.64,2.57-0.64c0.99,0,1.88,0.22,2.67,0.66c0.79,0.44,1.48,1.01,2.04,1.71 c0.58,0.7,1.01,1.48,1.32,2.34c0.31,0.86,0.46,1.72,0.46,2.56C53.05,75.17,52.92,75.95,52.67,76.73z"></path> <path class="st1" d="M53.05,74.4c0,0.77-0.12,1.55-0.38,2.34c-0.26,0.78-0.65,1.5-1.17,2.15c-0.52,0.66-1.17,1.19-1.95,1.61 c-0.78,0.43-1.68,0.66-2.72,0.7c-0.92,0-1.77-0.21-2.55-0.64c-0.79-0.43-1.46-1-2.03-1.69c-0.58-0.69-1.02-1.45-1.34-2.32 c-0.33-0.85-0.48-1.7-0.48-2.55c0-0.79,0.14-1.58,0.41-2.4c0.29-0.81,0.68-1.55,1.22-2.22c0.53-0.66,1.17-1.2,1.93-1.62 c0.75-0.42,1.62-0.64,2.57-0.64c0.99,0,1.88,0.22,2.67,0.66c0.79,0.44,1.48,1.01,2.04,1.71c0.58,0.7,1.01,1.48,1.32,2.34 C52.89,72.7,53.05,73.55,53.05,74.4z"></path> <g> <path class="st0" d="M9.21,67.52h0.63v-0.18c0-0.19,0.03-0.39,0.1-0.59c0.06-0.2,0.16-0.38,0.29-0.55 c0.12-0.16,0.28-0.3,0.47-0.41c0.18-0.11,0.4-0.16,0.64-0.16h2.86v14.45c0,0.13-0.02,0.27-0.05,0.42 c-0.03,0.15-0.08,0.29-0.15,0.41c-0.07,0.12-0.15,0.23-0.25,0.33c-0.07,0.07-0.14,0.1-0.24,0.1H13.2v0.63h4.09v-0.63h-0.32 c-0.09,0-0.16-0.03-0.22-0.1c-0.09-0.09-0.17-0.21-0.24-0.33c-0.07-0.12-0.12-0.26-0.15-0.41c-0.03-0.15-0.05-0.29-0.05-0.42 V65.63h2.91c0.24,0,0.46,0.05,0.64,0.16c0.19,0.11,0.34,0.25,0.47,0.41c0.13,0.17,0.22,0.35,0.29,0.55c0.06,0.2,0.1,0.4,0.1,0.59 v0.18h0.63v-3.23H9.21V67.52z"></path> <path class="st0" d="M34.03,74.86c-0.28-0.39-0.64-0.75-1.09-1.05c-0.34-0.23-0.74-0.41-1.21-0.54c0.12-0.08,0.25-0.16,0.38-0.25 c0.29-0.2,0.56-0.45,0.81-0.74c0.25-0.29,0.46-0.62,0.62-0.99c0.16-0.38,0.25-0.8,0.25-1.27c0-1.1-0.43-2-1.28-2.66 c-0.84-0.65-2-0.98-3.47-0.98h-3.97v0.6h0.3c0.08,0,0.15,0.03,0.22,0.08c0.08,0.07,0.15,0.16,0.21,0.27 c0.06,0.12,0.11,0.24,0.13,0.36c0.03,0.13,0.04,0.24,0.04,0.33v12.28c0,0.11-0.01,0.23-0.04,0.37c-0.03,0.13-0.07,0.24-0.13,0.35 c-0.06,0.11-0.13,0.2-0.21,0.28c-0.06,0.06-0.11,0.08-0.17,0.08h-0.3v0.6h4.3c0.67,0,1.33-0.08,1.97-0.24 c0.64-0.16,1.22-0.42,1.72-0.78c0.5-0.36,0.91-0.83,1.22-1.4c0.3-0.57,0.46-1.28,0.46-2.11c0-0.43-0.06-0.87-0.16-1.31 C34.51,75.69,34.31,75.26,34.03,74.86z M27.88,74.05h1.11c1.18,0,2.09,0.31,2.73,0.92c0.64,0.61,1.02,1.5,1.14,2.63v0.24 c0,0.95-0.33,1.67-1,2.21c-0.68,0.53-1.63,0.81-2.83,0.81h-1.15V74.05z M30.4,72.7c-0.38,0.16-0.89,0.24-1.51,0.24h-1.01v-5.47 h0.97c0.92,0,1.65,0.25,2.19,0.74c0.54,0.49,0.83,1.16,0.87,2v0.16c0,0.29-0.04,0.59-0.13,0.9c-0.08,0.3-0.24,0.57-0.47,0.82 C31.09,72.34,30.79,72.55,30.4,72.7z"></path> <path class="st0" d="M63.36,65.3c0.24,0.24,0.54,0.45,0.87,0.6c0.34,0.16,0.71,0.24,1.1,0.24c0.41,0,0.79-0.08,1.13-0.25 c0.33-0.16,0.62-0.38,0.86-0.64c0.23-0.26,0.42-0.54,0.55-0.83c0.13-0.3,0.2-0.6,0.2-0.88v-0.18h-0.45l-0.04,0.12 c-0.03,0.09-0.08,0.21-0.16,0.38c-0.07,0.15-0.18,0.3-0.35,0.45c-0.17,0.15-0.39,0.29-0.67,0.4c-0.27,0.11-0.64,0.17-1.09,0.17 c-0.44,0-0.8-0.06-1.09-0.17c-0.28-0.11-0.51-0.25-0.68-0.4c-0.17-0.15-0.29-0.31-0.36-0.45c-0.09-0.19-0.12-0.29-0.13-0.34 l-0.03-0.15h-0.48v0.18c0,0.3,0.08,0.62,0.22,0.93C62.92,64.77,63.12,65.06,63.36,65.3z"></path> <path class="st0" d="M70.93,67.66c0.03-0.13,0.08-0.25,0.14-0.36c0.05-0.1,0.11-0.19,0.19-0.26c0.06-0.05,0.12-0.08,0.2-0.08h0.3 v-0.6h-3.65v0.6h0.3c0.08,0,0.14,0.02,0.2,0.08c0.08,0.07,0.15,0.16,0.21,0.27c0.06,0.11,0.1,0.22,0.13,0.34 c0.03,0.12,0.04,0.24,0.04,0.33v0.24l-7.29,9.86v-10.1c0-0.1,0.01-0.2,0.04-0.32c0.03-0.12,0.07-0.23,0.12-0.32 c0.05-0.1,0.12-0.19,0.19-0.27c0.05-0.06,0.11-0.09,0.15-0.1h0.37v-0.6h-3.65v0.6h0.3c0.08,0,0.14,0.02,0.2,0.08 c0.08,0.07,0.15,0.16,0.21,0.27c0.06,0.1,0.1,0.22,0.13,0.34c0.03,0.12,0.04,0.24,0.04,0.33v12.3c0,0.11-0.01,0.23-0.04,0.36 c-0.03,0.13-0.07,0.25-0.13,0.37c-0.06,0.11-0.13,0.2-0.2,0.27c-0.06,0.05-0.12,0.08-0.2,0.08h-0.3v0.6h3.65v-0.6h-0.3 c-0.07,0-0.13-0.03-0.19-0.08c-0.08-0.08-0.15-0.17-0.2-0.28c-0.06-0.11-0.1-0.24-0.14-0.37c-0.03-0.13-0.05-0.25-0.05-0.36v-0.15 l7.29-9.86v10.01c0,0.11-0.01,0.23-0.04,0.37c-0.03,0.13-0.07,0.25-0.13,0.37c-0.06,0.11-0.13,0.2-0.2,0.27 c-0.06,0.05-0.12,0.08-0.2,0.08h-0.3v0.6h3.65v-0.6h-0.3c-0.07,0-0.13-0.03-0.19-0.08c-0.08-0.08-0.14-0.17-0.19-0.28 c-0.06-0.12-0.1-0.25-0.14-0.37c-0.03-0.12-0.05-0.23-0.05-0.34v-12.3C70.88,67.89,70.89,67.78,70.93,67.66z"></path> </g> <path class="st1" d="M78.62,79.95c-0.16,0.45-0.4,0.87-0.73,1.26s-0.82,0.58-1.47,0.58h-0.81v-0.26c0.1,0,0.24-0.03,0.42-0.09 c0.17-0.06,0.36-0.16,0.55-0.3c0.19-0.14,0.38-0.32,0.58-0.54c0.19-0.22,0.36-0.49,0.5-0.83l4.95-13.59 c0.09-0.26,0.13-0.46,0.13-0.6c0-0.26-0.07-0.47-0.22-0.62c-0.15-0.15-0.3-0.22-0.46-0.22v-0.26h2.15l5.87,16.05 c0.09,0.24,0.25,0.47,0.5,0.67c0.24,0.2,0.52,0.31,0.81,0.33v0.26h-3.75v-0.26c0.14,0,0.28-0.06,0.43-0.17 c0.15-0.11,0.22-0.27,0.22-0.46c0-0.05-0.02-0.13-0.05-0.24l-4.93-13.59L78.62,79.95z"></path> <path class="st1" d="M104.83,81.56h0.12c0.37,0,0.55-0.17,0.55-0.51c0-0.12-0.02-0.25-0.07-0.39l-2.08-5.61h-4.04l-2.01,5.52 c-0.05,0.12-0.07,0.24-0.07,0.35c0,0.2,0.05,0.36,0.16,0.47c0.11,0.11,0.22,0.17,0.35,0.17h0.12v0.23H95.3v-0.23h0.12 c0.2,0,0.4-0.12,0.59-0.36c0.19-0.24,0.35-0.52,0.47-0.84l5.28-14.08l5.17,13.94c0.11,0.31,0.26,0.61,0.45,0.9 c0.19,0.29,0.44,0.44,0.75,0.44h0.12v0.23h-3.41V81.56z M99.55,74.26h3.55l-1.78-4.82L99.55,74.26z"></path> <path class="st1" d="M121.3,81.56h0.12c0.12,0,0.23-0.04,0.32-0.13c0.09-0.09,0.17-0.19,0.24-0.32c0.07-0.13,0.12-0.27,0.15-0.41 c0.03-0.15,0.05-0.28,0.05-0.4V69.71l-7.66,10.36v0.21c0,0.12,0.02,0.26,0.06,0.4c0.04,0.15,0.09,0.28,0.15,0.4 c0.06,0.12,0.14,0.23,0.23,0.32c0.09,0.09,0.2,0.14,0.32,0.14h0.12v0.23h-3.28v-0.23h0.11c0.12,0,0.23-0.04,0.32-0.13 c0.09-0.09,0.17-0.19,0.24-0.32c0.07-0.13,0.12-0.27,0.15-0.41c0.03-0.15,0.05-0.28,0.05-0.4v-12.3c0-0.11-0.02-0.23-0.05-0.37 c-0.03-0.14-0.08-0.27-0.15-0.39c-0.07-0.12-0.15-0.23-0.24-0.31c-0.09-0.09-0.2-0.13-0.32-0.13h-0.11v-0.23h3.28v0.23h-0.18 c-0.11,0.02-0.2,0.07-0.29,0.16c-0.08,0.09-0.16,0.2-0.22,0.31c-0.06,0.11-0.11,0.24-0.14,0.37c-0.03,0.13-0.05,0.25-0.05,0.36 v10.66l7.66-10.36v-0.3c0-0.11-0.02-0.23-0.05-0.37c-0.03-0.14-0.08-0.27-0.15-0.39c-0.07-0.12-0.15-0.23-0.24-0.31 c-0.09-0.09-0.2-0.13-0.32-0.13h-0.12v-0.23h3.28v0.23h-0.12c-0.12,0-0.23,0.04-0.32,0.13c-0.09,0.08-0.17,0.19-0.23,0.31 c-0.06,0.12-0.11,0.25-0.15,0.39c-0.04,0.14-0.06,0.26-0.06,0.37v12.3c0,0.12,0.02,0.25,0.06,0.39c0.04,0.14,0.09,0.27,0.15,0.4 c0.06,0.13,0.14,0.24,0.23,0.34c0.09,0.09,0.2,0.14,0.32,0.14h0.12v0.23h-3.28V81.56z M120.9,63.53c0,0.26-0.06,0.53-0.18,0.81 c-0.12,0.28-0.3,0.54-0.52,0.78c-0.22,0.25-0.49,0.45-0.81,0.6c-0.32,0.15-0.66,0.23-1.05,0.23c-0.37,0-0.71-0.07-1.03-0.22 c-0.32-0.15-0.59-0.34-0.82-0.57c-0.23-0.23-0.41-0.49-0.55-0.78c-0.14-0.29-0.21-0.58-0.21-0.85h0.14 c0.02,0.09,0.07,0.22,0.15,0.39c0.08,0.17,0.22,0.34,0.4,0.51c0.19,0.17,0.43,0.32,0.74,0.44c0.31,0.12,0.69,0.18,1.15,0.18 c0.48,0,0.87-0.06,1.16-0.18c0.3-0.12,0.54-0.27,0.73-0.44s0.32-0.34,0.39-0.51c0.08-0.17,0.13-0.3,0.16-0.39H120.9z"></path> <path class="st1" d="M129.25,81.56h0.11c0.12,0,0.23-0.05,0.32-0.14c0.09-0.09,0.17-0.2,0.24-0.32c0.07-0.12,0.12-0.26,0.15-0.4 c0.03-0.15,0.05-0.28,0.05-0.4v-12.3c0-0.11-0.02-0.23-0.05-0.37c-0.03-0.14-0.08-0.27-0.15-0.39c-0.07-0.12-0.15-0.23-0.24-0.31 c-0.09-0.09-0.19-0.13-0.3-0.13h-0.12v-0.23h3.28v0.23h-0.11c-0.12,0-0.23,0.04-0.32,0.13c-0.09,0.08-0.17,0.19-0.24,0.31 c-0.07,0.12-0.12,0.25-0.16,0.39c-0.04,0.14-0.06,0.26-0.06,0.37v4.78l5.35-5.33c0.12-0.12,0.18-0.27,0.18-0.44 c0-0.14-0.06-0.21-0.18-0.21v-0.23h2.49v0.23c-0.31,0.02-0.58,0.11-0.82,0.28s-0.5,0.39-0.77,0.67l-5.47,5.49 c1,0.03,1.81,0.25,2.42,0.64c0.62,0.4,1.1,0.95,1.45,1.66l1.82,3.68c0.11,0.23,0.25,0.48,0.43,0.75c0.18,0.27,0.38,0.52,0.6,0.76 c0.22,0.24,0.47,0.44,0.75,0.6c0.28,0.16,0.57,0.24,0.88,0.24v0.23h-1.15c-0.45,0-0.83-0.07-1.15-0.2 c-0.32-0.13-0.6-0.31-0.84-0.53c-0.24-0.22-0.45-0.47-0.62-0.75c-0.18-0.28-0.33-0.55-0.47-0.83l-1.87-3.72 c-0.29-0.57-0.7-1-1.21-1.3s-1.12-0.47-1.81-0.5v6.32c0,0.12,0.01,0.25,0.05,0.39c0.03,0.14,0.08,0.27,0.14,0.4 s0.14,0.24,0.23,0.32c0.09,0.09,0.19,0.14,0.3,0.15h0.16v0.23h-3.28V81.56z"></path> <g> <path class="st0" d="M23.95,90.26C23.59,90.09,23.2,90,22.77,90c-0.54,0-1.01,0.13-1.43,0.38c-0.41,0.26-0.74,0.6-0.98,1.04 c-0.24,0.44-0.36,0.94-0.36,1.5c0,0.55,0.12,1.05,0.37,1.49c0.25,0.44,0.59,0.79,1.02,1.04c0.43,0.26,0.92,0.38,1.47,0.38 c0.76,0,1.4-0.23,1.91-0.7c0.08-0.07,0.11-0.15,0.1-0.25c-0.01-0.1-0.06-0.18-0.14-0.26c-0.08-0.06-0.16-0.09-0.25-0.08 c-0.09,0.01-0.18,0.05-0.26,0.12c-0.17,0.15-0.38,0.27-0.6,0.34c-0.23,0.07-0.48,0.11-0.75,0.11c-0.41,0-0.77-0.09-1.08-0.28 c-0.31-0.19-0.56-0.45-0.73-0.78c-0.17-0.33-0.26-0.7-0.26-1.12c0-0.43,0.08-0.8,0.25-1.13c0.16-0.33,0.39-0.59,0.69-0.78 c0.3-0.19,0.64-0.28,1.03-0.28c0.61,0,1.12,0.23,1.53,0.69c0.07,0.08,0.15,0.13,0.25,0.15c0.09,0.02,0.18,0,0.26-0.06 c0.1-0.07,0.16-0.15,0.18-0.25c0.02-0.09-0.01-0.18-0.08-0.27C24.63,90.68,24.31,90.42,23.95,90.26z"></path> <path class="st0" d="M34.89,90.29c-0.32-0.2-0.68-0.29-1.1-0.29c-0.43,0-0.82,0.1-1.16,0.29c-0.3,0.17-0.54,0.41-0.73,0.7 c-0.17-0.3-0.39-0.53-0.67-0.7c-0.32-0.2-0.68-0.29-1.1-0.29c-0.41,0-0.77,0.1-1.09,0.29c-0.18,0.11-0.34,0.25-0.48,0.41v-0.23 c0-0.12-0.04-0.22-0.11-0.29c-0.07-0.08-0.17-0.12-0.29-0.12c-0.13,0-0.23,0.04-0.3,0.12c-0.07,0.08-0.11,0.17-0.11,0.29v4.93 c0,0.12,0.04,0.21,0.11,0.29c0.07,0.07,0.17,0.11,0.3,0.11c0.12,0,0.22-0.04,0.29-0.11c0.07-0.07,0.11-0.17,0.11-0.29v-3.11 c0-0.45,0.14-0.82,0.42-1.11c0.28-0.28,0.64-0.42,1.07-0.42c0.41,0,0.74,0.14,1,0.44c0.26,0.29,0.39,0.68,0.39,1.18v3.02 c0,0.12,0.04,0.21,0.12,0.29c0.08,0.07,0.17,0.11,0.29,0.11c0.12,0,0.21-0.04,0.29-0.11c0.07-0.07,0.11-0.17,0.11-0.29v-3.02 c0-0.01,0-0.01,0-0.02h0c-0.01-0.48,0.13-0.87,0.4-1.16c0.28-0.29,0.63-0.44,1.06-0.44c0.41,0,0.74,0.14,1,0.44 c0.26,0.29,0.39,0.68,0.39,1.18v3.02c0,0.12,0.04,0.21,0.12,0.29c0.08,0.07,0.17,0.11,0.29,0.11c0.12,0,0.21-0.04,0.29-0.11 c0.07-0.07,0.11-0.17,0.11-0.29v-3.02c0-0.48-0.09-0.9-0.27-1.26C35.46,90.76,35.21,90.48,34.89,90.29z"></path> <path class="st0" d="M42.92,90.08c-0.1-0.05-0.21-0.05-0.31-0.02c-0.1,0.04-0.17,0.11-0.21,0.22l-1.83,4.22l-2.02-4.23 c-0.05-0.1-0.12-0.17-0.21-0.2c-0.09-0.03-0.19-0.02-0.29,0.03c-0.1,0.05-0.17,0.12-0.21,0.21s-0.03,0.19,0.02,0.29l2.32,4.81 l-0.39,0.91c-0.17,0.4-0.37,0.7-0.58,0.91c-0.21,0.21-0.44,0.32-0.67,0.32c-0.1,0-0.18-0.01-0.26-0.03 c-0.08-0.02-0.15-0.06-0.23-0.1c-0.11-0.06-0.22-0.08-0.32-0.08c-0.1,0-0.19,0.05-0.26,0.14c-0.08,0.1-0.1,0.2-0.07,0.31 c0.03,0.11,0.1,0.2,0.22,0.27c0.15,0.08,0.3,0.15,0.45,0.19c0.15,0.05,0.3,0.06,0.46,0.06c0.4,0,0.77-0.15,1.11-0.46 c0.34-0.31,0.62-0.71,0.84-1.22l2.62-6.02c0.05-0.11,0.06-0.22,0.03-0.31C43.08,90.19,43.01,90.12,42.92,90.08z"></path> <path class="st0" d="M49.52,90.38c-0.44-0.25-0.94-0.37-1.5-0.37c-0.56,0-1.06,0.12-1.5,0.37c-0.44,0.25-0.79,0.59-1.04,1.03 c-0.25,0.44-0.38,0.95-0.38,1.52c0,0.57,0.12,1.07,0.36,1.51c0.24,0.44,0.58,0.79,1,1.03c0.43,0.25,0.92,0.37,1.47,0.37 c0.49,0,0.92-0.11,1.31-0.34c0.38-0.23,0.68-0.54,0.9-0.94v0.48c0,0.46-0.09,0.86-0.28,1.21c-0.18,0.34-0.43,0.61-0.75,0.8 c-0.31,0.19-0.67,0.28-1.06,0.28c-0.42,0-0.79-0.08-1.11-0.23c-0.32-0.15-0.58-0.36-0.78-0.61c-0.06-0.08-0.15-0.14-0.26-0.16 c-0.11-0.02-0.21,0-0.3,0.06c-0.09,0.06-0.14,0.14-0.15,0.24c-0.01,0.1,0.02,0.19,0.1,0.27c0.27,0.36,0.62,0.64,1.04,0.84 c0.42,0.21,0.91,0.31,1.46,0.31c0.56,0,1.06-0.13,1.49-0.39c0.43-0.26,0.78-0.62,1.03-1.07c0.25-0.45,0.38-0.96,0.38-1.53v-2.14 c-0.01-0.57-0.13-1.08-0.38-1.52C50.3,90.97,49.95,90.62,49.52,90.38z M49.86,94.06c-0.18,0.33-0.43,0.59-0.75,0.77 s-0.68,0.28-1.1,0.28c-0.41,0-0.78-0.09-1.1-0.28s-0.57-0.44-0.75-0.77c-0.18-0.33-0.27-0.71-0.27-1.13s0.09-0.81,0.27-1.14 c0.18-0.33,0.43-0.59,0.75-0.78c0.32-0.18,0.69-0.28,1.1-0.28c0.41,0,0.78,0.09,1.1,0.28c0.32,0.19,0.57,0.44,0.75,0.78 c0.18,0.33,0.27,0.71,0.27,1.14S50.04,93.74,49.86,94.06z"></path> <path class="st0" d="M58.49,90.06c-0.12,0-0.21,0.04-0.29,0.11c-0.07,0.07-0.11,0.17-0.11,0.29v3.11c0,0.29-0.08,0.56-0.24,0.79 c-0.16,0.23-0.38,0.41-0.66,0.55c-0.28,0.13-0.59,0.2-0.93,0.2c-0.36,0-0.68-0.07-0.96-0.21c-0.28-0.14-0.51-0.35-0.67-0.63 c-0.16-0.28-0.25-0.64-0.25-1.07v-2.73c0-0.11-0.04-0.21-0.12-0.28c-0.08-0.08-0.17-0.12-0.29-0.12c-0.11,0-0.21,0.04-0.28,0.12 c-0.08,0.08-0.12,0.17-0.12,0.28v2.73c0,0.57,0.11,1.06,0.34,1.46c0.23,0.4,0.54,0.7,0.93,0.91c0.39,0.21,0.84,0.31,1.33,0.31 c0.45,0,0.87-0.1,1.24-0.3c0.26-0.14,0.48-0.32,0.67-0.53v0.36c0,0.13,0.04,0.23,0.11,0.3c0.07,0.07,0.17,0.11,0.29,0.11 c0.12,0,0.22-0.04,0.29-0.11c0.08-0.07,0.12-0.17,0.12-0.3v-4.93c0-0.12-0.04-0.21-0.12-0.29C58.7,90.09,58.6,90.06,58.49,90.06z"></path> <path class="st0" d="M65.75,90.06h-1.87c-0.4,0-0.75,0.08-1.06,0.24c-0.31,0.16-0.55,0.38-0.72,0.67 c-0.17,0.28-0.26,0.61-0.26,0.97c0,0.35,0.08,0.66,0.23,0.92c0.15,0.27,0.37,0.47,0.65,0.62c0.1,0.05,0.2,0.09,0.31,0.13 l-1.23,1.57c-0.06,0.08-0.1,0.17-0.1,0.26c0,0.09,0.04,0.17,0.12,0.25c0.07,0.07,0.17,0.11,0.29,0.11c0.12,0,0.23-0.05,0.31-0.15 l1.49-1.84h1.44v1.57c0,0.13,0.04,0.23,0.11,0.3c0.07,0.07,0.17,0.11,0.28,0.11c0.12,0,0.21-0.04,0.29-0.11 c0.07-0.07,0.11-0.17,0.12-0.29v-4.93c0-0.13-0.04-0.23-0.11-0.3C65.98,90.09,65.88,90.06,65.75,90.06z M65.36,93.12h-1.48 c-0.36,0-0.65-0.1-0.89-0.31c-0.24-0.21-0.36-0.5-0.36-0.87c0-0.34,0.12-0.62,0.36-0.82c0.24-0.21,0.53-0.31,0.89-0.31h1.48V93.12 z"></path> <path class="st0" d="M75.89,92.89l1.97-2.22c0.07-0.08,0.1-0.17,0.09-0.27c-0.01-0.09-0.05-0.18-0.14-0.26 c-0.08-0.06-0.17-0.09-0.27-0.08c-0.1,0.01-0.19,0.05-0.26,0.13l-2.06,2.36h-0.94v-2.08c0-0.13-0.04-0.23-0.11-0.3 c-0.07-0.07-0.17-0.11-0.3-0.11c-0.12,0-0.21,0.04-0.28,0.11c-0.07,0.07-0.1,0.17-0.1,0.3v4.93c0,0.12,0.03,0.21,0.1,0.29 c0.07,0.07,0.16,0.11,0.28,0.11c0.13,0,0.23-0.04,0.3-0.11c0.07-0.07,0.11-0.17,0.11-0.29v-2.12h0.91l2.19,2.4 c0.07,0.08,0.16,0.12,0.28,0.12c0.12,0,0.21-0.04,0.28-0.1c0.08-0.08,0.13-0.16,0.13-0.26s-0.04-0.18-0.1-0.26L75.89,92.89z"></path> <path class="st0" d="M84.97,90.39c-0.44-0.26-0.94-0.38-1.5-0.38c-0.55,0-1.04,0.13-1.47,0.38c-0.44,0.25-0.78,0.6-1.04,1.03 c-0.26,0.44-0.39,0.93-0.39,1.47v4.95c0,0.13,0.04,0.23,0.11,0.3c0.07,0.07,0.17,0.11,0.3,0.11c0.12,0,0.21-0.04,0.29-0.11 c0.07-0.07,0.11-0.17,0.11-0.3v-3.08c0.23,0.33,0.54,0.59,0.92,0.79c0.38,0.2,0.81,0.3,1.27,0.3c0.54,0,1.02-0.13,1.45-0.38 c0.43-0.26,0.76-0.6,1.01-1.04c0.25-0.44,0.37-0.94,0.37-1.49c0-0.56-0.13-1.06-0.38-1.5C85.76,90.99,85.41,90.64,84.97,90.39z M85.32,94.05c-0.19,0.33-0.44,0.59-0.76,0.78c-0.32,0.19-0.69,0.28-1.09,0.28c-0.4,0-0.76-0.09-1.08-0.28 c-0.32-0.19-0.57-0.45-0.75-0.78c-0.18-0.33-0.27-0.7-0.27-1.12c0-0.42,0.09-0.79,0.27-1.12c0.18-0.33,0.43-0.59,0.75-0.78 c0.32-0.19,0.68-0.29,1.08-0.29c0.41,0,0.77,0.1,1.09,0.29c0.32,0.19,0.57,0.45,0.76,0.78s0.28,0.7,0.28,1.12 C85.6,93.34,85.51,93.72,85.32,94.05z"></path> <path class="st0" d="M93.26,90.39C92.82,90.13,92.33,90,91.77,90s-1.05,0.13-1.49,0.38c-0.44,0.26-0.79,0.6-1.04,1.04 c-0.26,0.44-0.38,0.94-0.38,1.5c0,0.55,0.12,1.05,0.37,1.49c0.25,0.44,0.59,0.79,1.01,1.04c0.43,0.26,0.91,0.38,1.45,0.38 c0.51,0,0.97-0.12,1.37-0.35c0.33-0.19,0.6-0.44,0.81-0.74v0.64c0,0.12,0.04,0.21,0.12,0.29c0.08,0.07,0.17,0.11,0.29,0.11 s0.22-0.04,0.29-0.11c0.08-0.07,0.12-0.17,0.12-0.29v-2.47c-0.01-0.56-0.14-1.06-0.39-1.5C94.04,90.99,93.7,90.64,93.26,90.39z M92.86,94.83c-0.32,0.19-0.68,0.28-1.09,0.28c-0.4,0-0.76-0.09-1.08-0.28c-0.32-0.19-0.58-0.45-0.77-0.78 c-0.19-0.33-0.28-0.7-0.28-1.12c0-0.42,0.09-0.79,0.28-1.12c0.19-0.33,0.44-0.59,0.77-0.78c0.32-0.19,0.68-0.29,1.08-0.29 c0.41,0,0.77,0.1,1.09,0.29c0.32,0.19,0.57,0.45,0.75,0.78s0.28,0.7,0.28,1.12c0,0.41-0.09,0.79-0.28,1.12 C93.43,94.38,93.18,94.64,92.86,94.83z"></path> <path class="st0" d="M101.08,90.26c-0.36-0.17-0.75-0.25-1.18-0.25c-0.54,0-1.01,0.13-1.43,0.38c-0.41,0.26-0.74,0.6-0.98,1.04 c-0.24,0.44-0.36,0.94-0.36,1.5c0,0.55,0.12,1.05,0.37,1.49c0.25,0.44,0.59,0.79,1.02,1.04c0.43,0.26,0.92,0.38,1.47,0.38 c0.76,0,1.4-0.23,1.91-0.7c0.08-0.07,0.11-0.15,0.1-0.25c-0.01-0.1-0.06-0.18-0.14-0.26c-0.08-0.06-0.16-0.09-0.25-0.08 c-0.09,0.01-0.18,0.05-0.26,0.12c-0.17,0.15-0.38,0.27-0.6,0.34c-0.23,0.07-0.48,0.11-0.75,0.11c-0.41,0-0.77-0.09-1.08-0.28 c-0.31-0.19-0.56-0.45-0.73-0.78c-0.17-0.33-0.26-0.7-0.26-1.12c0-0.43,0.08-0.8,0.25-1.13c0.16-0.33,0.39-0.59,0.69-0.78 c0.3-0.19,0.64-0.28,1.03-0.28c0.62,0,1.13,0.23,1.53,0.69c0.07,0.08,0.15,0.13,0.25,0.15c0.09,0.02,0.18,0,0.26-0.06 c0.1-0.07,0.16-0.15,0.18-0.25c0.02-0.09-0.01-0.18-0.08-0.27C101.76,90.68,101.44,90.42,101.08,90.26z"></path> <path class="st0" d="M108.99,90.38c-0.44-0.25-0.93-0.38-1.49-0.38c-0.56,0-1.06,0.13-1.5,0.38c-0.44,0.25-0.79,0.6-1.04,1.04 c-0.25,0.44-0.38,0.94-0.38,1.51c0,0.56,0.13,1.06,0.38,1.5c0.25,0.44,0.6,0.79,1.04,1.04s0.94,0.38,1.5,0.38 c0.56,0,1.06-0.13,1.49-0.38s0.78-0.6,1.04-1.04c0.26-0.44,0.38-0.94,0.38-1.5c-0.01-0.57-0.14-1.07-0.39-1.51 C109.77,90.98,109.42,90.63,108.99,90.38z M109.34,94.05c-0.18,0.33-0.43,0.59-0.75,0.78c-0.32,0.19-0.69,0.28-1.09,0.28 s-0.77-0.09-1.09-0.28c-0.32-0.19-0.57-0.45-0.76-0.78c-0.19-0.33-0.28-0.7-0.28-1.12s0.09-0.8,0.28-1.13s0.44-0.59,0.76-0.78 c0.32-0.19,0.69-0.28,1.09-0.28s0.77,0.09,1.09,0.28c0.32,0.19,0.57,0.45,0.75,0.78c0.18,0.33,0.27,0.71,0.27,1.13 S109.52,93.72,109.34,94.05z"></path> <path class="st0" d="M120.3,90.29c-0.32-0.2-0.68-0.29-1.1-0.29c-0.43,0-0.82,0.1-1.16,0.29c-0.3,0.17-0.54,0.41-0.73,0.7 c-0.17-0.3-0.39-0.53-0.67-0.7c-0.32-0.2-0.68-0.29-1.1-0.29c-0.41,0-0.77,0.1-1.09,0.29c-0.18,0.11-0.34,0.25-0.48,0.41v-0.23 c0-0.12-0.04-0.22-0.11-0.29c-0.07-0.08-0.17-0.12-0.29-0.12c-0.13,0-0.23,0.04-0.3,0.12c-0.07,0.08-0.11,0.17-0.11,0.29v4.93 c0,0.12,0.04,0.21,0.11,0.29c0.07,0.07,0.17,0.11,0.3,0.11c0.12,0,0.21-0.04,0.29-0.11c0.07-0.07,0.11-0.17,0.11-0.29v-3.11 c0-0.45,0.14-0.82,0.42-1.11c0.28-0.28,0.64-0.42,1.07-0.42c0.4,0,0.74,0.14,1,0.44c0.26,0.29,0.39,0.68,0.39,1.18v3.02 c0,0.12,0.04,0.21,0.12,0.29c0.08,0.07,0.17,0.11,0.29,0.11c0.12,0,0.22-0.04,0.29-0.11c0.07-0.07,0.11-0.17,0.11-0.29v-3.02 c0-0.01,0-0.01,0-0.02h0c-0.01-0.48,0.13-0.87,0.4-1.16c0.28-0.29,0.63-0.44,1.06-0.44c0.41,0,0.74,0.14,1,0.44 c0.26,0.29,0.39,0.68,0.39,1.18v3.02c0,0.12,0.04,0.21,0.12,0.29c0.08,0.07,0.17,0.11,0.29,0.11c0.12,0,0.22-0.04,0.29-0.11 c0.07-0.07,0.11-0.17,0.11-0.29v-3.02c0-0.48-0.09-0.9-0.27-1.26C120.86,90.76,120.62,90.48,120.3,90.29z"></path> <path class="st0" d="M130.4,90.17c-0.07-0.07-0.17-0.11-0.3-0.11c-0.12,0-0.21,0.04-0.29,0.11c-0.07,0.07-0.11,0.17-0.11,0.3v4.92 c0,0.13,0.04,0.23,0.11,0.3c0.07,0.07,0.17,0.11,0.29,0.11c0.13,0,0.23-0.04,0.3-0.11c0.07-0.07,0.11-0.17,0.11-0.3v-4.92 C130.51,90.34,130.47,90.24,130.4,90.17z"></path> <path class="st0" d="M127.75,92.19c-0.32-0.16-0.7-0.24-1.12-0.24h-1.55v-1.49c0-0.13-0.04-0.23-0.11-0.3 c-0.07-0.07-0.17-0.11-0.29-0.11s-0.21,0.04-0.29,0.11c-0.07,0.07-0.11,0.17-0.12,0.29v3.31c0,0.42,0.1,0.79,0.3,1.11 s0.47,0.57,0.82,0.76c0.35,0.18,0.75,0.27,1.2,0.27c0.43,0,0.81-0.08,1.14-0.25c0.33-0.16,0.59-0.4,0.78-0.7 c0.18-0.3,0.28-0.65,0.28-1.06c0-0.4-0.09-0.74-0.27-1.03C128.33,92.57,128.08,92.35,127.75,92.19z M127.6,94.84 c-0.27,0.21-0.6,0.31-1.01,0.31c-0.44,0-0.8-0.13-1.09-0.39c-0.28-0.26-0.42-0.6-0.42-1v-1.1h1.55c0.4,0,0.72,0.1,0.98,0.3 c0.26,0.2,0.38,0.51,0.38,0.93C128,94.32,127.87,94.63,127.6,94.84z"></path> </g> <g> <path class="st0" d="M75.41,126.42c-17.68,0-33.91-8.92-43.4-23.87l0.31-0.2c9.42,14.84,25.53,23.7,43.08,23.7 c17.56,0,33.67-8.86,43.09-23.7l0.31,0.2C109.32,117.5,93.1,126.42,75.41,126.42z"></path> </g> <g> <path class="st0" d="M120.99,52.04c-8.72-17.33-26.19-28.09-45.58-28.09c-19.39,0-36.85,10.76-45.57,28.09l-0.33-0.17 c8.79-17.45,26.37-28.29,45.9-28.29c19.53,0,37.12,10.84,45.91,28.29L120.99,52.04z"></path> </g> <g> <path class="st0" d="M75.41,123.95c-16.2,0-31.31-8-40.44-21.4l0.31-0.21c9.06,13.3,24.06,21.24,40.13,21.24 c16.07,0,31.08-7.94,40.13-21.24l0.31,0.21C106.73,115.95,91.61,123.95,75.41,123.95z"></path> </g> <g> <path class="st0" d="M118.21,52.04c-8.49-15.8-24.88-25.62-42.79-25.62s-34.31,9.82-42.79,25.62l-0.33-0.17 c8.55-15.92,25.07-25.81,43.12-25.81s34.57,9.89,43.12,25.81L118.21,52.04z"></path> </g> <path class="st1" d="M72.9,43.81c-1.18-1.71-2.38-3.42-3.53-5.16c-0.93-1.4-0.91-1.38-2.28-0.42c-2.12,1.49-8.23,5.63-8.5,5.8 c-0.38,0.24-0.41,0.48-0.14,0.84c0.42,0.57,0.79,1.18,1.2,1.75c0.34,0.48,0.22,0.78-0.26,1.08c-2.05,1.3-4.09,2.61-6.12,3.94 c-0.26,0.17-0.43,0.47-0.65,0.7c-0.08,0.09-0.16,0.18-0.24,0.27L53.34,54c0.01,0,0.02-0.01,0.03,0c0.89,0.09,1.48-0.45,2.12-0.9 c1.73-1.2,3.46-2.39,5.17-3.62c0.48-0.35,0.77-0.29,1.06,0.21c0.29,0.49,0.64,0.94,0.95,1.41c0.24,0.36,0.51,0.4,0.87,0.16 c3.05-2.09,6.11-4.17,9.16-6.25C73.35,44.55,73.35,44.47,72.9,43.81z"></path> <path class="st1" d="M51.59,53.34c-1.74,0.99-3.51,1.93-5.27,2.89c-1.22,0.67-1.48,1.18-1.31,2.56c0.09,0.68,0.02,1.32-0.41,1.9 c-0.41,0.57-0.61,1.22-0.56,1.94c0.06,0.76,0.43,1.25,1.11,1.4c0.58,0.13,1.15-0.17,1.49-0.8c0.36-0.67,0.34-1.34,0.06-2.04 c-0.52-1.29-0.23-2.17,0.89-3c1.7-1.27,3.39-2.56,5.09-3.83c0.2-0.15,0.44-0.36,0.64-0.36l-0.98-1.37 C52.12,52.9,51.88,53.17,51.59,53.34z M46.74,57.26c0-0.57,0.66-1.05,1.67-1.33c0.03,0.04,0.06,0.09,0.1,0.13 C47.94,56.45,47.37,56.84,46.74,57.26z"></path> </g> </svg> 