<?xml version="1.0" encoding="UTF-8" standalone="no"?>
<svg
   xmlns:dc="http://purl.org/dc/elements/1.1/"
   xmlns:cc="http://creativecommons.org/ns#"
   xmlns:rdf="http://www.w3.org/1999/02/22-rdf-syntax-ns#"
   xmlns:svg="http://www.w3.org/2000/svg"
   xmlns="http://www.w3.org/2000/svg"
   xmlns:sodipodi="http://sodipodi.sourceforge.net/DTD/sodipodi-0.dtd"
   xmlns:inkscape="http://www.inkscape.org/namespaces/inkscape"
   viewBox="0 0 120 120"
   height="120"
   width="120"
   xml:space="preserve"
   id="svg2"
   version="1.1"
   sodipodi:docname="logo_main-3.svg"
   inkscape:version="1.0.1 (c497b03c, 2020-09-10)"><sodipodi:namedview
     pagecolor="#ffffff"
     bordercolor="#666666"
     borderopacity="1"
     objecttolerance="10"
     gridtolerance="10"
     guidetolerance="10"
     inkscape:pageopacity="0"
     inkscape:pageshadow="2"
     inkscape:window-width="1819"
     inkscape:window-height="805"
     id="namedview108"
     showgrid="false"
     inkscape:zoom="1.0283574"
     inkscape:cx="497.43471"
     inkscape:cy="246.86996"
     inkscape:window-x="0"
     inkscape:window-y="23"
     inkscape:window-maximized="0"
     inkscape:current-layer="g10"
     fit-margin-top="0"
     fit-margin-left="0"
     fit-margin-right="0"
     fit-margin-bottom="0" /><metadata
     id="metadata8"><rdf:RDF><cc:Work
         rdf:about=""><dc:format>image/svg+xml</dc:format><dc:type
           rdf:resource="http://purl.org/dc/dcmitype/StillImage" /><dc:title></dc:title></cc:Work></rdf:RDF></metadata><defs
     id="defs6"><clipPath
       id="clipPath20"
       clipPathUnits="userSpaceOnUse"><path
         id="path18"
         d="M 0,198.425 H 850.394 V 0 H 0 Z" /></clipPath></defs><g
     transform="matrix(1.3333333,0,0,-1.3333333,0,264.56666)"
     id="g10"><path
       id="path12"
       style="fill:#ffffff;fill-opacity:0;fill-rule:nonzero;stroke:none"
       d="M 0,0 H 850.394 V 198.425 H 0 Z" /><g
       id="g216"
       transform="matrix(0.76200854,0,0,0.76200854,-99.338235,73.928069)"><path
         style="fill:#f7a600;fill-opacity:1;fill-rule:nonzero;stroke:none"
         d="m 190.82413,72.67 c -2.555,-3.595 -5.785,-6.627 -9.491,-8.958 0,-0.14 0.028,-0.281 0.028,-0.449 0,-3.426 4.212,-6.347 9.21,-6.347 4.97,0 9.183,2.921 9.183,6.347 0,0.28 0.027,0.533 0.084,0.814 -3.511,2.247 -6.571,5.167 -9.014,8.593"
         id="path210" /><path
         style="fill:#f7a600;fill-opacity:1;fill-rule:nonzero;stroke:none"
         d="m 162.91213,107.349 c 2.892,-2.808 6.936,-4.437 11.653,-4.437 3.286,0 6.206,0.815 8.677,2.247 3.201,1.881 5.56,4.83 6.795,8.452 0,0 0.085,0.674 0.787,0.674 0.702,0 0.786,-0.674 0.786,-0.674 1.264,-3.622 3.622,-6.571 6.824,-8.424 2.499,-1.46 5.447,-2.275 8.761,-2.275 4.661,0 8.677,1.629 11.569,4.409 -6.739,6.346 -16.736,10.362 -27.94,10.362 -11.176,0 -21.201,-4.016 -27.912,-10.334"
         id="path208" /><path
         id="path122"
         style="fill:#74a220;fill-opacity:1;fill-rule:nonzero;stroke:none"
         d="m 151.42663,84.2666 c 0,-1.516 1.236,-2.752 2.752,-2.752 1.517,0 2.752,1.236 2.752,2.752 0,1.517 -1.235,2.752 -2.752,2.752 -1.516,0 -2.752,-1.235 -2.752,-2.752 m 13.282,-3.706 c 0,-1.769 1.432,-3.201 3.174,-3.201 1.769,0 3.201,1.432 3.201,3.201 0,1.741 -1.432,3.173 -3.201,3.173 -1.742,0 -3.174,-1.432 -3.174,-3.173 m -19.488,64.276 c 0.927,-0.73 1.994,-1.067 3.089,-1.067 1.432,0 2.865,0.618 3.847,1.825 1.292,1.601 3.482,3.876 6.627,5.645 2.387,1.347 3.202,4.352 1.882,6.711 -1.348,2.387 -4.353,3.229 -6.712,1.881 -4.521,-2.555 -7.637,-5.784 -9.463,-8.059 -1.712,-2.106 -1.376,-5.223 0.73,-6.936 m 82.501,14.995 c -2.387,1.348 -5.391,0.506 -6.711,-1.881 -1.348,-2.359 -0.505,-5.364 1.854,-6.711 3.172,-1.769 5.363,-4.044 6.654,-5.645 0.983,-1.207 2.387,-1.825 3.847,-1.825 1.067,0 2.163,0.337 3.089,1.067 2.106,1.713 2.443,4.83 0.73,6.936 -1.825,2.275 -4.942,5.504 -9.463,8.059 m -27.968,-96.569 c 0,-3.426 -4.212,-6.346 -9.182,-6.346 -4.999,0 -9.211,2.92 -9.211,6.346 0,0.168 -0.028,0.309 -0.028,0.449 3.707,2.331 6.936,5.364 9.491,8.958 2.443,-3.426 5.504,-6.346 9.014,-8.593 -0.056,-0.28 -0.084,-0.533 -0.084,-0.814 m 30.187,8.424 c -3.595,-2.078 -7.695,-3.173 -11.85,-3.173 -10.081,0 -18.983,6.234 -22.24,15.669 -0.983,2.864 -2.528,4.352 -5.027,4.352 -2.471,0 -4.043,-1.488 -5.026,-4.352 -3.229,-9.435 -12.159,-15.669 -22.212,-15.669 -4.184,0 -8.284,1.095 -11.85,3.173 -2.359,1.376 -5.363,0.59 -6.739,-1.769 -1.348,-2.359 -0.562,-5.363 1.797,-6.739 5.083,-2.949 10.867,-4.493 16.792,-4.493 2.892,0 5.7,0.365 8.396,1.067 1.91,-7.245 9.772,-12.664 18.842,-12.664 9.07,0 16.961,5.419 18.871,12.664 2.695,-0.702 5.503,-1.067 8.396,-1.067 5.897,0 11.709,1.544 16.792,4.493 2.358,1.376 3.145,4.38 1.769,6.739 -1.348,2.359 -4.381,3.145 -6.711,1.769 m -55.375,64.698 c 3.313,0 6.262,-0.814 8.733,-2.275 3.173,-1.853 5.503,-4.802 6.739,-8.424 0,0 0.197,-0.674 0.786,-0.674 0.618,0 0.814,0.674 0.814,0.674 1.236,3.622 3.567,6.543 6.74,8.424 2.499,1.461 5.476,2.275 8.817,2.275 9.66,0 16.483,-6.936 16.483,-16.792 0,-9.66 -6.823,-16.68 -16.483,-16.68 -3.313,0 -6.262,0.814 -8.761,2.274 -3.201,1.853 -5.56,4.802 -6.823,8.425 0,0 -0.084,0.673 -0.787,0.673 -0.702,0 -0.786,-0.673 -0.786,-0.673 -1.236,-3.623 -3.594,-6.572 -6.796,-8.453 -2.471,-1.432 -5.391,-2.246 -8.676,-2.246 -9.744,0 -16.596,7.02 -16.596,16.68 0,9.856 6.852,16.792 16.596,16.792 m -28.025,-16.792 c 0,-15.697 12.609,-27.323 28.025,-27.323 6.065,0 11.681,1.826 16.286,4.971 4.606,-3.145 10.25,-4.971 16.343,-4.971 15.332,0 27.913,11.626 27.913,27.323 0,15.612 -12.581,27.435 -27.913,27.435 -6.093,0 -11.737,-1.854 -16.343,-5.055 -4.605,3.201 -10.221,5.055 -16.286,5.055 -15.416,0 -28.025,-11.823 -28.025,-27.435 m 31.282,-1.348 c 4.156,0 7.526,2.724 7.526,6.093 0,3.342 -3.37,6.066 -7.526,6.066 -4.156,0 -7.525,-2.724 -7.525,-6.066 0,-3.369 3.369,-6.093 7.525,-6.093 m 32.77,-37.684 c 0,-1.769 1.432,-3.201 3.201,-3.201 1.741,0 3.173,1.432 3.173,3.201 0,1.741 -1.432,3.173 -3.173,3.173 -1.769,0 -3.201,-1.432 -3.201,-3.173 m 0,37.684 c 4.156,0 7.525,2.724 7.525,6.093 0,3.342 -3.369,6.066 -7.525,6.066 -4.156,0 -7.554,-2.724 -7.554,-6.066 0,-3.369 3.398,-6.093 7.554,-6.093 m 14.153,-33.978 c 0,-1.516 1.235,-2.752 2.751,-2.752 1.517,0 2.752,1.236 2.752,2.752 0,1.517 -1.235,2.752 -2.752,2.752 -1.516,0 -2.751,-1.235 -2.751,-2.752" /></g></g></svg>
