<svg width="192" height="192" fill="none" xmlns="http://www.w3.org/2000/svg"><g clip-path="url(#a)"><path d="M150.079 89.047V151.2c0 10.378-7.694 18.962-17.702 20.381-.957.139-1.934.209-2.931.209H62.182c-.997 0-1.976-.07-2.934-.209-10.005-1.419-17.699-10.005-17.699-20.381V89.047c0-11.372 9.239-20.59 20.633-20.59h67.264c11.396 0 20.633 9.218 20.633 20.59Z" fill="#E9E9E9"/><path d="M129.027 161.7h-66.72c-5.713 0-10.342-4.621-10.342-10.321V88.8c0-5.7 4.63-10.32 10.341-10.32h66.719c5.712 0 10.342 4.62 10.342 10.32v62.577c.002 5.702-4.628 10.323-10.34 10.323Z" fill="url(#b)"/><path d="M82.884 100.912h14.898c9.541 0 17.237 3.405 17.237 13.92 0 10.171-7.78 14.67-16.97 14.67h-5.36v14.683h-9.805v-43.273Zm14.586 20.824c5.392 0 7.941-2.398 7.941-6.904 0-4.53-2.903-6.153-8.208-6.153h-4.515v13.057h4.782Z" fill="#E9E9E9"/><path d="M132.23 183.083c-.148 2.626-.711 4.774-2.112 6.246-.982 1.031-2.372 1.73-4.323 2.027-.98.15-2.455.303-4.184.424-.078.004-.156.011-.237.015-2.709.182-6.001.274-8.992.135l-.168-.008c-3.909-.195-7.27-.798-8.077-2.14a4.645 4.645 0 0 1-.4-.879c-.818-2.347-.547-6.121-.627-8.345-.004-.137-7.273-.215-7.238-.211 0 .006-7.343.068-7.347.203-.09 2.529.27 7.063-1.027 9.224-1.849 3.074-17.1 2.271-21.658 1.574-4.73-.722-6.184-3.804-6.435-8.273-.214-3.823-.218-7.666-.152-11.493.957.14 1.937.209 2.933.209h67.265c.996 0 1.974-.069 2.931-.209.066 3.831.061 7.674-.152 11.501Z" fill="#9BBCCC"/><path d="M112.357 190.809c0 .385-.05.758-.14 1.115-3.911-.195-7.272-.798-8.08-2.141a4.656 4.656 0 0 1-.401-.88 4.523 4.523 0 0 1 4.1-2.607 4.517 4.517 0 0 1 4.521 4.513Z" fill="#759AAD"/><path d="M121.396 191.424c0 .125-.006.25-.016.373-2.711.183-6.005.275-8.996.136a4.516 4.516 0 0 1 4.491-5.021 4.516 4.516 0 0 1 4.521 4.512ZM130.126 189.33c-.983 1.032-2.374 1.731-4.326 2.028-.98.15-2.456.304-4.186.425a4.516 4.516 0 0 1 4.507-4.871c1.74 0 3.248.98 4.005 2.418ZM79.262 190.785c0 .385.05.759.14 1.116 3.91-.195 7.272-.798 8.08-2.142.156-.26.29-.556.4-.88a4.522 4.522 0 0 0-4.1-2.607 4.517 4.517 0 0 0-4.52 4.513Z" fill="#759AAD"/><path d="M70.225 191.4c0 .125.006.25.016.374 2.71.182 6.005.274 8.997.135a4.516 4.516 0 0 0-4.492-5.021 4.516 4.516 0 0 0-4.521 4.512ZM61.496 189.306c.982 1.032 2.373 1.731 4.326 2.029.98.149 2.455.303 4.185.424a4.516 4.516 0 0 0-4.506-4.871c-1.74 0-3.249.98-4.005 2.418Z" fill="#759AAD"/><path d="M135.662 42.998c0 4.794-.93 9.38-2.631 13.604-1.711-2.618-3.839-5.032-6.314-7.189a6.83 6.83 0 0 0 1.037-3.626c0-.06 0-.119-.002-.176l-.006-.182-.012-.17-.007-.074c-.004-.056-.01-.111-.016-.166-.012-.12-.031-.238-.049-.355l-.025-.14c-.01-.055-.022-.108-.033-.163a6.165 6.165 0 0 0-.121-.478c-.002-.002 0-.004 0-.004a6.882 6.882 0 0 0-5.057-4.782s-.002.002-.004 0a5.415 5.415 0 0 0-.489-.094l-.183-.027a5.096 5.096 0 0 0-.308-.03c-.012-.003-.024-.003-.039-.005a7.749 7.749 0 0 0-.53-.02 6.864 6.864 0 0 0-3.802 1.143 6.893 6.893 0 0 0-1.976 1.993l-.115.184a47.38 47.38 0 0 0-5.923-1.998 43.68 43.68 0 0 0-2.141-.525h-.002c-.417-.094-.838-.18-1.261-.26a29.458 29.458 0 0 0-.891-.164c-.156-.03-.315-.056-.473-.082a52.216 52.216 0 0 0-8.577-.701 52.165 52.165 0 0 0-9.398.842c-.102.018-.203.039-.305.057a46.62 46.62 0 0 0-2.615.566 47.339 47.339 0 0 0-1.44.375 47.477 47.477 0 0 0-5.842 2.025 6.884 6.884 0 0 0-1.914-2.135h-.002a6.535 6.535 0 0 0-1.296-.742 6.859 6.859 0 0 0-3.638-.523 10.02 10.02 0 0 0-.34.051 8.092 8.092 0 0 0-.666.154c-.054.016-.11.03-.163.05a4.874 4.874 0 0 0-.291.095 5.072 5.072 0 0 0-.347.136 4.206 4.206 0 0 0-.261.119 10.195 10.195 0 0 0-.335.168c-.183.1-.361.207-.534.323-.058.037-.113.076-.169.115l-.086.062c-.074.055-.146.11-.217.168-.072.057-.144.119-.216.178a3.537 3.537 0 0 0-1.331 1.552 6.856 6.856 0 0 0-.968 2.595 6.675 6.675 0 0 0-.049.4c-.004.038-.008.077-.01.116-.006.064-.01.125-.013.189l-.006.14a6.862 6.862 0 0 0 1.185 4.056c-2.357 2.093-4.393 4.423-6.044 6.942a36.37 36.37 0 0 1-2.623-13.587c0-11.731 5.574-22.222 14.337-29.201a39.483 39.483 0 0 1 3.046-2.2 39.751 39.751 0 0 1 3.777-2.185c.766-.39 1.545-.756 2.34-1.096 5.013-2.16 10.58-3.364 16.442-3.364 5.848 0 11.4 1.197 16.405 3.347.846.363 1.678.755 2.492 1.17l.002.003a40.337 40.337 0 0 1 5.878 3.683c9.239 6.97 15.165 17.747 15.165 29.843Z" fill="#749AAD"/><path d="M125.212 7.452c-.008 2.922-2.095 4.822-4.712 5.706a40.473 40.473 0 0 0-5.879-3.684l-.002-.003a40.56 40.56 0 0 0-2.491-1.17c.127-.453.224-1.167.224-2.288 0-3.233 1.314-6.16 5.007-6.007 3.285.135 6.596 2.378 7.573 5.574.185.605.282 1.238.28 1.872Z" fill="#759AAD"/><path d="M118.374 11.66a40.486 40.486 0 0 0-3.75-2.185l-.002-.002c1.029-1.38.374-3.325 1.251-4.763 1.071-1.752 3.381-1.149 4.494.185 2.047 2.45.522 5.44-1.993 6.764Z" fill="#9BBCCC"/><path d="M79.281 8.318a39.21 39.21 0 0 0-2.34 1.097 39.73 39.73 0 0 0-3.777 2.185 39.443 39.443 0 0 0-3.046 2.2c-2.146-.996-3.744-2.77-3.75-5.322 0-.634.094-1.267.279-1.872.977-3.196 4.289-5.44 7.573-5.575 3.693-.151 5.008 2.774 5.008 6.008 0 .504.018.926.053 1.279Z" fill="#759AAD"/><path d="M76.944 9.416a39.753 39.753 0 0 0-3.779 2.186c-2.488-1.337-3.982-4.303-1.948-6.74 1.114-1.333 3.424-1.938 4.494-.184.871 1.43.232 3.36 1.233 4.738Z" fill="#9BBCCC"/><path d="M110.813 35.973c0 1.805-.701 3.389-1.753 4.275a43.278 43.278 0 0 0-1.498-.38c-.214-.049-.427-.098-.643-.145h-.002c-.417-.095-.839-.18-1.262-.26a28.31 28.31 0 0 0-.892-.165c-.156-.029-.314-.055-.472-.082-.547-.876-.876-2.006-.876-3.243 0-2.775 1.657-5.025 3.699-5.025 2.043 0 3.699 2.25 3.699 5.025Z" fill="#E9E9E9"/><path d="M108.963 36.882c0 1.323-.573 2.463-1.401 2.986-.214-.049-.427-.098-.643-.145h-.002c-.417-.095-.839-.18-1.262-.26-.247-.05-.495-.095-.744-.138-.491-.603-.799-1.473-.799-2.443 0-1.82 1.085-3.296 2.425-3.296 1.339 0 2.426 1.477 2.426 3.296Z" fill="#383838"/><path d="M87.705 36.18c0 1.157-.287 2.226-.772 3.073-.066.01-.132.02-.198.033l-.417.073c-.103.019-.203.04-.306.058-.666.125-1.323.262-1.975.414a46.559 46.559 0 0 0-1.6.396c-.16.043-.321.086-.481.131-.995-.898-1.648-2.434-1.648-4.178 0-2.775 1.656-5.025 3.698-5.025 2.043 0 3.7 2.25 3.7 5.025Z" fill="#E9E9E9"/><path d="M87.007 37.134c-.016.864-.275 1.645-.688 2.223-.103.019-.203.04-.306.058-.666.125-1.323.262-1.975.414-.213.05-.427.1-.64.152-.761-.564-1.267-1.674-1.24-2.941.035-1.82 1.15-3.274 2.49-3.25 1.34.027 2.397 1.525 2.36 3.344Z" fill="#383838"/><path d="M137.822 72.228a27.473 27.473 0 0 1-1.284 8.295 2.83 2.83 0 0 1-1.427 1.673c-.914.457-1.937.9-3.061 1.32-4.089 1.53-9.508 2.792-15.806 3.667-3.259.45-6.755.801-10.426 1.029a165.57 165.57 0 0 1-10.206.311c-3.584 0-7.068-.112-10.408-.323a138.745 138.745 0 0 1-10.426-1.046c-6.322-.89-11.747-2.168-15.818-3.718-.924-.355-1.78-.72-2.561-1.099a2.838 2.838 0 0 1-1.463-1.672l-.004-.013a27.574 27.574 0 0 1-1.273-6.731 26.63 26.63 0 0 1-.047-1.347c-.005-.114-.005-.23-.005-.346 0-5.647 1.734-10.968 4.797-15.644 1.651-2.519 3.686-4.85 6.044-6.942a6.826 6.826 0 0 1-1.185-4.056l.006-.14c.003-.063.007-.125.013-.188.002-.04.006-.078.01-.117a6.675 6.675 0 0 1 .374-1.677 6.339 6.339 0 0 1 .224-.545 6.831 6.831 0 0 1 1.12-1.704c.065-.071.13-.143.198-.213a8.016 8.016 0 0 1 .208-.205 9.71 9.71 0 0 1 .224-.203 8.743 8.743 0 0 1 .433-.346l.087-.062c.055-.038.11-.078.168-.114.172-.117.351-.224.534-.324.07-.037.14-.074.21-.109l.125-.06c.086-.04.172-.08.26-.118.114-.05.23-.094.348-.136.096-.034.193-.067.291-.096.054-.018.11-.033.163-.049a8.092 8.092 0 0 1 .665-.154 9.776 9.776 0 0 1 .516-.071c.057-.007.115-.01.172-.015a6.859 6.859 0 0 1 3.57.687 6.525 6.525 0 0 1 1.017.613h.002c.179.133.351.272.518.418a6.884 6.884 0 0 1 1.397 1.718 47.477 47.477 0 0 1 6.322-2.157 47.339 47.339 0 0 1 1.6-.395 46.777 46.777 0 0 1 1.974-.414c.102-.019.203-.04.305-.058a239.466 239.466 0 0 1 .615-.106 52.165 52.165 0 0 1 8.783-.736c2.939 0 5.808.24 8.577.7.158.027.317.054.473.083a29.458 29.458 0 0 1 .891.164c.423.08.844.166 1.261.26h.002a43.68 43.68 0 0 1 2.141.525 47.396 47.396 0 0 1 5.923 1.998l.115-.184a6.893 6.893 0 0 1 5.778-3.136c.072 0 .144.002.218.004.105.004.21.008.312.016l.039.004c.105.008.206.019.308.031.06.008.122.016.183.027.164.026.329.057.489.094.002.002.004 0 .004 0a6.96 6.96 0 0 1 5.057 4.782s-.002.002 0 .004c.045.156.086.316.121.478.011.055.023.108.033.164l.025.139c.018.117.037.236.049.355l.017.166.006.074.012.17.006.182a6.887 6.887 0 0 1-.503 2.763 6.83 6.83 0 0 1-.532 1.04c2.475 2.156 4.603 4.57 6.314 7.188 3.058 4.671 4.788 9.988 4.788 15.627Z" fill="#9BBCCC"/><path d="M132.05 83.517c-.629 6.653-16.749 11.98-36.541 11.98-19.873 0-36.042-5.37-36.55-12.06 4.072 1.55 9.496 2.829 15.819 3.719 3.257.457 6.753.812 10.426 1.045 3.34.212 6.823.324 10.408.324 3.51 0 6.928-.108 10.206-.311a139.27 139.27 0 0 0 10.426-1.03c6.298-.875 11.716-2.138 15.806-3.667Z" fill="url(#c)"/><path d="M73.102 47.45a5.106 5.106 0 0 0-1.81 1.49c-.65.004-1.328-.3-1.808-.878-.796-.96-.75-2.31.105-3.017.852-.705 2.19-.498 2.987.46.483.582.656 1.306.526 1.944ZM121.605 48.062c-.407.49-.955.784-1.51.858a5.12 5.12 0 0 0-2.141-1.7 2.388 2.388 0 0 1 .561-1.715c.797-.958 2.133-1.165 2.988-.46.852.708.9 2.057.102 3.017Z" fill="#5E869C"/><path d="m115.99 91.434-8.91 1.047a.75.75 0 0 1-.834-.658l-.428-3.61a139.14 139.14 0 0 0 10.427-1.03l.404 3.416a.753.753 0 0 1-.659.835ZM85.204 88.2l-.43 3.623a.752.752 0 0 1-.833.658l-8.91-1.048a.752.752 0 0 1-.66-.834l.407-3.444c3.258.457 6.754.811 10.426 1.045Z" fill="#E9E9E9"/><path d="M160.736 114.592c-.162 2.499-.402 5.038-.941 7.49-1.033 4.704-7.302 3.517-10.802 3.089-1.762-.215-3.313-.597-4.459-1.535-.758-.622-1.337-1.485-1.686-2.704-.489-1.712-.762-3.476-.91-5.25a49.083 49.083 0 0 1-.15-3.273 85.01 85.01 0 0 1 .133-5.643l.009-.156c.047-.906.102-1.81.162-2.714.119-1.803.156-3.925 1.121-5.53.191-.313.415-.609.684-.877 1.771-1.773 4.556-1.695 6.861-1.425 2.163.253 4.638.443 6.653 1.312a5.188 5.188 0 0 1 1.649 1.105c1.871 1.888 1.804 4.965 1.904 7.623.107 2.827-.043 5.668-.228 8.488Z" fill="#9BBCCC"/><path d="M147.274 102.568a4.209 4.209 0 0 1-5.343 4.049c.048-.906.103-1.811.163-2.715.119-1.805.156-3.928 1.122-5.534a4.206 4.206 0 0 1 4.058 4.2Z" fill="#759AAD"/><path d="M146.245 111.073a4.312 4.312 0 0 1-4.315 4.308h-.017a49.184 49.184 0 0 1-.125-2.968 84.456 84.456 0 0 1 .134-5.647h.008a4.31 4.31 0 0 1 4.315 4.307ZM147.069 119.786a4.206 4.206 0 0 1-2.532 3.856c-.758-.622-1.338-1.485-1.687-2.706-.489-1.712-.762-3.478-.91-5.253a4.21 4.21 0 0 1 5.129 4.103Z" fill="#759AAD"/><path d="M30.264 114.592c.162 2.499.402 5.038.94 7.49 1.033 4.704 7.302 3.517 10.802 3.089 1.763-.215 3.313-.597 4.46-1.535.758-.621 1.337-1.484 1.686-2.704.489-1.712.762-3.476.91-5.249a49.497 49.497 0 0 0 .15-3.274 84.807 84.807 0 0 0-.134-5.643 197.658 197.658 0 0 0-.17-2.869c-.12-1.804-.156-3.926-1.122-5.53a4.635 4.635 0 0 0-.684-.878c-1.77-1.773-4.555-1.695-6.86-1.425-2.163.253-4.638.443-6.653 1.312a5.184 5.184 0 0 0-1.65 1.105c-1.87 1.888-1.803 4.965-1.903 7.623-.107 2.827.043 5.668.228 8.488Z" fill="#9BBCCC"/><path d="M43.73 102.569a4.209 4.209 0 0 0 5.342 4.048c-.047-.906-.102-1.811-.162-2.715-.12-1.805-.156-3.928-1.122-5.534a4.206 4.206 0 0 0-4.058 4.201Z" fill="#759AAD"/><path d="M44.757 111.074a4.31 4.31 0 0 0 4.315 4.307h.017c.074-.989.11-1.981.125-2.968a84.927 84.927 0 0 0-.133-5.647h-.009a4.31 4.31 0 0 0-4.315 4.308ZM43.937 119.786a4.206 4.206 0 0 0 2.532 3.856c.758-.622 1.337-1.485 1.687-2.706.489-1.712.762-3.478.91-5.253a4.21 4.21 0 0 0-5.129 4.103Z" fill="#759AAD"/></g><defs><linearGradient id="b" x1="95.667" y1="160.67" x2="95.667" y2="77.958" gradientUnits="userSpaceOnUse"><stop stop-color="#2176D4"/><stop offset="1" stop-color="#145295"/></linearGradient><linearGradient id="c" x1="95.81" y1="94.143" x2="95.7" y2="90.278" gradientUnits="userSpaceOnUse"><stop stop-color="#759AAD"/><stop offset=".997" stop-color="#79A"/></linearGradient><clipPath id="a"><path fill="#fff" d="M0 0h192v192H0z"/></clipPath></defs></svg>