<?xml version="1.0" encoding="UTF-8"?>
<svg id="_Слой_1" data-name="Слой 1" xmlns="http://www.w3.org/2000/svg" viewBox="0 0 120 120">
  <defs>
    <style>
      .cls-1 {
        fill: #fe5000;
      }
    </style>
  </defs>
  <path class="cls-1" d="m17.29,86.47c13.46,20.76,36.59,33.22,61.33,33.03-7.03-9.83-16.22-17.93-26.85-23.67-10.62-5.74-22.42-8.94-34.48-9.35Z"/>
  <path class="cls-1" d="m90.19.5c-4.57.03-9.04,1.38-12.85,3.88L5.97,51.49c.46,7.2,1.94,14.3,4.37,21.1,12.16.07,30.97,4.44,46.91,13.12,15.98,8.65,29.95,21.76,36.82,31.89,6.97-1.71,13.71-4.34,19.95-7.89V24.1c-.07-13.08-10.72-23.67-23.83-23.6Zm5.42,92.41c-7.2-9.27-17.52-17.42-29.42-23.87-11.93-6.41-24.29-10.45-35.96-11.31l58.22-38.59c1.35-1.18,3.32-1.35,4.83-.43.89.43,2.33,1.38,2.33,4.27v69.92Z"/>
</svg>