<svg xmlns="http://www.w3.org/2000/svg" width="46" height="42" viewBox="0 0 46 42" fill="none">
<path fill-rule="evenodd" clip-rule="evenodd" d="M2.99482 1.14441e-05H5.36295H7.72846H10.0942H12.4625H14.8283H17.1938H19.5619H21.9283H24.2942H26.6613H29.027H31.3942H33.7613H36.127H38.4942H40.8613V2.36814V4.73365V7.09893V9.46487V11.833V14.1989V16.5647V18.9328V21.2985V23.6669V26.2448C42.0694 28.445 43.0697 29.9712 45.2033 34.7843C38.7783 24.9127 32.4804 18.3811 22.572 11.0011C31.276 19.2018 36.3333 25.6421 40.8613 35.4975V37.8656H38.4942H36.127H33.7613H31.3942H29.027H26.6613H24.2942H21.9283H19.5619H17.1938H14.8283H12.4625H10.0942H7.75452L5.38529 40.759C6.3948 36.4305 7.72649 32.2926 9.51682 28.2106C12.7035 20.9503 17.3409 13.4792 23.3879 7.70958L24.2416 7.07834L24.5649 7.98797L24.7813 6.69723L26.8781 8.42974L25.3009 6.22501L27.3908 5.76461L25.9288 5.66167L28.7394 3.75897L25.6463 5.1095L25.9643 4.54682L24.9881 5.37868L24.8102 4.08576L24.58 5.60056L23.2869 5.53748L23.6855 5.98452L20.7657 6.32072L23.2026 6.87727L21.6838 7.54115L23.3022 7.07834L22.3784 8.45515C11.9975 16.6932 5.30688 30.5838 0.000488281 41.8318C0.0900708 40.412 0.27055 39.1353 0.598654 37.7723C1.19266 35.2962 2.06308 33.3865 3.36892 31.2334C6.25944 26.4693 11.0647 19.1082 14.1683 15.4754C10.3327 18.921 6.6112 22.734 2.99482 28.3256V26.0322V23.6669V21.2985V18.9328V16.5647V14.1989V11.833V9.46487V7.09893V4.73365V2.36814V1.14441e-05Z" fill="#3869e5"/>
</svg>