<?xml version="1.0" encoding="utf-8"?>
<!-- Generator: Adobe Illustrator 24.0.2, SVG Export Plug-In . SVG Version: 6.00 Build 0)  -->
<svg version="1.1" id="Слой_1" xmlns="http://www.w3.org/2000/svg" xmlns:xlink="http://www.w3.org/1999/xlink" x="0" y="0" width="120" height="120"
	 viewBox="0 0 120 120" style="enable-background:new 0 0 120 120;" xml:space="preserve">
<style type="text/css">
	.st0{fill:#FFFFFF;}
	.st1{fill:#923336;}
	.st2{fill:#F32735;}
	.st3{fill:#757A4D;}
	.st4{fill:#5AB65F;}
</style>
<rect class="st0" width="120" height="120"/>
<title>favicon.svg</title>
<path class="st1" d="M40.3,77.3l-6.5,14.5h-5.3l-2.9-7.6l-3.5,7.6h-5.6l-5.8-14.5h-2v-5h11.9v5h-1.6l2.5,6.3l2.1-4.8l-0.6-1.5h-1v-5
	h10.3v5h-1.6l2.3,5.9l2.5-5.9h-1.8v-5h8.4v5L40.3,77.3z"/>
<path class="st1" d="M62.4,86.3c-0.5,1.2-1.3,2.3-2.3,3.2c-1,0.9-2.1,1.6-3.4,2c-2.6,0.9-5.5,0.9-8.2,0c-1.2-0.4-2.4-1.1-3.3-2
	c-1-0.9-1.7-2-2.2-3.2c-1.1-2.8-1.1-5.8,0-8.6c0.5-1.2,1.3-2.3,2.3-3.2c1-0.9,2.1-1.6,3.3-2c2.6-1,5.5-1,8.2,0
	c1.2,0.4,2.4,1.1,3.4,2c1,0.9,1.7,2,2.3,3.2C63.5,80.5,63.5,83.6,62.4,86.3L62.4,86.3z M54.6,79.5c0-0.7-0.1-1.4-0.5-2.1
	c-0.5-0.8-1.6-1.1-2.4-0.6c-0.2,0.1-0.4,0.3-0.6,0.6c-0.3,0.6-0.5,1.4-0.4,2.1v5c0,0.7,0.1,1.4,0.4,2.1c0.5,0.8,1.6,1.1,2.4,0.6
	c0.2-0.1,0.4-0.3,0.6-0.6c0.3-0.6,0.5-1.4,0.5-2.1V79.5z"/>
<path class="st1" d="M77.3,91.8v-5h1.4L76,83.5l-1.7,1.1v2.2h1.6v5H64.1v-5h2.2v-9.5h-2.2v-5h12v5h-1.8v4.1l5.8-4.1h-2.6v-5h10.6v5
	h-2.8l-3.4,2.3l5.8,7.2h2v5L77.3,91.8z"/>
<polygon class="st1" points="4.9,23.6 4.9,20.5 115.1,20.5 115.1,23.6 4.9,23.6 "/>
<polygon class="st2" points="4.9,99.5 4.9,96.4 115.1,96.4 115.1,99.5 4.9,99.5 "/>
<path class="st2" d="M27.1,28.2c2.9,0,6.4,0.3,6.4,5.3c0,2.6-0.4,3.8-1.8,4.7s-3.3,1.5-7,1.5h-3.2v8.1h-7.8V28.2H27.1z M23.4,36.1
	c0.8,0.1,1.7-0.1,2.4-0.6c0.3-0.5,0.5-1.1,0.5-1.7c0.1-0.6-0.1-1.1-0.5-1.5c-0.6-0.4-1.3-0.6-2.1-0.5h-2.1v4.3L23.4,36.1z"/>
<path class="st2" d="M43.4,28.2v19.5h-7.8V28.2H43.4z"/>
<path class="st2" d="M64.3,32.2l-9.4,11.8h9.7v3.7H45.5V44L55,32.2V32h-8.6v-3.8h17.9V32.2z"/>
<path class="st2" d="M85.4,32.2L76,44.1h9.7v3.7H66.6V44L76,32.2V32h-8.5v-3.8h17.9V32.2z"/>
<path class="st2" d="M102.8,28.2l5.7,19.5h-8.3l-0.7-2.4h-6.3l-0.7,2.4h-5.8l5.7-19.5H102.8z M98.5,41.8L96.4,34l-2.1,7.7L98.5,41.8
	z"/>
<path class="st3" d="M24.8,66.6c-0.5,0.8-1.1,1.5-1.8,2c-0.8,0.6-1.7,1-2.7,1.2c-1.1,0.3-2.2,0.4-3.3,0.4c-1.5,0-3-0.2-4.5-0.8
	c-1.3-0.5-2.4-1.2-3.3-2.2l-3,3H5.8V61h0.4c0.7,0.9,1.4,1.7,2.3,2.5c0.7,0.6,1.5,1.2,2.3,1.7c0.7,0.4,1.4,0.8,2.2,1
	c0.6,0.2,1.3,0.3,1.9,0.3c0.6,0,1.2-0.1,1.7-0.4c0.4-0.2,0.6-0.6,0.6-1.1c0-0.4-0.3-0.7-0.8-1c-0.6-0.3-1.3-0.5-2-0.7l-2.6-0.8
	c-1-0.3-1.9-0.7-2.7-1.2c-0.8-0.5-1.5-1.2-2-2c-0.6-1-0.9-2.1-0.8-3.2c0-0.8,0.2-1.7,0.7-2.4c0.5-0.8,1.1-1.5,1.8-2
	c0.8-0.6,1.7-1.1,2.7-1.4c1.1-0.3,2.2-0.5,3.3-0.5c1.3,0,2.6,0.3,3.8,0.8c0.5,0.2,1,0.5,1.5,0.9c0.4,0.3,0.8,0.7,1.1,1.1l2.5-2.8
	h0.4V58h-0.4c-1-1.4-2.3-2.5-3.8-3.5c-1.1-0.7-2.4-1.2-3.7-1.2c-0.6,0-1.2,0.1-1.7,0.4c-0.4,0.2-0.6,0.6-0.6,1.1
	c0,0.3,0.2,0.6,0.5,0.8c0.4,0.3,0.9,0.5,1.3,0.6c0.6,0.2,1.2,0.4,1.9,0.6s1.4,0.4,2.2,0.7c0.7,0.3,1.5,0.6,2.1,1
	c0.7,0.4,1.3,0.8,1.9,1.3c0.5,0.5,1,1.1,1.3,1.7c0.3,0.8,0.5,1.6,0.5,2.5C25.5,64.9,25.3,65.8,24.8,66.6z"/>
<path class="st3" d="M48.7,53.1v9.6c0,1.1-0.3,2.2-0.9,3.2c-0.6,0.9-1.4,1.8-2.3,2.4c-1,0.7-2.1,1.2-3.3,1.5
	c-1.2,0.3-2.5,0.5-3.8,0.5c-1.3,0-2.6-0.2-3.8-0.5c-1.2-0.3-2.3-0.8-3.4-1.5c-1-0.6-1.8-1.4-2.4-2.4c-0.6-1-0.9-2.1-0.9-3.2v-9.6
	l-2.9-2.5v-0.4h13.7v0.4l-2.5,2.5v10.2c0,0.3,0.1,0.6,0.3,0.9c0.2,0.3,0.4,0.5,0.7,0.7c0.3,0.2,0.6,0.3,1,0.4
	c0.4,0.1,0.8,0.2,1.2,0.2c0.4,0,0.8-0.1,1.2-0.2c0.4-0.1,0.7-0.3,1-0.4c0.3-0.2,0.5-0.4,0.7-0.7c0.2-0.3,0.3-0.6,0.3-0.9V53.1
	l-2.6-2.5v-0.4h11.8v0.4L48.7,53.1z"/>
<path class="st3" d="M70.4,66.6c-0.5,0.8-1.1,1.5-1.8,2c-0.8,0.6-1.7,1-2.7,1.2c-1.1,0.3-2.2,0.4-3.3,0.4c-1.5,0-3-0.2-4.5-0.8
	c-1.3-0.5-2.4-1.2-3.3-2.2l-3,3h-0.4V61h0.4c0.7,0.9,1.4,1.7,2.3,2.5c0.7,0.7,1.5,1.2,2.3,1.7c0.7,0.4,1.4,0.8,2.2,1
	c0.6,0.2,1.3,0.3,1.9,0.3c0.6,0,1.2-0.1,1.7-0.4c0.3-0.2,0.5-0.7,0.5-1.1c0-0.4-0.3-0.7-0.8-1c-0.6-0.3-1.3-0.5-2-0.7
	c-0.8-0.3-1.7-0.5-2.6-0.8c-0.9-0.3-1.8-0.8-2.6-1.3c-0.8-0.5-1.5-1.2-2-2c-0.6-0.9-0.9-2-0.9-3.1c0-0.8,0.2-1.7,0.7-2.4
	c0.5-0.8,1.1-1.5,1.8-2c0.8-0.6,1.8-1,2.7-1.3c1.1-0.3,2.2-0.5,3.3-0.5c1.3,0,2.6,0.3,3.8,0.8c0.5,0.2,1,0.5,1.5,0.9
	c0.4,0.3,0.8,0.7,1.1,1.1l2.5-2.8h0.4V58h-0.4c-1-1.4-2.3-2.5-3.8-3.5c-1.1-0.7-2.4-1.2-3.7-1.2c-0.6,0-1.2,0.1-1.7,0.4
	c-0.4,0.2-0.6,0.6-0.6,1.1c0,0.3,0.2,0.6,0.5,0.8c0.4,0.3,0.9,0.5,1.3,0.6c0.5,0.2,1.2,0.4,1.9,0.6s1.4,0.4,2.2,0.7
	c0.7,0.3,1.5,0.6,2.2,1c0.7,0.4,1.3,0.8,1.9,1.3c0.6,0.5,1,1.1,1.3,1.8c0.3,0.8,0.5,1.6,0.5,2.5C71.1,65,70.9,65.8,70.4,66.6z"/>
<path class="st3" d="M85.7,69.8v-0.3l2.2-2.5v-5.5h-5.5v5.5l2.2,2.5v0.3H71.3v-0.3l3-2.5V53.1l-3-2.5v-0.4h13.4v0.4l-2.2,2.5v5.1
	h5.5v-5.1l-2.2-2.5v-0.4h13.4v0.4l-3,2.5v13.8l3,2.5v0.3H85.7z"/>
<path class="st3" d="M100,69.8v-0.3l3-2.5V53.1l-3-2.5v-0.4h14.2v0.4l-3,2.5v13.8l3,2.5v0.3H100z"/>
<path class="st4" d="M112.3,82c0.2,5.9-4.5,10.8-10.3,10.9c-5.9,0.2-10.8-4.5-10.9-10.3c-0.2-5.9,4.5-10.8,10.3-10.9
	c0.1,0,0.2,0,0.3,0C107.5,71.6,112.3,76.2,112.3,82z M109.6,85.2v-6.3c0-0.1-0.1-0.1-0.1-0.1c0,0,0,0,0,0H108
	c-0.1,0-0.1,0.1-0.2,0.1v3.9c0,0.8-0.6,1.5-1.4,1.5c0,0-0.1,0-0.1,0c-0.5,0.1-1-0.3-1.1-0.9c0-0.1,0-0.1,0-0.2v-4.3
	c0-0.1-0.1-0.1-0.1-0.1h-1.5c-0.1,0-0.1,0.1-0.1,0.1v4.6c0,1.1,1,2,2.1,2c0.1,0,0.1,0,0.2,0c0.8,0,1.6-0.4,2.1-1l0.1,0.7
	c0,0.1,0.1,0.1,0.1,0.1c0,0,0,0,0,0h1.3C109.5,85.4,109.6,85.3,109.6,85.2C109.6,85.2,109.6,85.2,109.6,85.2 M102.3,80.7
	c0-0.6-0.2-1.2-0.7-1.7c-0.3-0.3-0.8-0.4-1.2-0.4c-0.7,0-1.4,0.4-1.8,1L98.7,79c0-0.1-0.1-0.1-0.1-0.1c0,0,0,0,0,0h-1.3
	c-0.1,0-0.1,0.1-0.1,0.1v6.3c0,0.1,0.1,0.1,0.1,0.1c0,0,0,0,0,0h1.5c0.1,0,0.1-0.1,0.1-0.1v-3.9c0-1.2,0.7-1.5,1.2-1.5
	c0.6,0,0.8,0.6,0.8,1c0,0.1,0.1,0.1,0.1,0.1l0,0l1.3-0.1C102.3,80.9,102.3,80.9,102.3,80.7 M95.3,85.3v-1.8c0-0.1-0.1-0.1-0.1-0.1
	c0,0,0,0,0,0h-1.8c-0.1,0-0.1,0.1-0.1,0.1v1.8c0,0.1,0.1,0.1,0.1,0.1h1.8C95.3,85.4,95.4,85.3,95.3,85.3
	C95.4,85.3,95.4,85.3,95.3,85.3"/>
</svg>
