<svg xmlns="http://www.w3.org/2000/svg" viewBox="0 0 80 80">
    <style>
        @media (prefers-color-scheme: dark) {
            .colored { fill: none }
        }
    </style>
    
    <path class="colored" fill-rule="evenodd" clip-rule="evenodd" d="M22.8346 0L57.1654 0C65.1055 0 67.9848 0.826728 70.8875 2.37915C73.7903 3.93157 76.0684 6.20969 77.6208 9.11247C79.1733 12.0152 80 14.8945 80 22.8346V57.1654C80 65.1055 79.1733 67.9848 77.6208 70.8875C76.0684 73.7903 73.7903 76.0684 70.8875 77.6208C67.9848 79.1733 65.1055 80 57.1654 80H22.8346C14.8945 80 12.0152 79.1733 9.11247 77.6208C6.20969 76.0684 3.93157 73.7903 2.37915 70.8875C0.826728 67.9848 0 65.1055 0 57.1654L0 22.8346C0 14.8945 0.826728 12.0152 2.37915 9.11247C3.93157 6.20969 6.20969 3.93157 9.11247 2.37915C12.0152 0.826728 14.8945 0 22.8346 0Z" fill="#0C73FE"/>

    <path d="M33.3529 43C32.6057 43 32 43.6057 32 44.3529V45.0485L32.0017 45.0823C32.1425 47.8981 34.2669 50.718 37.8815 50.996L37.9333 51H38.6471C39.3943 51 40 50.3943 40 49.6471C40 48.8998 39.3943 48.2941 38.6471 48.2941H38.0406C35.9629 48.1118 34.7986 46.5502 34.7059 44.9781V44.3529C34.7059 43.6057 34.1002 43 33.3529 43Z" fill="white"/>
    <path fill-rule="evenodd" clip-rule="evenodd" d="M37.0633 21.1386C30.0704 21.4465 24.6643 27.1867 24.3133 34.1775C24.1372 37.6839 23.9999 40.819 23.9999 43.7333C23.9999 46.4516 24.1194 49.1732 24.2783 52.3013C24.6318 59.2575 30.0289 64.946 36.987 65.2579C38.0408 65.3052 39.0621 65.3333 39.9999 65.3333C40.9672 65.3333 42.023 65.3034 43.1118 65.2534C50.0247 64.9363 55.4017 59.3149 55.7425 52.4031C55.8909 49.394 55.9999 46.7049 55.9999 43.7333C55.9999 40.4143 55.8786 37.3525 55.7177 34.0451C55.3806 27.1121 49.9996 21.4591 43.0655 21.1444C41.9931 21.0957 40.9535 21.0666 39.9999 21.0666C39.0847 21.0666 38.09 21.0934 37.0633 21.1386ZM28.2021 34.9793C28.4672 29.6509 32.5131 25.2987 37.7246 25.0585C38.5205 25.0219 39.2919 25 40 25C40.7433 25 41.5565 25.0241 42.3945 25.0641C47.5514 25.3105 51.5708 29.5809 51.8203 34.8547C51.844 35.3573 51.8664 35.7858 51.8866 36.1741C51.9551 37.4905 52 38.353 52 40.1412C52 41.9053 51.951 42.9092 51.8773 44.4191C51.8654 44.6617 51.8529 44.9176 51.8399 45.1915C51.5902 50.4449 47.575 54.6853 42.438 54.9338C41.5847 54.9751 40.7562 55 40 55C39.2712 55 38.4752 54.9768 37.6546 54.9382C32.4751 54.6944 28.4379 50.3907 28.1746 45.0948C28.1574 44.7491 28.1411 44.4325 28.1257 44.136L28.1256 44.1337C28.0503 42.676 28 41.7033 28 40.1412C28 38.6408 28.0464 37.8167 28.1168 36.5655C28.1424 36.1109 28.1712 35.5996 28.2021 34.9793Z" fill="white"/>
    <path fill-rule="evenodd" clip-rule="evenodd" d="M22.8346 5H57.1654C64.7004 5 66.6478 5.78184 68.5295 6.78822C70.561 7.87464 72.1254 9.43902 73.2118 11.4705C74.2182 13.3522 75 15.2996 75 22.8346V24.0213C75 24.567 74.5625 25.0112 74.0174 25.0343C73.8496 25.0414 73.6799 25.0495 73.509 25.0585C68.949 25.2987 65.4088 29.6509 65.1768 34.9793C65.15 35.5957 65.1249 36.1051 65.1026 36.5575L65.1023 36.563L65.1022 36.5655C65.0406 37.8167 65 38.6408 65 40.1412C65 41.7033 65.044 42.6764 65.1099 44.1341C65.1234 44.4312 65.1377 44.7483 65.1528 45.0948C65.3831 50.3907 68.9158 54.6944 73.4478 54.9382C73.6394 54.9485 73.8295 54.9577 74.0174 54.9657C74.5625 54.9888 75 55.433 75 55.9787V57.1654C75 64.7004 74.2182 66.6478 73.2118 68.5295C72.1254 70.561 70.561 72.1254 68.5295 73.2118C66.6478 74.2182 64.7004 75 57.1654 75H22.8346C15.2996 75 13.3522 74.2182 11.4705 73.2118C9.43903 72.1254 7.87464 70.561 6.78822 68.5295C5.78184 66.6478 5 64.7004 5 57.1654V55.9787C5 55.433 5.43745 54.9888 5.9826 54.9657C6.19692 54.9566 6.41416 54.9459 6.63326 54.9338C11.1281 54.6853 14.6414 50.4449 14.8599 45.1915C14.8711 44.9219 14.8819 44.6699 14.8921 44.4308L14.8926 44.4187C14.9571 42.9088 15 41.9053 15 40.1412C15 38.353 14.9607 37.4897 14.9007 36.1733C14.883 35.785 14.8635 35.3573 14.8427 34.8547C14.6245 29.5809 11.1075 25.3105 6.59518 25.0641C6.38898 25.0529 6.1845 25.0429 5.98262 25.0343C5.43747 25.0112 5 24.567 5 24.0213V22.8346C5 15.2996 5.78184 13.3522 6.78822 11.4705C7.87464 9.43903 9.43903 7.87464 11.4705 6.78822C13.3522 5.78184 15.2996 5 22.8346 5ZM36.911 17.6752C28.0083 18.0671 21.2855 25.3526 20.8511 34.0036C20.6751 37.5098 20.5334 40.7227 20.5334 43.7332C20.5334 46.5469 20.6571 49.3447 20.8163 52.4771C21.2547 61.1063 27.9801 68.3241 36.832 68.721C37.9213 68.7698 38.9965 68.7998 40.0001 68.7998C41.0349 68.7998 42.1461 68.7679 43.2708 68.7163C52.0583 68.3132 58.7808 61.1796 59.2051 52.5737C59.3543 49.5484 59.4668 46.7915 59.4668 43.7332C59.4668 40.3292 59.3422 37.201 59.1805 33.8766C58.7613 25.2568 52.0418 18.0814 43.2229 17.6812C42.1147 17.6309 41.0203 17.5999 40.0001 17.5999C39.0206 17.5999 37.9731 17.6284 36.911 17.6752Z" fill="white"/>
</svg>
