<svg xmlns="http://www.w3.org/2000/svg" width="32" height="32" fill="none" viewBox="0 0 32 32">
    <g fill="#2A9FFF" clip-path="url(#a)">
        <path d="M23.858 27.431c-2.813 1.925-6.204 1.825-13.01 1.866l-5.403-.01 2.734-7.363 4.05-.007c3.295.007 5.26-.243 6.86-1.387 1.555-1.114 2.503-2.828 3.642-5.92l1.415-3.794L32 10.812l-1.885 5.049c-2.39 6.388-3.475 9.602-6.257 11.57M8.142 4.608c2.813-1.925 6.204-1.825 13.01-1.865l5.403.009-2.733 7.363-4.051.008c-3.294-.008-5.26.242-6.86 1.386-1.555 1.115-2.503 2.828-3.642 5.92l-1.415 3.795L0 21.227l1.885-5.048C4.275 9.79 5.36 6.576 8.142 4.609"/>
    </g>
    <defs>
        <clipPath id="a">
            <path fill="#fff" d="M0 0h32v32H0z"/>
        </clipPath>
    </defs>
</svg>
