<?xml version="1.0" encoding="UTF-8"?>
<!DOCTYPE svg PUBLIC "-//W3C//DTD SVG 1.1//EN" "http://www.w3.org/Graphics/SVG/1.1/DTD/svg11.dtd">
<!-- Creator: CorelDRAW -->
<svg xmlns="http://www.w3.org/2000/svg" xml:space="preserve" width="39.6874mm" height="39.6874mm" version="1.1" style="shape-rendering:geometricPrecision; text-rendering:geometricPrecision; image-rendering:optimizeQuality; fill-rule:evenodd; clip-rule:evenodd"
viewBox="0 0 3968.74 3968.74"
 xmlns:xlink="http://www.w3.org/1999/xlink"
 xmlns:xodm="http://www.corel.com/coreldraw/odm/2003">
 <defs>
  <style type="text/css">
   <![CDATA[
    .fil3 {fill:#373435}
    .fil1 {fill:#1F5A34}
    .fil0 {fill:black;fill-rule:nonzero}
    .fil2 {fill:#1F5A34;fill-rule:nonzero}
   ]]>
  </style>
 </defs>
 <g id="OBJECTS">
  <metadata id="CorelCorpID_0Corel-Layer"/>
  <polygon class="fil0" points="3292.33,2528.8 3198.63,2528.8 3198.63,1638.4 3292.33,1638.4 "/>
  <path class="fil0" d="M3006 521.17l0 830.87c0,132.09 107.44,239.5 239.49,239.5 132.09,0 239.5,-107.41 239.5,-239.5l0 -830.87 -478.99 0zm239.49 1164.06c-183.74,0 -333.19,-149.44 -333.19,-333.19l0 -924.57 666.39 0 0 924.57c0,183.75 -149.45,333.19 -333.2,333.19z"/>
  <polygon class="fil0" points="3353.8,834.86 2959.13,834.86 2959.13,741.16 3353.8,741.16 "/>
  <polygon class="fil0" points="3505.66,2575.66 2985.37,2575.66 2985.37,2481.96 3505.66,2481.96 "/>
  <polygon class="fil0" points="3043.4,2575.66 278.9,2575.66 278.9,2481.96 3043.4,2481.96 "/>
  <path class="fil0" d="M605.81 2314.7l2110.67 0c-24.09,-561.28 -488.25,-1010.44 -1055.35,-1010.44 -567.08,0 -1031.24,449.16 -1055.32,1010.44zm2205.3 93.69l-2299.91 0 -0.06 -47.85c0,-634.1 515.85,-1149.98 1149.99,-1149.98 634.13,0 1150.01,515.88 1150.01,1149.98l-0.03 47.85z"/>
  <path class="fil0" d="M1661.13 1072.97c-37.92,0 -68.77,30.86 -68.77,68.81 0,37.92 30.85,68.77 68.77,68.77 37.95,0 68.81,-30.85 68.81,-68.77 0,-37.95 -30.86,-68.81 -68.81,-68.81zm0 231.28c-89.58,0 -162.48,-72.89 -162.48,-162.47 0,-89.61 72.9,-162.51 162.48,-162.51 89.61,0 162.51,72.9 162.51,162.51 0,89.58 -72.9,162.47 -162.51,162.47z"/>
  <g id="_2263592742784">
   <g>
    <path class="fil1" d="M1474.85 3516.34c0,6.9 -1.63,12.3 -4.85,16.2 -3.23,3.97 -7.44,5.97 -12.61,5.97l-19.3 0c0.17,-1.65 0.25,-2.67 0.25,-3.03l0 -75.9c0,-0.67 -0.05,-1.71 -0.17,-3.15l17.96 0c5.35,0 9.61,1.89 12.79,5.63 3.28,3.98 4.92,9.5 4.92,16.57 0,7.12 -1.97,12.96 -5.93,17.55 4.62,4.58 6.94,11.3 6.94,20.16zm-13.54 -36.26c0,-6.6 -2.43,-9.91 -7.26,-9.91l-3.76 0 0 20.16 4 0c4.68,0 7.02,-3.42 7.02,-10.25zm0.51 34.11c0,-4.13 -0.61,-7.13 -1.84,-9.01 -1.13,-1.94 -3.15,-2.92 -6.1,-2.92l-3.76 0 0 22.74 3.59 0c5.4,0 8.11,-3.61 8.11,-10.81zm56.88 -56.74l-13.87 54.26 0 23.65c0,1.11 0.05,2.17 0.17,3.15l-12.7 0c0.11,-1.06 0.17,-2.11 0.17,-3.15l0 -23.65 -13.87 -54.26 13.28 0c0.23,1.42 0.45,2.67 0.67,3.71l6.09 26.57 6.02 -26.45c0.05,-0.29 0.28,-1.58 0.67,-3.83l13.37 0z"/>
    <path class="fil2" d="M1570.95 3470.9c5.16,0 9.35,4.06 9.35,9.07 0,5.01 -4.19,9.08 -9.35,9.08 -5.15,0 -9.34,-4.07 -9.34,-9.08 0,-5.01 4.19,-9.07 9.34,-9.07zm983.82 48.72c0,6.2 0.46,10.33 1.38,12.39 0.92,2.06 3.26,3.61 7.01,4.65l0 6.08 -41.33 0 0 -6.08c3.8,-1.04 6.15,-2.47 7.05,-4.28 0.9,-1.81 1.34,-6.07 1.34,-12.76l0 -36.01c0,-10.87 0.24,-19.13 0.72,-24.78l-0.48 0 -37.6 60.79c0,6.08 0.49,10.18 1.46,12.3 0.98,2.12 3.34,3.7 7.09,4.74l0 6.08 -41.56 0 0 -6.08c3.64,-1.04 5.96,-2.59 6.96,-4.65 1.01,-2.06 1.51,-6.19 1.51,-12.39l0 -79.4c0,-6.32 -0.48,-10.46 -1.42,-12.43 -0.96,-1.96 -3.31,-3.53 -7.05,-4.7l0 -6.08 41.56 0 0 6.08c-3.75,1.23 -6.11,2.86 -7.09,4.89 -0.97,2.02 -1.46,6.14 -1.46,12.34l0 40.52c0,7.68 -0.19,13.73 -0.55,18.15l0.47 0 37.44 -60.88c0,-5.16 -0.47,-8.68 -1.42,-10.55 -0.95,-1.87 -3.27,-3.36 -6.97,-4.47l0 -6.08 41.33 0 0 6.08c-3.7,1.17 -6.02,2.75 -6.97,4.75 -0.95,1.99 -1.42,6.15 -1.42,12.48l0 79.3zm-923.44 -102.61l0 6.08c-2.48,0.31 -4.23,0.97 -5.26,1.98 -1.03,1.02 -1.54,2.57 -1.54,4.65 0,1.05 0.18,2.23 0.55,3.55 0.37,1.32 0.97,2.9 1.82,4.74 0.84,1.85 2.27,4.73 4.27,8.66l7.37 14.28 9.58 -16.4c2.1,-3.62 3.52,-6.4 4.23,-8.33 0.71,-1.94 1.07,-4.01 1.07,-6.22 0,-1.96 -0.58,-3.55 -1.74,-4.74 -1.16,-1.2 -2.77,-1.92 -4.83,-2.17l0 -6.08 32.69 0 0 6.17c-1.53,0.5 -2.98,1.28 -4.35,2.35 -1.37,1.08 -2.96,2.86 -4.75,5.35 -1.8,2.48 -4.67,7.01 -8.63,13.58l-17.1 28.37 25.81 49.55c0.9,1.66 1.81,3.3 2.73,4.93 0.92,1.63 1.82,3.07 2.69,4.33 0.87,1.26 1.64,2.2 2.3,2.81 0.66,0.61 1.3,1.09 1.94,1.43 0.16,0.08 0.32,0.16 0.48,0.24 1.08,-0.41 2.07,-1.03 2.97,-1.85 1.48,-1.36 2.82,-3.2 4.04,-5.53 1.21,-2.33 2.5,-5.68 3.87,-10.04l33.02 -102.33 21.13 0 26.13 103.16c1.16,4.6 2.13,7.87 2.93,9.81 0.79,1.93 1.82,3.5 3.08,4.7 1.27,1.19 3.04,2.07 5.31,2.62l0 6.08 -43.7 0 0 -6.08c2.74,-0.37 4.77,-1.26 6.09,-2.67 1.32,-1.41 1.98,-3.41 1.98,-5.99 0,-1.9 -0.18,-4.02 -0.55,-6.35 -0.37,-2.34 -0.98,-5.28 -1.82,-8.84l-2.14 -9.03 -33.8 0 -2.62 8.75c-0.73,2.45 -1.34,4.83 -1.81,7.14 -0.48,2.3 -0.72,4.74 -0.72,7.32 0,6.02 2.75,9.24 8.24,9.67l0 6.08 -33.81 0 0 0 -40.34 0 0 -6.08c2.32,-0.31 4.04,-0.95 5.14,-1.93 1.11,-0.99 1.67,-2.55 1.67,-4.7 0,-0.74 -0.09,-1.54 -0.28,-2.4 -0.18,-0.86 -0.5,-1.9 -0.95,-3.13 -0.45,-1.23 -0.9,-2.31 -1.34,-3.27 -0.45,-0.95 -1.36,-2.78 -2.74,-5.48l-11 -21.09 -12.9 22.2c-1.01,1.78 -1.85,3.4 -2.54,4.88 -0.68,1.47 -1.16,2.82 -1.42,4.05 -0.26,1.23 -0.4,2.67 -0.4,4.33 0,1.66 0.57,3.1 1.71,4.33 1.13,1.23 2.75,1.96 4.86,2.21l0 6.08 -32.77 0 0 -6.08c1.74,-0.61 3.34,-1.55 4.79,-2.81 1.45,-1.26 3.03,-3.08 4.75,-5.48 1.71,-2.39 4.08,-6.11 7.08,-11.14l20.67 -34.45 -19.95 -38.6c-2.17,-4.17 -4.03,-7.64 -5.58,-10.4 -1.56,-2.77 -2.87,-4.87 -3.92,-6.31 -1.06,-1.44 -1.99,-2.47 -2.81,-3.09 -0.82,-0.61 -1.78,-1.04 -2.89,-1.29l0 -6.08 44.01 0zm80.88 75.99l28.5 0 -12.67 -51.85 -15.83 51.85zm197.4 -69.91c-2.8,0.92 -4.7,1.92 -5.7,3 -1,1.07 -1.7,2.51 -2.1,4.33 -0.39,1.81 -0.59,5.01 -0.59,9.62l0 79.67c0,3.75 0.16,6.71 0.47,8.89 0.32,2.18 0.97,3.84 1.94,4.97 0.98,1.14 2.97,2.17 5.98,3.09l0 6.08 -40.61 0 0 -6.08c2.32,-0.74 3.93,-1.38 4.83,-1.93 0.89,-0.56 1.59,-1.28 2.1,-2.17 0.5,-0.89 0.87,-2.24 1.1,-4.05 0.24,-1.81 0.36,-4.8 0.36,-8.98l0 -45.13c0,-4.98 0.08,-10.84 0.24,-17.6 0.16,-6.75 0.31,-11.54 0.47,-14.36l-1.66 0c-0.63,2.45 -1.31,4.86 -2.02,7.22 -0.71,2.37 -2.05,6.59 -4,12.67l-21.21 66.5 -13.94 0 -22.32 -74.7c-1.32,-4.23 -2.48,-8.44 -3.48,-12.61l-1.43 0c0.53,10.13 0.79,22.1 0.79,35.91l0 42.37c0,4.55 0.19,7.71 0.56,9.49 0.37,1.78 1.11,3.26 2.22,4.42 1.1,1.17 3.03,2.15 5.77,2.95l0 6.08 -29.92 0 0 -6.08c1.95,-0.61 3.5,-1.29 4.63,-2.03 1.13,-0.73 1.99,-1.71 2.57,-2.94 0.58,-1.23 0.94,-2.8 1.07,-4.7 0.13,-1.9 0.2,-4.33 0.2,-7.28l0 -79.67c0,-4.66 -0.17,-7.86 -0.51,-9.58 -0.35,-1.72 -1.02,-3.13 -2.02,-4.24 -1.01,-1.1 -2.99,-2.14 -5.94,-3.13l0 -6.08 39.35 0 21.92 75.62 23.75 -75.62 37.13 0 0 6.08zm36.54 55.36c0,18.55 1.91,32.34 5.74,41.4 3.83,9.06 9.67,13.59 17.54,13.59 4.06,0 7.52,-1.28 10.37,-3.82 2.85,-2.55 5.16,-6.12 6.92,-10.69 1.77,-4.58 3.04,-9.99 3.8,-16.26 0.77,-6.26 1.15,-13.14 1.15,-20.63 0,-12.22 -0.83,-22.46 -2.49,-30.72 -1.66,-8.26 -4.17,-14.49 -7.52,-18.69 -3.36,-4.21 -7.64,-6.31 -12.87,-6.31 -7.65,0 -13.34,4.25 -17.06,12.75 -3.72,8.51 -5.58,21.63 -5.58,39.38zm21.46 65.76c-15.52,0 -27.17,-5.28 -34.95,-15.84 -7.79,-10.56 -11.68,-26.37 -11.68,-47.43 0,-13.82 1.88,-25.62 5.66,-35.42 3.77,-9.79 9.33,-17.24 16.66,-22.34 7.34,-5.09 16.07,-7.64 26.21,-7.64 15.78,0 27.62,5.27 35.54,15.8 7.92,10.53 11.88,26.17 11.88,46.92 0,11.61 -1.18,21.57 -3.53,29.89 -2.35,8.32 -5.69,15.15 -10.01,20.5 -4.33,5.34 -9.51,9.27 -15.56,11.79 -6.04,2.51 -12.78,3.77 -20.22,3.77zm93.62 -12.52c3.11,0.18 6.7,0.27 10.76,0.27 5.02,0 9.15,-0.72 12.39,-2.16 3.24,-1.44 5.76,-3.96 7.56,-7.55 1.8,-3.6 2.69,-8.52 2.69,-14.79 0,-4.42 -0.47,-8.21 -1.42,-11.37 -0.95,-3.17 -2.38,-5.71 -4.28,-7.65 -1.9,-1.93 -4.17,-3.34 -6.8,-4.23 -2.65,-0.89 -5.94,-1.34 -9.9,-1.34l-11 0 0 48.82zm10.53 -59.6c5.27,0 9.41,-0.88 12.42,-2.67 3.01,-1.78 5.29,-4.31 6.85,-7.6 1.56,-3.28 2.34,-7.81 2.34,-13.58 0,-5.1 -0.85,-9.13 -2.54,-12.12 -1.69,-2.97 -4.09,-5.11 -7.2,-6.4 -3.12,-1.28 -6.99,-1.93 -11.64,-1.93 -3.69,0 -7.28,0.15 -10.76,0.46l0 43.84 10.53 0zm24.61 4.79c7.39,2.71 13.03,6.62 16.91,11.75 3.87,5.12 5.81,11.28 5.81,18.46 0,6.15 -0.88,11.49 -2.65,16.03 -1.77,4.55 -4.46,8.28 -8.07,11.19 -3.62,2.92 -7.87,5.05 -12.75,6.4 -4.88,1.35 -11.09,2.03 -18.64,2.03l-48.77 0 0 -6.08c1.96,-0.61 3.5,-1.27 4.64,-1.98 1.13,-0.7 1.98,-1.69 2.53,-2.95 0.55,-1.26 0.91,-2.85 1.07,-4.79 0.16,-1.93 0.23,-4.37 0.23,-7.32l0 -79.4c0,-2.88 -0.06,-5.31 -0.19,-7.27 -0.13,-1.97 -0.48,-3.56 -1.03,-4.79 -0.56,-1.23 -1.4,-2.23 -2.54,-3 -1.13,-0.76 -2.7,-1.45 -4.71,-2.07l0 -6.08 51.86 0c5.91,0 10.73,0.34 14.48,1.02 4.96,0.92 9.27,2.52 12.91,4.79 3.27,2.02 5.83,4.91 7.68,8.65 1.84,3.75 2.77,8.2 2.77,13.36 0,13.88 -7.18,24.29 -21.54,31.22l0 0.83zm126.08 42.74c0,4.73 0.17,7.97 0.51,9.72 0.35,1.75 1.05,3.21 2.1,4.37 1.06,1.17 2.98,2.15 5.78,2.95l0 6.08 -41.32 0 0 -6.08c3.06,-0.92 5.04,-1.84 5.93,-2.76 0.9,-0.92 1.54,-2.23 1.91,-3.92 0.36,-1.69 0.55,-5.14 0.55,-10.36l0 -36.93 -35.78 0 0 36.93c0,2.15 0.05,4.15 0.16,5.99 0.1,1.84 0.31,3.35 0.63,4.51 0.32,1.17 0.78,2.15 1.38,2.95 0.61,0.8 1.44,1.49 2.5,2.07 1.05,0.58 2.35,1.09 3.88,1.52l0 6.08 -41.56 0 0 -6.08c1.95,-0.61 3.49,-1.27 4.63,-1.98 1.13,-0.7 1.98,-1.69 2.53,-2.95 0.55,-1.26 0.91,-2.85 1.07,-4.79 0.16,-1.93 0.24,-4.37 0.24,-7.32l0 -79.4c0,-2.88 -0.07,-5.31 -0.2,-7.27 -0.13,-1.97 -0.47,-3.56 -1.03,-4.79 -0.56,-1.23 -1.4,-2.23 -2.53,-3 -1.14,-0.76 -2.71,-1.45 -4.71,-2.07l0 -6.08 41.56 0 0 6.08c-2.8,0.92 -4.71,1.94 -5.74,3.04 -1.03,1.11 -1.76,2.57 -2.18,4.38 -0.42,1.81 -0.63,5.08 -0.63,9.81l0 30.76 35.78 0 0 -30.76c0,-4.67 -0.17,-7.91 -0.51,-9.72 -0.35,-1.81 -1.03,-3.29 -2.06,-4.42 -1.03,-1.14 -2.97,-2.17 -5.82,-3.09l0 -6.08 41.32 0 0 6.08c-2.32,0.74 -4.01,1.52 -5.06,2.35 -1.06,0.83 -1.81,1.89 -2.26,3.18 -0.45,1.29 -0.74,2.73 -0.87,4.33 -0.13,1.6 -0.2,4.05 -0.2,7.37l0 79.3zm113.89 0c0,6.2 0.46,10.33 1.38,12.39 0.92,2.06 3.26,3.61 7.01,4.65l0 6.08 -41.33 0 0 -6.08c3.8,-1.04 6.15,-2.47 7.05,-4.28 0.9,-1.81 1.34,-6.07 1.34,-12.76l0 -36.01c0,-10.87 0.24,-19.13 0.72,-24.78l-0.48 0 -37.6 60.79c0,6.08 0.49,10.18 1.46,12.3 0.98,2.12 3.34,3.7 7.09,4.74l0 6.08 -41.56 0 0 -6.08c3.64,-1.04 5.96,-2.59 6.96,-4.65 1.01,-2.06 1.51,-6.19 1.51,-12.39l0 -79.4c0,-6.32 -0.48,-10.46 -1.42,-12.43 -0.96,-1.96 -3.31,-3.53 -7.05,-4.7l0 -6.08 41.56 0 0 6.08c-3.75,1.23 -6.11,2.86 -7.09,4.89 -0.97,2.02 -1.46,6.14 -1.46,12.34l0 40.52c0,7.68 -0.19,13.73 -0.55,18.15l0.47 0 37.44 -60.88c0,-5.16 -0.47,-8.68 -1.42,-10.55 -0.95,-1.87 -3.27,-3.36 -6.97,-4.47l0 -6.08 41.33 0 0 6.08c-3.7,1.17 -6.02,2.75 -6.97,4.75 -0.95,1.99 -1.42,6.15 -1.42,12.48l0 79.3zm84.75 23.12l0 -4.61c-0.74,-1.96 -2.67,-8.01 -5.78,-18.14 -3.64,-11.98 -6.33,-20.13 -8.07,-24.45 -1.75,-4.34 -3.88,-7.5 -6.41,-9.49 -2.54,-2 -6.18,-3 -10.93,-3l-1.59 0 0 36.57c0,6.08 0.49,10.18 1.47,12.3 0.98,2.12 3.34,3.7 7.09,4.74l0 6.08 -41.57 0 0 -6.08c3.65,-1.04 5.97,-2.59 6.97,-4.65 1,-2.06 1.5,-6.19 1.5,-12.39l0 -79.4c0,-6.32 -0.47,-10.46 -1.42,-12.43 -0.95,-1.96 -3.3,-3.53 -7.05,-4.7l0 -6.08 41.57 0 0 6.08c-3.7,1.17 -6.05,2.77 -7.05,4.79 -1,2.03 -1.51,6.14 -1.51,12.34l0 32.79 1.67 0c6.38,0 11.25,-2.16 14.6,-6.49 3.36,-4.33 6.17,-10.42 8.44,-18.28 2.74,-9.64 5.26,-16.46 7.56,-20.45 2.29,-3.99 5.18,-7.03 8.66,-9.12 3.49,-2.09 8.03,-3.13 13.62,-3.13 4.33,0 8.13,0.71 11.4,2.12l0 22.75 -11.16 0c-0.58,-5.59 -2.69,-8.38 -6.33,-8.38 -2.75,0 -5.09,1.69 -7.01,5.06 -1.93,3.38 -3.95,8.2 -6.06,14.46 -3.37,10.38 -8.07,17.5 -14.09,21.37l0 0.92c5.49,0.74 9.88,2.38 13.18,4.93 3.3,2.55 5.83,5.57 7.6,9.07 1.77,3.5 4.5,10.41 8.2,20.73 4.37,12.34 7.4,19.95 9.06,22.84 1.66,2.89 4.37,4.64 8.12,5.25l0 6.08 -34.68 0zm160.61 -71.84c5.16,0 9.34,4.06 9.34,9.07 0,5.01 -4.18,9.08 -9.34,9.08 -5.16,0 -9.34,-4.07 -9.34,-9.08 0,-5.01 4.18,-9.07 9.34,-9.07z"/>
   </g>
   <path class="fil3" d="M816.96 3245.85c3.42,84.19 69.55,118.21 164.2,114.79 67.27,-3.42 125.43,-31.74 172.18,-64.8 25.09,-16.92 54.73,-43.14 82.1,-68.23 5.7,-5.51 11.4,-12.35 9.12,-14.63 -3.42,-3.42 -9.12,1.14 -25.08,15.77 -13.69,12.54 -41.05,36.49 -70.7,56.82 -44.47,29.65 -98.07,59.11 -165.34,59.11 -57.02,0 -98.07,-26.04 -98.07,-91.98 0,-170.01 296.56,-385.45 411.65,-368.53 67.9,9.98 101.47,11.66 85.52,52.29 -15.08,38.42 -52.45,72.25 -107.15,86.97 -1.41,4.86 -3.7,10.02 -6.18,14.74 72.7,-12.22 145.86,-45.02 155.52,-99.43 12.54,-69.56 -60.44,-90.09 -132.28,-85.52 -176.07,9.78 -481.8,208.48 -475.49,392.63zm638.56 -74.5c6.84,-19.38 -1.14,-39.91 -23.95,-43.33 -29.65,-4.56 -69.56,9.13 -114.03,31.93 -21.67,11.4 -41.05,23.95 -52.45,31.93 -11.41,7.98 -30.79,23.95 -34.21,27.37 -12.54,11.4 -18.24,18.24 -15.96,21.66 2.28,2.28 5.7,0 10.26,-3.42 6.84,-5.7 11.4,-10.26 14.82,-13.68l1.14 1.14c-20.52,23.94 -29.65,42.19 -31.93,59.29 -4.56,36.49 21.67,46.76 46.76,45.62 43.33,-2.28 95.78,-39.92 125.43,-66.14l1.14 1.14c-10.27,12.54 -17.11,28.51 -15.97,41.05 1.14,13.68 11.41,23.95 33.07,23.95 37.63,0 75.26,-27.37 98.07,-45.62 21.66,-17.1 49.03,-41.05 63.85,-54.73 12.54,-11.4 18.25,-17.1 14.83,-20.52 -3.43,-3.43 -9.13,2.28 -15.97,7.98 -12.54,11.4 -30.79,27.36 -54.73,46.75 -18.25,14.82 -39.91,29.65 -51.31,35.35 -9.13,4.56 -20.53,9.12 -26.23,4.56 -4.56,-3.42 -4.56,-12.55 3.42,-26.23 10.26,-18.24 25.09,-37.63 39.91,-55.87 23.95,-29.65 49.03,-58.16 63.86,-75.26 11.4,-13.68 9.12,-19.39 -14.83,-18.25 -18.24,0 -37.63,14.83 -64.99,43.33zm-28.51 -31.92c12.54,0 21.66,5.7 20.52,20.52 -1.14,18.25 -42.19,67.28 -78.68,99.21 -30.78,28.5 -74.12,53.59 -95.78,53.59 -7.98,0 -13.68,-3.42 -14.82,-11.4 -2.28,-14.83 17.1,-44.47 63.85,-90.08 41.05,-41.06 82.1,-71.84 104.91,-71.84zm183.58 46.75c-33.06,43.33 -59.29,84.38 -61.57,112.89 -1.14,17.1 7.98,31.93 34.21,31.93 43.33,0 84.38,-30.79 104.9,-46.76 23.95,-18.24 57.02,-47.89 69.56,-60.43 7.98,-7.98 10.26,-11.4 7.98,-13.68 -3.42,-3.43 -10.26,3.42 -15.96,7.98 -13.68,11.4 -33.07,29.64 -53.6,45.61 -18.24,14.82 -37.62,27.36 -51.31,34.21 -9.12,4.56 -21.66,7.98 -28.5,4.56 -9.13,-4.56 -5.71,-20.53 1.14,-33.07 20.52,-39.91 59.29,-98.07 82.1,-125.43 26.22,-1.14 44.47,-1.14 69.55,-1.14 9.13,0 19.39,1.14 20.53,-5.7 1.14,-5.71 -6.84,-6.85 -15.97,-6.85 -18.24,0 -38.77,0 -64.99,1.14 22.8,-29.64 43.33,-54.73 69.56,-84.38 26.22,-29.64 55.87,-61.57 69.55,-74.11 -1.14,-3.43 -5.7,-6.85 -17.1,-6.85 -23.95,0 -51.31,26.23 -71.84,46.76 -26.23,25.08 -71.84,75.25 -107.19,118.58 -4.56,0 -17.1,0 -31.92,1.15 -18.25,1.14 -29.65,2.28 -30.79,6.84 -1.14,5.7 4.56,5.7 12.54,5.7 13.68,0 26.23,-1.14 41.05,-1.14 -21.66,19.38 -52.45,46.75 -83.24,74.12 -7.98,6.84 -10.26,11.4 -7.98,13.68 2.28,2.28 5.7,1.14 13.68,-5.7 13.69,-12.54 27.37,-25.09 45.61,-39.91zm207.53 129.99c-17.1,0 -26.22,-9.12 -26.22,-26.23 0,-6.84 2.28,-17.1 6.84,-26.22 26.23,-6.84 65,-20.53 98.06,-36.49 34.21,-17.1 70.7,-39.91 72.98,-69.56 1.14,-14.82 -7.98,-30.79 -33.07,-30.79l-1.14 0c-30.78,0 -64.99,14.83 -98.06,31.93 -21.67,11.4 -43.33,25.09 -55.87,34.21 -17.11,12.54 -27.37,20.53 -42.19,34.21 -4.57,4.56 -9.13,9.12 -6.85,12.54 2.28,2.28 5.71,1.14 11.41,-3.42 6.84,-5.7 19.38,-17.1 22.8,-20.52l1.14 1.14c-22.8,27.36 -33.07,47.89 -34.21,70.69 -1.14,29.65 18.25,45.62 60.44,45.62 38.77,0 80.96,-14.83 128.85,-46.76 20.53,-13.68 57.02,-43.33 71.84,-57.01 6.84,-5.7 11.4,-11.4 9.12,-14.82 -2.28,-2.28 -5.7,-1.14 -12.54,4.56 -21.67,19.38 -47.89,39.91 -69.56,54.73 -50.17,34.21 -88.94,42.19 -103.77,42.19zm-12.54 -64.99c13.68,-22.81 42.19,-59.3 60.44,-76.4 22.8,-21.67 39.91,-33.07 50.17,-33.07 10.26,0 14.82,5.7 13.68,15.96 -1.14,15.96 -18.24,39.91 -46.75,59.3 -23.94,15.96 -54.73,28.5 -77.54,34.21zm383.14 -93.51c0,-20.52 -33.07,-21.66 -65,-22.8 -14.82,-1.14 -18.24,-9.13 -3.42,-25.09 6.84,-6.84 11.4,-10.26 19.39,-15.96 -1.14,-6.85 -11.41,-11.41 -20.53,-11.41 -18.24,0 -34.21,7.99 -43.33,19.39 -11.4,13.68 -10.26,29.64 0,36.49 -9.12,10.26 -23.95,25.08 -39.91,39.91 -20.52,19.38 -30.79,28.5 -44.47,41.05 -11.4,10.26 -14.82,15.96 -12.54,18.24 2.28,2.28 6.84,0 17.1,-9.12 12.54,-11.4 26.23,-23.95 45.61,-42.19 18.25,-17.11 34.21,-33.07 43.33,-43.33 5.7,2.28 14.83,2.28 26.23,2.28 28.51,0 50.17,-3.42 45.61,9.12 -3.42,7.98 -46.75,38.77 -74.12,65 -25.08,23.94 -53.59,55.87 -54.73,80.96 -1.14,17.1 11.4,29.65 35.35,29.65 37.63,0 77.54,-27.37 101.48,-45.62 28.51,-21.66 51.31,-42.19 65,-54.73 9.12,-9.12 17.1,-15.96 13.68,-19.38 -2.28,-2.29 -9.12,1.14 -17.1,9.12 -14.83,13.68 -28.51,25.08 -53.6,44.47 -18.24,14.82 -38.77,27.36 -51.31,34.21 -12.54,6.84 -20.52,7.98 -25.08,4.56 -4.57,-3.42 -4.57,-11.41 1.14,-21.67 5.7,-11.4 19.38,-30.79 38.77,-53.59 25.08,-29.65 52.45,-53.6 52.45,-68.42l0 -1.14zm290.77 -181.3c-21.66,0 -38.77,4.56 -45.61,21.66 -5.7,14.83 -4.56,31.93 1.14,38.77 11.4,0 39.91,-12.54 53.6,-30.79 13.68,-17.1 6.84,-29.64 -7.99,-29.64l-1.14 0zm-158.5 183.58c-18.24,15.97 -62.71,62.72 -85.52,98.07 -9.12,13.68 -17.1,28.5 -17.1,43.33 0,18.24 10.26,29.65 34.21,29.65 37.62,0 76.39,-28.51 99.2,-46.76 22.81,-18.24 51.31,-43.33 65,-57.01 3.42,-3.42 15.96,-14.82 12.54,-18.24 -3.42,-3.43 -7.98,1.14 -18.25,10.26 -18.24,17.1 -28.5,26.22 -52.45,45.61 -19.38,15.96 -38.77,28.51 -50.17,34.21 -11.4,5.7 -21.67,7.98 -27.37,3.42 -4.56,-4.56 -3.42,-12.55 3.42,-25.09 6.84,-11.4 20.53,-31.93 39.91,-55.87 22.81,-28.51 41.05,-50.18 61.58,-72.98 13.68,-14.82 11.4,-18.25 -12.54,-18.25 -21.67,0 -36.49,4.57 -66.14,25.09 -27.37,18.24 -68.42,52.45 -80.96,63.86 -12.55,11.4 -14.83,15.96 -12.55,18.24 3.43,2.28 7.99,-1.14 17.11,-9.12 11.4,-10.26 23.95,-20.53 41.05,-34.21 17.1,-13.68 41.05,-30.79 49.03,-34.21zm328.41 169.91c35.34,0 79.81,-28.51 102.62,-45.62 23.95,-18.24 58.16,-49.03 68.42,-59.29 7.98,-7.98 11.4,-12.54 9.12,-14.82 -2.28,-2.29 -5.7,-1.14 -14.82,6.84 -12.55,11.4 -35.35,31.92 -54.74,46.75 -25.08,19.38 -41.05,28.5 -54.73,35.35 -9.12,4.56 -21.67,9.12 -27.37,4.56 -4.56,-3.42 -4.56,-10.26 4.56,-25.09 5.7,-9.12 19.39,-28.51 37.63,-50.17 18.25,-22.81 42.19,-49.03 45.61,-69.56 2.29,-19.38 -11.4,-30.79 -35.35,-30.79 -34.2,0 -84.38,31.93 -124.29,61.58 -39.91,29.65 -77.53,62.72 -104.9,85.52l-1.14 -1.14c12.54,-18.24 36.49,-49.03 53.59,-71.84 14.82,-20.52 23.95,-35.35 23.95,-49.03 0,-12.54 -6.85,-25.09 -28.51,-25.09 -23.95,0 -46.75,13.69 -77.54,37.63 -20.53,15.97 -45.61,39.91 -59.29,52.46 -13.69,12.54 -19.39,18.24 -17.11,21.66 3.42,3.42 7.98,0 19.39,-10.26 15.96,-14.82 34.2,-30.79 49.03,-43.33 13.68,-11.4 30.79,-23.95 44.47,-30.79 6.84,-3.42 13.68,-5.7 17.1,-1.14 2.28,3.42 0,9.12 -7.98,19.38 -12.54,15.97 -33.07,42.2 -45.61,59.3 -18.24,23.95 -42.19,61.58 -50.17,76.4 -9.12,15.96 -1.14,18.25 14.82,18.25 12.54,0 19.39,-2.29 29.65,-10.27 50.17,-38.77 77.54,-64.99 127.71,-103.76 36.49,-28.51 68.42,-47.9 88.94,-58.16 11.41,-5.7 23.95,-10.26 29.65,-6.84 5.7,3.42 3.42,10.26 -1.14,15.96 -13.68,15.97 -30.79,35.35 -47.89,55.88 -21.67,26.22 -46.75,54.73 -47.89,79.82 -1.14,19.38 12.54,29.65 34.21,29.65zm225.77 63.85c-22.81,31.93 -69.56,93.5 -115.17,151.66 -90.08,115.17 -157.36,174.46 -208.67,205.25 -20.52,12.54 -53.59,23.95 -71.84,18.24 -11.4,-3.42 -18.24,-13.68 -17.1,-30.78 4.56,-59.3 88.94,-137.98 184.72,-201.83 106.05,-70.7 160.78,-98.07 228.06,-142.54zm133.42 -254.28c12.54,0 21.66,5.7 20.52,20.52 -1.14,18.25 -42.19,67.28 -78.68,99.21 -30.79,28.5 -74.12,53.59 -95.78,53.59 -7.99,0 -13.69,-3.42 -14.83,-11.4 -2.28,-14.83 17.11,-44.47 63.86,-90.08 41.05,-41.06 82.1,-71.84 104.91,-71.84zm-109.47 20.52c-22.81,11.4 -41.05,23.95 -52.46,31.93 -11.4,7.98 -28.5,21.67 -31.92,25.09 -12.55,11.4 -20.53,20.52 -18.25,23.94 2.28,2.28 5.7,0 10.26,-3.42 6.85,-5.7 11.41,-10.26 14.83,-13.68l1.14 1.14c-20.53,23.94 -29.65,42.19 -31.93,59.29 -3.42,37.63 21.67,46.76 46.75,45.62 42.19,-2.28 92.37,-37.64 123.15,-63.86l1.14 1.14c-18.24,27.37 -55.87,78.68 -76.4,107.19 -78.68,49.03 -126.57,74.12 -231.47,141.39 -88.95,58.16 -221.22,153.94 -230.34,222.36 -5.7,38.77 25.08,47.89 53.59,47.89 21.67,0 49.03,-7.98 78.68,-23.95 67.28,-35.35 158.5,-107.18 234.9,-191.57 33.07,-36.48 107.19,-132.27 156.22,-204.11 36.49,-20.52 84.38,-50.17 125.43,-80.96 26.23,-20.52 50.17,-39.91 67.28,-55.87 5.7,-5.7 14.82,-13.68 11.4,-17.1 -2.28,-2.28 -7.98,0 -13.68,5.7 -23.95,21.66 -45.61,38.77 -70.7,58.15 -34.21,26.23 -84.38,57.02 -109.47,71.84 34.21,-45.61 74.12,-101.49 93.51,-126.57 22.8,-29.65 38.76,-51.32 59.29,-75.26 12.54,-13.68 6.84,-18.25 -14.82,-18.25 -17.11,0 -29.65,10.27 -54.74,38.77l-1.14 0c2.28,-18.24 -3.42,-35.35 -26.22,-38.77 -29.65,-4.56 -72.98,10.27 -114.03,31.93z"/>
  </g>
 </g>
</svg>
