<?xml version="1.0" encoding="UTF-8"?> <svg xmlns="http://www.w3.org/2000/svg" xmlns:xlink="http://www.w3.org/1999/xlink" version="1.1" id="Слой_1" x="0px" y="0px" viewBox="0 0 1000 1000" style="enable-background:new 0 0 1000 1000;" xml:space="preserve"> <style type="text/css"> .st0{fill:#181717;} </style> <g> <g> <path class="st0" d="M345.76,824.37c-52.08-32.75-93.63-77.59-124.66-134.5c-31.04-56.9-46.56-120.17-46.56-189.85 c0-69.65,15.52-132.94,46.56-189.84c31.03-56.9,72.58-101.73,124.66-134.5c52.07-32.75,108.11-49.14,168.12-49.14 c49.66,0,95.7,11.38,138.12,34.14c42.42,22.76,78.11,53.64,107.07,92.59c28.97,38.98,49.31,82.25,61.05,129.84h-86.91 c-15.87-51.03-42.94-93.11-81.21-126.22c-38.29-33.11-84.33-49.66-138.12-49.66c-44.84,0-86.74,12.41-125.7,37.25 c-38.98,24.83-70.02,59.49-93.11,103.98c-23.12,44.48-34.66,95.02-34.66,151.56c0,56.56,11.54,107.08,34.66,151.57 c23.1,44.49,54.14,79.15,93.11,103.98c38.96,24.83,80.85,37.24,125.7,37.24c55.87,0,103.1-16.38,141.74-49.14 c38.62-32.75,66.21-74.65,82.77-125.7h86.9c-11.73,47.59-32.25,90.7-61.55,129.32c-29.32,38.64-65.54,69.32-108.63,92.08 c-43.12,22.76-90.19,34.14-141.23,34.14C453.87,873.52,397.82,857.14,345.76,824.37z"></path> </g> <g> <path class="st0" d="M432.32,697.5c-23.56-12.07-41.97-28.6-55.23-49.59c-13.27-20.98-20.49-44.74-21.68-71.27h84.93 c2.37,18.61,9.89,33.76,22.57,45.43c12.67,11.68,30.08,17.52,52.26,17.52c20.98,0,36.91-4.16,47.81-12.47 c10.89-8.31,16.33-18.61,16.33-30.88c0-10.29-3.56-19.01-10.69-26.13c-7.13-7.12-16.04-12.96-26.72-17.52 c-10.69-4.55-25.54-10-44.54-16.33c-27.72-9.1-50.39-18.11-68-27.02c-17.62-8.91-32.76-21.77-45.43-38.6 c-12.68-16.82-19.01-38.7-19.01-65.62c0-22.96,5.74-43.55,17.22-61.76c11.48-18.21,28.21-32.56,50.18-43.06 c21.97-10.49,47.81-15.74,77.5-15.74c28.51,0,53.84,5.94,76.02,17.82c22.17,11.88,39.58,28.12,52.26,48.7 c12.66,20.59,19.59,43.56,20.78,68.89h-84.92c-1.19-17.42-7.53-31.67-19.01-42.76c-11.49-11.08-26.53-16.63-45.14-16.63 c-19,0-33.75,4.26-44.24,12.77c-10.5,8.52-15.74,19.51-15.74,32.96c0,10.3,3.56,19,10.69,26.13c7.13,7.12,15.93,12.87,26.43,17.22 c10.49,4.36,25.44,9.71,44.84,16.04c27.32,8.71,49.89,17.32,67.7,25.83c17.82,8.52,33.05,20.99,45.73,37.42 c12.66,16.43,19,37.91,19,64.44c0,23.36-5.85,44.24-17.51,62.65c-11.68,18.41-28.8,32.96-51.37,43.65 c-22.57,10.69-49.29,16.03-80.17,16.03C483.49,715.61,455.88,709.57,432.32,697.5z"></path> </g> </g> </svg> 