<?xml version="1.0" encoding="UTF-8"?> <svg xmlns="http://www.w3.org/2000/svg" width="32" height="32" viewBox="0 0 32 32" fill="none"> <rect width="32" height="32" fill="url(#paint0_linear_329_760)"></rect> <mask id="mask0_329_760" style="mask-type:alpha" maskUnits="userSpaceOnUse" x="3" y="3" width="26" height="26"> <path d="M6.76416 23.4375V10.4938H15.3264V13.0162H9.58331V15.8092H15.0034V17.9999H9.58331V20.9151H15.3264V23.4375H6.76416ZM17.5345 23.4375V10.4938H25.5556V12.9988H20.3537V16.1583H25.2327V18.4713H20.3537V23.4375H17.5345Z" fill="white"></path> <rect x="4.01562" y="4.01562" width="23.9688" height="23.9688" stroke="#CCEDDA" stroke-width="0.40625"></rect> <rect x="3" y="3" width="2.4375" height="2.4375" fill="#D9D9D9"></rect> <rect x="26.5625" y="3" width="2.4375" height="2.4375" fill="#D9D9D9"></rect> <rect x="26.5625" y="26.5625" width="2.4375" height="2.4375" fill="#D9D9D9"></rect> <rect x="3" y="26.5625" width="2.4375" height="2.4375" fill="#D9D9D9"></rect> </mask> <g mask="url(#mask0_329_760)"> <rect x="3" y="3" width="26" height="26" fill="white"></rect> </g> <defs> <linearGradient id="paint0_linear_329_760" x1="16" y1="0" x2="16" y2="32" gradientUnits="userSpaceOnUse"> <stop stop-color="#6BD0C8"></stop> <stop offset="1" stop-color="#84E885"></stop> </linearGradient> </defs> </svg> 