<?xml version="1.0" encoding="utf-8"?>
<!-- Generator: Adobe Illustrator 15.1.0, SVG Export Plug-In  -->
<!DOCTYPE svg PUBLIC "-//W3C//DTD SVG 1.1//EN" "http://www.w3.org/Graphics/SVG/1.1/DTD/svg11.dtd" [
	<!ENTITY ns_flows "http://ns.adobe.com/Flows/1.0/">
]>
<svg version="1.1"
	 xmlns="http://www.w3.org/2000/svg" xmlns:xlink="http://www.w3.org/1999/xlink" xmlns:a="http://ns.adobe.com/AdobeSVGViewerExtensions/3.0/"
	 x="0px" y="0px" width="120px" height="120px" viewBox="17.443 10.043 120 120" enable-background="new 17.443 10.043 120 120"
	 xml:space="preserve">
<defs>
</defs>
<g>
	<defs>
		<path id="SVGID_7_" d="M50.036,122.492l-0.016-0.006L50.036,122.492z M46.909,109.787v0.007c-0.089,0.079-0.169,0.168-0.25,0.247
			c-0.014,0.006-0.014,0.009-0.014,0.009c-0.489,0.505-0.909,1.004-1.274,1.51l-0.008,0.015c-0.054,0.078-0.104,0.155-0.155,0.221
			c-0.013,0.02-0.019,0.032-0.031,0.055c-0.044,0.069-0.092,0.133-0.132,0.198l-0.03,0.043c-0.051,0.088-0.096,0.154-0.133,0.221
			c-0.008,0.022-0.014,0.037-0.03,0.066c-0.032,0.064-0.085,0.134-0.109,0.196c-0.009,0.022-0.02,0.041-0.031,0.053
			c-0.155,0.305-0.284,0.612-0.402,0.917c-0.005,0.021-0.013,0.046-0.028,0.075c-0.017,0.059-0.034,0.108-0.045,0.171
			c-0.02,0.034-0.02,0.063-0.024,0.101c-0.022,0.054-0.038,0.101-0.048,0.157c-0.005,0.043-0.014,0.068-0.027,0.105
			c-0.013,0.058-0.021,0.108-0.031,0.167c-0.006,0.027-0.02,0.074-0.025,0.104c0,0.055-0.015,0.104-0.021,0.16
			c-0.011,0.04-0.011,0.071-0.014,0.114c-0.005,0.053-0.022,0.1-0.022,0.153c-0.002,0.033-0.002,0.071-0.002,0.115
			c-0.002,0.05-0.006,0.103-0.006,0.146c-0.009,0.058,0,0.102,0,0.162v0.225c0.003,0.053,0.006,0.088,0.006,0.15
			c0,0.034,0.002,0.08,0.02,0.116c0,0.053,0.008,0.102,0.008,0.143c0.011,0.048,0.017,0.085,0.026,0.133
			c0.006,0.046,0.006,0.102,0.025,0.155c0.006,0.033,0.017,0.075,0.024,0.111c0.007,0.054,0.026,0.099,0.035,0.152
			c0.014,0.039,0.016,0.078,0.031,0.121c0.022,0.049,0.027,0.104,0.047,0.162c0.012,0.036,0.018,0.068,0.042,0.104
			c0.019,0.057,0.04,0.106,0.056,0.178c0.014,0.039,0.029,0.056,0.04,0.089c0.03,0.09,0.073,0.178,0.104,0.258l0.006,0.017
			c0.041,0.087,0.089,0.175,0.143,0.271c0.016,0.027,0.026,0.053,0.04,0.073c0.036,0.066,0.076,0.138,0.1,0.198
			c0.025,0.027,0.053,0.06,0.059,0.094c0.042,0.06,0.083,0.117,0.125,0.176c0.014,0.038,0.036,0.069,0.059,0.093
			c0.036,0.069,0.087,0.127,0.128,0.188c0.02,0.035,0.039,0.065,0.065,0.087c0.047,0.066,0.089,0.131,0.134,0.192
			c0.031,0.027,0.051,0.063,0.073,0.088c0.053,0.064,0.107,0.13,0.178,0.201c0.016,0.021,0.03,0.04,0.052,0.072
			c0.069,0.083,0.153,0.17,0.231,0.253l0.013,0.012c0.167,0.197,0.362,0.374,0.561,0.56c0.017,0.023,0.037,0.035,0.057,0.058
			c0.078,0.074,0.163,0.146,0.244,0.217c0.021,0.022,0.051,0.053,0.085,0.071c0.078,0.069,0.156,0.132,0.236,0.203
			c0.038,0.028,0.062,0.05,0.1,0.077c0.083,0.066,0.169,0.133,0.251,0.203c0.024,0.022,0.059,0.047,0.092,0.074
			c0.09,0.074,0.183,0.14,0.284,0.22c0.031,0.011,0.051,0.036,0.076,0.052c0.127,0.082,0.248,0.164,0.358,0.247
			c0.021,0.011,0.024,0.02,0.024,0.02c0.131,0.096,0.284,0.194,0.421,0.283c0.424,0.273,0.876,0.548,1.362,0.82
			c0.496,0.255,0.996,0.513,1.499,0.761l0.096,0.052c9.356,4.349,26.081,6.431,28.256,2.552c2.003-3.587-6.048-10.718-27.194-20.435
			C50.336,106.886,48.368,108.341,46.909,109.787"/>
	</defs>
	<clipPath id="SVGID_8_">
		<use xlink:href="#SVGID_7_"  overflow="visible"/>
	</clipPath>
	
		<radialGradient id="SVGID_9_" cx="-403.4214" cy="-340.124" r="2.8107" gradientTransform="matrix(-6.2071 0.1349 -0.1349 -6.2071 -2485.043 -1941.374)" gradientUnits="userSpaceOnUse">
		<stop  offset="0" style="stop-color:#EE8422"/>
		<stop  offset="0.682" style="stop-color:#EE8422"/>
		<stop  offset="0.7976" style="stop-color:#EB7623"/>
		<stop  offset="1" style="stop-color:#E76025"/>
	</radialGradient>
	<polygon clip-path="url(#SVGID_8_)" fill="url(#SVGID_9_)" points="82.42,129.725 44.024,130.558 43.478,105.431 81.873,104.598 	
		"/>
</g>
<g>
	<defs>
		<path id="SVGID_6_" d="M74.995,14.204c-1.996,3.595,6.035,10.72,27.193,20.435c0.138-0.083,0.276-0.174,0.408-0.255
			c0.949-0.605,1.835-1.201,2.637-1.794c0.008-0.005,0.01-0.011,0.027-0.024l0.307-0.231c0.018-0.015,0.031-0.02,0.052-0.031
			c0.091-0.07,0.185-0.151,0.291-0.236l0.034-0.02c0.099-0.079,0.206-0.157,0.3-0.238l0.013-0.002
			c0.415-0.341,0.809-0.686,1.188-1.016v-0.006c0.078-0.078,0.154-0.147,0.235-0.222c0.014-0.022,0.034-0.03,0.044-0.047
			c0.077-0.074,0.147-0.138,0.215-0.208c0.025-0.022,0.043-0.046,0.062-0.062c0.071-0.065,0.133-0.138,0.197-0.202
			c0.025-0.023,0.049-0.039,0.049-0.039c0.083-0.086,0.146-0.153,0.207-0.226c0.022-0.021,0.04-0.039,0.051-0.059
			c0.062-0.072,0.132-0.143,0.196-0.214c0.005-0.005,0.011-0.017,0.011-0.017c0.226-0.244,0.426-0.492,0.608-0.73l0.008-0.014
			c0.052-0.071,0.107-0.133,0.159-0.203c0.004-0.025,0.023-0.042,0.04-0.07c0.045-0.059,0.091-0.121,0.134-0.183
			c0.014-0.025,0.03-0.06,0.059-0.091c0.026-0.056,0.067-0.112,0.112-0.17c0.011-0.034,0.03-0.062,0.047-0.082
			c0.045-0.072,0.073-0.126,0.102-0.185c0.017-0.034,0.037-0.062,0.064-0.09c0.026-0.065,0.059-0.121,0.093-0.174
			c0.011-0.033,0.03-0.064,0.042-0.089c0.032-0.057,0.065-0.122,0.091-0.177c0.01-0.021,0.02-0.04,0.02-0.04
			c0.073-0.164,0.132-0.303,0.194-0.448c0,0,0.011-0.016,0.019-0.03c0.017-0.057,0.037-0.112,0.054-0.169
			c0.018-0.031,0.034-0.073,0.04-0.102c0.012-0.054,0.03-0.104,0.044-0.161c0.018-0.033,0.031-0.067,0.04-0.108
			c0.002-0.051,0.026-0.099,0.035-0.158c0.013-0.029,0.018-0.076,0.032-0.118c0.009-0.048,0.021-0.093,0.025-0.145
			c0.011-0.043,0.011-0.081,0.024-0.121c0.012-0.049,0.018-0.1,0.022-0.151c0.007-0.039,0.016-0.079,0.021-0.123
			c0-0.048,0.006-0.091,0.019-0.147c0-0.038,0.006-0.073,0.006-0.118v-0.146v-0.177v-0.206v-0.146
			c-0.006-0.042-0.019-0.085-0.024-0.132c0-0.046-0.005-0.093-0.005-0.135c-0.016-0.051-0.021-0.092-0.026-0.138
			c-0.012-0.051-0.025-0.083-0.025-0.138c-0.011-0.039-0.016-0.082-0.027-0.134c-0.009-0.04-0.023-0.084-0.034-0.132
			c-0.014-0.042-0.028-0.09-0.04-0.129c-0.011-0.05-0.019-0.099-0.034-0.147c-0.016-0.039-0.026-0.087-0.047-0.125
			c-0.011-0.054-0.027-0.1-0.053-0.156l-0.04-0.118c-0.024-0.062-0.056-0.129-0.087-0.188c-0.021-0.045-0.04-0.081-0.045-0.117
			c-0.046-0.077-0.075-0.148-0.122-0.229c-0.018-0.03-0.033-0.07-0.052-0.094c-0.035-0.063-0.065-0.113-0.1-0.167
			c-0.014-0.042-0.041-0.082-0.059-0.118c-0.048-0.053-0.07-0.104-0.1-0.157c-0.034-0.043-0.06-0.073-0.083-0.124
			c-0.03-0.042-0.075-0.096-0.116-0.152c-0.023-0.028-0.055-0.076-0.08-0.116c-0.029-0.045-0.072-0.097-0.112-0.151
			c-0.043-0.04-0.063-0.08-0.1-0.116c-0.036-0.05-0.083-0.107-0.134-0.16c-0.026-0.04-0.054-0.076-0.089-0.107
			c-0.061-0.065-0.111-0.137-0.174-0.202c-0.02-0.015-0.049-0.042-0.069-0.073c-0.082-0.088-0.172-0.178-0.263-0.273
			c-0.02-0.018-0.044-0.045-0.075-0.067c-0.064-0.066-0.141-0.129-0.199-0.205c-0.034-0.028-0.07-0.057-0.11-0.089
			c-0.075-0.062-0.124-0.113-0.188-0.177c-0.05-0.031-0.088-0.066-0.129-0.102l-0.191-0.166c-0.05-0.04-0.098-0.073-0.139-0.116
			c-0.068-0.051-0.137-0.104-0.214-0.16c-0.03-0.03-0.085-0.07-0.137-0.112c-0.077-0.05-0.151-0.105-0.219-0.165
			c-0.045-0.034-0.093-0.069-0.146-0.104c-0.082-0.061-0.164-0.123-0.249-0.183c-0.042-0.023-0.084-0.059-0.125-0.087
			c-0.127-0.086-0.267-0.178-0.398-0.276c-0.206-0.126-0.418-0.261-0.639-0.387v-0.005c-0.214-0.132-0.447-0.265-0.678-0.392
			c-0.019-0.014-0.027-0.022-0.027-0.022c-0.517-0.267-1.017-0.518-1.522-0.77l-0.088-0.042c-5.928-2.749-14.808-4.602-21.079-4.602
			C78.541,12.161,75.794,12.782,74.995,14.204"/>
	</defs>
	<clipPath id="SVGID_10_">
		<use xlink:href="#SVGID_6_"  overflow="visible"/>
	</clipPath>
	
		<radialGradient id="SVGID_11_" cx="-348.2388" cy="-264.8262" r="2.8094" gradientTransform="matrix(2.6978 -7.419 7.419 2.6978 2991.8628 -1836.0936)" gradientUnits="userSpaceOnUse">
		<stop  offset="0" style="stop-color:#EE8422"/>
		<stop  offset="0.2778" style="stop-color:#EE8422"/>
		<stop  offset="0.7296" style="stop-color:#EE8422"/>
		<stop  offset="0.8184" style="stop-color:#ED7D23"/>
		<stop  offset="0.9456" style="stop-color:#E96A24"/>
		<stop  offset="1" style="stop-color:#E76025"/>
	</radialGradient>
	<polygon clip-path="url(#SVGID_10_)" fill="url(#SVGID_11_)" points="65.78,32.015 77.421,0 118.083,14.787 106.442,46.8 	"/>
</g>
<g>
	<defs>
		<path id="SVGID_5_" d="M103.099,112.201c-17.18,8.092-35.367,17.052-25.65,17.096c25.981,0.133,48.592-16.688,56.506-41.283
			C130.838,94.765,122.563,103.041,103.099,112.201"/>
	</defs>
	<clipPath id="SVGID_12_">
		<use xlink:href="#SVGID_5_"  overflow="visible"/>
	</clipPath>
	
		<radialGradient id="SVGID_13_" cx="-317.9238" cy="-297.3164" r="2.8109" gradientTransform="matrix(11.1437 0 0 11.1437 3633.7629 3414.8252)" gradientUnits="userSpaceOnUse">
		<stop  offset="0" style="stop-color:#0D5495"/>
		<stop  offset="0.2474" style="stop-color:#1D427F"/>
		<stop  offset="0.3922" style="stop-color:#1A4885"/>
		<stop  offset="0.5918" style="stop-color:#115797"/>
		<stop  offset="0.6612" style="stop-color:#0D5E9F"/>
		<stop  offset="0.7897" style="stop-color:#206EAE"/>
		<stop  offset="1" style="stop-color:#478ECC"/>
	</radialGradient>
	<rect x="67.731" y="88.013" clip-path="url(#SVGID_12_)" fill="url(#SVGID_13_)" width="66.223" height="41.414"/>
</g>
<g>
	<defs>
		<path id="SVGID_4_" d="M106.205,18.381c18.479,12.205-21.768,24.252-53.2,38.521c-21.147,9.61-34.526,17.145-33.13,26.434
			c1.431,9.563,9.467,28.316,30.162,39.156c-0.486-0.272-0.938-0.547-1.362-0.82c-18.486-12.204,21.761-24.237,53.206-38.522
			c21.134-9.597,34.515-17.125,33.135-26.432c-1.434-9.54-9.469-28.276-30.126-39.12C105.357,17.856,105.792,18.12,106.205,18.381"
			/>
	</defs>
	<clipPath id="SVGID_14_">
		<use xlink:href="#SVGID_4_"  overflow="visible"/>
	</clipPath>
	
		<radialGradient id="SVGID_15_" cx="-338.1938" cy="-307.6436" r="2.8087" gradientTransform="matrix(31.0931 0 0 31.0931 10611.1152 9614.1289)" gradientUnits="userSpaceOnUse">
		<stop  offset="0" style="stop-color:#79A6D8"/>
		<stop  offset="0.2086" style="stop-color:#568AC7"/>
		<stop  offset="0.2394" style="stop-color:#4F84C1"/>
		<stop  offset="0.4553" style="stop-color:#215C9C"/>
		<stop  offset="0.5636" style="stop-color:#0F4C8D"/>
		<stop  offset="0.5949" style="stop-color:#134A8A"/>
		<stop  offset="0.6947" style="stop-color:#1A4683"/>
		<stop  offset="0.7835" style="stop-color:#134A87"/>
		<stop  offset="0.7907" style="stop-color:#124A88"/>
		<stop  offset="0.8435" style="stop-color:#114F90"/>
		<stop  offset="0.9206" style="stop-color:#0E5BA4"/>
		<stop  offset="0.9607" style="stop-color:#2F75B8"/>
		<stop  offset="1" style="stop-color:#5392CE"/>
	</radialGradient>
	<rect x="18.479" y="17.597" clip-path="url(#SVGID_14_)" fill="url(#SVGID_15_)" width="117.916" height="104.895"/>
</g>
<g>
	<defs>
		<path id="SVGID_3_" d="M101.88,83.149c-7.953,3.609-16.464,7.076-24.441,10.441c13.376,5.634,25.275,10.978,30.542,16.214
			c5.986-3.07,10.72-6.03,14.467-8.856c0.007-0.006,0.024-0.022,0.045-0.027c0.295-0.226,0.584-0.452,0.867-0.676
			c0.019-0.014,0.037-0.022,0.069-0.041c0.269-0.226,0.545-0.441,0.814-0.659c0.021-0.014,0.025-0.027,0.051-0.04
			c0.264-0.218,0.517-0.435,0.772-0.649c0.012-0.005,0.03-0.013,0.03-0.013c0.246-0.213,0.483-0.414,0.698-0.613
			c0.05-0.049,0.093-0.082,0.131-0.115c0.214-0.186,0.414-0.361,0.622-0.555c0.048-0.052,0.12-0.109,0.175-0.167
			c0.177-0.167,0.358-0.34,0.542-0.513c0.074-0.055,0.144-0.133,0.214-0.188c0.164-0.163,0.329-0.331,0.483-0.484
			c0.072-0.078,0.149-0.151,0.219-0.226c0.126-0.124,0.239-0.236,0.352-0.354c0.11-0.122,0.22-0.228,0.326-0.35
			c0.087-0.087,0.178-0.191,0.265-0.281c0.131-0.144,0.252-0.277,0.383-0.41c0.061-0.084,0.135-0.167,0.207-0.247
			c0.145-0.161,0.283-0.321,0.416-0.479c0.047-0.058,0.101-0.109,0.149-0.181c0.287-0.342,0.559-0.682,0.817-1.016
			c0.011-0.012,0.018-0.022,0.03-0.039c0.168-0.209,0.327-0.438,0.485-0.647l0.011-0.017c0.978-1.37,1.745-2.685,2.331-3.947
			c0.501-1.718,0.844-3.294,1.061-4.678c0.698-4.721-2.414-8.989-8.418-13.307C120.793,74.207,112.272,78.428,101.88,83.149"/>
	</defs>
	<clipPath id="SVGID_16_">
		<use xlink:href="#SVGID_3_"  overflow="visible"/>
	</clipPath>
	
		<radialGradient id="SVGID_17_" cx="-330.3325" cy="-317.1777" r="2.8108" gradientTransform="matrix(14.708 11.1996 -11.1996 14.708 1383.7336 8428.0391)" gradientUnits="userSpaceOnUse">
		<stop  offset="0" style="stop-color:#EE8422"/>
		<stop  offset="0.7534" style="stop-color:#EE8422"/>
		<stop  offset="0.8507" style="stop-color:#EC7923"/>
		<stop  offset="1" style="stop-color:#E76025"/>
	</radialGradient>
	<polygon clip-path="url(#SVGID_16_)" fill="url(#SVGID_17_)" points="98.827,41.943 154.883,84.625 114.325,137.893 58.269,95.206 
			"/>
</g>
<g>
	<defs>
		<path id="SVGID_2_" d="M29.03,41.899c-0.018,0.011-0.045,0.029-0.064,0.059c-0.229,0.196-0.45,0.402-0.659,0.595
			c-0.042,0.032-0.092,0.073-0.131,0.116c-0.21,0.185-0.394,0.367-0.596,0.554c-0.051,0.051-0.102,0.092-0.15,0.138
			c-0.185,0.185-0.368,0.362-0.545,0.542c-0.056,0.051-0.107,0.113-0.163,0.158c-0.154,0.158-0.301,0.312-0.444,0.47
			c-0.076,0.076-0.145,0.149-0.216,0.22c-0.116,0.126-0.239,0.258-0.357,0.381c-0.084,0.097-0.172,0.183-0.255,0.284
			c-0.102,0.122-0.214,0.247-0.321,0.36c-0.076,0.085-0.148,0.166-0.22,0.25c-0.112,0.136-0.218,0.273-0.336,0.401
			c-0.077,0.091-0.161,0.19-0.231,0.287c-0.087,0.107-0.174,0.209-0.253,0.313c-0.098,0.123-0.196,0.241-0.295,0.362
			c-0.033,0.053-0.076,0.112-0.113,0.154c-0.129,0.184-0.266,0.358-0.398,0.533c-0.012,0.033-0.04,0.073-0.068,0.108
			c-0.137,0.194-0.274,0.394-0.416,0.584c-0.005,0.016-0.017,0.035-0.03,0.054c-0.75,1.123-1.36,2.207-1.845,3.263
			c-0.494,1.695-0.848,3.267-1.048,4.632c-0.711,4.728,2.395,8.998,8.399,13.311c5.809-4.171,14.33-8.398,24.731-13.126
			c7.958-3.602,16.455-7.067,24.434-10.433c-13.362-5.629-25.251-10.965-30.53-16.197C38.935,34.36,33.172,38.256,29.03,41.899"/>
	</defs>
	<clipPath id="SVGID_18_">
		<use xlink:href="#SVGID_2_"  overflow="visible"/>
	</clipPath>
	
		<radialGradient id="SVGID_19_" cx="-330.4063" cy="-317.1523" r="2.8139" gradientTransform="matrix(14.729 11.2157 -11.2157 14.729 1386.8572 8440.4258)" gradientUnits="userSpaceOnUse">
		<stop  offset="0" style="stop-color:#EE8422"/>
		<stop  offset="0.6582" style="stop-color:#EE8422"/>
		<stop  offset="0.9294" style="stop-color:#E96824"/>
		<stop  offset="1" style="stop-color:#E76025"/>
	</radialGradient>
	<polygon clip-path="url(#SVGID_18_)" fill="url(#SVGID_19_)" points="40.552,2.183 96.603,44.864 56.051,98.117 0,55.437 	"/>
</g>
<g>
	<defs>
		<path id="SVGID_1_" d="M77.127,10.79c-25.85,0-48.328,16.79-56.205,41.295c3.115-6.771,11.384-15.041,30.848-24.203
			c17.171-8.083,35.371-17.044,25.646-17.093H77.127L77.127,10.79z"/>
	</defs>
	<clipPath id="SVGID_20_">
		<use xlink:href="#SVGID_1_"  overflow="visible"/>
	</clipPath>
	
		<radialGradient id="SVGID_21_" cx="-379.8579" cy="-322.4263" r="2.8109" gradientTransform="matrix(-11.1428 0 0 -11.1428 -4168.7515 -3554.2629)" gradientUnits="userSpaceOnUse">
		<stop  offset="0" style="stop-color:#0D5495"/>
		<stop  offset="0.172" style="stop-color:#1D427F"/>
		<stop  offset="0.2876" style="stop-color:#1A4885"/>
		<stop  offset="0.447" style="stop-color:#115797"/>
		<stop  offset="0.5025" style="stop-color:#0D5E9F"/>
		<stop  offset="0.9444" style="stop-color:#478ECC"/>
		<stop  offset="1" style="stop-color:#478ECC"/>
	</radialGradient>
	<rect x="20.923" y="10.79" clip-path="url(#SVGID_20_)" fill="url(#SVGID_21_)" width="66.219" height="41.295"/>
</g>
</svg>
