<svg width="16" height="16" viewBox="0 0 16 16" fill="none" xmlns="http://www.w3.org/2000/svg">
<g clip-path="url(#clip0_884_21247)">
<path d="M5.5514 0.65625V3.11424V5.57326H3.10383H0.65625V8.03125H3.10383H5.5514H8V5.57326V3.11424V0.65625H5.5514Z" fill="#009F76"/>
<path d="M8 15.375V12.9223C9.30221 12.9207 10.5506 12.4049 11.4714 11.488C12.3922 10.5711 12.9102 9.32794 12.9119 8.03125H15.375C15.375 9.97812 14.5983 11.8453 13.2158 13.2219C11.8333 14.5985 9.95823 15.3719 8.00308 15.3719" fill="#BFE0D6"/>
<path d="M12.9178 5.56966C11.9519 5.56953 10.9955 5.75953 10.1031 6.12883C9.21074 6.49812 8.39989 7.03947 7.71687 7.72196C7.03386 8.40446 6.49206 9.21472 6.12241 10.1065C5.75276 10.9983 5.5625 11.9541 5.5625 12.9193V15.375H8.01972V12.9193C8.02026 11.6207 8.53628 10.3753 9.45455 9.45646C10.3728 8.53761 11.6183 8.02035 12.9178 8.01818H15.375V5.5625L12.9178 5.56966Z" fill="#009F76"/>
</g>
<defs>
<clipPath id="clip0_884_21247">
<rect width="16" height="16" rx="8" fill="white"/>
</clipPath>
</defs>
</svg>
