<svg width="249" height="249" viewBox="0 0 249 249" fill="none" xmlns="http://www.w3.org/2000/svg">
<path fill-rule="evenodd" clip-rule="evenodd" d="M124.642 150.813L121.434 142.173H96.581L93.3757 150.813H99.5211V160.523H76.5387V150.813H81.5265L102.907 96.3867H115.022L136.488 150.813H141.476V160.523H118.494V150.813H124.642ZM100.056 132.731H117.871L108.964 108.056L100.056 132.731ZM136.666 125.248V133.621H166.24V125.248H156.352V89.8848H148.515L133.817 96.2992L136.488 103.336L146.554 99.4155V125.248H136.666Z" fill="#020204"/>
<path fill-rule="evenodd" clip-rule="evenodd" d="M177.601 126.85C183.687 117.11 187.215 105.607 187.215 93.2755C187.215 58.2437 158.816 29.832 123.772 29.832C88.7279 29.832 60.3162 58.2437 60.3162 93.2755C60.3162 105.856 63.9926 117.57 70.3077 127.434L76.7004 113.667C73.9804 107.413 72.4631 100.519 72.4631 93.2755C72.4631 64.9905 95.4801 41.9789 123.772 41.9789C152.057 41.9789 175.068 64.9905 175.068 93.2755C175.068 100.282 173.653 106.964 171.099 113.054L177.601 126.85Z" fill="#E41F11"/>
<path fill-rule="evenodd" clip-rule="evenodd" d="M123.417 59.0898C107.078 59.0898 93.3874 70.6088 90.0219 85.9487L102.626 85.9399C105.651 77.3771 113.816 71.2368 123.417 71.2368C131.1 71.2368 137.86 75.1699 141.805 81.1282H155.366C150.456 68.259 137.99 59.0898 123.417 59.0898Z" fill="#E41F11"/>
<path fill-rule="evenodd" clip-rule="evenodd" d="M140.603 171.373C136.387 178.32 132.781 184.198 129.372 189.682C127.481 192.722 125.488 195.912 123.452 199.094C120.999 195.355 118.423 191.329 115.666 186.927C111.98 181.044 108.932 176.031 106.207 171.373H93.5377C94.2148 172.521 94.8016 173.52 95.2057 174.222C98.381 179.741 101.935 185.625 106.391 192.738C110.725 199.656 114.624 205.669 118.314 211.124C118.541 211.459 118.792 211.817 119.055 212.186L123.621 218.575L128.034 212.079C128.787 210.97 129.525 209.85 130.255 208.731C133.163 204.28 136.016 199.723 138.666 195.461C142.523 189.257 146.622 182.566 151.566 174.403C152.013 173.664 152.696 172.588 153.474 171.373H140.603Z" fill="#E41F11"/>
</svg>
