<?xml version="1.0" encoding="UTF-8"?>
<!DOCTYPE svg PUBLIC "-//W3C//DTD SVG 1.1//EN" "http://www.w3.org/Graphics/SVG/1.1/DTD/svg11.dtd">
<!-- Creator: CorelDRAW X7 -->
<svg xmlns="http://www.w3.org/2000/svg" xml:space="preserve" width="120px" height="120px" version="1.1" style="shape-rendering:geometricPrecision; text-rendering:geometricPrecision; image-rendering:optimizeQuality; fill-rule:evenodd; clip-rule:evenodd"
viewBox="0 0 12000000 12000000"
 xmlns:xlink="http://www.w3.org/1999/xlink">
 <defs>
  <style type="text/css">
   <![CDATA[
    .fil0 {fill:#FEFEFE}
    .fil1 {fill:#AA2F4B}
    .fil2 {fill:white}
   ]]>
  </style>
 </defs>
 <g id="Слой_x0020_1">
  <metadata id="CorelCorpID_0Corel-Layer"/>
  <circle class="fil0" cx="6023206" cy="6071282" r="5888428"/>
  <path class="fil1" d="M2383876 5412204c46035,4914 89803,17499 130773,52725l24416 20939 184102 335321 -65122 92562c-33449,47509 -74948,80617 -123780,106167 10469,529 20863,1436 31446,2722l86967 10507 44259 76914c10356,17915 39194,62664 62476,90822 2494,-2305 4800,-4611 6614,-6576 51364,-51213 92901,-102388 161009,-133040l28498 -12889 31181 -2230c84813,-5934 166565,20070 228965,79749 109494,104504 122722,274698 75100,412576 -23433,68183 -54048,133493 -83150,199258 -18369,41386 -63346,134023 -68788,176202 -340,2797 -605,5707 -869,8467 0,3930 151,7823 491,11716 14702,67276 47811,116259 98230,147743 33185,26192 69242,49285 104543,71282 157456,97891 368506,198578 421458,395606 26343,97663 26078,189960 -2268,287132 -26911,92335 -76725,178395 -83755,276097 -13115,181872 83188,421457 157154,584696 30841,68221 65121,134666 97626,201979l110703 265287c32995,137538 8126,279082 -13191,416318 -11490,73399 -32051,192832 -7635,263850 19956,58016 78842,87005 132096,106319 8352,2986 16667,5745 25058,8504l251076 58545 5329 50835c3779,35150 8504,70262 14324,105109l20221 120455 -318994 -75138c-27667,-7710 -54993,-16138 -82017,-25852 -130432,-47206 -239321,-126955 -286263,-263964 -83036,-241778 63346,-497011 13871,-704130 -14060,-58810 -65008,-156663 -91994,-212713 -33298,-69053 -68863,-137878 -100461,-207762 -94337,-208291 -196423,-476866 -179528,-710972 10280,-142753 57336,-206590 93544,-330559 15004,-51440 14702,-94413 756,-146193 -23698,-88215 -234975,-197557 -309395,-243857 -180435,-112290 -352556,-253192 -321299,-492551 16403,-125217 120341,-300096 164032,-426825 15043,-43427 26722,-140335 -32995,-149708 -23320,17840 -59982,59226 -74986,74268 -182099,182137 -327612,82886 -443758,-101821 -62060,-869 -122268,11074 -183232,-21581 -74004,-39534 -95585,-120681 -99894,-199560 -4195,-78086 12851,-150767 76007,-200657 30728,-24189 85645,-41839 123856,-62778l-68523 -124839c-23660,-2116 -60284,-1134 -76914,-1776 -272203,-10091 -229268,-199712 -116032,-370018 -10545,-6350 -21204,-14173 -33903,-26117 -42029,-39874 -69922,-86098 -78652,-144379 -8467,-57146 3741,-111723 2456,-168416 -1549,-70414 -25965,-129375 -63232,-188071 -24038,-37909 -73512,-83415 -103559,-120379 -134779,-165620 -119245,-318994 78236,-426900 85154,-46413 167472,-56504 261961,-41235 34810,5594 107453,26192 140221,20221 3100,-567 5859,-1399 8580,-2419 -15496,-25852 -32051,-51062 -50041,-74873 -17953,-23773 -36926,-42822 -43881,-73475 -8353,-36472 36397,-202962 43314,-246086 4082,-24718 13606,-87875 -9109,-107869 -17991,-15874 -65348,-31710 -88101,-42066 -61796,-28271 -109380,-65159 -145324,-124574l-24491 -40479 24037 -40555c86325,-145550 475997,-309923 629976,-357583 186597,-57751 423310,-97210 608999,-17499l865139 355240 -68258 86929c-28309,48228 -29141,87799 -53934,137803l-848736 -345829c-121664,-47585 -308525,-7786 -429357,29669 -114370,35377 -227114,83906 -331996,142527 9184,6350 18331,13493 27666,21619 101859,89349 114256,217476 93544,344620 -7975,49361 -17273,98608 -29292,147213 29783,42218 56316,87006 81223,132436l54955 100196 -66407 92674c-50533,70716 -118111,120190 -203756,135875 -114671,20863 -243025,-51515 -327006,-5669 -4914,2797 -13040,7370 -20826,12472 6501,9109 13531,18180 17764,23358 40290,49361 86552,90142 121361,145059 62817,98873 100915,203038 103711,321716 681,34091 -1889,67843 -4271,101783 -453,6992 -1738,18255 -1549,27024 2419,1398 5216,2645 7672,3779 52120,24983 90974,53972 115655,109116 34394,76611 14513,154962 -32127,220461zm8597988 -127106c-51553,-75289 -92825,-155831 -131490,-241476 -24945,-55408 -65575,-158930 -109947,-199182 -80467,-73323 -391146,-307769 -488394,-326440 -80504,-15420 -40895,-5934 -119849,-29102 -71963,-21166 -132587,-54237 -168720,-124272 -10053,-19729 -12548,-39043 -20145,-55182 -7634,-13077 -25625,-30198 -44107,-46110 -45922,84360 -93090,162407 -192908,190943 -33865,9600 -69317,11301 -104014,4838 -101367,-18709 -201714,-58205 -297299,-97021 -70413,-28876 -884340,-233766 -954110,-264115l-55937 -24379 10507 -61039c5858,-32882 10469,-66029 14286,-99176l11830 -103937 838683 215812c133909,58243 324134,149595 467682,178735 15307,-17046 40592,-67238 48529,-81978 73701,-135686 173557,-211013 318011,-101859 92902,69997 141129,111648 180361,215888 45694,18822 78350,21959 114218,28913 156624,30010 486919,275492 610284,387631 82545,74759 126010,183724 171214,283580 51666,114067 104126,213280 192416,303498l22413 22866 0 191548 -56655 15571c-341369,94716 -593050,316651 -921871,408608 -137084,38324 -169399,49058 -308524,27968 -93318,-14211 -486693,-109380 -554536,-43994 -22980,22186 -56958,108473 -70942,139655 -38249,85796 -81110,166829 -147289,234408 -56354,57411 -137841,112819 -203832,159081 -94451,66104 -190111,130508 -283882,197670 -48756,34923 -486428,345338 -394283,426031 455436,397874 374176,215057 445043,814758 66066,559525 10771,472444 -204739,937291 -41386,89727 -3817,220424 -55824,346396 -66406,161387 -233576,270465 -355353,386610 -25701,24492 -49966,50798 -71396,79295l-512318 460955 -116410 -165469c-8240,-38438 63988,-76650 52876,-114407l-12397 -42709 440809 -359322c14627,-15988 29821,-31295 45468,-46224 75591,-71925 257009,-205834 295221,-298169 22601,-54879 13871,-145324 20220,-206401 5518,-52158 17840,-102350 39988,-150124 40328,-87308 84624,-172196 130168,-256631 21770,-40177 46753,-83680 61115,-127145 13002,-39118 15345,-80277 15156,-121134 -454,-97324 -12775,-195781 -24227,-292197 -11717,-100272 -19502,-200619 -29783,-301004 -1625,-16819 -5631,-63118 -12926,-77707 -8693,-15837 -47471,-46791 -62362,-59302 -84511,-70639 -170345,-139541 -253268,-212108 -6539,-5556 -12586,-11376 -18520,-17386l-3439 -3628 -2873 -3818c-89500,-118224 -101330,-250206 -23849,-376670 32202,-55672 74684,-105374 119547,-150879 103296,-104732 223485,-194232 342428,-279385 94640,-67616 190867,-132549 286036,-199220 54350,-38022 121815,-81525 168115,-128694 42444,-43313 71547,-104013 96114,-159081 34545,-77216 65348,-160518 127257,-220121 105525,-101708 255044,-103598 390503,-87421 126389,14854 250055,44485 375650,63534 100120,15118 105449,5934 204020,-21543 100876,-28271 194458,-71547 286830,-120870 91692,-48832 181305,-101255 274396,-147667 56051,-27742 113008,-53405 171024,-76385z"/>
  <path class="fil2" d="M10368028 1628420c-10281,-28498 -37305,-47358 -67617,-47358l-3170892 -9411 -210370 0c-37569,0 -68863,29027 -71887,66444 -10961,135686 -43767,265778 -93544,383738 -125027,-71622 -257123,-114520 -388953,-114520l-122269 -38c3364,-8202 5594,-16970 5896,-26230 2759,-107831 4498,-220159 4498,-336229 0,-965562 -74646,-1455089 -221595,-1455089 -147138,0 -221633,489527 -221633,1455089 0,116070 1587,228550 4497,336229 265,9222 2571,18028 5934,26268l-106885 -38c-139012,0 -278629,48567 -409439,129412 -51667,-117847 -86287,-249488 -98457,-391070 -3137,-37569 -34508,-66142 -71888,-66142l-566 -38 -3364217 1587c-30312,0 -57487,18973 -67881,47396 -10393,28384 -2003,60321 21090,79862l428337 362043c13871,11679 31899,18482 49814,16894l1140971 -49852 -845901 72757c-31295,2645 -57563,25587 -64366,56466 -6614,30766 7370,62400 34772,78275l535487 306181c10960,6350 23357,9562 35830,9562 4573,-38 9184,-453 13682,-1474l232707 -44939c-24794,9865 -44032,30955 -46489,58092 -3023,31144 14438,60662 43163,73059l559903 240946c9071,3855 18897,5934 28573,5934 8920,0 17915,-1739 26419,-5065l896963 -351725 -704962 306484c-28271,12435 -45619,41235 -43276,71963 2419,30728 24076,56693 53972,64366l469459 120719c5933,1436 11867,2154 17915,2154 11716,-38 22790,-3931 33222,-9411 -3742,32164 -5896,64139 -5896,95169 0,639387 667393,639424 988315,639424l890802 -37c488545,0 988164,-76498 988164,-643280 0,-26835 -2457,-54426 -5178,-82130 4913,-340 9940,-604 15005,-1889l469495 -120757c29859,-7635 51402,-33600 53972,-64328 2344,-30803 -14967,-59490 -43124,-71925l-702392 -305085c-869,-1588 -1890,-2986 -2910,-4422l905127 354710c8466,3289 17537,5065 26381,5065 9713,0 19502,-2041 28573,-5934l559714 -240984c28914,-12359 46375,-41840 43465,-73021 -2721,-29027 -23395,-51969 -50835,-60624l245746 47471c4498,1021 9071,1474 13720,1474 12397,-38 24832,-3175 35793,-9524l535486 -306257c27478,-15874 41538,-47434 34734,-78237 -6689,-30917 -32882,-53821 -64365,-56429l-935288 -80580 1226086 57638c18596,1399 36057,-5215 49928,-16894l428412 -362119c23018,-19502 31408,-51326 21053,-79786z"/>
  <polygon class="fil1" points="6065651,11246282 5829051,10850676 5618416,3949858 6321337,3949858 "/>
  <path class="fil2" d="M5864881 10840056l168946 282559 250017 -7136738 -628123 0 209160 6854179zm169815 424632l-241702 -412916 -210634 -6900856 36094 -37228 702808 0 36095 37568 -255574 7296311 -67087 17121z"/>
  <path class="fil1" d="M6180700 1544816c0,-763734 -66822,-1382938 -149405,-1382938 -82432,0 -149444,619204 -149444,1382938 0,115503 1625,227075 4460,334226l289929 0c2760,-107188 4460,-218723 4460,-334226z"/>
  <polygon class="fil1" points="4922525,2216858 3308506,2578939 3868220,2820037 5004844,2374503 "/>
  <polygon class="fil1" points="4873240,1978028 2501232,2182011 3036681,2488343 4906236,2126300 "/>
  <polygon class="fil1" points="7166785,2126376 9036265,2488381 9571714,2182048 7199819,1978104 "/>
  <path class="fil1" d="M7129595 1643916l-210408 0c-14098,176996 -63081,340575 -135988,483367 -133796,-90861 -277041,-147856 -418397,-147856l-651670 -38c-148990,0 -299151,63270 -437407,163617 -76272,-144115 -126918,-310982 -142225,-491304l-194193 1398 -3170779 0 428223 361817 2766972 -120644c26267,144379 73323,279801 137273,401615 -79938,83113 -152429,177261 -213658,276890l-771822 335511 469344 120643 137198 -85833c-23698,84284 -37871,166867 -37871,243819 0,490019 410308,567121 916201,567121l890954 0c505817,0 915936,-81033 915936,-571128 0,-67465 -10961,-139352 -29858,-212524l93846 58545 469496 -120643 -726732 -315895c-67730,-111308 -150162,-216266 -241551,-307655 62702,-121513 109720,-255649 134854,-399159l2764666 129337 428337 -361817 -3170741 -9184z"/>
  <polygon class="fil1" points="7059333,2374465 8195844,2820037 8755709,2578901 7141500,2216858 "/>
  <path class="fil1" d="M5656666 11406988c-144228,0 -293672,-7597 -444211,-22337l-10356 -1171 -8277 -6350c-283126,-220310 -432835,-532728 -421571,-879917 11830,-364954 165771,-696156 433098,-932491l21241 -18936 23396 16441c205418,142716 447234,239850 699028,280594l281274 40252 -250962 35793c-40290,5631 -81147,9978 -122306,13001 -292462,59490 -506120,306068 -515947,598984 -9373,292499 154206,649364 642297,773258l137009 34734 -137009 35112c-44032,11414 -89689,21241 -138634,28611 -65500,3024 -126993,4460 -188070,4422z"/>
  <path class="fil2" d="M5223983 9500167l-42445 37569c-274887,242798 -433099,583373 -445382,958305 -11679,359057 142905,682020 435555,909511l16479 12813 20788 2192c151446,14929 302175,22564 447688,22564 61644,-38 123704,-1474 185953,-4195l3742 -189 3931 -567c45884,-6917 92523,-16404 142036,-29141l273904 -70413 -274207 -69468c-467190,-118678 -623966,-458648 -614857,-737315 9071,-274546 209198,-506006 487222,-564438 40328,-3061 80580,-7105 120114,-12850l500299 -71169 -500148 -71850 -1587 -113 -5783 -567 -151 416 -22224 -4347c-246540,-39647 -483065,-134627 -684439,-274395l-46488 -32353zm5366 91692c205570,142754 448973,243554 713882,286414l0 1966 416 0c8542,0 16479,1927 24680,2230 2041,264 4082,264 5934,604 -39383,5594 -79673,9676 -120114,12700 -307769,62589 -538624,317293 -549018,633906 -9978,303762 162559,680697 669132,809353 -42860,10923 -87043,20636 -134816,27855 -61342,2608 -122307,4044 -182779,4044 -149293,-37 -296393,-8088 -440621,-22223 -277343,-215737 -418358,-520633 -407700,-850210 12019,-367826 173973,-688521 421004,-906639z"/>
  <path class="fil1" d="M6281388 11704175c-51365,0 -103220,-1097 -155378,-3553 -5480,-454 -18444,-2192 -36359,-5481 -39118,-2948 -79862,-8390 -120417,-14173l-254930 -36095 255233 -35414c298055,-41273 547468,-138558 741019,-289287l8163 -6350 10508 -1133c402900,-39875 782291,-134250 1128952,-280216 -11074,-13569 -24530,-29594 -37569,-45468 -71963,-87232 -72001,-87232 -64630,-107831l6954 -19087 86136 -17764c202282,-41423 431247,-88177 626272,-146230l132813 -39724 -96643 99365c-524526,539342 -1186061,860982 -1916724,932453l-58432 6954c-11112,832 -126048,6048 -126048,6048 -37833,1398 -75553,3023 -112026,3023l-16894 -37z"/>
  <path class="fil2" d="M8730612 10582252l-265475 79106c-193627,57639 -422063,104392 -623324,145702l-66255 13380 -39837 8239 -13682 38400c-14324,39875 -7975,47698 70716,142943 2343,2419 4346,5065 6500,7824 -331013,133909 -691695,221141 -1073695,258975l-20636 2041 -16592 12850c-188335,146760 -432078,241665 -723898,282068l-510352 70753 510088 72190c41273,5782 82696,11376 126048,14853 12964,2570 27402,4460 33071,4914 53707,2721 106054,3779 158023,3779l17235 -38c36661,0 74759,-1436 113046,-3023l16592 -567 26835 -1474 27742 -1323c8088,-529 15118,-643 22224,-945 11263,-453 22791,-718 34658,-1890l128883 -11716 -1965 -2722c712181,-85077 1356745,-406982 1870840,-935665l193210 -198654zm-244839 148272c-535184,550341 -1212329,868503 -1953952,926860l1323 1738c-18785,1701 -36095,1436 -54464,2722 -17726,831 -35490,1625 -53405,2607 -42860,1739 -85607,3629 -127031,3629l-16894 -38c-50760,0 -102086,-983 -153488,-3591 -4573,-302 -15987,-2003 -31899,-4762 -41726,-3515 -81714,-8806 -121702,-14438 313325,-43313 568256,-148574 758518,-296543 424746,-42142 824510,-144946 1182395,-301457 2722,-1399 -128051,-155340 -125330,-155907 215246,-44372 477282,-95547 695929,-160820z"/>
  <path class="fil1" d="M6802777 7389590c-229835,-192304 -518630,-325079 -834941,-384418l-189998 -35528 215434 -40404c16744,-3477 33449,-6765 50646,-9373 16630,-3666 45922,-6198 77859,-8655 35641,-3024 75327,-5934 106508,-13304 1291435,-151144 1430976,-1215428 1443146,-1538240 9676,-255233 -42444,-470478 -147025,-606202 -128429,-166867 -277910,-258861 -420248,-258861 -15231,-76 -30425,1171 -45732,3326 -55749,19011 -70300,73928 -87044,137727 -10733,40781 -21996,83452 -47697,117241 -67654,89198 -123819,133645 -260260,145362 -122836,-14589 -231725,-42747 -299152,-223334 -62929,-416809 359171,-522334 489868,-545011 116901,-20259 221859,-29859 320808,-29859 276059,-37 499619,79522 683570,242950 281652,250735 433250,487978 428639,1023162 -6955,786185 -458120,1718713 -1450630,2030262l-18746 5896 -15005 -12737z"/>
  <path class="fil2" d="M7174949 4063925c-101065,0 -208026,9978 -326855,30463 -139012,24114 -587154,136555 -521465,578612l1134 7559 2645 6841c74458,199598 199334,231346 320922,246502l7635 1020 7710 -718c148196,-12926 214754,-65991 285810,-159232 29858,-39912 42557,-87799 53858,-130244 17726,-67313 28990,-97890 64177,-112025 11188,-1323 22413,-2004 33638,-2004 131151,-75 270162,87043 391713,244991 99175,128731 148839,335775 139465,582656 -11792,315403 -148272,1355951 -1407353,1503014l-3969 453 -3893 1021c-27591,6312 -66747,9373 -101103,12283 -33638,2570 -62514,5027 -85493,10054 -12662,1739 -30161,5065 -47358,8844l-25096 4762 -379694 70716 379694 71169c310414,58016 593503,188448 818575,376670l30161 25209 37682 -11830c1009745,-316877 1468696,-1265053 1475763,-2064277 4725,-548904 -151295,-792572 -440733,-1050262 -190716,-169853 -422176,-252209 -707570,-252247zm0 72189c258710,0 475694,70338 659456,233917 271032,241022 421269,464280 416658,995987 -7219,814947 -484803,1700760 -1425193,1996057 -230704,-193173 -523619,-330938 -851495,-392280 24945,-4800 49512,-10394 74910,-14135 40555,-8958 128354,-8807 187239,-22527 1030079,-120416 1443865,-851192 1470813,-1572028 8995,-236676 -32882,-471991 -154319,-629598 -139730,-181343 -298698,-272997 -448860,-272997 -16819,-76 -33902,1285 -50646,3742 -127257,41991 -99893,191434 -158514,268953 -59037,77518 -105979,120000 -234597,131074 -120001,-15004 -204134,-43578 -262339,-199787 -53783,-361363 301609,-469193 462126,-496935 111459,-19238 216001,-29405 314761,-29443z"/>
  <path class="fil1" d="M5650316 11704175c-36359,0 -73890,-1550 -111572,-2986 0,0 -115088,-5216 -126351,-6048l-64366 -5971 1134 -1626c-728773,-72454 -1388683,-393753 -1912037,-931810l-96568 -99365 132852 39686c194873,58054 424103,104845 626385,146268l86022 17651 6917 19200c7370,20599 7370,20599 -64630,107831 -13153,15836 -26457,31899 -37531,45468 346622,145928 726316,240379 1129103,280216 148007,14740 295069,22072 436992,22072 59943,-38 120416,-1285 181229,-4006 42558,-6728 85871,-15874 127598,-26570 488015,-124045 651632,-480873 642145,-773410 -9675,-292802 -223636,-539380 -520293,-599399 -36699,-2646 -77669,-6803 -118111,-12397 -6954,-643 -11981,-1209 -17008,-1776l-36397 302 -1738 -7710c-253948,-44259 -497200,-143888 -705416,-288380 -391070,-271901 -626838,-678845 -647323,-1116555 -20675,-446970 170646,-862758 538359,-1170716l15118 -12435 18973 5783c155907,48794 317143,80429 478832,93582 70035,11074 193021,34507 247863,47508 33524,3326 75969,12700 124763,28120l108284 34508 -108284 34318c-333772,106281 -787848,503323 -768912,908869 16894,366238 331920,686328 765586,778398l23131 5783c8504,2306 16856,4800 25701,6236 44712,2419 269330,50382 294918,55862 151447,50192 290610,131793 417489,244121 267744,236147 421269,567387 433288,932491 11414,347076 -138332,659494 -421722,879766 -203567,158666 -464394,260903 -775375,304065 -40442,5632 -81185,11112 -123781,14438 -14400,2835 -27401,4611 -32428,5065 -52725,2419 -104240,3590 -155944,3590l-16895 -37z"/>
  <path class="fil2" d="M5106816 7281192l-30312 25361c-376670,315366 -572413,741548 -551209,1199781 20938,449275 262489,866349 662782,1144713 202281,140561 437332,239359 683040,287548l0 12548 72908 1285c7937,1210 13871,1776 19200,2041l2305 302c38401,5519 78388,9525 118830,12548 278023,58470 478151,289930 487222,564665 8957,278478 -147819,618486 -614971,737126 -43654,11150 -84322,19654 -124347,25852 -58886,2419 -117356,3780 -175409,3780 -140902,-38 -286868,-7521 -433666,-21959 -381962,-37833 -742606,-124877 -1073657,-259013 2116,-2759 4308,-5216 6349,-7786 78653,-95320 85154,-103068 70867,-142942l-13569 -38212 -39836 -8277 -66407 -13531c-201374,-41159 -429659,-87912 -623286,-145701l-265627 -79144 193324 198691c514095,528646 1158735,850626 1871030,935779l-870 907 127787 13418c11830,1171 23055,1436 34658,1889 7030,303 13985,416 21053,983l28573 1436 25890 1172 17575 718c38287,1587 76384,3175 113613,3175l16592 -38c52196,0 104429,-1096 157230,-3855 6652,-491 20938,-2154 41008,-5745 36397,-2646 77821,-8126 118980,-13871 317029,-44107 583827,-148725 792572,-311284 292651,-227567 447234,-550454 435404,-909360 -12094,-375120 -170344,-715507 -445231,-958456 -130470,-115428 -273980,-199561 -426484,-250207l-3742 -1209 -3855 -794c-40706,-8882 -241287,-51591 -299038,-56882 -6615,-1323 -12964,-3061 -19465,-4800 -8391,-2306 -16630,-4460 -25134,-6350 -417792,-88630 -720836,-394812 -736975,-744647 -18217,-388500 420967,-770235 743778,-872850l216568 -69052 -216719 -68599c-49248,-15572 -92259,-25361 -131793,-29820 -58659,-13871 -179037,-36360 -243139,-46753 -166829,-13720 -321073,-43768 -476714,-92713l-37683 -11868zm16026 80883c150728,47206 312266,80844 486844,94980 66558,10620 188259,33789 242496,46753 37833,3931 79295,13871 122193,27326 -345225,109985 -814116,516665 -794046,944850 18331,395984 353992,718568 794046,812112 17121,3704 33184,9374 50343,12133 47358,2834 293369,55861 293369,55861 149708,49626 284109,132247 401351,235769 246880,218118 409023,538775 421004,906639 10847,329577 -130395,634511 -407549,850172 -190452,147932 -445269,253230 -758518,296695 -39875,5556 -79862,10960 -121589,14286 -15722,2873 -27250,4460 -31899,4763 -51553,2570 -102653,3741 -153639,3741l-16592 -37c-41575,0 -84322,-1966 -127182,-3704 -17726,-983 -35641,-1588 -53254,-2608 -18331,-1285 -35792,-1021 -54425,-2722l982 -1663c-741472,-58469 -1418579,-376594 -1953725,-926783 218571,65121 480419,116334 695702,160668 2910,530 -128051,154508 -125330,155907 358226,156473 757838,259315 1182697,301457 144228,14173 291177,22224 440734,22224 60397,-38 121134,-1437 182476,-4007 47812,-7294 92146,-16781 135044,-27855 506989,-128694 679223,-505591 669396,-809353 -10545,-316651 -241362,-571279 -549169,-633906 -40403,-3024 -80542,-6955 -120227,-12738 -2079,-113 -4082,-113 -5934,-415 -8391,-265 -16366,-2344 -24681,-2344l-453 -37 0 -1966c-264909,-42860 -508501,-143623 -713920,-286414 -366541,-254931 -611418,-645018 -631903,-1088700 -20901,-452072 184518,-855804 525358,-1141084z"/>
  <path class="fil1" d="M6756477 9569257c-122117,-107982 -297828,-174086 -419530,-214489 -46035,-17500 -167736,-62968 -195743,-70035l-151560 -37872 152694 -32466c382906,-81260 570410,-316424 590215,-739998 18746,-405546 -435442,-802550 -769063,-908831 -43616,-13871 -82319,-22489 -115088,-25966 -58167,-13493 -178546,-36397 -244272,-46904 -164448,-13342 -330749,-45808 -492173,-96303 -992208,-311548 -1443524,-1244039 -1450441,-2030148 -4611,-535147 147100,-772503 428639,-1023011 183913,-163693 407549,-243214 683872,-243214 98873,-76 203831,9789 320468,29858 130962,22639 552684,128202 491871,537792 -69279,187957 -178282,215964 -293331,230553 -144379,-11717 -200430,-56164 -267819,-145248 -25814,-33978 -36964,-76536 -47811,-117355 -16744,-63723 -31182,-118678 -93544,-139315 -8618,-604 -23925,-1587 -39421,-1587 -142300,-38 -291592,91805 -420097,258824 -104354,135534 -156511,350856 -146949,606202 12094,322698 151711,1386982 1439064,1537408 35074,8088 74760,10999 110590,14022 31899,2457 60926,5027 80277,9222 14741,1966 31484,5330 48038,8807l25701 5027c328632,61493 628767,199976 867937,400103 367901,307769 559184,723557 538246,1170527 -21090,458497 -212940,807577 -586171,1067043l-23509 15950 -21090 -18596z"/>
  <path class="fil2" d="M4773951 4063925c-285583,0 -517004,82432 -707683,252247 -289627,257652 -445533,501395 -440771,1050262 7105,799224 466019,1747438 1475877,2064353 163579,51402 332638,84284 502529,98155 57638,9524 177639,32202 231422,45052l4649 1172 4611 378c30501,3212 66860,11414 107982,24453 322698,102578 761844,484501 743815,872699 -19049,410081 -192303,628010 -561452,706360l-305501 65009 303044 75628c22073,5481 124310,43163 190263,68297 121475,40365 292802,104807 409741,208178l42633 37682 46602 -32504c382982,-266194 579783,-624534 601705,-1094899 21241,-458346 -174540,-884415 -551361,-1199856 -243819,-204096 -549585,-345187 -884415,-407814l-25096 -4762c-17311,-3817 -34621,-7068 -52272,-9827 -18066,-4082 -46904,-6501 -80428,-9071 -34621,-2910 -73739,-5934 -101179,-12283l-3893 -1021 -4044 -453c-1258893,-147138 -1395335,-1187573 -1407165,-1502863 -9373,-247032 39988,-454076 139163,-582807 121702,-157948 260903,-244991 391675,-244991 11263,-75 22677,719 33789,2004 35377,14097 46640,44749 64404,112025 10961,42407 23660,90370 53859,130055 70715,93393 137235,146571 285847,159421l7635 718 7672 -1020c121551,-15156 246389,-46904 320771,-246427l2608 -6916 1133 -7597c65689,-442057 -382415,-554460 -521313,-578574 -119094,-20523 -225942,-30425 -326856,-30463zm0 72189c98609,0 203265,10243 314459,29443 160669,27704 515947,135572 462390,496935 -58318,156209 -142338,184783 -262338,199787 -128770,-11074 -175674,-53556 -234559,-131074 -58772,-77519 -31333,-226962 -158666,-268953 -16781,-2495 -33638,-3742 -50835,-3742 -150010,-76 -308978,91654 -448708,272997 -121399,157569 -163428,392960 -154319,629598 26986,720836 440771,1451650 1471001,1572028 58583,13720 146647,13569 187201,22527 25437,3704 49966,9373 74646,14135 328066,61304 620943,199107 851685,392280 340877,285280 546409,689050 525471,1141046 -20750,443682 -204285,784219 -570977,1039075 -117204,-103598 -282219,-171970 -432079,-221633 0,0 -162293,-61758 -198350,-70754 440053,-93732 600079,-377804 618448,-773636 19918,-428374 -448709,-835054 -794198,-944926 -42708,-13568 -84284,-23546 -121966,-27439 -54274,-12964 -175976,-36095 -242533,-46753 -174578,-14211 -336116,-47811 -486807,-94980 -940428,-295334 -1418012,-1181110 -1425231,-1996057 -4611,-531707 145815,-754928 416507,-995987 183762,-163579 400897,-233879 659758,-233917z"/>
 </g>
</svg>
