<svg xmlns="http://www.w3.org/2000/svg" version="1.1" xmlns:xlink="http://www.w3.org/1999/xlink" xmlns:svgjs="http://svgjs.com/svgjs" width="512" height="512"><svg width="512" height="512" viewBox="0 0 512 512" fill="none" xmlns="http://www.w3.org/2000/svg">
<path d="M255.658 306.128C308.769 306.128 351.815 263.314 351.815 210.43C351.815 157.547 308.769 114.732 255.658 114.732C202.548 114.732 159.502 157.547 159.502 210.43C159.502 263.314 202.548 306.128 255.658 306.128Z" fill="#E40926"></path>
<path d="M255.659 5.49634C142.081 5.49634 49.7305 97.4712 49.7305 210.515C49.7305 364.257 249.147 499.554 255.744 506.07C257.435 507.593 461.672 364.257 461.672 210.515C461.672 97.4712 369.322 5.49634 255.744 5.49634H255.659ZM255.659 360.788C172.357 360.788 104.617 293.351 104.617 210.515C104.617 127.678 172.357 60.2413 255.659 60.2413C338.961 60.2413 406.702 127.678 406.702 210.515C406.702 293.351 338.961 360.788 255.659 360.788Z" fill="#E40926"></path>
<path d="M255.66 60.1567C172.358 60.1567 104.617 127.594 104.617 210.43C104.617 293.267 172.358 360.704 255.66 360.704C338.962 360.704 406.702 293.267 406.702 210.43C406.702 127.594 338.962 60.1567 255.66 60.1567ZM255.66 306.128C202.634 306.128 159.503 263.229 159.503 210.43C159.503 157.631 202.634 114.732 255.66 114.732C308.685 114.732 351.816 157.631 351.816 210.43C351.816 263.229 308.685 306.128 255.66 306.128Z" fill="white"></path>
</svg><style>@media (prefers-color-scheme: light) { :root { filter: none; } }
@media (prefers-color-scheme: dark) { :root { filter: contrast(0.8333333333333334) brightness(1.7); } }
</style></svg>