<?xml version="1.0" encoding="utf-8"?>
<!-- Generator: Adobe Illustrator 26.0.2, SVG Export Plug-In . SVG Version: 6.00 Build 0)  -->
<svg version="1.1" id="Layer_1" xmlns="http://www.w3.org/2000/svg" xmlns:xlink="http://www.w3.org/1999/xlink" x="0px" y="0px"
	 viewBox="0 0 120 120" style="enable-background:new 0 0 120 120;" xml:space="preserve">
<style type="text/css">
	.st0{fill-rule:evenodd;clip-rule:evenodd;fill:#000400;}
	.st1{fill-rule:evenodd;clip-rule:evenodd;fill:#E60514;}
	.st2{fill-rule:evenodd;clip-rule:evenodd;fill:#F07D00;}
	.st3{fill-rule:evenodd;clip-rule:evenodd;fill:#3CA532;}
	.st4{fill-rule:evenodd;clip-rule:evenodd;fill:#3996D2;}
	.st5{fill-rule:evenodd;clip-rule:evenodd;fill:#FFD500;}
</style>
<g id="Artwork_6_1_">
	<g>
		<g>
			<path class="st0" d="M57,68.9L57,68.9v9.9c-5,0-11.3,0.1-15.7-2.2c-3.4-1.8-7.1-6-7.1-12c0-5.4,2.6-9.5,7-11.6
				c0.8-0.4,1.6-0.7,2.5-0.9V39.3c-5.2,0.4-10,1.4-13.7,3.2C21.4,47,16.5,54.4,16.4,64.7c0,8.9,4.5,17.6,15.2,23L11.1,120h18.7
				l16.5-28.5c3.2,0.3,6.8,0.5,11.1,0.4V120h16.1V89.6v-5.5v-9.3v-5.9H57z"/>
			<polygon class="st1" points="47.8,24.7 47.8,24.7 33,9.9 27.2,15.7 42,30.5 			"/>
			<polygon class="st2" points="69,0 69,0 60.7,0 60.7,23.5 69,23.5 			"/>
			<polygon class="st3" points="102.5,15.7 102.5,15.7 96.7,9.9 81.9,24.7 87.7,30.5 			"/>
			<polygon class="st4" points="108.9,43.4 108.9,43.4 87.9,43.4 87.9,51.6 108.9,51.6 			"/>
			<path class="st5" d="M57.9,53.8L57.9,53.8h14.3V39.9H57.9V53.8z M79.4,61.1H50.8V32.5h28.6V61.1z"/>
		</g>
	</g>
</g>
</svg>
