<svg width="16" height="16" viewBox="0 0 16 16" fill="none" xmlns="http://www.w3.org/2000/svg">
<g clip-path="url(#clip0)">
<path d="M10.6459 12.0652H8.4359C8.37899 12.0652 8.32441 12.0426 8.28417 12.0024C8.2439 11.9621 8.22131 11.9076 8.22131 11.8507V10.1384C8.22131 10.0815 8.2439 10.0269 8.28417 9.98665C8.32441 9.94641 8.37899 9.9238 8.4359 9.9238H9.48798L10.3389 11.8611C10.3645 11.9214 10.4073 11.9729 10.4618 12.0091C10.5164 12.0454 10.5804 12.0649 10.6459 12.0652Z" fill="#800200"/>
<path d="M6.93525 3.46667H10.8307C10.8967 3.46544 10.9616 3.48373 11.0173 3.51926C11.073 3.55478 11.1169 3.60596 11.1436 3.66636L14.7202 11.8074C14.7326 11.8354 14.7378 11.8661 14.7354 11.8966C14.733 11.9271 14.7229 11.9566 14.7062 11.9822C14.6894 12.0078 14.6665 12.0289 14.6395 12.0434C14.6126 12.0579 14.5824 12.0654 14.5518 12.0653H10.6459C10.5809 12.0653 10.5172 12.0465 10.4627 12.011C10.4082 11.9755 10.3652 11.925 10.3389 11.8655L9.48799 9.92827L6.76685 3.72448C6.75439 3.6965 6.74914 3.66585 6.75159 3.63532C6.75405 3.6048 6.7641 3.57537 6.78085 3.54973C6.79759 3.52409 6.8205 3.50306 6.84746 3.48855C6.87445 3.47404 6.90461 3.46652 6.93525 3.46667Z" fill="#E60400"/>
<path d="M4.76695 11.8641L5.61489 9.92679H6.67295C6.72985 9.92679 6.78444 9.9494 6.82468 9.98964C6.86492 10.0299 6.88753 10.0845 6.88753 10.1414V11.8507C6.88753 11.9076 6.86492 11.9621 6.82468 12.0024C6.78444 12.0426 6.72985 12.0652 6.67295 12.0652H4.45996C4.52516 12.0652 4.58892 12.0461 4.64343 12.0104C4.69796 11.9747 4.74087 11.9238 4.76695 11.8641Z" fill="#00527A"/>
<path d="M0.814875 11.8074L3.33186 6.0537C3.35815 5.99423 3.40118 5.94369 3.45568 5.90824C3.51019 5.87278 3.57382 5.85394 3.63886 5.85401H7.12C7.15062 5.85385 7.1808 5.86137 7.20776 5.87588C7.23472 5.89039 7.25763 5.91142 7.27438 5.93706C7.29112 5.9627 7.30118 5.99213 7.30363 6.02266C7.30608 6.05318 7.30083 6.08384 7.2884 6.11181L5.61488 9.9238L4.76694 11.8611C4.74064 11.9205 4.69763 11.9711 4.64312 12.0065C4.58862 12.042 4.52499 12.0608 4.45995 12.0608H0.98327C0.95322 12.0606 0.923671 12.0531 0.897225 12.0388C0.870779 12.0245 0.848246 12.004 0.831611 11.9789C0.814976 11.9539 0.804749 11.9252 0.801831 11.8953C0.798912 11.8654 0.803392 11.8352 0.814875 11.8074Z" fill="#0084C4"/>
</g>
<defs>
<clipPath id="clip0">
<rect width="14.1333" height="8.8" fill="white" transform="translate(0.799988 3.46667)"/>
</clipPath>
</defs>
</svg>
