<svg width="36" height="36" viewBox="0 0 36 36" fill="none" xmlns="http://www.w3.org/2000/svg">
<path fill-rule="evenodd" clip-rule="evenodd" d="M18.2205 29.0801C18.2205 29.0728 18.2208 29.0654 18.2215 29.058C18.2326 28.9323 18.3374 28.836 18.4629 28.836C20.4109 28.836 21.9956 27.2418 21.9956 25.2823L22.0129 22.4798L22.0129 9.53478C22.0129 8.74258 22.1443 8.0338 22.4036 7.42838C22.6435 6.86837 22.9935 6.39298 23.444 6.01546C23.8518 5.67354 24.3391 5.41383 24.8925 5.24355C25.3933 5.08945 25.9371 5.01119 26.5087 5.01119C27.0796 5.01119 27.6228 5.08928 28.1231 5.24356C28.6758 5.41383 29.1628 5.67354 29.5703 6.01546C30.0204 6.39298 30.3699 6.86837 30.6096 7.42838C30.8687 8.0338 31 8.74258 31 9.53478L31 22.4812C31 24.6438 30.2775 26.348 28.8525 27.5461C28.0266 28.2406 26.9603 28.7651 25.6832 29.1053C24.6713 29.3749 23.5243 29.5302 22.2744 29.5668C20.1526 29.6291 18.4897 29.3322 18.42 29.3195C18.3036 29.2987 18.2205 29.1967 18.2205 29.0801ZM5.00003 9.52015L5.00003 22.0572C5.00003 24.8363 5.93129 27.0844 7.76748 28.7392C8.81874 29.6863 10.1732 30.4417 11.7934 30.9842C13.0812 31.4154 14.5396 31.7141 16.1283 31.8718C18.8277 32.14 21.0053 31.9045 21.027 31.9021C21.1589 31.8875 21.2547 31.7686 21.2415 31.6359C21.2283 31.5031 21.1114 31.4054 20.9793 31.4171L20.9784 31.4172C20.9492 31.4194 20.227 31.4762 19.2597 31.306C18.3561 31.1471 17.0558 30.7516 15.9919 29.7706C14.6632 28.5455 13.9895 26.6973 13.9895 24.2771L13.9895 9.52015C13.9895 8.72829 13.8579 8.02002 13.5983 7.41478C13.3583 6.85512 13.008 6.38007 12.5574 6.00289C12.1494 5.66148 11.6621 5.40212 11.1091 5.23202C10.6086 5.07808 10.0654 5 9.49462 5C8.92318 5 8.37977 5.07808 7.8791 5.23202C7.32595 5.40212 6.83879 5.66148 6.43093 6.00306C5.98069 6.38024 5.63061 6.85529 5.39079 7.41495C5.13148 8.02002 5.00003 8.72829 5.00003 9.52015Z" fill="#E4003A"/>
</svg>
