<?xml version="1.0" encoding="UTF-8"?>
<!DOCTYPE svg PUBLIC "-//W3C//DTD SVG 1.1//EN" "http://www.w3.org/Graphics/SVG/1.1/DTD/svg11.dtd">
<!-- Creator: CorelDRAW 2020 (64-Bit) -->
<svg xmlns="http://www.w3.org/2000/svg" xml:space="preserve" width="80mm" height="40mm" version="1.1" style="shape-rendering:geometricPrecision; text-rendering:geometricPrecision; image-rendering:optimizeQuality; fill-rule:evenodd; clip-rule:evenodd"
viewBox="0 0 8000 4000"
 xmlns:xlink="http://www.w3.org/1999/xlink"
 xmlns:xodm="http://www.corel.com/coreldraw/odm/2003">
 <defs>
  <style type="text/css">
   <![CDATA[
    .fil0 {fill:#D12421;fill-rule:nonzero}
   ]]>
  </style>
 </defs>
 <g id="Слой_x0020_1">
  <metadata id="CorelCorpID_0Corel-Layer"/>
  <path class="fil0" d="M4316.01 1134.11l1086.2 0 -1303.41 1738.1 -1086.31 0 1303.52 -1738.1zm-4236.37 307.87c0,-72.39 0,-162.91 72.39,-235.34 72.39,-72.53 162.95,-72.53 235.37,-72.53l1819.53 0c235.26,0 407.24,0 552.02,72.53 144.89,72.43 253.54,217.21 362.06,362.02l108.69 144.78c77.15,102.91 135.93,181.05 135.93,289.6 0,108.65 -63.05,192.72 -135.93,289.84l-434.41 579.19 -1086.31 0 706.12 -941.32c54.29,-72.39 117.58,-163.05 72.43,-262.43 -45.34,-99.66 -162.95,-99.66 -253.55,-99.66l-850.82 0 0 2172.48 -868.93 0 0 -2172.48 -434.59 0 0 -126.68zm5539.85 -869.03l0 126.64 1086.24 0c72.39,0 181.15,0 253.54,72.39 72.25,72.53 72.25,181.22 72.25,253.61l0 1086.1c0,72.53 0,181.05 -72.25,253.47 -72.39,72.36 -181.15,72.36 -253.54,72.36l-524.97 0c-90.56,0 -208.14,0 -253.47,-99.38 -45.19,-99.66 17.99,-190.18 72.39,-262.57l706.05 -941.32 -1086.24 0 -434.59 579.19c-72.67,97.12 -135.75,181.05 -135.75,289.7 0,108.55 58.7,186.69 135.75,289.6l108.8 144.78c108.44,144.81 217.27,289.59 362.05,362.3 144.64,72.25 316.87,72.25 552.06,72.25l470.72 0c271.67,0 679.06,0 950.52,-271.43 271.64,-271.64 271.64,-669.89 271.64,-814.67l0 -434.69c0,-144.78 0,-543.03 -271.64,-814.6 -271.46,-271.64 -678.85,-271.18 -950.52,-271.32l-751.24 -0.32c-72.39,0 -163.02,0 -235.41,72.57 -72.39,72.39 -72.39,162.91 -72.39,235.34z"/>
 </g>
</svg>
