<svg xmlns="http://www.w3.org/2000/svg" viewBox="0 0 32 32" width="32" height="32"><svg viewBox="0 0 32 32" fill="none" xmlns="http://www.w3.org/2000/svg"><circle cx="16" cy="16" r="16" fill="#DA0916"/><path d="M19.475 6c-.54 0-1.058.216-1.44.601a2.066 2.066 0 0 0-.597 1.453v4.164H14.67V8.055c0-.545-.214-1.068-.596-1.453a2.026 2.026 0 0 0-2.879 0 2.066 2.066 0 0 0-.596 1.453v15.89c0 .545.215 1.068.596 1.453a2.026 2.026 0 0 0 2.88 0c.38-.385.595-.908.595-1.453V15.93h1.737c.273 0 .535.11.728.304.193.195.302.46.302.736v6.97c0 .546.214 1.069.596 1.454a2.026 2.026 0 0 0 2.879 0c.382-.385.596-.908.596-1.453V8.054c0-.545-.215-1.067-.596-1.452A2.026 2.026 0 0 0 19.475 6Z" fill="#fff"/></svg><style>@media (prefers-color-scheme:light){:root{filter:none}}@media (prefers-color-scheme:dark){:root{filter:none}}</style></svg>