<svg width="16" height="16" viewBox="0 0 16 16" fill="none" xmlns="http://www.w3.org/2000/svg"><g clip-path="url(#a)"><rect width="16" height="16" rx="5" transform="matrix(-1 0 0 1 16 0)" fill="#143AFF"/><path d="m7.815 11.237-.003-1.076-3.463.008c.473-1.767 3.398-2.16 3.393-4.12-.003-1.048-.781-1.819-2.424-1.815a6.118 6.118 0 0 0-2.506.558l.361.993c.537-.25 1.163-.472 1.94-.474.597-.001 1.164.246 1.166.88.004 1.435-3.43 1.553-3.719 5.058l5.255-.012zm.145-1.711 3.374-.008.004 1.711 1.344-.003-.005-1.711 1.135-.003-.003-1.048-1.134.002-.012-4.249-.985.002-3.72 4.48.002.827zm1.52-.997 1.904-2.378c.001.193-.057.8-.056 1.352l.003.994-.896.002c-.268 0-.776.03-.955.03z" fill="#fff"/></g><defs><clipPath id="a"><path fill="#fff" d="M0 0h16v16H0z"/></clipPath></defs></svg>