<?xml version="1.0" encoding="utf-8"?>
<!-- Generator: Adobe Illustrator 25.2.3, SVG Export Plug-In . SVG Version: 6.00 Build 0)  -->
<svg version="1.1" id="Слой_1" xmlns="http://www.w3.org/2000/svg" xmlns:xlink="http://www.w3.org/1999/xlink" x="0px" y="0px"
	 viewBox="0 0 120 120" style="enable-background:new 0 0 120 120;" xml:space="preserve">
<style type="text/css">
	.st0{fill-rule:evenodd;clip-rule:evenodd;fill:#164194;}
	.st1{fill:#FFED00;}
</style>
<g>
	<polygon class="st0" points="26.49,16.36 60.05,0 93.6,16.36 	"/>
	<polygon class="st0" points="93.51,103.64 59.95,120 26.4,103.64 	"/>
	<path class="st0" d="M44.74,35.56c0.03-1.1,1.05-1.99,2.31-1.99h27.86c1.26,0,2.28,0.89,2.31,1.99H44.74z M26.83,20.55v37.11H56.7
		V43.71H42.81c-1.67,0-3.04-1.01-3.04-2.23v-2.23c0-1.22,1.36-2.22,3.04-2.22h1.92v-0.03h32.5v0.03h1.92c1.67,0,3.03,1,3.03,2.22
		v2.23c0,1.22-1.37,2.23-3.03,2.23h-13.9v13.96h28.01V20.55H26.83z M74.91,88.32H47.05c-1.27,0-2.3-0.9-2.32-2.01h32.49
		C77.21,87.42,76.18,88.32,74.91,88.32L74.91,88.32z M65.25,78.18h13.9c1.67,0,3.03,1,3.03,2.23v2.22c0,1.23-1.37,2.23-3.03,2.23
		h-1.92h-32.5h-1.92c-1.67,0-3.04-1-3.04-2.23v-2.22c0-1.22,1.36-2.23,3.04-2.23H56.7V62H26.83v37.11h66.44V62H65.25V78.18z"/>
</g>
<g>
	<path class="st1" d="M74.91,33.57H47.05c-1.26,0-2.28,0.89-2.31,1.99h32.48C77.19,34.46,76.16,33.57,74.91,33.57z"/>
	<path class="st1" d="M47.05,88.32h27.86c1.27,0,2.3-0.9,2.32-2.01H44.73C44.75,87.42,45.78,88.32,47.05,88.32z"/>
	<path class="st1" d="M65.25,57.66V43.71h13.9c1.67,0,3.03-1.01,3.03-2.23v-2.23c0-1.22-1.37-2.22-3.03-2.22h-1.92v-0.03h-32.5v0.03
		h-1.92c-1.67,0-3.04,1-3.04,2.22v2.23c0,1.22,1.36,2.23,3.04,2.23H56.7v13.96V62v16.18H42.81c-1.67,0-3.04,1-3.04,2.23v2.22
		c0,1.23,1.36,2.23,3.04,2.23h1.92h32.5h1.92c1.67,0,3.03-1,3.03-2.23v-2.22c0-1.22-1.37-2.23-3.03-2.23h-13.9V62V57.66z"/>
</g>
</svg>
