<svg width="120" height="120" viewBox="0 0 120 120" fill="none" xmlns="http://www.w3.org/2000/svg">
<path d="M26.7943 16.7686L27.5163 10.0515H27.2275L25.1577 15.4638L17.9859 28.0765H15.8681L8.31121 15.4155L6.19336 10.0515H5.95269L6.91535 16.7203V34.3104H0.658068V0.483244H6.67469L15.6756 15.9471L17.2639 19.813H17.4565L18.9005 15.8504L27.42 0.483244H33.3885V34.3104H26.7943V16.7686Z" fill="#8C1A42"/>
<path d="M55.7609 26.8201H45.4123L42.8613 34.3104H36.2671L48.3966 0.241622H53.258L65.3875 34.3104H58.4564L55.7609 26.8201ZM47.097 21.5044H54.3169L51.814 13.9658L50.8032 8.65008H50.5625L49.5518 14.0141L47.097 21.5044Z" fill="#8C1A42"/>
<path d="M90.9687 8.36013C90.9687 9.19776 90.8564 10.0354 90.6317 10.873C90.4392 11.7106 90.1023 12.4838 89.6209 13.1926C89.1396 13.8691 88.5139 14.4812 87.7438 15.0289C86.9736 15.5444 86.0431 15.931 84.9521 16.1887V16.4786C85.9147 16.6397 86.8292 16.9136 87.6956 17.3002C88.562 17.6868 89.3161 18.2183 89.9579 18.8949C90.5997 19.5714 91.097 20.3929 91.45 21.3594C91.8351 22.3259 92.0276 23.4696 92.0276 24.7904C92.0276 26.5301 91.6586 28.0443 90.9205 29.3329C90.1825 30.5894 89.1878 31.6203 87.9363 32.4257C86.7169 33.2311 85.3211 33.8271 83.7487 34.2137C82.1764 34.6003 80.5559 34.7936 78.8873 34.7936C78.3418 34.7936 77.6358 34.7936 76.7694 34.7936C75.9351 34.7936 75.0206 34.7614 74.0259 34.697C73.0632 34.6647 72.0685 34.6003 71.0416 34.5037C70.0469 34.407 69.1323 34.262 68.298 34.0687V0.724866C68.9077 0.628218 69.5976 0.53157 70.3678 0.43492C71.17 0.338271 72.0203 0.25773 72.9188 0.193298C73.8173 0.128866 74.7318 0.0805416 75.6624 0.0483238C76.625 0.0161079 77.5717 0 78.5022 0C80.0746 0 81.5988 0.128865 83.0749 0.386596C84.583 0.61211 85.9147 1.03092 87.0699 1.64303C88.2572 2.25514 89.2038 3.10887 89.9097 4.20423C90.6157 5.29958 90.9687 6.68488 90.9687 8.36013ZM78.9354 29.3329C79.7377 29.3329 80.5078 29.2363 81.2458 29.043C82.0159 28.8497 82.6898 28.5598 83.2674 28.1732C83.845 27.7543 84.3103 27.2389 84.6632 26.6268C85.0162 26.0147 85.1927 25.2898 85.1927 24.4522C85.1927 23.389 84.9841 22.5514 84.567 21.9393C84.1498 21.3272 83.6043 20.8601 82.9305 20.5379C82.2566 20.1835 81.5025 19.958 80.6682 19.8614C79.8339 19.7647 78.9996 19.7164 78.1653 19.7164H74.6516V29.043C74.812 29.1074 75.0687 29.1558 75.4217 29.188C75.7747 29.2202 76.1437 29.2524 76.5288 29.2846C76.9459 29.2846 77.3631 29.3007 77.7802 29.3329C78.2295 29.3329 78.6145 29.3329 78.9354 29.3329ZM76.7694 14.6906C77.2187 14.6906 77.7321 14.6745 78.3097 14.6423C78.9194 14.6101 79.4168 14.5618 79.8018 14.4973C81.0212 14.1107 82.0641 13.5308 82.9305 12.7577C83.829 11.9845 84.2782 10.9697 84.2782 9.71322C84.2782 8.87559 84.1178 8.18294 83.7969 7.63526C83.476 7.08759 83.0428 6.65267 82.4973 6.3305C81.9839 6.00834 81.3902 5.78283 80.7163 5.65396C80.0425 5.5251 79.3365 5.46066 78.5985 5.46066C77.7642 5.46066 76.9941 5.47677 76.2881 5.50899C75.5822 5.5412 75.0367 5.58953 74.6516 5.65396V14.6906H76.7694Z" fill="#8C1A42"/>
<path d="M120 6.37883H110.181V34.3104H103.587V6.37883H93.7194V0.483244H120V6.37883Z" fill="#8C1A42"/>
<path d="M22.6706 50.7049C22.6706 51.5426 22.5583 52.3802 22.3337 53.2178C22.1412 54.0554 21.8042 54.8286 21.3229 55.5374C20.8416 56.2139 20.2158 56.826 19.4457 57.3737C18.6756 57.8892 17.745 58.2758 16.654 58.5335V58.8235C17.6167 58.9845 18.5312 59.2584 19.3976 59.645C20.264 60.0316 21.0181 60.5631 21.6598 61.2397C22.3016 61.9162 22.799 62.7377 23.152 63.7042C23.537 64.6707 23.7296 65.8144 23.7296 67.1353C23.7296 68.8749 23.3605 70.3891 22.6225 71.6778C21.8845 72.9342 20.8897 73.9651 19.6383 74.7705C18.4189 75.5759 17.023 76.1719 15.4507 76.5585C13.8783 76.9451 12.2579 77.1384 10.5893 77.1384C10.0437 77.1384 9.3378 77.1384 8.4714 77.1384C7.6371 77.1384 6.72257 77.1062 5.72782 77.0418C4.76516 77.0096 3.77042 76.9451 2.74358 76.8485C1.74883 76.7518 0.834305 76.6069 0 76.4136V43.0697C0.609684 42.973 1.29959 42.8764 2.06972 42.7797C2.87193 42.6831 3.72228 42.6025 4.62076 42.5381C5.51925 42.4737 6.43377 42.4254 7.36434 42.3931C8.327 42.3609 9.27362 42.3448 10.2042 42.3448C11.7765 42.3448 13.3007 42.4737 14.7768 42.7314C16.285 42.9569 17.6167 43.3757 18.7719 43.9878C19.9591 44.6 20.9058 45.4537 21.6117 46.549C22.3177 47.6444 22.6706 49.0297 22.6706 50.7049ZM10.6374 71.6778C11.4396 71.6778 12.2097 71.5811 12.9478 71.3878C13.7179 71.1945 14.3918 70.9046 14.9694 70.518C15.5469 70.0992 16.0122 69.5837 16.3652 68.9716C16.7182 68.3595 16.8947 67.6346 16.8947 66.797C16.8947 65.7339 16.6861 64.8962 16.2689 64.2841C15.8518 63.672 15.3063 63.2049 14.6324 62.8827C13.9586 62.5283 13.2045 62.3028 12.3702 62.2062C11.5359 62.1095 10.7016 62.0612 9.86726 62.0612H6.35355V71.3878C6.51399 71.4522 6.7707 71.5006 7.12368 71.5328C7.47665 71.565 7.84567 71.5972 8.23074 71.6294C8.64789 71.6294 9.06504 71.6455 9.48219 71.6778C9.93144 71.6778 10.3165 71.6778 10.6374 71.6778ZM8.4714 57.0354C8.92064 57.0354 9.43406 57.0193 10.0117 56.9871C10.6213 56.9549 11.1187 56.9066 11.5038 56.8422C12.7231 56.4556 13.766 55.8757 14.6324 55.1025C15.5309 54.3293 15.9801 53.3145 15.9801 52.058C15.9801 51.2204 15.8197 50.5278 15.4988 49.9801C15.1779 49.4324 14.7447 48.9975 14.1992 48.6753C13.6858 48.3532 13.0922 48.1276 12.4183 47.9988C11.7444 47.8699 11.0385 47.8055 10.3005 47.8055C9.46615 47.8055 8.69602 47.8216 7.99007 47.8538C7.28412 47.886 6.73862 47.9343 6.35355 47.9988V57.0354H8.4714Z" fill="#8C1A42"/>
<path d="M48.0762 57.9053L48.4612 53.5078H48.2206L45.9583 58.0503L33.3956 76.6552H28.4379V42.8281H35.0321V61.2397L34.5508 65.7822H34.8396L37.1981 61.0947L49.7608 42.8281H54.6704V76.6552H48.0762V57.9053Z" fill="#8C1A42"/>
<path d="M79.4115 62.4961H67.0895V76.6552H60.4952V42.8281H67.0895V56.6005H79.4115V42.8281H86.0057V76.6552H79.4115V62.4961Z" fill="#8C1A42"/>
<path d="M90.7886 59.7416C90.7886 54.1038 92.024 49.7707 94.4948 46.7423C96.9656 43.6818 100.495 42.1515 105.084 42.1515C107.491 42.1515 109.592 42.5703 111.389 43.408C113.186 44.2456 114.679 45.4376 115.866 46.984C117.053 48.5303 117.936 50.3828 118.513 52.5413C119.091 54.6998 119.38 57.0999 119.38 59.7416C119.38 65.3795 118.128 69.7287 115.625 72.7892C113.154 75.8176 109.641 77.3317 105.084 77.3317C102.645 77.3317 100.527 76.9129 98.7305 76.0753C96.9335 75.2377 95.4414 74.0457 94.2541 72.4993C93.0989 70.9529 92.2325 69.1005 91.6549 66.942C91.0773 64.7835 90.7886 62.3834 90.7886 59.7416ZM97.7197 59.7416C97.7197 61.4491 97.8641 63.0277 98.1529 64.4774C98.4417 65.8949 98.8749 67.1192 99.4525 68.1501C100.062 69.181 100.832 69.9864 101.763 70.5663C102.693 71.1462 103.8 71.4361 105.084 71.4361C107.427 71.4361 109.24 70.518 110.523 68.6816C111.807 66.8453 112.448 63.8653 112.448 59.7416C112.448 58.0986 112.304 56.5683 112.015 55.1508C111.758 53.7333 111.341 52.493 110.764 51.4298C110.186 50.3667 109.432 49.5452 108.501 48.9653C107.571 48.3532 106.432 48.0471 105.084 48.0471C102.742 48.0471 100.929 48.9975 99.645 50.8982C98.3615 52.7668 97.7197 55.7146 97.7197 59.7416Z" fill="#8C1A42"/>
<path d="M27.0103 91.0685H17.1912V119H10.597V91.0685H0.729703V85.1729H27.0103V91.0685Z" fill="#8C1A42"/>
<path d="M32.8517 85.1729H52.8269V91.0685H39.4459V98.9453H51.6235V104.841H39.4459V113.104H53.0675V119H32.8517V85.1729Z" fill="#8C1A42"/>
<path d="M68.7329 104.551H67.0001V119H60.4059V85.1729H67.0001V100.153L68.5404 99.4769L77.8301 85.1729H85.3388L75.5197 99.3803L72.9205 101.217L75.6159 103.101L86.8309 119H78.6965L68.7329 104.551Z" fill="#8C1A42"/>
<path d="M108.467 111.51H98.1189L95.5678 119H88.9736L101.103 84.9312H105.965L118.094 119H111.163L108.467 111.51ZM99.8035 106.194H107.023L104.521 98.6554L103.51 93.3397H103.269L102.258 98.7037L99.8035 106.194Z" fill="#8C1A42"/>
</svg>
