<svg width="48" height="49" viewBox="0 0 48 49" fill="none" xmlns="http://www.w3.org/2000/svg">
<path d="M36 3.30005C41.2 3.30005 45.5 7.60005 45.5 12.8V36.8C45.5 42 41.2 46.3 36 46.3H12C6.8 46.3 2.5 42 2.5 36.8V12.8C2.5 7.60005 6.8 3.30005 12 3.30005H36ZM36 0.800049H12C5.4 0.800049 0 6.20005 0 12.8V36.8C0 43.4 5.4 48.8 12 48.8H36C42.6 48.8 48 43.4 48 36.8V12.8C48 6.20005 42.6 0.800049 36 0.800049Z" fill="#6F46EA"/>
<path d="M35.8969 14.4999C34.4969 13.0999 32.5969 12.2999 30.5969 12.2999C29.5969 12.2999 28.5969 12.4999 27.5969 12.7999C26.6969 13.1999 25.7969 13.6999 25.0969 14.4999C24.6969 14.8999 24.2969 15.3999 23.9969 15.8999C23.6969 15.3999 23.2969 14.8999 22.8969 14.4999C22.1969 13.7999 21.2969 13.1999 20.3969 12.7999C19.4969 12.3999 18.3969 12.1999 17.3969 12.2999C15.3969 12.2999 13.4969 13.0999 12.0969 14.4999C10.6969 15.8999 9.89688 17.7999 9.79688 19.7999C9.79688 21.6999 10.4969 23.5999 11.7969 25.0999L12.0969 25.3999L15.6969 28.9999L17.4969 30.7999L22.0969 35.3999L23.9969 37.3999L25.3969 35.9999L30.5969 30.7999L32.3969 28.9999L35.9969 25.3999L36.2969 25.0999C37.5969 23.6999 38.2969 21.7999 38.2969 19.7999C38.1969 17.7999 37.3969 15.8999 35.8969 14.4999ZM17.4969 27.0999L13.8969 23.4999L13.6969 23.2999C12.7969 22.2999 12.3969 21.0999 12.3969 19.7999C12.3969 17.0999 14.6969 14.7999 17.3969 14.7999C18.0969 14.7999 18.7969 14.8999 19.3969 15.1999C19.9969 15.4999 20.5969 15.7999 21.0969 16.2999C21.5969 16.7999 21.9969 17.2999 22.1969 17.9999C22.4969 18.5999 22.5969 19.2999 22.5969 19.9999C22.5969 21.4999 22.2969 22.2999 21.2969 23.3999L17.4969 27.0999ZM23.9969 33.5999L19.2969 28.8999L23.0969 25.0999C23.3969 24.7999 23.6969 24.3999 23.8969 23.9999C24.1969 24.3999 24.3969 24.6999 24.6969 25.0999L28.2969 28.6999L28.4969 28.8999L23.9969 33.5999ZM34.3969 23.2999L34.1969 23.4999L30.5969 27.0999L26.7969 23.2999C25.7969 22.1999 25.4969 21.3999 25.4969 19.8999C25.4969 19.1999 25.5969 18.5999 25.8969 17.8999C26.1969 17.2999 26.4969 16.6999 26.9969 16.1999C27.4969 15.6999 28.0969 15.2999 28.6969 15.0999C29.2969 14.7999 29.9969 14.6999 30.6969 14.6999C33.3969 14.6999 35.6969 16.9999 35.6969 19.6999C35.6969 21.0999 35.1969 22.3999 34.3969 23.2999Z" fill="#6F46EA"/>
</svg>
