<svg width="70" height="70" viewBox="0 0 70 70" fill="none" xmlns="http://www.w3.org/2000/svg">
<rect width="70" height="70" rx="7" fill="#2954A2"/>
<path fill-rule="evenodd" clip-rule="evenodd" d="M30.3921 8.76857C29.3115 8.87713 29.2287 8.92708 28.8119 9.72145C27.8821 11.4935 23.7052 20.7982 15.9425 38.3892C12.9846 45.0922 10.5356 50.622 10.5003 50.6777C10.465 50.7333 13.3554 50.7633 16.9235 50.7443L23.411 50.7096L26.1081 44.0499C31.8033 29.9872 34.7434 22.9386 34.9139 22.9386C35.2783 22.9386 37.8515 28.9016 43.5068 42.8512L46.6925 50.7096L53.0963 50.7443C56.6184 50.7633 59.5 50.7278 59.5 50.6653C59.5 50.3834 53.5499 36.4682 50.1502 28.7992C45.285 17.8243 41.3217 8.93054 41.2769 8.88792C41.2031 8.81732 31.018 8.70557 30.3921 8.76857Z" fill="white"/>
<rect x="10.5" y="54.25" width="49" height="7" fill="#E30D0F"/>
</svg>
