<?xml version="1.0" encoding="UTF-8"?>
<svg xmlns="http://www.w3.org/2000/svg" width="120" height="120" viewBox="0 0 140 140"
>
    <defs>
        <style type="text/css">
            <![CDATA[
    .fil1 {fill:#008241;fill-rule:nonzero}
    .fil2 {fill:#1A9E48;fill-rule:nonzero}
    .fil3 {fill:#38B159;fill-rule:nonzero}
   ]]>
        </style>
    </defs>
    <path class="fil2"
          d="M118.877 20.3633c-13.675,-13.5091 -30.2379,-20.3633 -49.2236,-20.3633 -19.1353,0 -35.7147,6.85418 -49.2403,20.3965 -13.5424,13.5256 -20.4132,30.1052 -20.4132,49.257 0,19.135 6.87078,35.7144 20.4132,49.2568 12.0338,12.0485 26.498,18.7672 43.018,20.1041l75.8754 0 0 -69.3609c0,-19.1684 -6.87058,-35.7478 -20.4296,-49.2902zm-21.691 60.6916l0 0c-1.57655,3.66777 -3.734,6.88729 -6.42263,9.59233 -2.72154,2.73855 -5.84163,4.86279 -9.54251,6.48905 -7.26902,3.18661 -16.0983,3.12008 -23.218,0 -3.66767,-1.60976 -6.87058,-3.76721 -9.49279,-6.43913 -2.65522,-2.68863 -4.79616,-5.89144 -6.37281,-9.55922 -1.54344,-3.60135 -2.3068,-7.36876 -2.3068,-11.4844 0,-4.11583 0.763365,-7.88333 2.32331,-11.5178 1.56014,-3.66777 3.65117,-6.78755 6.3563,-9.54251 2.63872,-2.67213 5.84183,-4.84608 9.45968,-6.42263 3.58484,-1.56014 7.51791,-2.35672 11.6837,-2.35672 4.14904,0 7.94936,0.763365 11.5674,2.34001 3.68418,1.60976 6.80426,3.734 9.526,6.47244 2.68863,2.73835 4.86259,5.95787 6.43913,9.60913 1.56014,3.56814 2.307,7.30223 2.307,11.4181 0,4.11563 -0.746859,7.84992 -2.307,11.4014z"/>
    <path class="fil3"
          d="M69.6534 6.75824c-6.47385,0 -12.8534,0.97954 -18.9621,2.91021 -1.92167,0.60551 -2.98674,2.65362 -2.37943,4.57709 0.491571,1.55304 1.92877,2.54678 3.47651,2.54678 0.365027,0 0.735555,-0.0534185 1.10058,-0.170959 5.39637,-1.70269 11.0367,-2.56819 16.7644,-2.56819 2.0143,0 3.64737,-1.63137 3.64737,-3.64747 0,-2.0161 -1.63307,-3.64747 -3.64737,-3.64747zm-32.1306 8.81236l0 0c-18.9764,11.2985 -30.7647,32.022 -30.7647,54.0812 0,2.0161 1.63317,3.64747 3.64747,3.64747 2.0143,0 3.64737,-1.63137 3.64737,-3.64747 0,-19.5017 10.4241,-37.8244 27.2027,-47.8122 1.7311,-1.02936 2.2975,-3.26983 1.26804,-5.00093 -1.02936,-1.7347 -3.26453,-2.3011 -5.00093,-1.26804z"/>
    <path class="fil1"
          d="M118.933 20.3633c-7.92275,-7.82671 -16.8713,-13.3459 -26.6421,-16.6662 0,0 -7.26842,5.93216 -11.2199,18.6982 -1.49722,4.83718 -1.52343,8.99782 -0.971537,12.3025 -3.30885,-0.989743 -6.81586,-1.52423 -10.4425,-1.52423 -20.1161,0 -36.4833,16.3637 -36.4833,36.4781 0,14.9677 9.06234,27.8583 21.9886,33.4761 -0.312708,3.15279 -1.23563,7.24101 -3.40568,12.232 -5.69908,13.1079 -16.5506,14.9296 -16.5506,14.9296 8.81696,5.09177 18.5456,7.99847 29.1215,8.72503l75.0907 0 0 -69.3609c0,-19.6993 -6.9262,-35.7478 -20.4852,-49.2902zm-78.4662 49.2883l0 0c0,-16.0929 13.0937,-29.1831 29.1867,-29.1831 16.0929,0 29.1866,13.0902 29.1866,29.1831 0,16.0929 -13.0937,29.1867 -29.1866,29.1867 -16.093,0 -29.1867,-13.0938 -29.1867,-29.1867z"/>
</svg>
