<svg width="168" height="160" viewBox="0 0 168 160" fill="none" xmlns="http://www.w3.org/2000/svg">
<path d="M109.379 123.913C108.916 124.278 108.453 124.668 108.015 125.034C107.552 125.399 107.089 125.74 106.651 126.106L105.944 126.618L105.238 127.13C104.775 127.471 104.313 127.788 103.874 128.129C103.411 128.47 102.948 128.762 102.51 129.079L101.852 129.542L101.195 130.005C100.732 130.298 100.269 130.59 99.8307 130.931C99.3679 131.224 98.9051 131.516 98.491 131.76C97.5655 132.345 96.7129 132.832 95.8361 133.393C92.3042 135.44 88.9185 137.097 85.7277 138.462C79.3704 141.216 73.8655 142.678 69.5299 143.458C65.1699 144.286 61.906 144.408 59.7382 144.408C59.2023 144.408 58.6908 144.408 58.2767 144.408C57.8626 144.359 57.5216 144.359 57.278 144.359C56.7422 144.311 56.4499 144.311 56.4499 144.311C56.4499 144.311 56.7422 144.311 57.3268 144.262C57.6191 144.213 57.9844 144.213 58.3985 144.189C58.8126 144.14 59.3241 144.116 59.86 144.067C60.9804 143.945 62.3931 143.774 64.0251 143.482C65.6814 143.19 67.6057 142.824 69.8222 142.239C74.1578 141.118 79.5652 139.29 85.679 136.366C91.3299 133.612 97.6629 129.835 104.045 124.839L109.379 123.913Z" fill="#56B03A"/>
<path d="M45.757 16.8541C46.098 16.6835 46.4633 16.4885 46.8774 16.2692C47.7543 15.8549 48.826 15.3187 50.1657 14.807C51.5054 14.2952 53.0399 13.8078 54.818 13.3935C58.3985 12.5649 62.9778 12.1019 68.3851 12.6867C73.7925 13.2716 80.1742 15.0263 86.8969 18.4381C87.311 18.6575 87.725 18.8524 88.1391 19.0961C88.5532 19.3398 88.9673 19.5592 89.4301 19.8029C89.6493 19.9247 89.8442 20.0466 90.0877 20.1684C90.307 20.2903 90.5018 20.4121 90.721 20.534C91.1351 20.7777 91.5979 21.0457 92.012 21.3138C93.717 22.3861 95.4708 23.5559 97.2245 24.8475C97.6386 25.1399 98.1014 25.5055 98.5155 25.8467C98.9295 26.1879 99.3923 26.5047 99.8064 26.8946C100.22 27.2845 100.683 27.6013 101.097 27.9669L101.17 28.0156C101.17 28.0156 101.17 28.0156 101.219 28.0644L101.39 28.1862L101.731 28.4787L102.388 29.0636C102.802 29.4291 103.314 29.8434 103.728 30.2333C104.142 30.5989 104.556 31.0132 104.97 31.4518C105.384 31.8905 105.798 32.2317 106.212 32.6704C106.627 33.0847 107.041 33.499 107.455 33.962C108.283 34.7906 109.111 35.7166 109.964 36.594C112.472 39.3478 114.835 42.3454 117.076 45.5379C120.072 49.827 122.824 54.4086 125.236 59.3314C125.528 59.9163 125.82 60.55 126.113 61.1592C126.405 61.7928 126.697 62.3777 126.941 63.0357C127.184 63.6693 127.477 64.2786 127.72 64.9122L128.134 65.8627L128.5 66.8131C128.743 67.4467 129.011 68.1047 129.255 68.7384C129.498 69.372 129.717 70.03 129.912 70.6636C130.375 71.9552 130.789 73.2469 131.203 74.5872C131.423 75.2452 131.569 75.8789 131.739 76.5369C131.91 77.1948 132.105 77.8285 132.275 78.4865C132.446 79.1445 132.616 79.7781 132.738 80.4361C132.811 80.7773 132.908 81.0941 132.957 81.4353L133.176 82.4345C133.298 83.0925 133.469 83.7748 133.59 84.3841L133.81 85.627C135.101 82.8487 136.635 78.9251 137.171 77.6335C135.247 70.6392 132.592 63.8156 129.303 57.4306C126.6 52.1422 123.506 47.1463 120.145 42.6134C118.148 39.9083 116.077 37.3251 113.909 34.9612C112.448 33.3284 110.987 31.8418 109.501 30.3796C109.038 29.9165 108.575 29.4535 108.137 29.0392C107.674 28.6249 107.187 28.2106 106.724 27.7476C106.212 27.3333 105.774 26.919 105.311 26.4559C104.848 26.0904 104.386 25.7005 103.947 25.3349C102.072 23.7508 100.196 22.3861 98.3206 21.0457C96.4451 19.7541 94.5695 18.5843 92.694 17.5364C92.2312 17.2927 91.7684 17.0246 91.33 16.7809C91.0864 16.6591 90.8672 16.5372 90.6723 16.4154C90.4287 16.2935 90.2095 16.1961 90.0147 16.0742C89.5519 15.8549 89.0891 15.6112 88.6506 15.4162C88.1878 15.1969 87.725 15.0019 87.2866 14.7826C87.0674 14.6607 86.8238 14.5633 86.629 14.4901C86.4097 14.417 86.1662 14.3195 85.9713 14.1977C85.5572 13.9784 85.0944 13.8321 84.6316 13.6616C84.2176 13.491 83.7548 13.3204 83.3407 13.1498C83.1215 13.0767 82.9266 12.9792 82.683 12.9061C82.4638 12.833 82.269 12.7842 82.0254 12.6867C81.6113 12.5649 81.1485 12.3943 80.7344 12.2724C80.3204 12.1506 79.9063 12.0287 79.4922 11.9069C78.664 11.6144 77.8359 11.4439 77.0321 11.2489C73.7925 10.4934 70.7478 10.1766 67.9954 10.0304C62.4175 9.81105 57.9114 10.8102 54.4283 12.0287C50.9208 13.2473 48.485 14.7826 46.8043 15.8549C46.3903 16.1473 46.0493 16.391 45.7326 16.6104C45.4403 16.8297 45.1967 17.0246 44.9775 17.1952C44.6122 17.5364 44.3929 17.6583 44.3929 17.6583C44.3929 17.6583 44.6122 17.5364 45.0506 17.2927C45.1724 17.2196 45.4403 17.049 45.757 16.8541Z" fill="#0B8438"/>
<path d="M140.557 100.103L140.508 99.0306V98.4945L140.459 97.9583L140.337 95.7894C140.289 95.0826 140.216 94.3272 140.118 93.6204C140.045 92.9137 139.996 92.1582 139.899 91.4515C139.826 90.8666 139.777 90.2817 139.68 89.6968C137.682 93.1087 135.977 95.3995 134.881 96.7398C134.954 99.7374 134.833 102.686 134.589 105.562L134.345 107.39L134.224 108.316C134.175 108.608 134.102 108.901 134.053 109.193L133.761 110.972C133.639 111.557 133.517 112.142 133.395 112.727L133.176 113.604L133.054 114.018L132.933 114.433L132.519 116.09C132.397 116.675 132.178 117.162 132.007 117.723L131.471 119.258L130.814 120.891C130.594 121.427 130.399 122.012 130.156 122.426L129.498 123.888L129.328 124.254L129.109 124.619L128.743 125.326C128.5 125.789 128.232 126.277 127.964 126.74L127.136 128.08C127.014 128.299 126.843 128.543 126.721 128.738L126.259 129.372L125.333 130.614C122.751 133.831 119.828 136.561 116.516 138.608C116.102 138.852 115.687 139.12 115.273 139.363C115.054 139.485 114.859 139.607 114.64 139.729L113.982 140.07C113.568 140.289 113.106 140.484 112.692 140.728C112.229 140.899 111.766 141.094 111.352 141.264L110.694 141.557C110.475 141.63 110.231 141.727 110.037 141.8C109.574 141.971 109.111 142.142 108.673 142.263C108.21 142.385 107.723 142.507 107.26 142.629C106.748 142.751 106.31 142.873 105.847 142.97C104.897 143.141 103.923 143.336 102.924 143.482C102.413 143.531 101.974 143.604 101.463 143.653C100.951 143.701 100.464 143.701 99.9525 143.726L99.1974 143.774H98.418C97.9065 143.774 97.4193 143.774 96.9078 143.774C96.3963 143.774 95.9091 143.726 95.3976 143.701C94.8861 143.677 94.399 143.653 93.8631 143.579C89.8685 143.165 85.7764 142.215 81.8305 140.801C80.7587 141.264 77.8845 142.434 75.327 143.165C77.3974 144.286 79.4921 145.237 81.6112 146.114C85.9713 147.893 90.4774 149.063 94.9835 149.648C103.923 150.769 112.716 149.233 120.072 144.774C120.535 144.481 120.997 144.189 121.436 143.896C121.874 143.604 122.361 143.311 122.776 142.97C123.19 142.629 123.652 142.312 124.066 141.971L124.407 141.727L124.7 141.435L125.333 140.899C126.989 139.485 128.5 137.779 129.961 136.025L130.96 134.66L131.471 134.002C131.642 133.758 131.812 133.49 131.934 133.246L132.884 131.784C133.176 131.272 133.469 130.736 133.761 130.249L134.175 129.493L134.394 129.128L134.613 128.714L135.393 127.056C135.685 126.472 135.904 125.984 136.099 125.399L136.757 123.766L137.39 121.89C137.609 121.305 137.804 120.72 137.975 120.111L138.486 118.234L138.608 117.771L138.73 117.26L138.949 116.309C139.071 115.676 139.241 115.066 139.363 114.384L139.704 112.434C139.753 112.093 139.826 111.776 139.875 111.435L139.996 110.436L140.24 108.438C140.41 105.732 140.581 102.93 140.557 100.103Z" fill="#0B8438"/>
<path d="M119.098 118.088C118.586 118.21 118.099 118.332 117.587 118.454C117.344 118.527 117.076 118.576 116.832 118.673C116.589 118.722 116.321 118.795 116.053 118.844C115.541 118.965 115.005 119.087 114.47 119.209C112.35 119.672 110.134 120.038 107.893 120.428C107.308 120.501 106.773 120.598 106.188 120.671C105.603 120.745 105.068 120.842 104.434 120.891C103.85 120.964 103.265 121.013 102.681 121.11H102.559C102.559 121.11 102.559 121.11 102.51 121.11L102.291 121.159L101.828 121.208L100.902 121.281C100.269 121.329 99.6602 121.403 99.0269 121.451C98.4423 121.5 97.809 121.524 97.2488 121.573C96.6642 121.622 96.0309 121.622 95.4707 121.646C94.8374 121.646 94.2285 121.695 93.5952 121.695C92.4747 121.744 91.3786 121.744 90.2582 121.744C86.3122 121.744 82.2689 121.573 78.2255 121.159C73.013 120.623 67.8248 119.794 62.7341 118.527C62.1008 118.405 61.4919 118.186 60.8099 118.015C60.1766 117.844 59.5676 117.674 58.9343 117.503C58.301 117.284 57.6921 117.138 57.0588 116.967L56.1332 116.675L55.2076 116.382C54.623 116.163 53.9897 115.968 53.3808 115.797C52.7962 115.578 52.1629 115.383 51.6027 115.164C51.0181 114.944 50.4335 114.749 49.8977 114.506C51.2373 116.382 53.1372 118.917 54.5987 120.452C56.5473 120.988 58.5203 121.5 60.5176 121.963C66.1442 123.206 71.8926 124.083 77.5435 124.546C81.0754 124.839 84.6316 124.961 88.0416 124.961C90.112 124.961 92.1581 124.912 94.2041 124.79C94.8618 124.741 95.5438 124.717 96.2014 124.668C96.8591 124.619 97.5411 124.546 98.1987 124.498C98.8564 124.449 99.5384 124.376 100.196 124.327C100.829 124.254 101.438 124.205 102.072 124.108C104.653 123.864 107.114 123.45 109.476 123.035C111.839 122.621 114.177 122.109 116.394 121.573C116.93 121.451 117.466 121.281 118.026 121.159C118.318 121.086 118.562 121.037 118.854 120.939C119.146 120.866 119.39 120.769 119.633 120.72C120.169 120.598 120.681 120.428 121.217 120.257C121.728 120.087 122.264 119.916 122.751 119.794C122.995 119.721 123.263 119.623 123.506 119.55C123.75 119.477 124.018 119.38 124.261 119.307C124.773 119.136 125.211 118.965 125.723 118.795C126.186 118.624 126.673 118.454 127.136 118.283C127.379 118.21 127.598 118.113 127.842 118.039C128.061 117.966 128.305 117.869 128.5 117.747C128.962 117.576 129.425 117.381 129.839 117.211C130.253 116.992 130.716 116.845 131.13 116.675C131.349 116.602 131.496 116.504 131.666 116.431C132.007 115.481 132.324 114.311 132.616 113.36C129.109 114.896 125.114 116.407 120.681 117.601C120.096 117.844 119.609 117.966 119.098 118.088Z" fill="#B6C11E"/>
<path d="M29.3155 76.9755C28.9745 75.6352 28.6822 74.3923 28.3899 73.2225C27.9759 71.2973 27.6836 69.6888 27.4643 68.3485C27.3426 67.6905 27.2451 67.1056 27.1721 66.5938C27.1233 66.082 27.0503 65.6677 27.0015 65.3509C26.9285 64.6929 26.8798 64.303 26.8798 64.303C26.8798 64.303 26.8798 64.6686 26.9285 65.3022C26.9772 65.6434 26.9772 66.0577 26.9772 66.5451C27.0259 67.0568 27.0503 67.6174 27.099 68.251C27.3182 70.5905 27.6836 73.8805 28.6091 78.0722L29.3155 76.9755Z" fill="#0B8438"/>
<path d="M69.8953 134.879C63.3675 130.761 57.3755 125.545 52.2848 119.916C51.5053 119.039 50.7502 118.161 50.0439 117.284C44.5147 110.655 40.1303 103.661 36.8908 97.1785C34.6012 92.5969 32.8474 88.259 31.5321 84.3841L30.6065 85.895C31.6783 89.5506 33.1397 93.596 35.064 97.8852C36.5985 101.297 38.401 104.928 40.5688 108.584C41.1046 109.51 41.6405 110.46 42.2738 111.338C42.5661 111.801 42.8584 112.264 43.1507 112.702C43.443 113.165 43.784 113.628 44.0763 114.067C44.2468 114.286 44.3686 114.53 44.5391 114.725C44.7096 114.969 44.8801 115.188 45.0506 115.432C45.3916 115.895 45.7082 116.358 46.0492 116.797C46.3902 117.26 46.7069 117.723 47.0479 118.161C47.2184 118.381 47.3889 118.624 47.5594 118.868C47.7299 119.087 47.9248 119.331 48.0953 119.526C48.4606 119.989 48.8016 120.452 49.167 120.891C49.5324 121.354 49.9221 121.817 50.2875 122.231C50.5067 122.45 50.6528 122.694 50.872 122.889C51.0913 123.108 51.2374 123.352 51.4566 123.547C51.822 124.01 52.2117 124.473 52.6258 124.887C54.209 126.642 55.8653 128.397 57.6191 130.054C58.0332 130.468 58.5447 130.883 58.9587 131.297C59.4215 131.711 59.8843 132.125 60.2984 132.515C60.7612 132.881 61.1753 133.271 61.6381 133.685L61.7112 133.758L61.8329 133.831L62.0034 133.953L62.3688 134.246C62.6124 134.465 62.8316 134.611 63.0752 134.831C63.538 135.196 64.0251 135.586 64.4879 135.952C64.9994 136.317 65.4379 136.707 65.9494 137.024C66.4609 137.389 66.948 137.731 67.4108 138.096C67.9223 138.437 68.4095 138.754 68.921 139.095C69.7979 139.68 70.626 140.216 71.5516 140.753C73.2079 140.216 75.595 139.388 77.3 138.681C74.7425 137.755 72.2823 136.366 69.8953 134.879Z" fill="#0B8438"/>
<path d="M23.3236 119.014C23.2749 118.649 23.2505 118.186 23.1531 117.674C23.0313 116.675 22.9339 115.432 22.9095 113.921C22.8608 112.385 22.8608 110.631 23.0313 108.632C23.08 107.999 23.1531 107.39 23.2505 106.707L21.9108 105.952C21.8378 107.073 21.8378 108.169 21.8378 109.169C21.8378 113.165 22.4224 115.992 22.8364 117.918C22.9582 118.381 23.0557 118.844 23.1287 119.16C23.2505 119.526 23.3479 119.794 23.421 120.038C23.5428 120.501 23.6402 120.744 23.6402 120.744C23.6402 120.744 23.5915 120.501 23.5184 119.989C23.4454 119.721 23.421 119.38 23.3236 119.014Z" fill="#56B03A"/>
<path d="M55.6704 46.1228C54.3064 47.3413 52.9668 48.5354 51.6758 49.7783C51.1643 50.2413 50.7259 50.7287 50.2143 51.1918C49.7516 51.7035 49.2888 52.1422 48.8016 52.654C48.3388 53.117 47.876 53.6044 47.4376 54.0675C46.9748 54.5792 46.5607 55.0179 46.0979 55.5297L45.4403 56.2364L45.0993 56.602L44.9288 56.8213L44.807 56.9432L44.7339 57.0163C44.3198 57.4793 43.9057 57.9667 43.516 58.4297C43.1019 58.8928 42.6879 59.4289 42.2981 59.892C41.8841 60.4037 41.47 60.8911 41.0803 61.4029C39.5457 63.3525 38.0843 65.3265 36.7203 67.2762C36.3792 67.7879 36.0626 68.2753 35.7216 68.7384C35.5511 68.9821 35.3806 69.2501 35.2101 69.4451C35.0396 69.6888 34.9178 69.9569 34.7473 70.2006C34.455 70.7124 34.114 71.151 33.8217 71.6628C33.5294 72.1746 33.2371 72.6132 32.9448 73.125C32.823 73.3687 32.6525 73.5881 32.5308 73.8318C32.409 74.0755 32.2385 74.3435 32.1167 74.5385C31.8244 75.0015 31.5808 75.4889 31.3372 75.952C31.0937 76.415 30.8257 76.878 30.5821 77.3654C30.4604 77.5848 30.3386 77.8285 30.2168 78.0722C30.095 78.2915 29.9732 78.5352 29.8514 78.7302C29.6078 79.1932 29.3886 79.6562 29.1451 80.0949C28.9258 80.5579 28.731 81.021 28.5118 81.4596C28.049 82.3857 27.6836 83.2387 27.2939 84.116C25.7837 87.6253 24.712 90.9397 23.8838 93.986C23.8351 94.2053 23.762 94.4003 23.7133 94.6196L25.2966 96.3986C25.5401 95.4725 25.8324 94.5708 26.1247 93.6204C28.0733 87.6741 31.1911 80.826 35.819 73.7099C40.3982 66.5938 46.512 59.1852 53.9167 52.3859C56.9614 49.6077 60.2009 46.927 63.611 44.4412L55.6704 46.1228Z" fill="#56B03A"/>
<path d="M114.08 43.4664C113.909 43.4176 113.715 43.3933 113.544 43.2958C110.085 42.3454 106.31 41.468 102.169 40.7613C101.122 40.5907 100.099 40.4201 99.0026 40.2495C98.4667 40.1764 97.9308 40.0789 97.3706 40.0302C96.8347 39.9571 96.2989 39.9083 95.7143 39.8108C95.422 39.7621 95.1784 39.7621 94.8861 39.7377C94.5938 39.689 94.3503 39.689 94.058 39.6646C93.4734 39.6159 92.9375 39.5428 92.3529 39.494C91.7684 39.4453 91.2325 39.4209 90.6479 39.3722C90.3556 39.3234 90.0633 39.3234 89.771 39.2991C89.4787 39.2503 89.1865 39.2503 88.8942 39.2503C88.3096 39.2016 87.725 39.1772 87.1161 39.1285C86.5315 39.0797 85.9469 39.0797 85.338 39.0797C85.0457 39.0797 84.7534 39.031 84.4124 39.031C84.1201 39.031 83.8278 39.031 83.4868 39.031C82.9022 39.031 82.2689 38.9823 81.66 38.9823C79.1999 38.9823 76.7397 39.031 74.2066 39.2016C73.5733 39.2503 72.9156 39.2747 72.2823 39.3234C71.649 39.3722 70.9914 39.3966 70.3581 39.4453C69.7248 39.494 69.1402 39.5671 68.5312 39.6159H68.4094L68.2389 39.6646L68.0197 39.7134L67.5082 39.7621C67.1672 39.8108 66.8749 39.8352 66.5583 39.884C65.925 39.9571 65.2673 40.0058 64.634 40.1033C64.0007 40.2008 63.3918 40.3226 62.7098 40.3957C62.0765 40.4688 61.4188 40.6151 60.7855 40.6882C60.1522 40.81 59.5433 40.9319 58.8613 41.0537C53.7949 41.9798 48.7529 43.2958 43.9545 44.9286C39.156 46.5858 34.6742 48.6329 30.5578 51.0212C22.398 55.7734 15.992 61.8903 12.7037 68.714C12.4845 69.1283 12.3383 69.5426 12.1191 70.0056C11.9486 70.4199 11.7537 70.8829 11.5832 71.2972C11.4615 71.7115 11.291 72.1746 11.1204 72.5888L10.9987 72.93L10.9256 73.2712L10.7551 73.9292C10.2436 75.7082 10.0974 77.5116 10 79.3394L10.0487 80.7041V81.3621C10.0487 81.5815 10.0974 81.8252 10.0974 82.0201L10.2192 83.3849C10.2679 83.8479 10.3897 84.3109 10.4628 84.7496L10.5846 85.4076L10.6577 85.7488L10.7307 86.1143L11.0961 87.4791C11.2179 87.9909 11.3884 88.4051 11.5589 88.8194L12.0704 90.1111L12.728 91.4758C12.9473 91.9388 13.1421 92.4019 13.3857 92.8162L14.1408 94.1565L14.36 94.4977L14.5792 94.8389L14.9933 95.4969C15.2856 95.9112 15.5292 96.3742 15.8702 96.7885L16.8201 98.0801C16.9906 98.2995 17.1611 98.4944 17.3316 98.7138L17.8675 99.3474L18.9392 100.59C20.4738 102.223 22.1057 103.832 23.9325 105.342L24.6389 105.927L24.9799 106.22L25.3453 106.512L26.8067 107.585C27.2695 107.95 27.8054 108.291 28.3413 108.657C28.8528 109.022 29.3399 109.364 29.8758 109.705C34.2358 112.532 39.2047 115.042 44.539 117.065C42.9558 114.701 41.0803 111.825 39.7893 109.851C39.7406 109.802 39.6675 109.802 39.6188 109.778L38.0843 108.901L37.3292 108.486C37.0856 108.364 36.8177 108.194 36.5741 108.023L35.1127 107.097C31.3129 104.587 28.0246 101.76 25.3209 98.8112L24.371 97.6902L23.8595 97.1053C23.689 96.886 23.5672 96.7398 23.4454 96.5204L22.5685 95.3994C22.2762 95.0339 22.057 94.6196 21.7891 94.2296L21.4237 93.6447L21.2045 93.3523L21.034 93.0599L20.3763 91.8414C20.1327 91.4758 19.9622 91.0615 19.7917 90.6228L19.2559 89.4531L18.7444 88.1614C18.5739 87.7471 18.4034 87.2841 18.3303 86.9186L17.9893 85.7L17.9162 85.4076L17.8675 85.1152L17.7457 84.4815C17.6726 84.0672 17.5752 83.6529 17.5021 83.263L17.3803 82.0201C17.3316 81.8008 17.3316 81.6058 17.3073 81.3865V80.7529L17.2586 79.5344C17.3803 76.2444 18.0867 73.0031 19.5482 69.8837C19.7674 69.5182 19.9135 69.1283 20.1327 68.714C20.2058 68.4946 20.352 68.3484 20.425 68.1291L20.766 67.5442C20.9853 67.1786 21.2288 66.7887 21.4237 66.4232C21.6673 66.0576 21.9352 65.6677 22.1788 65.3021L22.5441 64.766C22.6659 64.5954 22.8364 64.4004 22.9582 64.2298C23.2505 63.8643 23.5428 63.5231 23.8351 63.1576C24.1274 62.792 24.4684 62.4508 24.7607 62.0853C25.1017 61.7441 25.394 61.3785 25.7106 61.0373C26.3683 60.3793 27.0503 59.6726 27.8297 59.039C28.1951 58.6978 28.5848 58.381 28.9502 58.0398C29.3156 57.7474 29.7296 57.4062 30.1194 57.0894L30.7039 56.6263L31.3372 56.1633C31.7513 55.8708 32.1654 55.5784 32.5795 55.2372C32.9935 54.9448 33.4563 54.6523 33.8704 54.3599C34.3332 54.0674 34.7473 53.775 35.2101 53.5313C38.8637 51.3136 42.9071 49.4127 47.194 47.7799C51.4809 46.1471 56.0602 44.9042 60.7125 43.9538C68.653 42.2966 76.7885 41.5411 84.4854 41.5411C85.8251 41.5411 87.1161 41.5411 88.407 41.5899C97.2245 41.8823 105.311 43.0521 112.131 44.6605C113.179 44.9042 114.177 45.1723 115.176 45.416L114.08 43.4664Z" fill="#B6C11E"/>
<path d="M140.995 56.2121C140.776 56.0415 140.483 55.8465 140.167 55.5541C139.801 55.3104 139.412 55.0179 138.949 54.7255C137.073 53.4338 134.248 51.6061 130.083 49.559C128.451 48.7304 126.575 47.9018 124.505 47.0488L125.625 48.7547C126.868 49.2178 128.085 49.7052 129.157 50.1682C131.325 51.0943 133.152 51.9473 134.735 52.7515C136.318 53.5313 137.609 54.2624 138.608 54.8229C139.119 55.1154 139.558 55.4078 139.948 55.6028C140.313 55.8465 140.654 56.0171 140.898 56.1877C141.409 56.5289 141.653 56.6995 141.653 56.6995C141.653 56.6995 141.458 56.5289 140.995 56.2121Z" fill="#B6C11E"/>
<path d="M94.131 24.5063C89.0159 25.9685 83.9008 27.9668 78.8588 30.4526C73.8655 32.9628 68.994 35.8628 64.4148 39.1528L72.9399 38.4461C75.0103 37.2275 77.1051 36.1553 79.2242 35.1073C79.8088 34.8149 80.3446 34.5712 80.9292 34.3275C81.5138 34.0838 82.0497 33.8157 82.6342 33.572C83.2188 33.3283 83.8034 33.109 84.388 32.8653L85.2648 32.4997L86.1417 32.1585C86.7263 31.9392 87.3109 31.7442 87.8955 31.5249C88.48 31.3056 89.0646 31.1594 89.6492 30.94C90.8184 30.5257 91.9875 30.2333 93.108 29.8921C93.6926 29.7215 94.2771 29.5997 94.8617 29.4778C95.4463 29.356 96.0309 29.1854 96.6155 29.0635C97.2001 28.9417 97.7359 28.8442 98.3205 28.7223C98.5397 28.6736 98.7833 28.6492 98.9782 28.6005L94.131 24.5063Z" fill="#56B03A"/>
<path d="M146.549 48.9985C146.475 48.4623 146.329 47.9262 146.208 47.4144C146.086 46.9026 145.988 46.3421 145.842 45.8791L145.379 44.3437L145.258 43.9782L145.136 43.6126L144.843 42.8572C144.186 40.9075 143.212 39.0554 142.213 37.3251C140.094 33.9133 137.341 30.9157 134.126 28.5274L132.884 27.6988C132.47 27.4551 132.104 27.1627 131.642 26.919L130.278 26.1635L129.937 25.9442L129.571 25.7736L128.865 25.4324C128.402 25.2131 127.939 24.9694 127.452 24.7988L125.942 24.2139C125.698 24.1408 125.431 23.9946 125.187 23.9215L124.407 23.7021L122.873 23.2391C120.827 22.7273 118.757 22.313 116.516 22.1181C116.443 22.1181 116.345 22.0693 116.223 22.0693L115.346 21.9962L114.932 21.9475H114.494C113.909 21.8987 113.325 21.8987 112.74 21.8743C112.156 21.8256 111.522 21.8743 110.962 21.8743C110.402 21.8743 109.744 21.8743 109.184 21.9231C107.187 21.9962 105.116 22.2155 103.022 22.5567L108.94 27.7963C110.061 27.7963 111.157 27.8451 112.229 27.9669C114.591 28.1862 116.881 28.5518 119.098 29.1367L120.51 29.551L121.217 29.7703C121.46 29.8434 121.679 29.9409 121.874 30.014L123.214 30.5258C123.677 30.6964 124.042 30.8914 124.505 31.1107L125.138 31.4031L125.479 31.5737L125.772 31.7443L126.941 32.4023C127.355 32.6216 127.72 32.9141 128.159 33.1578L129.328 33.9133C132.275 36.0822 134.735 38.7142 136.684 41.7849C138.559 44.9043 139.972 48.4379 140.727 52.2884L140.971 53.7507C141.019 53.9944 141.044 54.2137 141.092 54.5061L141.165 55.2616C141.214 55.7734 141.287 56.2608 141.336 56.7726C141.385 57.2844 141.385 57.8205 141.409 58.3079L141.458 59.0634C141.458 59.3071 141.458 59.5752 141.458 59.8432C141.458 60.355 141.458 60.8912 141.458 61.4273C141.458 61.9391 141.409 62.4996 141.385 63.0114C141.336 63.5475 141.336 64.0593 141.263 64.5954C141.141 65.6677 141.044 66.7644 140.849 67.8367C140.776 68.3728 140.678 68.909 140.605 69.4695C140.483 70.0056 140.386 70.5418 140.264 71.1267L140.094 71.9553L139.875 72.7838C139.753 73.32 139.582 73.9049 139.46 74.441C139.339 74.9772 139.119 75.5621 138.998 76.0982C138.827 76.6344 138.705 77.2192 138.486 77.7554C137.025 82.2151 135.125 86.6749 132.86 90.9641C130.57 95.302 127.866 99.4693 124.919 103.369C124.554 103.88 124.164 104.368 123.847 104.831C123.482 105.294 123.092 105.781 122.727 106.244C122.361 106.707 121.972 107.195 121.606 107.658C121.192 108.169 120.778 108.608 120.388 109.12L119.755 109.827L119.463 110.192L119.292 110.363C119.244 110.412 119.244 110.412 119.244 110.412L119.171 110.485C118.757 110.948 118.342 111.411 117.953 111.825C117.539 112.288 117.125 112.702 116.735 113.117C116.321 113.531 115.955 113.994 115.517 114.408C113.885 116.114 112.18 117.698 110.475 119.282L115.931 118.234C116.564 117.65 117.149 117.065 117.758 116.48C119.585 114.701 121.387 112.849 123.117 110.899C123.531 110.436 123.945 109.949 124.407 109.485C124.822 108.974 125.236 108.486 125.698 107.95C126.113 107.438 126.575 106.902 126.989 106.415C127.403 105.903 127.818 105.367 128.232 104.879C131.52 100.663 134.565 96.1793 137.171 91.5002C139.801 86.8455 141.994 81.9714 143.699 77.0974C146.963 67.398 148.132 57.5281 146.549 48.9985Z" fill="#56B03A"/>
<path d="M109.379 123.913C108.916 124.278 108.453 124.668 108.015 125.034C107.552 125.399 107.089 125.74 106.651 126.106L105.944 126.618L105.238 127.13C104.775 127.471 104.313 127.788 103.874 128.129C103.411 128.47 102.948 128.762 102.51 129.079L101.852 129.542L101.195 130.005C100.732 130.298 100.269 130.59 99.8307 130.931C99.3679 131.224 98.9051 131.516 98.491 131.76C97.5655 132.345 96.7129 132.832 95.8361 133.393C92.3042 135.44 88.9185 137.097 85.7277 138.462C79.3704 141.216 73.8655 142.678 69.5299 143.458C65.1699 144.286 61.906 144.408 59.7382 144.408C59.2023 144.408 58.6908 144.408 58.2767 144.408C57.8626 144.359 57.5216 144.359 57.278 144.359C56.7422 144.311 56.4499 144.311 56.4499 144.311C56.4499 144.311 56.7422 144.311 57.3268 144.262C57.6191 144.213 57.9844 144.213 58.3985 144.189C58.8126 144.14 59.3241 144.116 59.86 144.067C60.9804 143.945 62.3931 143.774 64.0251 143.482C65.6814 143.19 67.6057 142.824 69.8222 142.239C74.1578 141.118 79.5652 139.29 85.679 136.366C91.3299 133.612 97.6629 129.835 104.045 124.839L109.379 123.913Z" fill="#56B03A"/>
<path d="M156.608 93.1087C156.535 93.328 156.365 93.5717 156.243 93.8642C156.072 94.1566 155.877 94.4978 155.658 94.9121C155.195 95.6676 154.611 96.618 153.831 97.6903C153.003 98.7626 152.053 99.9811 150.787 101.321C148.619 103.612 145.623 106.244 141.58 108.852C141.458 109.68 141.336 110.631 141.165 111.606C141.409 111.435 141.677 111.265 141.872 111.094C146.695 107.804 149.91 104.514 152.078 101.711C154.294 98.9332 155.366 96.5449 156.072 94.9608C156.243 94.5465 156.365 94.2054 156.486 93.9129C156.559 93.6205 156.706 93.328 156.73 93.1331C156.852 92.7188 156.949 92.4994 156.949 92.4994C156.949 92.4994 156.827 92.6944 156.608 93.1087Z" fill="#B6C11E"/>
</svg>
