<svg xmlns="http://www.w3.org/2000/svg" version="1.1" xmlns:xlink="http://www.w3.org/1999/xlink" xmlns:svgjs="http://svgjs.com/svgjs" width="112" height="112"><svg width="112" height="112" viewBox="0 0 112 112" fill="none" xmlns="http://www.w3.org/2000/svg">
    <path d="M2.35443 61.4419C0.12372 39.0544 -0.991636 27.8606 3.92773 19.4455C5.51648 16.7277 7.5231 14.2769 9.87393 12.1832C17.153 5.70001 28.3467 4.58465 50.7343 2.35394C73.1218 0.123231 84.3156 -0.992124 92.7307 3.92724C95.4485 5.51599 97.8993 7.52261 99.993 9.87344C106.476 17.1525 107.592 28.3462 109.822 50.7338C112.053 73.1213 113.168 84.3151 108.249 92.7303C106.66 95.448 104.654 97.8988 102.303 99.9926C95.0237 106.476 83.83 107.591 61.4424 109.822C39.0549 112.052 27.8611 113.168 19.4459 108.248C16.7282 106.66 14.2774 104.653 12.1836 102.302C5.7005 95.0232 4.58514 83.8295 2.35443 61.4419Z" fill="#3183FF"></path>
    <path d="M32.1093 63.1238C30.8533 63.5346 29.9995 64.7402 29.9995 66.1031L29.9995 71.0001C29.9995 72.8239 31.022 74.482 32.6206 75.2505L55.8497 86.418C57.5083 87.2154 59.4268 87.1924 61.067 86.3554L80.5327 76.4226C82.5692 75.3834 83.8703 73.2504 83.9005 70.9013L84 63.171C84.0355 60.4038 82.3076 57.942 79.7532 57.1205L67.6992 53.2438C65.9334 52.6759 64.0419 52.6806 62.2787 53.2572L32.1093 63.1238Z" fill="white"></path>
    <path d="M33.6984 58.8361C31.7812 59.5072 29.7811 58.0754 29.7122 55.9827L29.0041 34.4617C28.8878 30.9291 31.6243 28 35.0408 28H78.87C81.5074 28 83.5872 30.3217 83.3871 33.0424L83.056 37.5458C82.8722 40.0446 81.2633 42.1881 78.9688 42.9912L33.6984 58.8361Z" fill="white"></path>
</svg><style>@media (prefers-color-scheme: light) { :root { filter: none; } }
</style></svg>