<svg width="192" height="192" viewBox="0 0 48 48" fill="none" xmlns="http://www.w3.org/2000/svg">
<rect width="48" height="48" fill="#E2E6EF"/>
<path d="M-1128 -5344C-1128 -5350.63 -1122.63 -5356 -1116 -5356H3360C3366.63 -5356 3372 -5350.63 3372 -5344V1834C3372 1840.63 3366.63 1846 3360 1846H-1116C-1122.63 1846 -1128 1840.63 -1128 1834V-5344Z" fill="#D6DAE3"/>
<path d="M-628 -690C-628 -691.105 -627.105 -692 -626 -692H2870C2871.1 -692 2872 -691.105 2872 -690V1344C2872 1345.1 2871.1 1346 2870 1346H-626C-627.105 1346 -628 1345.1 -628 1344V-690Z" fill="#CBCFD7"/>
<g clip-path="url(#clip0_0_1)">
<path d="M48 0H0V48H48V0Z" fill="#FF0032"/>
<path d="M31.9766 3.69141V5.90045H36.807V14.7661H39.5069V5.90045H44.3276V3.69141H31.9766Z" fill="white"/>
<path d="M14.609 3.69141L11.0745 11.0156L7.54986 3.69141H3.69141V14.7661H6.40116V6.84297L9.84727 13.5388H12.3116L15.7577 6.84297V14.7661H18.4576V3.69141H14.609Z" fill="white"/>
<path d="M41.6256 40.6168C41.5569 41.0586 41.3802 41.4219 41.0954 41.6968C40.8304 41.9521 40.4671 42.1386 40.0155 42.2466C39.5737 42.3448 38.9159 42.4037 38.2286 42.4037C37.5119 42.4037 36.8835 42.3153 36.3436 42.1288C35.8232 41.9521 35.4108 41.6379 35.1261 41.2059C34.8316 40.7739 34.6843 40.1456 34.6843 39.3307V38.2016C34.6843 37.3965 34.8316 36.7682 35.1261 36.3264C35.4207 35.8944 35.8232 35.5802 36.3436 35.4035C36.8737 35.217 37.5119 35.1286 38.2286 35.1286C38.9159 35.1286 39.5737 35.1875 40.0155 35.2857C40.4671 35.3937 40.8304 35.5704 41.0954 35.8355C41.3802 36.1104 41.5569 36.4737 41.6256 36.9155H44.3256C44.247 36.0024 43.9427 35.2268 43.4027 34.5984C42.9118 34.029 42.2245 33.6166 41.3703 33.3614C40.5456 33.1159 39.4558 32.9883 38.2286 32.9883C36.9326 32.9883 35.8134 33.1748 34.8905 33.5381C33.9578 33.9112 33.2313 34.5297 32.7305 35.3839C32.2495 36.1988 32.004 37.2984 31.9844 38.6336V38.7612L32.1316 38.7711L31.9844 38.7809V38.7907V38.9085C32.004 40.2438 32.2495 41.3434 32.7305 42.1583C33.2313 43.0124 33.9578 43.631 34.8905 44.004C35.8134 44.3673 36.9326 44.5538 38.2286 44.5538C39.4558 44.5538 40.5456 44.4262 41.3703 44.1808C42.2245 43.9255 42.9019 43.5131 43.4027 42.9437C43.9427 42.3252 44.2568 41.5397 44.3256 40.6267H41.6256V40.6168Z" fill="white"/>
</g>
<defs>
<clipPath id="clip0_0_1">
<rect width="48" height="48" fill="white"/>
</clipPath>
</defs>
</svg>
