<?xml version="1.0" encoding="utf-8"?>
<!-- Generator: Adobe Illustrator 27.5.0, SVG Export Plug-In . SVG Version: 6.00 Build 0)  -->
<svg version="1.1" id="Layer_1" xmlns="http://www.w3.org/2000/svg" xmlns:xlink="http://www.w3.org/1999/xlink" x="0px" y="0px"
     viewBox="0 0 82.9 51" style="enable-background:new 0 0 82.9 51;" xml:space="preserve">
<style type="text/css">
    .bg { fill:#E11F26; }
	.text { fill:#fff; }
</style>
    <rect class="bg" width="82.9" height="51"/>
    <path class="text" d="M53.2,15v0.9h8c0.5,0,1.3,0,1.9,0.5c0.5,0.5,0.5,1.3,0.5,1.9v8c0,0.5,0,1.3-0.5,1.9c-0.5,0.5-1.3,0.5-1.9,0.5
	h-3.9c-0.7,0-1.5,0-1.9-0.7c-0.3-0.7,0.1-1.4,0.5-1.9l5.2-6.9h-8L50,23.4c-0.5,0.7-1,1.3-1,2.1c0,0.8,0.4,1.4,1,2.1l0.8,1.1
	c0.8,1.1,1.6,2.1,2.7,2.7c1.1,0.5,2.3,0.5,4.1,0.5H61c2,0,5,0,7-2c2-2,2-4.9,2-6v-3.2c0-1.1,0-4-2-6c-2-2-5-2-7-2h-5.5
	c-0.5,0-1.2,0-1.7,0.5C53.2,13.8,53.2,14.5,53.2,15"/>
    <polygon class="text" points="43.7,19.1 51.6,19.1 42.1,31.9 34.1,31.9 "/>
    <path class="text" d="M12.6,21.4c0-0.5,0-1.2,0.5-1.7c0.5-0.5,1.2-0.5,1.7-0.5h13.4c1.7,0,3,0,4.1,0.5c1.1,0.5,1.9,1.6,2.7,2.7
	l0.8,1.1c0.6,0.8,1,1.3,1,2.1c0,0.8-0.5,1.4-1,2.1l-3.2,4.3h-8l5.2-6.9c0.4-0.5,0.9-1.2,0.5-1.9c-0.3-0.7-1.2-0.7-1.9-0.7h-6.2v15.9
	h-6.4V22.3h-3.2V21.4z"/>
</svg>
