<svg width="41" height="39" viewBox="0 0 41 39" fill="none" xmlns="http://www.w3.org/2000/svg">
<path d="M20.2819 38.1063C9.08202 38.1063 3.74406 31.2901 2.27813 29.018C-0.0992796 25.328 -0.67883 21.2894 0.837332 18.9715C1.07418 18.6104 1.35408 18.2987 1.67346 18.038C1.06341 13.4956 2.34093 8.92677 5.31584 5.63137C7.65199 3.04225 13.0779 -0.899548 23.1581 1.80053C24.1647 2.07001 25.0134 2.6671 25.5822 3.44559C28.2377 3.40508 31.4566 4.19767 33.3819 5.57501C39.3963 9.88316 41.9836 16.946 40.1373 24.0053C38.1923 31.4363 31.8747 36.8752 24.0391 37.8633C22.7185 38.0306 21.4679 38.1063 20.2819 38.1063ZM2.12203 20.2379C1.2536 22.0538 1.89237 25.2012 3.75841 28.0986C5.23869 30.3953 11.0593 37.7646 23.8148 36.1583C30.9345 35.2618 36.6762 30.3231 38.4399 23.5773C40.105 17.2137 37.7707 10.8466 32.3484 6.96292C30.8358 5.87972 28.383 5.2703 26.3089 5.17696C26.3376 5.35309 26.3519 5.53274 26.3555 5.71591C26.3735 6.93298 25.8603 7.96158 24.9865 8.46707C24.1934 8.92501 23.2389 8.88626 22.2987 8.35787C21.4894 7.90346 20.9852 7.13024 20.9476 6.2901C20.9063 5.37598 21.4033 4.60101 22.3435 4.10608C22.6378 3.95109 22.9751 3.82427 23.3465 3.72564C23.1473 3.61115 22.9284 3.52133 22.697 3.45968C15.9039 1.63849 10.1963 2.81504 6.62566 6.77094C4.16212 9.50272 3.01738 13.3688 3.36188 17.2243C3.97731 17.0799 4.66093 17.0517 5.39479 17.1433C5.56345 15.8047 6.10173 14.4784 6.99528 13.3494C9.30093 10.4345 12.8572 9.73521 14.9637 10.7427C16.5283 11.493 17.1724 13.0623 16.688 14.9416C15.6921 18.7954 10.2017 19.1318 7.18368 19.0138C7.27878 19.5034 7.44923 19.9754 7.69326 20.4105C8.76264 22.3127 11.0252 23.1986 14.0629 22.9063C14.795 22.8129 15.6814 22.6421 16.5462 22.4149C16.5085 22.2616 16.4906 22.1172 16.4834 21.9869C16.4009 20.3682 18.0516 18.7637 19.4727 18.5118C20.4828 18.3321 21.3369 18.8359 21.6455 19.794C21.8591 20.458 21.7693 21.1221 21.3836 21.7139C21.0785 22.1824 20.5977 22.5804 20.0235 22.9168C20.2568 22.9556 20.5187 22.9873 20.8166 23.0102C26.1223 23.2462 27.52 21.6099 27.8214 21.1044C28.2072 20.4563 27.9955 19.8592 27.7515 19.4735C27.127 18.4924 25.3256 17.4233 22.3004 17.6452C21.9506 17.6717 21.2275 17.6998 20.7376 17.6452C18.2436 17.3687 17.612 16.1587 17.4577 15.463C17.1347 14.0046 18.2526 12.2821 20.3052 11.0756C22.557 9.75107 25.8908 9.13461 28.9339 11.0034C30.8932 10.482 32.7234 11.0157 34.1229 12.5322C36.7515 15.3784 37.166 20.8561 35.0882 25.2734C33.6187 28.3962 29.6677 33.5868 19.758 33.2927L19.7221 33.2909C11.6532 32.7273 5.49527 28.7221 2.82898 22.3056C2.54728 21.624 2.31223 20.9336 2.12203 20.2379ZM19.8297 31.5736C28.7311 31.8378 32.212 27.2884 33.4985 24.5513C35.4758 20.3471 34.7097 15.7254 32.8257 13.6841C32.2641 13.0764 31.6343 12.7065 30.9417 12.578C31.2234 12.9795 31.3741 13.448 31.3777 13.9571C31.3831 14.9698 30.7676 15.9544 29.8436 16.407C28.9267 16.8579 27.8806 16.7294 26.9727 16.0548C26.0092 15.3397 25.6234 14.2177 25.9644 13.124C26.1169 12.6361 26.395 12.2116 26.7646 11.8787C24.7407 11.1901 22.6808 11.6779 21.2041 12.548C19.7633 13.3952 19.0385 14.5101 19.1676 15.0966C19.2592 15.5105 19.9194 15.824 20.9332 15.9368C21.2293 15.9702 21.7891 15.9579 22.1677 15.9297C25.9679 15.6514 28.3095 17.1063 29.2353 18.5611C29.9333 19.6584 29.9692 20.9001 29.3322 21.9692C28.6522 23.1106 26.6264 24.9846 20.7071 24.7239C19.2681 24.613 18.31 24.2924 17.6748 23.8926C16.1802 24.3435 14.7358 24.5513 14.2585 24.6112C10.5085 24.974 7.56586 23.7429 6.15736 21.2383C5.74647 20.5074 5.49348 19.7042 5.3912 18.8746C5.26919 18.8605 5.20101 18.85 5.19383 18.8482C4.59454 18.7689 4.06523 18.7971 3.61487 18.931C3.80506 19.8539 4.08318 20.7663 4.451 21.654C6.85533 27.4381 12.4588 31.0541 19.8297 31.5736ZM19.8728 20.1886C19.7167 20.1886 19.2861 20.3224 18.8339 20.7575C18.4571 21.1203 18.231 21.5465 18.2292 21.8688C19.0187 21.5536 19.6467 21.1855 19.9051 20.7874C20.011 20.6254 20.0307 20.488 19.9733 20.3101C19.9446 20.2203 19.9159 20.1938 19.9159 20.1921C19.9069 20.1903 19.8925 20.1886 19.8728 20.1886ZM7.13524 17.3C9.78538 17.4092 14.3177 17.1186 14.9888 14.5207C15.2705 13.4269 15.0031 12.6766 14.1939 12.2891C12.7423 11.5934 10.0599 12.2785 8.37687 14.4044C7.69146 15.271 7.2716 16.2837 7.13524 17.3ZM28.5589 12.8404C28.0278 12.9602 27.7335 13.3212 27.6366 13.6295C27.5792 13.8162 27.5003 14.2935 28.0278 14.6862C28.401 14.9628 28.7473 15.0262 29.0595 14.8729C29.3896 14.7109 29.6283 14.3305 29.6247 13.9676C29.6247 13.6365 29.09 12.932 28.5589 12.8404ZM24.5379 5.2386C23.9871 5.31081 23.517 5.43763 23.1707 5.6208C22.6826 5.87795 22.6916 6.11397 22.697 6.21436C22.7077 6.45919 22.889 6.70929 23.1707 6.86605C23.4326 7.014 23.8076 7.1549 24.0983 6.98582C24.4141 6.80264 24.6133 6.31476 24.6043 5.74057C24.6025 5.56797 24.5792 5.40064 24.5379 5.2386Z" fill="#FF54DF"/>
</svg>
