<?xml version="1.0" encoding="UTF-8"?>
<svg width="64px" height="63px" viewBox="0 0 64 63" version="1.1" xmlns="http://www.w3.org/2000/svg" xmlns:xlink="http://www.w3.org/1999/xlink">
    <title>Artboard</title>
    <g id="Artboard" stroke="none" stroke-width="1" fill="none" fill-rule="evenodd">
        <g id="favicon" transform="translate(15.000000, 3.000000)" fill="#007AC2" fill-rule="nonzero">
            <path d="M31.5554286,19.2499734 C31.5083721,21.265843 31.2536532,23.391948 30.9242576,24.6639685 C31.0418989,22.4726808 30.7616057,19.3812973 30.2245477,16.9685803 C29.6864668,14.5568218 28.1632679,10.524124 26.9469594,8.65970817 C25.8268098,10.4368942 24.4417117,13.9222494 23.7194965,16.9474917 C22.9921665,19.9736926 22.9706842,23.6325487 22.9706842,24.7291511 C22.7783663,23.8050911 22.2945026,20.5066567 22.4326032,17.189051 C22.5451296,14.4523378 23.228472,11.6418149 23.6018552,10.3487059 C25.0288951,6.03035467 26.643138,3.26776014 26.9469594,2.82873575 C27.2518038,3.26776014 29.2854634,6.66588561 30.342189,10.2394291 C31.3937997,13.8129726 31.6024851,17.2321866 31.5554286,19.2499734 Z M26.9715106,34.6858025 C26.3403396,33.5671531 25.3552218,31.4381723 25.2641776,28.1512408 C25.2375805,24.971669 26.5981274,22.2512515 26.9940159,21.6828203 C27.3479627,22.2512515 28.5141458,24.6198743 28.6542924,27.8655874 C28.7473825,31.0442007 27.625187,33.5441474 26.9715106,34.6858025 Z M31.9308578,10.2844818 C30.6439645,4.99989349 27.4165016,0.702630738 26.9715106,0 C26.2697548,0.987325594 23.6949453,4.77846416 22.3855467,8.99041431 C20.9564609,13.6816487 20.7477755,17.8456705 21.2408459,21.9464267 C21.7298244,26.0471829 23.5793499,30.2562573 23.5793499,30.2562573 C24.5624218,32.4676749 26.0354952,34.8372564 26.9940159,36 C28.3965046,34.2889552 31.6270364,29.1845777 32.6336365,22.5158164 C33.1942228,18.8099904 33.22082,15.5661945 31.9308578,10.2844818 L31.9308578,10.2844818 Z" id="Fill-9"></path>
            <path d="M28.8123593,36.9985395 L19.6569676,36.9985395 L19.6569676,43.2541684 C19.663665,43.2454056 19.6703624,43.2356693 19.6799302,43.2269065 C21.8345903,41.0313512 25.3363913,41.0313512 27.4939217,43.2269065 C29.6504953,45.4244091 29.6504953,48.985006 27.4939217,51.1805613 C27.4872242,51.1902977 27.4728726,51.1941922 27.4633048,51.2068495 L27.4633048,51.2078232 C27.4546938,51.2185332 27.4403422,51.2282696 27.4317312,51.238006 C25.2808982,53.4131149 22.4689329,54.5006694 19.6569676,54.5006694 C16.8306506,54.5006694 14.0052904,53.4043522 11.8525439,51.2126914 C8.05509905,47.3473456 7.6025439,41.3662829 10.496792,36.9985395 C10.8871567,36.4104617 11.3377983,35.8476986 11.8525439,35.3268018 C14.0052904,33.1341674 16.8306506,32.0368766 19.6569676,32.0368766 L19.6569676,17 C8.79947096,17 0,25.9535818 0,36.9985395 C0,48.0454446 8.79947096,57 19.6569676,57 C25.3153422,57 30.4140027,54.5639559 34,50.6674537 L34,36.9985395 L28.8123593,36.9985395" id="Fill-10"></path>
        </g>
    </g>
</svg>