<svg width="16" height="16" viewBox="0 0 16 16" fill="none" xmlns="http://www.w3.org/2000/svg">
<path d="M13 0H3C1.34315 0 0 1.34315 0 3V13C0 14.6569 1.34315 16 3 16H13C14.6569 16 16 14.6569 16 13V3C16 1.34315 14.6569 0 13 0Z" fill="white"/>
<path d="M14.3392 8.80535C14.3392 6.7166 13.2015 4.88013 11.4923 3.834L11.5152 5.25237C12.5312 6.12562 13.1751 7.3958 13.1751 8.80535C13.1751 9.44926 13.0375 10.0632 12.7958 10.6242C12.0603 9.92558 11.5364 9.10349 11.2101 8.13321C10.8167 6.95829 10.725 5.67223 10.7109 4.10038L10.7127 3.42472C10.3599 3.273 9.99124 3.15304 9.61377 3.06836L9.61553 4.09862C9.65257 9.52512 10.5927 11.762 11.9915 13.4433L11.9933 13.4415L11.9915 13.4433C13.422 12.3636 14.3392 10.6877 14.3392 8.80535C14.3392 8.80711 14.3392 8.80711 14.3392 8.80535Z" fill="#3B175C"/>
<path d="M6.80311 4.10057L6.80487 3.07031C6.4274 3.15499 6.05874 3.27495 5.70597 3.42667L5.70773 4.10233C5.69185 5.67242 5.6019 6.96024 5.20855 8.13516C4.88399 9.10544 4.35835 9.92576 3.62281 10.6261C3.38115 10.0651 3.24357 9.45121 3.24357 8.8073C3.24357 7.39599 3.88563 6.12757 4.90339 5.25432L4.92632 3.83595C3.21535 4.88032 2.07764 6.71679 2.07764 8.80553V8.8073C2.07764 10.6896 2.99663 12.3656 4.42538 13.4452L4.42362 13.4435L4.42538 13.4452C5.82767 11.7658 6.76607 9.52707 6.80311 4.10057Z" fill="#3B175C"/>
<path d="M8.75862 2.02293C8.5593 2.00706 8.37938 2 8.21005 2C8.04072 2 7.8608 2.00706 7.65972 2.02293V3.24196C7.65972 8.58378 7.45334 10.9054 6.6543 14.5113C7.66677 14.7671 8.74275 14.7671 9.75699 14.5131C8.96323 10.9336 8.75862 8.612 8.75862 3.24196V2.02293Z" fill="#3B175C"/>
</svg>
