<?xml version="1.0" encoding="UTF-8"?>
<svg id="_Шар_1" data-name="Шар_1" xmlns="http://www.w3.org/2000/svg" width="189.7" height="189.7" xmlns:xlink="http://www.w3.org/1999/xlink" viewBox="0 0 189.7 189.7">
  <defs>
    <style>
      .cls-1 {
        fill: none;
      }

      .cls-2 {
        fill: #bcf521;
      }

      .cls-3 {
        fill: #101811;
      }

      .cls-4 {
        clip-path: url(#clippath);
      }
    </style>
    <clipPath id="clippath">
      <rect class="cls-1" x="14.9" y="15.9" width="160" height="160"/>
    </clipPath>
  </defs>
  <g id="Layer_1">
    <path class="cls-3" d="M94.85,0h0c52.38,0,94.85,42.47,94.85,94.85h0c0,52.38-42.47,94.85-94.85,94.85h0C42.47,189.7,0,147.23,0,94.85h0C0,42.47,42.47,0,94.85,0Z"/>
    <g class="cls-4">
      <path class="cls-2" d="M95.01,78.22c5.72,0,8.64,3.03,8.64,41.86s-2.92,41.86-8.64,41.86-8.64-3.03-8.64-41.86,2.92-41.86,8.64-41.86ZM75.6,74.86c-4.38,7.97-6.62,21.88-6.62,45.23,0,46.35,8.64,55.33,25.92,55.33s25.92-8.98,25.92-55.33-8.64-55.33-25.92-55.33-9.88,1.01-13.02,3.03h0c-2.92-3.03-1.46-8.98,3.93-10.44,1.46-.45,25.59-7.52,25.59-7.52,5.72-1.46,8.98-5.95,8.98-12.01v-19.42c0-3.03-1.46-3.03-2.92-1.46-1.12,1.12-4.83,6.85-6.51,9.31,0,0-19.53,10.1-25.25,13.13-19.98,10.33-20.2,22.22-10.33,35.58h0l.22-.11Z"/>
    </g>
  </g>
</svg>