<?xml version="1.0" encoding="UTF-8"?> <svg xmlns="http://www.w3.org/2000/svg" width="348" height="348" viewBox="0 0 348 348" fill="none"><path d="M264.166 204.756C264.24 205.712 264.297 206.678 264.333 207.645C264.375 208.612 264.396 209.595 264.395 210.573C264.451 231.913 255.896 253.207 242.03 267.237C228.159 281.273 208.955 288.041 187.735 288.132C200.476 274.236 218.254 254.106 230.99 240.21C243.726 226.32 251.425 218.647 264.166 204.756ZM256.819 177.268C258.132 180.027 259.292 182.853 260.283 185.772C261.275 188.685 262.092 191.675 262.74 194.738C248.562 210.203 229.356 231.152 215.178 246.622C201.004 262.087 191.864 272.047 177.691 287.518C174.591 287.124 171.556 288.485 168.58 287.75C165.618 286.993 162.703 284.115 159.885 283.021C176.039 265.399 185.106 259.937 201.26 242.316C217.414 224.683 240.665 194.895 256.819 177.268ZM242.819 157.064C244.71 159.033 246.496 161.111 248.172 163.274C249.848 165.433 251.413 167.689 252.858 170.021C236.109 188.295 219.364 206.57 202.615 224.839C185.865 243.108 169.115 261.382 152.365 279.652C149.922 278.387 147.562 277 145.28 275.504C142.998 274.009 140.799 272.38 138.694 270.648C173.406 232.783 208.107 194.924 242.819 157.064ZM223.639 142.496C228.463 145.089 232.981 148.181 237.123 151.705C219.751 170.653 221.21 171.167 203.839 190.111C172.38 211.622 150.286 246.426 132.914 265.374C130.997 263.443 129.18 261.403 127.473 259.277C125.766 257.151 124.168 254.928 122.687 252.628L223.639 142.496ZM198.685 134.231C204.795 135.13 210.672 136.76 216.224 139.013C199.961 156.759 183.684 170.593 167.415 188.344C151.152 206.085 134.901 227.727 118.632 245.473C117.283 242.783 116.081 240 115.048 237.13C114.009 234.266 113.139 231.318 112.444 228.305L198.685 134.231ZM187.23 133.404C187.761 133.401 188.287 133.415 188.819 133.428C175.822 147.604 163.158 154.902 150.161 169.084C137.164 183.266 123.832 204.315 110.841 218.491C110.715 217.249 110.626 216.007 110.559 214.753C110.497 213.5 110.461 212.23 110.458 210.97C110.351 168.252 144.729 133.513 187.23 133.404ZM174.201 108.338L174.665 108.458C173.867 108.386 166.315 117.625 165.881 119.141C164.738 119.759 163.208 118.789 162.004 117.925C165.654 114.1 170.082 111.097 174.201 108.338ZM190.02 105.716L190.443 104.247C193.399 103.59 196.346 102.784 198.441 101.827C201.017 100.66 203.698 99.433 206.485 98.2093C205.535 102.716 205.522 108.042 209.049 111.671L208.834 111.557L207.904 113.596C203.7 113.258 194.089 107.662 190.02 105.716ZM177.909 120.506C181.008 118.188 187.981 112.689 189.066 109C193.805 110.589 198.195 112.599 202.155 114.372C203.445 114.952 205.254 115.44 207.073 115.831C208.06 119.191 209.166 121.614 211.451 123.258C203.727 121.119 195.594 119.991 187.197 120.015C184.061 120.016 180.96 120.187 177.909 120.506ZM163.829 123.149L157.349 119.715C159.595 118.165 161.018 119.796 162.78 120.667L165.923 121.798L165.882 122.612C165.194 122.782 164.506 122.962 163.829 123.149ZM144.965 130.251C145.669 128.013 145.702 123.654 145.957 121.29C146.265 118.479 157.925 121.885 161.537 123.801C157.221 125.096 148.985 128.349 144.965 130.251ZM147.494 136.686C159.304 130.235 172.832 126.554 187.213 126.521C210.353 126.459 231.333 135.838 246.541 151.053C254.148 158.653 260.311 167.715 264.576 177.78C268.841 187.844 271.215 196.971 271.242 208.601C271.269 220.236 268.953 233.284 264.741 243.363C260.534 253.448 254.409 263.196 246.848 270.835C245.901 271.796 244.93 274.65 243.949 275.473C237.02 281.337 229.007 284.566 220.248 288.306C210.233 292.603 199.21 294.991 187.64 295.017C176.07 295.043 165.037 292.716 155.001 288.476C144.959 284.242 134.532 275.05 128.302 269.194C120.7 261.578 114.542 253.823 110.272 243.758C106.007 233.694 103.634 222.616 103.602 210.981C103.543 187.717 112.88 169.239 128.013 153.956C133.271 148.638 140.659 140.412 147.494 136.686ZM177.271 77.1476L175.409 67.4282C173.84 63.2643 170.483 57.5917 166.628 55.127C164.921 54.0374 160.277 52.3927 158.09 51.4965C155.319 50.3756 151.552 49.0576 149.524 48.515C145.291 47.3849 143.158 49.9644 145.081 53.7189C146.112 55.7387 147.144 60.2086 147.864 62.0845C149.105 65.3076 150.484 66.8594 151.544 68.7459C153.048 71.4386 161.119 81.9225 161.064 82.492C156.791 79.0398 153.526 69.6982 136.603 67.2985C132.68 66.9026 125.327 69.4729 122.718 70.89C120.183 72.2743 111.002 76.2176 111.889 79.2444L122.363 84.6357L122.075 85.2355C119.698 86.8247 113.903 85.0279 115.605 89.5778C120.076 90.2684 122.98 86.3642 130.266 89.7272C132.547 90.7814 134.787 91.6181 137.305 92.9663C141.566 95.2547 144.614 96.1003 145.271 97.3444C148.469 103.391 131.364 91.2886 125.693 90.973C122.252 90.7875 117.91 91.8594 115.506 93.4225C111.897 97.1783 117.705 90.922 113.135 83.8014C108.518 76.4052 86.823 79.8312 84.8674 83.9437C77.854 81.6982 72.3844 76.1914 63.2463 73.6865C57.1938 72.0323 50.2103 68.6328 43.3211 71.6367C37.7994 74.0402 31.421 88.3473 35.4656 91.4257C38.685 89.9777 40.0264 77.1204 52.9978 77.6892C55.6466 77.8127 60.6915 79.2437 63.5953 81.0695C65.3343 82.1693 67.1681 83.5495 69.3567 84.5094C71.7385 85.5674 70.1152 84.4019 71.7776 85.0245L72.8361 85.7468C74.6369 87.0637 77.2415 86.0504 77.2007 83.7708C72.0089 82.799 79.2322 86.2318 75.5535 83.456C75.2094 83.1905 71.3222 82.0444 70.1805 81.4296C66.1549 79.2437 61.8818 76.169 56.8608 75.2264C50.6933 74.0627 48.4305 73.8057 43.3745 76.7759C39.4142 79.1126 38.7721 84.6398 36.8406 86.2008C35.857 84.1323 37.7906 78.936 38.8935 77.7545C41.0736 75.4351 43.9584 72.9717 45.9416 72.3349C48.6281 71.4693 58.0158 73.9806 60.9377 75.2533C63.8701 76.5315 73.3802 81.4382 75.6845 81.9712C76.9167 82.2656 81.2405 83.8089 82.8312 84.5973C72.6436 90.103 72.8361 85.7467 64.1813 99.611C70.8233 111.127 71.2178 112.216 80.6433 116.119C92.6039 121.063 105.299 119.207 114.884 111.153C119.684 107.129 119.514 102.322 118.898 96.9257C121.759 92.932 127.576 94.1223 131.277 94.899C136.39 95.973 137.41 99.0027 141.773 101.704C136.491 107.23 138.889 111.758 136.431 114.613C135.868 114.686 124.397 110.469 116.941 115.305C108.87 120.544 94.516 133.614 99.0333 150.335C112.025 154.927 112.543 151.688 117.412 150.033C109.536 158.214 103.356 165.464 98.9782 176.163C87.8573 203.344 90.2993 226.045 101.39 252.226C111.238 275.455 130.939 290.392 153.483 299.896C175.332 309.103 206.864 309.026 228.674 299.709C249.45 290.812 268.935 269.014 277.579 248.325C292.941 211.58 281.026 170.677 253.449 143.105C250.42 140.07 241.581 141.366 253.454 143.105C257.705 143.72 262.649 143.419 263.776 141.446C266.669 136.404 253.493 114.136 240.887 123.103C239.366 121.346 240.226 117.5 236.963 114.117C239.637 112.449 240.251 110.584 243.392 109.903C245.654 109.416 249.225 108.674 251.001 111.108C250.604 114.649 250.346 117.215 253.507 119.839C254.907 120.997 260.718 125.919 263.271 126.358C268.099 127.192 282.95 125.94 286.371 118.966C287.375 116.915 283.725 111.864 282.304 110.031C281.219 108.602 279.578 103.897 273.108 103.423C274.083 102.935 276.736 101.974 277.494 101.798C278.902 101.462 284.733 98.4163 286.527 97.6174C288.317 96.8243 294.082 96.054 295.732 96.5758C296.95 96.9662 298.726 97.6667 300.077 99.0861C300.757 99.8091 301.966 102.995 301.369 104.27C300.174 103.316 299.76 99.9204 297.32 98.4911C294.209 96.6898 292.819 96.8498 289.03 97.5891C285.952 98.1793 283.334 100.086 280.873 101.437C280.173 101.825 277.787 102.543 277.577 102.705C273.716 105.657 275.454 104.982 275.829 103.796C275.956 103.4 279.138 106.412 277.74 104.34C278.755 103.947 279.93 103.987 281.381 103.332C282.727 102.731 283.846 101.88 284.915 101.204C286.693 100.065 289.789 99.1774 291.413 99.0882C299.38 98.7039 300.247 106.594 302.226 107.467C304.695 105.568 300.732 96.7957 297.339 95.3388C293.097 93.5232 288.819 95.6258 285.104 96.667C279.5 98.2318 276.157 101.633 271.852 103.028C262.47 97.8219 254.907 102.941 254.527 104.101C254.141 105.265 256.407 107.059 253.066 108.95C251.585 108 248.917 107.356 246.804 107.474C242.264 107.757 238.9 109.834 235.854 113.231L235.892 112.869L228.389 112.002L228.35 111.503C236.225 109.722 233.277 112.24 239.675 108.733C241.219 107.906 242.598 107.38 243.986 106.726C248.455 104.636 250.252 107.027 252.998 106.591C254.028 103.79 250.474 104.918 249.008 103.937L248.827 103.573L255.248 100.23C255.782 98.3669 249.773 97.1425 248.219 96.3106C246.611 95.443 242.172 93.3006 239.763 93.5613C232.228 94.3537 231.014 98.6198 225.051 102.375C225.019 102.035 229.946 95.5642 230.856 93.9021C231.502 92.7492 232.342 91.7849 233.098 89.8062C233.532 88.6462 234.154 85.9044 234.783 84.6562C235.948 82.3415 234.632 80.7676 232.033 81.4725C230.795 81.8105 228.48 82.6332 226.785 83.3402C225.438 83.8927 222.908 85.2712 221.861 85.952C218.936 87.8367 216.903 95.2197 215.599 99.4973L215.113 99.3455C214.18 94.3956 215.061 95.6789 212.425 91.5844C210.72 88.9532 209.161 90.8804 208.162 92.9636C202.029 96.3705 195.742 99.4398 190.061 100.512C189.737 100.554 189.408 100.586 189.074 100.617L187.54 97.3032L187.197 97.4839C194.08 90.3232 192.578 79.1896 190.12 71.2123C189.174 68.1441 185.575 58.4996 181.538 64.8188C177.325 71.4063 178.666 69.4559 177.271 77.1476Z" fill="black"></path><path d="M251.684 197.509C251.757 198.465 251.815 199.431 251.851 200.398C251.893 201.365 251.914 202.348 251.913 203.326C251.969 224.666 243.414 245.96 229.548 259.99C215.677 274.026 196.473 280.794 175.253 280.885C187.994 266.989 205.772 246.859 218.508 232.963C231.244 219.073 238.943 211.4 251.684 197.509ZM244.337 170.021C245.65 172.78 246.81 175.606 247.801 178.525C248.793 181.438 249.61 184.428 250.258 187.49C236.08 202.956 216.874 223.905 202.695 239.375C188.522 254.84 179.382 264.8 165.209 280.27C162.109 279.877 159.074 281.237 156.097 280.503C153.136 279.746 150.221 276.868 147.403 275.774C163.557 258.152 172.624 252.69 188.778 235.069C204.932 217.436 228.183 187.648 244.337 170.021ZM230.337 149.817C232.227 151.786 234.014 153.863 235.69 156.027C237.365 158.186 238.931 160.442 240.376 162.774C223.626 181.048 206.882 199.323 190.132 217.592C173.383 235.861 156.633 254.135 139.883 272.404C137.44 271.14 135.08 269.753 132.798 268.257C130.516 266.762 128.317 265.132 126.212 263.401C160.923 225.536 195.625 187.677 230.337 149.817ZM211.157 135.249C215.981 137.842 220.499 140.934 224.641 144.458C207.269 163.406 208.728 163.92 191.356 182.864C159.898 204.375 137.804 239.179 120.432 258.127C118.515 256.196 116.698 254.156 114.991 252.03C113.283 249.904 111.686 247.681 110.205 245.381L211.157 135.249ZM186.203 126.984C192.313 127.882 198.19 129.513 203.742 131.766C187.479 149.512 171.202 163.346 154.933 181.097C138.669 198.838 122.419 220.48 106.15 238.226C104.8 235.536 103.598 232.753 102.566 229.883C101.527 227.018 100.657 224.071 99.962 221.058L186.203 126.984ZM174.748 126.157C175.279 126.154 175.805 126.168 176.337 126.181C163.34 140.357 150.676 147.655 137.679 161.837C124.682 176.018 111.35 197.068 98.3584 211.244C98.2325 210.002 98.1441 208.759 98.0768 207.506C98.0149 206.253 97.9791 204.983 97.9754 203.723C97.8689 161.005 132.246 126.266 174.748 126.157ZM161.719 101.091L162.183 101.211C161.385 101.139 153.833 110.377 153.399 111.894C152.255 112.512 150.726 111.542 149.522 110.678C153.172 106.853 157.6 103.85 161.719 101.091ZM177.537 98.4688L177.961 97.0003C180.916 96.3434 183.864 95.5374 185.959 94.5798C188.535 93.4127 191.216 92.1859 194.003 90.9622C193.053 95.4686 193.04 100.795 196.567 104.423L196.352 104.31L195.422 106.349C191.218 106.011 181.607 100.415 177.537 98.4688ZM165.427 113.259C168.526 110.941 175.499 105.442 176.584 101.752C181.323 103.342 185.712 105.352 189.673 107.125C190.963 107.705 192.772 108.193 194.591 108.584C195.578 111.944 196.684 114.367 198.969 116.011C191.245 113.872 183.112 112.744 174.715 112.768C171.579 112.769 168.478 112.94 165.427 113.259ZM151.346 115.902L144.867 112.468C147.112 110.918 148.536 112.549 150.298 113.419L153.44 114.551L153.4 115.364C152.712 115.535 152.024 115.715 151.346 115.902ZM132.483 123.004C133.187 120.766 133.22 116.407 133.475 114.043C133.782 111.232 145.443 114.638 149.055 116.554C144.738 117.849 136.503 121.102 132.483 123.004ZM135.012 129.439C146.822 122.988 160.349 119.307 174.731 119.274C197.871 119.212 218.851 128.591 234.059 143.806C241.666 151.406 247.829 160.468 252.093 170.533C256.358 180.597 258.733 189.724 258.76 201.354C258.786 212.988 256.47 226.036 252.258 236.116C248.052 246.201 241.927 255.949 234.366 263.588C233.419 264.549 232.448 267.403 231.467 268.226C224.537 274.09 216.525 277.319 207.766 281.059C197.751 285.355 186.728 287.744 175.158 287.769C163.588 287.796 152.555 285.469 142.518 281.229C132.477 276.995 122.05 267.802 115.82 261.946C108.218 254.331 102.06 246.576 97.7894 236.511C93.5244 226.447 91.1518 215.369 91.1195 203.734C91.0606 180.47 100.398 161.992 115.531 146.709C120.789 141.391 128.176 133.165 135.012 129.439ZM164.789 69.9005L162.926 60.1812C161.357 56.0172 158.001 50.3447 154.146 47.8799C152.439 46.7904 147.795 45.1456 145.607 44.2494C142.837 43.1285 139.069 41.8105 137.041 41.2679C132.809 40.1379 130.676 42.7173 132.599 46.4718C133.63 48.4916 134.662 52.9616 135.382 54.8374C136.622 58.0605 138.002 59.6124 139.062 61.4988C140.566 64.1916 148.637 74.6754 148.582 75.2449C144.308 71.7927 141.043 62.4512 124.121 60.0514C120.198 59.6556 112.845 62.2259 110.236 63.6429C107.701 65.0272 98.5199 68.9706 99.4069 71.9973L109.881 77.3887L109.593 77.9884C107.215 79.5777 101.421 77.7808 103.123 82.3307C107.593 83.0214 110.498 79.1171 117.784 82.4801C120.064 83.5343 122.304 84.371 124.823 85.7193C129.084 88.0077 132.132 88.8532 132.789 90.0973C135.987 96.1442 118.882 84.0415 113.211 83.726C109.77 83.5405 105.428 84.6123 103.024 86.1754C99.4151 89.9312 105.222 83.6749 100.652 76.5544C96.0358 69.1581 74.3409 72.5841 72.3852 76.6967C65.3718 74.4511 59.9022 68.9444 50.7642 66.4395C44.7116 64.7852 37.7281 61.3858 30.8389 64.3897C25.3172 66.7931 18.9388 81.1002 22.9834 84.1787C26.2029 82.7307 27.5442 69.8733 40.5156 70.4421C43.1644 70.5656 48.2093 71.9966 51.1131 73.8224C52.8521 74.9222 54.686 76.3025 56.8746 77.2624C59.2564 78.3203 57.633 77.1548 59.2955 77.7774L60.3539 78.4997C62.1548 79.8166 64.7593 78.8033 64.7185 76.5238C59.5267 75.552 66.75 78.9847 63.0714 76.2089C62.7272 75.9434 58.84 74.7973 57.6983 74.1826C53.6728 71.9966 49.3996 68.9219 44.3786 67.9794C38.2111 66.8156 35.9484 66.5586 30.8923 69.5288C26.9321 71.8656 26.2899 77.3927 24.3584 78.9538C23.3748 76.8852 25.3084 71.6889 26.4114 70.5074C28.5914 68.188 31.4762 65.7247 33.4594 65.0878C36.1459 64.2222 45.5336 66.7336 48.4555 68.0063C51.3879 69.2844 60.8981 74.1911 63.2023 74.7241C64.4345 75.0186 68.7583 76.5619 70.349 77.3502C60.1614 82.8559 60.3539 78.4997 51.6991 92.3639C58.3411 103.88 58.7357 104.969 68.1611 108.872C80.1217 113.816 92.8166 111.96 102.402 103.906C107.202 99.8824 107.031 95.0748 106.416 89.6786C109.277 85.6849 115.094 86.8752 118.794 87.652C123.908 88.7259 124.928 91.7556 129.291 94.4573C124.009 99.9824 126.407 104.511 123.949 107.366C123.386 107.439 111.915 103.222 104.459 108.058C96.3878 113.297 82.0338 126.367 86.5511 143.088C99.543 147.68 100.061 144.441 104.93 142.786C97.0537 150.967 90.8736 158.217 86.496 168.916C75.3752 196.097 77.8171 218.798 88.9074 244.979C98.7556 268.208 118.456 283.145 141.001 292.649C162.85 301.856 194.381 301.779 216.192 292.462C236.967 283.565 256.452 261.767 265.097 241.078C280.459 204.333 268.544 163.43 240.967 135.858C237.938 132.823 229.098 134.119 240.972 135.858C245.223 136.472 250.166 136.172 251.294 134.199C254.187 129.157 241.01 106.889 228.405 115.856C226.884 114.099 227.744 110.253 224.481 106.87C227.155 105.202 227.769 103.337 230.91 102.656C233.172 102.169 236.743 101.427 238.518 103.861C238.122 107.402 237.864 109.968 241.025 112.592C242.425 113.75 248.236 118.672 250.788 119.111C255.617 119.945 270.468 118.693 273.889 111.719C274.893 109.668 271.243 104.616 269.822 102.784C268.737 101.355 267.096 96.6497 260.625 96.1762C261.601 95.6881 264.254 94.7272 265.012 94.5506C266.42 94.2149 272.251 91.1692 274.045 90.3703C275.835 89.5772 281.6 88.8069 283.25 89.3287C284.468 89.7191 286.243 90.4196 287.594 91.839C288.275 92.562 289.483 95.7484 288.887 97.0228C287.692 96.0687 287.278 92.6733 284.837 91.2441C281.727 89.4427 280.337 89.6027 276.548 90.342C273.469 90.9323 270.852 92.8384 268.391 94.1898C267.691 94.5781 265.305 95.2957 265.094 95.4584C261.234 98.4099 262.972 97.7345 263.347 96.5486C263.474 96.1531 266.656 99.1652 265.258 97.0929C266.273 96.6998 267.448 96.7399 268.899 96.0847C270.245 95.4843 271.364 94.6326 272.432 93.9566C274.211 92.818 277.306 91.9303 278.931 91.8411C286.898 91.4568 287.764 99.347 289.744 100.22C292.213 98.321 288.25 89.5486 284.857 88.0917C280.614 86.2761 276.337 88.3787 272.622 89.4199C267.018 90.9847 263.675 94.3855 259.37 95.7814C249.988 90.5749 242.425 95.6943 242.045 96.8536C241.659 98.0184 243.924 99.8116 240.584 101.703C239.103 100.753 236.435 100.109 234.322 100.227C229.782 100.51 226.418 102.587 223.372 105.983L223.409 105.622L215.907 104.755L215.867 104.256C223.743 102.475 220.795 104.993 227.193 101.486C228.737 100.659 230.116 100.133 231.504 99.4787C235.973 97.389 237.769 99.7796 240.515 99.3436C241.546 96.5425 237.992 97.6712 236.525 96.6895L236.344 96.3257L242.766 92.9834C243.3 91.1198 237.291 89.8954 235.737 89.0635C234.129 88.1959 229.69 86.0535 227.281 86.3143C219.746 87.1067 218.532 91.3727 212.568 95.1275C212.537 94.7882 217.464 88.3171 218.373 86.655C219.02 85.5021 219.86 84.5378 220.616 82.5591C221.05 81.3991 221.671 78.6573 222.301 77.4091C223.466 75.0945 222.15 73.5205 219.551 74.2255C218.313 74.5635 215.998 75.3862 214.303 76.0932C212.956 76.6456 210.426 78.0242 209.379 78.7049C206.454 80.5897 204.421 87.9726 203.116 92.2502L202.63 92.0984C201.698 87.1485 202.579 88.4318 199.943 84.3373C198.238 81.7061 196.679 83.6334 195.68 85.7165C189.547 89.1234 183.259 92.1927 177.579 93.2646C177.255 93.3068 176.926 93.3385 176.592 93.3701L175.057 90.0561L174.715 90.2369C181.597 83.0762 180.095 71.9425 177.638 63.9652C176.692 60.897 173.093 51.2525 169.056 57.5717C164.843 64.1592 166.184 62.2088 164.789 69.9005Z" fill="#9AC128"></path><path d="M250.977 197.563C251.05 198.519 251.108 199.486 251.144 200.452C251.161 200.851 251.175 201.251 251.185 201.653C239.695 214.107 232.165 221.676 220.163 234.766C207.981 248.057 191.187 267.05 178.599 280.838C177.257 280.898 175.905 280.933 174.545 280.939C187.287 267.043 205.064 246.914 217.801 233.018C230.537 219.127 238.236 211.454 250.977 197.563ZM243.629 170.076C244.085 171.034 244.524 172 244.942 172.975C228.843 190.723 206.241 219.616 190.433 236.87C174.379 254.384 165.324 259.888 149.357 277.253C148.461 276.683 147.574 276.17 146.696 275.829C162.849 258.206 171.917 252.745 188.071 235.123C204.225 217.49 227.475 187.703 243.629 170.076ZM229.629 149.872C230.306 150.576 230.969 151.296 231.619 152.027C197.03 189.749 162.454 227.474 127.867 265.203C128.525 265.744 129.191 266.275 129.868 266.795C128.373 265.734 126.917 264.617 125.505 263.455C160.216 225.591 194.917 187.731 229.629 149.872ZM210.45 135.304C214.15 137.292 217.67 139.575 220.978 142.121C218.372 140.268 215.645 138.573 212.813 137.051L111.86 247.183C113.341 249.482 114.939 251.707 116.646 253.832C117.741 255.196 118.88 256.522 120.063 257.809L119.725 258.182C117.808 256.25 115.99 254.211 114.283 252.084C112.576 249.959 110.978 247.735 109.497 245.435L210.45 135.304ZM185.496 127.038C191.606 127.937 197.483 129.567 203.035 131.82L202.46 132.445C197.786 130.768 192.902 129.528 187.858 128.786L101.617 222.86C102.313 225.873 103.182 228.82 104.221 231.685C104.894 233.553 105.637 235.385 106.447 237.178L105.442 238.279C104.093 235.59 102.891 232.807 101.859 229.937C100.819 227.073 99.9499 224.126 99.2548 221.112L185.496 127.038ZM174.04 126.212C174.572 126.208 175.098 126.222 175.63 126.235C175.077 126.839 174.525 127.428 173.973 128.007C132.6 129.405 99.5258 163.625 99.6306 205.525C99.6347 206.678 99.6643 207.84 99.7177 208.99C99.0272 209.777 98.3392 210.548 97.6508 211.298C97.5253 210.057 97.4372 208.814 97.3699 207.561C97.3076 206.307 97.2719 205.037 97.2682 203.778C97.1614 161.06 131.539 126.32 174.04 126.212ZM154.042 109.757C153.31 110.775 152.796 111.584 152.692 111.948C152.335 112.141 151.941 112.178 151.531 112.114L151.177 112.48C152.38 113.344 153.911 114.315 155.055 113.696C155.488 112.179 163.04 102.941 163.838 103.013L163.375 102.893C160.285 104.962 157.021 107.169 154.042 109.757ZM192.839 94.0179C192.504 97.7386 193.092 101.63 195.86 104.478L195.645 104.364L194.715 106.405C191.225 106.123 184.011 102.22 179.332 99.7877L179.192 100.27C183.263 102.217 192.873 107.813 197.078 108.152L198.007 106.112L198.222 106.225C194.694 102.597 194.707 97.2706 195.658 92.7649C194.705 93.1833 193.766 93.6016 192.839 94.0179ZM194.283 109.919C195.183 112.624 196.279 114.638 198.262 116.065C190.537 113.927 182.404 112.798 174.007 112.823C172.608 112.823 171.215 112.858 169.831 112.924C168.783 113.771 167.822 114.507 167.082 115.06C170.133 114.742 173.234 114.572 176.37 114.571C184.767 114.546 192.9 115.675 200.624 117.813C198.34 116.169 197.233 113.746 196.246 110.386C195.583 110.243 194.919 110.087 194.283 109.919ZM150.639 115.956L146.955 114.004C146.814 114.079 146.671 114.168 146.522 114.27L153.002 117.704C153.679 117.518 154.367 117.337 155.056 117.167L155.096 116.353L152.58 115.447C151.931 115.609 151.279 115.78 150.639 115.956ZM147.303 116.935C143.796 118.07 138.571 120.09 134.679 121.76C134.557 122.923 134.391 124.001 134.138 124.806C138.158 122.904 146.394 119.651 150.71 118.356C149.904 117.928 148.695 117.426 147.303 116.935ZM225.05 136.576C227.974 138.821 230.748 141.256 233.352 143.861C240.958 151.46 247.121 160.523 251.387 170.587C255.652 180.652 258.025 189.779 258.053 201.408C258.08 213.043 255.763 226.091 251.552 236.171C247.345 246.256 241.219 256.004 233.658 263.643C232.712 264.603 231.741 267.457 230.76 268.281C223.83 274.145 215.818 277.374 207.059 281.113C197.043 285.41 186.021 287.798 174.45 287.824C162.88 287.85 151.848 285.523 141.811 281.284C137.745 279.569 133.613 277.04 129.724 274.25C134.277 277.716 139.272 280.965 144.174 283.032C154.21 287.271 165.242 289.598 176.813 289.571C188.383 289.546 199.406 287.158 209.422 282.861C218.18 279.121 226.193 275.892 233.122 270.028C234.103 269.204 235.074 266.351 236.021 265.39C243.582 257.752 249.707 248.004 253.914 237.919C258.126 227.838 260.442 214.79 260.415 203.155C260.388 191.526 258.014 182.4 253.749 172.334C249.484 162.27 243.321 153.208 235.714 145.608C232.418 142.311 228.85 139.288 225.05 136.576ZM155.286 49.3814C154.687 48.8276 154.07 48.3378 153.439 47.9344C151.732 46.8445 147.088 45.1997 144.9 44.3035C142.13 43.183 138.362 41.8647 136.334 41.3228C132.102 40.1924 129.968 42.7718 131.892 46.5259C132.923 48.5457 133.954 53.016 134.674 54.8922C135.915 58.1153 137.295 59.6672 138.355 61.5532C139.376 63.3828 143.429 68.8075 145.905 72.2771C147.575 74.1938 148.854 75.9298 150.238 77.0472C150.292 76.4774 142.22 65.9939 140.717 63.3008C139.657 61.4147 138.278 59.8629 137.036 56.6398C136.316 54.7636 135.285 50.2933 134.255 48.2738C132.33 44.5193 134.464 41.9399 138.697 43.0703C140.724 43.6122 144.492 44.9309 147.263 46.0514C149.258 46.8683 153.295 48.3071 155.286 49.3814ZM139.721 66.7356C136.279 63.8805 131.348 61.2309 123.414 60.1063C119.49 59.7097 112.137 62.2803 109.529 63.6973C106.994 65.082 97.813 69.0254 98.7001 72.0518L101.009 73.2404C101.263 70.3049 109.51 66.7455 111.891 65.4449C114.5 64.0279 121.853 61.4573 125.777 61.8538C132.055 62.7439 136.453 64.5895 139.721 66.7356ZM108.969 77.869L108.886 78.0432C107.355 79.0668 104.409 78.6859 102.958 79.4991C103.471 80.5226 103.786 81.5186 103.963 82.4553C104.14 82.4454 104.316 82.4294 104.491 82.4087C104.827 80.0679 109.248 81.1278 111.248 79.7908L111.536 79.1903L108.969 77.869ZM132.134 90.2566C135.07 96.0493 118.14 84.0939 112.504 83.7804C109.811 83.6351 106.567 84.26 104.131 85.2877C103.916 88.6861 102.371 90.3802 104.679 87.9781C107.083 86.4143 111.426 85.3421 114.867 85.528C120.537 85.8435 137.643 97.9462 134.444 91.8993C134.142 91.3268 133.333 90.839 132.134 90.2566ZM99.319 75.7851C93.6457 69.4852 73.5568 72.8003 71.6777 76.7515C64.6643 74.5056 59.1947 68.9985 50.0569 66.4943C44.0047 64.8397 37.0209 61.4406 30.132 64.4441C24.61 66.8476 18.2316 81.1547 22.2762 84.2335C22.6676 84.0575 23.0315 83.7123 23.3917 83.2433C23.2798 81.9457 23.5043 80.3674 23.974 78.6978C23.8703 78.8135 23.7624 78.9183 23.6509 79.0085C22.6676 76.9393 24.6011 71.743 25.7038 70.5622C27.8842 68.2418 30.769 65.7795 32.7519 65.1423C33.5202 64.8951 34.8384 64.9237 36.3961 65.1205C41.9844 64.4084 47.5085 66.9 52.4193 68.2418C61.5571 70.746 67.0267 76.2531 74.0401 78.499C75.7114 74.9842 91.7934 71.9734 99.319 75.7851ZM25.7443 79.2319C26.8282 77.3172 28.1822 75.2058 30.1538 73.5362C30.7966 72.6788 31.571 71.9074 32.5481 71.3308C37.6035 68.3606 39.8663 68.618 46.0342 69.7817C51.0548 70.7243 55.328 73.7993 59.3538 75.9849C60.1905 76.4359 62.5046 77.1729 63.8147 77.6378C63.9474 77.326 64.0185 76.971 64.0116 76.5785C58.8199 75.6061 66.0428 79.0392 62.3641 76.264C62.02 75.9978 58.1325 74.8518 56.9911 74.2374C52.9652 72.0517 48.6921 68.9767 43.6714 68.0342C38.4806 67.0542 36.0547 66.7169 32.4036 68.4052C30.936 69.4754 29.3746 70.9183 28.0662 72.3098C27.1802 73.2594 25.7572 76.8029 25.7443 79.2319ZM68.8119 77.8424C67.8862 78.321 67.0505 78.7175 66.29 79.0528C65.8737 80.6502 63.9868 81.3426 62.4481 80.5702C58.6804 81.9835 56.8915 82.9686 50.9916 92.4187C55.7531 100.674 57.3047 103.57 61.2734 105.987C58.8127 103.754 57.0506 100.576 53.354 94.1663C62.0091 80.302 61.8162 84.6576 72.0042 79.1519C71.3039 78.8047 70.0748 78.3101 68.8119 77.8424ZM123.889 90.7342C125.195 91.8775 126.472 93.1761 128.425 94.4124C126.806 93.0447 125.604 91.7233 123.889 90.7342ZM128.565 94.5301C123.307 100.047 125.697 104.569 123.241 107.421C122.679 107.493 111.208 103.276 103.751 108.113C95.6809 113.351 81.3266 126.422 85.8439 143.143C86.5867 143.406 87.2877 143.641 87.9522 143.855C84.2855 127.632 98.2106 114.99 106.114 109.86C113.57 105.024 125.042 109.241 125.604 109.169C128.062 106.313 125.664 101.785 130.946 96.259C130.027 95.6902 129.258 95.1078 128.565 94.5301ZM100.199 147.123C94.2144 153.697 89.3912 160.167 85.7885 168.971C74.6683 196.151 77.1099 218.852 88.1995 245.034C94.3793 259.608 104.439 270.917 116.644 279.67C105.505 271.174 96.3383 260.404 90.5622 246.781C79.4723 220.6 77.0307 197.899 88.1512 170.718C92.5291 160.019 98.7089 152.769 106.586 144.589C104.069 145.443 102.714 146.722 100.199 147.123ZM241.852 137.543C241.529 137.205 241.203 136.872 240.874 136.539C237.43 135.082 232.869 136.132 241.852 137.543ZM242.667 117.567C238.761 114.204 233.903 112.452 229.042 115.075C229.275 116.127 229.515 117.027 230.06 117.657C234.425 114.553 238.857 115.195 242.667 117.567ZM224.131 107.316C224.017 107.185 223.899 107.054 223.774 106.925C225.241 106.009 226.089 105.034 227.074 104.228C224.976 105.286 224.361 105.326 223.33 105.324C223.106 105.555 222.885 105.793 222.665 106.039L222.702 105.676L220.814 105.458C219.984 105.561 218.926 105.741 217.523 106.058L217.562 106.557L224.131 107.316ZM229.779 102.813C229.915 102.777 230.056 102.742 230.203 102.71C231.364 102.46 232.869 102.144 234.3 102.223C234.841 102.13 235.4 102.065 235.977 102.029C238.09 101.911 240.758 102.555 242.24 103.504C245.58 101.614 243.314 99.8204 243.7 98.6553C244.08 97.4963 251.644 92.3772 261.026 97.5834C261.503 97.4278 261.971 97.2471 262.43 97.0483C262.513 96.9139 262.589 96.7634 262.639 96.6031C262.667 96.516 262.843 96.5943 263.087 96.7474C264.428 96.1048 265.722 95.3154 267.085 94.5124C266.108 94.8991 264.555 95.3828 264.388 95.5122C263.511 96.1837 262.923 96.6664 262.542 96.9986L262.907 96.8335C262.044 96.5289 261.056 96.3134 259.918 96.2304C260.894 95.7426 263.547 94.7813 264.304 94.6054C265.713 94.2701 271.544 91.224 273.338 90.4248C274.9 89.7324 279.491 89.0578 281.731 89.245C283.197 89.0945 284.685 89.1932 286.173 89.7573C285.512 89.0084 284.82 88.4338 284.15 88.1459C279.907 86.3313 275.63 88.4328 271.915 89.4744C266.31 91.0388 262.968 94.4403 258.663 95.8355C252.751 92.5552 247.563 93.3749 244.437 94.719L244.421 94.7854L242.414 95.8297C241.789 96.2729 241.414 96.6725 241.337 96.9077C241.123 97.5518 241.721 98.3884 241.733 99.3268C242.293 99.5889 242.56 100.087 242.171 101.146C241.681 101.224 241.221 101.211 240.771 101.151C240.531 101.351 240.236 101.553 239.877 101.757C238.94 101.157 237.529 100.679 236.084 100.439C235.24 100.514 234.284 100.754 233.159 101.28C232.056 101.8 230.958 102.24 229.779 102.813ZM237.788 104.129C237.405 107.56 237.221 110.076 240.317 112.647C241.134 113.322 243.454 115.28 245.751 116.88C244.373 115.811 243.21 114.833 242.68 114.395C239.52 111.77 239.777 109.204 240.174 105.662C239.554 104.813 238.714 104.35 237.788 104.129ZM266.736 99.3922C266.645 99.2904 266.548 99.1883 266.449 99.0876C265.339 98.5171 263.976 98.1025 262.281 97.9779C262.644 97.7968 263.239 97.5497 263.883 97.3016C264.652 97.8543 265.351 98.3339 264.551 97.147C265.566 96.7546 266.74 96.7941 268.192 96.1392C269.306 95.6429 270.263 94.9744 271.165 94.376C269.263 95.3025 267.387 96.1817 266.666 96.3529C266.201 96.4608 265.023 96.8652 263.956 97.2737C264.536 97.5606 265.048 97.8897 265.504 98.2431C263.324 100.026 264.677 99.3803 265.002 98.3506C265.073 98.1301 266.09 98.965 266.736 99.3922ZM286.94 91.9548C287.308 92.3949 287.802 93.4719 288.094 94.5669C288.855 95.6377 289.31 96.8931 289.793 97.8077C289.693 96.3025 289.055 94.4114 288.149 92.6887C287.753 92.4038 287.343 92.1614 286.94 91.9548ZM285.499 92.5106C285.124 92.0409 284.679 91.6205 284.13 91.2989C283.921 91.1784 283.722 91.0667 283.528 90.9629C281.154 90.9095 277.14 91.5344 275.7 92.1723C275.406 92.303 275.004 92.4936 274.532 92.7234C275.896 92.2553 277.299 91.9459 278.224 91.8956C278.66 91.8748 279.074 91.8786 279.469 91.9054C281.98 91.4602 283.37 91.4544 285.499 92.5106ZM278.284 89.9738C277.576 90.0646 276.782 90.212 275.84 90.3961C273.704 90.8056 271.789 91.8499 269.994 92.9021C271.289 92.2533 272.693 91.6641 274.277 91.2219C275.555 90.8639 276.898 90.3802 278.284 89.9738ZM284.901 94.4284C287.061 96.7011 287.849 99.7503 289.037 100.275C289.276 100.09 289.455 99.8412 289.579 99.5416C288.608 97.7921 287.317 95.5884 284.901 94.4284ZM239.937 98.9749C240.135 98.1093 239.781 97.7158 239.191 97.5071L238 98.1273L238.18 98.4912C238.633 98.7938 239.284 98.8956 239.937 98.9749ZM242.064 92.5906C241.635 90.9755 236.457 89.8819 235.03 89.1184C233.422 88.25 228.983 86.1076 226.574 86.3687C223.571 86.6843 221.573 87.5516 219.878 88.7177C218.674 90.7045 214.193 96.6062 214.224 96.9295C220.187 93.174 221.402 88.9087 228.936 88.1163C231.345 87.8552 235.784 89.9976 237.392 90.8659C238.23 91.3139 240.36 91.8765 242.064 92.5906ZM222.021 75.8753C222.011 74.4984 220.785 73.7527 218.844 74.2799C217.605 74.6183 215.29 75.441 213.595 76.1473C212.249 76.7001 209.719 78.0786 208.672 78.759C206.388 80.2299 204.65 85.0473 203.376 89.1251C203.825 90.1626 203.71 90.8421 204.286 93.9001L204.772 94.0526C206.076 89.775 208.108 82.392 211.035 80.5069C212.082 79.8265 214.612 78.4476 215.957 77.8948C217.653 77.1885 219.968 76.3658 221.207 76.0275C221.494 75.9495 221.765 75.8991 222.021 75.8753ZM199.567 84.9081L199.236 84.3918C197.531 81.7609 195.971 83.6875 194.973 85.7714C189.009 89.0826 182.902 92.0763 177.346 93.2248L178.247 95.1721C178.581 95.1405 178.91 95.1088 179.234 95.0662C184.915 93.995 191.202 90.9251 197.336 87.5189C197.917 86.3054 198.688 85.1464 199.567 84.9081ZM173.793 57.2943C172.271 55.2956 170.364 54.4708 168.349 57.6259C165.862 61.5158 165.311 62.4284 164.989 64.1078L166.444 71.7025C167.839 64.0108 166.498 65.9612 170.711 59.3734C171.783 57.696 172.824 57.1432 173.793 57.2943Z" fill="#AFBE7B"></path></svg> 