<svg width="120" height="120" viewBox="0 0 120 120" fill="none" xmlns="http://www.w3.org/2000/svg">
<g clip-path="url(#clip0)">
<path d="M84.615 31.6572C85.5653 30.2999 87.4359 29.9701 88.7931 30.9204L117.543 51.051C118.9 52.0013 119.23 53.872 118.279 55.2292L88.0464 98.4062C87.0961 99.7634 85.2255 100.093 83.8683 99.1429L55.1188 79.0124C53.7616 78.062 53.4318 76.1914 54.3821 74.8342L84.615 31.6572Z" fill="#2387BA"/>
<path d="M86.1962 34.5168C86.6713 33.8381 87.6066 33.6732 88.2852 34.1484L114.683 52.6323C115.362 53.1074 115.526 54.0427 115.051 54.7214L86.4651 95.5466C85.99 96.2252 85.0547 96.3902 84.3761 95.915L57.9784 77.4311C57.2997 76.956 57.1348 76.0206 57.61 75.342L86.1962 34.5168Z" fill="#0F8CC6"/>
<path fill-rule="evenodd" clip-rule="evenodd" d="M101.484 43.3903L71.9031 54.9294L71.1772 86.6731L100.758 75.134L101.484 43.3903ZM99.1575 46.713L74.1182 56.4804L73.5038 83.3504L98.5431 73.5829L99.1575 46.713Z" fill="#11A7D9"/>
<path d="M88.7352 66.7154C87.8053 68.0434 85.9749 68.3662 84.6469 67.4363C83.3189 66.5064 82.9961 64.676 83.926 63.348C84.8559 62.0199 86.6863 61.6972 88.0143 62.6271C89.3424 63.557 89.6651 65.3874 88.7352 66.7154Z" fill="#11A7D9"/>
<path fill-rule="evenodd" clip-rule="evenodd" d="M86.0653 35.3013C86.6593 34.453 87.8284 34.2468 88.6767 34.8408L113.898 52.5013C114.747 53.0953 114.953 54.2644 114.359 55.1127L86.5961 94.7621C86.0022 95.6104 84.833 95.8165 83.9848 95.2225L58.7629 77.562C57.9147 76.9681 57.7085 75.7989 58.3025 74.9507L86.0653 35.3013ZM87.6933 36.899L60.3607 75.934L84.9681 93.1644L112.301 54.1293L87.6933 36.899Z" fill="white" fill-opacity="0.9"/>
<g filter="url(#filter0_d)">
<path d="M39.6288 28C39.6288 26.3431 40.9719 25 42.6288 25H77.7254C79.3822 25 80.7254 26.3431 80.7254 28V80.7094C80.7254 82.3663 79.3822 83.7094 77.7254 83.7094H42.6288C40.9719 83.7094 39.6288 82.3663 39.6288 80.7094V28Z" fill="#2387BA"/>
<path d="M42.5643 29.4355C42.5643 28.6071 43.2359 27.9355 44.0643 27.9355H76.29C77.1184 27.9355 77.79 28.6071 77.79 29.4355V79.2739C77.79 80.1024 77.1184 80.7739 76.29 80.7739H44.0643C43.2359 80.7739 42.5643 80.1024 42.5643 79.2739V29.4355Z" fill="#0F8CC6"/>
<path fill-rule="evenodd" clip-rule="evenodd" d="M60.1772 27.9355L42.5643 54.3547L60.1772 80.7739L77.79 54.3547L60.1772 27.9355ZM60.1772 31.9917L45.2685 54.3547L60.1772 76.7177L75.0858 54.3547L60.1772 31.9917Z" fill="#11A7D9"/>
<path fill-rule="evenodd" clip-rule="evenodd" d="M42.907 30.1532C42.907 29.1177 43.7465 28.2782 44.782 28.2782H75.5722C76.6077 28.2782 77.4472 29.1177 77.4472 30.1532V78.5562C77.4472 79.5917 76.6077 80.4312 75.5722 80.4312H44.782C43.7464 80.4312 42.907 79.5917 42.907 78.5562V30.1532ZM45.157 30.5282V78.1812H75.1972V30.5282H45.157Z" fill="white" fill-opacity="0.9"/>
</g>
<path d="M1.72073 54.9132C0.770394 53.556 1.10024 51.6854 2.45746 50.7351L31.2069 30.6045C32.5641 29.6541 34.4347 29.984 35.3851 31.3412L65.618 74.5182C66.5683 75.8754 66.2384 77.7461 64.8812 78.6964L36.1318 98.827C34.7746 99.7773 32.9039 99.4475 31.9536 98.0902L1.72073 54.9132Z" fill="#2387BA"/>
<path d="M4.94874 54.4054C4.47358 53.7268 4.6385 52.7915 5.31711 52.3163L31.7148 33.8324C32.3934 33.3573 33.3287 33.5222 33.8039 34.2008L62.3901 75.0261C62.8652 75.7047 62.7003 76.64 62.0217 77.1152L35.624 95.599C34.9454 96.0742 34.0101 95.9093 33.5349 95.2307L4.94874 54.4054Z" fill="#0F8CC6"/>
<path fill-rule="evenodd" clip-rule="evenodd" d="M18.516 43.0744L19.2418 74.818L48.8228 86.3571L48.097 54.6134L18.516 43.0744ZM20.8425 46.397L21.4569 73.267L46.4963 83.0344L45.8819 56.1645L20.8425 46.397Z" fill="#11A7D9"/>
<path d="M36.074 63.032C37.0039 64.36 36.6811 66.1904 35.3531 67.1203C34.0251 68.0502 32.1947 67.7275 31.2648 66.3994C30.3349 65.0714 30.6576 63.241 31.9857 62.3111C33.3137 61.3812 35.1441 61.704 36.074 63.032Z" fill="#11A7D9"/>
<path fill-rule="evenodd" clip-rule="evenodd" d="M5.64113 54.7967C5.04717 53.9485 5.25333 52.7793 6.10158 52.1854L31.3234 34.5249C32.1717 33.9309 33.3408 34.1371 33.9348 34.9853L61.6976 74.6347C62.2916 75.483 62.0854 76.6521 61.2371 77.2461L36.0153 94.9066C35.167 95.5006 33.9979 95.2944 33.4039 94.4461L5.64113 54.7967ZM7.69931 53.8134L35.0319 92.8484L59.6394 75.6181L32.3068 36.583L7.69931 53.8134Z" fill="white" fill-opacity="0.9"/>
</g>
<defs>
<filter id="filter0_d" x="36.6288" y="23" width="49.0966" height="66.7094" filterUnits="userSpaceOnUse" color-interpolation-filters="sRGB">
<feFlood flood-opacity="0" result="BackgroundImageFix"/>
<feColorMatrix in="SourceAlpha" type="matrix" values="0 0 0 0 0 0 0 0 0 0 0 0 0 0 0 0 0 0 127 0"/>
<feOffset dx="1" dy="2"/>
<feGaussianBlur stdDeviation="2"/>
<feColorMatrix type="matrix" values="0 0 0 0 0.0745098 0 0 0 0 0.282353 0 0 0 0 0.388235 0 0 0 0.6 0"/>
<feBlend mode="normal" in2="BackgroundImageFix" result="effect1_dropShadow"/>
<feBlend mode="normal" in="SourceGraphic" in2="effect1_dropShadow" result="shape"/>
</filter>
<clipPath id="clip0">
<rect width="120" height="120" fill="white"/>
</clipPath>
</defs>
</svg>
