<svg width="154" height="154" viewBox="0 0 154 154" fill="none" xmlns="http://www.w3.org/2000/svg">
<g clip-path="url(#clip0_2305_8240)">
<rect x="2" y="2" width="150" height="150" fill="#1805A2"/>
<path d="M66.3695 23.9301C30.827 60.1874 8.64712 57.7508 2 52.0003V116.182C39.3021 113.959 93.8866 39.3297 116.516 2.29268H86.3109L66.3695 23.9301Z" fill="#EC1C24"/>
<path d="M86.8974 95.4213C57.8065 139.983 30.4946 151.756 20.4751 152H83.6716C104.786 136.211 137.924 75.3921 151.853 47.0295V2.14648H143.789C136.946 14.6709 115.988 50.8599 86.8974 95.4213Z" fill="#EC1C24"/>
<path d="M67.2752 45.6811C71.5113 37.2635 73.6293 33.0547 77 33.0547C80.3707 33.0547 82.4887 37.2635 86.7248 45.6811L90.7313 53.6425C91.9673 56.0985 92.5853 57.3266 93.6681 58.0981C94.751 58.8697 96.1329 59.0666 98.8966 59.4604L107.855 60.7371C117.328 62.0869 122.064 62.7618 123.105 65.9057C124.147 69.0495 120.72 72.3256 113.866 78.8777L107.383 85.0748C105.383 86.9866 104.383 87.9425 103.97 89.1909C103.556 90.4393 103.792 91.789 104.264 94.4885L105.795 103.239C107.413 112.491 108.222 117.117 105.495 119.06C102.768 121.003 98.5316 118.819 90.0595 114.45L82.0465 110.319C79.5745 109.045 78.3385 108.407 77 108.407C75.6615 108.407 74.4255 109.045 71.9535 110.319L63.9405 114.45C55.4684 118.819 51.2323 121.003 48.5054 119.06C45.7784 117.117 46.5875 112.491 48.2055 103.239L49.7359 94.4885C50.208 91.789 50.444 90.4393 50.0304 89.1909C49.6168 87.9425 48.6168 86.9866 46.617 85.0748L40.1343 78.8778C33.2802 72.3256 29.8531 69.0495 30.8947 65.9057C31.9363 62.7619 36.6724 62.0869 46.1446 60.7371L55.1034 59.4604C57.8671 59.0666 59.249 58.8697 60.3319 58.0981C61.4147 57.3266 62.0327 56.0985 63.2687 53.6425L67.2752 45.6811Z" fill="#F1F1F1"/>
</g>
<defs>
<clipPath id="clip0_2305_8240">
<rect x="2" y="2" width="150" height="150" rx="75" fill="white"/>
</clipPath>
</defs>
</svg>
