<?xml version="1.0" encoding="UTF-8"?> <svg xmlns="http://www.w3.org/2000/svg" width="28" height="36" viewBox="0 0 28 36" fill="none"><path d="M13.8364 35.6206C12.4562 35.6206 9.03209 32.2315 5.86999 27.7656C4.29767 25.5592 2.91752 23.1939 1.76449 20.7226C0.733748 18.6398 0.122291 16.3804 0 14.068C0 11.279 0.821099 8.54305 2.34101 6.23069C3.86091 3.91833 6.04469 2.11787 8.57787 1.05878C11.111 -0.000319608 13.9063 -0.282745 16.5967 0.282106C19.2871 0.846957 21.7504 2.18848 23.6721 4.18311C23.0956 3.60061 22.4841 3.07106 21.8203 2.57681C21.4883 3.21227 19.0949 7.88994 18.9901 8.08411L12.0719 21.3052L15.3563 10.7848L17.2431 4.43023C17.2431 4.41258 17.5051 3.03575 16.9636 2.57681C16.6142 2.31204 16.1949 2.15317 15.7581 2.15317C15.6358 2.13552 15.5135 2.15317 15.4087 2.18848C15.3039 2.22378 15.1991 2.29439 15.1117 2.4003C14.8846 2.80628 8.31581 15.3919 8.24593 15.5331L11.8099 4.6244C11.8099 4.60675 12.4388 2.70037 11.9846 2.4003C11.8797 2.32969 11.7574 2.29439 11.6351 2.27674C11.5478 2.27674 11.4779 2.29439 11.408 2.32969C11.3382 2.36499 11.2683 2.41795 11.2159 2.4709C11.1984 2.52386 9.13691 7.83699 7.914 11.4203C6.70855 14.9859 4.01814 23.0703 3.91332 23.4057C3.91332 23.4233 3.61633 24.2177 3.91332 24.659C4.19285 25.0826 4.52478 25.3474 4.78683 25.3474H4.82177C5.08383 25.3297 5.15371 25.2415 5.59046 24.4471C6.02722 23.6528 8.83992 18.322 8.85739 18.2514L11.8099 12.7794L13.6268 9.39033L8.50799 26.177C8.50799 26.1946 8.24593 27.395 8.89233 27.9598C9.53873 28.5247 9.78331 28.5423 10.0104 28.5423C10.2201 28.5423 10.4472 28.5423 11.0761 27.4303C11.6701 26.3712 18.2214 13.3796 18.5009 12.8324C18.4835 12.903 15.7232 21.7111 15.1467 24.1824C14.937 24.8355 14.8671 25.5239 14.9545 26.1946C15.0244 26.8654 15.2515 27.5185 15.5834 28.1187C15.7232 28.3128 15.9153 28.4717 16.1425 28.5953C16.3521 28.7012 16.5967 28.7541 16.8413 28.7541C16.9461 28.7541 17.0334 28.7541 17.1383 28.7365C18.5009 28.5247 19.6889 27.342 20.7022 25.2062C21.2787 23.9176 21.663 22.5584 21.8552 21.1463C21.7679 21.3758 21.698 21.6052 21.6106 21.817C21.1913 23.2115 20.5449 24.5354 19.7064 25.7004C19.5666 25.8946 19.4269 26.0887 19.2696 26.2653C18.9901 26.6006 18.4485 27.1478 18.1166 27.1478C18.0816 27.1478 18.0467 27.1478 18.0118 27.1302C17.3654 26.8478 17.2256 26.1417 17.5925 24.9061C18.0118 23.4763 21.9426 11.9145 21.9775 11.8086L24.2836 4.81856C26.5023 7.37805 27.7252 10.6789 27.7252 14.1033C27.6029 16.4157 26.9915 18.6751 25.9607 20.7403C24.8077 23.2115 23.4275 25.5768 21.8552 27.7833C18.6407 32.2315 15.2165 35.6206 13.8364 35.6206ZM24.2137 4.76561C24.039 4.57144 23.8643 4.35962 23.6721 4.16546C23.9866 4.48318 24.1613 4.71266 24.2137 4.76561Z" fill="url(#paint0_linear_732_11428)"></path><defs><linearGradient id="paint0_linear_732_11428" x1="13.836" y1="35.617" x2="13.836" y2="-0.000320044" gradientUnits="userSpaceOnUse"><stop stop-color="#E6497B"></stop><stop offset="1" stop-color="#B046AA"></stop></linearGradient></defs></svg> 