<svg xmlns="http://www.w3.org/2000/svg" version="1.1" xmlns:xlink="http://www.w3.org/1999/xlink" xmlns:svgjs="http://svgjs.dev/svgjs" width="200" height="200"><svg width="200" height="200" viewBox="0 0 200 200" fill="none" xmlns="http://www.w3.org/2000/svg">
<rect width="200" height="200" rx="100" fill="#F74C25"></rect>
<path d="M86.6042 95.326C85.642 95.5932 85.1067 96.2809 84.9984 97.389L83.0701 117.302C82.9618 118.415 83.3888 118.836 84.351 118.563C85.3133 118.29 85.8477 117.602 85.9542 116.5L87.8824 96.5873C87.9197 96.3965 87.9143 96.1997 87.8667 96.0114C87.819 95.823 87.7303 95.6478 87.6069 95.4986C87.4723 95.3782 87.3071 95.2982 87.13 95.2677C86.9527 95.2372 86.7707 95.2574 86.6042 95.326Z" fill="white"></path>
<path d="M119.228 86.0946C118.442 86.3136 117.997 86.9502 117.895 88.0045L115.848 109.011C115.745 110.066 116.088 110.483 116.875 110.264C117.269 110.126 117.618 109.879 117.881 109.552C118.352 109.071 118.652 108.446 118.735 107.775L120.682 87.7818C120.746 87.1321 120.644 86.6542 120.376 86.3479C120.108 86.0416 119.725 85.9572 119.228 86.0946Z" fill="white"></path>
<path d="M174.152 96.0101C173.897 95.7984 173.596 95.6492 173.275 95.5738C172.953 95.4985 172.619 95.4991 172.298 95.5757L174.333 74.6802C174.585 72.1187 174.089 69.8552 172.857 67.9564C172.058 66.723 169.188 62.1234 162.47 60.0631C161.445 59.8532 160.401 59.7497 159.355 59.754C157.228 59.7871 155.115 60.1063 153.071 60.7035C149.831 61.5828 146.783 63.0693 144.086 65.0858C143.489 65.5368 142.92 66.0009 142.375 66.4779L143.152 58.5178C143.197 58.1632 143.155 57.8029 143.029 57.4687C142.902 57.1346 142.698 56.837 142.43 56.6023C142.025 56.2682 137.338 52 136.37 52C135.984 52.0021 135.598 52.0574 135.225 52.1643L123.595 55.3995C122.793 55.6212 122.075 56.0817 121.534 56.7212C120.994 57.3607 120.656 58.1497 120.565 58.9856L119.414 70.8018C119.076 70.7618 118.737 70.7423 118.397 70.7433C117.332 70.757 116.273 70.9143 115.249 71.2111C112.971 71.8782 110.867 73.0478 109.09 74.6356C107.162 76.3062 105.481 78.6895 104.071 81.7466C103.842 82.2393 103.633 82.7573 103.432 83.289C103.36 83.1665 103.297 83.0357 103.22 82.916C101.716 80.541 99.427 79.018 96.4135 78.3971C95.3997 78.1919 94.368 78.0902 93.334 78.0936C91.2354 78.1247 89.1502 78.4384 87.1335 79.0264C83.8559 79.9182 80.7574 81.3814 77.9775 83.3503C75.3353 85.2063 73.0821 87.5717 71.3474 90.3108C70.3307 91.9241 69.5435 93.674 69.0088 95.5089C68.1138 94.4666 67.1027 93.5323 65.9953 92.7247C65.8025 92.4741 65.6125 92.2179 65.4058 91.9785C64.1929 90.5238 62.7648 89.2673 61.1721 88.2533C60.7452 87.9609 60.3459 87.6741 59.9492 87.3957C60.3478 87.4789 60.7603 87.4656 61.1529 87.3567L61.2356 87.3317L74.9641 82.7573C75.6665 82.5484 77.1925 81.8245 77.4266 79.4357C77.7875 75.7437 77.6387 72.3331 76.9886 69.3011C76.322 66.1967 75.1762 63.5517 73.5813 61.4413C72.6475 60.2079 68.9619 55.2325 62.7092 52.8715C61.3564 52.4826 59.9563 52.2876 58.5499 52.2923C56.7847 52.3118 55.0301 52.5703 53.3328 53.0608C49.0275 54.258 45.1077 56.6636 41.6811 60.2134C38.3366 63.6986 35.6243 67.751 33.6682 72.1856C31.6602 76.6849 30.4289 81.1507 30.0102 85.4635C29.7204 88.3224 29.8131 91.2077 30.2857 94.0416C30.742 96.7565 31.6049 99.3853 32.8447 101.837C34.0624 104.263 35.7483 106.418 37.8028 108.174L37.9075 108.258C38.4051 108.642 38.9376 109.069 39.5051 109.539L29.5337 112.949C28.6682 113.192 27.8981 113.699 27.3287 114.402C26.7592 115.104 26.4182 115.967 26.3522 116.872C25.8812 121.714 25.884 126.11 26.3522 129.941C26.8701 133.967 27.9306 137.336 29.4951 139.953C33.3239 145.55 40.6786 147.304 41.6344 147.621C42.9418 148.044 44.3079 148.253 45.6807 148.239C47.5412 148.21 49.3894 147.929 51.176 147.404C55.2803 146.262 59.0346 143.94 62.3346 140.499C64.7298 137.976 66.769 135.13 68.3945 132.043C69.0637 132.828 69.8455 133.506 70.7138 134.056C72.1683 134.983 76.9666 137.428 82.3187 137.676C84.2831 137.647 86.235 137.353 88.1224 136.802C91.2758 135.942 94.2548 134.529 96.9231 132.625C99.3831 130.885 101.49 128.684 103.129 126.141C104.484 127.254 108.492 129.401 112.718 129.613C113.697 129.6 114.671 129.455 115.613 129.181C117.732 128.613 119.697 127.566 121.359 126.119C121.843 126.675 122.581 127.232 123.562 126.954L134.856 123.819C135.431 123.687 135.95 123.377 136.34 122.93C136.731 122.484 136.973 121.925 137.031 121.332L137.357 118.011C138.354 118.429 141.318 120.403 145.568 120.497C146.442 120.492 147.311 120.367 148.151 120.127C151.072 119.325 153.645 117.562 155.462 115.115C156.233 115.834 157.173 116.343 158.192 116.594C159.45 116.903 161.137 116.752 163.34 116.143C165.299 115.568 167.103 114.553 168.618 113.172C170.186 111.798 171.517 110.17 172.557 108.355C173.601 106.52 174.21 104.783 174.364 103.185L174.874 97.9534C174.923 97.5943 174.883 97.2284 174.757 96.8889C174.631 96.5495 174.423 96.2474 174.152 96.0101ZM67.6563 109.789C67.1767 114.859 65.9397 119.826 63.9873 124.52C62.0445 129.179 59.5258 133.122 56.4316 136.348C53.3374 139.574 49.8813 141.718 46.0636 142.779C42.7104 143.707 39.8641 143.784 37.5246 143.01C36.1989 142.572 34.9823 141.851 33.9575 140.894L33.9382 140.878C33.7123 140.666 33.4938 140.442 33.2826 140.207L33.211 140.129C33.0209 139.912 32.8391 139.683 32.6601 139.447C32.6243 139.399 32.5885 139.358 32.5527 139.31C32.3516 139.032 32.156 138.739 31.9715 138.43C30.6034 136.155 29.6926 133.202 29.239 129.571C28.7854 125.94 28.7854 121.804 29.239 117.162C29.2527 116.833 29.3737 116.518 29.5829 116.267C29.7922 116.015 30.078 115.84 30.3959 115.77L42.8601 111.479C42.9364 111.457 43.015 111.445 43.0942 111.443H43.1108C43.1535 111.444 43.1959 111.45 43.2375 111.46H43.2622C43.3142 111.474 43.3635 111.496 43.4083 111.527L43.444 111.557C43.4754 111.582 43.504 111.61 43.5295 111.641C43.5295 111.657 43.5542 111.677 43.568 111.696C43.5899 111.73 43.6092 111.765 43.6258 111.802C43.6258 111.824 43.6479 111.852 43.6562 111.877C43.6723 111.922 43.6861 111.968 43.6975 112.014C43.6975 112.042 43.7113 112.072 43.7168 112.103C43.7223 112.133 43.736 112.223 43.7415 112.287C43.747 112.351 43.7415 112.345 43.7415 112.376C43.7415 112.473 43.7415 112.579 43.7415 112.693C43.7415 113.086 43.7415 113.464 43.7636 113.835C43.7844 115.611 44.0476 117.376 44.5459 119.08C45.0784 120.739 45.8552 121.427 46.8761 121.143C48.2461 120.763 49.0504 119.346 49.2891 116.894C49.3343 116.097 49.1195 115.307 48.6777 114.645C48.1339 113.771 47.5006 112.957 46.788 112.217C46.0168 111.402 44.9149 110.37 43.4826 109.121C42.0503 107.872 40.7749 106.804 39.6566 105.919C37.8994 104.412 36.4597 102.564 35.4229 100.484C34.3153 98.2955 33.5461 95.9481 33.1421 93.5237C32.7143 90.9481 32.6337 88.3256 32.9025 85.728C33.2936 81.7168 34.4322 77.5981 36.3181 73.3716C38.1305 69.2514 40.6482 65.487 43.7554 62.2515C46.8349 59.0756 50.2826 56.9578 54.0986 55.8979C54.4759 55.7921 54.8477 55.703 55.2142 55.6195C55.3354 55.5916 55.4538 55.5749 55.575 55.5499C55.8174 55.5025 56.0625 55.4552 56.2994 55.419C56.4426 55.3967 56.5749 55.3828 56.7208 55.3661C56.933 55.3383 57.1478 55.3132 57.3572 55.2965C57.5059 55.2965 57.6491 55.2798 57.7951 55.2714C57.9935 55.2714 58.1918 55.252 58.3873 55.2492H58.5471C58.6683 55.2492 58.7867 55.2492 58.9079 55.2492C59.0291 55.2492 59.1641 55.2492 59.2909 55.2492C59.4754 55.2492 59.6544 55.277 59.8417 55.2965C59.9602 55.2965 60.0786 55.316 60.1943 55.3327C60.3899 55.3578 60.5855 55.394 60.7783 55.4274C60.8746 55.4441 60.9711 55.458 61.0537 55.4775C61.3292 55.536 61.6211 55.6056 61.8994 55.6863C62.2244 55.781 62.5412 55.8923 62.8497 56.0121L62.8883 56.0288C63.1885 56.1457 63.4805 56.2765 63.7641 56.4186C65.2493 57.154 66.5428 58.2316 67.5406 59.5647C68.9913 61.4877 70.0197 63.8849 70.6257 66.7563C71.2317 69.6278 71.3666 72.824 71.0306 76.3451C70.9333 77.3475 70.5201 77.9498 69.791 78.1521L56.0184 82.7377C55.4676 82.8918 55.1434 82.5846 55.0461 81.8161C54.7816 79.1377 54.037 77.9693 52.8122 78.3108C51.9087 78.5614 51.3862 79.4115 51.2448 80.8612C51.0832 82.5317 51.704 84.0936 53.1069 85.547C54.5099 87.0003 56.6767 88.7284 59.6076 90.7312C60.9667 91.5904 62.1835 92.6606 63.2133 93.9024C64.3674 95.261 65.3086 96.7907 66.0036 98.4379C66.7227 100.132 67.2351 101.909 67.5296 103.728C67.8332 105.734 67.8758 107.772 67.6563 109.789ZM101.983 91.0459L99.6721 114.77C99.3987 117.387 98.5203 119.902 97.1077 122.112C95.5777 124.541 93.5875 126.64 91.2516 128.287C88.7461 130.069 85.9484 131.389 82.988 132.185C78.4393 133.449 74.8585 133.248 72.2453 131.581C69.6322 129.914 68.5102 127.162 68.8793 123.323L71.2345 99.1534C71.307 98.4282 71.4304 97.709 71.6035 97.0012V96.979C71.6724 96.7006 71.7468 96.4222 71.8322 96.1437L71.8569 96.0714C71.9369 95.8096 72.0222 95.5479 72.1187 95.2889C72.1352 95.2388 72.1572 95.1915 72.1738 95.1442C72.2618 94.9075 72.3528 94.6709 72.4491 94.437C72.485 94.3535 72.5263 94.27 72.5621 94.1864C72.6503 93.986 72.7411 93.7855 72.8376 93.585C72.9064 93.4458 72.9808 93.3066 73.0525 93.1729C73.1241 93.0393 73.2012 92.8806 73.2838 92.733C73.4417 92.4472 73.6098 92.1623 73.7879 91.8783C75.3181 89.4655 77.3067 87.3836 79.6385 85.753C82.1416 83.9759 84.9339 82.6566 87.8883 81.8551C88.3373 81.7298 88.7753 81.624 89.2077 81.5266L89.5961 81.4458C89.9028 81.3828 90.2048 81.3261 90.5023 81.276L90.899 81.2119C91.2277 81.1656 91.55 81.1275 91.8658 81.0978L92.1027 81.0728C92.4911 81.0422 92.8684 81.0282 93.2375 81.0254H93.3175C93.3808 81.0254 93.4387 81.0254 93.4993 81.0254C93.8133 81.0254 94.1209 81.0403 94.422 81.07L94.7333 81.0978C95.1024 81.1368 95.466 81.1869 95.813 81.2593C96.0664 81.3122 96.3116 81.3734 96.5485 81.443C96.7 81.4876 96.846 81.5377 96.9892 81.5879L97.2069 81.663C97.3942 81.7326 97.5705 81.8106 97.7577 81.8913L97.8183 81.9192C98.0019 82.0102 98.1856 82.1029 98.3692 82.1976C99.3376 82.7457 100.157 83.5271 100.755 84.4722C101.834 86.1781 102.244 88.3693 101.983 91.0459ZM129.744 119.197L118.45 122.332C118.305 122.373 118.039 122.111 117.654 121.547C117.268 120.983 117.032 120.713 116.946 120.737C116.547 120.98 116.178 121.269 115.844 121.597C114.326 123.006 112.489 124.017 110.495 124.543C104.115 126.317 101.469 121.635 102.556 110.496L104.264 92.9753C104.651 89.0013 105.465 85.6714 106.704 82.9855C107.944 80.2997 109.37 78.2579 110.982 76.8602C112.435 75.5538 114.156 74.5903 116.023 74.0398C116.265 73.973 116.502 73.9173 116.731 73.8673L116.949 73.8255C117.103 73.7976 117.257 73.7698 117.406 73.7502L117.643 73.7224C117.78 73.7076 117.915 73.6964 118.048 73.689H118.271H118.4C118.458 73.689 118.508 73.689 118.563 73.689C118.703 73.689 118.838 73.689 118.979 73.714L119.232 73.7475C119.364 73.767 119.491 73.7948 119.612 73.8255C119.686 73.8449 119.764 73.8617 119.835 73.8839C119.962 73.9247 120.088 73.9722 120.21 74.026C120.268 74.051 120.328 74.0704 120.383 74.0983C120.556 74.1775 120.722 74.2707 120.879 74.3768C120.964 74.438 121.045 74.4909 121.122 74.5355L121.193 74.5744C121.243 74.6022 121.29 74.6246 121.334 74.644L121.405 74.669C121.441 74.6819 121.478 74.6921 121.515 74.6997H121.576C121.618 74.7069 121.661 74.7069 121.703 74.6997C121.877 74.6514 121.986 74.4111 122.028 73.9786L123.463 59.2584C123.491 59.0258 123.587 58.8067 123.738 58.6292C123.901 58.4264 124.124 58.2819 124.374 58.2172L136.007 54.9847C136.119 54.9516 136.235 54.932 136.352 54.9262H136.382C136.455 54.9249 136.527 54.9401 136.593 54.9708C136.609 54.9796 136.624 54.9899 136.638 55.0014C136.678 55.0286 136.71 55.0661 136.732 55.11C136.741 55.1268 136.75 55.1445 136.756 55.1629C136.78 55.2412 136.788 55.3237 136.778 55.4051L136.602 57.226L130.644 118.236C130.596 118.723 130.296 119.043 129.744 119.197ZM167.979 100.086C167.847 101.437 167.319 102.922 166.395 104.541C165.45 106.189 164.24 107.665 162.814 108.909C161.498 110.119 159.927 111.011 158.22 111.515C156.325 112.043 154.9 112.189 153.945 111.955C152.956 111.701 152.078 111.127 151.444 110.321C151.111 109.939 150.843 109.776 150.639 109.834C150.405 109.899 150.044 110.262 149.554 110.925C147.962 113.163 145.657 114.779 143.026 115.502C140.753 116.135 138.724 115.779 136.94 114.433C135.158 113.088 134.449 110.535 134.814 106.777L135.417 100.571C135.952 95.082 139.567 90.1447 146.262 85.7586C147.963 84.6933 149.602 83.5324 151.174 82.2811C152.178 81.4366 152.84 80.6867 153.159 80.0315C153.527 79.2104 153.748 78.33 153.813 77.431C153.931 76.2152 153.54 75.7327 152.636 75.9832C151.936 76.1688 151.499 76.514 151.322 77.0189C151.146 77.5238 150.962 78.7859 150.772 80.8054C150.729 81.2379 150.445 81.5275 149.92 81.6742L138.04 84.425C137.806 84.489 137.668 84.45 137.627 84.3025C137.575 83.9522 137.567 83.5968 137.602 83.2444C137.628 82.6876 137.713 81.6668 137.858 80.1818C138.071 77.9916 138.87 75.7642 140.255 73.4997C140.76 72.6755 141.324 71.8893 141.94 71.1471C142.21 70.8203 142.493 70.5001 142.789 70.1865L142.871 70.1002C143.12 69.8366 143.377 69.5777 143.642 69.3233L143.882 69.0978C144.112 68.8844 144.347 68.6737 144.588 68.4658L144.863 68.2404C145.185 67.9619 145.513 67.7057 145.857 67.4469C148.264 65.6495 150.984 64.3271 153.875 63.5489C154.333 63.4209 154.779 63.3122 155.217 63.2148L155.614 63.1313C155.924 63.0663 156.23 63.0098 156.531 62.9614L156.941 62.8974C157.272 62.8501 157.597 62.8111 157.916 62.7833L158.162 62.7582C158.552 62.7276 158.936 62.7136 159.31 62.7108H159.39C159.635 62.7108 159.875 62.7108 160.111 62.7304H160.263C160.491 62.7452 160.715 62.7656 160.933 62.7916L161.148 62.8195C161.41 62.8557 161.666 62.8947 161.916 62.9475C162.166 63.0004 162.421 63.0644 162.66 63.1341C162.826 63.1814 162.979 63.2343 163.137 63.2872L163.329 63.3512C163.527 63.4236 163.715 63.5016 163.899 63.5851L163.938 63.6018C164.136 63.6909 164.327 63.7883 164.508 63.8802C165.417 64.3842 166.19 65.106 166.758 65.9823C167.768 67.5433 168.168 69.405 167.957 71.5674L165.753 94.32C165.723 94.643 165.819 94.8073 166.045 94.8101C166.68 94.7283 167.306 94.5875 167.915 94.3897C168.352 94.269 168.549 94.4249 168.508 94.8574L167.979 100.086Z" fill="white"></path>
<path d="M151.886 91.3703C151.505 91.4761 151.002 91.8474 150.373 92.484C149.768 93.0687 149.391 93.8528 149.307 94.6947L148.71 100.82C148.612 101.82 149.045 102.187 150.007 101.92C150.392 101.802 150.742 101.589 151.027 101.302C151.367 100.96 151.57 100.502 151.596 100.018L152.387 91.9077C152.431 91.5254 152.264 91.3462 151.886 91.3703Z" fill="white"></path>
</svg><style>@media (prefers-color-scheme: light) { :root { filter: none; } }
@media (prefers-color-scheme: dark) { :root { filter: none; } }
</style></svg>