<svg width="180" height="180" viewBox="0 0 180 180" fill="none" xmlns="http://www.w3.org/2000/svg">
<rect width="180" height="180" fill="white"/>
<path d="M52.653 38.7705C51.6945 35.2374 50.0172 31.7042 47.1417 28.9282C45.4643 27.1616 43.5472 25.8999 41.6302 24.8904C33.7226 20.8525 24.1376 22.1143 17.6678 28.9282C10.2394 36.7515 9.52064 49.3698 15.9905 57.9503C16.4698 58.7074 16.9489 59.2121 17.6678 59.9692C21.5017 64.007 26.2943 66.0259 31.3264 66.2783C37.0774 66.5307 42.8284 64.5118 47.1417 59.9692C52.653 54.1648 54.3304 46.0891 52.653 38.7705Z" fill="#CF016F"/>
<path d="M85.7218 133.66C108.726 133.66 127.177 113.976 127.177 90.0009C127.177 65.7738 108.486 46.3417 85.7218 46.3417C79.9708 46.3417 74.699 47.6035 69.6669 49.6224C68.7084 57.9505 65.1141 66.0261 58.8838 72.5876C54.8102 76.8779 49.7782 79.9063 44.7461 81.9252C44.2668 84.4489 44.0271 87.2249 44.0271 90.0009C44.0271 113.976 62.7179 133.66 85.7218 133.66Z" fill="#1D1D1B"/>
<path d="M166.714 19.0851C161.682 12.776 152.816 11.7665 146.825 17.0662L134.605 28.6751C121.425 17.0663 104.412 10 85.7212 10C75.8966 10 66.5513 12.019 58.1644 15.5521C58.4041 15.8044 58.8834 16.3091 59.123 16.5614C63.1966 20.8517 66.072 25.8991 67.989 31.1988C73.74 29.1799 79.7306 28.1704 85.9608 28.1704C118.31 28.1704 144.669 55.9306 144.669 90C144.669 124.069 118.31 151.83 85.9608 151.83C53.6115 151.83 27.2528 124.069 27.2528 90C27.2528 87.9811 27.2529 85.7098 27.4926 83.6909C21.7416 82.9338 15.9905 80.6624 10.9584 76.8769C10.2395 81.1672 10 85.4574 10 90C10 134.164 44.0265 170 85.9608 170C127.895 170 161.922 134.164 161.922 90C161.922 76.1199 158.567 63.2491 152.816 51.8927L165.277 40.2839C170.788 34.9842 171.746 25.3943 166.714 19.0851Z" fill="#1D1D1B"/>
</svg>
