<svg id="logo" xmlns="http://www.w3.org/2000/svg" width="51.91" height="40.57" viewBox="0 0 51.91 40.57">
  <defs>
    <style>
      .cls-1 {
        fill: #df2e2d;
        fill-rule: evenodd;
      }
    </style>
  </defs>
  <title>sprite</title>
  <path id="favicon" class="cls-1" d="M35.56,16.51s3.42,4.63-.44,9c-2.39,2.71-7.21,2.28-11.92,2.28l7.14-20.3H22.17L13.34,32.63s14.85.39,23.07-1.88c3.46-1,5.58-2.65,6.45-4.67,1.77-4.09-1.48-8.75-1.48-8.75s14.06-5.94,9.69-13.5C48.67-.33,38,0,33.11,0H14.26C9.52,13.59,4.85,27,0,40.57H40.21l2.1-6H10.58c3.29-9.73,6.72-19.34,10.13-29l11,0c3,.07,9.25-.68,10.3,2.42,2.14,6.35-6.42,8.53-6.42,8.53"/>
</svg>
