<?xml version="1.0" encoding="utf-8"?>
<!-- Generator: Adobe Illustrator 23.0.3, SVG Export Plug-In . SVG Version: 6.00 Build 0)  -->
<svg version="1.1" id="Layer_1" xmlns="http://www.w3.org/2000/svg" xmlns:xlink="http://www.w3.org/1999/xlink" x="0px" y="0px"
	 viewBox="0 0 120 120" style="enable-background:new 0 0 120 120;" xml:space="preserve">
<style type="text/css">
	.st0{fill:#FFFFFF;}
</style>
<path d="M99.8,341.8L99.8,341.8c-33.1,0-60-26.9-60-60v0c0-33.1,26.9-60,60-60h0c33.1,0,60,26.9,60,60v0
	C159.8,315,132.9,341.8,99.8,341.8z"/>
<g>
	<path class="st0" d="M84.3,296.7h2.8l3.1-2.6v-7l-3.1-2.5h-7.2v17.8h4.5V296.7z M84.3,288.6h1.4v4.3h-1.4V288.6z"/>
	<path class="st0" d="M69.5,284.6l-3.5,3.4v11l3.5,3.5h3.8l3.5-3.5v-11l-3.5-3.4H69.5z M72.4,298.5h-2v-10h2V298.5z"/>
	<polygon class="st0" points="103.2,278.5 104.1,282 103.5,273 101.4,236.1 100.5,234.5 	"/>
	<polygon class="st0" points="53.7,288.6 56.4,288.6 56.4,302.4 60.9,302.4 60.9,288.6 63.5,288.6 63.5,284.6 53.7,284.6 	"/>
	<polygon class="st0" points="80,282.7 80,274.4 81.4,274.4 81.4,282.7 83.3,282.7 83.3,274.3 84.7,274.2 84.7,282.7 86.7,282.7 
		86.7,274.1 88.1,274.1 88.1,282.7 90,282.7 90,274 91.4,274 91.4,282.7 93.4,282.7 93.4,273.9 94.8,273.8 94.8,282.7 94.9,282.7 
		95.8,268.1 93.8,268.1 53.7,272.3 53.7,282.7 56.5,282.7 56.5,275.4 57.9,275.3 57.9,282.7 59.8,282.7 59.8,275.3 61.2,275.2 
		61.2,282.7 63.2,282.7 63.2,275.1 64.6,275.1 64.6,282.7 66.5,282.7 66.5,275 68,274.9 68,282.7 69.9,282.7 69.9,274.8 71.3,274.8 
		71.3,282.7 73.2,282.7 73.2,274.7 74.7,274.6 74.7,282.7 76.6,282.7 76.6,274.6 78,274.5 78,282.7 	"/>
	<polygon class="st0" points="142.6,292 138.8,284.6 135.7,284.6 135.7,302.4 139,302.4 139,291.4 139,291.4 142.6,298.8 
		142.6,302.4 145.9,302.4 145.9,284.6 142.6,284.6 	"/>
	<path class="st0" d="M92.5,313.7l6.9-17.3l-0.6-1.4l-3.9-4.2l-5.2,22.9c-3.6,0.7-6.3,4-6.2,8c0.2,4.2,3.5,7.6,7.6,7.6
		c0.1,0,0.2,0,0.3,0c4.2-0.1,7.4-3.8,7.3-8.1C98.5,317.4,95.9,314.4,92.5,313.7z M91.3,327.1c-0.1,0-0.1,0-0.2,0
		c-3,0-5.4-2.4-5.5-5.5c-0.1-3.2,2.3-5.8,5.3-5.9c0.1,0,0.1,0,0.2,0c3,0,5.4,2.4,5.5,5.5C96.7,324.4,94.4,327,91.3,327.1z"/>
	<polygon class="st0" points="129.3,299.3 126.6,299.3 126.6,284.6 123.1,284.6 123.1,299.3 126.3,302.4 129.6,302.4 132.7,299.3 
		132.7,284.6 129.3,284.6 	"/>
	<polygon class="st0" points="105.8,268.1 104.3,268.1 105.1,282.7 105.3,282.7 105.3,273.8 107,273.9 107,282.7 109.4,282.7 
		109.4,274 111.6,274.1 111.6,282.7 113.9,282.7 113.9,274.2 116.1,274.3 116.1,282.7 118.4,282.7 118.4,274.4 120.6,274.5 
		120.6,282.7 122.9,282.7 122.9,274.6 125.1,274.6 125.1,282.7 127.4,282.7 127.4,274.7 129.6,274.8 129.6,282.7 131.9,282.7 
		131.9,274.9 134.1,275 134.1,282.7 136.4,282.7 136.4,275.1 138.6,275.2 138.6,282.7 140.9,282.7 140.9,275.3 143.1,275.4 
		143.1,282.7 145.9,282.7 145.9,272.3 	"/>
	<path class="st0" d="M110.2,313.7l-5.4-23.5l-0.1-0.4l-0.4-1.6l-1.2-5.4l-0.4-1.6l-0.6-2.5l-2.7-44.1l-0.9,1.5l-1.8,32.3l-0.8,14.3
		l-0.1,2l-0.1,1.7l-0.1,1.7l-0.1,1.6l4.3,4.7l0.2,0.6l0.2,0.4l0.1,0.4l7.2,18c-3.4,0.7-6,3.7-6.2,7.4c-0.2,4.3,3.1,7.9,7.3,8.1
		c0.1,0,0.2,0,0.3,0c4,0,7.4-3.3,7.6-7.6C116.5,317.7,113.8,314.4,110.2,313.7z M100.8,281.6h-1.6l-0.8-1.3l0.8-1.4h1.6l0.8,1.4
		L100.8,281.6z M108.8,327.1c-0.1,0-0.1,0-0.2,0c-3-0.1-5.4-2.8-5.3-5.9c0.1-3.1,2.6-5.5,5.5-5.5c0.1,0,0.1,0,0.2,0
		c3,0.1,5.4,2.8,5.3,5.9C114.3,324.7,111.8,327.1,108.8,327.1z"/>
	<polygon class="st0" points="113.5,284.6 110.4,287.8 110.4,299.3 113.5,302.4 117,302.4 120.1,299.3 120.1,293.3 115.3,293.3 
		115.3,296.3 116.7,296.3 116.7,299.3 113.9,299.3 113.9,287.8 116.7,287.8 116.7,291.1 120.1,291.1 120.1,287.8 117,284.6 	"/>
</g>
<path d="M59.8,119.8L59.8,119.8c-33.1,0-60-26.9-60-60v0c0-33.1,26.9-60,60-60h0c33.1,0,60,26.9,60,60v0
	C119.8,93,92.9,119.8,59.8,119.8z"/>
<g>
	<path class="st0" d="M44.9,74.1h2.7l3-2.5V65l-3-2.4h-7v17.1h4.3V74.1z M44.9,66.3h1.3v4.1h-1.3V66.3z"/>
	<path class="st0" d="M30.7,62.5l-3.4,3.3v10.5l3.4,3.3h3.7l3.4-3.3V65.8l-3.4-3.3H30.7z M33.5,75.8h-1.9v-9.6h1.9V75.8z"/>
	<polygon class="st0" points="63.1,56.6 63.9,59.9 63.4,51.3 61.4,15.9 60.4,14.4 	"/>
	<polygon class="st0" points="15.6,66.3 18.1,66.3 18.1,79.6 22.4,79.6 22.4,66.3 25,66.3 25,62.5 15.6,62.5 	"/>
	<polygon class="st0" points="40.8,60.7 40.8,52.7 42.1,52.7 42.1,60.7 44,60.7 44,52.6 45.3,52.5 45.3,60.7 47.2,60.7 47.2,52.5 
		48.5,52.4 48.5,60.7 50.4,60.7 50.4,52.3 51.8,52.3 51.8,60.7 53.6,60.7 53.6,52.2 55,52.1 55,60.7 55.1,60.7 55.9,46.6 54,46.6 
		15.6,50.7 15.6,60.7 18.2,60.7 18.2,53.7 19.6,53.6 19.6,60.7 21.4,60.7 21.4,53.5 22.8,53.5 22.8,60.7 24.7,60.7 24.7,53.4 
		26,53.3 26,60.7 27.9,60.7 27.9,53.3 29.2,53.2 29.2,60.7 31.1,60.7 31.1,53.1 32.5,53.1 32.5,60.7 34.3,60.7 34.3,53 35.7,52.9 
		35.7,60.7 37.5,60.7 37.5,52.9 38.9,52.8 38.9,60.7 	"/>
	<polygon class="st0" points="100.9,69.6 97.2,62.5 94.3,62.5 94.3,79.6 97.4,79.6 97.4,69 97.4,69 100.9,76.2 100.9,79.6 104,79.6 
		104,62.5 100.9,62.5 	"/>
	<path class="st0" d="M52.8,90.4l6.6-16.6l-0.5-1.4l-3.7-4.1l-5,22c-3.5,0.7-6,3.9-5.9,7.7c0.1,4.1,3.4,7.3,7.3,7.3
		c0.1,0,0.2,0,0.2,0c4-0.1,7.1-3.6,7-7.8C58.6,94,56,91,52.8,90.4z M51.7,103.3c-0.1,0-0.1,0-0.2,0c-2.8,0-5.2-2.3-5.3-5.3
		c-0.1-3,2.2-5.6,5.1-5.7c0.1,0,0.1,0,0.2,0c2.8,0,5.2,2.3,5.3,5.3C56.9,100.6,54.6,103.2,51.7,103.3z"/>
	<polygon class="st0" points="88.1,76.6 85.5,76.6 85.5,62.5 82.2,62.5 82.2,76.6 85.2,79.6 88.4,79.6 91.4,76.6 91.4,62.5 
		88.1,62.5 	"/>
	<polygon class="st0" points="65.6,46.6 64.2,46.6 64.9,60.7 65.1,60.7 65.1,52.1 66.8,52.2 66.8,60.7 69,60.7 69,52.3 71.1,52.4 
		71.1,60.7 73.3,60.7 73.3,52.5 75.4,52.6 75.4,60.7 77.6,60.7 77.6,52.7 79.7,52.8 79.7,60.7 82,60.7 82,52.9 84,52.9 84,60.7 
		86.3,60.7 86.3,53 88.4,53.1 88.4,60.7 90.6,60.7 90.6,53.2 92.7,53.3 92.7,60.7 94.9,60.7 94.9,53.4 97,53.5 97,60.7 99.2,60.7 
		99.2,53.6 101.4,53.7 101.4,60.7 104,60.7 104,50.7 	"/>
	<path class="st0" d="M69.8,90.4l-5.1-22.6l-0.1-0.4l-0.4-1.6L63,60.7l-0.3-1.5l-0.6-2.4l-2.6-42.3l-0.9,1.4l-1.8,31L56,60.7l-0.1,2
		l-0.1,1.6l-0.1,1.6l-0.1,1.6l4.1,4.5l0.2,0.5l0.1,0.4l0.1,0.4l6.9,17.3c-3.3,0.6-5.8,3.5-5.9,7.1c-0.1,4.1,3,7.6,7,7.8
		c0.1,0,0.2,0,0.2,0c3.9,0,7.1-3.2,7.3-7.3C75.9,94.3,73.3,91.1,69.8,90.4z M60.7,59.6h-1.5l-0.7-1.3l0.7-1.3h1.5l0.7,1.3L60.7,59.6
		z M68.5,103.3c-0.1,0-0.1,0-0.2,0c-2.9-0.1-5.2-2.6-5.1-5.7c0.1-3,2.5-5.3,5.3-5.3c0.1,0,0.1,0,0.2,0c2.9,0.1,5.2,2.6,5.1,5.7
		C73.7,101,71.3,103.3,68.5,103.3z"/>
	<polygon class="st0" points="73,62.5 70,65.5 70,76.6 73,79.6 76.3,79.6 79.3,76.6 79.3,70.8 74.7,70.8 74.7,73.7 76,73.7 76,76.6 
		73.3,76.6 73.3,65.5 76,65.5 76,68.7 79.3,68.7 79.3,65.5 76.3,62.5 	"/>
</g>
</svg>
