<svg width="512" height="512" viewBox="0 0 512 512" fill="none" xmlns="http://www.w3.org/2000/svg">
<g clip-path="url(#clip0_12439_25991)">
<circle cx="256" cy="256" r="256" fill="#FF335F"/>
<g clip-path="url(#clip1_12439_25991)">
<g filter="url(#filter0_dii_12439_25991)">
<path fill-rule="evenodd" clip-rule="evenodd" d="M243.942 100.862C220.475 92.1186 233.758 81.948 217.246 70.9059C154.925 29.231 73.9749 180.494 58.9728 209.851C46.7932 233.684 37.0458 256.988 34.1011 274.895C28.003 311.98 57.4438 345.558 98.3501 323.467C123.712 308.208 139.592 288.766 160.212 271.416C165.337 268.862 170.133 268.237 174.4 270.731C187.768 282.369 204.245 287.585 223.816 279.21C226.466 278.077 227.629 278.29 229.866 279.219L260.81 290.48C263.119 291.205 264.149 291.789 265.45 294.36C275.058 313.354 291.034 319.947 308.757 319.623C313.628 320.454 316.901 324.016 319.184 329.266C323.826 355.809 323.491 380.907 333.109 408.895C350.022 451.552 394.699 445.087 413.447 414.406C422.995 398.78 430.152 374.016 436.321 347.166C443.702 315.038 478.941 147.139 404.406 139.013C384.659 136.86 388.295 153.186 364.697 144.804C340.649 134.267 324.749 127.517 305.217 120.37C285.658 113.292 269.14 108.245 243.943 100.862L243.942 100.862Z" fill="#FEFEFE"/>
</g>
<g filter="url(#filter1_i_12439_25991)">
<path fill-rule="evenodd" clip-rule="evenodd" d="M354.823 140.5C336.014 132.329 321.945 126.496 305.211 120.374C288.193 114.215 273.476 109.593 253.341 103.633L244.086 140.312C240.751 153.528 247.161 167.781 261.261 172.912L305.225 188.91C319.325 194.041 333.762 187.401 339.341 174.975L354.823 140.5Z" fill="url(#paint0_linear_12439_25991)"/>
</g>
<g filter="url(#filter2_d_12439_25991)">
<path d="M194.756 256.537C209.815 262.017 226.483 254.207 231.985 239.093C237.488 223.979 229.74 207.285 214.681 201.805C199.622 196.325 182.954 204.135 177.452 219.249C171.949 234.363 179.697 251.057 194.756 256.537Z" fill="url(#paint1_radial_12439_25991)"/>
</g>
<g filter="url(#filter3_d_12439_25991)">
<path d="M298.3 295.361C313.359 300.841 330.027 293.031 335.529 277.917C341.031 262.803 333.284 246.108 318.225 240.628C303.166 235.148 286.498 242.958 280.996 258.072C275.493 273.186 283.241 289.881 298.3 295.361Z" fill="url(#paint2_radial_12439_25991)"/>
</g>
<g filter="url(#filter4_d_12439_25991)">
<path fill-rule="evenodd" clip-rule="evenodd" d="M179.482 103.877C179.481 103.877 179.482 103.876 179.482 103.876C186.36 102.747 192.135 104.643 196.886 109.357C197.664 110.129 197.871 111.294 197.496 112.324C194.671 120.083 191.846 127.843 189.021 135.602C188.744 136.364 188.17 136.982 187.429 137.314L178.644 141.252C177.164 141.916 175.425 141.283 174.717 139.823L170.519 131.16C170.165 130.43 170.122 129.588 170.399 128.826L179.482 103.877C179.482 103.877 179.482 103.877 179.482 103.877V103.877Z" fill="url(#paint3_radial_12439_25991)"/>
</g>
<g filter="url(#filter5_d_12439_25991)">
<path fill-rule="evenodd" clip-rule="evenodd" d="M151.333 181.324C151.333 181.324 151.333 181.324 151.333 181.324C155.876 186.61 161.519 188.869 168.189 188.311C169.282 188.219 170.189 187.46 170.564 186.43C173.388 178.671 176.213 170.911 179.038 163.152C179.315 162.389 179.272 161.547 178.919 160.817L174.721 152.155C174.014 150.695 172.274 150.062 170.794 150.725L162.008 154.664C161.268 154.995 160.693 155.613 160.416 156.375L151.333 181.324C151.333 181.324 151.333 181.324 151.333 181.324V181.324Z" fill="url(#paint4_radial_12439_25991)"/>
</g>
<g filter="url(#filter6_d_12439_25991)">
<path fill-rule="evenodd" clip-rule="evenodd" d="M135.135 142.741C135.135 142.741 135.135 142.741 135.135 142.741C133.987 135.878 135.877 130.121 140.596 125.393C141.368 124.62 142.529 124.415 143.557 124.789C151.128 127.544 157.349 129.808 164.979 132.585C165.738 132.861 166.354 133.432 166.687 134.167L170.649 142.924C171.321 144.409 170.684 146.159 169.215 146.865L160.549 151.027C159.821 151.377 158.983 151.419 158.224 151.143L135.136 142.741C135.135 142.741 135.135 142.741 135.135 142.741V142.741Z" fill="url(#paint5_radial_12439_25991)"/>
</g>
<g filter="url(#filter7_d_12439_25991)">
<path fill-rule="evenodd" clip-rule="evenodd" d="M207.169 168.954C207.169 168.955 207.169 168.955 207.169 168.955C212.46 164.435 214.714 158.811 214.139 152.156C214.045 151.067 213.286 150.164 212.259 149.791C204.688 147.035 198.466 144.772 190.837 141.995C190.078 141.719 189.239 141.76 188.511 142.11L179.846 146.271C178.376 146.977 177.739 148.727 178.411 150.212L182.373 158.97C182.706 159.706 183.321 160.276 184.08 160.552L207.169 168.954C207.169 168.954 207.169 168.954 207.169 168.954V168.954Z" fill="url(#paint6_radial_12439_25991)"/>
</g>
<g filter="url(#filter8_d_12439_25991)">
<path d="M406.91 206.377C411.091 198.857 408.359 189.377 400.806 185.204C393.254 181.031 383.742 183.744 379.56 191.264C375.378 198.785 378.111 208.265 385.663 212.438C393.216 216.611 402.728 213.898 406.91 206.377Z" fill="url(#paint7_radial_12439_25991)"/>
</g>
<g filter="url(#filter9_d_12439_25991)">
<path d="M387.495 255.554C391.676 248.033 388.944 238.554 381.391 234.38C373.839 230.207 364.327 232.92 360.145 240.441C355.963 247.961 358.696 257.441 366.248 261.614C373.801 265.788 383.313 263.074 387.495 255.554Z" fill="url(#paint8_radial_12439_25991)"/>
</g>
<g filter="url(#filter10_d_12439_25991)">
<path d="M367.104 200.757C359.554 196.57 350.054 199.275 345.885 206.798C341.716 214.321 344.457 223.813 352.007 227.999C359.557 232.185 369.057 229.48 373.226 221.958C377.395 214.435 374.654 204.943 367.104 200.757Z" fill="url(#paint9_radial_12439_25991)"/>
</g>
<g filter="url(#filter11_d_12439_25991)">
<path d="M416.286 220.168C408.736 215.982 399.236 218.687 395.067 226.21C390.899 233.733 393.64 243.225 401.19 247.411C408.74 251.597 418.24 248.892 422.409 241.369C426.578 233.847 423.836 224.355 416.286 220.168Z" fill="url(#paint10_radial_12439_25991)"/>
</g>
</g>
</g>
<defs>
<filter id="filter0_dii_12439_25991" x="15.3008" y="43.6938" width="457.794" height="420.459" filterUnits="userSpaceOnUse" color-interpolation-filters="sRGB">
<feFlood flood-opacity="0" result="BackgroundImageFix"/>
<feColorMatrix in="SourceAlpha" type="matrix" values="0 0 0 0 0 0 0 0 0 0 0 0 0 0 0 0 0 0 127 0" result="hardAlpha"/>
<feOffset dx="2" dy="5"/>
<feGaussianBlur stdDeviation="10"/>
<feComposite in2="hardAlpha" operator="out"/>
<feColorMatrix type="matrix" values="0 0 0 0 0.596154 0 0 0 0 0.0745192 0 0 0 0 0.187029 0 0 0 1 0"/>
<feBlend mode="normal" in2="BackgroundImageFix" result="effect1_dropShadow_12439_25991"/>
<feBlend mode="normal" in="SourceGraphic" in2="effect1_dropShadow_12439_25991" result="shape"/>
<feColorMatrix in="SourceAlpha" type="matrix" values="0 0 0 0 0 0 0 0 0 0 0 0 0 0 0 0 0 0 127 0" result="hardAlpha"/>
<feOffset dy="-20"/>
<feGaussianBlur stdDeviation="11"/>
<feComposite in2="hardAlpha" operator="arithmetic" k2="-1" k3="1"/>
<feColorMatrix type="matrix" values="0 0 0 0 0.490385 0 0 0 0 0.490385 0 0 0 0 0.490385 0 0 0 0.8 0"/>
<feBlend mode="normal" in2="shape" result="effect2_innerShadow_12439_25991"/>
<feColorMatrix in="SourceAlpha" type="matrix" values="0 0 0 0 0 0 0 0 0 0 0 0 0 0 0 0 0 0 127 0" result="hardAlpha"/>
<feOffset dx="3" dy="10"/>
<feGaussianBlur stdDeviation="5.45"/>
<feComposite in2="hardAlpha" operator="arithmetic" k2="-1" k3="1"/>
<feColorMatrix type="matrix" values="0 0 0 0 0.879808 0 0 0 0 0.879808 0 0 0 0 0.879808 0 0 0 0.25 0"/>
<feBlend mode="normal" in2="effect2_innerShadow_12439_25991" result="effect3_innerShadow_12439_25991"/>
</filter>
<filter id="filter1_i_12439_25991" x="243.22" y="96.6335" width="111.604" height="94.022" filterUnits="userSpaceOnUse" color-interpolation-filters="sRGB">
<feFlood flood-opacity="0" result="BackgroundImageFix"/>
<feBlend mode="normal" in="SourceGraphic" in2="BackgroundImageFix" result="shape"/>
<feColorMatrix in="SourceAlpha" type="matrix" values="0 0 0 0 0 0 0 0 0 0 0 0 0 0 0 0 0 0 127 0" result="hardAlpha"/>
<feOffset dy="-9"/>
<feGaussianBlur stdDeviation="3.5"/>
<feComposite in2="hardAlpha" operator="arithmetic" k2="-1" k3="1"/>
<feColorMatrix type="matrix" values="0 0 0 0 0.110577 0 0 0 0 0.110577 0 0 0 0 0.110577 0 0 0 1 0"/>
<feBlend mode="normal" in2="shape" result="effect1_innerShadow_12439_25991"/>
</filter>
<filter id="filter2_d_12439_25991" x="174.481" y="198.854" width="66.4752" height="66.6346" filterUnits="userSpaceOnUse" color-interpolation-filters="sRGB">
<feFlood flood-opacity="0" result="BackgroundImageFix"/>
<feColorMatrix in="SourceAlpha" type="matrix" values="0 0 0 0 0 0 0 0 0 0 0 0 0 0 0 0 0 0 127 0" result="hardAlpha"/>
<feOffset dx="3" dy="3"/>
<feGaussianBlur stdDeviation="2.1"/>
<feComposite in2="hardAlpha" operator="out"/>
<feColorMatrix type="matrix" values="0 0 0 0 0 0 0 0 0 0 0 0 0 0 0 0 0 0 0.25 0"/>
<feBlend mode="normal" in2="BackgroundImageFix" result="effect1_dropShadow_12439_25991"/>
<feBlend mode="normal" in="SourceGraphic" in2="effect1_dropShadow_12439_25991" result="shape"/>
</filter>
<filter id="filter3_d_12439_25991" x="278.025" y="237.677" width="66.4752" height="66.6346" filterUnits="userSpaceOnUse" color-interpolation-filters="sRGB">
<feFlood flood-opacity="0" result="BackgroundImageFix"/>
<feColorMatrix in="SourceAlpha" type="matrix" values="0 0 0 0 0 0 0 0 0 0 0 0 0 0 0 0 0 0 127 0" result="hardAlpha"/>
<feOffset dx="3" dy="3"/>
<feGaussianBlur stdDeviation="2.1"/>
<feComposite in2="hardAlpha" operator="out"/>
<feColorMatrix type="matrix" values="0 0 0 0 0 0 0 0 0 0 0 0 0 0 0 0 0 0 0.25 0"/>
<feBlend mode="normal" in2="BackgroundImageFix" result="effect1_dropShadow_12439_25991"/>
<feBlend mode="normal" in="SourceGraphic" in2="effect1_dropShadow_12439_25991" result="shape"/>
</filter>
<filter id="filter4_d_12439_25991" x="169.019" y="102.359" width="33.859" height="44.3568" filterUnits="userSpaceOnUse" color-interpolation-filters="sRGB">
<feFlood flood-opacity="0" result="BackgroundImageFix"/>
<feColorMatrix in="SourceAlpha" type="matrix" values="0 0 0 0 0 0 0 0 0 0 0 0 0 0 0 0 0 0 127 0" result="hardAlpha"/>
<feOffset dx="2" dy="2"/>
<feGaussianBlur stdDeviation="1.6"/>
<feComposite in2="hardAlpha" operator="out"/>
<feColorMatrix type="matrix" values="0 0 0 0 0 0 0 0 0 0 0 0 0 0 0 0 0 0 0.3 0"/>
<feBlend mode="normal" in2="BackgroundImageFix" result="effect1_dropShadow_12439_25991"/>
<feBlend mode="normal" in="SourceGraphic" in2="effect1_dropShadow_12439_25991" result="shape"/>
</filter>
<filter id="filter5_d_12439_25991" x="150.133" y="149.262" width="34.2857" height="44.3309" filterUnits="userSpaceOnUse" color-interpolation-filters="sRGB">
<feFlood flood-opacity="0" result="BackgroundImageFix"/>
<feColorMatrix in="SourceAlpha" type="matrix" values="0 0 0 0 0 0 0 0 0 0 0 0 0 0 0 0 0 0 127 0" result="hardAlpha"/>
<feOffset dx="2" dy="2"/>
<feGaussianBlur stdDeviation="1.6"/>
<feComposite in2="hardAlpha" operator="out"/>
<feColorMatrix type="matrix" values="0 0 0 0 0 0 0 0 0 0 0 0 0 0 0 0 0 0 0.3 0"/>
<feBlend mode="normal" in2="BackgroundImageFix" result="effect1_dropShadow_12439_25991"/>
<feBlend mode="normal" in="SourceGraphic" in2="effect1_dropShadow_12439_25991" result="shape"/>
</filter>
<filter id="filter6_d_12439_25991" x="133.609" y="123.407" width="42.5084" height="33.1161" filterUnits="userSpaceOnUse" color-interpolation-filters="sRGB">
<feFlood flood-opacity="0" result="BackgroundImageFix"/>
<feColorMatrix in="SourceAlpha" type="matrix" values="0 0 0 0 0 0 0 0 0 0 0 0 0 0 0 0 0 0 127 0" result="hardAlpha"/>
<feOffset dx="2" dy="2"/>
<feGaussianBlur stdDeviation="1.6"/>
<feComposite in2="hardAlpha" operator="out"/>
<feColorMatrix type="matrix" values="0 0 0 0 0 0 0 0 0 0 0 0 0 0 0 0 0 0 0.3 0"/>
<feBlend mode="normal" in2="BackgroundImageFix" result="effect1_dropShadow_12439_25991"/>
<feBlend mode="normal" in="SourceGraphic" in2="effect1_dropShadow_12439_25991" result="shape"/>
</filter>
<filter id="filter7_d_12439_25991" x="176.944" y="140.614" width="42.483" height="33.5406" filterUnits="userSpaceOnUse" color-interpolation-filters="sRGB">
<feFlood flood-opacity="0" result="BackgroundImageFix"/>
<feColorMatrix in="SourceAlpha" type="matrix" values="0 0 0 0 0 0 0 0 0 0 0 0 0 0 0 0 0 0 127 0" result="hardAlpha"/>
<feOffset dx="2" dy="2"/>
<feGaussianBlur stdDeviation="1.6"/>
<feComposite in2="hardAlpha" operator="out"/>
<feColorMatrix type="matrix" values="0 0 0 0 0 0 0 0 0 0 0 0 0 0 0 0 0 0 0.3 0"/>
<feBlend mode="normal" in2="BackgroundImageFix" result="effect1_dropShadow_12439_25991"/>
<feBlend mode="normal" in="SourceGraphic" in2="effect1_dropShadow_12439_25991" result="shape"/>
</filter>
<filter id="filter8_d_12439_25991" x="376.601" y="182.245" width="37.2686" height="37.1521" filterUnits="userSpaceOnUse" color-interpolation-filters="sRGB">
<feFlood flood-opacity="0" result="BackgroundImageFix"/>
<feColorMatrix in="SourceAlpha" type="matrix" values="0 0 0 0 0 0 0 0 0 0 0 0 0 0 0 0 0 0 127 0" result="hardAlpha"/>
<feOffset dx="2" dy="2"/>
<feGaussianBlur stdDeviation="1.5"/>
<feComposite in2="hardAlpha" operator="out"/>
<feColorMatrix type="matrix" values="0 0 0 0 0 0 0 0 0 0 0 0 0 0 0 0 0 0 0.3 0"/>
<feBlend mode="normal" in2="BackgroundImageFix" result="effect1_dropShadow_12439_25991"/>
<feBlend mode="normal" in="SourceGraphic" in2="effect1_dropShadow_12439_25991" result="shape"/>
</filter>
<filter id="filter9_d_12439_25991" x="357.186" y="231.421" width="37.2686" height="37.1521" filterUnits="userSpaceOnUse" color-interpolation-filters="sRGB">
<feFlood flood-opacity="0" result="BackgroundImageFix"/>
<feColorMatrix in="SourceAlpha" type="matrix" values="0 0 0 0 0 0 0 0 0 0 0 0 0 0 0 0 0 0 127 0" result="hardAlpha"/>
<feOffset dx="2" dy="2"/>
<feGaussianBlur stdDeviation="1.5"/>
<feComposite in2="hardAlpha" operator="out"/>
<feColorMatrix type="matrix" values="0 0 0 0 0 0 0 0 0 0 0 0 0 0 0 0 0 0 0.3 0"/>
<feBlend mode="normal" in2="BackgroundImageFix" result="effect1_dropShadow_12439_25991"/>
<feBlend mode="normal" in="SourceGraphic" in2="effect1_dropShadow_12439_25991" result="shape"/>
</filter>
<filter id="filter10_d_12439_25991" x="342.937" y="197.787" width="37.2383" height="37.1819" filterUnits="userSpaceOnUse" color-interpolation-filters="sRGB">
<feFlood flood-opacity="0" result="BackgroundImageFix"/>
<feColorMatrix in="SourceAlpha" type="matrix" values="0 0 0 0 0 0 0 0 0 0 0 0 0 0 0 0 0 0 127 0" result="hardAlpha"/>
<feOffset dx="2" dy="2"/>
<feGaussianBlur stdDeviation="1.5"/>
<feComposite in2="hardAlpha" operator="out"/>
<feColorMatrix type="matrix" values="0 0 0 0 0 0 0 0 0 0 0 0 0 0 0 0 0 0 0.3 0"/>
<feBlend mode="normal" in2="BackgroundImageFix" result="effect1_dropShadow_12439_25991"/>
<feBlend mode="normal" in="SourceGraphic" in2="effect1_dropShadow_12439_25991" result="shape"/>
</filter>
<filter id="filter11_d_12439_25991" x="392.119" y="217.199" width="37.2383" height="37.1819" filterUnits="userSpaceOnUse" color-interpolation-filters="sRGB">
<feFlood flood-opacity="0" result="BackgroundImageFix"/>
<feColorMatrix in="SourceAlpha" type="matrix" values="0 0 0 0 0 0 0 0 0 0 0 0 0 0 0 0 0 0 127 0" result="hardAlpha"/>
<feOffset dx="2" dy="2"/>
<feGaussianBlur stdDeviation="1.5"/>
<feComposite in2="hardAlpha" operator="out"/>
<feColorMatrix type="matrix" values="0 0 0 0 0 0 0 0 0 0 0 0 0 0 0 0 0 0 0.3 0"/>
<feBlend mode="normal" in2="BackgroundImageFix" result="effect1_dropShadow_12439_25991"/>
<feBlend mode="normal" in="SourceGraphic" in2="effect1_dropShadow_12439_25991" result="shape"/>
</filter>
<linearGradient id="paint0_linear_12439_25991" x1="298.861" y1="136.235" x2="282.734" y2="180.726" gradientUnits="userSpaceOnUse">
<stop stop-color="#434242"/>
<stop offset="1" stop-color="#202020"/>
</linearGradient>
<radialGradient id="paint1_radial_12439_25991" cx="0" cy="0" r="1" gradientUnits="userSpaceOnUse" gradientTransform="translate(205.024 238.471) rotate(-121.358) scale(48.4952 48.3223)">
<stop stop-color="#3C3B3B"/>
<stop offset="1"/>
</radialGradient>
<radialGradient id="paint2_radial_12439_25991" cx="0" cy="0" r="1" gradientUnits="userSpaceOnUse" gradientTransform="translate(308.568 277.294) rotate(-121.358) scale(48.4952 48.3223)">
<stop stop-color="#3C3B3B"/>
<stop offset="1"/>
</radialGradient>
<radialGradient id="paint3_radial_12439_25991" cx="0" cy="0" r="1" gradientUnits="userSpaceOnUse" gradientTransform="translate(181.641 108.502) rotate(94.199) scale(38.0074 23.0295)">
<stop stop-color="#FF335F"/>
<stop offset="0.281409" stop-color="#FF4B72"/>
<stop offset="1" stop-color="#E33258"/>
</radialGradient>
<radialGradient id="paint4_radial_12439_25991" cx="0" cy="0" r="1" gradientUnits="userSpaceOnUse" gradientTransform="translate(165.359 153.353) rotate(94.199) scale(38.0074 23.0295)">
<stop stop-color="#FF335F"/>
<stop offset="0.281409" stop-color="#FF4B72"/>
<stop offset="1" stop-color="#E33258"/>
</radialGradient>
<radialGradient id="paint5_radial_12439_25991" cx="0" cy="0" r="1" gradientUnits="userSpaceOnUse" gradientTransform="translate(144.782 128.559) rotate(61.9822) scale(26.8697 30.894)">
<stop stop-color="#FF335F"/>
<stop offset="0.281409" stop-color="#FF4B72"/>
<stop offset="1" stop-color="#E33258"/>
</radialGradient>
<radialGradient id="paint6_radial_12439_25991" cx="0" cy="0" r="1" gradientUnits="userSpaceOnUse" gradientTransform="translate(186.062 143.582) rotate(61.9822) scale(26.8697 30.894)">
<stop stop-color="#FF335F"/>
<stop offset="0.281409" stop-color="#FF4B72"/>
<stop offset="1" stop-color="#E33258"/>
</radialGradient>
<radialGradient id="paint7_radial_12439_25991" cx="0" cy="0" r="1" gradientUnits="userSpaceOnUse" gradientTransform="translate(379.075 202.307) rotate(-0.822646) scale(32.8042 32.6239)">
<stop stop-color="#FF335F"/>
<stop offset="0.281409" stop-color="#FF4B72"/>
<stop offset="1" stop-color="#E33258"/>
</radialGradient>
<radialGradient id="paint8_radial_12439_25991" cx="0" cy="0" r="1" gradientUnits="userSpaceOnUse" gradientTransform="translate(359.66 251.484) rotate(-0.822646) scale(32.8042 32.6239)">
<stop stop-color="#FF335F"/>
<stop offset="0.281409" stop-color="#FF4B72"/>
<stop offset="1" stop-color="#E33258"/>
</radialGradient>
<radialGradient id="paint9_radial_12439_25991" cx="0" cy="0" r="1" gradientUnits="userSpaceOnUse" gradientTransform="translate(363.082 228.506) rotate(-90.9491) scale(32.7162 32.7117)">
<stop stop-color="#FF335F"/>
<stop offset="0.281409" stop-color="#FF4B72"/>
<stop offset="1" stop-color="#E33258"/>
</radialGradient>
<radialGradient id="paint10_radial_12439_25991" cx="0" cy="0" r="1" gradientUnits="userSpaceOnUse" gradientTransform="translate(412.264 247.918) rotate(-90.9491) scale(32.7162 32.7117)">
<stop stop-color="#FF335F"/>
<stop offset="0.281409" stop-color="#FF4B72"/>
<stop offset="1" stop-color="#E33258"/>
</radialGradient>
<clipPath id="clip0_12439_25991">
<rect width="512" height="512" rx="100" fill="white"/>
</clipPath>
<clipPath id="clip1_12439_25991">
<rect width="431" height="418" fill="white" transform="translate(29 34)"/>
</clipPath>
</defs>
</svg>
