<?xml version="1.0" encoding="UTF-8"?> <svg xmlns="http://www.w3.org/2000/svg" id="_Слой_1" data-name="Слой_1" version="1.1" viewBox="0 0 512 512"><defs><style> .st0 { fill: #fff; } .st1 { fill: #f26522; } </style></defs><circle class="st1" cx="256" cy="256" r="256"></circle><g><path class="st0" d="M261.09,308.35v-57.58c0-6.49-.9-12.72-2.69-18.69-1.79-5.96-4.46-11.25-8-15.85-3.54-4.61-7.95-8.26-13.23-10.98-5.28-2.71-11.46-4.07-18.54-4.07s-12.99,1.24-18.32,3.71c-5.33,2.47-9.82,5.89-13.45,10.25-3.64,4.36-6.4,9.57-8.29,15.63-1.89,6.06-2.84,12.67-2.84,19.85v27.34h-6.25v30.39h38.1v-56.71c0-4.07.19-7.39.58-9.96.39-2.57,1.02-4.58,1.89-6.04.87-1.45,1.96-2.42,3.27-2.91,1.31-.48,2.88-.73,4.73-.73,1.74,0,3.27.24,4.58.73,1.31.49,2.4,1.45,3.27,2.91.87,1.45,1.5,3.47,1.89,6.04.39,2.57.58,5.89.58,9.96v56.71h32.72Z"></path><path class="st0" d="M152.03,217.39c-4.94-4.99-10.76-8.94-17.45-11.85-6.69-2.91-13.81-4.36-21.38-4.36s-14.23,1.45-20.87,4.36c-6.64,2.91-12.46,6.83-17.45,11.78-4.99,4.94-8.99,10.76-12,17.45-3,6.69-4.51,13.81-4.51,21.38s1.5,14.81,4.51,21.45c3,6.64,7,12.43,12,17.38,4.99,4.94,10.81,8.82,17.45,11.63,6.64,2.81,13.6,4.22,20.87,4.22s14.69-1.43,21.38-4.29c6.69-2.86,12.51-6.74,17.45-11.63,4.94-4.89,8.85-10.61,11.71-17.16,2.86-6.54,4.29-13.55,4.29-21.01s-1.43-14.88-4.29-21.67c-2.86-6.79-6.76-12.67-11.71-17.67ZM133.12,265.74c-1.16,2.91-2.76,5.41-4.8,7.49-2.04,2.08-4.36,3.73-6.98,4.94-2.62,1.21-5.38,1.82-8.29,1.82s-5.67-.61-8.29-1.82c-2.62-1.21-4.92-2.86-6.91-4.94-1.99-2.08-3.54-4.58-4.65-7.49-1.11-2.91-1.67-6.11-1.67-9.6s.56-6.69,1.67-9.6c1.11-2.91,2.64-5.45,4.58-7.63,1.94-2.18,4.22-3.88,6.83-5.09,2.62-1.21,5.48-1.82,8.58-1.82s5.82.61,8.43,1.82c2.62,1.21,4.92,2.91,6.91,5.09,1.99,2.18,3.54,4.73,4.65,7.63,1.11,2.91,1.67,6.11,1.67,9.6s-.58,6.69-1.75,9.6Z"></path><path class="st0" d="M356.12,263.05c-1.99-4.02-4.48-7.25-7.49-9.67,2.71-2.62,4.63-5.43,5.74-8.43,1.11-3,1.67-6.11,1.67-9.31,0-10.28-3.59-18.18-10.76-23.7-7.17-5.53-17.6-8.29-31.26-8.29h-42.17v104.7h39.55c15.61,0,27.46-2.64,35.55-7.92,8.09-5.28,12.14-13.84,12.14-25.67,0-3.78-.99-7.68-2.98-11.71ZM324.64,274.18c-.39.87-1.14,1.62-2.25,2.25-1.11.63-2.67,1.11-4.65,1.45-1.99.34-4.63.51-7.93.51h-5.24v-44.79h7.56c4.27,0,7.13.53,8.58,1.6,1.45,1.07,2.18,2.57,2.18,4.51,0,1.55-.73,2.81-2.18,3.78-1.45.97-4.31,1.45-8.58,1.45h-2.33v18.61h2.33c5.43,0,8.97.73,10.62,2.18,1.65,1.45,2.47,3.3,2.47,5.53,0,1.07-.19,2.04-.58,2.91Z"></path><path class="st0" d="M376.11,300.28c3.01,2.96,6.86,5.04,11.56,6.25,4.7,1.21,10.35,1.82,16.94,1.82h49v-104.7h-32.72v74.31h-11.49c-3.49,0-5.91-.78-7.27-2.33-1.36-1.55-2.04-5.09-2.04-10.62v-61.37h-32.72v66.6c0,7.27.7,13.35,2.11,18.25,1.41,4.9,3.61,8.82,6.62,11.78Z"></path></g></svg> 