<svg id="Layer_1" data-name="Layer 1" xmlns="http://www.w3.org/2000/svg" viewBox="0 0 48 48"><defs><style>.cls-1{fill:#6299c0;fill-rule:evenodd;}</style></defs><title>logo</title><path class="cls-1" d="M4.57,34.57C.5,23.48,6.51,12.5,17.44,8l1.34,3.28a15.47,15.47,0,0,0-4.09,2.52c.39.95.78,1.9,1.16,2.85A20.12,20.12,0,0,1,20,14.47l2,4.44C14,22.22,8.87,29.69,11.07,36.78a15.41,15.41,0,0,0,20.42,8.73l.33.9A20.6,20.6,0,0,1,4.57,34.57Zm2.94-9-.89-2.2a9.49,9.49,0,0,0-.77,4.42l.72,1.78a21.28,21.28,0,0,1,.94-4Zm5.71-6.83-1.15-2.82a17.6,17.6,0,0,0-4,4.48l1,2.52a20.66,20.66,0,0,1,4.11-4.18Z" transform="translate(0 0)"/><path class="cls-1" d="M47.37,23.93,42,24.2l-.39-.38A15.37,15.37,0,0,0,42,18.68H38.5a21,21,0,0,1-.68,5.07l-6.57-.13C33.48,14.15,30.42,6.72,22.3,6c-9.69-.35-19,7.13-21.24,16.6L0,22.59C3,9.75,16.14-.3,29.17,0S50.4,11.1,47.37,23.93ZM40.18,9.36h-3a17.6,17.6,0,0,1,1.2,5.84h3.42a15,15,0,0,0-1.58-5.84ZM34.74,4.08l-2.57.11c1.95,1.48,2.12,1,3.55,2.48h2.65a7.81,7.81,0,0,0-3.63-2.59Z" transform="translate(0 0)"/><path class="cls-1" d="M13.11,29.33c6.12.65,13.25-.61,17.9-3.83,3.68.63,11.37.71,16.23.64l.38.38c-5.35,3-20.71,7.71-34.9,5.67l-.39-.38a3.69,3.69,0,0,1,.78-2.48Z" transform="translate(0 0)"/></svg>