<svg width="32" height="32" viewBox="0 0 32 32" fill="none" xmlns="http://www.w3.org/2000/svg">
    <path d="M17.3614 10.1152L16.9537 1H15.0418L14.6341 10.1152L13.6492 10.4564L7.96936 3.31314L6.40294 4.46971L11.4026 12.0207C12.9411 14.3338 17.4987 13.0077 17.3614 10.1152Z" fill="#FF7377" style="fill:#FF7377;fill:color(display-p3 1.0000 0.4510 0.4667);fill-opacity:1;"/>
    <path d="M22.0221 15.4904L30.5258 12.2932L29.9464 10.4564L21.2045 12.9048L20.5608 12.0464L25.5561 4.40105L24.0541 3.31315L18.3742 10.4221C16.7156 12.5314 19.2669 16.544 22.0221 15.4904Z" fill="#FF7377" style="fill:#FF7377;fill:color(display-p3 1.0000 0.4510 0.4667);fill-opacity:1;"/>
    <path d="M11.4434 20.0136L6.37727 27.5646L7.94154 28.7212L13.6214 21.5779L14.6406 21.9169L15.0483 31H16.9538L17.3615 21.9169C17.4988 18.9923 13.042 17.5975 11.4434 20.0136Z" fill="#FF7377" style="fill:#FF7377;fill:color(display-p3 1.0000 0.4510 0.4667);fill-opacity:1;"/>
    <path d="M10.7975 12.9047L2.02345 10.4564L1.44409 12.2932L9.98212 15.4904L9.94779 16.5439L1.44409 19.7068L2.02345 21.5436L10.8318 19.1296C13.6214 18.3807 13.587 13.6879 10.7975 12.9047Z" fill="#FF7377" style="fill:#FF7377;fill:color(display-p3 1.0000 0.4510 0.4667);fill-opacity:1;"/>
    <path d="M18.3829 21.6123L24.0627 28.6934L25.627 27.5368L20.5587 19.9858L21.2024 19.1275L29.9786 21.5415L30.5558 19.7047L22.02 16.5419C19.2669 15.5248 16.5439 19.2949 18.3829 21.6123Z" fill="#FF7377" style="fill:#FF7377;fill:color(display-p3 1.0000 0.4510 0.4667);fill-opacity:1;"/>
</svg>
