<svg width="512" height="512" viewBox="0 0 512 512" fill="none" xmlns="http://www.w3.org/2000/svg">
<rect width="512" height="512" fill="#E7482A"/>
<path d="M123.064 512C121.438 512 117.071 511.814 117.071 511.814V506.564L118.093 506.425C185.509 498.619 242.797 465.724 271.417 418.518C286.889 392.964 291.35 366.899 283.637 346.92C272.207 317.231 239.591 306.498 205.07 295.162C159.072 280.061 106.895 262.917 99.0434 195.454C90.5408 122.323 133.936 66.8007 231.692 25.6818C274.995 8.21205 329.355 0.778119 355.374 0.034726C360.438 -0.10466 374.098 0.220574 374.098 0.220574V6.6788L373.123 6.81818C308.262 16.6681 250.463 47.8442 222.307 88.1732C207.625 109.221 202.049 131.151 206.185 151.547C212.364 181.794 247.768 188.903 288.748 197.127C334.606 206.326 386.597 216.734 405.739 264.079C436.637 340.323 384.738 411.41 325.871 452.482C276.528 486.91 195.359 511.907 132.914 511.907C131.241 511.907 129.569 511.907 127.943 511.954C126.316 511.954 124.69 512 123.064 512Z" fill="white"/>
</svg>
