<svg xmlns="http://www.w3.org/2000/svg" version="1.1" xmlns:xlink="http://www.w3.org/1999/xlink" width="1000" height="1000"><g clip-path="url(#SvgjsClipPath1041)"><rect width="1000" height="1000" fill="#ffffff"></rect><g transform="matrix(8.333333333333334,0,0,8.333333333333334,-5.684341886080802e-14,-5.684341886080802e-14)"><svg xmlns="http://www.w3.org/2000/svg" version="1.1" xmlns:xlink="http://www.w3.org/1999/xlink" width="120" height="120"><svg xmlns="http://www.w3.org/2000/svg" fill="none" viewBox="0 0 120 120"><path fill="#DC1E0A" d="m40.82 83-1.538-5.786H26.327L24.788 83H11l14.301-45h15.007l14.301 45H40.821ZM29.086 66.929h7.44l-3.72-13.822-3.72 13.822ZM104 38v45H91.174V61.079L81.169 77.92h-1.154L70.011 61.08V83H57.184V38h12.827l10.581 18.321L91.174 38H104Z"></path><path fill="#0A0ADC" d="M104 38v45H91.174V61.079L81.17 77.92h-1.155L70.011 61.08V83H57.185V38H70.01l10.581 18.321L91.174 38H104Z"></path></svg></svg></g></g><defs><clipPath id="SvgjsClipPath1041"><rect width="1000" height="1000" x="0" y="0" rx="250" ry="250"></rect></clipPath></defs></svg>