<svg width="16" height="16" viewBox="0 0 16 16" fill="none" xmlns="http://www.w3.org/2000/svg">
<circle cx="8" cy="8" r="8" fill="white"/>
<path fill-rule="evenodd" clip-rule="evenodd" d="M5.46675 15.4577C5.43633 15.5531 5.33355 15.6047 5.23958 15.5707C2.18147 14.4647 0 11.5638 0 8.08087C0 3.61793 3.58172 0 8 0C12.4183 0 16 3.61793 16 8.08087C16 12.2268 12.9091 15.5479 8.92794 15.9989C8.8124 16.0119 8.71729 15.9108 8.73529 15.7955C8.74997 15.7016 8.7667 15.5969 8.78572 15.4806C9.06662 13.7614 9.13445 12.0134 8.98765 10.2772C8.98765 10.2772 8.96775 10.0762 8.90111 9.55273C8.88395 9.41795 8.89664 9.35435 9.00207 9.30476C9.31313 9.19893 9.62782 9.10718 9.93574 8.991C10.895 8.66505 11.5815 7.82014 11.2473 6.76844C11.1804 6.55782 10.7803 6.47671 10.5405 6.4875C10.159 6.50369 10.1107 6.09439 10.4396 6.05311C10.5414 6.04042 10.8091 6.1526 10.8091 6.09308C10.8091 5.30883 8.03404 5.74103 7.58478 5.81987C7.34832 5.85374 7.12078 5.9344 6.91516 6.05725C6.70954 6.1801 6.52988 6.34273 6.38645 6.53584C6.24303 6.72896 6.13864 6.94876 6.07926 7.18269C6.01989 7.41662 6.00669 7.6601 6.04042 7.89919C6.04857 7.95612 6.06308 8.03144 6.07447 8.09062C6.27161 9.11443 6.26691 10.2043 6.19129 11.2392C6.10316 12.3738 5.83156 13.892 5.67059 14.7301C5.63547 14.9129 5.54085 15.2252 5.46675 15.4577ZM5.85969 4.01493C5.88812 4.54441 5.95907 5.07068 6.07186 5.58853C6.12624 5.88712 6.05975 6.25222 5.63626 6.36323C5.16532 6.48678 4.98185 5.99608 4.91074 5.736C4.74686 5.22401 4.69407 4.68231 4.75597 4.14782C4.8428 3.53182 5.05281 3.042 5.38456 2.96907C5.72901 2.89307 5.84959 3.39456 5.85969 4.01493ZM6.95893 3.45889C7.20731 2.9803 7.42915 2.66392 7.71215 2.71497V2.7157C7.99586 2.7669 8.07851 3.23659 7.95519 3.65668C7.85794 4.07108 7.78569 4.49107 7.73883 4.91434C7.7162 5.2166 7.42423 5.44162 7.13 5.38344C6.84758 5.33239 6.67882 5.14583 6.67449 4.77329C6.66372 4.31843 6.76128 3.86762 6.95893 3.45889Z" fill="#3A64F8"/>
<path d="M7.75844 6.78691C7.6898 6.74068 7.60913 6.71608 7.52665 6.71622V6.71695C7.41632 6.71706 7.31055 6.76144 7.23253 6.84033C7.15452 6.91923 7.11064 7.0262 7.11053 7.13777C7.11053 7.22118 7.13499 7.30271 7.18083 7.37205C7.22666 7.44139 7.29181 7.49542 7.36802 7.52731C7.44423 7.55919 7.52809 7.5675 7.60897 7.55117C7.68985 7.53485 7.76412 7.49463 7.82239 7.4356C7.88066 7.37657 7.9203 7.30138 7.93631 7.21956C7.95231 7.13774 7.94395 7.05296 7.91229 6.97594C7.88063 6.89893 7.82709 6.83314 7.75844 6.78691Z" fill="#3A64F8"/>
<circle cx="7.46667" cy="7.2" r="0.533333" fill="#3A64F8"/>
</svg>
