<svg width="120" height="120" viewBox="0 0 120 120" fill="none" xmlns="http://www.w3.org/2000/svg">
<path d="M0 20C0 8.95431 8.95431 0 20 0H100C111.046 0 120 8.95431 120 20V100C120 111.046 111.046 120 100 120H20C8.95431 120 0 111.046 0 100V20Z" fill="white"/>
<path fill-rule="evenodd" clip-rule="evenodd" d="M100 4H20C11.1634 4 4 11.1634 4 20V100C4 108.837 11.1634 116 20 116H100C108.837 116 116 108.837 116 100V20C116 11.1634 108.837 4 100 4ZM20 0C8.95431 0 0 8.95431 0 20V100C0 111.046 8.95431 120 20 120H100C111.046 120 120 111.046 120 100V20C120 8.95431 111.046 0 100 0H20Z" fill="#0096B8"/>
<path fill-rule="evenodd" clip-rule="evenodd" d="M35.858 23.222C34.2026 23.6227 32.5501 24.8907 31.6625 26.4415C30.9275 27.7257 30.7936 28.6752 30.7913 32.6215L30.7891 36.1742H29.4046C26.8844 36.1742 25.4103 36.7087 23.967 38.1456C23.009 39.0994 22.4302 40.1498 22.1633 41.419C22.0592 41.9144 22 44.2879 22 47.9752V53.755H26.3945H30.7891V70.7498V87.7445H32.2539H33.7188V89.8617C33.7188 93.1626 34.139 94.4775 35.6898 96.0286C37.2462 97.5852 38.5524 98 41.8983 98C45.0322 98 46.2259 97.6308 47.748 96.1912C49.4046 94.6241 49.832 93.37 49.832 90.0756V87.7445H59.5H69.168V90.062C69.168 93.1899 69.5154 94.3576 70.8805 95.8172C72.4557 97.5013 73.8774 98 77.1043 98C78.2904 98 79.6103 97.9265 80.0373 97.8365C81.9082 97.4424 83.5719 96.1905 84.4396 94.5241C85.132 93.1939 85.2812 92.367 85.2812 89.8617V87.7445H86.7461H88.2109V70.7498V53.755H92.6055H97V47.9752C97 44.2205 96.9418 41.9235 96.8339 41.419C96.5638 40.157 95.9803 39.0975 95.0289 38.1415C93.5973 36.7031 92.1364 36.1742 89.5954 36.1742H88.2109L88.2087 32.6215C88.2064 28.6747 88.0725 27.7261 87.337 26.4402C86.3994 24.8012 84.5668 23.4644 82.8077 23.1359C82.2987 23.041 73.9806 22.9931 59.3702 23.0008C40.2881 23.0112 36.5857 23.0459 35.858 23.222ZM82.7346 27.7592C83.5921 28.3996 83.7392 28.7559 83.7936 30.3242L83.8438 31.779H59.5138H35.1836V30.5433C35.1836 29.201 35.3226 28.6716 35.816 28.1344C36.5315 27.355 35.3022 27.3915 59.6724 27.4255C82.3037 27.4571 82.3306 27.4574 82.7346 27.7592ZM83.8164 48.9041V61.6337L83.3403 61.7221C81.5412 62.0558 75.3941 62.7236 70.2666 63.1423C67.2326 63.39 55.4896 63.4841 51.7363 63.2906C46.6368 63.0277 40.6858 62.4613 36.7583 61.8649L35.1836 61.6258V48.8999V36.1742H59.5H83.8164V48.9041ZM30.7891 44.9646V49.3598H28.5918H26.3945L26.4007 45.807C26.4076 41.784 26.4603 41.5509 27.5068 40.9174C27.9988 40.6195 28.2692 40.5709 29.4341 40.5702L30.7891 40.5694V44.9646ZM91.4374 40.8644C91.8096 41.0542 92.1208 41.3654 92.3106 41.7377C92.5819 42.2696 92.6055 42.5971 92.6055 45.8378V49.3598H90.4082H88.2109V44.9646V40.5694H89.5352C90.5731 40.5694 90.9842 40.6332 91.4374 40.8644ZM37.6006 66.4227C41.7899 66.9893 46.7261 67.4348 51.5898 67.6856C55.8925 67.9074 67.4792 67.7776 71.3652 67.4639C76.0448 67.0864 82.8266 66.3382 83.5601 66.1186C83.8001 66.0468 83.8164 66.313 83.8164 70.3005V74.559H79.4219H75.0273V76.7566V78.9542H79.4219H83.8164V81.1518V83.3493H76.8584H69.9004V78.9542V74.559H59.5H49.0996V78.9542V83.3493H42.1416H35.1836V81.1518V78.9542H39.5781H43.9727V76.7566V74.559H39.5781H35.1836V70.3139V66.0689L35.5864 66.1369C35.8081 66.1742 36.7144 66.3029 37.6006 66.4227ZM65.4732 81.1151L65.4326 83.2761H59.5H53.5674L53.5268 81.1151L53.4864 78.9542H59.5H65.5136L65.4732 81.1151ZM45.4375 89.9205C45.4375 91.9362 45.4132 92.132 45.1079 92.5794C44.5154 93.4476 44.008 93.6048 41.7977 93.6048C40.0385 93.6048 39.7778 93.5711 39.2534 93.2763C38.2857 92.7324 38.1133 92.207 38.1133 89.8015V87.7445H41.7754H45.4375V89.9205ZM80.8867 89.8015C80.8867 93.1902 80.484 93.605 77.1938 93.6045C74.9821 93.6044 74.4637 93.4456 73.895 92.5942C73.5865 92.1324 73.5625 91.9387 73.5625 89.9205V87.7445H77.2246H80.8867V89.8015Z" fill="#0096B8"/>
</svg>
