<svg xmlns="http://www.w3.org/2000/svg" version="1.1" xmlns:xlink="http://www.w3.org/1999/xlink" xmlns:svgjs="http://svgjs.dev/svgjs" width="495" height="529"><svg width="495" height="529" viewBox="0 0 495 529" fill="none" xmlns="http://www.w3.org/2000/svg">
<mask id="SvgjsMask1024" style="mask-type:luminance" maskUnits="userSpaceOnUse" x="0" y="0" width="495" height="529">
<path d="M495 0H0V529H495V0Z" fill="white"></path>
</mask>
<g mask="url(#mask0_1232_6)">
<path d="M382.098 269.5C377.951 269.5 374.634 271.158 372.976 274.475C354.732 301.837 333.171 326.712 309.122 349.099C306.634 350.757 305.805 354.074 304.976 356.561C304.976 364.853 302.488 373.144 299.171 381.436C296.683 385.582 297.512 391.386 301.659 395.531L337.317 430.356C339.805 432.843 342.293 433.672 345.61 433.672H346.439C349.756 433.672 353.073 432.014 354.732 429.527C389.561 387.24 403.659 332.516 393.707 278.621C392.878 273.646 389.561 270.329 384.585 269.5C383.756 269.5 382.927 269.5 382.098 269.5Z" fill="#50C6DC"></path>
<path d="M80.2439 189.072C76.0976 189.072 72.7805 190.73 71.122 193.218C46.2439 222.238 31.3171 257.892 28 295.204C28 298.52 28.8293 301.008 31.3171 303.495C33.8049 305.983 36.2927 306.812 39.6098 307.641H139.122C144.927 307.641 149.073 303.495 150.732 298.52C152.39 291.058 155.707 283.596 159.854 276.962C163.171 271.987 162.341 266.183 159.024 262.038L88.5366 192.389C86.0488 189.901 83.561 189.072 80.2439 189.072Z" fill="#50C6DC"></path>
<path d="M193.024 128.544H191.366C155.707 132.69 122.537 146.785 95.1708 169.172C92.683 170.831 91.0244 174.147 91.0244 177.464C91.0244 180.781 91.8537 184.097 94.3415 186.585L164.829 257.063C168.976 261.208 174.781 261.208 178.927 258.721C183.902 255.404 189.707 252.917 195.512 251.259C200.488 249.6 203.805 245.455 203.805 239.65V140.152C203.805 136.835 202.146 134.348 199.659 131.86C197.171 130.202 194.683 128.544 191.366 128.544" fill="#50C6DC"></path>
<path d="M139.951 315.933H40.439C37.1219 315.933 34.6341 317.591 32.1463 320.078C30.4878 322.566 28.8292 325.053 28.8292 328.37C32.1463 367.34 47.9024 404.652 73.6097 433.672C76.0975 436.16 78.5853 437.818 81.9024 437.818C85.2195 437.818 87.7073 436.989 90.1951 434.502L159.854 364.853C164 360.707 164.829 354.074 160.683 349.928C155.707 342.466 151.561 335.003 149.902 325.882C149.073 319.249 144.927 315.933 139.951 315.933Z" fill="#50C6DC"></path>
<path d="M224.537 390.556C222.049 390.556 219.561 391.386 217.073 393.044C214.585 395.531 212.927 398.848 212.927 402.165V484.251C212.927 487.567 214.585 490.055 216.244 492.542C218.732 495.03 221.22 495.859 224.537 495.859H225.366C264.342 492.542 300.829 477.618 330.683 452.743C333.171 450.255 334.829 447.768 334.829 444.451C334.829 441.135 334 438.647 331.512 436.16L290.878 395.531C288.39 393.044 285.902 392.215 282.585 392.215H280.927C274.293 393.044 266.829 393.873 260.195 393.873C248.585 393.873 237.805 392.215 226.195 390.556H224.537Z" fill="#50C6DC"></path>
<path d="M174.781 365.682C171.463 365.682 168.976 366.511 166.488 368.998L96.8293 438.647C94.3415 441.135 93.5122 444.451 93.5122 447.768C93.5122 451.085 95.1707 454.401 97.6585 456.06C124.195 477.618 156.537 490.884 191.366 495.03H193.024C196.341 495.03 198.829 494.201 201.317 491.713C203.805 489.226 205.463 486.738 205.463 483.422V390.556C205.463 386.411 202.976 382.265 199.659 380.607C193.854 377.29 188.878 373.144 183.902 368.998C180.585 367.34 178.098 365.682 174.781 365.682Z" fill="#50C6DC"></path>
<path d="M431.854 140.981L454.244 120.252C465.024 111.132 469.171 96.2069 464.195 82.9404C458.39 67.1865 441.805 57.2367 420.244 57.2367H89.3659C75.2683 57.2367 63.6586 45.6285 63.6586 31.5329C63.6586 17.4373 75.2683 5 89.3659 5C103.463 5 115.073 16.6081 115.073 30.7038" stroke="#50C6DC" stroke-width="2" stroke-miterlimit="10" stroke-linecap="round"></path>
<path d="M436 136.006C437.659 129.373 437.659 121.911 435.171 115.277C429.366 99.5235 412.78 89.5737 391.22 89.5737H61.1707C47.0731 90.4028 35.4634 78.7947 35.4634 63.8699C35.4634 48.9451 47.0731 38.1661 61.1707 38.1661H63.6585" stroke="#50C6DC" stroke-width="2" stroke-miterlimit="10" stroke-linecap="round"></path>
<path d="M226.195 128.215H430.195C431.015 128.215 432.555 128.219 434.09 128.977C436.453 130.556 438.04 132.128 439.619 134.46L437.199 148.169L308.828 249.195C306.411 250.803 304.024 251.588 301.658 251.588H226.195C219.837 251.588 215.085 246.837 215.085 240.48V139.323C215.085 132.966 219.837 128.215 226.195 128.215Z" fill="#50C6DC" stroke="#50C6DC"></path>
<path d="M138.293 182.439C148.244 176.635 159.024 171.66 169.805 169.172" stroke="#50C6DC" stroke-width="2" stroke-miterlimit="10" stroke-linecap="round"></path>
<path d="M67.8049 274.475C71.122 261.208 76.0976 248.771 82.7318 237.163" stroke="#50C6DC" stroke-width="2" stroke-miterlimit="10" stroke-linecap="round"></path>
<path d="M85.2196 389.727C77.7562 377.29 71.9513 364.023 67.8049 349.928" stroke="#50C6DC" stroke-width="2" stroke-miterlimit="10" stroke-linecap="round"></path>
<path d="M170.634 455.23C160.683 452.743 151.561 448.597 142.439 443.622" stroke="#50C6DC" stroke-width="2" stroke-miterlimit="10" stroke-linecap="round"></path>
<path d="M286.732 441.135C275.122 448.597 262.683 453.572 248.585 456.06" stroke="#50C6DC" stroke-width="2" stroke-miterlimit="10" stroke-linecap="round"></path>
<path d="M356.39 351.586C353.902 363.194 348.927 374.803 343.122 384.752" stroke="#50C6DC" stroke-width="2" stroke-miterlimit="10" stroke-linecap="round"></path>
<path d="M251.902 162.539H301.659" stroke="#50C6DC" stroke-width="2" stroke-miterlimit="10" stroke-linecap="round"></path>
</g>
<circle cx="353.5" cy="159.5" r="15.5" fill="white"></circle>
</svg><style>@media (prefers-color-scheme: light) { :root { filter: none; } }
@media (prefers-color-scheme: dark) { :root { filter: none; } }
</style></svg>