<svg xmlns="http://www.w3.org/2000/svg" version="1.1" xmlns:xlink="http://www.w3.org/1999/xlink" width="48" height="48"><svg width="48" height="48" viewBox="0 0 48 48" fill="none" xmlns="http://www.w3.org/2000/svg">
<path d="M26.9424 1.14453L28.5889 0.395508L29.8359 1.71191L31.5654 1.17871L32.6348 2.64453L34.418 2.33984L35.292 3.93066L37.0986 3.85645L37.7627 5.54688L39.5645 5.70605L40.0088 7.4668L41.7754 7.85547L41.9912 9.66016L43.6943 10.2725L43.6777 12.0889L45.2891 12.916L45.042 14.7158L46.5352 15.7422L46.0605 17.4961L47.4092 18.7051L46.7158 20.3838L47.9014 21.7578L47 23.332L48 24.8477L46.9053 26.293L47.7031 27.9238L46.4336 29.2178L47.0195 30.9375L45.5957 32.0576L45.9561 33.8389L44.4023 34.7676L44.5332 36.5791L42.873 37.2998L42.7734 39.1152L41.0342 39.6162L40.7041 41.4033L38.916 41.6777L38.3613 43.4072L36.5527 43.4492L35.7822 45.0928L33.9844 44.9023L33.0107 46.4346L31.251 46.0146L30.0908 47.4082L28.3984 46.7656L27.0703 48L26.7998 47.8545L26.7051 47.6523L26.9316 47.2959L26.6631 46.9717L26.793 46.5703L26.4521 46.3232L26.4795 45.9023L26.0879 45.7471L26.0107 45.332L25.5938 45.2803L25.415 44.8975L24.998 44.9502L24.7314 44.624L24.3398 44.7812L24.001 44.5332L23.6611 44.7812L23.2715 44.624L23.0029 44.9502L22.5859 44.8975L22.4082 45.2803L21.9912 45.332L21.9131 45.7471L21.5215 45.9023L21.5488 46.3232L21.209 46.5703L21.3389 46.9717L21.0713 47.2959L21.2959 47.6523L21.2021 47.8535L20.9297 48L19.6006 46.7656L17.9082 47.4082L16.749 46.0146L14.9893 46.4346L14.0146 44.9023L12.2158 45.0928L11.4453 43.4492L9.6377 43.4072L9.08301 41.6777L7.29395 41.4033L6.96387 39.6162L5.22656 39.1152L5.12598 37.2998L3.4668 36.5791L3.59766 34.7676L2.04199 33.8389L2.4043 32.0576L0.980469 30.9375L1.56445 29.2178L0.294922 27.9238L1.09375 26.293L0 24.8477L1 23.332L0.0986328 21.7578L1.28223 20.3838L0.588867 18.7051L1.93945 17.4961L1.46484 15.7422L2.95703 14.7158L2.71094 12.916L4.32129 12.0889L4.30566 10.2725L6.00879 9.66016L6.22363 7.85547L7.99121 7.4668L8.43359 5.70605L10.2363 5.54688L10.9004 3.85645L12.708 3.93066L13.5811 2.33984L15.3643 2.64453L16.4326 1.17871L18.1621 1.71191L19.4092 0.395508L21.0576 1.14453L22.4609 0L24 0.955078L25.5391 0L26.9424 1.14453Z" fill="#6D9E00"></path>
<path d="M21.3199 43.8586C21.9675 42.8469 22.5412 40.5893 22.5565 38.78C22.567 37.3812 22.7649 30.2155 22.348 29.2367C21.93 28.258 20.8222 27.4992 19.013 26.7992C17.2038 26.1004 13.48 24.5616 12.0889 24.6322C10.6965 24.7016 9.44474 24.9816 8.6789 25.2616C7.91307 25.5416 7.53015 25.5592 8.50442 24.9992C9.4787 24.4392 11.0092 24.1781 11.1485 23.6181C11.2879 23.0593 10.9975 22.3475 9.88387 21.0194C8.77024 19.6912 8.67773 19.1959 9.44357 20.0347C10.2094 20.8735 12.2973 23.1463 12.9226 23.4957C13.2505 23.6793 15.9801 24.6534 16.541 24.7369C17.1113 24.8216 15.9778 22.9405 16.4602 23.3793C16.7061 23.604 17.2155 24.8698 17.6664 25.0275C18.6289 25.3651 19.3596 25.5757 20.4733 25.6686C21.7239 25.7733 22.6185 25.791 22.7122 24.9628C22.7825 24.3381 22.8797 21.9229 22.4183 21.2393C21.9417 20.5335 19.047 18.4912 17.7249 18.0018C16.4028 17.5124 15.0316 17.3548 14.0023 17.1689C12.9414 16.9771 13.2891 16.8607 14.055 16.8854C14.8641 16.9112 16.1429 17.0254 16.7518 16.8724C17.3923 16.7112 15.8466 14.9501 14.3852 12.9925C12.9238 11.035 13.4109 11.3149 14.8033 12.9231C16.1956 14.5313 17.9579 16.6501 18.7226 17.2089C19.4884 17.7677 21.7496 18.9112 22.2145 18.8653C22.69 18.8182 22.9019 18.4371 22.8726 17.703C22.8375 16.8289 22.6302 15.7501 22.0576 14.4607C21.5517 13.3219 21.7906 13.4055 22.2145 14.0149C22.6431 14.6325 23.3106 15.9524 23.7169 16.0454C24.1362 16.1419 24.3739 15.9607 25.1467 14.8901C25.9442 13.7855 27.3131 12.2232 26.3376 13.9007C25.3634 15.5783 25.0156 16.9418 25.0097 18.0371C25.0062 18.6135 24.9851 19.5876 25.3388 19.95C25.7299 20.35 26.4243 20.3288 28.9068 19.0394C31.5978 17.6406 32.6412 17.2689 33.0592 15.9395C33.4773 14.6113 33.9972 12.4361 34.1037 12.9337C34.2103 13.4372 33.1412 16.7677 34.3239 16.5571C35.5066 16.3477 40.645 15.3572 35.7045 16.7783C33.4983 17.4136 31.3694 18.6547 30.7664 19.09C30.3062 19.4229 32.2817 19.7688 31.9936 19.877C31.7149 19.9817 30.3917 19.5606 29.976 19.6347C29.5321 19.7123 29.2558 19.9182 28.7698 20.2006C27.059 21.1982 25.6081 22.044 25.3563 22.8216C25.1046 23.5993 25.2088 25.1898 25.3212 25.9768C25.4641 26.9733 27.1936 26.6662 28.641 26.2039C29.3717 25.971 29.723 24.3334 29.9923 24.1934C30.216 24.0781 29.579 25.6004 29.7663 25.7404C29.942 25.871 30.1657 25.7298 30.3928 25.6498C33.4901 24.5604 34.3251 24.304 34.8122 23.7451C35.2993 23.1863 35.2876 23.0652 35.7279 22.3005C36.2385 21.4146 36.4469 21.1935 36.1226 22.2887C35.8216 23.3028 35.6413 23.6487 36.0535 23.9322C36.4938 24.2345 38.9072 24.4216 39.255 24.6075C39.6133 24.7992 37.3181 24.6428 36.6226 24.6886C35.982 24.731 34.5464 25.0263 33.2934 25.4922C32.2407 25.8839 28.0496 27.7791 27.1398 28.4579C26.2967 29.0873 25.6854 29.4179 25.5566 30.9343C25.402 32.7508 25.5215 39.1494 25.6608 40.5482C25.7943 41.8858 26.1831 43.0751 26.826 43.9551C27.3365 44.6539 27.6 45.6198 26.3482 44.5527C25.0812 43.4751 23.0846 43.4916 21.9007 44.401C20.718 45.3104 20.6969 44.8351 21.3234 43.8563L21.3199 43.8586Z" fill="white"></path>
<path d="M7.46317 23.5558C7.33086 24.3428 8.00178 25.1134 8.58019 24.6663C9.13986 24.0616 8.20551 23.3628 7.46317 23.5558Z" fill="white"></path>
<path d="M18.8963 22.2346C17.866 21.6322 16.4317 22.1734 16.749 23.2263C17.2981 24.3357 18.7722 23.3851 18.8963 22.2346Z" fill="white"></path>
<path d="M15.1834 21.4452C14.8263 22.2981 15.3942 23.3981 16.1763 23.0816C16.9772 22.5781 16.0873 21.4722 15.1834 21.4452Z" fill="white"></path>
<path d="M20.59 23.6639C20.1193 24.4133 20.4846 25.5427 21.2726 25.3662C22.1074 25.0168 21.4388 23.8322 20.59 23.6639Z" fill="white"></path>
<path d="M19.8098 24.0522C19.2501 24.2134 18.9363 24.9299 19.4 25.191C19.9644 25.3875 20.154 24.5099 19.8098 24.0522Z" fill="white"></path>
<path d="M12.1623 19.8688C11.2631 19.9947 10.6215 21.0334 11.283 21.5393C12.112 21.9664 12.5956 20.6511 12.1623 19.8688Z" fill="white"></path>
<path d="M6.67513 27.7651C7.86942 27.6451 8.72064 26.3545 7.84366 25.6828C6.74421 25.104 6.1014 26.7522 6.67513 27.7651Z" fill="white"></path>
<path d="M15.7497 20.2323C16.9229 19.8534 17.5095 18.3594 16.4897 17.8664C15.2661 17.5159 14.9629 19.3276 15.7497 20.2323Z" fill="white"></path>
<path d="M28.3942 31.0261C29.2864 30.0791 29.0768 28.4015 27.8872 28.465C26.5793 28.7626 27.2128 30.5908 28.3942 31.0261Z" fill="white"></path>
<path d="M10.3193 15.7242C10.5008 16.8759 11.8005 17.6394 12.4035 16.7571C12.9046 15.663 11.2701 15.1195 10.3193 15.7242Z" fill="white"></path>
<path d="M7.96289 12.3078C8.35045 14.1078 10.465 15.1983 11.3397 13.7549C12.0364 11.9855 9.41009 11.2714 7.96289 12.3078Z" fill="white"></path>
<path d="M44.4307 23.944C43.9764 23.1534 42.8126 22.9605 42.6182 23.7757C42.5573 24.7169 43.9038 24.6545 44.4307 23.944Z" fill="white"></path>
<path d="M35.0648 9.78796C33.6773 10.1209 32.8683 11.7914 34.0005 12.4514C35.3821 12.9667 35.8915 10.902 35.0648 9.78796Z" fill="white"></path>
<path d="M31.6977 7.37146C29.9988 8.11614 29.3454 10.4408 30.9437 11.0231C32.8276 11.3631 33.0091 8.60672 31.6977 7.37146Z" fill="white"></path>
<path d="M37.0827 26.9368C37.4246 25.8827 36.6542 24.671 35.7631 25.1557C34.8674 25.8639 36.016 27.0356 37.0827 26.9368Z" fill="white"></path>
<path d="M34.305 29.9167C35.2897 28.6379 34.8225 26.5933 33.3636 26.8203C31.7876 27.3509 32.7934 29.5261 34.305 29.9167Z" fill="white"></path>
<path d="M14.4158 27.9473C15.5878 27.9003 16.5046 26.6803 15.6944 25.9686C14.6617 25.3333 13.924 26.9168 14.4158 27.9473Z" fill="white"></path>
<path d="M31.36 30.7837C31.812 30.1484 31.5485 29.172 30.8495 29.3084C30.099 29.5931 30.6236 30.6237 31.36 30.7837Z" fill="white"></path>
<path d="M37.1787 19.2241C36.0898 19.4382 35.4071 20.7122 36.2666 21.2616C37.325 21.7063 37.7863 20.117 37.1787 19.2241Z" fill="white"></path>
<path d="M4.55371 24.7945C5.05133 25.7921 6.45638 26.1109 6.75144 25.131C6.89429 23.9875 5.24687 23.9663 4.55371 24.7945Z" fill="white"></path>
<path d="M43.2629 28.5368C43.4105 27.431 42.4281 26.3733 41.6343 27.0157C40.8767 27.8804 42.2255 28.8286 43.2629 28.5368Z" fill="white"></path>
<path d="M37.8576 28.5791C38.7709 28.2909 39.2345 27.1344 38.4454 26.7474C37.4969 26.4674 37.2522 27.8732 37.8576 28.5791Z" fill="white"></path>
<path d="M33.4559 21.3888C33.6713 20.4982 32.9606 19.5488 32.2569 20.0041C31.5626 20.6441 32.5836 21.537 33.4559 21.3888Z" fill="white"></path>
<path d="M27.8495 23.1486C28.4712 22.4886 28.3249 21.3193 27.4959 21.364C26.585 21.571 27.0252 22.8451 27.8495 23.1486Z" fill="white"></path>
<path d="M16.6532 30.3437C18.5195 30.2519 19.9621 28.2955 18.6624 27.172C17.008 26.1744 15.8558 28.7085 16.6532 30.3437Z" fill="white"></path>
<path d="M12.5199 12.9891C13.2013 12.955 13.7282 12.2409 13.254 11.8303C12.6498 11.4656 12.2295 12.3914 12.5199 12.9891Z" fill="white"></path>
<path d="M11.8962 8.85144C11.2569 10.1361 12.0133 11.8372 13.2462 11.3878C14.5295 10.6537 13.2802 8.93026 11.8962 8.85144Z" fill="white"></path>
<path d="M20.4156 15.9336C19.6885 15.2383 18.3958 15.3983 18.4426 16.323C18.6686 17.3395 20.0772 16.8512 20.4156 15.9336Z" fill="white"></path>
<path d="M20.9427 15.2383C21.5516 15.1772 21.9918 14.5137 21.548 14.1678C20.9907 13.869 20.6558 14.7172 20.9427 15.2383Z" fill="white"></path>
<path d="M19.1017 21.0146C19.8826 20.537 20.0477 19.3582 19.2281 19.1806C18.2844 19.1406 18.3792 20.4993 19.1017 21.0146Z" fill="white"></path>
<path d="M19.999 21.5205C20.6863 21.8794 21.6699 21.47 21.4743 20.7876C21.1231 20.0759 20.1056 20.757 19.999 21.5205Z" fill="white"></path>
<path d="M6.46574 16.9878C6.18942 18.6277 7.59915 20.2547 8.81451 19.3383C9.9889 18.0889 8.02534 16.6054 6.46574 16.9878Z" fill="white"></path>
<path d="M8.70508 22.2922C9.12776 23.0593 10.2413 23.264 10.4415 22.4852C10.5164 21.5829 9.2226 21.6205 8.70508 22.2922Z" fill="white"></path>
<path d="M31.7391 28.4309C32.2718 27.7298 32.0107 26.6169 31.2157 26.7451C30.3574 27.0392 30.9136 28.2227 31.7391 28.4309Z" fill="white"></path>
<path d="M39.7936 27.3638C40.2221 26.7133 39.9247 25.7463 39.2304 25.9074C38.4904 26.2192 39.0524 27.2297 39.7936 27.3638Z" fill="white"></path>
<path d="M11.6539 18.4429C12.5637 18.7653 13.6526 18.1053 13.2603 17.3089C12.6737 16.5042 11.6059 17.4983 11.6539 18.4429Z" fill="white"></path>
<path d="M10.8745 19.1406C10.3499 18.5795 9.34413 18.6442 9.33008 19.35C9.45068 20.1324 10.5642 19.823 10.8745 19.1406Z" fill="white"></path>
<path d="M11.4088 26.1874C12.0458 26.2686 12.6617 25.6851 12.2952 25.2228C11.8011 24.7816 11.2461 25.5804 11.4088 26.1874Z" fill="white"></path>
<path d="M13.1468 26.9791C13.8482 26.5156 13.9676 25.4098 13.2124 25.2627C12.3471 25.2463 12.4712 26.5145 13.1468 26.9791Z" fill="white"></path>
<path d="M9.89114 29.3721C11.2423 28.2839 11.2739 25.9934 9.69561 25.8369C7.91822 25.971 8.41467 28.5486 9.89114 29.3721Z" fill="white"></path>
<path d="M13.1708 15.3395C12.6556 15.7795 12.6731 16.6524 13.2937 16.6807C13.988 16.5948 13.7597 15.6231 13.1708 15.3395Z" fill="white"></path>
<path d="M13.2725 14.7089C14.0581 15.056 15.0405 14.5536 14.729 13.8254C14.2466 13.076 13.269 13.8748 13.2725 14.7089Z" fill="white"></path>
<path d="M13.1586 7.37152C12.8601 7.9068 13.1469 8.64089 13.6808 8.46913C14.2429 8.17738 13.7464 7.42681 13.1586 7.37152Z" fill="white"></path>
<path d="M9.14451 9.27381C8.93141 10.1997 9.67492 11.1643 10.395 10.6773C11.1034 9.99967 10.0426 9.09969 9.14451 9.27381Z" fill="white"></path>
<path d="M7.09375 16.0301C7.45321 16.6183 8.32785 16.7383 8.45314 16.116C8.47655 15.4019 7.47077 15.4795 7.09375 16.0301Z" fill="white"></path>
<path d="M5.83691 14.2537C5.87087 15.156 6.79235 15.856 7.33212 15.2289C7.81452 14.4289 6.61672 13.8701 5.83691 14.2537Z" fill="white"></path>
<path d="M5.11816 23.231C5.57715 23.731 6.44593 23.6792 6.44945 23.0534C6.33587 22.3581 5.3781 22.6263 5.11816 23.231Z" fill="white"></path>
<path d="M5.41486 20.7005C5.37856 21.9569 6.59276 23.0134 7.40066 22.1922C8.14299 21.1276 6.53421 20.2393 5.41486 20.7005Z" fill="white"></path>
<path d="M39.2858 23.1169C38.7636 23.404 38.6231 24.1581 39.1535 24.2946C39.767 24.3451 39.7436 23.4675 39.2858 23.1169Z" fill="white"></path>
<path d="M35.1764 13.7819C35.2924 13.2678 34.8767 12.7349 34.4786 13.0078C34.0875 13.3854 34.6788 13.8807 35.1764 13.7819Z" fill="white"></path>
<path d="M33.8243 22.4041C33.2716 22.9546 33.3676 23.9558 34.0819 23.9334C34.8722 23.7734 34.5256 22.6782 33.8243 22.4041Z" fill="white"></path>
<path d="M32.846 18.8805C32.3589 18.79 31.8718 19.2041 32.1434 19.5723C32.5134 19.9299 32.9572 19.3499 32.846 18.8805Z" fill="white"></path>
<path d="M37.2317 22.4134C37.3359 21.9511 36.9624 21.4723 36.6053 21.717C36.254 22.057 36.7856 22.5028 37.2317 22.4134Z" fill="white"></path>
<path d="M44.5484 26.8403C44.3927 26.3098 43.7417 26.0321 43.5157 26.4874C43.3495 27.0344 44.1433 27.1862 44.5484 26.8403Z" fill="white"></path>
<path d="M35.4002 15.1289C34.8511 15.2066 34.4823 15.8183 34.8991 16.1112C35.4166 16.3583 35.6836 15.5854 35.4002 15.1289Z" fill="white"></path>
<path d="M24.4942 13.4337C24.1055 13.9619 24.3127 14.7807 24.9028 14.6701C25.5386 14.436 25.1112 13.5714 24.4942 13.4337Z" fill="white"></path>
<path d="M28.3951 11.9349C27.5591 11.5891 26.5381 12.1432 26.8835 12.902C27.4104 13.6784 28.4185 12.8114 28.3951 11.9349Z" fill="white"></path>
<path d="M23.534 12.8513C22.7378 12.8995 22.1371 13.7348 22.7026 14.2042C23.418 14.6183 23.8887 13.5395 23.534 12.8513Z" fill="white"></path>
<path d="M37.8437 22.9075C37.1389 22.6723 36.3321 23.1852 36.6588 23.7875C37.1342 24.3946 37.9128 23.6263 37.8437 22.9075Z" fill="white"></path>
<path d="M34.5098 21.1676C34.7217 21.8546 35.5729 22.2005 35.8598 21.6064C36.0659 20.8923 35.0308 20.7111 34.5098 21.1676Z" fill="white"></path>
<path d="M31.0809 22.2499C30.0997 22.2958 29.348 23.3122 30.0353 23.8992C30.9088 24.4204 31.5048 23.1016 31.0809 22.2499Z" fill="white"></path>
<path d="M27.7449 14.4877C27.6746 13.863 26.999 13.4242 26.656 13.8889C26.3632 14.4689 27.2227 14.7948 27.7449 14.4877Z" fill="white"></path>
<path d="M23.8736 14.5595C23.4006 14.6148 23.0634 15.1395 23.41 15.4054C23.8455 15.6324 24.1008 14.9642 23.8736 14.5595Z" fill="white"></path>
<path d="M37.2595 14.5242C36.8427 15.0513 37.0253 15.8677 37.633 15.7571C38.2899 15.523 37.8847 14.6619 37.2595 14.5242Z" fill="white"></path>
<path d="M13.0955 21.8687C12.6517 21.484 11.9105 21.6146 11.9691 22.1523C12.1342 22.7381 12.9315 22.4134 13.0955 21.8687Z" fill="white"></path>
<path d="M29.7584 28.6603C29.8275 28.0839 29.3146 27.5486 28.9095 27.8957C28.5243 28.3568 29.2268 28.8286 29.7584 28.6603Z" fill="white"></path>
<path d="M17.6875 19.2594C18.1383 19.4935 18.7354 19.2336 18.5797 18.7924C18.3233 18.3324 17.7168 18.7677 17.6875 19.2594Z" fill="white"></path>
<path d="M7.94847 21.0288C8.59011 21.0759 9.15915 20.4712 8.75637 20.0359C8.22831 19.6288 7.73771 20.4406 7.94847 21.0288Z" fill="white"></path>
<path d="M3.5498 27.6956C4.2898 28.0933 5.28504 27.6768 5.03564 26.9439C4.62115 26.1768 3.60952 26.8827 3.5498 27.6956Z" fill="white"></path>
<path d="M18.4401 14.3254C17.6614 14.4172 17.1193 15.2689 17.6989 15.6983C18.4237 16.0642 18.8253 14.9807 18.4401 14.3254Z" fill="white"></path>
<path d="M28.3956 16.623C27.3547 17.1806 27.0561 18.6888 28.0993 18.9782C29.3112 19.0994 29.2889 17.3406 28.3956 16.623Z" fill="white"></path>
<path d="M37.956 10.1161C36.8776 9.90197 35.7758 10.8114 36.3589 11.6396C37.1621 12.4454 38.1796 11.1643 37.956 10.1161Z" fill="white"></path>
<path d="M40.5061 13.0631C39.2298 12.809 37.9267 13.8855 38.6175 14.8654C39.5682 15.8195 40.7707 14.3031 40.5061 13.0631Z" fill="white"></path>
<path d="M40.1591 11.1913C39.5269 10.8455 38.6616 11.1972 38.8653 11.829C39.2107 12.4901 40.0947 11.889 40.1591 11.1913Z" fill="white"></path>
<path d="M34.0705 7.10327C33.2193 7.33738 32.7521 8.38794 33.4664 8.77263C34.3316 9.06321 34.6045 7.77619 34.0705 7.10327Z" fill="white"></path>
<path d="M29.0298 11.3243C28.7441 12.6208 29.8037 13.9748 30.8083 13.2937C31.7942 12.3455 30.2884 11.0832 29.0298 11.3243Z" fill="white"></path>
<path d="M42.7486 16.5324C42.1093 16.0501 41.1012 16.2971 41.223 17.0242C41.497 17.8077 42.566 17.2901 42.7486 16.5324Z" fill="white"></path>
<path d="M40.7826 22.7005C40.5753 21.9852 39.6901 21.6052 39.3775 22.2134C39.1469 22.9475 40.2276 23.1605 40.7826 22.7005Z" fill="white"></path>
<path d="M30.1456 15.8125C30.0577 16.796 30.9663 17.6936 31.6431 17.0948C32.2801 16.3007 31.0506 15.5148 30.1456 15.8125Z" fill="white"></path>
<path d="M31.9454 14.9854C31.5438 15.5312 31.7569 16.3841 32.3669 16.2771C33.0237 16.0406 32.5823 15.1359 31.9454 14.9854Z" fill="white"></path>
<path d="M26.6432 18.2806C26.3247 18.8135 26.594 19.5723 27.1408 19.4194C27.7192 19.1464 27.238 18.3606 26.6432 18.2806Z" fill="white"></path>
<path d="M30.5951 21.3123C31.129 20.9159 31.1723 20.0512 30.5693 19.9747C29.8855 20.0053 30.0401 20.9853 30.5951 21.3123Z" fill="white"></path>
<path d="M28.9702 21.4957C28.996 21.0169 28.5382 20.5969 28.2197 20.8993C27.9235 21.2957 28.5347 21.6569 28.9702 21.4957Z" fill="white"></path>
<path d="M27.2237 16.5171C26.6465 15.863 25.5306 15.9089 25.5107 16.7101C25.6384 17.6042 26.8748 17.2853 27.2237 16.5171Z" fill="white"></path>
<path d="M27.6609 24.3393C26.6481 24.584 26.0685 25.7945 26.901 26.2675C27.915 26.6345 28.2732 25.1416 27.6609 24.3393Z" fill="white"></path>
<path d="M32.5138 23.3169C32.2714 23.8451 32.6028 24.5357 33.0981 24.3451C33.6097 24.038 33.0781 23.3416 32.5138 23.3169Z" fill="white"></path>
<path d="M34.4921 18.8511C35.1783 18.5876 35.4745 17.6865 34.8492 17.4324C34.1069 17.2677 33.991 18.3453 34.4921 18.8511Z" fill="white"></path>
<path d="M36.7947 18.6582C37.1472 17.7582 36.5418 16.6747 35.7445 17.0571C34.9295 17.6335 35.8651 18.6982 36.7947 18.6582Z" fill="white"></path>
<path d="M28.7147 23.5322C28.669 24.1087 29.2017 24.6228 29.5916 24.2651C29.9581 23.7934 29.2392 23.3475 28.7147 23.5322Z" fill="white"></path>
<path d="M15.4485 11.342C14.8244 11.1491 14.1254 11.6173 14.4251 12.1396C14.856 12.6631 15.5234 11.9714 15.4485 11.342Z" fill="white"></path>
<path d="M21.3359 16.8489C20.7645 17.3489 20.7949 18.3253 21.4904 18.35C22.2667 18.2453 21.9998 17.1606 21.3359 16.8489Z" fill="white"></path>
<path d="M14.2282 21.8676C13.4074 22.1781 13.0479 23.251 13.7926 23.5593C14.6778 23.7604 14.823 22.4746 14.2282 21.8676Z" fill="white"></path>
<path d="M34.4863 26.5862C35.0554 26.4086 35.3423 25.6945 34.8481 25.4557C34.2557 25.2839 34.1058 26.151 34.4863 26.5862Z" fill="white"></path>
<path d="M36.3092 30.4414C36.9134 29.8556 36.8244 28.7768 36.0528 28.7897C35.1992 28.9509 35.5575 30.1356 36.3092 30.4414Z" fill="white"></path>
<path d="M14.2085 18.6253C14.5645 18.1806 14.4122 17.4288 13.8959 17.4818C13.3362 17.643 13.6769 18.4523 14.2085 18.6253Z" fill="white"></path>
<path d="M3.69824 19.0712C3.9453 19.8911 4.9581 20.3111 5.30351 19.6041C5.55408 18.7547 4.32232 18.53 3.69824 19.0712Z" fill="white"></path>
<path d="M17.5357 12.0502C16.3379 11.7643 15.0979 12.7196 15.736 13.6596C16.6189 14.5866 17.7698 13.2172 17.5357 12.0502Z" fill="white"></path>
<path d="M18.7372 9.56561C17.7549 10.0303 17.4235 11.375 18.3778 11.6703C19.4948 11.8208 19.5369 10.2409 18.7372 9.56561Z" fill="white"></path>
<path d="M15.7656 7.27039C14.6345 8.58917 15.0198 10.7656 16.6028 10.5738C18.3275 10.0656 17.3697 7.73272 15.7656 7.27039Z" fill="white"></path>
<path d="M20.2519 30.0131C21.1651 29.4943 21.3946 28.1602 20.4579 27.9332C19.3749 27.8579 19.4381 29.4049 20.2519 30.0131Z" fill="white"></path>
<path d="M12.8901 30.0438C13.6957 29.5873 13.8982 28.4097 13.0716 28.2097C12.1162 28.1438 12.1724 29.5085 12.8901 30.0438Z" fill="white"></path>
<path d="M19.8353 12.1937C19.8142 13.2349 20.827 14.1031 21.4909 13.4172C22.0998 12.5302 20.7591 11.8043 19.8353 12.1937Z" fill="white"></path>
<path d="M40.1046 16.0983C39.5812 15.2842 38.3073 15.1324 38.1246 16.0007C38.0906 16.9959 39.5566 16.8712 40.1046 16.0983Z" fill="white"></path>
<path d="M31.9531 12.7396C32.3208 13.529 33.4003 13.8031 33.6462 13.0419C33.7762 12.1502 32.5034 12.1043 31.9531 12.7396Z" fill="white"></path>
<path d="M42.8342 25.5216C42.3015 23.9428 40.3063 23.1911 39.6787 24.5875C39.2443 26.2557 41.654 26.6133 42.8342 25.5216Z" fill="white"></path>
<path d="M41.1807 18.37C40.2861 17.5512 38.7476 17.7783 38.8378 18.8924C39.1469 20.1112 40.8107 19.4853 41.1807 18.37Z" fill="white"></path>
<path d="M43.1619 20.5429C42.2967 19.3253 40.387 19.1994 40.209 20.5629C40.2664 22.1099 42.4301 21.7888 43.1619 20.5429Z" fill="white"></path>
<path d="M23.5743 3.25163L23.0638 2.96105L22.709 3.43044L22.1505 3.24927L21.8964 3.78102L21.3133 3.71632L21.1716 4.28807L20.5874 4.34218L20.5628 4.93157L20.0008 5.10333L20.0944 5.68567L19.5792 5.96684L19.7877 6.51858L19.3392 6.89857L19.6542 7.3962L19.29 7.85972L19.6987 8.28324L19.4352 8.81028L19.92 9.14321L19.7678 9.7126L20.3099 9.93965L20.2747 10.529L20.8508 10.642L20.9339 11.2267L21.5217 11.2208L21.7196 11.7761L22.2945 11.6514L22.6001 12.1549L23.1375 11.9172L23.538 12.349L24.0169 12.0078L24.4957 12.349L24.8962 11.9172L25.4336 12.1549L25.7392 11.6514L26.3129 11.7761L26.512 11.2208L27.0986 11.2267L27.1829 10.642L27.759 10.529L27.7238 9.93965L28.2648 9.7126L28.1126 9.14321L28.5973 8.81028L28.335 8.28324L28.7425 7.85972L28.3795 7.3962L28.6945 6.89857L28.2449 6.51858L28.4545 5.96684L27.9381 5.68567L28.033 5.10333L27.4709 4.93157L27.4463 4.34218L26.8621 4.28807L26.7204 3.71632L26.1361 3.78102L25.8832 3.24927L25.3247 3.43044L24.9688 2.96105L24.4583 3.25163L24.0169 2.8634L23.5743 3.25163Z" fill="white"></path>
</svg><style>@media (prefers-color-scheme: light) { :root { filter: none; } }
@media (prefers-color-scheme: dark) { :root { filter: none; } }
</style></svg>