<?xml version="1.0" encoding="UTF-8"?>
<!DOCTYPE svg PUBLIC "-//W3C//DTD SVG 1.0//EN" "http://www.w3.org/TR/2001/REC-SVG-20010904/DTD/svg10.dtd">
<!-- Creator: CorelDRAW 2019 (64-Bit) -->
<svg xmlns="http://www.w3.org/2000/svg" xml:space="preserve" width="1204px" height="1204px" version="1.0" shape-rendering="geometricPrecision" text-rendering="geometricPrecision" image-rendering="optimizeQuality" fill-rule="evenodd" clip-rule="evenodd"
viewBox="0 0 1202.32 1202.32"
 xmlns:xlink="http://www.w3.org/1999/xlink"
 xmlns:xodm="http://www.corel.com/coreldraw/odm/2003">
 <g id="Слой_x0020_1">
  <metadata id="CorelCorpID_0Corel-Layer"/>
  <g id="_1936007303008">
   <circle fill="#FEFEFE" stroke="#0099FF" stroke-width="7.37" stroke-miterlimit="22.9256" cx="601.16" cy="601.16" r="572.63"/>
   <path fill="#016CB2" d="M1026.25 1026.21c-108.82,108.78 -259.08,176.11 -425.09,176.11 -165.98,0 -316.28,-67.33 -425.09,-176.11 -108.78,-108.78 -176.07,-259.08 -176.07,-425.05 0,-166.01 67.29,-316.31 176.07,-425.09 108.81,-108.78 259.11,-176.07 425.09,-176.07 166.01,0 316.27,67.29 425.09,176.07 108.77,108.78 176.07,259.08 176.07,425.09 0,165.98 -67.3,316.27 -176.07,425.05z"/>
   <path fill="#FEFEFE" d="M601.16 1112.39c141.17,0 269,-57.24 361.51,-149.72 92.52,-92.51 149.75,-220.35 149.75,-361.51 0,-141.2 -57.23,-269 -149.75,-361.52 -92.51,-92.51 -220.34,-149.74 -361.51,-149.74 -141.2,0 -269,57.23 -361.52,149.74 -92.51,92.52 -149.74,220.32 -149.74,361.52 0,141.16 57.23,269 149.74,361.51 92.52,92.48 220.32,149.72 361.52,149.72z"/>
   <g>
    <path fill="#016CB2" d="M435.11 337.57c145.55,0 263.56,118.01 263.56,263.59 0,145.54 -118.01,263.55 -263.56,263.55 -145.57,0 -263.59,-118.01 -263.59,-263.55 0,-145.58 118.02,-263.59 263.59,-263.59zm57.55 130.79l0 265.56c51.27,-22.26 87.1,-73.33 87.1,-132.8 0,-59.43 -35.83,-110.5 -87.1,-132.76zm-115.12 265.56l0 -265.56c-51.24,22.26 -87.11,73.33 -87.11,132.76 0,59.47 35.87,110.54 87.11,132.8z"/>
    <path fill="#016CB2" d="M640.89 369.75c37.52,-20.5 80.55,-32.18 126.31,-32.18 145.58,0 263.56,118.01 263.56,263.59 0,145.54 -117.98,263.55 -263.56,263.55 -45.75,0 -88.79,-11.68 -126.28,-32.18 30.32,-26.98 55.3,-59.82 73.19,-96.79 16.43,6.51 34.35,10.06 53.09,10.06 59.44,0 110.5,-35.83 132.76,-87.1l-160.53 0c3.52,-18.64 5.38,-37.87 5.38,-57.54 0,-19.68 -1.86,-38.91 -5.38,-57.58l160.53 0c-22.26,-51.27 -73.32,-87.11 -132.76,-87.11 -18.78,0 -36.69,3.59 -53.13,10.06 -17.85,-36.93 -42.86,-69.77 -73.18,-96.78l0 0z"/>
   </g>
  </g>
 </g>
</svg>
