<?xml version="1.0" encoding="UTF-8" standalone="no"?> <svg xmlns="http://www.w3.org/2000/svg" version="1.0" width="120.000000pt" height="120.000000pt" viewBox="0 0 120.000000 120.000000" preserveAspectRatio="xMidYMid meet"><g transform="translate(0.000000,120.000000) scale(0.100000,-0.100000)" fill="#000000" stroke="none"><path d="M492 1189 c-214 -33 -374 -159 -447 -354 -29 -75 -51 -235 -41 -288 l7 -37 589 0 588 0 7 49 c15 110 -20 272 -82 374 -70 117 -192 206 -329 241 -79 20 -213 27 -292 15z m245 -260 c66 -32 120 -91 138 -152 8 -28 15 -57 15 -64 0 -10 -57 -13 -290 -13 -234 0 -290 3 -290 13 0 7 8 36 17 63 23 67 104 147 169 168 67 22 180 15 241 -15z"></path><path d="M40 343 c0 -20 63 -113 103 -155 62 -64 141 -114 228 -145 61 -22 96 -27 204 -31 201 -7 325 34 444 144 57 52 141 163 141 186 0 4 -78 8 -173 8 l-173 0 -29 -30 c-41 -43 -107 -65 -190 -65 -84 1 -131 16 -191 61 l-44 34 -160 0 c-88 0 -160 -3 -160 -7z"></path></g></svg> 