<svg width="300" height="300" viewBox="0 0 300 300" fill="none" xmlns="http://www.w3.org/2000/svg">
<path d="M299.873 105.03C299.774 99.0606 299.361 93.1004 298.636 87.1754C298.29 84.5601 297.78 81.9691 297.109 79.4185C296.273 76.1726 294.922 73.0838 293.107 70.2716C288.856 63.1439 282.066 57.9111 274.117 55.6366C269.319 54.6631 264.371 54.7002 259.588 55.7456C254.805 56.7909 250.289 58.8217 246.324 61.7101C232.085 71.1924 219.314 82.7315 208.417 95.9565C202.531 80.4133 195.828 65.1958 188.336 50.3679C184.091 41.9697 178.731 34.1908 172.403 27.2445C169.805 24.2266 166.632 21.7644 163.069 20.0046C159.507 18.2447 155.629 17.2229 151.667 17C147.568 17.3147 143.577 18.4781 139.946 20.4173C136.316 22.3566 133.122 25.0297 130.567 28.269C123.999 35.8764 118.447 44.3141 114.051 53.3681C106.036 69.7566 99.0146 86.6178 93.0245 103.859C85.7488 97.3468 78.4731 90.9074 71.1974 85.1265C64.0074 79.27 56.341 74.0317 48.2788 69.4667C44.3955 67.3137 40.2667 65.6428 35.9829 64.4908C29.6181 62.7109 22.83 63.282 16.8477 66.1006C12.1932 68.5202 8.42266 72.3636 6.07966 77.0769C4.65762 79.8427 3.55898 82.7648 2.80558 85.7851C1.47813 91.8506 0.674829 98.02 0.404587 104.225C-0.301733 120.616 -0.0831113 137.033 1.05941 153.399C3.13161 190.853 7.79942 228.117 15.0288 264.918C15.7566 270.367 18.5446 275.324 22.8131 278.758C27.0815 282.193 32.502 283.84 37.9473 283.358H143.736C161.344 283.358 178.005 282.919 193.211 282.334C206.308 281.822 238.612 279.627 248.216 278.822C255.491 278.163 263.567 277.504 267.86 276.992C272.397 276.792 276.733 275.057 280.166 272.069C283.6 269.081 285.929 265.014 286.777 260.528C292.653 224.049 296.66 187.291 298.782 150.399C299.801 132.398 300.237 118.348 299.873 105.03ZM258.765 148.13C257.165 177.401 253.891 211.061 249.889 238.941L229.663 240.624C207.835 242.234 177.205 243.844 143.591 243.844H51.5529C46.1879 213.337 42.496 182.557 40.4938 151.643C39.7478 138.433 39.7478 125.191 40.4938 111.982C41.405 112.614 42.2794 113.298 43.1131 114.031L46.5327 116.885C53.3718 122.3 59.9928 128.154 66.4681 133.934C72.9435 139.715 79.2007 145.35 85.1668 150.253C87.4666 152.089 89.8989 153.752 92.4425 155.228C95.4663 157.214 98.9513 158.374 102.556 158.595C106.363 158.43 110.053 157.217 113.222 155.088C116.391 152.959 118.918 149.995 120.527 146.521C125.329 136.935 132.168 116.519 138.643 99.1762C141.917 90.3951 145.119 82.2724 147.956 76.4184C149 74.1187 150.242 71.9151 151.667 69.8326V69.4667L152.103 70.0521C153.64 72.3735 154.979 74.8214 156.105 77.3696C159.161 83.5164 162.58 92.005 166.073 100.932C169.565 109.86 173.348 119.299 176.259 127.641C178.668 134.254 181.436 140.727 184.553 147.033C185.953 150.135 188.118 152.826 190.843 154.849C193.568 156.873 196.763 158.162 200.123 158.595C203.523 159.024 206.976 158.578 210.157 157.298C213.339 156.018 216.145 153.946 218.312 151.277C231.336 135.91 241.668 122.007 249.889 112.421C254.036 107.738 259.857 102.103 259.857 102.103C260.075 106.786 260.002 130.715 258.765 148.13Z" fill="#FD5E53"/>
</svg>
