<svg width="120" height="120" viewBox="0 0 120 120" fill="none" xmlns="http://www.w3.org/2000/svg">
<rect width="120" height="120" rx="59" fill="white"/>
<path d="M64.8236 110.745L58.6176 117L21.8462 80.5239C10.2981 69.0688 10.0192 50.5491 21.2283 39.2525L58.1747 2L64.5885 8.35912L27.6421 45.6116C19.8559 53.4635 20.0363 66.3184 28.0522 74.2687L64.8236 110.745Z" fill="#852756"/>
<path d="M101.104 74.1762L71.047 104.479L64.6332 98.1144L94.69 67.8116C99.458 63.0053 99.3268 55.1098 94.3948 50.2215L84.066 39.9747L57.8312 66.4227L51.4174 60.0582L83.8582 27.3549L100.601 43.9608C109.071 52.3649 109.295 65.9197 101.104 74.1762Z" fill="#852756"/>
<path d="M90.638 58.9914L66.1638 83.6733C61.7403 88.1296 54.4298 88.064 49.8587 83.5311L34.3901 68.1883C29.819 63.6554 29.6987 56.3394 34.1222 51.8831L71.0521 14.6525L77.4659 21.0171L40.536 58.2532C39.5354 59.2593 39.5627 60.9106 40.5961 61.9385L56.0647 77.2813C57.0981 78.3038 58.7494 78.3202 59.75 77.3142L84.2296 52.6322L90.638 58.9914Z" fill="#B8B1A5"/>
</svg>
