<svg xmlns="http://www.w3.org/2000/svg" width="48" height="48" fill="none" viewBox="0 0 48 48"><rect width="48" height="48" fill="#fff" rx="12"/><path fill="#000" d="M27.755 36 25.002 31.525 22.308 36H19.08L23.225 29.26 19 23H22.372L25.078 27.179 27.66 23H30.888L26.729 29.463 31 36H27.755ZM41 31.436C41 34.247 38.795 36 35.903 36 33.354 36 31.21 34.648 31 31.709H33.759C33.949 32.987 35.014 33.535 36.174 33.535 37.62 33.535 38.243 32.604 38.243 31.399 38.243 30.194 37.274 29.354 35.924 29.354 34.802 29.354 34.06 29.865 33.718 30.412H31.082L31.994 23H40.662L40.372 25.484H34.171L33.925 27.936C33.925 27.936 34.575 27.2 36.549 27.2 38.928 27.2 41 28.733 41 31.436Z"/><path fill="#5faf2d" d="M31.9925 21.4918C30.5477 15.9174 25.9715 12 16.4705 12H5L6.55726 22.4354C7.72848 31.8528 11.3621 34.8824 17.7916 35.9969C17.8216 36.0006 18.0259 36.0303 18.0278 35.7944C18.0278 35.7089 17.9753 35.6365 17.9003 35.6049C13.5546 33.7902 13.058 27.8425 12.1304 21.8744L11.4127 17.1174H17.9603C23.9963 17.1174 28.6587 17.0226 31.6083 21.6422C31.6514 21.7072 31.7208 21.7555 31.8014 21.7555C31.9157 21.7555 32 21.6645 32 21.5512C32 21.5308 31.9981 21.5122 31.9925 21.4936"/></svg>