<?xml version="1.0" encoding="UTF-8"?>
<svg xmlns="http://www.w3.org/2000/svg" viewBox="0 0 64 64">
    <path fill="#ffffff" fill-rule="evenodd" d="M56.93 44.293a7.07 7.07 0 1 0 0 14.14 7.07 7.07 0 0 0 0-14.14M27.897 25.049c-6.235-1.168-9.218-2.04-9.218-4.863 0-2.336 2.399-3.312 6.198-3.312 5.066 0 10.132 2.238 14.03 6.326l8.354-9.438s-.44-.532-.971-1.018C41.905 8.29 33.943 5 24.975 5c-13.64 0-21.92 6.91-21.92 17.324 0 11.586 9.06 13.334 17.536 14.989 8.183 1.46 11.567 2.254 11.567 5.66 0 2.726-3.384 3.683-7.475 3.683-5.553 0-12.178-2.725-16.367-7.3L0 49.563c4.774 5.547 15.135 8.87 24.098 8.87 14.808 0 23.381-6.521 23.381-17.714 0-11.582-10.326-13.82-19.582-15.67"/>
</svg>