<svg xmlns="http://www.w3.org/2000/svg" version="1.1" xmlns:xlink="http://www.w3.org/1999/xlink" xmlns:svgjs="http://svgjs.com/svgjs" width="100%" height="100%"><svg width="100%" height="100%" viewBox="0 0 260 260" version="1.1" xmlns="http://www.w3.org/2000/svg" xmlns:xlink="http://www.w3.org/1999/xlink" xml:space="preserve" xmlns:serif="http://www.serif.com/" style="fill-rule:evenodd;clip-rule:evenodd;stroke-linejoin:round;stroke-miterlimit:2;">
    <g transform="matrix(1,0,0,1.02516,0,-6.67141)">
        <rect x="-8.867" y="0.576" width="271.005" height="264.553" style="fill:rgb(89,185,88);"></rect>
    </g>
    <g transform="matrix(0.702569,0,0,0.891913,95.4297,15.6205)">
        <rect x="25.009" y="21.546" width="48.394" height="192.769" style="fill:white;"></rect>
    </g>
    <g transform="matrix(-0.000289014,0.634605,-0.880668,-0.000401076,234.077,178.304)">
        <path d="M73.402,21.546L25.009,21.546L25.009,214.315L73.402,214.315C73.402,214.315 70.588,151.506 70.588,120.081C70.588,87.953 73.402,21.546 73.402,21.546Z" style="fill:white;"></path>
    </g>
    <g transform="matrix(0.702569,0,0,0.945054,27.4297,14.4755)">
        <rect x="25.009" y="21.546" width="48.394" height="192.769" style="fill:white;"></rect>
    </g>
    <g transform="matrix(0.702569,0,0,0.958216,163.43,14.1919)">
        <rect x="25.009" y="21.546" width="48.394" height="192.769" style="fill:white;"></rect>
    </g>
</svg><style>@media (prefers-color-scheme: light) { :root { filter: none; } }
</style></svg>