<?xml version="1.0" encoding="utf-8"?>
<svg xmlns:xlink="http://www.w3.org/1999/xlink" version="1.1" xmlns="http://www.w3.org/2000/svg" x="0px" y="0px"
     viewBox="0 0 120 120" style="enable-background:new 0 0 120 120;" xml:space="preserve"><style type="text/css">.st0{fill:#FFFFFF;}</style>
  <g id="XMLID_1_"><path id="XMLID_6_" class="st0" d="M40.5,113.4c-3.3,0-6.3-0.6-9-1.8c-7.3-3.1-8.4-9.1-9.1-13.1c-0.3-1.5-0.6-2.9-1.1-4.2 c-1.6-2.8-2.7-5.9-3.4-9.1l-0.1-0.5l0-0.6c-0.1-5.5,0.3-11,1.3-16.3c1.6-10.6,5.8-21,12.1-29.9c5.4-9.7,13.1-18.1,22.3-24.4 l0.4-0.2c0.7-0.4,1.4-0.9,2.2-1.3c3.9-2.4,8.7-5.3,14-5.3c1.5,0,2.9,0.2,4.3,0.7L76.4,8l1.3,2c0.4,0.7,0.8,1.4,1,2.2l2.2-1.4l2,0.2 c1.7,0.2,3.3,0.6,4.9,1.3l0.7,0.3l0.6,0.5c3.5,3,6.4,6.5,8.7,10.5c4.7,7.1,6.1,15.9,4,24.1c-1.8,9.7-5.7,19.2-11.4,27.7 c-5.7,9.4-12.8,18.2-21,25.9l-0.2,0.2l-0.2,0.2C65.5,104.5,53.2,113.4,40.5,113.4L40.5,113.4z"/>
    <path id="XMLID_3_"
          d="M70.2,12.3c0.8,0,1.6,0.1,2.4,0.4l0.2,0.3c1.8,3.1,1.6,6.9-0.4,9.9c-0.5,1.1-0.8,2.3-1.2,3.5 c-2.2,5.7-4.8,11.2-7.8,16.6l-1.3,2.8c-1.5,3.7-3.3,7.3-5.2,10.8l-3.9,6.1l-0.8,0.5C51.6,64,51,65,50.7,66 c-0.2,0.8-0.1,1.7,0.5,2.4c0.2,0.2,0.4,0.4,0.4,0.7c-0.9,3.1-2.3,6-4.2,8.7c-1.1,1.8-2.1,3.6-3,5.5l-0.5,1 c-1.2,1.4-1.5,3.4-0.9,5.1c0.5,0.4,1.1,0.6,1.7,0.6c0.4,0,0.7-0.1,1.1-0.3l1.5-1c1.7-1.2,3-3,3.6-5c0.8-1.8,1.7-3.6,2.8-5.3 c1.8-2.8,3.1-5.9,3.9-9.1c0.2-1.9,0.8-3.8,1.9-5.4l1.6-2.8l2-3.4l1.9-3.3l1.8-3.2l1.1-1.1c0.6-0.7,1.1-1.4,1.5-2.2 c0.2-0.8,0.3-1.6,0.2-2.4c-0.1-0.4,0-0.8,0-1.2c0.4-1.1,1-2.2,1.8-3.1c0.9-1.1,1.6-2.3,2.1-3.7c0.8-2.2,1.5-4.7,2.1-6.7 c0.6-2,1.2-4.1,1.9-6.1l0.8-2.4c0.2-1.8,1-3.6,2.3-4.9l1.4-0.9c1.1,0.1,2.1,0.4,3.1,0.8c3,2.5,5.5,5.6,7.5,9.1 c3.9,5.8,5.1,12.9,3.4,19.7c-1.7,9.3-5.3,18.1-10.6,26c-5.6,9.2-12.4,17.6-20.2,25c-6.3,5-16.2,10.4-24.9,10.4 c-2.3,0-4.6-0.4-6.6-1.3c-6.7-2.9-4.8-8.8-7.4-14.6c-1.4-2.4-2.4-5-3-7.8c-0.1-5.1,0.3-10.2,1.2-15.1c1.5-10.1,5.4-19.6,11.3-27.9 c5-9.1,12.1-16.9,20.7-22.7C60.6,16.1,65.6,12.3,70.2,12.3 M70.2,0.8L70.2,0.8c-6.9,0-12.7,3.6-17,6.2c-0.7,0.4-1.4,0.9-2.1,1.2 l-0.4,0.2l-0.4,0.3c-9.9,6.7-18.1,15.7-24,26.1c-6.7,9.5-11.2,20.6-12.9,32.1c-1.1,5.7-1.5,11.5-1.4,17.3l0,1.1l0.2,1.1 c0.8,3.6,2.1,7.1,3.8,10.3c0.2,0.7,0.4,1.7,0.6,2.8c0.8,4.2,2.5,13.1,12.6,17.4c3.3,1.5,7.1,2.2,11.2,2.2c14.5,0,28.2-9.9,32-12.9 l0.4-0.3l0.4-0.4c8.5-8,15.8-17.2,22-27.1c6-9,10.1-19,12.2-29.7c2.4-9.6,0.6-19.8-4.8-28.1c-2.6-4.5-5.9-8.5-9.9-11.9l-1.3-1.1 L90.1,7c-2.1-0.9-4.4-1.5-6.7-1.8l-2.1-0.2l-1.2-1.8l-3.8-1.3C74.4,1.2,72.3,0.8,70.2,0.8L70.2,0.8z"/></g></svg>
