<svg width="36" height="36" viewBox="0 0 37 36" fill="none" xmlns="http://www.w3.org/2000/svg">
    <g clip-path="url(#clip0_1229_7937)">
        <rect x=".5" width="36" height="36" rx="18" fill="#C9B7EF"/>
        <path fill-rule="evenodd" clip-rule="evenodd" d="M-4.447 13.994a8.78 8.78 0 00-6.209 10.753l5.795 21.628a8.78 8.78 0 0010.754 6.209l21.627-5.796a8.78 8.78 0 006.21-10.753l-5.796-21.628A8.78 8.78 0 0017.18 8.2l-21.627 5.795zm20.677 8.389a4.873 4.873 0 104.873-8.441 4.873 4.873 0 00-4.873 8.44z" fill="#7723F2"/>
        <path fill-rule="evenodd" clip-rule="evenodd" d="M40.433 5.243c2.89 5.149.9 12.095-4.805 15.424-1.807 1.054-3.732 1.598-5.61 1.684l.499 1.96a14.238 14.238 0 006.079-1.919c6.545-3.819 9.028-11.943 5.545-18.146C38.66-1.957 30.531-3.89 23.985-.07c-6.544 3.819-9.027 11.943-5.545 18.146a12.043 12.043 0 003.405 3.843l1.204-1.592a10.09 10.09 0 01-2.9-3.248c-2.89-5.149-.9-12.095 4.805-15.424 5.704-3.33 12.588-1.561 15.479 3.588z" fill="#fff"/>
    </g>
    <defs>
        <clipPath id="clip0_1229_7937">
            <rect x=".5" width="36" height="36" rx="18" fill="#fff"/>
        </clipPath>
    </defs>
</svg>
