<?xml version="1.0" encoding="UTF-8"?> <svg xmlns="http://www.w3.org/2000/svg" xmlns:xlink="http://www.w3.org/1999/xlink" id="Layer_1" data-name="Layer 1" viewBox="0 0 490.04 67.04"><defs><style>.cls-1{fill:#ed6752;}.cls-2{fill:#f8c038;}.cls-3{fill:url(#radial-gradient);}.cls-4{fill:url(#radial-gradient-2);}.cls-5{fill:#fff;}</style><radialGradient id="radial-gradient" cx="79.8" cy="529.7" r="32.01" gradientTransform="matrix(1, 0, 0, -1, -47.66, 563.74)" gradientUnits="userSpaceOnUse"><stop offset="0" stop-color="#ffcc67"></stop><stop offset="0.18" stop-color="#fcbe4d"></stop><stop offset="0.48" stop-color="#f8a41d"></stop><stop offset="1" stop-color="#e64325"></stop></radialGradient><radialGradient id="radial-gradient-2" cx="7004.24" cy="-6386.48" fx="6997.48769615646" fy="-6397.069511927062" r="19" gradientTransform="matrix(0.91, 0.42, 0.42, -0.91, -3671.83, -8705.84)" gradientUnits="userSpaceOnUse"><stop offset="0" stop-color="#e23b26"></stop><stop offset="0.32" stop-color="#e03c26"></stop><stop offset="0.43" stop-color="#e34126"></stop><stop offset="0.45" stop-color="#e34225"></stop><stop offset="0.77" stop-color="#e54a25"></stop></radialGradient></defs><path class="cls-1" d="M102.62,50.93V55H91.08V16.32h11.54V31.83c0,2.05-.11,4.51-.34,7.36q2.13-4.65,4.22-8.24l6.13-10.49V16.32h11.53V55H112.63V39.64q0-3.31.31-7.33a76.73,76.73,0,0,1-4.23,8.2Z"></path><path class="cls-1" d="M167.54,55h-13l-6.69-14.62-4,5.69V55H132.65V16.32h11.19v16l10.67-16h10.68l-9.77,14.16Z"></path><path class="cls-1" d="M184.5,41V55h-12V16.32H189q6.18,0,9.4,1.42a11.45,11.45,0,0,1,5.1,4.33,11.88,11.88,0,0,1,1.88,6.55,11.34,11.34,0,0,1-3.85,8.93q-3.85,3.39-10.29,3.4Zm-.17-8.31h4q5.23,0,5.24-3.85,0-3.63-4.84-3.63h-4.37Z"></path><path class="cls-1" d="M230.37,55l-2.19-7.63H217.81L215.49,55h-9.64l11.94-38.69h12.56L242.48,55ZM219.83,38.94h6.26L223,27.71Z"></path><path class="cls-1" d="M275.58,50.93V55H264V16.32h11.54V31.83c0,2.05-.11,4.51-.34,7.36q2.13-4.65,4.22-8.24l6.13-10.49V16.32h11.53V55H285.59V39.64q0-3.31.31-7.33a76.73,76.73,0,0,1-4.23,8.2Z"></path><path class="cls-1" d="M333.91,41V55H321.86V16.32h16.53q6.18,0,9.39,1.42a11.35,11.35,0,0,1,5.1,4.33,11.8,11.8,0,0,1,1.89,6.55,11.35,11.35,0,0,1-3.86,8.93q-3.86,3.39-10.28,3.4Zm-.17-8.31h4q5.24,0,5.24-3.85,0-3.63-4.85-3.63h-4.36Z"></path><path class="cls-1" d="M360.93,55V16.32h11.54V30h6.83q5.64,0,8.47,1.29a9.81,9.81,0,0,1,4.48,4.1,13,13,0,0,1,1.65,6.71,13,13,0,0,1-3.5,9.16Q386.89,55,379.3,55Zm11.54-8.62h5.38a4.11,4.11,0,0,0,3.11-1,4.88,4.88,0,0,0,.86-3.27q0-4-3.57-4h-5.78Zm25,8.62V16.32H409V55Z"></path><path class="cls-1" d="M417.46,55V16.32H446v8.11H429v7h6.43a23.47,23.47,0,0,1,8.4,1.19,10,10,0,0,1,4.81,3.87,11.44,11.44,0,0,1,1.79,6.5A14.14,14.14,0,0,1,449,49.17a8.92,8.92,0,0,1-4.93,4.42A18.54,18.54,0,0,1,437,55ZM429,46.39h5.78q3.57,0,3.57-3.57c0-2.31-1.46-3.46-4.36-3.46h-5Z"></path><path class="cls-1" d="M477.92,55l-2.18-7.63H465.37L463.05,55h-9.64l11.94-38.69h12.56L490,55ZM467.39,38.94h6.26l-3.13-11.23Z"></path><circle class="cls-2" cx="33.63" cy="33.52" r="33.52"></circle><circle class="cls-3" cx="32.14" cy="34.04" r="32.14"></circle><ellipse class="cls-4" cx="27.53" cy="21.2" rx="19.13" ry="15.73" transform="translate(-6.34 13.43) rotate(-24.67)"></ellipse><path class="cls-5" d="M14.62,19.93a2.43,2.43,0,0,0-1.29,1.46,2.34,2.34,0,0,0,0,1.67,2.13,2.13,0,0,0,1,1.08,2.52,2.52,0,0,0,3.17-1.47,2.26,2.26,0,0,0-.64-2.48A2.23,2.23,0,0,0,14.62,19.93Z"></path><path class="cls-5" d="M26.19,8.56a2.71,2.71,0,0,0-1.79-.13,13.41,13.41,0,0,0-7.29,4.73A9.89,9.89,0,0,0,15.81,16a2.74,2.74,0,0,0,0,1.68.82.82,0,0,0,.31.4,1,1,0,0,0,.88,0c1.84-.63,7.74-5.17,9.25-6a2.27,2.27,0,0,0,.75-.66,2,2,0,0,0,.33-1.64A2.05,2.05,0,0,0,26.19,8.56Z"></path><path class="cls-5" d="M28.64,9.56a.94.94,0,0,0,.3.43A1.37,1.37,0,0,0,30.8,9.5a1.16,1.16,0,0,0,0-1.1,1.22,1.22,0,0,0-1.35-.56,1.14,1.14,0,0,0-.5.31A1.35,1.35,0,0,0,28.64,9.56Z"></path></svg> 