<svg width="320" height="390" viewBox="0 0 320 390" fill="none" xmlns="http://www.w3.org/2000/svg">
    <path fill-rule="evenodd" clip-rule="evenodd"
          d="M181.879 152.886L179.54 153.118C178.772 154.753 179.242 155.07 180.974 154.873C182.263 154.727 182.793 153.691 183.535 152.801C184.346 151.833 185.097 150.891 185.524 149.855C186.497 147.483 186.659 147.072 185.157 146.893C184.295 148.006 185.345 147.8 184.286 148.622C183.655 149.11 183.586 148.622 182.434 149.667C180.846 151.114 181 151.02 181.871 152.886H181.879ZM157.85 265.364C156.937 265.586 156.365 266.117 156.177 266.759C156.749 266.905 156.442 266.956 157.151 266.905C157.731 266.854 157.466 266.828 157.876 266.64L157.85 265.364ZM149.272 261.091C149.647 260.509 150.313 258.788 149.024 259.584C148.401 259.969 148.316 260.903 148.068 261.245L149.28 261.091H149.272ZM110.041 299.939C109.682 301.883 111.85 302.628 113.182 303.476C114.078 304.049 114.078 304.597 115.341 304.854C116.443 305.068 117.458 304.906 117.501 306.104C117.552 307.568 116.332 306.721 115.794 306.421C114.991 305.967 114.121 305.479 113.506 305.188C112.542 304.734 111.671 304.726 110.826 305.291C106.618 308.117 109.025 308.245 107.275 311.91C106.78 312.937 106.08 313.134 105.696 313.922C105.286 314.761 106.012 314.35 105.004 314.932C104.023 315.497 104.45 314.581 103.843 315.515C103.425 316.148 103.826 316.234 103.57 317.004C103.092 318.426 101.214 317.612 101.573 319.822C101.727 320.798 101.752 319.993 101.829 321.089C101.94 322.587 101.923 324.077 101.496 325.302C99.1999 325.105 100.625 323.015 97.672 321.842C96.477 323.289 97.0745 323.512 97.1086 325.01C97.1172 325.576 97.1257 325.344 97.0062 325.67C96.2806 325.122 95.9819 324.103 94.9917 324.36C93.993 324.616 94.3088 325.935 94.7783 326.877C96.0929 329.54 97.7318 327.519 97.2794 331.073C96.0929 331.518 95.8539 331.193 95.0429 331.946C94.4539 330.251 94.2064 328.179 92.2858 329.317C92.2687 330.833 92.5675 330.028 92.4736 331.047C92.4053 331.835 91.4408 331.33 93.5918 333.924C93.6345 333.975 93.6943 334.044 93.7284 334.095C93.7711 334.147 93.8308 334.224 93.865 334.275L94.1296 334.652C92.5931 334.455 92.6614 333.462 90.8262 333.179C87.0191 332.58 88.419 334.249 84.501 337.537L83.6048 338.359C83.5535 338.394 83.4767 338.428 83.4255 338.454C82.6999 338.839 83.1267 338.222 82.2561 338.976C83.0584 343.377 82.1024 340.757 82.2561 342.743C82.4097 344.713 87.1472 349.91 86.7631 352.976C86.396 353.995 86.5155 353.378 85.4997 354.14C85.4571 354.979 85.4827 356.264 85.5339 356.777C85.6619 358.079 86.0204 357.95 86.4387 359.029C84.4498 358.79 84.4498 357.505 82.4439 361.47C81.9402 361.264 81.4622 361.136 80.6342 361.127L80.6769 362.643C78.7734 362.523 79.5673 361.324 78.1588 360.87C77.9966 360.819 75.0603 361.127 74.5481 361.341C72.9434 362.343 74.1298 363.276 74.4969 365.049C74.8127 366.59 74.2237 365.922 74.5054 367.344C74.753 368.594 74.9322 368.123 74.8042 369.818L72.5592 371.839C70.8947 371.094 71.1849 369.467 71.1679 367.737C70.3655 367.335 69.1107 367.07 68.2913 366.556C67.1645 365.845 67.4462 364.809 66.3451 364.518C64.6891 364.073 64.0403 365.306 60.7284 362.429C59.8919 363.148 58.2018 364.578 58.3383 366.051C58.4066 366.77 58.9615 367.549 59.3712 367.969C61.1808 369.835 63.0502 366.838 63.7928 372.241C63.955 373.449 63.9806 374.014 64.6549 374.613C65.5854 375.444 65.9865 374.99 67.2755 375.084C67.5145 375.957 67.762 377.113 67.6169 378.278C65.2525 378.321 64.7488 378.107 62.1539 378.715C61.8722 381.249 61.4966 380.787 59.6187 380.984C59.1151 381.035 59.7041 381.489 58.5944 381.078C57.186 380.436 57.4933 376.925 56.6141 375.11C56.2812 374.425 56.0251 374.408 55.5898 373.389C56.2812 372.49 55.7775 373.252 56.247 372.798C57.3994 371.676 57.0409 371.805 58.5005 370.974C58.6286 369.647 58.2018 369.458 57.8006 368.345C57.3567 367.138 57.8518 366.53 58.014 365.494L56.1361 363.302C55.6068 362.763 54.0533 362.24 53.0717 362.369C52.4485 362.677 51.4157 364.972 51.4157 365.837C51.4157 366.556 51.851 367.07 52.0132 367.729C52.4571 369.57 51.0998 369.467 52.7985 373.92C53.1143 374.75 53.4472 377.944 53.4216 378.92C52.8412 379.734 52.3717 379.819 51.9876 380.419C51.134 381.763 52.8924 381.001 51.0316 381.686C50.5535 381.163 50.5621 380.907 50.1097 380.436C49.7256 380.033 49.1451 379.656 48.7183 379.288C48.6842 377.362 49.5548 377.37 49.0171 375.726L48.8634 375.281C48.3513 373.791 49.0939 374.194 47.7196 373.937C47.4294 375.735 48.9915 376.959 46.1831 377.55C45.91 379.28 45.0991 380.727 43.7675 381.703C42.3761 381.326 42.0944 379.828 40.8567 379.511C40.4982 380.239 40.3275 382.097 40.4043 382.611C40.6092 384.143 41.3262 383.895 41.5225 385.77C38.8508 387.14 38.2874 387.097 36.1107 386.618C35.701 387.936 33.9767 389.007 33.1061 390C32.0732 389.906 30.6306 389.264 29.8282 388.921C29.5295 386.832 30.5367 387.106 30.4514 384.186L29.2137 383.347C29.1539 381.66 29.299 381.403 28.8039 379.939L27.4894 379.545C26.6956 380.341 26.5163 381.472 25.8761 382.576C25.0567 383.981 24.6128 383.946 22.8288 384.306L19.2863 381.917C18.6462 381.121 18.9791 381.095 18.5693 380.607C18.1169 380.05 17.1694 379.973 16.2902 378.783L14.2672 376.728C11.4503 374.733 12.6966 365.896 12.7393 362.908C12.7819 359.62 12.7222 359.124 13.2941 356.324C13.6782 354.457 13.5929 352.196 13.7721 351.152C13.9087 350.373 14.0282 350.373 14.1477 349.499C14.4891 347.153 14.7025 344.833 15.0013 342.495C15.172 341.159 14.9757 339.781 15.172 338.556C15.4366 336.938 16 337.203 15.8805 335.217C15.7439 332.896 16.0939 330.567 16.0768 328.213C16.0512 325.695 15.8122 323.058 15.5476 320.601C15.3769 318.991 15.4622 318.88 15.5391 317.415C15.5903 316.302 14.8306 312.877 14.8562 310.12C14.8562 309.307 15.1379 309.812 14.9928 308.442L14.2331 303.407C13.866 300.307 13.4904 303.724 13.388 295.821C13.3539 293.183 13.2344 294.288 12.7137 292.541C12.3552 291.342 12.5771 290.589 12.1759 289.322C11.8089 288.166 11.5698 287.053 11.4845 285.888C11.3394 283.765 11.715 284.313 11.0321 282.283C10.5797 280.939 10.6138 280.091 10.7589 278.858C11.2028 275.048 9.70047 272.308 8.94931 268.892C8.36033 266.211 7.71159 267.941 7.32748 262.607C7.20797 260.971 6.67021 261.434 6.7385 259.456C6.82385 257.118 4.75815 257.58 4.54476 253.821C4.19478 247.811 2.41077 246.269 1.62546 240.721C1.46328 239.556 0.908439 238.614 1.16452 237.638C1.59985 236.02 1.77057 237.039 1.85593 234.744C2.01811 230.489 1.57424 230.018 1.52303 227.021C1.49742 225.48 1.71082 224.889 1.56571 223.219L0.916975 211.993C0.916975 211.437 -0.619496 207.241 0.285315 203.782C0.558465 202.712 0.703577 203.345 0.882832 202.455C0.916975 202.275 0.660897 199.501 0.660897 198.73L1.43767 187.676C1.33524 186.015 0.643825 186.777 1.40352 184.508C1.77057 183.403 1.57424 182.025 1.68521 180.646C1.81325 179.113 2.14615 178.805 2.3937 177.409C2.90585 174.472 2.37662 172.606 2.59856 169.926C2.67538 169.027 3.04243 167.468 3.11072 166.783C3.21315 165.756 3.02536 166.586 2.85464 165.43C2.70953 164.463 2.87171 164.454 2.93146 163.641C3.01682 162.493 2.67538 161.594 2.71806 160.413L4.99716 150.78C5.68004 148.973 5.7654 146.079 6.38852 144.041C6.50802 143.656 6.71289 143.039 6.79825 142.671L7.93353 138.167C8.07864 137.097 8.72737 136.061 8.52251 134.948C8.34326 133.997 8.11278 134.503 8.06157 133.407L8.18107 130.367C8.38593 129.639 8.5908 129.999 8.79566 128.98C9.12003 127.336 8.4969 127.087 9.26514 125.332C11.2284 120.803 10.2041 119.929 10.887 115.622L12.5173 109.157C12.7137 106.786 12.2869 107.65 13.1575 105.63C13.2344 105.458 14.2587 99.5075 14.3014 98.9938C14.7111 94.2587 16.9731 90.0973 17.067 85.5848C17.178 80.5329 17.9377 84.5916 17.7243 78.5721C17.673 77.2364 17.1694 76.2174 17.5194 75.2927C17.7584 74.6676 18.1681 74.4022 18.3132 73.9997C18.9278 72.3728 17.7926 72.9893 18.7657 71.0028C18.9193 70.686 19.2693 69.9068 19.3888 69.5386C19.9265 67.8433 19.09 68.2115 19.8924 66.6017C20.8911 64.5809 21.6508 62.7828 23.1702 61.1131C23.4092 60.8562 23.5202 60.7278 23.7165 60.4966C25.4066 58.5872 29.8112 55.2649 32.4146 55.1279L35.8888 54.7169C38.4666 54.8111 39.3117 56.6692 41.8383 54.4772C43.7589 52.816 45.3381 52.6961 47.105 51.6173C48.8805 50.5384 46.8489 50.6497 49.8195 50.1788C50.2548 50.1103 50.3658 50.35 50.9547 49.6308C51.6205 48.8173 50.8523 49.2626 51.7742 48.4063C52.5595 47.6699 51.9449 48.706 52.8241 47.4216C54.1386 45.4951 55.6068 43.5428 58.3895 42.815C63.3233 41.522 65.4146 38.02 68.1205 36.513C73.4128 33.576 71.3557 31.2641 72.5592 29.0122C73.097 28.0018 73.7628 27.822 74.6505 27.0428C75.6663 26.1523 75.3334 25.6385 75.7431 24.3542C76.0504 23.4037 76.8699 22.4875 77.1772 21.734C77.7491 20.3555 77.0235 19.8246 77.843 18.3005C78.3893 17.2901 81.3257 15.0553 82.3329 14.5843C84.2279 13.7024 84.9278 15.6546 86.7631 14.1305C86.8655 14.0449 88.7519 12.2896 90.5445 11.8786C94.3771 16.2626 92.0297 20.6123 93.1223 25.8783C93.5577 27.9761 93.5662 31.1785 94.0954 33.3191C94.693 35.7509 95.2734 37.6518 95.5124 40.3747C95.6148 41.6077 95.4697 43.2431 95.6746 44.3391C95.9563 45.8461 96.2977 45.5892 96.2892 47.6699C96.2892 49.6222 96.366 49.6564 96.8013 51.3347C97.6123 54.4343 97.0489 58.1077 97.322 61.3786C97.4245 62.5859 97.6976 62.4146 97.8427 63.2109L97.6379 70.823C97.0062 73.7685 98.2951 75.3783 97.6123 77.1935C96.4343 80.3274 97.7488 85.7133 97.5098 89.0612C97.433 90.1058 97.3818 91.9982 96.9977 92.9657C96.2636 94.8152 96.5282 93.5908 96.8355 95.9455C97.0574 97.6494 96.6221 97.4525 97.0318 99.4476C97.8086 103.198 96.9464 111.529 96.5538 115.194C96.477 115.905 96.6904 117.789 96.7757 118.756L96.255 126.342C95.8624 127.807 95.6661 126.188 95.8709 127.815C95.9648 128.569 96.3575 128.654 96.4599 129.673C96.6648 131.651 95.9136 131.06 95.9392 132.944C95.9563 134.417 95.5636 134.974 95.4527 136.352C95.3246 137.953 95.9648 138.681 95.3161 140.257C94.2747 142.808 94.8295 141.044 95.299 143.176C95.3758 143.536 95.3844 150.018 95.3502 150.763C95.2563 152.57 94.5735 153.083 94.693 157.347C94.8295 162.656 94.1467 160.644 94.2491 162.16C94.4198 164.737 94.8808 168.196 94.104 171.107C93.3955 173.762 93.9759 176.288 93.4382 178.934C93.0882 180.663 93.5833 180.869 93.3955 182.384C93.2589 183.455 93.0541 182.889 93.0711 183.857C93.0882 184.756 93.4296 184.499 93.276 185.475C93.0455 186.922 92.7724 187.111 92.7809 189.123C92.7809 192.89 93.3272 197.412 92.1322 200.948C91.3554 203.243 92.0468 205.366 92.1492 208.08C92.2005 209.587 91.8419 210.701 91.9273 212.173C92.0554 214.186 92.4907 213.809 92.081 215.967C91.5261 218.852 91.9615 220.522 91.9358 223.544C91.9188 225.728 91.381 226.738 91.2786 231.114C91.2103 234.119 90.9286 236.285 91.031 239.034C91.0737 240.233 90.6128 241.294 90.3823 242.313C90.2372 242.964 90.2116 243.581 90.0153 244.026C89.5116 245.148 89.5287 244.043 89.1104 245.405C88.5898 248.881 91.4834 248.179 89.5799 251.424C88.8288 252.7 89.3921 252.708 88.9739 253.736C88.3081 255.371 86.2424 253.565 87.0618 256.707C87.2496 257.426 87.3264 258.591 87.4715 259.01C87.8983 260.252 88.3422 259.576 88.8885 260.569C88.5129 261.622 87.9581 261.596 87.591 262.607C88.0861 263.6 88.3764 263.223 89.3238 263.797C88.2825 266.682 86.7289 264.713 88.2398 268.566C85.2863 269.619 86.8228 270.536 87.5569 272.162C86.5838 272.582 83.9121 271.101 84.3815 273.027C84.3815 273.061 84.4071 273.156 84.4157 273.181C84.7827 274.08 86.0034 274.14 86.4302 274.894C87.0106 275.904 86.6094 278.165 86.3789 279.432C84.962 280.254 84.8169 279.697 84.5608 281.864C85.1839 282.686 86.7716 283.148 86.0375 285.177C85.5851 286.419 83.6304 287.198 85.0217 288.423C85.4571 287.883 85.6449 287.498 86.0546 286.984L89.5372 282.009C91.1591 280.04 90.3567 279.757 91.3213 278.276C93.1906 275.391 94.8978 272.616 97.2708 269.945C98.1756 268.926 97.672 269.174 98.2525 267.992C98.6622 267.162 99.9767 266.545 100.805 265.004C101.786 263.172 102.742 264.071 102.742 261.057C107.864 259.439 105.047 258.146 106.046 256.493C106.925 255.774 107.565 255.534 108.291 254.738C108.957 254.01 109.23 253.085 110.058 252.135C111.961 249.934 111.338 249.146 113.788 247.708L114.189 247.451C114.121 245.893 114.155 246.894 113.574 245.721C114.778 244.831 114.206 244.557 115.188 243.29C115.99 242.254 116.613 242.031 117.347 241.08C118.577 239.505 118.884 237.159 121.539 237.159C123.749 237.159 125.047 234.958 125.986 233.391C126.737 232.133 129.878 229.153 128.453 227.911C127.591 227.166 127.002 228.399 126.395 228.545C124.722 228.939 126.08 227.295 126.447 226.884C127.531 225.668 127.044 224.598 128.572 223.168C129.375 222.414 129.614 222.003 130.51 222.269C130.663 223.75 129.46 222.834 129.929 225.163C131.526 225.36 133.514 222.645 133.685 221.19L130.868 220.804C130.877 218.963 131.116 218.638 133.122 219.64C134.436 220.299 135.247 219.691 136.007 218.655C137.313 216.874 143.058 209.879 142.358 208.072C142.161 207.567 142.247 207.806 142.025 207.515C141.001 208.294 140.429 209.373 138.61 209.151C138.704 207.164 140.198 206.676 141.692 205.743L141.342 204.013C142.025 203.508 143.484 201.933 144.056 202.061C145.892 202.472 144.022 204.099 143.536 204.638C142.972 205.263 142.375 205.597 142.067 206.325L142.571 207.207C144.782 207.061 144.466 205.691 145.533 204.313C146.566 202.986 147.812 202.403 147.974 200.348C147.078 200.066 146.557 199.929 145.379 199.912C146.284 196.992 148.478 200.905 150.595 198.019C152.686 195.177 151.764 195.511 155.11 191.452C157.757 188.241 158.192 186.614 158.952 185.681C162.118 181.759 160.693 183.943 161.06 181.331C161.188 180.415 161.529 180.603 161.188 179.533C159.506 179.678 158.917 182.153 158.67 183.66C156.476 184.337 157.501 183.617 156.485 185.552C155.947 186.588 155.392 187.265 154.223 187.393C152.302 184.85 155.358 184.157 156.135 182.119L158.687 181.922C158.098 179.858 155.973 178.445 162.272 176.759C163.834 176.339 163.484 177.076 164.696 177.427C165.695 176.767 166.054 176.099 166.882 175.277C167.257 174.901 167.539 174.661 167.889 174.233C169.775 171.955 169.195 173.282 170.561 170.208C171.303 168.53 171.636 168.933 171.124 166.929C168.708 166.98 170.398 168.042 167.658 167.28C167.846 166.467 170.484 163.153 171.38 163.024C172.805 163.067 172.942 163.487 174.06 162.956L176.186 162.083C176.655 161.988 177.961 160.216 178.123 159.993C178.567 159.385 178.337 159.454 178.772 158.889L179.771 157.835C178.533 155.917 178.815 157.073 177.5 155.875C176.621 154.008 179.412 151.439 180.445 150.104C181.922 148.186 182.221 146.644 184.064 144.692L186.915 140.847C187.837 139.443 188.623 137.979 190.594 137.825C192.822 137.654 192.566 138.339 193.181 139.871C194.794 139.623 194.581 138.433 196.117 137.243C197.056 136.515 196.937 137.02 197.295 135.77C197.568 134.828 197.56 134.143 197.235 133.415C195.895 133.878 196.988 133.912 195.187 134.169C193.872 134.357 192.558 135.513 192.634 133.509C192.634 133.347 192.925 132.602 193.019 132.422C193.608 131.257 193.343 131.514 193.847 130.341C194.726 128.286 196.313 128.894 197.893 128.303C197.927 128.226 197.952 128.021 197.969 128.055L198.097 127.558C198.541 125.503 199.327 124.921 200.513 123.294C202.323 120.811 199.719 122.755 204.508 118.533C207.709 115.708 204.576 116.513 210.679 110.151C211.584 109.209 211.345 108.764 211.917 107.591C212.353 106.691 213.01 106.152 213.462 105.373C213.889 104.636 214.341 103.472 214.785 102.898C215.417 102.076 216.134 101.974 216.697 100.741C217.807 98.3002 216.757 98.3002 219.028 95.4917C220.308 93.9076 221.384 93.0856 222.28 90.9107C223.441 88.0765 225.054 89.5493 226.906 84.1292C227.623 82.0143 229.057 81.3121 229.902 79.2999L236.057 69.9668C236.876 68.28 238.08 66.4219 238.558 64.8464C239.19 62.7486 239.104 64.1357 240.222 62.4831C241.477 60.6336 240.538 59.8972 242.083 57.3713C242.655 56.438 242.442 55.4019 242.894 54.4001C244.379 51.1206 242.083 51.5316 244.405 50.0674C246.77 48.569 246.693 49.9989 249.296 51.643L250.457 50.6326C250.022 48.1666 250.338 49.0143 251.183 47.3959C250.952 46.2742 250.073 45.6577 250.636 44.6816C251.353 43.4229 252.224 44.5874 253.026 43.2431C253.419 42.5838 253.359 41.7275 253.999 40.7257C255.092 39.0132 254.563 38.3025 256.833 38.0028C260.06 37.5747 259.027 36.179 262.348 34.5179C263.474 33.9528 263.372 33.4904 264.823 33.028C265.301 35.7338 265.873 35.4426 268.144 34.5008C268.809 34.2182 269.407 33.9785 270.534 33.91C272.676 33.7729 271.464 33.6873 272.855 33.1736C274.375 34.0041 274.392 34.732 276.193 35.3228C278.096 35.9478 278.139 37.3949 279.539 37.3949C280.726 37.3949 281.775 35.691 282.595 35.0145C287.845 30.6904 285.07 32.3173 287.981 29.3376C289.151 28.1388 289.466 27.7278 290.841 26.666C291.524 26.1352 291.66 25.8612 292.189 25.3902C292.847 24.808 293.171 24.8165 293.76 24.063L299.931 16.5451C301.075 15.4406 300.529 16.3653 301.041 14.7641C301.374 13.7195 301.246 13.9678 302.065 13.1372L303.346 11.5275C304.148 10.4914 305.207 9.78929 306.137 8.74467C306.948 7.83704 307.153 7.23766 307.998 6.55266C310.601 4.42059 309.09 5.29396 312.291 3.85546C313.196 3.44446 317.524 -1.4105 319.641 0.404759C319.786 0.618822 320.196 0.0365696 319.888 1.52645C319.641 2.71664 316.329 7.82847 315.603 8.64191C314.852 9.48104 314.955 9.63517 314.28 10.5085L308.664 17.7096C307.358 19.6191 306.564 21.9481 305.164 23.8233C303.687 25.7927 303.499 25.3645 303.576 28.1987C303.585 28.5412 303.474 30.6476 303.474 30.6562C303.141 31.6837 302.142 31.3583 303.107 33.0965C303.969 32.9424 304.131 32.4886 304.669 31.7779L307.46 28.7382C308.006 27.9932 308.049 27.6936 308.988 27.1884C309.475 29.0293 306.777 32.1289 305.693 33.6873C304.054 36.0335 305.71 37.5833 307.136 35.417C307.631 34.672 308.134 33.9099 308.92 33.6531C309.808 34.8775 309.005 35.1686 308.228 36.5215C307.716 37.412 307.067 38.5423 306.675 39.5612C307.511 40.1692 307.23 39.527 307.665 40.426C306.453 41.8389 306.18 41.9159 305.266 43.7654C304.455 45.4094 304.037 46.103 303.03 47.3446C301.579 49.1341 300.239 52.1995 298.532 54.4857C292.377 62.74 292.847 64.8036 291.156 67.5008L290.926 67.8518C290.294 68.7937 290.26 68.631 290.166 69.7356C291.378 69.3331 291.515 68.8965 292.223 67.7063L294.554 64.2213C294.955 63.6391 294.955 63.4935 295.305 62.9369C295.851 62.0807 296.406 61.2929 297.302 60.8391C297.208 62.6629 294.844 65.891 293.922 67.3723C293.359 68.28 292.505 69.6414 292.437 70.746C292.283 73.3062 292.437 71.8848 291.25 74.0597L289.415 77.1251C288.476 79.3513 288.468 78.6663 287.384 80.0706C286.735 80.9097 287.008 80.884 286.684 81.7831C286.265 82.9476 286.265 82.3568 285.497 83.1445C284.763 83.898 284.294 85.4992 283.508 86.3983C282.561 87.4686 282.074 87.6655 281.477 89.3267C280.999 90.6539 280.555 91.3474 279.556 92.3492C278.6 93.3168 279.078 92.4777 278.592 93.7021C278.156 94.7724 278.429 94.4813 277.729 95.466C277.021 96.4678 276.116 97.1871 275.331 98.3259L272.352 102.616C271.848 103.369 271.823 103.523 271.413 104.285C270.867 105.304 268.809 107.017 267.017 110.091C266.769 110.527 266.539 111.024 266.155 111.572L260.572 118.516C260.026 119.527 259.497 120.648 258.814 121.719C257.9 123.157 257.661 122.712 256.748 124.579C256.629 124.818 256.509 125.084 256.33 125.315C254.904 127.164 255.391 124.87 253.581 128.68C253.035 129.819 253.359 129.211 252.489 130.221C252.036 130.744 251.686 131.069 251.234 131.574C250.696 132.174 250.67 132.456 250.09 133.064C247.674 135.599 246.3 139.238 243.842 141.652C243.056 142.423 243.193 142.329 242.706 143.168C241.742 144.829 241.546 143.827 240.461 145.857C240.043 146.653 239.864 146.67 239.249 147.278C238.464 148.057 237.867 149.307 237.209 150.181C235.613 152.313 232.557 153.366 233.923 155.883C235.792 156.388 236.578 154.779 237.465 153.648C238.191 152.724 238.421 152.707 239.164 152.124C240.419 151.131 239.54 151.011 240.299 149.778C241.17 148.357 243.295 147.432 245.284 143.373C245.592 142.74 245.353 143.63 245.481 142.774C245.848 140.445 246.104 140.813 248.596 139.169C249.569 138.527 251.806 135.068 253.061 133.689C253.829 132.841 254.512 132.867 254.836 132.105C255.707 130.05 253.854 131.951 257.132 128.183C258.122 127.045 258.686 125.512 259.881 124.527C260.922 123.671 260.99 122.464 262.476 120.434C263.321 119.278 264.763 117.951 266.778 115.117L271.797 108.764C273.624 106.597 274.938 104.123 277.345 102.385C278.6 101.477 278.617 100.741 279.855 99.9699L280.444 99.6359C280.504 99.6017 280.589 99.5503 280.649 99.5161C280.708 99.4818 280.802 99.4219 280.854 99.3876C280.905 99.3619 280.99 99.302 281.058 99.2592C279.727 102.153 280.657 100.655 281.272 102.325C280.29 102.821 279.889 103.806 279.334 104.679C278.72 105.655 278.088 106.195 277.431 107.145C276.679 108.233 276.594 108.567 275.647 109.714C275.169 110.296 274.306 111.769 273.863 112.6C272.488 115.186 270.534 116.187 269.475 119.321C269.373 119.638 269.373 119.724 269.117 120.083C268.459 120.991 267.973 120.845 267.298 121.77L264.396 125.546C263.867 126.488 263.295 127.224 262.74 128.252C261.144 131.206 260.239 130.307 258.617 133.175C255.963 137.876 255.442 136.626 253.146 141.104C252.07 143.211 250.244 144.033 249.083 146.062C248.058 147.852 244.849 152.612 243.33 153.708C242.399 154.385 242.032 155.07 241.435 156.174C240.368 158.169 237.021 161.988 235.255 163.692C233.718 165.174 232.941 166.878 231.499 168.676C230.824 169.515 230.031 169.635 229.109 170.654L223.065 178.291C222.305 179.319 221.768 179.764 220.778 180.381C219.642 181.083 219.207 181.93 217.662 181.896C218.08 180.834 221.896 176.519 223.014 175.603L225.08 172.709C226.317 169.643 226.121 171.81 227.82 168.744L226.667 167.871C226.958 166.372 228.136 166.021 228.861 164.865C229.211 164.3 229.331 163.487 229.655 163.033C230.278 162.151 230.278 162.579 231.208 161.663C232.864 160.036 234.828 159.873 234.435 157.579C234.256 156.5 233.88 156.671 233.027 156.149C231.447 156.714 230.807 158.05 229.663 159.248C227.871 161.132 228.11 161.286 226.847 162.836C226.155 163.684 224.346 165.225 223.799 166.193C223.125 167.374 223.594 167.22 222.562 168.17C219.454 171.039 217.295 174.609 215.101 177.307C214.572 177.966 214.179 178.129 213.633 179.036C212.813 180.398 211.712 181.323 210.739 182.547C210.193 183.241 210.031 184.251 208.998 183.609L210.551 181.485C210.586 181.434 210.637 181.365 210.671 181.314L213.718 177.075C214.939 175.68 214.632 176.168 214.939 174.601C215.289 172.828 216.313 173.454 216.356 170.791C217.227 169.583 216.902 170.765 218.089 169.866C218.063 168.444 217.816 168.119 216.749 167.691C216.049 168.581 216.458 168.444 215.494 169.258C214.41 170.174 214.76 169.712 214.256 171.107C212.779 170.705 213.42 170.568 211.678 170.577C209.962 170.585 210.833 170.029 209.186 169.806C207.999 170.405 207.496 171.176 207.487 172.803L209.962 171.69C210.073 172.914 209.809 172.991 209.595 174.113C207.188 174.49 208.315 174.301 207.12 175.431C206.07 176.433 206.104 175.825 205.285 177.384C203.142 181.417 201.879 176.416 201.435 179.841C202.058 180.509 202.442 180.423 203.381 180.655C203.031 181.819 202.997 181.982 201.922 182.384C201.102 181.656 201.683 181.656 200.761 180.971C200.505 181.049 196.774 183.72 196.672 185.501C198.567 186.058 200.547 185.749 201.435 188.01C200.94 189.123 201.29 188.215 200.658 189.097C199.378 190.878 199.036 190.716 197.858 192.223C197.022 191.221 197.73 189.808 196.672 189.14C195.972 188.695 195.725 188.755 195.588 189.474C195.392 190.467 195.793 189.817 196.382 190.853C192.933 192 193.676 191.606 192.216 193.421C191.491 194.329 191.542 193.995 191.491 195.416C189.766 195.699 189.109 195.605 188.17 196.949C187.547 197.831 186.676 198.645 186.087 199.741L187.163 200.751L185.251 201.265C185.072 203.397 186.122 203.594 186.813 205.52C188.221 205.623 188.358 205.28 189.101 206.094C188.759 206.916 187.923 207.164 186.881 207.481L186.309 205.837C185.55 205.957 184.756 206.342 184.218 206.325C183.04 206.282 183.433 205.657 181.999 205.923C182.579 207.627 181.393 207.746 180.368 208.954C179.668 209.776 179.856 209.322 179.6 210.161L181.76 210.546C181.282 211.934 181.179 211.848 180.198 212.867C179.574 213.509 178.84 214.537 178.431 215.179C177.594 216.506 177.432 216.138 176.391 217.208C175.682 217.944 174.982 218.51 174.325 219.075C173.429 218.433 173.932 218.45 172.575 218.424C172.165 218.921 171.96 219.195 171.645 219.871C173.062 219.982 172.694 220.085 173.753 219.511C173.181 220.839 172.584 221.275 171.653 222.097L170.936 222.988C170.33 222.825 169.733 222.757 168.922 222.834C168.128 222.902 167.129 222.817 166.753 223.39C166.361 224.803 168.529 224.469 169.562 225.146C169.801 226.644 169.502 226.276 168.435 227.029C166.694 228.245 168.461 227.937 167.47 229.024C166.523 230.078 164.773 230.763 164.27 232.347C165.14 233.109 164.782 232.407 165.482 233.22C164.227 234.222 163.1 234.042 161.325 234.522C158.96 235.172 158.363 235.549 158.824 237.887C157.483 239.008 156.954 238.161 156.536 240.532C158.098 240.644 158.311 239.856 160.241 240.335C160.386 241.765 158.602 243.35 157.355 243.538C155.392 243.838 156.263 243.178 155.008 244.471C154.12 245.379 153.651 245.293 152.097 245.336L151.081 243.975C150.245 244.411 149.127 245.679 148.717 246.646C148.401 247.4 148.393 248.341 149.528 247.982C150.552 247.656 149.852 247.759 150.074 247.417C150.689 246.475 149.502 246.586 151.355 246.415C152.353 247.828 151.696 248.307 153.711 249.54C152.994 250.859 152.174 251.141 151.5 252.323C150.467 254.138 150.714 253.907 148.299 254.061C147.616 254.952 147.351 256.082 146.062 256.407L146.959 257.195C148.666 259.498 144.816 259.182 144.014 259.661C143.032 260.243 143.604 261.588 141.769 262.966C138.414 265.492 139.319 266.237 137.962 267.907C137.552 268.412 137.134 268.72 136.587 269.44C135.657 270.647 134.812 271.101 133.736 272.18C133.301 270.638 134.684 269.808 135.537 268.977C136.485 268.061 136.152 267.599 137.193 266.837L141.316 261.622C141.991 260.886 142.324 261.1 142.11 260.295C141.274 260.046 140.062 261.442 139.481 262.127C138.867 262.855 139.003 263.215 138.414 263.686C137.842 264.148 137.219 264.028 136.724 264.61C136.135 265.295 136.058 266.605 134.769 267.898C133.916 268.755 132.661 269.551 132.234 270.647L131.013 269.868C130.203 270.501 129.306 271.126 129.246 272.257C130.134 272.034 129.639 271.991 130.313 271.88C131.893 271.614 130.792 271.691 131.346 272.008C130.689 273.216 130.066 273.147 129.929 274.277C130.979 274.466 131.244 274.252 131.824 273.695C132.439 273.096 132.456 272.847 133.293 272.539C133.13 273.575 132.311 274.765 131.73 275.373C130.996 276.135 129.665 278.285 127.881 280.254C127.121 281.093 126.643 281.633 125.849 282.455C124.902 281.804 124.979 281.564 123.647 281.008C122.896 281.83 122.87 281.324 122.23 282.455C121.248 281.967 122.059 282.052 120.813 281.915L120.096 282.891C121.001 283.816 121.274 284.415 123.049 284.672C120.83 286.094 122.324 286.239 120.728 287.96C119.294 289.51 117.1 290.794 116.383 292.661C115.632 294.613 115.282 293.954 114.42 295.35C113.967 296.086 114.522 295.495 113.694 296.069C112.055 297.199 113.207 296.309 112.431 298.03C110.689 297.011 112.166 296.129 112.943 295.059C113.967 293.663 114.052 293.278 115.376 291.942C116.528 290.777 115.726 291.42 116.4 290.332C116.921 289.493 118.841 289.031 118.824 287.678C118.807 286.719 118.278 287.592 117.33 287.78C117.663 286.916 117.339 287.712 117.621 287.207C118.116 286.333 117.979 286.162 119.012 285.957C120.25 285.563 119.148 285.588 120.617 285.083C120.745 285.888 121.206 285.957 118.995 287.241L119.02 285.957C118.525 285.006 117.535 284.595 116.878 286.684C115.785 286.188 116.067 285.991 115.376 285.631C113.105 284.441 112.371 286.008 111.611 286.71C110.928 287.335 110.775 287.549 110.852 288.731C112.021 289.151 111.628 289.262 112.294 288.44C112.414 289.39 112.234 288.859 112.61 289.416L109.187 289.793C108.496 290.854 109.187 290.7 108.342 291.608C107.173 292.884 107.685 291.702 106.601 292.139C105.662 294.939 107.702 296.737 108.248 299.152C108.581 300.616 108.709 300.119 110.041 300.068C110.28 298.338 109.938 298.372 111.62 298.15C111.594 300.008 111.543 299.314 110.041 300.068V299.939ZM180.727 216.138C182.178 216.052 183.143 214.151 183.185 213.997C182.733 213.852 182.827 213.483 181.888 214.126C181.213 214.588 180.949 215.393 180.727 216.138ZM165.097 237.981C165.618 238.366 165.123 238.503 166.079 238.246C166.839 238.041 167.769 236.26 168.034 235.677C166.13 235.883 167.761 235.618 166.369 236.782C165.337 237.647 165.516 236.782 165.097 237.981ZM147.138 196.17C148.205 196.144 148.615 196.084 149.169 195.605C149.929 194.954 149.938 195.134 149.494 193.849C147.855 193.849 147.727 194.868 147.138 196.17ZM209.723 174.19C209.997 175.175 209.928 174.978 210.432 175.551C211.311 175.132 210.987 174.986 212.643 173.334L211.567 172.597L210.133 173.95C210.082 173.984 209.98 174.044 209.928 174.07C209.886 174.096 209.792 174.147 209.723 174.19ZM164.363 170.688L165.208 172.092C165.704 171.647 166.036 170.962 166.267 170.756C166.924 170.157 167.291 170.525 168.222 170.114C168.042 169.66 168.862 169.763 167.513 169.369C166.694 169.129 166.011 169.626 165.43 169.951L164.363 170.696V170.688ZM159.259 238.298C160.932 238.255 161.982 238.846 162.716 237.33C161.777 236.996 161.777 236.893 160.94 236.397C159.848 236.748 159.319 236.919 159.259 238.289V238.298ZM115.017 287.104C114.326 287.618 114.215 287.755 113.779 288.431C113.242 289.245 113.02 289.596 113.335 290.152C113.805 290.966 114.257 290.306 114.761 290.024C115.324 289.716 115.777 289.587 116.417 289.416C115.683 288.525 115.811 289.236 115.435 288.406C115.213 287.909 115.41 287.652 115.017 287.104ZM133.13 215.889C133.549 216.669 133.318 216.831 134.496 217.003C134.735 216.583 134.428 216.326 134.872 215.727C135.281 215.179 136.016 215.376 136.75 214.973C136.63 212.91 134.155 212.627 133.122 215.881L133.13 215.889ZM135.52 212.816L138.414 212.867C139.788 209.527 139.199 212.259 139.695 210.349C138.235 209.202 138.346 209.973 137.322 210.846C136.434 211.608 135.606 211.42 135.512 212.816H135.52ZM160.556 245.43C162.588 244.797 162.537 243.983 163.433 242.313C164.252 240.789 165.678 240.353 165.482 238.649C163.39 238.888 163.954 240.455 163.023 241.842C162.144 243.153 161.086 243.05 160.556 245.43ZM178.977 232.364C179.028 232.295 179.096 232.09 179.122 232.141C179.387 232.698 179.122 231.927 179.737 231.216C180.061 230.84 180.385 230.66 180.727 230.386C182.536 231.405 183.475 230.634 183.612 229.033C180.983 229.213 180.513 227.92 179.131 230.617C179.054 230.763 178.789 231.396 178.781 231.439C178.687 232.252 178.815 232.038 178.985 232.364H178.977ZM109.503 295.718C110.356 295.341 110.024 295.53 110.578 294.845C111.312 293.945 110.792 294.511 111.62 293.826C112.448 293.141 113.096 292.644 113.634 291.539L111.799 290.829C111.133 294.031 111.381 293.081 109.033 293.286C109.025 293.731 109.486 295.667 109.511 295.718H109.503ZM172.814 159.017C173.215 159.702 173.386 159.993 174.24 160.293C175.639 160.781 175.426 160.541 176.288 159.882C175.435 159.137 175.358 159.736 174.47 159.017C175.571 158.05 175.742 159.077 176.578 157.853C176.015 156.739 176.024 157.005 174.624 157.262C173.207 157.527 173.096 157.536 172.823 159.017H172.814ZM121.18 235.172C121.521 235.395 121.547 235.403 121.999 235.609C123.177 235.121 123.186 234.504 123.801 233.443C124.466 232.295 125.235 232.193 125.721 231.054L125.183 229.898C124.483 230.138 124.799 230.026 123.946 230.977C123.544 231.422 123.177 231.79 122.904 232.261L121.171 235.181L121.18 235.172ZM300.606 67.6206C301.997 65.617 303.056 66.0109 303.96 65.9424C304.02 64.1357 303.687 64.8721 303.141 63.5791C304.165 61.8581 303.474 62.0036 303.397 61.8752L302.313 63.1424C301.323 64.2984 299.974 65.7711 300.614 67.6206H300.606ZM148.871 191.632L150.091 193.37C151.474 192.848 153.472 191.949 153.796 190.27L153.676 188.412C151.346 190.818 151.585 188.952 148.862 191.623L148.871 191.632ZM103.528 343.728C103.553 342.709 103.229 343.197 102.887 342.093C102.717 341.536 102.674 340.791 102.52 340.149C102.23 338.899 102.017 337.084 101.914 335.722C103.408 335.773 103.024 335.722 103.417 335.457C103.374 334.275 103.016 333.299 102.128 332.468C102 333.796 101.616 334.198 101.206 335.594C100.805 336.981 100.941 341.408 101.351 342.461C101.496 342.829 101.855 343.591 102.145 343.771C102.905 344.25 103.374 343.814 103.519 343.737L103.528 343.728ZM281.289 98.7112C283.431 98.4971 281.451 98.0262 283.816 96.5106C284.814 95.8684 284.208 96.7161 284.865 95.7143C285.582 94.0104 284.49 94.6611 284.661 93.3082C285.309 91.9125 285.984 92.9572 287.196 90.8765C287.605 90.1743 287.716 89.926 288.203 89.2153C288.894 88.205 288.92 88.5646 288.271 87.9224C287.034 88.4533 287.58 89.4637 286.291 90.2429C285.122 90.9535 284.686 90.4227 283.696 92.0238C283.005 93.1455 283.227 94.3786 282.714 95.4146C282.057 96.7504 281.827 95.4146 281.28 98.7283L281.289 98.7112ZM289.364 84.0607C291.959 85.5848 292.795 82.5537 294.042 80.7984C295.715 78.4437 296.03 81.3806 296.688 77.0737C296.876 75.8407 297.243 75.8578 297.917 75.0615C298.48 74.3936 298.147 74.6847 298.472 74.1367C299.402 72.5441 299.052 73.8627 300.341 72.8267C300.87 72.3985 300.725 72.39 301.101 71.8334C301.681 70.96 301.843 70.8487 301.843 69.5301L299.522 67.9374C297.294 72.3043 297.541 69.2903 297.456 72.1331C297.388 74.1967 295.646 74.5991 294.562 75.7636C293.811 76.5685 292.701 78.8632 292.121 80.0277C290.499 83.2729 289.671 82.3568 289.364 84.0607ZM298.566 59.0924C298.506 60.4024 299.163 59.1609 299.121 61.3272C299.095 62.4917 299.163 61.8495 298.967 62.5174C298.728 63.3137 298.583 62.7143 298.651 64.1956C299.948 63.3479 303.636 55.3077 304.66 53.5438C305.224 52.5677 305.318 52.7475 305.83 52.0711C306.419 51.2833 306.683 50.076 307.435 49.0314C311.148 43.8511 309.031 44.9128 310.661 42.344C311.233 41.445 312.454 40.6059 311.839 39.2701C310.396 39.3985 310.516 40.2205 310.055 41.4535L302.202 54.2374C300.589 57.0887 301.476 55.4105 300.922 57.1144C300.298 59.0324 299.556 57.0459 298.583 59.0838L298.566 59.0924ZM108.957 287.541C109.793 287.404 110.1 287.19 109.785 286.299C108.948 286.547 108.957 286.496 108.957 287.541ZM124.321 276.829C125.465 276.752 125.328 276.726 125.61 275.605C124.39 275.724 124.39 275.493 124.321 276.829ZM133.643 259.404C134.18 259.404 134.53 258.993 134.744 258.231L133.352 258.069L133.643 259.404ZM111.56 284.929C111.697 283.636 111.765 283.371 110.211 283.662C110.117 284.981 110.288 284.903 111.56 284.929ZM196.023 132.191L197.346 132.037C196.877 130.941 196.612 130.709 195.178 130.615L196.023 132.191ZM140.872 253.085C141.76 253.017 142.136 253.162 142.477 252.443C142.819 251.724 142.349 251.587 142.008 251.287C141.231 251.878 141.043 251.775 140.872 253.085ZM124.646 279.458L124.714 280.16C126.046 280.614 127.019 280.006 127.249 278.798C126.66 278.499 124.552 278.533 124.654 279.466L124.646 279.458ZM168.998 215.042C170.236 215.359 170.791 214.982 171.295 213.937L170.97 212.97C169.425 213.321 169.092 213.501 168.998 215.042ZM127.241 276.204C127.241 277.231 127.07 278.978 128.794 277.531L129.392 276.975C129.929 276.367 129.725 277.463 129.784 275.998C128.956 275.502 128.009 275.75 127.241 276.204ZM188.452 142.192C187.291 144.76 188.768 145.831 189.911 144.315C190.082 144.093 191.192 141.926 188.452 142.192ZM94.3857 320.095C95.1027 319.719 95.5466 319.316 95.538 318.237C95.521 316.833 95.0685 317.201 94.1723 316.893C93.0797 317.749 92.8748 319.154 94.3942 320.095H94.3857ZM122.93 269.517C123.963 269.988 124.176 269.731 125.013 269.294L125.397 270.484C127.138 270.013 124.774 270.852 125.397 270.484C125.508 270.416 125.721 270.304 126.08 270.142C128 269.26 127.164 270.424 128.734 269.679C128.299 268.583 128.248 268.969 126.805 268.438L126.541 266.588C125.098 266.477 123.092 268.078 122.93 269.517ZM284.106 78.5293C285.48 77.9471 287.52 76.2003 288.263 75.2755C288.929 74.4278 288.971 73.7172 289.202 72.7239C289.731 70.4035 290.192 72.878 289.953 69.7527L286.709 73.7343C285.429 75.0015 284.208 76.6113 284.114 78.5293H284.106ZM118.756 278.875C120.873 277.779 119.908 278.499 121.632 276.461C122.349 275.613 122.879 275.562 123.109 273.669C121.12 273.669 121.513 275.048 120.292 275.99C116.997 278.533 120.89 277.428 115.819 281.419L115.179 281.958C114.223 282.84 114.274 282.309 114.479 283.165C114.607 283.679 115.222 284.141 116.178 283.559C116.519 283.354 117.484 281.941 117.749 281.598C118.653 280.451 118.781 280.579 118.747 278.858L118.756 278.875Z"
          fill="url(#paint0_linear_221_24)"/>
    <defs>
        <linearGradient id="paint0_linear_221_24" x1="208.298" y1="-46.9974" x2="13.8333" y2="425.033"
                        gradientUnits="userSpaceOnUse">
            <stop stop-color="#D1000F"/>
            <stop offset="0.14" stop-color="#CC000F"/>
            <stop offset="0.29" stop-color="#C0030F"/>
            <stop offset="0.43" stop-color="#AC080F"/>
            <stop offset="0.58" stop-color="#900E0F"/>
            <stop offset="0.72" stop-color="#6B160F"/>
            <stop offset="0.87" stop-color="#3F200F"/>
            <stop offset="1" stop-color="#102B10"/>
        </linearGradient>
    </defs>
</svg>
