<svg viewBox="0 0 512 512" fill="none" xmlns="http://www.w3.org/2000/svg">
<path d="M105.673 269.437C105.673 294.876 88.7535 314.418 66.3051 314.418C55.3941 314.418 46.2238 309.701 39.7428 301.785V346.427H19.5049V225.972H39.7428V236.922C46.2238 229.004 55.3941 224.287 66.3051 224.287C88.7535 224.287 105.673 243.83 105.673 269.437ZM84.8023 269.437C84.8023 254.949 75.1592 244.166 62.3509 244.166C49.5425 244.166 39.7428 254.949 39.7428 269.437C39.7428 283.757 49.5425 294.706 62.3509 294.706C75.1592 294.706 84.8023 283.757 84.8023 269.437Z" fill="#DC301B"/>
<path d="M113.59 201.376C113.59 192.278 120.547 185.034 128.928 185.034C137.463 185.034 144.42 192.278 144.42 201.376C144.42 210.305 137.463 217.549 128.928 217.549C120.547 217.549 113.59 210.305 113.59 201.376ZM118.809 312.734V225.972C121.972 227.488 125.29 228.331 128.928 228.331C132.563 228.331 135.885 227.488 139.047 225.972V312.734H118.809Z" fill="#DC301B"/>
<path d="M218.106 190.594H238.344V312.734H218.106V301.952C211.625 309.702 202.611 314.419 191.544 314.419C169.252 314.419 152.176 294.876 152.176 269.437C152.176 243.83 169.252 224.288 191.544 224.288C202.611 224.288 211.625 229.005 218.106 236.754V190.594ZM218.106 269.437C218.106 254.949 208.463 244.167 195.655 244.167C182.846 244.167 173.203 254.949 173.203 269.437C173.203 283.757 182.846 294.706 195.655 294.706C208.463 294.706 218.106 283.757 218.106 269.437Z" fill="#DC301B"/>
<path d="M479.44 165.791H291.436C282.922 165.791 276.019 173.146 276.019 182.219V296.406C276.019 305.478 282.922 312.833 291.436 312.833H479.44C487.955 312.833 494.857 305.478 494.857 296.406V182.219C494.857 173.146 487.955 165.791 479.44 165.791Z" fill="#43B02A"/>
<path d="M105.673 269.437C105.673 294.876 88.7535 314.418 66.3051 314.418C55.3941 314.418 46.2238 309.701 39.7428 301.785V346.427H19.5049V225.972H39.7428V236.922C46.2238 229.004 55.3941 224.287 66.3051 224.287C88.7535 224.287 105.673 243.83 105.673 269.437ZM84.8023 269.437C84.8023 254.949 75.1592 244.166 62.3509 244.166C49.5425 244.166 39.7428 254.949 39.7428 269.437C39.7428 283.757 49.5425 294.706 62.3509 294.706C75.1592 294.706 84.8023 283.757 84.8023 269.437Z" fill="#DC301B"/>
<path d="M113.59 201.376C113.59 192.278 120.547 185.034 128.928 185.034C137.463 185.034 144.42 192.278 144.42 201.376C144.42 210.305 137.463 217.549 128.928 217.549C120.547 217.549 113.59 210.305 113.59 201.376ZM118.809 312.734V225.972C121.972 227.488 125.29 228.331 128.928 228.331C132.563 228.331 135.885 227.488 139.047 225.972V312.734H118.809Z" fill="#DC301B"/>
<path d="M218.106 190.594H238.344V312.734H218.106V301.952C211.625 309.702 202.611 314.419 191.544 314.419C169.252 314.419 152.176 294.876 152.176 269.437C152.176 243.83 169.252 224.288 191.544 224.288C202.611 224.288 211.625 229.005 218.106 236.754V190.594ZM218.106 269.437C218.106 254.949 208.463 244.167 195.655 244.167C182.846 244.167 173.203 254.949 173.203 269.437C173.203 283.757 182.846 294.706 195.655 294.706C208.463 294.706 218.106 283.757 218.106 269.437Z" fill="#DC301B"/>
<path d="M479.44 165.791H291.436C282.922 165.791 276.019 173.146 276.019 182.219V296.406C276.019 305.478 282.922 312.833 291.436 312.833H479.44C487.955 312.833 494.857 305.478 494.857 296.406V182.219C494.857 173.146 487.955 165.791 479.44 165.791Z" fill="#43B02A"/>
<path d="M301.148 229.005V190.603H307.382V229.005H301.148Z" fill="white"/>
<path d="M312.486 198.958L317.651 190.654H324.564L318.72 198.958H312.486ZM313.461 229.005V202.279H319.695V229.005H313.461Z" fill="white"/>
<path d="M322.701 208.144V202.279H327.436V194.755H333.67V202.279H340.244V208.144H333.67V219.197C333.67 221.895 334.79 223.142 337.369 223.142H340.244V229.005H337.369C330.55 229.005 327.436 225.632 327.436 218.782V208.144H322.701Z" fill="white"/>
<path d="M365.855 211.983V229.005H359.621V225.58C357.869 227.916 354.944 229.525 351.534 229.525C346.813 229.525 343.353 226.617 343.353 221.895C343.353 215.928 348.272 213.904 352.946 213.384L357.183 212.97C358.841 212.814 359.621 212.139 359.621 210.686C359.621 208.61 357.818 207.261 355.286 207.261C352.607 207.261 350.754 208.766 350.27 211.517L344.083 210.011C344.863 205.289 349.005 201.76 355.239 201.76C361.278 201.76 365.855 205.081 365.855 211.983ZM359.621 217.744V217.121C359.133 217.485 358.353 217.641 357.233 217.796L352.899 218.314C350.902 218.574 349.587 219.665 349.587 221.377C349.587 223.09 350.902 224.231 352.997 224.231C356.651 224.231 359.621 221.118 359.621 217.744Z" fill="white"/>
<path d="M389.039 218.937L394.736 221.013C392.644 226.463 388.064 229.524 382.705 229.524C375.109 229.524 369.315 223.503 369.315 215.668C369.315 207.78 375.109 201.759 382.705 201.759C388.064 201.759 392.644 204.874 394.736 210.27L389.039 212.347C387.869 209.493 385.532 207.884 382.705 207.884C378.764 207.884 375.791 211.205 375.791 215.668C375.791 220.078 378.764 223.452 382.705 223.452C385.532 223.452 387.869 221.791 389.039 218.937ZM386.165 198.957H379.201L373.697 190.654H379.541L382.705 194.859L385.825 190.654H391.669L386.165 198.957Z" fill="white"/>
<path d="M423.839 229.005H415.947L408.251 218.47L404.892 222.363V229.005H398.658V190.603H404.892V213.592L414.29 202.279H422.084L412.488 213.488L423.839 229.005Z" fill="white"/>
<path d="M446.526 211.983V229.005H440.292V225.58C438.537 227.916 435.618 229.525 432.208 229.525C427.481 229.525 424.024 226.617 424.024 221.895C424.024 215.928 428.944 213.904 433.621 213.384L437.858 212.97C439.512 212.814 440.292 212.139 440.292 210.686C440.292 208.61 438.49 207.261 435.958 207.261C433.278 207.261 431.428 208.766 430.941 211.517L424.757 210.011C425.534 205.289 429.673 201.76 435.908 201.76C441.947 201.76 446.526 205.081 446.526 211.983ZM440.292 217.744V217.121C439.805 217.485 439.028 217.641 437.905 217.796L433.571 218.314C431.573 218.574 430.259 219.665 430.259 221.377C430.259 223.09 431.573 224.231 433.668 224.231C437.32 224.231 440.292 221.118 440.292 217.744Z" fill="white"/>
</svg>
