<?xml version="1.0" encoding="UTF-8"?>
<!DOCTYPE svg PUBLIC "-//W3C//DTD SVG 1.1//EN" "http://www.w3.org/Graphics/SVG/1.1/DTD/svg11.dtd">
<!-- Creator: CorelDRAW 2020 (64-Bit) -->
<svg xmlns="http://www.w3.org/2000/svg" xml:space="preserve" width="1.2693mm" height="1.1393mm" version="1.1" style="shape-rendering:geometricPrecision; text-rendering:geometricPrecision; image-rendering:optimizeQuality; fill-rule:evenodd; clip-rule:evenodd"
viewBox="0 0 126.92 113.92"
 xmlns:xlink="http://www.w3.org/1999/xlink"
 xmlns:xodm="http://www.corel.com/coreldraw/odm/2003">
 <defs>
  <style type="text/css">
   <![CDATA[
    .fil0 {fill:#804B3A;fill-rule:nonzero}
   ]]>
  </style>
 </defs>
 <g id="Слой_x0020_1">
  <metadata id="CorelCorpID_0Corel-Layer"/>
  <g id="_2583625518944">
   <path class="fil0" d="M15.39 76.35l0 -11.24c0,-0.33 0.2,-0.65 0.53,-0.79 0.43,-0.19 0.94,0.02 1.13,0.45 2.22,5.22 6.58,10.16 11.8,13.32 2.77,1.69 5.79,2.86 8.84,3.3 3.02,0.43 6.08,0.14 8.99,-1.1 3.43,-1.46 6.67,-4.26 9.41,-8.76 0.19,-0.35 0.61,-0.53 1.01,-0.41 0.45,0.14 0.7,0.63 0.57,1.08 -1.67,5.36 -4.6,10.99 -9.82,14.41 -5.22,3.43 -12.67,4.62 -23.32,1.11l-0.01 0c-7.22,-2.48 -12.21,-4.11 -15.89,-5.21 -3.65,-1.09 -5.99,-1.66 -7.9,-2.02 -0.35,-0.06 -0.65,-0.34 -0.71,-0.71 -0.08,-0.47 0.24,-0.91 0.71,-0.99l14.66 -2.44zm46.48 36.34c-8.46,-9.16 1.06,-15.78 1.09,-15.81 0.29,-0.21 0.7,-0.22 1.01,0 0.03,0.02 9.56,6.65 1.09,15.81l-0.53 0.55 -0.49 0.46c-0.32,0.29 -0.81,0.3 -1.14,0.01 -0.37,-0.35 -0.68,-0.65 -1.03,-1.02zm21.74 -17.3l0.44 0.06c0.14,0.02 0.28,0.08 0.4,0.17 0.37,0.29 0.44,0.83 0.15,1.21 -2.06,2.63 -4.35,4.03 -6.65,4.43 -2.2,0.38 -4.38,-0.14 -6.39,-1.37 -1.95,-1.19 -3.72,-3.05 -5.17,-5.37 -1.06,-1.7 -1.94,-3.66 -2.59,-5.78 -0.64,2.12 -1.52,4.08 -2.58,5.78 -1.45,2.32 -3.22,4.18 -5.17,5.37 -2.01,1.23 -4.2,1.75 -6.4,1.37 -2.29,-0.4 -4.58,-1.8 -6.64,-4.43 -0.29,-0.38 -0.22,-0.92 0.15,-1.21 0.12,-0.09 0.26,-0.15 0.4,-0.17l0.46 -0.06c2.87,-0.34 14.88,-1.78 18.94,-18.99l0 -0.01 0.01 -0.01 0 -0.01 0 -0.01 0.01 -0.01 0 0 0 -0.02 0 0 0.01 -0.02 0 0 0 -0.01 0.01 -0.01 0 -0.01 0 -0.01 0.04 -0.08 0 0 0.02 -0.03 0 -0.01 0.01 0 0 -0.02 0 0 0.02 -0.03 0.01 0 0 -0.01 0.01 -0.01 0.01 -0.02 0 0 0.01 -0.01 0.01 -0.02 0.01 0 0 -0.01 0.01 0 0.01 -0.01 0 -0.01 0.01 0 0.01 -0.01 0 -0.01 0.01 -0.01 0 0 0.01 -0.01 0.01 0 0.01 -0.01 0 -0.01 0.01 0 0.01 -0.01 0 0 0.01 -0.01 0.01 0 0.01 -0.01 0 -0.01 0.01 0 0.01 -0.01 0.01 -0.01 0 0 0.01 0 0.01 -0.01 0 0 0.03 -0.02 0.01 0 0.01 -0.01 0.01 -0.01 0 0 0.01 0 0.01 -0.01 0.01 0 0 -0.01 0.02 0 0 0 0.02 -0.01 0 0 0.01 -0.01 0.01 0 0.01 0 0.01 -0.01 0.01 0 0.01 0 0 -0.01 0.02 0 0 0 0.02 -0.01 0 0 0.01 0 0.01 0 0.01 -0.01 0.01 0 0.01 0 0.01 0 0.01 -0.01 0.01 0 0.01 0 0.01 0 0.01 0 0.01 -0.01 0.02 0 0 0 0.02 0 0 0 0.02 0 0 0 0.02 0 0 0 0.02 0 0 0 0.02 0 0.01 0 0.01 0 0.01 0 0.02 0 0 0 0.02 0 0 0 0.02 0 0 0 0.02 0 0 0 0.02 0 0.01 0.01 0.01 0 0.01 0 0.01 0 0.01 0 0.01 0.01 0.01 0 0.01 0 0.01 0 0.01 0.01 0.01 0 0.01 0 0 0 0.02 0.01 0 0 0.02 0 0 0.01 0.01 0 0.01 0 0.01 0.01 0.01 0 0.01 0 0.01 0.01 0 0 0.02 0.01 0 0 0.01 0 0.01 0.01 0.01 0 0.01 0.01 0.01 0 0.01 0.01 0.01 0.01 0.01 0 0.01 0.01 0 0 0.01 0 0.01 0.01 0.01 0.01 0 0 0.01 0 0.01 0.01 0.01 0.01 0.01 0 0 0.01 0.01 0.01 0 0 0.02 0.01 0 0 0.01 0.01 0.01 0 0 0.01 0.01 0.01 0.01 0 0.01 0.01 0 0 0.01 0.01 0 0.01 0.01 0.01 0.01 0 0 0.01 0.01 0.01 0 0 0.01 0.01 0.01 0 0.01 0.02 0.01 0.01 0 0 0.01 0.01 0 0.01 0.01 0.01 0 0.01 0.01 0 0.01 0.02 0 0 0.01 0.01 0 0 0 0.02 0.01 0 0 0.01 0.02 0.03 0 0 0.01 0.03 0.01 0.01 0 0.01 0.01 0.01 0 0.02 0 0 0.01 0.01 0 0.01 0.01 0.01 0 0.01 0 0 0.01 0.02 0 0 0 0.02 0 0 0.01 0.01 0 0.01 0 0.01 0 0.01 0 0.01 0.01 0.01c4.07,17.2 16.07,18.64 18.94,18.98l0.02 0zm27.93 -30.28l0 11.24 14.66 2.44c0.47,0.08 0.79,0.52 0.71,0.99 -0.06,0.37 -0.36,0.65 -0.71,0.71 -1.91,0.36 -4.25,0.93 -7.9,2.02 -3.67,1.1 -8.67,2.73 -15.89,5.21l-0.01 0c-10.65,3.51 -18.1,2.32 -23.32,-1.11 -5.22,-3.42 -8.15,-9.05 -9.81,-14.41 -0.14,-0.45 0.11,-0.94 0.57,-1.08 0.39,-0.12 0.81,0.06 1,0.41 2.74,4.5 5.98,7.3 9.41,8.76 2.91,1.24 5.97,1.53 8.99,1.1 3.06,-0.44 6.07,-1.61 8.85,-3.3 5.21,-3.16 9.57,-8.1 11.8,-13.32 0.18,-0.43 0.69,-0.64 1.13,-0.45 0.32,0.14 0.52,0.46 0.52,0.79z"/>
   <path class="fil0" d="M15.39 37.58l0 11.24c0,0.33 0.2,0.65 0.53,0.79 0.43,0.19 0.94,-0.02 1.13,-0.45 2.22,-5.22 6.58,-10.16 11.8,-13.32 2.77,-1.69 5.79,-2.86 8.84,-3.3 3.02,-0.43 6.08,-0.14 8.99,1.1 3.43,1.46 6.67,4.26 9.41,8.76 0.19,0.35 0.61,0.53 1.01,0.41 0.45,-0.14 0.7,-0.63 0.57,-1.08 -1.67,-5.36 -4.6,-10.99 -9.82,-14.41 -5.22,-3.43 -12.67,-4.62 -23.32,-1.11l-0.01 0c-7.22,2.48 -12.21,4.11 -15.89,5.21 -3.65,1.09 -5.99,1.66 -7.9,2.02 -0.35,0.06 -0.65,0.34 -0.71,0.71 -0.08,0.47 0.24,0.91 0.71,0.99l14.66 2.44zm46.48 -36.34c-8.46,9.16 1.06,15.78 1.09,15.81 0.29,0.21 0.7,0.22 1.01,0 0.03,-0.02 9.56,-6.65 1.09,-15.81l-0.53 -0.55 -0.49 -0.46c-0.32,-0.29 -0.81,-0.3 -1.14,-0.01 -0.37,0.35 -0.68,0.65 -1.03,1.02zm21.74 17.3l0.44 -0.06c0.14,-0.02 0.28,-0.08 0.4,-0.17 0.37,-0.29 0.44,-0.83 0.15,-1.21 -2.06,-2.63 -4.35,-4.03 -6.65,-4.43 -2.2,-0.38 -4.38,0.14 -6.39,1.37 -1.95,1.19 -3.72,3.05 -5.17,5.37 -1.06,1.7 -1.94,3.66 -2.59,5.78 -0.64,-2.12 -1.52,-4.08 -2.58,-5.78 -1.45,-2.32 -3.22,-4.18 -5.17,-5.37 -2.01,-1.23 -4.2,-1.75 -6.4,-1.37 -2.29,0.4 -4.58,1.8 -6.64,4.43 -0.29,0.38 -0.22,0.92 0.15,1.21 0.12,0.09 0.26,0.15 0.4,0.17l0.46 0.06c2.87,0.34 14.88,1.78 18.94,18.99l0 0.01 0.01 0.01 0 0.01 0 0.01 0.01 0.01 0 0 0 0.02 0 0 0.01 0.02 0 0 0 0.01 0.01 0.01 0 0.01 0 0.01 0.04 0.08 0 0 0.02 0.03 0 0.01 0.01 0 0 0.02 0 0 0.02 0.03 0.01 0 0 0.01 0.01 0.01 0.01 0.02 0 0 0.01 0.01 0.01 0.02 0.01 0 0 0.01 0.01 0 0.01 0.01 0 0.01 0.01 0 0.01 0.01 0 0.01 0.01 0.01 0 0 0.01 0.01 0.01 0 0.01 0.01 0 0.01 0.01 0 0.01 0.01 0 0 0.01 0.01 0.01 0 0.01 0.01 0 0.01 0.01 0 0.01 0.01 0.01 0.01 0 0 0.01 0 0.01 0.01 0 0 0.03 0.02 0.01 0 0.01 0.01 0.01 0.01 0 0 0.01 0 0.01 0.01 0.01 0 0 0.01 0.02 0 0 0 0.02 0.01 0 0 0.01 0.01 0.01 0 0.01 0 0.01 0.01 0.01 0 0.01 0 0 0.01 0.02 0 0 0 0.02 0.01 0 0 0.01 0 0.01 0 0.01 0.01 0.01 0 0.01 0 0.01 0 0.01 0.01 0.01 0 0.01 0 0.01 0 0.01 0 0.01 0.01 0.02 0 0 0 0.02 0 0 0 0.02 0 0 0 0.02 0 0 0 0.02 0 0 0 0.02 0 0.01 0 0.01 0 0.01 0 0.02 0 0 0 0.02 0 0 0 0.02 0 0 0 0.02 0 0 0 0.02 0 0.01 -0.01 0.01 0 0.01 0 0.01 0 0.01 0 0.01 -0.01 0.01 0 0.01 0 0.01 0 0.01 -0.01 0.01 0 0.01 0 0 0 0.02 -0.01 0 0 0.02 0 0 -0.01 0.01 0 0.01 0 0.01 -0.01 0.01 0 0.01 0 0.01 -0.01 0 0 0.02 -0.01 0 0 0.01 0 0.01 -0.01 0.01 0 0.01 -0.01 0.01 0 0.01 -0.01 0.01 -0.01 0.01 0 0.01 -0.01 0 0 0.01 0 0.01 -0.01 0.01 -0.01 0 0 0.01 0 0.01 -0.01 0.01 -0.01 0.01 0 0 -0.01 0.01 -0.01 0 0 0.02 -0.01 0 0 0.01 -0.01 0.01 0 0 -0.01 0.01 -0.01 0.01 0 0.01 -0.01 0 0 0.01 -0.01 0 -0.01 0.01 -0.01 0.01 0 0 -0.01 0.01 -0.01 0 0 0.01 -0.01 0.01 0 0.01 -0.02 0.01 -0.01 0 0 0.01 -0.01 0 -0.01 0.01 -0.01 0 -0.01 0.01 0 0.01 -0.02 0 0 0.01 -0.01 0 0 0 -0.02 0.01 0 0 -0.01 0.02 -0.03 0 0 0.01 -0.03 0.01 -0.01 0 -0.01 0.01 -0.01 0 -0.02 0 0 0.01 -0.01 0 -0.01 0.01 -0.01 0 -0.01 0 0 0.01 -0.02 0 0 0 -0.02 0 0 0.01 -0.01 0 -0.01 0 -0.01 0 -0.01 0 -0.01 0.01 -0.01c4.07,-17.2 16.07,-18.64 18.94,-18.98l0.02 0zm27.93 30.28l0 -11.24 14.66 -2.44c0.47,-0.08 0.79,-0.52 0.71,-0.99 -0.06,-0.37 -0.36,-0.65 -0.71,-0.71 -1.91,-0.36 -4.25,-0.93 -7.9,-2.02 -3.67,-1.1 -8.67,-2.73 -15.89,-5.21l-0.01 0c-10.65,-3.51 -18.1,-2.32 -23.32,1.11 -5.22,3.42 -8.15,9.05 -9.81,14.41 -0.14,0.45 0.11,0.94 0.57,1.08 0.39,0.12 0.81,-0.06 1,-0.41 2.74,-4.5 5.98,-7.3 9.41,-8.76 2.91,-1.24 5.97,-1.53 8.99,-1.1 3.06,0.44 6.07,1.61 8.85,3.3 5.21,3.16 9.57,8.1 11.8,13.32 0.18,0.43 0.69,0.64 1.13,0.45 0.32,-0.14 0.52,-0.46 0.52,-0.79z"/>
  </g>
 </g>
</svg>
