<svg width="128" height="128" viewBox="0 0 128 128" fill="none" xmlns="http://www.w3.org/2000/svg">
    <rect width="128" height="128" rx="32" fill="white"/>
    <path fill-rule="evenodd" clip-rule="evenodd" d="M65.9544 10.2762C64.8708 9.20703 63.1292 9.20703 62.0456 10.2762L2.00564 69.5164C0.902028 70.6053 0.901205 72.3862 2.00381 73.4761L15.5373 86.854C16.6213 87.9256 18.3656 87.9256 19.4497 86.854L62.0438 44.7496C63.1278 43.678 64.8722 43.678 65.9562 44.7496L108.55 86.854C109.634 87.9256 111.379 87.9256 112.463 86.854L125.996 73.4761C127.099 72.3862 127.098 70.6053 125.994 69.5164L65.9544 10.2762Z" fill="#1D222A"/>
    <rect width="24.5977" height="47.4583" rx="2.78261" transform="matrix(-0.711183 0.703007 0.711183 0.703007 63.166 68.9973)" fill="#2AB19C"/>
</svg>
