<svg width="64" height="64" viewBox="0 0 64 64" fill="none" xmlns="http://www.w3.org/2000/svg">
<rect width="64" height="64" fill="none"/>
<path fill-rule="evenodd" clip-rule="evenodd" d="M41.343 26.5063C45.0501 32.095 43.099 39.5787 41.8408 42.6624C41.8117 42.7341 41.7511 42.9247 42.0673 42.7947C46.7433 41.2114 46.7186 30.7987 41.5381 26.3785C41.5381 26.3785 41.0828 26.1094 41.3452 26.5063H41.343ZM33.386 49.6975C28.6899 50.6798 23.8503 51.1373 20.5132 51.9514C18.1764 52.5098 17.3063 53.916 16.1244 54.2187C14.7541 54.5686 14.1935 53.4719 14.8124 52.3349C14.9874 51.8796 15.1869 51.3302 14.9806 50.5498C14.3729 48.3834 12.2513 46.356 10.6994 40.635C9.14749 34.9118 10.372 33.4473 9.78441 31.3504C9.29999 29.6326 7.73911 30.4422 7.4072 29.258C6.92503 27.5379 11.9979 27.2352 13.2695 26.9279C17.5642 25.8873 21.6233 24.1067 25.8956 22.9719C30.1903 21.9111 34.6397 21.5142 38.9007 20.3637C40.1633 20.0228 44.7159 17.8609 45.1958 19.581C45.53 20.7651 43.7538 20.81 44.2337 22.5301C44.8235 24.627 46.6468 25.3087 48.2952 31.0073C49.9458 36.7014 49.1698 39.4733 49.7776 41.6397C50.0041 42.4157 50.4683 42.7969 50.8585 43.1042C51.9888 43.7949 52.074 45.0127 50.7038 45.3625C49.5241 45.6653 48.0328 44.8646 45.7206 45.4948C42.4037 46.3852 37.9745 48.3026 33.3905 49.6975H33.386ZM14.7137 23.0952C14.6801 22.9338 14.6397 22.779 14.5994 22.6243C14.1127 20.9064 12.5518 21.7183 12.2199 20.5341C11.7378 18.814 16.8106 18.5113 18.0844 18.2018C21.3924 17.4034 25.9472 15.5039 30.7128 14.248C35.4941 13.0594 40.4324 12.5256 43.7134 11.6398C44.9783 11.2989 49.5286 9.137 50.013 10.8549C50.3427 12.039 48.571 12.0838 49.0487 13.8062C49.7305 16.161 51.6457 19.0899 52.6055 22.4112C53.7201 26.2529 53.8861 30.4893 54.5903 32.9136C54.819 33.6895 55.281 34.0708 55.669 34.3803C56.8015 35.0732 56.8912 36.4928 55.5187 36.8449C54.7899 37.0311 53.7717 37.3361 52.6078 37.3226C52 37.3159 51.7623 37.058 51.6928 36.605C51.4326 34.8535 51.1119 32.4381 50.549 30.5094C50.0444 28.7602 48.9366 25.9143 47.9274 24.3489C47.369 23.4855 46.6379 22.4426 47.2052 21.7519C48.1718 20.5678 47.8511 18.7086 46.8621 17.6052C45.7699 16.3785 43.8816 16.4166 41.8902 16.928C40.9595 17.1657 39.9525 17.5357 39.1496 17.8317C38.7191 17.9887 38.3535 18.1255 38.2503 18.1524C36.8397 18.5337 34.8684 18.8791 32.7132 19.2558C30.428 19.6573 27.9364 20.0923 25.2856 20.7517L25.2654 20.7562C22.6236 21.4514 20.2396 22.2655 18.0531 23.0123C17.3376 23.2545 16.6402 23.4922 15.9831 23.7097C15.9831 23.7097 14.938 24.1112 14.716 23.0952H14.7137Z" fill="#E62C4F"/>
</svg>
