<?xml version="1.0" encoding="UTF-8" standalone="no"?> <svg xmlns="http://www.w3.org/2000/svg" width="946.000000pt" height="946.000000pt" viewBox="0 0 946.000000 946.000000" preserveAspectRatio="xMidYMid meet"> <metadata> Created by potrace 1.16, written by Peter Selinger 2001-2019 </metadata> <g transform="translate(0.000000,946.000000) scale(0.100000,-0.100000)" fill="#000000" stroke="none"> <path d="M3358 2543 l-58 -4 0 -324 0 -325 118 0 c128 0 190 13 242 50 40 28 69 91 70 148 0 53 -32 119 -65 134 -28 13 -32 23 -10 31 23 10 55 83 55 129 0 103 -69 156 -211 162 -46 2 -110 2 -141 -1z m208 -404 c20 -17 17 -66 -6 -89 -14 -14 -33 -20 -65 -20 l-45 0 0 66 0 67 51 -6 c28 -4 57 -12 65 -18z"></path> <path d="M4025 2526 c-78 -33 -156 -113 -181 -188 -24 -69 -24 -177 -1 -245 36 -105 134 -182 260 -203 158 -28 308 44 374 178 25 50 28 68 28 152 0 84 -3 102 -28 152 -57 116 -149 170 -297 175 -83 3 -102 1 -155 -21z m234 -137 c52 -29 84 -80 89 -144 6 -74 -4 -119 -35 -156 -90 -106 -255 -82 -314 46 -43 93 -10 203 76 256 42 27 136 26 184 -2z"></path> <path d="M4692 2543 l-62 -4 2 -322 3 -322 114 -3 c133 -3 203 13 255 58 47 41 59 77 54 156 -4 62 -7 69 -41 101 l-38 34 25 30 c50 59 54 160 9 211 -44 50 -158 72 -321 61z m211 -414 c23 -29 22 -45 -8 -74 -18 -19 -35 -25 -70 -25 l-45 0 0 66 0 67 53 -6 c36 -5 57 -13 70 -28z"></path> <path d="M7339 2540 c-128 -23 -202 -106 -202 -225 0 -67 16 -106 64 -154 l31 -31 -66 -103 c-93 -146 -93 -137 1 -137 l79 0 60 103 c58 97 62 102 97 105 l37 3 0 -105 0 -106 70 0 c49 0 70 4 70 13 2 64 -1 631 -3 633 -8 7 -201 11 -238 4z m85 -136 c13 -5 16 -22 16 -85 l0 -79 -40 0 c-61 0 -98 23 -106 65 -13 69 61 126 130 99z"></path> <path d="M1870 2229 c1 -172 4 -318 7 -325 4 -10 25 -14 74 -14 l69 0 0 255 0 255 115 0 115 0 0 -255 0 -255 75 0 75 0 0 325 0 325 -265 0 -266 0 1 -311z"></path> <path d="M2568 2215 l3 -326 62 3 62 3 140 196 140 196 5 -196 5 -196 73 -3 72 -3 0 326 0 325 -67 -1 -68 0 -130 -185 c-71 -102 -136 -190 -142 -196 -10 -8 -13 30 -13 186 l0 196 -72 0 -73 0 3 -325z"></path> <path d="M5376 2508 c-8 -18 -67 -159 -131 -313 -64 -154 -119 -286 -122 -292 -4 -10 14 -13 70 -13 l75 0 28 70 27 71 130 -3 130 -3 21 -55 c31 -82 29 -80 113 -80 67 0 74 2 69 18 -4 9 -64 155 -134 324 l-127 308 -68 0 c-67 0 -68 0 -81 -32z"></path> <path d="M5880 2215 l0 -325 70 0 70 0 0 110 0 110 53 0 c179 0 289 117 256 273 -9 40 -21 61 -53 92 -56 55 -98 65 -260 65 l-136 0 0 -325z m242 185 c58 -17 77 -74 39 -121 -16 -20 -28 -23 -77 -24 l-59 0 -3 72 c-3 68 -2 72 20 76 39 7 42 7 80 -3z"></path> <path d="M6460 2215 l0 -325 70 0 c49 0 70 4 70 13 1 6 2 66 3 132 l2 120 118 3 117 3 0 -136 0 -135 75 0 75 0 0 325 0 325 -75 0 -75 0 0 -125 0 -126 -117 3 -118 3 -2 115 c-1 63 -3 118 -3 123 0 4 -31 7 -70 7 l-70 0 0 -325z"></path> </g> </svg> 