<?xml version="1.0" encoding="UTF-8"?>
<svg width="60.917mm" height="72.752mm" clip-rule="evenodd" fill-rule="evenodd" image-rendering="optimizeQuality" shape-rendering="geometricPrecision" text-rendering="geometricPrecision" version="1.1" viewBox="0 0 6091.7 7275.2" xml:space="preserve" xmlns="http://www.w3.org/2000/svg">
 <defs>
  <style type="text/css">
   <![CDATA[
    .fil0 {fill:black;fill-rule:nonzero}
    .fil2 {fill:#FF6600;fill-rule:nonzero}
    .fil1 {fill:url(#id0);fill-rule:nonzero}
   ]]>
  </style>
  <linearGradient id="id0" x1="12871" x2="18792" y1="12218" y2="6680.1" gradientUnits="userSpaceOnUse">
   <stop stop-color="#66f" offset="0"/>
   <stop stop-color="#0cf" offset="1"/>
  </linearGradient>
 </defs>
 <g transform="translate(-11804 -6862.4)">
  
  <g fill-rule="nonzero">
   <path class="fil0" d="m11804 13357h194.37l47.63-122.4h257.25l48.6 122.4h198.17l-283.92-690.35h-178.17zm296.31-270.27 75.28-194.87 74.31 194.87zm1082.1 290.83 93.38-106.73-68.6-59.73c38.11-55.82 59.07-124.37 59.07-196.83 0-198.78-152.44-356.43-358.25-356.43-205.79 0-360.14 159.6-360.14 356.43 0 198.79 152.43 356.44 358.25 356.44 76.21 0 145.76-22.52 202.93-60.71zm-274.4-175.28c-101.94 0-170.54-87.14-170.54-186.05 0-100.86 67.65-187.04 168.65-187.04 102.9 0 172.44 87.16 172.44 187.04 0 25.46-3.81 47.98-11.43 68.54l-90.51-84.21-93.38 107.71 92.42 81.29c-20.01 7.82-42.87 12.72-67.65 12.72zm773.67 167.45c189.61 0 312.5-96.94 312.5-318.25v-379.94h-187.69v385.82c0 95.91-48.59 141.01-122.9 141.01-74.33 0-122.92-47.01-122.92-145.9v-380.93h-187.7v384.84c0 214.4 119.11 313.35 308.71 313.35zm341.78-12.73h194.36l47.64-122.4h257.24l48.6 122.4h198.18l-283.93-690.35h-178.17zm296.31-270.27 75.27-194.87 74.32 194.87zm800.41 283.98c121.01 0 219.14-46.03 289.65-105.76v-308.46h-306.8v139.06h131.49v83.23c-27.64 18.6-61.93 28.4-106.72 28.4-105.76 0-181.02-79.32-181.02-189.97 0-106.73 74.31-189.97 170.55-189.97 65.74 0 113.38 23.5 161.01 64.62l108.63-134.15c-70.51-62.67-153.4-99.87-270.6-99.87-206.75 0-359.19 156.66-359.19 356.43 0 209.55 155.3 356.44 363 356.44zm435.69-13.71h185.8v-685.46h-185.8zm326.12 0h589.77v-160.59h-334.42l334.42-386.79v-138.08h-578.33v160.59h322.98l-334.42 386.8zm725.34 0h541.18v-161.57h-358.24v-108.7h320.12v-149.81h-320.12v-103.8h353.48v-161.58h-536.42zm674.83 0h184.84v-207.6h80.98l134.34 207.6h213.43l-159.11-238.93c82.88-36.24 137.19-105.76 137.19-210.53 0-69.53-20.04-122.45-59.07-162.56-44.75-45.98-115.38-73.44-217.23-73.44h-315.37zm184.84-356.44v-164.5h121c61.93 0 100.04 27.41 100.04 81.27 0 51.89-36.28 83.23-99.09 83.23z"/>
   <path class="fil1" d="m14816 6862.4c1630.2 0 2951.9 1321.6 2951.9 2951.9l-0.05 3.79v1826.1h-933.9v-1826.2l0.04-3.74c0-34.82-0.9-69.45-2.6-103.84-861.19 99.43-1312.7-286.32-2070.1 71.82l149.27-410.16 37.37-102.65c672.65-318.07 1104.1-49.41 1795.4-54.96-255.43-821.58-1021.7-1418.2-1927.4-1418.2-1114.5 0-2018 903.49-2018 2018l0.04 3.74v1826.2h-933.9v-1826.1l-0.05-3.79c0-1630.2 1321.6-2951.9 2951.9-2951.9z" fill="url(#id0)"/>
   <path class="fil2" d="m14816 7984.3c240.75 0 470.6 46.57 681.17 131.08-18.33-7.01-36.71-13.93-55.28-20.7l-325.74 894.87c-93.65-34.06-194.7-52.73-300.15-52.73-484.57 0-877.44 392.86-877.44 877.44 0 484.57 392.87 877.44 877.44 877.44 348.19 0 648.91-202.76 790.7-496.56-313.8-21.99-645.22-4.46-1055.2 163.48l82.76-227.34 103.23-283.48c25.39-11.99 50.4-23.17 75.13-33.54 326.02-136.86 596.99-136.43 874.64-104.88 289.02 32.87 585.34 99.48 958.59 80.2 0.09 8.19 0.14 16.44 0.14 24.68 0 133.78-14.35 264.24-41.64 389.88h-0.14c-178.64 823.29-911.36 1440.1-1788.2 1440.1-1010.6 0-1830-819.31-1830-1830s819.31-1830 1830-1830z" fill="#f60"/>
   <path class="fil0" d="m12052 14070c-14.21 16.31-34.24 25.88-56.83 25.88-40.78 0-82.3-28.37-82.3-80.85 0-43.61 31.68-82.62 80.48-82.62 8.75 0 36.43 1.78 58.65 26.59v-53.9c-22.22-11.7-42.61-14.53-59.74-14.53-34.59 0-64.88 9.02-89.22 31.2-20.6 18.74-38.97 49.65-38.97 92.55 0 34.76 10.95 64.39 38.97 90.43 20.2 18.78 46.26 32.98 88.85 32.98 26.23 0 45.53-6.39 60.11-13.84zm339.02-174.11h-134.76v236.52h134.76v-39.72h-87.41v-64.53h83.76v-39.72h-83.76v-52.84h87.41zm333.19 39.71v-39.71h-156.6v39.71h54.63v196.81h47.34v-196.81zm179.5 196.81h85.59c20.4 0 50.68-3.28 68.82-29.08 7.92-11.27 13.11-26.59 13.11-42.55 0-22.7-9.19-40.84-22.57-52.84-18.87-16.92-42.05-19.5-59.72-19.5h-37.89v-92.55h-47.34zm47.34-104.25h28.41c34.96 0 42.98 17.72 42.98 32.62 0 31.91-35.5 31.91-43.71 31.91h-27.68zm542.25 104.25h80.5c21.12 0 51.44-3.16 69.93-28.73 8.41-11.62 13.46-26.23 13.46-42.19 0-22.34-9.09-40.5-22.94-52.49-18.88-16.33-42.65-19.14-60.82-19.14h-32.78v-54.26h93.24v-39.71h-140.59zm47.35-102.84h23.31c36.06 0 44.43 17.37 44.43 32.28 0 13.46-7.33 30.84-45.16 30.84h-22.58zm298.95 102.84h85.59c20.4 0 50.62-3.22 68.83-29.08 7.98-11.34 13.11-26.59 13.11-42.55 0-22.7-9.13-40.78-22.58-52.84-18.93-16.98-41.92-19.5-59.72-19.5h-37.89v-92.55h-47.34zm47.34-104.25h28.41c34.96 0 42.98 17.72 42.98 32.62 0 31.91-35.35 31.91-43.71 31.91h-27.68zm141.32-132.27v236.52h47.34v-236.52zm411.86 174.11c-14.21 16.31-34.24 25.88-56.81 25.88-40.8 0-82.32-28.37-82.32-80.85 0-43.61 31.68-82.62 80.48-82.62 8.75 0 36.43 1.78 58.65 26.59v-53.9c-22.22-11.7-42.61-14.53-59.73-14.53-34.6 0-64.79 8.92-89.23 31.2-20.7 18.84-38.97 49.65-38.97 92.55 0 34.76 10.85 64.29 38.97 90.43 20.3 18.88 46.26 32.98 88.86 32.98 26.22 0 45.53-6.39 60.1-13.84zm335.37-134.4v-39.71h-156.6v39.71h54.63v196.81h47.34v-196.81zm179.5-39.71v236.52h47.36v-87.59h30.58c28.05 0 48.09-7.8 61.55-20.93 18.58-18.07 20.03-43.61 20.03-52.83 0-17.02-5.1-40.07-24.76-57.09-17.85-15.25-36.78-18.08-64.1-18.08zm47.36 39.71h16.38c11.29 0 23.67 0.71 33.51 7.45 6.92 4.96 13.47 13.82 13.47 26.95 0 10.28-4.37 20.92-13.1 27.66-10.21 7.45-21.86 7.45-30.97 7.45h-19.29zm282.2 196.81h85.57c20.41 0 50.61-3.22 68.83-29.08 8-11.36 13.12-26.59 13.12-42.55 0-22.7-9.13-40.77-22.57-52.84-18.95-16.99-41.91-19.5-59.74-19.5h-37.87v-92.55h-47.34zm47.34-104.25h28.41c34.95 0 42.97 17.72 42.97 32.62 0 31.91-35.34 31.91-43.7 31.91h-27.68zm141.31-132.27v236.52h47.34v-236.52zm210.82 236.52h56.81l56.09-86.53 53.18 86.53h56.8l-83.03-124.83 74.66-111.69h-56.8l-44.81 73.4-42.6-73.4h-56.82l72.47 111.69zm625.27 0h48.06l24.78-145.75 62.27 145.75h16.03l65.19-145.75 21.84 145.75h48.08l-40.78-236.52h-34.24l-67.39 150.34-64.45-150.34h-34.24zm595.41-241.84c-76.47 0-129.65 51.77-129.65 123.75 0 71.99 53.18 123.41 129.65 123.41 76.48 0 129.65-51.42 129.65-123.41 0-71.98-53.17-123.75-129.65-123.75zm0 205.31c-47.34 0-80.85-33.69-80.85-81.56s33.51-81.91 80.85-81.91c47.35 0 80.86 34.04 80.86 81.91s-33.51 81.56-80.86 81.56zm459.21-199.99h-134.76v236.52h134.76v-39.72h-87.41v-64.53h83.76v-39.72h-83.76v-52.84h87.41zm249.43 0h-47.35v236.52h47.35v-100.71l5.46-5.32 86.3 106.03h62.65l-108.16-127.3 102.7-109.22h-59.73l-89.22 99.99z"/>
  </g>
 </g>
</svg>
