<svg width="48.000000" height="48.000000" viewBox="0 0 48 48" fill="none" xmlns="http://www.w3.org/2000/svg" xmlns:xlink="http://www.w3.org/1999/xlink">
	<desc>
			Created with Pixso.
	</desc>
	<defs>
		<clipPath id="clip76_1088">
			<rect id="Лого красный мини" width="42.000000" height="19.500000" transform="translate(3.000000 13.500000)" fill="white" fill-opacity="0"/>
		</clipPath>
		<clipPath id="clip76_907">
			<rect id="favicon-32x32" width="48.000000" height="48.000000" fill="white" fill-opacity="0"/>
		</clipPath>
		<clipPath id="clip76_906">
			<rect id="favicon-48x48" rx="9.000000" width="48.000000" height="48.000000" fill="white" fill-opacity="0"/>
		</clipPath>
	</defs>
	<g clip-path="url(#clip76_906)">
		<rect id="favicon-32x32" width="48.000000" height="48.000000" fill="#E12039" fill-opacity="1.000000"/>
		<g clip-path="url(#clip76_907)">
			<g clip-path="url(#clip76_1088)">
				<path id="path" d="M22.38 13.5L22.38 32.45L37.51 32.45C40.07 32.45 41.96 31.93 43.18 30.88C44.39 29.83 45 28.36 45 26.49C45 24.71 44.39 23.31 43.19 22.3C41.99 21.27 40.1 20.76 37.54 20.76L26.57 20.76L26.57 16.52L43.58 16.52L43.58 13.5L22.38 13.5ZM26.57 29.78L26.57 23.23L37.46 23.23C39.4 23.23 40.97 24.7 40.97 26.52C40.97 27.28 40.7 27.97 40.24 28.53C40.13 28.68 40 28.82 39.86 28.95C39.72 29.07 39.55 29.18 39.37 29.28C38.82 29.61 38.17 29.81 37.46 29.81L26.58 29.81L26.57 29.78Z" fill="#FFFFFF" fill-opacity="1.000000" fill-rule="evenodd"/>
				<path id="circle" d="M16.46 15.39C16.46 14.34 17.3 13.5 18.34 13.5C19.38 13.5 20.23 14.34 20.23 15.39C20.23 16.44 19.38 17.29 18.34 17.29C17.3 17.29 16.46 16.44 16.46 15.39Z" fill="#FFFFFF" fill-opacity="1.000000" fill-rule="evenodd"/>
				<path id="circle" d="M16.46 22.97C16.46 21.93 17.3 21.08 18.34 21.08C19.38 21.08 20.23 21.93 20.23 22.97C20.23 24.02 19.38 24.87 18.34 24.87C17.3 24.87 16.46 24.02 16.46 22.97Z" fill="#FFFFFF" fill-opacity="1.000000" fill-rule="evenodd"/>
				<path id="circle" d="M16.46 30.56C16.46 29.51 17.3 28.66 18.34 28.66C19.38 28.66 20.23 29.51 20.23 30.56C20.23 31.6 19.38 32.45 18.34 32.45C17.3 32.45 16.46 31.6 16.46 30.56Z" fill="#FFFFFF" fill-opacity="1.000000" fill-rule="evenodd"/>
				<path id="path" d="M7.26 32.45L8.64 32.45L8.66 32.45L10.04 32.45L11.57 21.98L11.69 20.34L11.74 20.34L11.76 22L11.69 32.45L14.3 32.45L14.3 13.5L10.76 13.5L8.74 26.16C8.74 26.23 8.72 26.33 8.69 26.46C8.67 26.59 8.66 26.66 8.66 26.7L8.64 26.7C8.64 26.66 8.63 26.59 8.61 26.46C8.58 26.33 8.56 26.23 8.55 26.16L6.53 13.5L3 13.5L3 32.45L5.61 32.45L5.54 22L5.55 20.34L5.61 20.34L5.72 21.98L7.26 32.45Z" fill="#FFFFFF" fill-opacity="1.000000" fill-rule="evenodd"/>
			</g>
		</g>
	</g>
</svg>
