<svg width="64" height="64" viewBox="0 0 64 64" fill="none" xmlns="http://www.w3.org/2000/svg">
<path d="M29.1147 22.1336C29.2022 23.6772 28.7858 25.2074 27.9282 26.4938C27.0706 27.7802 25.8183 28.7531 24.3598 29.2659C25.8278 29.7642 27.09 30.7337 27.9499 32.0236C28.8099 33.3135 29.2194 34.8515 29.1147 36.3983V59.7821C29.1467 60.3435 29.0597 60.9054 28.8594 61.4308C28.659 61.9563 28.3499 62.4335 27.9523 62.8312C27.5546 63.2288 27.0774 63.5379 26.552 63.7382C26.0265 63.9386 25.4646 64.0256 24.9032 63.9935H1.23071V0.00647515H24.9032C25.4646 -0.0255462 26.0265 0.0614548 26.552 0.261773C27.0774 0.462092 27.5546 0.771205 27.9523 1.16885C28.3499 1.56649 28.659 2.04368 28.8594 2.56915C29.0597 3.09461 29.1467 3.65649 29.1147 4.21793V22.1336ZM19.503 9.15961H10.8254V24.6979H19.503V9.15961ZM10.8254 33.834V54.8574H19.503V33.834H10.8254Z" fill="black"/>
<path d="M62.9085 -7.62939e-06V9.13614H44.789V63.987H35.1943V-7.62939e-06H62.9085Z" fill="black"/>
</svg>
