<?xml version="1.0" encoding="UTF-8"?>
<svg viewBox="0 0 30 28" fill="none" xmlns="http://www.w3.org/2000/svg">
<path fill-rule="evenodd" clip-rule="evenodd" d="M28.784 27.9705C30.582 28.4865 28.269 22.0755 28.269 22.0755C29.299 18.9955 30.319 8.48048 29.679 5.27549C29.039 2.06948 26.639 2.18048 22.229 1.30348C17.74 0.403485 6.44999 -0.111515 3.99999 0.0204849C1.56499 0.147485 -0.225012 1.81049 0.0249879 5.15049C0.281988 8.48048 4.18799 20.8905 6.12499 23.9705C8.05499 27.0505 10.908 26.5125 12.61 26.3065C14.944 26.0185 23.73 23.9705 23.73 23.9705C22.944 22.9605 26.986 27.4545 28.783 27.9705H28.784ZM17 8.59048L18.564 5.26648H23.244L18.128 15.0085V20.7485H12.758V15.0085L9.89799 9.56248L7.63499 5.26648H12.315L15.439 11.8915L17 8.59048Z" fill="#ED484A"/>
<path d="M17 8.59048L18.564 5.26648H23.244L18.128 15.0085V20.7485H12.758V15.0085L9.89799 9.56248L7.63499 5.26648H12.315L15.439 11.8915L17 8.59048Z" fill="white"/>
</svg>