<svg width="64" height="64" viewBox="0 0 64 64" fill="none" xmlns="http://www.w3.org/2000/svg">
<g clip-path="url(#clip0)">
<path d="M31.9073 12.2404H52.8035H57.7871C57.7871 16.0874 57.5073 19.812 57.2625 23.0819C54.8494 20.6688 51.0374 20.2317 48.3445 22.3475C45.5467 24.341 44.3926 27.9431 45.5117 31.1956C46.1937 33.1191 46.386 33.4513 49.7434 36.5464C53.0483 40.1101 53.1288 43.0181 52.8472 44.3733L52.8385 44.4153C48.4844 54.6798 41.2276 59.7158 31.9073 64V12.2404V12.2404Z" fill="#C0CACC"/>
<path d="M32.0822 12.2404H11.186H6.20239C6.20239 16.0874 6.48217 19.812 6.72698 23.0819C9.1401 20.6688 12.9521 20.2317 15.645 22.3475C18.4428 24.341 19.5969 27.9431 18.4778 31.1956C17.7958 33.1191 17.6035 33.4513 14.2461 36.5464C10.9412 40.1101 10.8608 43.0181 11.1423 44.3733L11.151 44.4153C15.5051 54.6798 22.762 59.7158 32.0822 64V12.2404Z" fill="white"/>
<path fill-rule="evenodd" clip-rule="evenodd" d="M56.8078 25.8448C55.0767 23.3618 51.9991 22.4525 49.551 24.411C47.6625 25.8623 46.963 28.3804 47.8024 30.6011C48.7816 32.5071 50.1805 34.1683 51.8942 35.4274C55.3564 38.9596 54.1324 40.8481 54.9193 41.2153C55.7237 41.6175 61.3717 32.612 56.8078 25.8448Z" fill="#263B47"/>
<path fill-rule="evenodd" clip-rule="evenodd" d="M7.25164 25.8448C8.98279 23.3618 12.0604 22.4525 14.5085 24.411C16.397 25.8623 17.0964 28.3804 16.2571 30.6011C15.2779 32.5071 13.879 34.1683 12.1653 35.4273C8.703 38.9596 9.92705 40.8481 9.14016 41.2153C8.33579 41.6175 2.53032 32.8743 7.25164 25.8448Z" fill="#263B47"/>
<path d="M32.0822 14.1639C32.0822 14.1639 36.6461 17.3989 52.4363 17.941C52.4363 18.9902 52.4712 20.0044 52.3663 20.9836C54.2024 21.0011 55.9335 21.8055 57.2625 23.082C57.5073 19.8645 57.7871 16.1049 57.7871 12.2404H52.9783V12.188C52.8909 7.46667 50.0931 0 50.0931 0C45.8789 2.48306 41.857 5.47322 38.2024 8.72568C38.8494 9.65246 39.6712 10.4568 40.6155 11.0689C33.2363 9.68743 32.0822 8.21858 32.0822 8.21858C32.0822 8.21858 30.8232 9.68743 23.4439 11.0689C24.3882 10.4568 25.1401 9.66995 25.7871 8.74317C22.1324 5.49071 18.2855 2.48306 14.0712 0C14.0712 0 11.1685 7.46667 11.0811 12.188V12.2404H6.20239C6.20239 16.1049 6.48217 19.8645 6.72698 23.082C8.05594 21.8055 10.0494 21.0011 11.8855 20.9836C11.7805 20.0044 11.6232 18.9902 11.6232 17.941C27.4133 17.3989 32.0822 14.1639 32.0822 14.1639Z" fill="#263B47"/>
<path d="M50.1456 36.9836C47.0505 48.7694 40.6505 54.6973 32.0822 58.7541C23.5139 54.6973 17.3412 48.3322 14.2461 36.5464L13.9838 36.8087C10.4866 40.5858 10.9062 43.2962 11.186 44.5902C15.5226 54.6973 22.797 59.8732 32.0822 64C41.3675 59.8732 48.397 54.7847 52.7336 44.6776C53.0134 43.3836 53.7653 40.918 50.268 37.141L50.1456 36.9836Z" fill="#263B47"/>
<path d="M50.0984 36.9836C47.0033 48.7694 40.6505 54.6973 32.0822 58.7541C23.5139 54.6973 17.3412 48.3322 14.2461 36.5464L13.9838 36.8087C10.4866 40.5858 10.9062 43.2962 11.186 44.5902C15.5226 54.6973 22.7969 59.8732 32.0822 64C41.3674 59.8732 48.647 54.6973 52.9836 44.5902C53.2634 43.2962 53.8579 41.023 50.3607 37.2459L50.0984 36.9836Z" fill="#263B47"/>
<path d="M32.0822 14.1639C32.0822 14.1639 36.6461 17.3989 52.4363 17.941C52.4363 18.9902 52.4712 20.0044 52.3663 20.9836C54.2024 21.0011 56.1136 21.9803 57.4426 23.2568C57.6874 20.0393 57.9672 16.1049 57.9672 12.2404H52.9783C52.9783 12.2404 49.1926 12.0323 46.7759 11.8033C44.3646 11.5742 40.6155 11.0688 40.6155 11.0688C33.2363 9.68742 32.0822 8.21857 32.0822 8.21857C32.0822 8.21857 30.8232 9.68742 23.4439 11.0688C23.4439 11.0688 19.6634 11.6616 17.224 11.8907C14.8319 12.1163 11.0811 12.2404 11.0811 12.2404H6.20239C6.20239 16.1049 6.48217 19.8645 6.72698 23.082C8.05594 21.8055 10.0494 21.0011 11.8855 20.9836C11.7805 20.0044 11.6232 18.9902 11.6232 17.941C27.4133 17.3989 32.0822 14.1639 32.0822 14.1639Z" fill="#263B47"/>
</g>
<defs>
<clipPath id="clip0">
<rect width="64" height="64" fill="white"/>
</clipPath>
</defs>
</svg>
