<?xml version="1.0" encoding="UTF-8"?> <svg xmlns="http://www.w3.org/2000/svg" id="Layer_2" data-name="Layer 2" viewBox="0 0 1050 1050"><defs><style> .cls-1 { fill: #5d7261; } .cls-2 { fill: #d4b98b; } </style></defs><g id="Layer_1-2" data-name="Layer 1"><g><circle class="cls-1" cx="525" cy="525" r="525"></circle><g><path class="cls-2" d="M393.31,855.12h144.52c0-79.81-64.7-144.52-144.52-144.52v144.52Z"></path><path class="cls-2" d="M393.31,688.96c79.81,0,144.52-64.7,144.52-144.52s-64.7-144.51-144.52-144.51v289.03Z"></path><path class="cls-2" d="M703.98,233.77h-144.52c0,79.81,64.7,144.52,144.52,144.52v-144.52Z"></path><path class="cls-2" d="M393.31,378.28c79.81,0,144.52-64.7,144.52-144.52H248.79c0,79.81,64.7,144.52,144.52,144.52"></path><path class="cls-2" d="M703.98,399.93h0c-79.81,0-144.52,64.7-144.52,144.52s64.7,144.51,144.52,144.51v-289.03Z"></path><path class="cls-2" d="M703.98,855.12v-144.52c-79.81,0-144.52,64.7-144.52,144.52h144.52Z"></path></g></g></g></svg> 