<svg xmlns="http://www.w3.org/2000/svg" version="1.1" xmlns:xlink="http://www.w3.org/1999/xlink" xmlns:svgjs="http://svgjs.dev/svgjs" width="40" height="40"><svg xmlns="http://www.w3.org/2000/svg" width="40" height="40" fill="none" viewBox="0 0 40 40">
<g clip-path="url(#a)">
<path fill="#04E5C4" fill-rule="evenodd" d="M32.25 24.992c.698.47.894 1.436.428 2.153a1.51 1.51 0 0 1-2.117.409l-5.397-3.65a1.574 1.574 0 0 1-.429-2.153 1.51 1.51 0 0 1 2.118-.409z" clip-rule="evenodd"></path><path fill="#06D7C5" fill-rule="evenodd" d="M34.135 17.346c.833.075 1.457.842 1.359 1.695a1.51 1.51 0 0 1-1.652 1.374l-6.487-.656c-.832-.074-1.444-.83-1.359-1.67.098-.842.832-1.473 1.677-1.398z" clip-rule="evenodd"></path><path fill="#09CAC6" fill-rule="evenodd" d="M32.225 9.7a1.56 1.56 0 0 1 2.007.841 1.56 1.56 0 0 1-.832 2.005l-5.997 2.524c-.783.31-1.677-.062-1.983-.841-.33-.792.037-1.67.82-2.005L32.237 9.7z" clip-rule="evenodd"></path><path fill="#0BBDC6" fill-rule="evenodd" d="M27.011 3.872a1.493 1.493 0 0 1 2.142-.197c.649.532.734 1.497.22 2.165l-4.124 5.085a1.533 1.533 0 0 1-2.142.222 1.566 1.566 0 0 1-.22-2.19z" clip-rule="evenodd"></path><path fill="#0DB0C7" fill-rule="evenodd" d="M19.667 1.237c.16-.829.98-1.373 1.787-1.2a1.52 1.52 0 0 1 1.188 1.806L21.38 8.29a1.53 1.53 0 0 1-1.787 1.225 1.54 1.54 0 0 1-1.187-1.806l1.26-6.458z" clip-rule="evenodd"></path><path fill="#0FA3C8" fill-rule="evenodd" d="M11.957 2.4c-.232-.804.22-1.67 1.028-1.905.796-.26 1.653.223 1.885 1.027l1.885 6.285c.257.829-.22 1.67-1.016 1.93-.795.26-1.652-.223-1.91-1.027l-1.884-6.297z" clip-rule="evenodd"></path><path fill="#1195C8" fill-rule="evenodd" d="M5.727 7.102c-.6-.607-.6-1.572 0-2.19a1.51 1.51 0 0 1 2.142 0l4.59 4.652c.6.606.6 1.571 0 2.19a1.49 1.49 0 0 1-2.142 0z" clip-rule="evenodd"></path><path fill="#1388C9" fill-rule="evenodd" d="M2.448 13.808a1.53 1.53 0 0 1-.893-1.992 1.51 1.51 0 0 1 1.946-.904l6.095 2.302c.795.297 1.187 1.188.893 1.992a1.527 1.527 0 0 1-1.97.903z" clip-rule="evenodd"></path><path fill="#157BC9" fill-rule="evenodd" d="M1.713 20.13C.881 20.068.257 19.326.33 18.472a1.547 1.547 0 0 1 1.64-1.423l6.487.532c.832.062 1.456.804 1.383 1.658a1.547 1.547 0 0 1-1.64 1.423z" clip-rule="evenodd"></path><path fill="#1C53CB" fill-rule="evenodd" d="M8.261 32.02c.833 0 1.518.692 1.518 1.558s-.685 1.535-1.518 1.535H1.518A1.534 1.534 0 0 1 0 33.578c0-.84.685-1.559 1.518-1.559z" clip-rule="evenodd"></path><path fill="#1A60CB" fill-rule="evenodd" d="M8.261 27.133c.833 0 1.518.693 1.518 1.534s-.685 1.559-1.518 1.559H1.518C.685 30.226 0 29.52 0 28.667s.685-1.534 1.518-1.534z" clip-rule="evenodd"></path><path fill="#186ECA" fill-rule="evenodd" d="M8.261 22.258c.833 0 1.518.693 1.518 1.534s-.685 1.534-1.518 1.534H1.518A1.534 1.534 0 0 1 0 23.792c0-.841.685-1.534 1.518-1.534z" clip-rule="evenodd"></path><path fill="#1E46CC" fill-rule="evenodd" d="M8.261 36.932c.833 0 1.518.692 1.518 1.534 0 .841-.685 1.534-1.518 1.534H1.518A1.534 1.534 0 0 1 0 38.466c0-.842.685-1.534 1.518-1.534z" clip-rule="evenodd"></path><path fill="#00FFC3" fill-rule="evenodd" d="M19.704 33.505c0 .84-.685 1.534-1.517 1.534-.833 0-1.543-.693-1.543-1.535v-6.582c0-.841.686-1.534 1.543-1.534s1.517.693 1.517 1.534z" clip-rule="evenodd"></path><path fill="#02F2C4" fill-rule="evenodd" d="M27.023 30.844c.404.743.122 1.67-.624 2.091-.735.396-1.653.124-2.069-.655l-3.06-5.79a1.546 1.546 0 0 1 .625-2.092 1.53 1.53 0 0 1 2.068.631z" clip-rule="evenodd"></path></g><defs><clipPath id="SvgjsClipPath1001"><path fill="#fff" d="M0 0h187v40H0z"></path></clipPath></defs></svg><style>@media (prefers-color-scheme: light) { :root { filter: none; } }
@media (prefers-color-scheme: dark) { :root { filter: none; } }
</style></svg>