<svg viewBox="0 0 32 32" xmlns="http://www.w3.org/2000/svg">
    <path d="M25.384 0V5.056L20.344 0H25.384ZM0 18.808H5.688V13.136H0V18.808ZM26.312 18.808H32V13.136H26.312V18.808ZM6.616 32V26.944L11.656 32H6.616ZM12.28 31.32V26.264H7.24L12.28 31.32ZM19.72 0.68V5.736H24.76L19.72 0.68ZM20.344 32L25.384 26.944V32H20.344ZM19.72 31.32L24.76 26.264H19.72V31.32ZM11.656 0L6.616 5.056V0H11.656ZM12.28 0.68L7.24 5.736H12.28V0.68ZM0.024 25.408V20.352L5.064 25.408H0.024ZM5.688 24.72V19.68H0.648L5.688 24.72ZM31.976 6.592V11.648L26.936 6.592H31.976ZM26.312 7.28V12.32H31.352L26.312 7.28ZM26.936 25.408L31.976 20.352V25.408H26.936ZM26.312 24.72L31.352 19.68H26.312V24.72ZM5.064 6.592L0.024 11.648V6.592H5.064ZM5.688 7.28L0.648 12.32H5.688V7.28ZM7.216 25.408L12.256 20.352V25.408H7.216ZM19.752 11.648L24.792 6.592H19.752V11.648ZM19.752 25.408V20.352L24.792 25.408H19.752ZM12.248 11.648V6.592H7.208L12.248 11.648ZM11.656 19.68L6.616 24.72V19.68H11.656ZM25.384 7.28L20.344 12.32H25.384V7.28ZM25.384 19.68V24.72L20.344 19.68H25.384ZM6.616 7.28V12.32H11.656L6.616 7.28ZM18.808 26.272V32H13.096V26.272H18.808ZM13.192 0V5.728H18.904V0H13.192ZM5.704 31.328L0.504 26.264H5.704V31.328ZM31.488 5.736L26.296 0.672V5.736H31.496H31.488ZM26.296 26.264H31.496L26.296 31.328V26.264ZM0.512 5.736H5.704V0.672L0.504 5.736H0.512Z" fill="#947AFF"/>
</svg>