<?xml version="1.0" encoding="UTF-8"?> <svg xmlns="http://www.w3.org/2000/svg" width="200" height="200" viewBox="0 0 200 200" fill="none"><rect width="200" height="200" rx="36.528" fill="#E3FF00"></rect><path d="M27 146.305V53H58.306C78.7854 53 93.134 61.3517 93.134 80.4042V80.9261C93.134 95.5417 84.0031 102.98 72.3937 105.981L98.6125 146.305H79.8289L55.4363 108.591H44.3488V146.305H27ZM44.3488 96.1942H58.306C69.9153 96.1942 76.0461 91.2353 76.0461 81.3176V80.7956C76.0461 70.095 69.3936 66.4411 58.306 66.4411H44.3488V96.1942Z" fill="black"></path><path d="M112.475 146.305V53H170.782V66.7021H129.824V92.2793H162.695V105.329H129.824V132.603H173V146.305H112.475Z" fill="black"></path></svg> 