<svg width="2500" height="2500" viewBox="0 0 2500 2500" fill="none" xmlns="http://www.w3.org/2000/svg">
<g clip-path="url(#clip0_91_33)">
<path d="M383.32 1773.27C383.32 1718.56 355.788 1685.15 278.2 1685.15H131.479V1859.26H279.609C357.223 1859.26 383.32 1824.43 383.32 1773.27ZM269.744 1474.07H131.479V1631.12H268.335C343.104 1631.12 367.088 1600.58 367.088 1552.97C367.088 1503.23 342.4 1474.07 269.744 1474.07ZM441.858 1777.53C441.858 1862.08 387.548 1915.39 280.314 1915.39H72.917V1417.94H276.791C377.658 1417.94 426.355 1465.58 426.355 1544.45C426.355 1595.61 404.486 1631.12 356.518 1651.05C414.351 1667.38 441.858 1714.28 441.858 1777.53Z" fill="#71BF44"/>
<path d="M544.902 1666.68C544.902 1781.09 630.267 1867.06 740.295 1867.06C850.348 1867.06 935.713 1781.78 935.713 1666.68C935.713 1551.56 850.348 1466.28 740.295 1466.28C630.267 1466.28 544.902 1552.27 544.902 1666.68ZM994.98 1666.68C994.98 1813.06 884.222 1923.21 740.295 1923.21C597.097 1923.21 485.635 1813.06 485.635 1666.68C485.635 1520.28 597.097 1410.12 741.025 1410.12C884.222 1410.12 994.98 1520.28 994.98 1666.68Z" fill="#71BF44"/>
<path d="M1455.65 1417.95V1915.4H1397.11V1474.08H1208.04L1160.77 1763.31C1141.75 1881.98 1105.76 1923.2 1043.67 1923.2C1033.81 1923.2 1014.76 1922.49 1004.89 1921.07V1867.08C1011.24 1867.76 1026.03 1868.5 1032.4 1868.5C1071.91 1868.5 1088.82 1845.05 1102.94 1759.76L1158.66 1417.95H1455.65Z" fill="#71BF44"/>
<path d="M1926.9 1417.95V1915.4H1868.36V1762.43H1581.94V1915.4H1523.38V1417.95H1581.94V1706.3H1868.36V1417.95H1926.9Z" fill="#71BF44"/>
<path d="M2284.59 1710.02L2192.18 1474.07L2099.77 1710.02H2284.59ZM2306.46 1766.15H2077.19L2018.65 1915.39H1956.57L2154.08 1417.95H2229.55L2427.08 1915.39H2365L2306.46 1766.15Z" fill="#71BF44"/>
<path d="M2350.57 1176.26C2361.23 1164.74 2367.89 1149.46 2367.89 1132.54C2367.89 1116.05 2361.51 1101.13 2351.31 1089.72H2391.47V1176.26H2350.57ZM1775.19 1089.72H1810.94C1800.75 1101.13 1794.36 1116.05 1794.36 1132.54C1794.36 1149.46 1801.02 1164.74 1811.68 1176.26H1775.19V1089.72ZM1823.67 612.541H1971.68C1959.72 632.569 1953.17 655.619 1953.17 679.399C1953.17 704.829 1960.69 729.269 1974.19 750.148H1775.19V661.212C1775.19 634.375 1796.94 612.541 1823.67 612.541ZM2101.5 785.879H2391.46V1053.97H2101.5V785.879ZM1858.59 1103.81C1874.37 1103.81 1887.21 1116.7 1887.21 1132.54C1887.21 1148.38 1874.37 1161.27 1858.59 1161.27C1842.81 1161.27 1829.97 1148.38 1829.97 1132.54C1829.97 1116.7 1842.81 1103.81 1858.59 1103.81ZM2065.91 1053.99H1775.19V785.896H2065.91V1053.99ZM2067.22 695.623L2080.84 648.028L2094.44 695.623H2067.22ZM2051.63 750.148L2057 731.354H2104.67L2110.03 750.148H2051.63ZM2176.8 679.399C2176.8 705.993 2165.85 730.728 2146.62 748.568L2107.73 612.541H2148.96C2166.66 630.224 2176.8 654.229 2176.8 679.399ZM2016.61 612.541H2053.95L2015.9 745.58C1998.62 727.984 1988.76 704.308 1988.76 679.399C1988.76 654.229 1998.91 630.206 2016.61 612.541ZM2256.76 1176.26H1905.5C1916.15 1164.74 1922.8 1149.46 1922.8 1132.54C1922.8 1116.05 1916.43 1101.13 1906.24 1089.72H2256.01C2245.82 1101.13 2239.44 1116.05 2239.44 1132.54C2239.44 1149.46 2246.1 1164.74 2256.76 1176.26ZM2303.66 1161.27C2287.88 1161.27 2275.04 1148.38 2275.04 1132.54C2275.04 1116.7 2287.88 1103.81 2303.66 1103.81C2319.44 1103.81 2332.28 1116.7 2332.28 1132.54C2332.28 1148.38 2319.44 1161.27 2303.66 1161.27ZM2391.47 659.944V750.148H2191.65C2205.07 729.391 2212.41 705.02 2212.41 679.399C2212.41 655.602 2205.85 632.551 2193.91 612.541H2344.25C2370.29 612.541 2391.47 633.802 2391.47 659.944ZM2319.84 1228.54H2276.95V1212.37H2319.84V1228.54ZM1892.55 1228.54H1849.68V1212.37H1892.55V1228.54ZM2427.08 659.944C2427.08 614.087 2389.93 576.793 2344.25 576.793H1823.67C1777.32 576.793 1739.58 614.677 1739.58 661.212V1212.01H1814.09V1264.29H1928.16V1212.01H2241.36V1264.29H2355.45V1212.01H2427.08V659.944Z" fill="#8D4793"/>
<path d="M161.6 713.979C133.408 713.979 110.47 735.351 110.47 761.62V1081.98C110.47 1115.8 139.977 1143.31 176.29 1143.31H662.919C695.984 1143.31 722.863 1118.26 722.863 1087.45V760.378C722.863 734.79 700.528 713.979 673.065 713.979H161.6ZM662.919 1178.3H176.29C119.284 1178.3 72.917 1135.1 72.917 1081.98V761.62C72.917 716.07 112.697 678.988 161.6 678.988H673.065C721.239 678.988 760.417 715.509 760.417 760.378V1087.45C760.417 1137.54 716.677 1178.3 662.919 1178.3Z" fill="#EF3B47"/>
<path d="M736.233 970.037H95.5381V1005.03H736.233V970.037Z" fill="#EF3B47"/>
<path d="M435.84 692.336H398.286V986.444H435.84V692.336Z" fill="#EF3B47"/>
<path d="M235.967 1047.24C219.325 1047.24 205.785 1059.86 205.785 1075.36C205.785 1090.87 219.325 1103.48 235.967 1103.48C252.609 1103.48 266.149 1090.87 266.149 1075.36C266.149 1059.86 252.609 1047.24 235.967 1047.24ZM235.967 1138.46C198.614 1138.46 168.232 1110.17 168.232 1075.36C168.232 1040.56 198.614 1012.25 235.967 1012.25C273.32 1012.25 303.703 1040.56 303.703 1075.36C303.703 1110.17 273.32 1138.46 235.967 1138.46Z" fill="#EF3B47"/>
<path d="M592.704 1047.24C576.062 1047.24 562.522 1059.86 562.522 1075.36C562.522 1090.87 576.062 1103.48 592.704 1103.48C609.346 1103.48 622.886 1090.87 622.886 1075.36C622.886 1059.86 609.346 1047.24 592.704 1047.24ZM592.704 1138.46C555.351 1138.46 524.969 1110.17 524.969 1075.36C524.969 1040.56 555.351 1012.25 592.704 1012.25C630.057 1012.25 660.439 1040.56 660.439 1075.36C660.439 1110.17 630.057 1138.46 592.704 1138.46Z" fill="#EF3B47"/>
<path d="M151.887 624.597H116V621.493C116 587.785 143.465 560.321 177.189 560.321H654.305C688.326 560.321 716 587.995 716 622.033V623.864H680.113V622.033C680.113 607.787 668.534 596.208 654.305 596.208H177.189C163.239 596.208 151.887 607.543 151.887 621.493V624.597Z" fill="#EE2742"/>
<path d="M387.52 593.195H349.966V695.975H387.52V593.195Z" fill="#EF3B47"/>
<path d="M481.404 593.195H443.85V695.975H481.404V593.195Z" fill="#EF3B47"/>
<path fill-rule="evenodd" clip-rule="evenodd" d="M279.311 1148.13L308.321 1170.21L225.845 1264.29L196.835 1242.21L279.311 1148.13Z" fill="#EF3B47"/>
<path fill-rule="evenodd" clip-rule="evenodd" d="M536.081 1147.74L617.3 1235.22L588.908 1258.1L507.69 1170.63L536.081 1147.74Z" fill="#EF3B47"/>
<path d="M941.859 1177.26H1558.14V761.912C1558.14 735.766 1536.96 714.534 1510.92 714.534H990.323C963.608 714.534 941.859 736.357 941.859 763.18V1177.26ZM1593.75 1212.99H906.25V763.18C906.25 716.652 943.97 678.805 990.323 678.805H1510.92C1556.6 678.805 1593.75 716.079 1593.75 761.912V1212.99Z" fill="#3D98C2"/>
<path d="M1016.33 1228.37H1059.22V1213.35H1016.33V1228.37ZM1094.83 1264.1H980.738V1177.62H1094.83V1264.1Z" fill="#3D98C2"/>
<path d="M1443.62 1228.37H1486.5V1213.35H1443.62V1228.37ZM1522.11 1264.1H1408.03V1177.62H1522.11V1264.1Z" fill="#3D98C2"/>
<path d="M1570.81 1057.78H927.707V1093.51H1570.81V1057.78Z" fill="#3D98C2"/>
<path d="M1570.81 743.404H927.707V779.133H1570.81V743.404Z" fill="#3D98C2"/>
<path d="M1268.17 762.38H1232.56V1073.46H1268.17V762.38Z" fill="#3D98C2"/>
<path d="M1025.24 1107.27C1009.46 1107.27 996.622 1119.67 996.622 1134.94C996.622 1150.2 1009.46 1162.62 1025.24 1162.62C1041.02 1162.62 1053.86 1150.2 1053.86 1134.94C1053.86 1119.67 1041.02 1107.27 1025.24 1107.27ZM1025.24 1198.35C989.822 1198.35 961.013 1169.89 961.013 1134.94C961.013 1099.98 989.822 1071.54 1025.24 1071.54C1060.66 1071.54 1089.47 1099.98 1089.47 1134.94C1089.47 1169.89 1060.66 1198.35 1025.24 1198.35Z" fill="#3D98C2"/>
<path d="M1470.33 1107.27C1454.55 1107.27 1441.71 1119.67 1441.71 1134.94C1441.71 1150.2 1454.55 1162.62 1470.33 1162.62C1486.11 1162.62 1498.95 1150.2 1498.95 1134.94C1498.95 1119.67 1486.11 1107.27 1470.33 1107.27ZM1470.33 1198.35C1434.91 1198.35 1406.1 1169.89 1406.1 1134.94C1406.1 1099.98 1434.91 1071.54 1470.33 1071.54C1505.75 1071.54 1534.56 1099.98 1534.56 1134.94C1534.56 1169.89 1505.75 1198.35 1470.33 1198.35Z" fill="#3D98C2"/>
<path d="M1530.01 576.79H970.271V612.519H1530.01V576.79Z" fill="#3D98C2"/>
<path fill-rule="evenodd" clip-rule="evenodd" d="M1191.3 581.05L1216.69 606.036L1111.02 714.123L1085.63 689.137L1191.3 581.05Z" fill="#3D98C2"/>
<path fill-rule="evenodd" clip-rule="evenodd" d="M1387.14 581.05L1412.52 606.036L1306.86 714.123L1281.47 689.137L1387.14 581.05Z" fill="#3D98C2"/>
</g>
<defs>
<clipPath id="clip0_91_33">
<rect width="2500" height="2500" fill="white"/>
</clipPath>
</defs>
</svg>
