<svg width="32" height="32" viewBox="0 0 32 32" fill="none" xmlns="http://www.w3.org/2000/svg">
<rect width="32" height="32" fill="#FF0019"/>
<g filter="url(#filter0_d_4125_6)">
<path d="M22.6516 14.7442C22.0042 14.6438 21.2575 14.5859 20.401 14.5682L18.5922 14.5387C16.3781 14.5103 16.1028 14.0614 16.1028 13.6124C16.1028 13.1634 16.2907 12.6861 18.8958 12.6861H19.1274C21.9345 12.6861 22.1802 13.5545 22.2381 13.9739H25.74V13.8298C25.74 12.62 25.0949 11.3227 22.6505 10.7415C21.8199 10.5442 20.7814 10.4296 19.4889 10.4296H18.4906C17.5064 10.4296 16.6829 10.4981 15.9918 10.6198V10.4296H15.1234C10.9399 10.4296 9.6261 11.6571 9.33309 13.0181V10.6316C6.65001 11.1243 6.04038 12.4416 6.04038 13.714V13.844C6.04038 15.2109 6.85676 16.3664 9.33309 16.8118V14.4985C9.64264 15.8643 11.0308 16.898 14.5161 16.9985L15.9918 17.0327V16.8224C16.54 16.9169 17.1661 16.9772 17.8821 16.9973L19.7346 17.041C22.224 17.0989 22.5559 17.5041 22.5559 18.1267C22.5559 18.7057 22.2381 19.2704 19.4015 19.2704H19.1994C16.4206 19.2704 16.0449 18.2 16.0012 17.5632H15.9221V19.2704H15.8335C13.0547 19.2704 12.679 18.2 12.6353 17.5632H5.89624V17.7227C5.89624 18.8522 6.30975 20.6255 9.33309 21.3001V18.9904C9.80686 20.2522 11.2541 21.5719 15.4129 21.5719H15.9918V21.3143C16.7491 21.4773 17.6671 21.5719 18.78 21.5719H19.7783C20.9279 21.5719 21.8742 21.4892 22.6505 21.3427C25.5297 20.7992 26.0873 19.3708 26.0873 17.9684V17.7664C26.0873 16.0769 25.0689 15.1176 22.6505 14.7442H22.6516ZM15.9233 14.5505L15.2262 14.5398C13.0121 14.5115 12.7369 14.0625 12.7369 13.6136C12.7369 13.1646 12.9247 12.6873 15.5298 12.6873H15.7614C15.8169 12.6873 15.8701 12.6873 15.9233 12.6885V14.5505Z" fill="white"/>
</g>
<defs>
<filter id="filter0_d_4125_6" x="5.30365" y="9.83697" width="21.3763" height="12.3275" filterUnits="userSpaceOnUse" color-interpolation-filters="sRGB">
<feFlood flood-opacity="0" result="BackgroundImageFix"/>
<feColorMatrix in="SourceAlpha" type="matrix" values="0 0 0 0 0 0 0 0 0 0 0 0 0 0 0 0 0 0 127 0" result="hardAlpha"/>
<feOffset/>
<feGaussianBlur stdDeviation="0.296296"/>
<feComposite in2="hardAlpha" operator="out"/>
<feColorMatrix type="matrix" values="0 0 0 0 0 0 0 0 0 0 0 0 0 0 0 0 0 0 0.1 0"/>
<feBlend mode="normal" in2="BackgroundImageFix" result="effect1_dropShadow_4125_6"/>
<feBlend mode="normal" in="SourceGraphic" in2="effect1_dropShadow_4125_6" result="shape"/>
</filter>
</defs>
</svg>
