<svg width="64" height="64" viewBox="0 0 64 64" fill="none" xmlns="http://www.w3.org/2000/svg">
	<ellipse cx="32.5581" cy="32.7087" rx="31.0136" ry="31.2912" fill="white"/>
	<path id="Fill 5" fill-rule="evenodd" clip-rule="evenodd" d="M21.9151 23.6425C21.0672 23.8234 19.8235 24.0513 18.8473 24.1019C18.7118 24.6892 18.3016 25.3777 17.8603 25.9481C17.5425 26.4786 18.021 26.516 18.376 26.3761C19.0536 26.1989 20.8585 25.3029 22.3109 23.8005C22.4272 23.5883 22.1238 23.5907 21.9151 23.6425ZM62.0957 41.2871C62.6546 40.021 62.8201 38.7958 63.0792 37.5888C63.4042 35.762 63.5745 33.8797 63.5745 31.9601C63.5745 14.3576 49.2945 0 31.7884 0C14.28 0 0 14.3576 0 31.9601C0 43.1959 5.81777 53.1089 14.5798 58.8099C24.1501 64.452 31.4886 60.9503 34.3909 56.1367C37.1349 51.2471 36.9934 44.3438 32.1278 41.8128C30.8218 41.2268 29.4138 40.6697 27.7168 42.7569C25.7788 44.6718 25.2271 47.3583 22.681 46.5191C21.4194 45.9114 19.7559 45.1927 18.5554 42.0624C18.5902 41.8357 17.9246 40.8252 18.1669 40.6661C18.4439 40.4828 19.0999 40.8638 19.6744 40.8506C20.0989 40.8409 20.6614 40.6323 20.8437 40.56C22.7841 39.7846 26.3964 38.2749 27.3547 35.8271C27.8835 33.8689 25.6145 32.8223 23.289 33.2045C19.8795 33.764 18.5662 35.1664 17.8095 36.6073C17.4257 37.338 18.1357 38.3895 17.337 38.2725C17.0923 38.2364 16.1461 37.5623 15.9338 37.5961C13.7091 37.9518 12.481 36.9401 11.6967 35.5836C11.6151 35.3002 11.7123 34.9083 11.6991 34.5936C11.7099 34.3898 11.4784 34.221 11.2566 34.3982C11.0035 34.7347 10.796 34.7708 10.525 34.4646C10.1508 34.0317 9.53557 33.3311 9.4792 32.3086C10.1256 29.376 13.3745 26.1252 15.4865 24.2899C15.2742 23.3228 15.2106 22.5318 15.8079 21.396C18.0218 17.9039 22.1497 15.8733 29.5949 14.2756C29.2052 12.7189 30.4428 11.2659 33.4626 12.075C50.9087 16.0108 60.1949 26.2373 62.0957 41.2871Z" fill="#AA2A3F"/>
</svg>
