<svg width="120" height="120" viewBox="0 0 120 120" fill="none" xmlns="http://www.w3.org/2000/svg">
    <g clip-path="url(#clip0_143_451)">
        <g clip-path="url(#clip1_143_451)">
            <path d="M96.815 0H23.185C10.3803 0 0 10.3803 0 23.185V96.815C0 109.62 10.3803 120 23.185 120H96.815C109.62 120 120 109.62 120 96.815V23.185C120 10.3803 109.62 0 96.815 0Z"
                  fill="#4D4084"/>
            <path fill-rule="evenodd" clip-rule="evenodd"
                  d="M86.3208 16.9455C87.6057 20.6456 88.908 24.3955 88.908 27.613C88.908 30.883 86.836 36.181 84.266 38.438C83.6667 34.0827 82.3746 31.1801 81.1888 28.5162C79.8935 25.6063 78.725 22.9814 78.725 19.059C78.725 14.876 82.196 9.17999 83.872 7.745C84.0875 10.5146 85.1975 13.7111 86.3208 16.9455ZM47.143 91.422C47.143 95.905 50.248 100.366 53.575 102.55C30.483 105.715 23.943 91.114 23.943 81.445C23.943 73.0614 27.2315 64.6999 30.0514 57.5299C32.3545 51.6737 34.3451 46.6124 33.976 42.983C39.0311 44.4404 40.5594 48.5508 41.9568 52.3095C42.9642 55.0188 43.9036 57.5455 46.047 58.764C45.779 51.596 48.7954 46.502 52.303 40.5783C56.0734 34.2109 60.4114 26.8849 61.848 14.994C69.166 20.757 76.152 32.067 76.152 42.767C76.152 45.5712 75.6431 48.8309 75.1208 52.1759C73.7948 60.6694 72.3829 69.7124 79 73.243C78.9348 73.0829 78.8539 72.9212 78.7652 72.7441C78.3701 71.9546 77.821 70.8575 77.821 68.216C77.821 63.049 81.543 55.438 88.741 55.008C87.1243 60.7088 89.1546 65.6281 91.3119 70.855C93.0803 75.1396 94.934 79.631 94.934 84.929C94.934 96.69 89.043 105.042 76.983 105.042C64.923 105.042 51.374 91.728 49.39 81.096C47.98 83.84 47.143 87.588 47.143 91.422Z"
                  fill="white"/>
        </g>
    </g>
    <defs>
        <clipPath id="clip0_143_451">
            <rect width="120" height="120" fill="white"/>
        </clipPath>
        <clipPath id="clip1_143_451">
            <rect width="120" height="120" fill="white"/>
        </clipPath>
    </defs>
</svg>
