<?xml version="1.0" encoding="UTF-8"?> <svg xmlns="http://www.w3.org/2000/svg" id="Layer_2" viewBox="0 0 488.05 488.05"><defs><style> .cls-1 { fill: #1c1c1c; } </style></defs><g id="_Слой_1" data-name="Слой_1"><g><path class="cls-1" d="M244.03,488.05c-65.18,0-126.46-25.38-172.55-71.47C25.38,370.49,0,309.21,0,244.03S25.38,117.56,71.47,71.47C117.56,25.38,178.84,0,244.03,0s126.46,25.38,172.55,71.47c46.09,46.09,71.47,107.37,71.47,172.55s-25.38,126.46-71.47,172.55c-46.09,46.09-107.37,71.47-172.55,71.47ZM244.03,6c-63.58,0-123.35,24.76-168.31,69.72S6,180.45,6,244.03s24.76,123.35,69.72,168.31c44.96,44.96,104.73,69.72,168.31,69.72s123.35-24.76,168.31-69.72c44.96-44.96,69.72-104.73,69.72-168.31s-24.76-123.35-69.72-168.31C367.38,30.76,307.6,6,244.03,6Z"></path><g><path class="cls-1" d="M281.67,382.32h27.87c-2.89,5.74-5.96,6.96-16.21,7.08-5.77.07-11.55.01-17.33.01-.01.82-.03,1.64-.04,2.46h24.42c-4.98,8.73-30.04,9.87-35.59,2.52-5.6,4.8-7.19,11.11-7.2,18.06-.02,10.02-1.96,11.44-11.74,13.19-15.92,2.85-19.52-2.16-23.02-16.62-.86-3.55-1.75-7.08-2.53-10.22-11.13-.89-22.78,3.04-32.66-4.39.03-.7.06-1.39.09-2.09h24.22c.05-.67.1-1.33.15-2-11.03-3.07-23.94,2.62-33.9-5.51.02-.62.04-1.25.05-1.87h27.99c.05-.72.09-1.44.14-2.17-12.26-3.32-26.43,2.97-37.69-5.43.04-.73.07-1.47.11-2.2h31.86l.03-1.97c-13.41-3.71-28.69,3.2-41.25-5.27.05-.65.11-1.29.16-1.94,1.99-.13,3.98-.38,5.96-.38,10.78-.01,21.56.16,32.33,0,4.24-.07,6.03,1.08,7.59,5.57,2.42,6.93,6.75,13.21,10.37,19.7.8,1.42,2.06,2.59,2.2,2.77.77-8.14.66-17.63,2.74-26.61,4.13-17.77,19.21-26.72,36.97-22.9,6,1.29,9.22,5.96,11.52,11.25,4,9.22,5,18.82,2.65,29.37,5.95-2.62,8.1-6.74,8.53-12.04.34-4.25,2.54-7,6.88-7.04,13.08-.1,26.17.05,39.25.14.5,0,1,.39,1.96.78-3.03,4.53-7.56,5.23-12.05,5.39-7.88.28-15.78.13-23.67.24-1.89.03-3.77.4-5.65.62.03.64.06,1.29.09,1.93h31.14c.26.82.51,1.64.77,2.46-2.95,1.33-5.81,3.5-8.86,3.83-7.05.75-14.19.63-21.3.82-2.43.07-4.87.01-7.3.01-.03.81-.06,1.63-.09,2.44ZM220.47,379.76c.07.81.1,1.09.09,1.33,1.15,12.71,2.95,24.68,6.83,35.95,1.32,3.85,3.69,7.92,8.46,7.3,4.88-.63,5.67-5.12,6.02-9.31.14-1.72-.19-3.59.36-5.15,1.77-4.97,2.67-10.93,6.04-14.51,11.17-11.89,10.71-25,5.44-38.63-5.2-13.46-16.52-14.59-25.73-3.29-6.65,8.15-6.86,16.33-7.5,26.31Z"></path><path class="cls-1" d="M234.61,380.85c10.24-.18,13.67,5.15,8.65,14.11-3.2,5.72-4.74,11.52-4.6,18.1.05,2.33-2.26,4.7-3.49,7.06-1.77-1.75-4.52-3.21-5.15-5.31-2.26-7.5-4.28-15.15-5.48-22.88-1.04-6.76,3.28-10.95,10.06-11.07Z"></path><path class="cls-1" d="M223.95,374.44c.71-7.53,3.16-14.25,8.64-19.57,4.21-4.09,9.04-4.74,12.95-1.98,3.86,2.73,5.41,8.69,2.89,13.43-4.28,8.05-12.05,11.54-20.28,13.69-4.24,1.11-4.17-2.69-4.19-5.57Z"></path><path class="cls-1" d="M253.34,370.38c0,3.24.39,6.55-.2,9.68-.23,1.23-2.78,3.01-4.06,2.85-2.05-.27-4.15-1.7-5.69-3.2-.38-.37,1.01-3.15,2.11-4.34,1.85-2.03,4.12-3.68,6.21-5.48.54.17,1.08.33,1.63.5Z"></path></g><g><path class="cls-1" d="M177.83,102.19v3.09h5.45v-1.14c0-.51.1-.87.3-1.08.2-.21.46-.32.78-.32s.57.11.77.32c.2.22.3.58.3,1.08v3.24h-10.05c-.51,0-.88-.1-1.1-.29-.22-.2-.33-.45-.33-.76s.11-.56.33-.75c.22-.2.59-.29,1.09-.29h.33v-8.22h-.33c-.51,0-.88-.1-1.1-.29-.22-.19-.33-.45-.33-.76s.11-.57.33-.76c.22-.2.58-.29,1.1-.29h9.58v3.21c0,.5-.1.86-.29,1.07-.19.22-.45.32-.77.32s-.58-.11-.78-.32c-.2-.21-.3-.57-.3-1.08v-1.1h-4.98v3.04h1.87c0-.55.05-.9.16-1.06.22-.33.52-.5.92-.5.31,0,.57.11.77.32.2.22.3.58.3,1.08v2.42c0,.46-.06.77-.17.92-.22.32-.52.48-.9.48-.4,0-.7-.17-.92-.5-.1-.16-.16-.51-.16-1.07h-1.87Z"></path><path class="cls-1" d="M192.91,106.85c-.19.22-.34.36-.45.42-.12.06-.26.09-.42.09-.33,0-.59-.11-.79-.32-.2-.21-.3-.57-.3-1.07v-1.42c0-.51.1-.87.3-1.08.2-.21.46-.32.79-.32.25,0,.46.06.63.19s.3.35.39.65c.09.3.18.51.28.62.2.21.56.43,1.07.65s1.08.33,1.69.33c.95,0,1.73-.22,2.34-.66.39-.27.58-.59.58-.98,0-.26-.09-.5-.28-.73s-.49-.42-.92-.57c-.28-.1-.9-.24-1.86-.42-1.17-.21-2.05-.47-2.65-.77-.6-.3-1.07-.72-1.42-1.27-.35-.55-.52-1.14-.52-1.77,0-1,.43-1.88,1.28-2.64.85-.76,1.96-1.13,3.33-1.13.55,0,1.06.06,1.53.18.47.12.89.3,1.28.55.28-.27.56-.4.83-.4.31,0,.57.11.77.32.2.22.3.57.3,1.07v1.58c0,.51-.1.87-.3,1.08-.2.22-.45.32-.77.32-.26,0-.49-.08-.69-.24-.15-.12-.27-.35-.34-.7-.08-.35-.17-.6-.29-.75-.2-.26-.5-.48-.91-.66s-.87-.27-1.4-.27c-.77,0-1.38.18-1.83.53-.45.35-.67.72-.67,1.1,0,.26.09.51.28.75.18.24.45.43.81.57.24.1.9.25,1.99.46s1.93.44,2.52.7,1.07.65,1.46,1.19.58,1.18.58,1.93c0,1.04-.37,1.87-1.12,2.49-.99.82-2.24,1.23-3.77,1.23-.59,0-1.17-.07-1.72-.21-.56-.14-1.1-.35-1.63-.63Z"></path><path class="cls-1" d="M213.06,97.06v8.22h1.44c.51,0,.88.1,1.1.29.22.19.33.45.33.76s-.11.56-.33.75c-.22.19-.58.29-1.1.29h-5c-.51,0-.88-.1-1.1-.29-.22-.2-.33-.45-.33-.76s.11-.56.33-.75c.22-.2.58-.29,1.1-.29h1.43v-8.22h-2.31v1.99c0,.51-.1.87-.3,1.08-.2.22-.46.32-.78.32s-.57-.11-.77-.32c-.2-.21-.3-.58-.3-1.08v-4.1h11.06v4.1c0,.51-.1.87-.3,1.08-.2.22-.46.32-.78.32s-.57-.11-.77-.32c-.2-.21-.3-.58-.3-1.08v-1.99h-2.34Z"></path><path class="cls-1" d="M229.66,106.33c0,.4-.14.73-.43.99-.28.27-.68.4-1.18.4s-.89-.13-1.18-.4c-.28-.27-.43-.6-.43-.99s.14-.73.43-.99c.29-.27.68-.4,1.18-.4s.89.13,1.18.4c.29.27.43.6.43.99Z"></path><path class="cls-1" d="M258.03,105.28h4.68c.26-.21.5-.31.73-.31.33,0,.58.11.78.32s.29.57.29,1.09v1h-9.73v-2.23c3.85-3.12,6.17-5.13,6.97-6.03.4-.46.6-.89.6-1.3,0-.51-.23-.97-.68-1.36s-1.06-.59-1.82-.59-1.4.22-1.91.66c-.26.23-.48.58-.63,1.04-.1.29-.23.49-.4.62s-.38.18-.63.18c-.29,0-.54-.1-.75-.31s-.32-.44-.32-.72c0-.41.19-.92.58-1.54.39-.62.95-1.11,1.69-1.48s1.54-.55,2.41-.55c1.35,0,2.45.4,3.31,1.2.86.8,1.29,1.78,1.29,2.92,0,.58-.12,1.12-.37,1.61-.25.5-.84,1.18-1.78,2.06-.74.69-2.17,1.93-4.3,3.71Z"></path><path class="cls-1" d="M280.68,99.58v2.31c0,1.37-.4,2.68-1.2,3.93-.8,1.25-1.95,1.88-3.44,1.88-.86,0-1.59-.19-2.18-.56-.59-.37-1.16-1.06-1.69-2.06-.53-1-.8-2.06-.8-3.18v-2.31c0-1.36.4-2.67,1.2-3.92.8-1.25,1.94-1.88,3.44-1.88.85,0,1.58.18,2.17.55s1.16,1.05,1.7,2.06.81,2.07.81,3.19ZM278.54,99.58c0-1.14-.32-2.14-.97-2.99-.37-.47-.88-.71-1.55-.71s-1.17.26-1.58.78c-.62.79-.93,1.76-.93,2.92v2.31c0,1.15.33,2.15.98,2.99.36.47.88.71,1.55.71.64,0,1.16-.26,1.57-.78.62-.79.93-1.76.93-2.92v-2.31Z"></path><path class="cls-1" d="M290.03,105.28h4.68c.26-.21.5-.31.73-.31.33,0,.58.11.78.32s.29.57.29,1.09v1h-9.73v-2.23c3.85-3.12,6.17-5.13,6.97-6.03.4-.46.6-.89.6-1.3,0-.51-.23-.97-.68-1.36s-1.06-.59-1.82-.59-1.4.22-1.91.66c-.26.23-.48.58-.63,1.04-.1.29-.23.49-.4.62s-.38.18-.63.18c-.29,0-.54-.1-.75-.31s-.32-.44-.32-.72c0-.41.19-.92.58-1.54.39-.62.95-1.11,1.69-1.48s1.54-.55,2.41-.55c1.35,0,2.45.4,3.31,1.2.86.8,1.29,1.78,1.29,2.92,0,.58-.12,1.12-.37,1.61-.25.5-.84,1.18-1.78,2.06-.74.69-2.17,1.93-4.3,3.71Z"></path><path class="cls-1" d="M311.07,100.36c.63.42,1.1.91,1.42,1.47.31.56.47,1.18.47,1.87,0,.75-.21,1.43-.62,2.07-.41.63-1.01,1.11-1.8,1.44-.78.32-1.81.49-3.08.49-1.65,0-2.89-.25-3.73-.76-.46-.29-.7-.63-.7-1.03,0-.3.1-.56.31-.76.21-.21.45-.31.75-.31.2,0,.41.07.62.21.31.21.59.34.86.41.42.1.99.14,1.72.14,1.24,0,2.14-.16,2.7-.48.56-.32.83-.77.83-1.35,0-.43-.16-.85-.48-1.25-.32-.4-.75-.71-1.3-.93-.31-.12-.84-.21-1.58-.26-.35-.02-.63-.13-.82-.32-.19-.19-.29-.44-.29-.72s.1-.55.31-.76.47-.31.79-.31c.71,0,1.09,0,1.14-.01.28-.03.56-.12.83-.27s.5-.36.67-.62c.17-.26.25-.53.25-.81,0-.44-.2-.83-.6-1.15-.4-.32-1-.49-1.8-.49-1.03,0-1.81.29-2.35.88-.16.17-.29.28-.39.33-.15.08-.31.11-.49.11-.29,0-.54-.1-.75-.31-.21-.21-.31-.46-.31-.76,0-.47.32-.93.96-1.37.93-.65,2.09-.97,3.49-.97,1.32,0,2.38.37,3.18,1.11s1.2,1.63,1.2,2.67c0,.54-.12,1.04-.35,1.51-.24.47-.59.9-1.06,1.3Z"></path></g><g><path class="cls-1" d="M25.85,224.25l9.67,1.09.13-1.17c.09-.78.3-1.32.64-1.62.34-.3.75-.42,1.24-.37.47.05.84.26,1.11.63.26.37.35.94.26,1.72l-.48,4.26c-.09.78-.3,1.32-.64,1.62-.34.3-.75.42-1.24.37-.47-.05-.84-.26-1.11-.62-.26-.36-.36-.88-.28-1.57l-12.69-1.43c-.12.56-.34.97-.67,1.23-.33.26-.71.36-1.16.31-.49-.05-.86-.27-1.12-.63s-.35-.94-.26-1.72l.42-3.56,10.26-3.31-9.29-5.44.42-3.59c.09-.78.3-1.32.63-1.62.33-.3.74-.42,1.23-.37.44.05.8.24,1.06.57.26.33.39.78.38,1.34l12.69,1.43c.08-.69.29-1.17.63-1.47s.75-.41,1.23-.36.84.26,1.11.63c.26.37.35.94.26,1.72l-.48,4.27c-.09.77-.3,1.3-.64,1.6-.34.3-.75.42-1.24.37-.47-.05-.84-.26-1.11-.63-.26-.37-.35-.93-.26-1.71l.13-1.19-9.67-1.09,7.94,4.66-.32,2.82-8.78,2.82Z"></path><path class="cls-1" d="M33.79,203.44l4.69.98,1.7-8.15-1.73-.36c-.77-.16-1.29-.42-1.55-.79s-.35-.79-.25-1.26c.1-.47.34-.82.73-1.04.39-.23.97-.26,1.74-.1l4.93,1.03-3.13,15.05c-.16.77-.42,1.29-.79,1.55-.37.27-.79.35-1.26.25-.47-.1-.81-.34-1.04-.74-.23-.39-.26-.97-.1-1.73l.1-.5-12.5-2.6-.1.5c-.16.77-.42,1.29-.79,1.55s-.79.35-1.26.25-.83-.34-1.06-.73c-.23-.39-.26-.97-.1-1.74l3-14.34,4.86,1.01c.76.16,1.27.42,1.54.78s.35.78.25,1.26-.34.83-.73,1.06c-.38.23-.96.26-1.73.1l-1.67-.35-1.55,7.45,4.62.96.58-2.81c-.83-.17-1.35-.36-1.56-.57-.44-.43-.6-.94-.48-1.53.1-.47.34-.82.73-1.04.39-.23.97-.26,1.74-.1l3.68.77c.7.15,1.15.33,1.35.54.42.43.57.93.45,1.49-.12.59-.47,1-1.05,1.21-.27.11-.83.07-1.67-.1l-.58,2.81Z"></path><path class="cls-1" d="M43.28,177.94l-2.33,7.58,1.67,1.35.23-.76c.23-.75.54-1.24.93-1.47s.81-.27,1.28-.13c.46.14.78.42.97.82.19.41.17.99-.06,1.74l-1.29,4.2c-.23.75-.54,1.24-.93,1.47s-.81.27-1.28.13c-.47-.14-.8-.43-.99-.85-.19-.43-.16-1.02.1-1.79l-10.7-8.66-.63,2.04c-.23.75-.54,1.24-.93,1.47s-.81.27-1.28.13c-.47-.14-.8-.42-.99-.83-.19-.41-.17-.99.06-1.74l2.09-6.74,17.24-1.49c.23-.73.46-1.19.69-1.37.48-.36.99-.46,1.54-.29.46.14.78.41.97.82s.17.98-.06,1.73l-1.29,4.2c-.23.75-.54,1.24-.93,1.47-.39.23-.82.27-1.28.13-.46-.14-.78-.42-.97-.82-.19-.41-.17-.99.06-1.74l.23-.76-2.13.16ZM39.76,178.27l-6.95.61,5.4,4.43,1.55-5.04Z"></path><path class="cls-1" d="M39.36,157.77l11.8,4.88.84-2.03c.3-.73.65-1.19,1.06-1.38s.84-.2,1.29-.01c.44.18.74.49.89.91.15.42.08,1-.22,1.73l-2.92,7.06c-.3.73-.65,1.19-1.06,1.38-.41.19-.84.2-1.29,0-.44-.18-.74-.49-.89-.91-.15-.42-.08-1,.22-1.73l.83-2.02-11.8-4.88-1.35,3.27,2.86,1.18c.73.3,1.19.65,1.38,1.06s.2.84.01,1.29c-.18.44-.49.74-.91.89-.42.15-1,.08-1.73-.22l-5.89-2.43,6.48-15.62,5.87,2.43c.73.3,1.19.65,1.38,1.06.19.41.2.84.01,1.29-.18.44-.49.74-.91.89-.42.15-1,.08-1.73-.22l-2.85-1.18-1.37,3.31Z"></path><path class="cls-1" d="M64.64,135.96l-10.7-6.98c-.39.57-.8.91-1.23,1.02-.43.11-.85.04-1.25-.23-.41-.27-.65-.62-.72-1.07-.07-.45.11-1,.54-1.66l3.75-5.71c.58-.89,1.31-1.65,2.2-2.29s1.75-1.04,2.59-1.23c.64-.14,1.43-.21,2.37-.19.94.01,1.81.13,2.61.34.8.22,1.67.63,2.62,1.25l1.31.85c1.16.75,2.05,1.62,2.69,2.59.64.97,1.03,1.96,1.18,2.97.15,1,.18,1.87.08,2.61-.16,1.16-.71,2.45-1.63,3.86l-3.58,5.5c-.43.66-.86,1.04-1.3,1.16-.44.11-.86.04-1.27-.23-.4-.26-.64-.62-.71-1.06-.08-.45.08-.95.46-1.52ZM66.42,133.23l1.9-2.91c.71-1.08,1.09-2,1.13-2.76.06-.99-.11-1.87-.5-2.65s-1.09-1.49-2.1-2.15l-1.29-.84c-.86-.56-1.73-.89-2.59-.99-1.35-.15-2.42-.02-3.22.38s-1.51,1.08-2.15,2.05l-1.88,2.88,10.7,6.98Z"></path><path class="cls-1" d="M74.12,113.77l3.76,2.98,5.17-6.53-1.38-1.1c-.62-.49-.96-.96-1.03-1.4-.07-.45.04-.86.34-1.24.3-.38.67-.58,1.12-.61.45-.03.98.2,1.6.69l3.94,3.13-9.55,12.04c-.49.62-.96.96-1.4,1.03-.45.07-.86-.04-1.24-.34-.38-.3-.58-.67-.6-1.13-.03-.45.2-.98.68-1.59l.32-.4-10.01-7.94-.32.4c-.49.62-.95.96-1.4,1.04-.44.07-.86-.04-1.24-.34-.38-.3-.59-.68-.62-1.13s.2-.98.69-1.6l9.12-11.47,3.89,3.09c.61.48.95.94,1.03,1.38.08.44-.04.85-.34,1.24-.3.38-.68.59-1.12.62-.45.03-.98-.2-1.59-.68l-1.33-1.06-4.73,5.96,3.69,2.93,1.78-2.25c-.67-.53-1.04-.93-1.14-1.21-.2-.58-.12-1.11.26-1.58.3-.38.67-.58,1.12-.61s.98.2,1.6.69l2.95,2.34c.56.44.88.8.96,1.09.18.58.09,1.09-.26,1.54-.38.47-.87.68-1.48.61-.29-.03-.77-.31-1.45-.84l-1.78,2.25Z"></path><path class="cls-1" d="M82.5,91.67l9.24,8.82,4.86-5.09-2.23-2.13c-.57-.54-.87-1.04-.9-1.49-.03-.45.12-.85.46-1.2.33-.35.72-.51,1.17-.5.45.01.96.29,1.53.83l4.59,4.39-10.68,11.18c-.54.57-1.04.87-1.49.9-.45.03-.85-.12-1.21-.46-.34-.33-.51-.72-.5-1.17.01-.45.29-.96.83-1.53l1.31-1.37-9.24-8.82-1.31,1.37c-.54.57-1.04.87-1.49.9-.45.03-.85-.12-1.2-.46-.35-.34-.52-.73-.51-1.18.01-.45.29-.96.83-1.53l4.9-5.1c.54-.57,1.04-.87,1.48-.91.45-.04.85.11,1.2.45.35.34.52.73.51,1.18-.01.45-.29.96-.83,1.53l-1.32,1.38Z"></path><path class="cls-1" d="M99.57,75.4l8.38,9.64,2.49-2.16c.59-.52,1.11-.77,1.57-.76s.84.2,1.16.57c.31.36.44.76.39,1.21-.05.45-.38.93-.97,1.45l-7.44,6.47c-.59.52-1.11.77-1.57.76-.45,0-.84-.2-1.16-.57-.31-.36-.44-.76-.39-1.21.05-.45.38-.93.97-1.45l2.49-2.16-8.38-9.64-2.49,2.16c-.59.52-1.11.77-1.57.76s-.84-.2-1.16-.57c-.32-.37-.45-.78-.4-1.22.05-.45.38-.93.97-1.45l7.45-6.46c.59-.52,1.11-.77,1.56-.77.45,0,.83.19,1.15.56.32.37.45.78.4,1.22-.05.45-.38.93-.97,1.45l-2.49,2.16Z"></path><path class="cls-1" d="M117.2,58.72c0-.34.06-.64.17-.89.11-.25.28-.46.51-.62.39-.28.8-.37,1.24-.28.44.09.89.46,1.35,1.09l1.62,2.25c.46.64.66,1.18.61,1.63s-.27.81-.66,1.09c-.35.25-.71.36-1.07.32-.36-.04-.78-.3-1.28-.77-.32-.32-.64-.51-.97-.58-.63-.13-1.35-.09-2.15.13-.8.22-1.52.56-2.16,1.02-.79.57-1.4,1.27-1.81,2.09-.42.82-.6,1.8-.55,2.95s.46,2.25,1.23,3.31l1.24,1.72c.92,1.28,2.15,2.01,3.69,2.19,1.54.19,3.13-.31,4.78-1.5.98-.71,1.72-1.44,2.21-2.2.28-.44.49-1.05.61-1.83.08-.47.16-.81.26-1,.1-.19.24-.36.44-.5.35-.25.76-.34,1.22-.27.46.08.82.29,1.08.66.26.36.36.88.29,1.55-.09.98-.43,1.94-1.01,2.88-.78,1.27-1.84,2.38-3.18,3.35-1.57,1.13-3.21,1.82-4.94,2.08-1.39.21-2.84.02-4.36-.58-1.52-.6-2.75-1.56-3.7-2.88l-1.29-1.8c-.99-1.38-1.6-2.9-1.81-4.55s.01-3.22.68-4.68c.67-1.47,1.65-2.66,2.92-3.58.77-.55,1.55-.98,2.34-1.28s1.61-.48,2.45-.54Z"></path><path class="cls-1" d="M140.59,59.74l-6.84,4.02.32,2.12.69-.4c.68-.4,1.24-.55,1.68-.46.44.09.79.35,1.03.77.24.41.29.83.16,1.26-.13.43-.54.84-1.22,1.24l-3.79,2.23c-.68.4-1.24.55-1.68.46-.44-.09-.79-.35-1.03-.77-.25-.42-.3-.85-.15-1.3.15-.44.57-.86,1.28-1.25l-2.05-13.61-1.84,1.08c-.68.4-1.24.55-1.68.46-.44-.09-.79-.35-1.03-.77-.25-.42-.3-.85-.17-1.28.13-.43.54-.84,1.22-1.24l6.09-3.56,13.73,10.54c.66-.39,1.14-.57,1.43-.55.6.05,1.04.33,1.33.82.24.41.3.83.17,1.26-.13.43-.54.84-1.21,1.24l-3.79,2.23c-.68.4-1.24.55-1.68.46-.44-.09-.79-.35-1.03-.77-.24-.41-.3-.83-.16-1.26.13-.43.54-.84,1.22-1.24l.69-.4-1.68-1.32ZM137.76,57.62l-5.54-4.24,1,6.91,4.54-2.67Z"></path><path class="cls-1" d="M153.49,38.5c.07-.34.18-.62.33-.84.16-.23.36-.4.61-.52.43-.2.86-.22,1.27-.05s.79.61,1.12,1.32l1.18,2.51c.33.71.43,1.28.3,1.71-.13.43-.41.75-.85.95-.39.18-.76.22-1.11.11s-.71-.44-1.11-.99c-.26-.37-.54-.62-.84-.75-.6-.25-1.31-.34-2.14-.26-.83.07-1.6.27-2.31.61-.88.41-1.61.99-2.17,1.72-.56.73-.92,1.66-1.08,2.79-.16,1.13.04,2.29.6,3.49l.9,1.92c.67,1.42,1.74,2.37,3.22,2.83,1.48.47,3.14.27,4.97-.59,1.1-.51,1.95-1.1,2.57-1.75.36-.38.67-.94.93-1.69.16-.45.31-.76.44-.94.13-.17.31-.31.53-.41.39-.18.81-.2,1.25-.04.44.16.75.44.94.84.19.4.19.93,0,1.58-.27.95-.78,1.83-1.52,2.65-1,1.1-2.25,2-3.75,2.71-1.75.82-3.5,1.2-5.24,1.14-1.4-.04-2.8-.5-4.18-1.37-1.38-.87-2.42-2.04-3.11-3.51l-.94-2c-.72-1.54-1.04-3.14-.94-4.81s.6-3.16,1.54-4.47c.93-1.32,2.11-2.31,3.53-2.97.86-.4,1.7-.68,2.54-.83.84-.15,1.67-.18,2.51-.08Z"></path><path class="cls-1" d="M170.46,34.47l4.32,12.02,3.1-1.12c.74-.27,1.32-.31,1.74-.14.42.17.71.49.87.95.16.45.14.87-.08,1.27-.21.4-.69.73-1.43,1l-9.28,3.33c-.74.27-1.32.31-1.73.14s-.71-.49-.87-.95c-.16-.45-.14-.87.08-1.27.21-.4.69-.73,1.43-1l3.1-1.11-4.32-12.02-3.1,1.12c-.74.27-1.32.31-1.74.14-.42-.17-.71-.49-.87-.95s-.14-.89.07-1.29c.21-.4.69-.73,1.43-1l9.28-3.32c.74-.27,1.32-.31,1.73-.15.42.17.71.48.87.94.17.46.14.89-.07,1.29-.21.4-.69.73-1.43,1l-3.1,1.11Z"></path><path class="cls-1" d="M187.31,37.54l1.19,4.64,8.07-2.07-.44-1.71c-.2-.76-.19-1.34.02-1.74.21-.4.55-.66,1.02-.78.46-.12.88-.05,1.26.19.38.25.66.75.86,1.51l1.25,4.87-14.88,3.83c-.76.2-1.34.19-1.74-.02-.4-.21-.66-.55-.78-1.02-.12-.46-.05-.88.2-1.26.25-.38.76-.66,1.51-.86l.49-.13-3.18-12.37-.49.13c-.76.2-1.34.19-1.74-.02s-.66-.55-.78-1.02c-.12-.47-.06-.9.19-1.27.25-.38.75-.66,1.51-.86l14.19-3.63,1.24,4.81c.19.75.19,1.33-.02,1.72-.21.4-.54.66-1.02.78-.47.12-.9.06-1.27-.18-.38-.24-.66-.75-.86-1.51l-.42-1.65-7.37,1.9,1.17,4.57,2.78-.71c-.21-.82-.27-1.37-.18-1.65.19-.59.58-.95,1.16-1.1.46-.12.88-.05,1.26.19.38.25.66.75.86,1.51l.94,3.64c.18.69.21,1.17.11,1.45-.21.57-.58.92-1.14,1.07-.59.15-1.1.02-1.55-.41-.21-.2-.43-.71-.64-1.54l-2.78.71Z"></path><path class="cls-1" d="M206.42,40.55c-.23.38-.42.63-.58.75s-.36.2-.61.24c-.49.08-.92-.02-1.27-.31-.35-.28-.59-.81-.71-1.57l-.35-2.17c-.12-.78-.06-1.35.18-1.73s.62-.61,1.11-.69c.38-.06.71-.01,1,.15s.54.46.75.9c.21.44.4.74.58.88.36.28.95.52,1.78.73.83.21,1.71.24,2.63.1,1.44-.23,2.56-.75,3.38-1.57.52-.5.73-1.05.64-1.65-.06-.4-.26-.75-.6-1.06-.34-.31-.85-.52-1.52-.65-.45-.09-1.42-.16-2.92-.19-1.81-.04-3.21-.22-4.18-.54s-1.79-.85-2.45-1.61c-.66-.75-1.07-1.62-1.22-2.59-.25-1.54.18-2.99,1.29-4.36,1.1-1.36,2.69-2.21,4.75-2.54.83-.13,1.61-.16,2.35-.09.74.07,1.42.25,2.06.53.35-.48.74-.75,1.16-.81.47-.08.88.03,1.23.31s.59.81.71,1.57l.39,2.42c.12.78.06,1.35-.18,1.73s-.6.6-1.08.68c-.4.06-.76,0-1.1-.2-.26-.14-.49-.47-.69-.99-.2-.52-.41-.88-.62-1.08-.37-.35-.88-.61-1.53-.79-.65-.17-1.38-.2-2.17-.07-1.16.19-2.04.6-2.63,1.25s-.84,1.27-.74,1.85c.06.4.26.76.6,1.09.34.33.79.55,1.36.68.38.09,1.42.17,3.12.23,1.7.06,3.03.22,3.98.46s1.78.74,2.5,1.47,1.17,1.67,1.35,2.82c.25,1.59-.1,2.96-1.07,4.09-1.29,1.5-3.08,2.43-5.39,2.8-.89.14-1.78.17-2.65.09-.88-.08-1.75-.27-2.62-.57Z"></path><path class="cls-1" d="M253.42,32.94l-7.93-.2-.85,1.97.8.02c.79.02,1.34.19,1.67.5.33.31.48.71.47,1.2-.01.48-.19.86-.53,1.16s-.91.43-1.69.41l-4.39-.11c-.79-.02-1.34-.18-1.67-.5-.33-.31-.48-.71-.47-1.2.01-.49.2-.88.56-1.18s.94-.43,1.75-.39l5.45-12.64-2.13-.05c-.79-.02-1.34-.19-1.67-.5-.33-.31-.48-.71-.47-1.2.01-.49.19-.88.53-1.17.34-.29.91-.43,1.69-.41l7.05.19,6.09,16.2c.76.02,1.27.12,1.51.29.48.36.71.83.7,1.4-.01.48-.19.86-.52,1.16-.34.29-.9.43-1.68.41l-4.39-.11c-.79-.02-1.34-.19-1.67-.5-.33-.31-.48-.71-.47-1.2.01-.48.19-.86.53-1.16.34-.29.91-.43,1.69-.41l.8.02-.73-2.01ZM252.15,29.64l-2.46-6.53-2.81,6.4,5.27.13Z"></path><path class="cls-1" d="M265.82,25.92l-1.15,9.81,1.17.14c.78.09,1.32.31,1.62.65.3.34.42.75.36,1.24-.06.47-.27.84-.63,1.1-.37.26-.94.35-1.72.25l-4.25-.5c-.78-.09-1.32-.31-1.62-.65s-.42-.75-.36-1.24c.05-.46.26-.83.63-1.1.36-.27.89-.36,1.57-.28l1.49-12.69-.51-.06c-.78-.09-1.32-.31-1.62-.65s-.42-.75-.36-1.24c.06-.48.27-.86.64-1.12.37-.26.94-.35,1.72-.25l3.75.46,6.76,13.98,1.15-9.76-1.17-.14c-.78-.09-1.32-.31-1.62-.65-.3-.34-.42-.75-.36-1.24.06-.49.27-.86.64-1.12.37-.26.94-.35,1.72-.25l4.25.52c.78.09,1.32.31,1.62.64.3.33.42.74.36,1.23-.06.47-.27.85-.63,1.11-.36.27-.88.36-1.56.28l-1.87,15.93-3.21-.38-6.8-14.03Z"></path><path class="cls-1" d="M280.71,37.84l2.66-12.49c-.67-.15-1.14-.41-1.4-.78-.26-.36-.34-.78-.24-1.25.1-.48.35-.83.74-1.06.39-.23.97-.26,1.74-.09l6.68,1.44c1.04.22,2.01.63,2.92,1.22.91.6,1.6,1.25,2.08,1.97.36.54.71,1.26,1.03,2.14.33.88.53,1.74.62,2.56.08.82,0,1.79-.23,2.9l-.33,1.53c-.29,1.35-.77,2.5-1.45,3.44s-1.46,1.67-2.34,2.17c-.88.5-1.68.84-2.41,1.01-1.14.27-2.54.22-4.19-.13l-6.42-1.37c-.77-.16-1.29-.43-1.55-.79-.26-.37-.35-.79-.24-1.26.1-.47.34-.82.74-1.05.39-.23.92-.27,1.58-.12ZM283.9,38.52l3.4.72c1.27.27,2.26.29,2.98.07.94-.3,1.71-.77,2.29-1.42s1-1.56,1.25-2.73l.32-1.51c.21-1.01.21-1.93-.01-2.77-.35-1.31-.85-2.27-1.51-2.87-.66-.6-1.55-1.02-2.69-1.26l-3.36-.72-2.66,12.49Z"></path><path class="cls-1" d="M318.67,48.36l4.93-11.78-.47-.2c-.72-.3-1.18-.66-1.37-1.07s-.19-.84,0-1.29c.19-.45.5-.75.92-.9.42-.15,1-.07,1.72.23l7.55,3.16c1.8.75,3.04,1.86,3.72,3.33.68,1.46.73,2.89.15,4.27-.28.66-.66,1.22-1.16,1.69-.5.47-1.11.84-1.83,1.12.71.97,1.15,1.93,1.3,2.89s.04,1.92-.37,2.88c-.32.76-.79,1.4-1.41,1.92-.46.39-.94.66-1.44.8-.67.2-1.42.28-2.26.24-.83-.04-1.79-.29-2.88-.75l-8.84-3.71c-.72-.3-1.18-.66-1.37-1.07-.19-.41-.19-.84,0-1.29.18-.44.49-.74.92-.88.43-.15,1-.07,1.72.23l.47.2ZM321.68,49.62l5.2,2.18c1.22.51,2.16.69,2.81.54.5-.11.85-.43,1.07-.93.25-.61.13-1.36-.38-2.27s-1.47-1.65-2.88-2.24l-3.98-1.67-1.84,4.39ZM324.79,42.21l3.31,1.38c1.18.5,2.29.61,3.33.34.7-.18,1.17-.57,1.42-1.17.22-.53.17-1.1-.17-1.7s-1.04-1.14-2.13-1.59l-3.92-1.64-1.83,4.38Z"></path><path class="cls-1" d="M347.06,59.52l-6.99-3.74-1.64,1.38.7.38c.69.37,1.11.77,1.27,1.19s.11.85-.12,1.28c-.23.42-.56.69-.99.79-.44.11-1-.02-1.7-.39l-3.88-2.07c-.69-.37-1.12-.77-1.27-1.19-.15-.42-.11-.85.12-1.28s.57-.7,1.03-.81c.45-.11,1.03.04,1.73.44l10.55-8.84-1.88-1.01c-.69-.37-1.12-.77-1.27-1.19-.15-.42-.11-.85.12-1.28s.56-.7,1-.81c.44-.11,1,.02,1.7.39l6.21,3.34-1.84,17.21c.67.36,1.08.67,1.21.94.27.54.26,1.06,0,1.57-.23.42-.55.69-.99.8-.43.11-1-.02-1.69-.39l-3.88-2.07c-.69-.37-1.12-.77-1.27-1.19s-.11-.85.12-1.28c.23-.42.56-.69,1-.79.44-.11,1,.02,1.7.39l.7.38.25-2.12ZM347.41,56l.73-6.94-5.38,4.45,4.65,2.49Z"></path><path class="cls-1" d="M358.98,64.21l-2.27,3.42.98.65c.65.43,1.04.87,1.15,1.31.11.44.03.86-.24,1.27-.26.4-.62.63-1.07.7s-1-.12-1.65-.55l-4.13-2.74c-.65-.43-1.04-.87-1.15-1.31-.11-.44-.03-.86.24-1.27.26-.4.62-.63,1.07-.69.45-.06,1,.12,1.64.55l.42.28,7.06-10.65-.42-.28c-.66-.43-1.04-.87-1.15-1.31-.11-.44-.03-.86.24-1.27.27-.41.63-.64,1.07-.71.45-.07,1,.12,1.65.55l6.15,4.1c1.92,1.27,3.09,2.74,3.52,4.39s.19,3.16-.72,4.52c-.56.85-1.32,1.46-2.28,1.82-.96.37-2.11.49-3.47.36.24.89.43,1.94.56,3.16.07.77.1,1.93.08,3.45.69.46,1.1.83,1.23,1.12.22.54.16,1.06-.17,1.55-.26.4-.62.63-1.06.7s-.99-.11-1.64-.55l-1.55-1.03c.06-4.87-.41-8.13-1.41-9.78l-2.69-1.79ZM360.79,61.49l2.12,1.41c.79.52,1.57.87,2.35,1.04,1.04.23,1.83.27,2.35.1s.9-.42,1.13-.76c.34-.51.38-1.17.12-1.97-.26-.8-.91-1.55-1.97-2.25l-3.12-2.07-2.98,4.5Z"></path><path class="cls-1" d="M370.25,76.97l8.03-9.94-.4-.32c-.61-.49-.95-.96-1.02-1.41-.07-.45.05-.86.36-1.24.31-.38.69-.58,1.14-.61.45-.03.98.21,1.59.7l6.37,5.14c1.52,1.23,2.4,2.64,2.64,4.23s-.11,2.97-1.05,4.14c-.45.55-.97.99-1.58,1.3s-1.3.5-2.07.56c.41,1.13.56,2.17.45,3.13-.12.96-.5,1.85-1.16,2.66-.52.64-1.15,1.13-1.88,1.45-.56.25-1.09.37-1.6.36-.7,0-1.45-.13-2.23-.4-.79-.27-1.64-.78-2.56-1.52l-7.46-6.02c-.61-.49-.95-.96-1.02-1.41-.07-.45.05-.86.36-1.24.3-.37.68-.57,1.13-.59.46-.02.98.21,1.59.7l.4.32ZM372.79,79.02l4.39,3.54c1.03.83,1.88,1.27,2.55,1.3.51.03.94-.17,1.28-.6.41-.51.5-1.27.27-2.28-.24-1.01-.95-1.99-2.14-2.96l-3.36-2.71-2.99,3.7ZM377.83,72.78l2.79,2.25c1,.81,2.03,1.23,3.1,1.26.72.02,1.28-.22,1.69-.72.36-.45.46-1.01.31-1.68-.15-.67-.69-1.38-1.6-2.12l-3.31-2.67-2.98,3.69Z"></path><path class="cls-1" d="M391.1,88.46l-3.35,3.43,5.96,5.82,1.24-1.27c.55-.56,1.05-.86,1.5-.89.45-.03.85.13,1.2.47.34.33.5.73.49,1.18-.02.45-.3.96-.85,1.52l-3.51,3.6-11-10.73c-.56-.55-.86-1.05-.89-1.5-.03-.45.13-.85.47-1.2.33-.34.73-.5,1.18-.48.45.02.96.3,1.51.84l.37.36,8.92-9.14-.37-.36c-.56-.55-.86-1.05-.89-1.5-.03-.45.13-.85.47-1.2s.74-.52,1.19-.5c.45.02.96.3,1.52.85l10.48,10.24-3.47,3.56c-.54.55-1.04.85-1.48.88-.45.03-.84-.12-1.19-.46-.35-.34-.52-.73-.5-1.18.01-.45.29-.95.84-1.51l1.19-1.22-5.45-5.32-3.29,3.37,2.05,2c.59-.61,1.03-.94,1.32-1.01.6-.14,1.11,0,1.55.42.34.33.5.73.49,1.18-.02.45-.3.96-.85,1.52l-2.62,2.69c-.5.51-.89.79-1.18.85-.59.12-1.09-.02-1.5-.42-.43-.42-.59-.94-.46-1.54.06-.29.39-.74.99-1.35l-2.05-2Z"></path><path class="cls-1" d="M418.52,102.72c.34-.03.64,0,.9.1.26.09.48.24.66.46.31.36.44.77.38,1.21-.06.44-.38.92-.98,1.43l-2.11,1.79c-.6.51-1.12.76-1.57.74-.45-.01-.83-.2-1.14-.57-.28-.33-.42-.68-.4-1.04s.24-.81.66-1.34c.29-.35.46-.68.5-1.01.08-.64-.02-1.35-.31-2.13-.29-.78-.68-1.47-1.19-2.07-.63-.75-1.38-1.29-2.23-1.64-.85-.35-1.85-.45-2.98-.31-1.13.14-2.2.64-3.21,1.49l-1.62,1.37c-1.2,1.02-1.83,2.3-1.89,3.85-.06,1.55.56,3.1,1.88,4.64.78.92,1.57,1.6,2.37,2.02.46.25,1.09.4,1.87.46.48.04.82.1,1.02.18.2.08.38.21.54.4.28.33.4.73.37,1.19s-.23.84-.57,1.13c-.34.29-.85.43-1.53.42-.99-.01-1.97-.27-2.95-.77-1.32-.67-2.52-1.64-3.59-2.9-1.25-1.47-2.08-3.06-2.47-4.76-.33-1.37-.25-2.83.23-4.39.48-1.56,1.34-2.87,2.57-3.92l1.69-1.43c1.29-1.1,2.76-1.82,4.39-2.17,1.63-.35,3.21-.25,4.72.31,1.51.55,2.78,1.43,3.8,2.63.61.72,1.1,1.46,1.47,2.23.37.77.61,1.57.73,2.4Z"></path><path class="cls-1" d="M430.4,123.06l-7.58,5.3c-1.65,1.16-3.47,1.54-5.46,1.17-1.99-.38-3.57-1.4-4.73-3.07-.58-.83-.98-1.71-1.19-2.64-.22-.93-.24-1.88-.08-2.86.16-.97.44-1.84.82-2.59.39-.75,1.1-1.49,2.12-2.2l7.58-5.3c-.4-.57-.56-1.07-.5-1.52.06-.45.29-.81.68-1.08.4-.28.82-.37,1.25-.27.43.1.88.48,1.33,1.13l2.47,3.5c.45.64.65,1.19.59,1.64-.06.45-.28.81-.68,1.09-.4.28-.82.37-1.26.27-.44-.1-.88-.47-1.33-1.12l-.67-.97-7.82,5.47c-.8.56-1.27,1.39-1.42,2.48s.11,2.11.76,3.05c.44.63,1,1.11,1.67,1.45.68.34,1.42.49,2.23.44.51-.03,1.02-.23,1.53-.59l7.82-5.47-.68-.97c-.45-.64-.65-1.19-.59-1.64.06-.45.29-.81.69-1.09.4-.28.82-.37,1.26-.27.44.1.88.47,1.33,1.12l2.44,3.52c.45.64.65,1.19.6,1.63-.05.44-.28.81-.68,1.09-.39.27-.81.36-1.25.27-.44-.09-.86-.42-1.25-.99Z"></path><path class="cls-1" d="M428.68,135.64l-4.17,2.37,4.11,7.25,1.54-.87c.68-.39,1.25-.53,1.68-.43.44.1.78.36,1.02.79.24.42.28.84.14,1.27-.14.43-.55.84-1.24,1.22l-4.38,2.48-7.58-13.37c-.39-.68-.53-1.25-.43-1.69.1-.44.36-.78.78-1.02.42-.24.84-.28,1.27-.13.43.15.84.56,1.22,1.23l.25.44,11.11-6.3-.25-.44c-.39-.68-.53-1.25-.43-1.69.1-.44.36-.78.78-1.02s.85-.29,1.28-.15c.43.14.84.55,1.22,1.24l7.22,12.75-4.32,2.45c-.67.38-1.23.53-1.67.43-.44-.09-.78-.35-1.02-.78s-.29-.85-.16-1.28c.14-.43.55-.83,1.23-1.22l1.48-.84-3.76-6.62-4.1,2.33,1.42,2.49c.74-.42,1.25-.62,1.54-.6.61.03,1.07.31,1.37.83.24.42.28.84.14,1.27-.14.43-.55.84-1.24,1.22l-3.27,1.85c-.62.35-1.08.51-1.37.49-.6-.05-1.04-.32-1.33-.82-.3-.53-.3-1.06-.01-1.6.13-.26.58-.6,1.32-1.02l-1.42-2.49Z"></path><path class="cls-1" d="M440.14,170.56l12.1-4.1-.16-.48c-.25-.74-.29-1.32-.11-1.74.18-.41.5-.7.96-.86.46-.16.89-.12,1.29.09s.72.7.97,1.45l2.62,7.75c.63,1.85.62,3.51-.03,4.99-.65,1.47-1.68,2.45-3.1,2.93-.67.23-1.35.31-2.03.25-.68-.06-1.37-.27-2.05-.63-.25,1.17-.69,2.13-1.3,2.89-.62.75-1.42,1.29-2.4,1.63-.78.27-1.57.34-2.37.21-.6-.09-1.12-.27-1.55-.55-.6-.37-1.15-.88-1.67-1.54-.52-.65-.97-1.54-1.34-2.66l-3.08-9.08c-.25-.74-.29-1.32-.11-1.74.18-.41.5-.7.96-.86.45-.15.88-.12,1.27.11s.72.7.97,1.44l.16.48ZM441.19,173.65l1.81,5.34c.43,1.26.91,2.08,1.46,2.47.41.3.88.36,1.41.18.62-.21,1.11-.81,1.45-1.78.34-.98.27-2.19-.22-3.64l-1.38-4.09-4.51,1.53ZM448.79,171.08l1.15,3.39c.41,1.22,1.06,2.12,1.95,2.72.6.4,1.2.5,1.81.29.54-.18.93-.6,1.17-1.25.23-.65.16-1.54-.22-2.65l-1.36-4.03-4.5,1.52Z"></path><path class="cls-1" d="M450.56,199.25l-1.82-7.72-2.12-.32.18.77c.18.76.16,1.34-.06,1.74-.22.4-.56.65-1.04.76-.46.11-.88.04-1.25-.22-.37-.26-.65-.77-.83-1.53l-1.01-4.28c-.18-.76-.16-1.34.06-1.74.22-.39.56-.65,1.04-.76.47-.11.9-.03,1.28.24.38.27.65.8.82,1.59l13.61,2.06-.49-2.08c-.18-.76-.16-1.34.06-1.74.22-.4.56-.65,1.04-.76.48-.11.9-.04,1.27.22s.65.77.83,1.53l1.6,6.87-14.12,10c.18.74.21,1.25.1,1.53-.23.56-.62.9-1.18,1.03-.46.11-.88.04-1.25-.21s-.65-.76-.83-1.52l-1.01-4.28c-.18-.76-.16-1.34.06-1.74.22-.39.56-.65,1.04-.76.46-.11.88-.04,1.25.22.37.26.65.77.83,1.53l.18.78,1.76-1.22ZM453.43,197.18l5.69-4.04-6.9-1.09,1.21,5.13Z"></path><path class="cls-1" d="M454.92,211.27l-4.07.56.16,1.17c.11.78.03,1.35-.22,1.73-.25.37-.62.59-1.11.66-.47.07-.88-.05-1.23-.34-.34-.29-.57-.82-.68-1.6l-.68-4.91c-.11-.78-.03-1.35.22-1.73s.62-.59,1.11-.66c.47-.07.88.05,1.23.34.35.29.57.83.68,1.59l.07.5,12.65-1.75-.07-.5c-.11-.78-.03-1.35.22-1.73s.62-.59,1.11-.66.9.04,1.24.33.57.82.68,1.6l.99,7.32c.32,2.28,0,4.13-.96,5.54-.96,1.41-2.25,2.23-3.87,2.45-1.01.14-1.97-.03-2.88-.5-.91-.47-1.76-1.26-2.57-2.36-.5.77-1.17,1.6-2,2.51-.53.57-1.38,1.35-2.54,2.34.11.82.1,1.37-.03,1.66-.26.52-.69.82-1.28.9-.47.07-.88-.04-1.23-.33-.34-.28-.57-.82-.68-1.59l-.25-1.85c3.69-3.18,5.82-5.68,6.41-7.52l-.44-3.2ZM458.16,210.83l.35,2.52c.13.94.39,1.75.77,2.45.51.94,1.01,1.55,1.47,1.83.47.28.91.4,1.32.34.61-.08,1.13-.49,1.56-1.21.43-.72.56-1.71.39-2.96l-.51-3.71-5.35.74Z"></path></g><g><path class="cls-1" d="M34.07,280.08l-9.37,1.83.22,1.13c.15.76.11,1.32-.12,1.7-.23.38-.58.61-1.05.71-.46.09-.87,0-1.22-.26s-.6-.78-.75-1.53l-.8-4.12c-.15-.76-.11-1.32.12-1.7.23-.38.58-.61,1.05-.71.46-.09.87,0,1.22.26s.59.72.72,1.39l12.3-2.4c-.06-.56.03-1.01.26-1.35.23-.34.56-.55.99-.63.47-.09.88,0,1.24.26.35.27.6.78.75,1.53l.66,3.45-8.63,6.12,10.3,2.36.66,3.48c.15.76.11,1.32-.11,1.7s-.57.61-1.04.7c-.43.08-.82.01-1.16-.22-.34-.23-.59-.61-.75-1.14l-12.3,2.4c.13.66.08,1.18-.16,1.56-.23.38-.58.61-1.04.7-.46.09-.87,0-1.22-.26s-.6-.78-.75-1.53l-.81-4.14c-.15-.75-.1-1.31.12-1.69s.58-.61,1.05-.71c.46-.09.87,0,1.22.26.35.26.6.77.75,1.52l.22,1.15,9.37-1.83-8.8-2.03-.53-2.73,7.39-5.23Z"></path><path class="cls-1" d="M33.98,301.84l-4.52,1.31,2.28,7.85,1.67-.48c.74-.21,1.31-.23,1.71-.03s.66.52.8.98c.13.45.08.86-.15,1.24-.23.38-.72.67-1.46.89l-4.74,1.38-4.21-14.48c-.22-.74-.23-1.31-.03-1.71.19-.4.52-.66.98-.8.45-.13.86-.08,1.24.16.38.24.67.72.89,1.45l.14.48,12.03-3.5-.14-.48c-.22-.74-.23-1.31-.03-1.71.19-.4.52-.66.98-.8s.88-.08,1.26.15c.38.23.67.72.89,1.46l4,13.81-4.68,1.36c-.73.21-1.29.22-1.69.04s-.66-.51-.8-.97c-.13-.46-.09-.88.14-1.25.23-.38.71-.67,1.45-.89l1.6-.47-2.09-7.17-4.44,1.29.79,2.7c.8-.23,1.34-.31,1.61-.22.58.17.95.54,1.12,1.11.13.45.08.86-.15,1.24-.23.38-.72.67-1.46.89l-3.54,1.03c-.67.2-1.14.25-1.42.15-.56-.18-.92-.54-1.08-1.08-.17-.57-.05-1.08.35-1.53.19-.22.68-.44,1.49-.68l-.79-2.7Z"></path><path class="cls-1" d="M40.1,328.22l-2.84-7.24h-2.1s.29.71.29.71c.28.72.34,1.28.19,1.7-.16.41-.46.71-.9.88-.44.17-.85.16-1.25-.04-.4-.2-.74-.65-1.02-1.37l-1.58-4.01c-.28-.72-.34-1.28-.19-1.7.16-.41.46-.71.9-.88.45-.18.87-.16,1.28.05.41.21.75.69,1.02,1.43l13.5.1-.77-1.95c-.28-.72-.34-1.28-.19-1.7.16-.41.46-.71.9-.88.45-.17.87-.16,1.26.03.4.2.74.65,1.02,1.37l2.51,6.45-12.32,11.68c.27.7.38,1.19.31,1.47-.15.57-.48.96-1,1.17-.44.17-.85.16-1.25-.03-.39-.19-.73-.65-1.01-1.36l-1.58-4.01c-.28-.72-.34-1.28-.19-1.7s.46-.71.9-.88c.44-.17.85-.16,1.25.04.4.2.74.65,1.02,1.37l.29.73,1.54-1.43ZM42.6,325.81l4.96-4.72-6.85-.1,1.89,4.81Z"></path><path class="cls-1" d="M56.92,339.37l-11.2,5.62.97,1.93c.35.69.46,1.25.34,1.67-.12.43-.39.75-.82.96-.42.21-.83.24-1.25.08s-.79-.58-1.14-1.27l-3.36-6.7c-.35-.69-.46-1.25-.34-1.67.12-.43.39-.75.82-.96.42-.21.83-.24,1.25-.08s.79.58,1.14,1.27l.96,1.91,11.2-5.62-1.55-3.1-2.71,1.36c-.69.35-1.25.46-1.67.34s-.75-.39-.96-.82c-.21-.42-.24-.83-.07-1.25.16-.41.58-.79,1.27-1.14l5.59-2.8,7.42,14.84-5.57,2.79c-.69.35-1.25.46-1.67.34s-.75-.39-.96-.82c-.21-.42-.23-.83-.07-1.25.16-.41.58-.79,1.27-1.14l2.71-1.36-1.58-3.14Z"></path><path class="cls-1" d="M61.81,371.91l10.01-7.53c-.4-.55-.58-1.04-.53-1.48s.25-.8.63-1.08c.38-.29.79-.39,1.23-.31.43.08.88.43,1.35,1.05l4.02,5.37c.63.83,1.08,1.76,1.37,2.79s.38,1.96.27,2.8c-.08.64-.29,1.39-.61,2.25-.33.86-.72,1.63-1.19,2.29s-1.14,1.33-2.03,2l-1.22.92c-1.08.81-2.18,1.35-3.29,1.62-1.11.26-2.16.3-3.13.1-.98-.2-1.79-.46-2.43-.8-1.02-.54-2.02-1.47-3.02-2.79l-3.87-5.14c-.46-.62-.67-1.14-.63-1.59.04-.44.25-.8.63-1.09.37-.28.78-.38,1.22-.3.44.08.85.39,1.25.93ZM63.74,374.47l2.05,2.72c.76,1.02,1.49,1.67,2.17,1.97.89.39,1.76.53,2.61.42.85-.1,1.74-.51,2.68-1.22l1.21-.91c.81-.61,1.4-1.29,1.78-2.06.59-1.2.83-2.23.73-3.1-.1-.87-.49-1.76-1.17-2.67l-2.03-2.7-10.01,7.53Z"></path><path class="cls-1" d="M80.17,387.51l-3.49,3.15,5.48,6.06,1.29-1.16c.57-.52,1.08-.77,1.52-.77.44,0,.82.18,1.15.53.31.35.45.74.4,1.18-.04.44-.35.92-.92,1.43l-3.66,3.31-10.11-11.19c-.52-.57-.77-1.08-.77-1.52,0-.44.18-.83.53-1.15.35-.31.74-.45,1.19-.4.44.05.92.35,1.43.92l.34.37,9.3-8.4-.33-.37c-.52-.57-.77-1.08-.77-1.52,0-.44.18-.83.53-1.15.36-.32.75-.46,1.19-.42.44.04.92.35,1.44.92l9.62,10.68-3.62,3.27c-.56.51-1.07.77-1.5.77s-.82-.17-1.14-.53c-.32-.36-.46-.75-.42-1.19.04-.44.35-.91.92-1.43l1.24-1.12-5.01-5.54-3.43,3.1,1.89,2.09c.62-.56,1.07-.86,1.35-.91.6-.1,1.09.07,1.49.51.31.35.45.74.4,1.18s-.35.92-.92,1.44l-2.74,2.47c-.52.47-.92.72-1.21.76-.59.08-1.07-.09-1.45-.5-.4-.44-.52-.95-.35-1.53.07-.28.42-.7,1.05-1.26l-1.89-2.09Z"></path><path class="cls-1" d="M100.49,397.25l-8.51,9.2,5.07,4.69,2.06-2.22c.52-.57,1.01-.87,1.45-.91s.84.1,1.19.43c.34.32.51.7.51,1.14s-.27.95-.79,1.51l-4.23,4.58-11.14-10.3c-.57-.52-.87-1.01-.91-1.45-.04-.44.1-.84.43-1.19.32-.34.7-.51,1.14-.51.44,0,.95.27,1.51.79l1.36,1.26,8.51-9.2-1.36-1.26c-.57-.52-.87-1.01-.91-1.45-.04-.44.1-.84.43-1.19.33-.35.71-.53,1.15-.52s.95.27,1.51.79l5.08,4.72c.57.52.87,1,.91,1.44.04.44-.1.83-.42,1.18-.33.35-.71.53-1.15.52-.44,0-.95-.27-1.51-.79l-1.38-1.27Z"></path><path class="cls-1" d="M117.18,411.34l-7.65,9.92,2.56,1.98c.61.47.95.92,1.03,1.36s-.03.84-.32,1.22c-.29.37-.65.57-1.09.61-.44.04-.97-.18-1.58-.65l-7.66-5.91c-.61-.47-.96-.92-1.03-1.36-.08-.44.03-.84.32-1.22.29-.37.65-.57,1.09-.61.44-.04.97.18,1.58.65l2.56,1.98,7.65-9.92-2.56-1.98c-.61-.47-.96-.92-1.03-1.36-.08-.44.03-.84.32-1.22.29-.38.66-.59,1.1-.62.44-.03.97.18,1.58.65l7.65,5.92c.61.47.96.92,1.04,1.35.08.43-.02.84-.32,1.22-.29.38-.66.59-1.1.62-.44.04-.97-.18-1.58-.65l-2.56-1.98Z"></path><path class="cls-1" d="M136.93,421.93c.31-.12.6-.18.87-.17s.52.09.75.24c.4.25.63.59.71,1.03.08.43-.09.97-.51,1.62l-1.46,2.29c-.41.65-.83,1.03-1.26,1.15s-.84.05-1.23-.2c-.36-.23-.59-.51-.68-.86-.09-.34-.01-.82.23-1.44.17-.41.23-.77.18-1.09-.11-.62-.41-1.26-.9-1.91s-1.07-1.18-1.72-1.59c-.81-.51-1.66-.81-2.56-.89-.9-.08-1.86.11-2.88.57-1.02.46-1.88,1.24-2.57,2.33l-1.12,1.75c-.83,1.3-1.05,2.69-.66,4.16s1.42,2.74,3.1,3.81c1,.64,1.94,1.04,2.8,1.21.5.1,1.13.06,1.89-.11.46-.1.8-.14,1.01-.13.21.02.42.09.62.22.36.23.59.57.69,1.01.1.45.03.85-.2,1.22s-.67.65-1.31.83c-.93.27-1.92.32-2.99.13-1.44-.25-2.84-.81-4.21-1.68-1.6-1.02-2.83-2.27-3.69-3.74-.7-1.19-1.05-2.58-1.06-4.18,0-1.6.42-3.08,1.28-4.42l1.17-1.83c.9-1.41,2.06-2.51,3.49-3.31,1.43-.8,2.93-1.16,4.51-1.08,1.58.08,3.02.53,4.32,1.36.78.5,1.46,1.05,2.02,1.67.57.61,1.03,1.29,1.38,2.04Z"></path><path class="cls-1" d="M146.43,441.87l-6.91-3.57-1.59,1.38.69.36c.68.35,1.1.74,1.26,1.15s.12.83-.1,1.26c-.22.42-.54.68-.96.79s-.98,0-1.67-.36l-3.83-1.98c-.69-.35-1.1-.74-1.26-1.15-.16-.41-.12-.83.1-1.26s.55-.69,1-.8c.44-.11,1.01.03,1.71.41l10.22-8.82-1.86-.96c-.69-.35-1.1-.74-1.26-1.15-.16-.41-.12-.83.1-1.26s.54-.7.97-.81.98,0,1.67.36l6.14,3.19-1.56,16.9c.67.34,1.07.65,1.2.9.27.52.27,1.04.01,1.54-.22.42-.53.68-.96.8-.42.12-.98,0-1.66-.36l-3.83-1.98c-.68-.35-1.1-.74-1.26-1.15-.16-.41-.12-.83.1-1.26.22-.42.54-.68.96-.79.43-.11.98,0,1.67.36l.69.36.22-2.09ZM146.72,438.42l.62-6.82-5.22,4.45,4.59,2.37Z"></path><path class="cls-1" d="M170.54,438.27c.29-.18.56-.28.83-.32s.53,0,.78.1c.43.18.73.47.88.88.15.41.08.97-.21,1.69l-1.02,2.52c-.29.71-.63,1.17-1.03,1.36-.4.19-.81.2-1.25.02-.4-.16-.67-.4-.82-.72-.15-.32-.16-.81-.03-1.46.1-.43.09-.8-.02-1.11-.22-.59-.63-1.17-1.23-1.72-.6-.55-1.26-.97-1.98-1.26-.89-.36-1.78-.5-2.68-.42s-1.81.44-2.73,1.08c-.92.64-1.63,1.55-2.11,2.75l-.78,1.93c-.58,1.43-.55,2.83.1,4.21.65,1.38,1.9,2.44,3.74,3.19,1.1.45,2.09.68,2.98.69.51,0,1.13-.14,1.84-.45.43-.18.76-.29.97-.31.21-.02.43.01.65.1.4.16.68.45.86.87.18.42.18.83.02,1.24-.17.41-.54.76-1.14,1.06-.86.44-1.84.66-2.92.67-1.46.01-2.94-.28-4.44-.9-1.76-.71-3.19-1.72-4.31-3.02-.9-1.04-1.5-2.35-1.79-3.93-.29-1.58-.14-3.1.46-4.58l.82-2.01c.63-1.54,1.57-2.84,2.84-3.88,1.26-1.04,2.68-1.67,4.25-1.88,1.57-.21,3.07-.02,4.49.56.86.35,1.62.78,2.29,1.28s1.24,1.09,1.72,1.75Z"></path><path class="cls-1" d="M184.35,445.38l-3.65,11.99,3.09.94c.74.22,1.22.53,1.45.91.23.38.27.8.13,1.26-.14.45-.4.77-.81.96s-.97.17-1.71-.05l-9.25-2.82c-.74-.22-1.22-.53-1.45-.91-.23-.38-.27-.8-.13-1.26.14-.45.4-.77.81-.96.4-.19.97-.17,1.71.05l3.09.94,3.65-11.99-3.09-.94c-.74-.22-1.22-.53-1.45-.91-.23-.38-.27-.8-.13-1.26.14-.46.41-.78.81-.97s.97-.17,1.71.05l9.25,2.83c.74.22,1.22.52,1.45.9.23.37.27.79.13,1.25-.14.46-.41.78-.81.97-.4.19-.97.17-1.71-.05l-3.09-.94Z"></path><path class="cls-1" d="M196.33,456.59l-.96,4.61,8,1.66.35-1.7c.16-.75.41-1.26.77-1.52.36-.26.77-.34,1.24-.25.46.1.8.33,1.02.72.22.38.26.95.1,1.7l-1,4.83-14.76-3.06c-.76-.16-1.26-.41-1.52-.77-.26-.36-.34-.77-.25-1.24.1-.46.34-.8.72-1.02.39-.22.95-.26,1.7-.1l.49.1,2.55-12.27-.49-.1c-.75-.16-1.26-.41-1.52-.77-.26-.36-.34-.77-.25-1.24s.34-.82.72-1.04c.38-.22.95-.26,1.7-.1l14.07,2.94-.99,4.77c-.15.74-.41,1.25-.76,1.51-.35.26-.76.34-1.23.25-.47-.1-.82-.33-1.04-.71s-.26-.94-.1-1.7l.34-1.64-7.31-1.52-.94,4.53,2.75.57c.17-.82.35-1.33.56-1.53.42-.43.92-.59,1.5-.47.46.1.8.33,1.02.71.22.38.26.95.1,1.71l-.75,3.61c-.14.68-.32,1.13-.53,1.33-.43.41-.91.56-1.47.45-.58-.12-.98-.46-1.19-1.03-.1-.27-.07-.81.1-1.64l-2.75-.57Z"></path><path class="cls-1" d="M213.47,466.89c-.32.3-.57.49-.75.56-.18.07-.4.1-.65.07-.49-.06-.86-.26-1.12-.62-.26-.36-.34-.92-.26-1.67l.25-2.14c.09-.77.3-1.29.63-1.59.33-.29.74-.41,1.23-.35.37.04.67.18.91.4s.39.58.47,1.05c.08.48.19.81.31.99.26.36.76.74,1.49,1.16s1.55.68,2.46.79c1.42.16,2.62-.04,3.61-.59.63-.34.97-.8,1.04-1.39.04-.39-.05-.78-.29-1.16s-.66-.72-1.27-1.02c-.4-.2-1.3-.52-2.71-.96-1.7-.52-2.97-1.06-3.81-1.62s-1.47-1.28-1.89-2.17c-.42-.89-.58-1.81-.47-2.77.17-1.52.96-2.78,2.37-3.78,1.4-1,3.13-1.38,5.16-1.15.82.09,1.57.27,2.24.53.68.26,1.28.61,1.81,1.05.46-.36.9-.51,1.31-.46.47.05.83.26,1.08.62.26.36.34.92.26,1.67l-.27,2.39c-.09.77-.3,1.29-.63,1.59-.33.29-.73.41-1.2.36-.39-.04-.72-.2-.98-.47-.21-.2-.34-.57-.39-1.11-.05-.54-.15-.93-.3-1.18-.26-.43-.67-.81-1.24-1.15s-1.25-.55-2.03-.64c-1.15-.13-2.09.03-2.82.49s-1.13.97-1.19,1.55c-.04.39.05.79.28,1.19.23.4.6.73,1.1,1,.33.19,1.3.53,2.89,1.04s2.8,1,3.64,1.49c.83.48,1.49,1.17,1.97,2.05s.66,1.89.53,3.02c-.18,1.57-.88,2.77-2.09,3.58-1.61,1.07-3.56,1.48-5.83,1.22-.88-.1-1.72-.31-2.53-.61s-1.58-.72-2.32-1.23Z"></path><path class="cls-1" d="M262.19,463.85l-7.77.5-.66,2,.78-.05c.77-.05,1.33.06,1.67.34s.54.65.57,1.13c.03.47-.11.86-.42,1.18s-.85.5-1.62.55l-4.3.27c-.77.05-1.33-.06-1.67-.34-.35-.28-.53-.65-.56-1.13-.03-.48.12-.88.44-1.2.32-.32.88-.5,1.67-.53l4.22-12.83-2.09.13c-.77.05-1.33-.06-1.67-.34-.35-.28-.54-.65-.57-1.13-.03-.48.11-.88.42-1.19.31-.32.85-.5,1.62-.55l6.91-.42,7.36,15.3c.75-.05,1.25,0,1.5.16.5.31.77.75.8,1.31.03.47-.11.86-.41,1.18-.3.32-.84.5-1.61.55l-4.3.27c-.77.05-1.33-.06-1.67-.34-.35-.27-.53-.65-.56-1.13-.03-.47.11-.86.42-1.18.31-.32.85-.5,1.62-.55l.78-.05-.89-1.9ZM260.66,460.74l-2.98-6.17-2.18,6.5,5.16-.33Z"></path><path class="cls-1" d="M272.9,454.91l1.48,9.57,1.14-.18c.76-.12,1.33-.05,1.7.19.37.24.59.6.66,1.07.07.46-.03.87-.31,1.21s-.8.57-1.56.69l-4.15.64c-.76.12-1.33.06-1.7-.19-.37-.24-.59-.6-.66-1.08-.07-.45.03-.85.3-1.2.27-.35.74-.57,1.41-.68l-1.92-12.38-.49.08c-.76.12-1.33.06-1.7-.19-.37-.24-.59-.6-.66-1.08s.03-.88.31-1.23c.28-.34.8-.57,1.56-.69l3.66-.55,10.06,11.44-1.47-9.53-1.14.18c-.76.12-1.33.06-1.7-.19-.37-.24-.59-.6-.66-1.07s.03-.88.31-1.23c.28-.34.8-.58,1.56-.69l4.16-.63c.76-.12,1.33-.06,1.7.18.37.24.59.59.66,1.07.07.46-.03.87-.3,1.22-.27.35-.74.57-1.4.68l2.41,15.55-3.13.49-10.11-11.48Z"></path><path class="cls-1" d="M291.05,461.64l-3.03-12.16c-.66.15-1.18.12-1.57-.08s-.63-.54-.75-1c-.12-.46-.05-.88.2-1.25.25-.37.74-.64,1.49-.83l6.51-1.61c1.01-.25,2.05-.31,3.1-.18,1.06.13,1.95.42,2.68.85.55.32,1.16.8,1.83,1.44s1.22,1.3,1.65,1.99.78,1.57,1.05,2.65l.37,1.49c.33,1.31.4,2.53.2,3.66-.19,1.13-.57,2.1-1.13,2.92s-1.12,1.46-1.69,1.93c-.89.73-2.14,1.29-3.75,1.69l-6.25,1.56c-.75.19-1.32.17-1.71-.03-.39-.21-.64-.54-.76-1.01-.11-.46-.05-.87.2-1.24.25-.37.69-.63,1.34-.79ZM294.16,460.87l3.31-.82c1.23-.31,2.12-.72,2.66-1.23.7-.67,1.17-1.41,1.41-2.24.24-.82.21-1.8-.07-2.94l-.37-1.47c-.24-.98-.65-1.79-1.2-2.44-.87-1.01-1.73-1.63-2.57-1.88-.84-.25-1.81-.23-2.91.04l-3.28.82,3.03,12.16Z"></path><path class="cls-1" d="M329.86,449.45l-5.17-11.41-.46.21c-.7.32-1.26.41-1.68.28-.42-.14-.73-.42-.93-.86-.2-.44-.21-.86-.03-1.26.18-.41.62-.77,1.32-1.09l7.31-3.32c1.75-.79,3.37-.94,4.87-.45,1.5.49,2.56,1.4,3.17,2.74.29.64.44,1.29.44,1.96,0,.67-.13,1.36-.42,2.06,1.17.13,2.15.46,2.95.99.79.53,1.4,1.25,1.82,2.18.34.74.48,1.5.44,2.29-.03.6-.16,1.12-.39,1.57-.3.62-.75,1.21-1.34,1.78-.59.57-1.41,1.09-2.46,1.57l-8.57,3.88c-.7.32-1.26.41-1.69.28-.42-.13-.73-.42-.93-.86-.19-.43-.2-.84-.02-1.25.18-.41.62-.77,1.31-1.08l.46-.21ZM329.52,440.95l3.2-1.45c1.15-.52,1.97-1.24,2.47-2.17.34-.62.37-1.22.11-1.8-.23-.51-.68-.85-1.33-1.02-.66-.17-1.51,0-2.57.47l-3.8,1.72,1.92,4.24ZM332.78,448.13l5.04-2.28c1.19-.54,1.94-1.09,2.27-1.66.25-.43.26-.9.04-1.39-.27-.59-.89-1-1.88-1.24-.99-.24-2.17-.05-3.53.57l-3.86,1.75,1.93,4.25Z"></path><path class="cls-1" d="M356.41,433.84l-6.76,3.85.29,2.08.68-.39c.67-.38,1.22-.53,1.65-.43.43.1.77.35,1,.77.23.41.28.82.14,1.24-.14.42-.54.82-1.21,1.2l-3.75,2.13c-.67.38-1.22.52-1.65.43-.43-.1-.77-.35-1-.77-.24-.42-.28-.84-.13-1.27.15-.43.57-.83,1.27-1.21l-1.83-13.38-1.82,1.04c-.67.38-1.22.52-1.65.43-.43-.1-.77-.35-1-.77s-.29-.83-.15-1.25c.14-.42.54-.82,1.21-1.2l6.02-3.41,13.33,10.52c.65-.37,1.12-.54,1.41-.52.59.06,1.02.34,1.3.83.23.41.28.82.15,1.24-.13.42-.54.82-1.21,1.2l-3.75,2.13c-.67.38-1.22.52-1.65.43-.43-.1-.77-.35-1-.77-.23-.41-.28-.82-.14-1.24.14-.42.54-.82,1.21-1.2l.68-.39-1.63-1.32ZM353.68,431.72l-5.38-4.24.89,6.8,4.49-2.56Z"></path><path class="cls-1" d="M366.19,425.18l2.31,3.31.95-.66c.63-.44,1.17-.63,1.61-.58.44.06.8.28,1.07.67.27.38.35.79.25,1.22-.1.43-.46.87-1.1,1.31l-3.98,2.78c-.63.44-1.17.63-1.61.58-.44-.06-.8-.28-1.07-.67-.27-.38-.35-.79-.25-1.23.1-.43.47-.87,1.09-1.3l.41-.29-7.17-10.28-.41.29c-.63.44-1.17.63-1.61.58-.44-.06-.79-.28-1.07-.67s-.36-.8-.26-1.24c.1-.43.46-.87,1.1-1.31l5.95-4.14c1.85-1.29,3.61-1.84,5.27-1.63,1.66.21,2.95.97,3.87,2.28.57.82.85,1.73.84,2.74,0,1-.32,2.1-.92,3.3.9.1,1.92.31,3.09.63.73.21,1.79.6,3.18,1.17.67-.46,1.15-.7,1.46-.72.57,0,1.02.23,1.35.71.27.38.35.79.26,1.22-.09.43-.46.86-1.09,1.3l-1.5,1.05c-4.42-1.8-7.57-2.55-9.43-2.24l-2.6,1.82ZM364.36,422.55l2.05-1.43c.76-.53,1.36-1.12,1.79-1.77.59-.87.9-1.57.94-2.11.04-.54-.06-.97-.29-1.3-.35-.5-.93-.77-1.76-.82-.82-.05-1.75.28-2.76.98l-3.01,2.1,3.03,4.34Z"></path><path class="cls-1" d="M382.37,418.39l-8.08-9.58-.38.32c-.59.5-1.11.74-1.55.72-.44-.02-.82-.21-1.13-.57s-.43-.77-.37-1.21.38-.91.97-1.4l6.14-5.18c1.46-1.24,2.99-1.82,4.57-1.76,1.58.06,2.84.66,3.79,1.78.45.53.77,1.12.96,1.77s.24,1.34.15,2.1c1.16-.19,2.2-.14,3.1.15.91.29,1.69.83,2.35,1.61.52.62.87,1.32,1.04,2.08.14.58.15,1.12.05,1.61-.12.68-.39,1.37-.8,2.08-.41.71-1.06,1.44-1.94,2.18l-7.19,6.06c-.59.5-1.11.74-1.55.72-.44-.02-.82-.21-1.13-.57-.3-.36-.42-.76-.36-1.2.06-.44.39-.91.97-1.4l.38-.32ZM379.74,410.31l2.69-2.27c.96-.81,1.56-1.73,1.79-2.75.15-.69.03-1.28-.38-1.76-.36-.43-.88-.63-1.56-.62-.68.02-1.46.4-2.34,1.15l-3.19,2.69,3,3.56ZM384.82,416.33l4.23-3.57c1-.84,1.57-1.58,1.73-2.21.12-.48,0-.93-.34-1.35-.42-.49-1.13-.72-2.15-.68-1.02.04-2.1.54-3.24,1.51l-3.24,2.73,3.01,3.57Z"></path><path class="cls-1" d="M396.67,399.39l3.35,3.3,5.74-5.81-1.23-1.22c-.55-.54-.83-1.03-.86-1.47-.02-.44.13-.83.47-1.17.33-.33.71-.49,1.16-.47s.94.3,1.49.84l3.51,3.47-10.59,10.73c-.54.55-1.03.83-1.48.86-.44.03-.83-.13-1.17-.47-.33-.33-.49-.72-.47-1.16.02-.45.3-.94.84-1.48l.35-.36-8.92-8.81-.35.36c-.54.55-1.03.83-1.48.86-.44.02-.83-.13-1.17-.47s-.5-.73-.48-1.17c.02-.44.3-.94.84-1.49l10.11-10.22,3.47,3.43c.54.53.83,1.02.85,1.46.03.44-.13.83-.46,1.17-.34.34-.72.5-1.16.49-.44-.02-.93-.29-1.48-.84l-1.19-1.17-5.25,5.31,3.29,3.25,1.98-2c-.59-.59-.92-1.02-.98-1.3-.14-.59,0-1.09.42-1.52.33-.33.72-.49,1.16-.47.44.02.94.3,1.49.84l2.62,2.59c.5.49.77.88.83,1.17.11.58-.03,1.07-.42,1.47-.42.42-.92.57-1.51.44-.28-.06-.72-.38-1.32-.97l-1.98,2Z"></path><path class="cls-1" d="M407.63,371.86c-.08-.33-.1-.62-.06-.89.04-.27.15-.51.32-.71.3-.36.67-.55,1.1-.58.44-.02.96.21,1.55.7l2.1,1.73c.6.49.93.95.99,1.39.06.44-.05.84-.35,1.2-.27.33-.58.52-.93.57-.35.05-.82-.09-1.41-.41-.38-.22-.74-.32-1.06-.31-.63.03-1.3.25-2,.67-.7.41-1.3.92-1.79,1.51-.61.74-1.01,1.55-1.19,2.44-.19.88-.11,1.86.22,2.93.33,1.07,1,2.02,2,2.84l1.61,1.32c1.19.98,2.54,1.36,4.05,1.15s2.89-1.08,4.16-2.62c.75-.92,1.27-1.8,1.54-2.64.16-.49.2-1.12.12-1.89-.05-.47-.05-.81,0-1.01.04-.21.14-.4.29-.59.27-.33.63-.52,1.09-.56.46-.04.85.07,1.19.35.34.28.56.75.67,1.4.16.95.08,1.95-.23,2.99-.42,1.4-1.14,2.72-2.18,3.98-1.2,1.46-2.59,2.54-4.16,3.21-1.26.55-2.69.73-4.28.54-1.59-.19-3-.79-4.23-1.8l-1.68-1.38c-1.29-1.06-2.24-2.34-2.86-3.86-.62-1.51-.8-3.05-.53-4.61s.89-2.93,1.87-4.12c.59-.72,1.22-1.32,1.9-1.81s1.41-.86,2.19-1.12Z"></path><path class="cls-1" d="M421.93,355.8l7.51,5.1c1.64,1.11,2.63,2.65,2.98,4.6.35,1.95-.04,3.76-1.17,5.41-.56.82-1.22,1.49-2,2.01-.78.52-1.64.88-2.59,1.07-.95.19-1.84.24-2.66.15s-1.74-.49-2.76-1.18l-7.51-5.1c-.38.56-.79.89-1.22.99-.43.1-.84.01-1.23-.25-.4-.27-.62-.62-.68-1.05-.06-.43.13-.97.57-1.62l2.35-3.49c.43-.64.87-1.01,1.29-1.11s.84-.02,1.24.25.62.62.69,1.06c.06.44-.12.98-.56,1.61l-.65.96,7.74,5.26c.79.54,1.72.68,2.77.44,1.05-.25,1.9-.83,2.53-1.77.42-.62.67-1.3.75-2.04s-.05-1.48-.38-2.2c-.21-.46-.56-.86-1.07-1.2l-7.74-5.26-.65.96c-.43.64-.86,1.01-1.29,1.11-.43.1-.84.02-1.24-.25-.4-.27-.62-.62-.69-1.06-.06-.44.12-.98.56-1.61l2.38-3.47c.43-.64.86-1.01,1.29-1.12s.84-.03,1.23.24c.39.26.62.61.68,1.05.07.44-.09.94-.47,1.5Z"></path><path class="cls-1" d="M433.14,352.14l4.12,2.28,3.96-7.15-1.52-.84c-.67-.37-1.08-.77-1.23-1.19-.14-.42-.1-.84.13-1.26.23-.41.56-.67.99-.77.43-.1.98.04,1.66.41l4.32,2.39-7.3,13.19c-.37.67-.77,1.08-1.19,1.23-.42.14-.84.1-1.26-.13-.41-.23-.66-.56-.76-.99s.04-.99.4-1.65l.24-.44-10.97-6.06-.24.44c-.37.67-.77,1.08-1.19,1.23s-.84.1-1.26-.13c-.42-.23-.68-.56-.78-.99-.1-.43.04-.98.41-1.66l6.97-12.57,4.27,2.36c.67.37,1.07.76,1.22,1.17.15.41.1.83-.13,1.25-.23.42-.56.68-.99.78-.43.1-.98-.03-1.65-.4l-1.46-.81-3.62,6.54,4.05,2.24,1.36-2.46c-.73-.4-1.16-.73-1.29-.98-.29-.53-.29-1.05,0-1.57.23-.41.56-.67.99-.77.43-.1.98.04,1.66.41l3.23,1.79c.61.34.98.64,1.11.9.27.53.26,1.04,0,1.53-.29.52-.73.8-1.34.83-.29.02-.8-.17-1.54-.58l-1.36,2.46Z"></path><path class="cls-1" d="M453.14,320.44l-11.89-3.95-.16.47c-.24.73-.56,1.21-.94,1.42-.38.22-.8.25-1.26.1-.45-.15-.77-.43-.95-.83-.18-.41-.15-.97.1-1.71l2.53-7.62c.6-1.82,1.6-3.11,2.98-3.88,1.38-.77,2.77-.92,4.16-.46.66.22,1.24.56,1.74,1.01s.91,1.02,1.23,1.71c.89-.77,1.8-1.26,2.73-1.49.92-.23,1.87-.18,2.84.15.77.26,1.43.67,1.98,1.23.42.42.71.87.89,1.35.25.64.38,1.37.4,2.19.02.82-.15,1.78-.52,2.87l-2.97,8.93c-.24.73-.56,1.21-.94,1.42-.38.22-.8.25-1.26.1-.44-.15-.75-.43-.93-.84s-.15-.98.09-1.7l.16-.47ZM446.68,314.91l1.11-3.34c.4-1.2.43-2.29.09-3.28-.23-.67-.64-1.1-1.25-1.3-.53-.18-1.08-.08-1.65.29-.57.37-1.03,1.11-1.4,2.2l-1.32,3.96,4.42,1.47ZM454.15,317.4l1.74-5.25c.41-1.24.52-2.17.32-2.79-.15-.48-.48-.8-.99-.97-.61-.2-1.34-.02-2.19.54-.85.56-1.51,1.56-1.98,2.98l-1.33,4.02,4.43,1.47Z"></path><path class="cls-1" d="M459.71,290.35l-1.76,7.58,1.73,1.2.18-.76c.17-.75.44-1.25.81-1.5.36-.25.78-.32,1.25-.22.46.11.79.35,1.01.74s.23.96.06,1.71l-.98,4.2c-.17.75-.44,1.25-.81,1.5-.36.25-.78.32-1.25.22s-.81-.36-1.02-.77-.22-.99-.03-1.75l-11.07-7.74-.47,2.04c-.17.75-.44,1.25-.81,1.5-.36.25-.78.33-1.25.22-.47-.11-.81-.36-1.02-.74-.21-.39-.24-.96-.06-1.71l1.58-6.74,16.77-2.65c.17-.73.36-1.19.58-1.39.44-.39.94-.52,1.49-.39.46.11.79.35,1.01.73.22.38.24.95.06,1.7l-.98,4.2c-.17.75-.44,1.25-.81,1.5s-.78.32-1.25.22c-.46-.11-.79-.35-1.01-.74s-.24-.96-.06-1.71l.18-.76-2.08.3ZM456.29,290.92l-6.76,1.07,5.59,3.96,1.17-5.04Z"></path><path class="cls-1" d="M459.98,277.3l3.99.55.16-1.15c.1-.76.33-1.29.67-1.57.34-.28.75-.39,1.22-.33.46.06.82.28,1.07.64.25.37.32.93.22,1.69l-.66,4.81c-.1.76-.33,1.29-.67,1.57-.34.28-.75.39-1.22.33-.46-.06-.82-.28-1.07-.65s-.32-.93-.22-1.69l.07-.5-12.42-1.71-.07.5c-.1.76-.33,1.29-.67,1.57-.34.28-.75.39-1.22.33s-.84-.28-1.09-.65c-.25-.37-.32-.93-.22-1.69l1-7.18c.31-2.24,1.1-3.9,2.38-4.98,1.28-1.08,2.71-1.51,4.3-1.29.99.14,1.85.55,2.58,1.24.73.69,1.33,1.66,1.8,2.91.68-.59,1.53-1.2,2.56-1.84.65-.39,1.66-.91,3.02-1.54.11-.8.27-1.33.47-1.56.38-.42.86-.59,1.44-.51.46.06.82.28,1.07.64.25.36.32.92.22,1.69l-.25,1.81c-4.33,2.02-7.01,3.83-8.04,5.41l-.43,3.14ZM456.81,276.87l.34-2.48c.13-.92.1-1.76-.08-2.52-.24-1.02-.54-1.73-.91-2.12-.37-.39-.75-.62-1.15-.67-.6-.08-1.2.16-1.8.73-.6.57-.98,1.47-1.15,2.7l-.5,3.64,5.25.72Z"></path></g><g><g><path class="cls-1" d="M157.16,288.23v-7.4c-.12-.12-.19-.16-.22-.13-.03.03-.13-.07-.31-.31h-6.15l-.62.62v23.35c.18.18.39.45.62.8h5.97l.71-.8v-6.86h15.69v12.66l-8.56,9h-21.57l-8.47-9v-34.85l8.47-9h21.57l8.56,9v12.93h-15.69ZM171.07,286.36v-10.25l-7.58-7.93h-19.97l-7.58,7.93v33.16l7.58,8.02h19.97l7.58-8.02v-9.89h-12.12v5.88l-1.69,1.78h-7.49c-.59-.71-1.16-1.28-1.69-1.69v-25.14l1.6-1.78h7.67c.36.36.64.68.85.98.21.3.46.59.76.89v6.06h12.12ZM161.08,284.13v-4.81l-3.03-3.12h-9.18l-2.94,3.12v26.83l2.94,3.12h9.18l3.03-3.12v-4.55h7.84v6.77l-6.33,6.6h-18.18l-6.33-6.6v-31.38l6.33-6.6h18.18l6.33,6.6v7.13h-7.84Z"></path><path class="cls-1" d="M177.31,319.16v-14h2.94v-24.78h-2.94v-14.08h31.73l8.74,9v13.73l-2.76,2.85,2.76,2.76v10.52h2.85v14h-18.9v-19.61c-.06-.06-.15-.16-.27-.31-.12-.15-.24-.28-.36-.4h-4.9v6.33h2.94v14h-21.84ZM197.27,317.29v-10.25h-2.85v-10.07h7.4c.3.36.59.65.89.89.3.24.59.5.89.8v18.63h15.24v-10.25h-2.94v-11.59l-3.48-3.57,3.48-3.65v-12.12l-7.67-7.93h-29.06v10.25h2.85v28.61h-2.85v10.25h18.09ZM181.32,314.97v-5.71h2.94v-33.07h-2.94v-5.79h26.03l6.42,6.6v10.34l-4.37,4.55,4.37,4.46v12.92h2.85v5.71h-10.88v-17.11l-2.94-3.12h-10.61v14.53h2.94v5.71h-13.82ZM205.74,285.82v-6.51l-2.94-3.12h-10.61v12.84h10.61l2.94-3.21ZM201.82,286.71h-7.4v-8.29h7.49l1.69,1.78v4.81l-1.78,1.69ZM201.73,284.22v-3.21l-.62-.62h-4.9v4.46h4.99l.54-.62Z"></path><path class="cls-1" d="M262.16,319.16h-37.08v-14h2.85v-24.78h-2.85v-14.08h37.08v15.96h-13.1v-1.87h-5.62v3.3h12.39v18.1h-12.39v3.39h5.62v-2.05h13.1v16.04ZM260.38,304.99h-9.54v2.05h-9.18v-9.18h2.85v2.05h9.54v-14.26h-9.54v1.96h-2.85v-9.18h9.18v1.96h9.54v-12.21h-33.52v10.25h2.85v28.61h-2.85v10.25h33.52v-12.3ZM258.33,314.97h-29.33v-5.71h2.76v-33.07h-2.76v-5.79h29.33v7.75h-5.35v-1.96h-13.46v13.64h7.04v-1.96h5.44v9.81h-5.44v-2.05h-7.04v13.64h13.46v-1.96h5.35v7.67Z"></path><path class="cls-1" d="M310.21,298.57c-.42,1.07-.82,2.15-1.2,3.25-.39,1.1-.76,2.21-1.11,3.34h1.34v14h-30.31v-14h1.43c-.71-2.14-1.43-4.2-2.14-6.19-.71-1.99-1.43-3.98-2.14-5.97-.71-1.99-1.44-4.02-2.18-6.11-.74-2.08-1.5-4.25-2.27-6.51h-4.99v-14.08h25.23v14.08h-1.6c.3.89.56,1.65.8,2.27s.49,1.29.76,2.01c.27.71.58,1.59.94,2.63.36,1.04.83,2.42,1.43,4.15.59-1.66,1.2-3.36,1.83-5.08.62-1.72,1.35-3.71,2.18-5.97h-1.43v-14.08h26.83v14.08h-1.16c.3.89.56,1.65.8,2.27.24.62.49,1.29.76,2.01.27.71.59,1.59.98,2.63.39,1.04.88,2.42,1.47,4.15.59-1.66,1.19-3.36,1.78-5.08.59-1.72,1.31-3.71,2.14-5.97h-1.34v-14.08h24.78v14.08h-4.9c-.83,2.26-1.59,4.35-2.27,6.28-.68,1.93-1.38,3.86-2.09,5.79-.71,1.93-1.44,3.91-2.18,5.93-.74,2.02-1.53,4.28-2.36,6.77h1.6v14h-30.31v-14h1.34c-.12-.36-.22-.67-.31-.94s-.22-.62-.4-1.07c-.18-.45-.4-1.03-.67-1.74-.27-.71-.61-1.66-1.03-2.85ZM310.21,292.51c.59,1.72,1.11,3.2,1.56,4.41.45,1.22.85,2.35,1.2,3.39.36,1.04.73,2.08,1.11,3.12.39,1.04.85,2.24,1.38,3.61h-2.23v10.25h26.3v-10.25h-2.41c.95-2.67,1.84-5.17,2.67-7.49.83-2.32,1.65-4.6,2.45-6.86.8-2.26,1.62-4.53,2.45-6.82.83-2.29,1.69-4.77,2.58-7.44h4.55v-10.25h-20.86v10.25h2.05c-1.19,3.51-2.33,6.73-3.43,9.67-1.1,2.94-2.18,5.96-3.25,9.05-.71-2.08-1.35-3.89-1.92-5.44-.57-1.54-1.1-3-1.6-4.37-.5-1.37-1.01-2.75-1.51-4.15-.51-1.4-1.08-2.99-1.74-4.77h2.05v-10.25h-22.82v10.25h2.05c-.65,1.78-1.26,3.48-1.83,5.08-.57,1.6-1.11,3.16-1.65,4.68-.54,1.52-1.06,3-1.56,4.46-.51,1.46-1.06,2.99-1.65,4.59-.71-2.02-1.35-3.8-1.92-5.35-.57-1.54-1.08-3.02-1.56-4.41-.48-1.4-.98-2.81-1.51-4.23-.54-1.43-1.1-3.03-1.69-4.81h2.41v-10.25h-21.21v10.25h4.37c1.78,5.05,3.48,9.86,5.08,14.44,1.6,4.58,3.27,9.3,4.99,14.17h-2.23v10.25h26.29v-10.25h-2.05c.89-2.44,1.74-4.86,2.54-7.26.8-2.41,1.65-4.83,2.54-7.26ZM304.77,309.27v5.71h-21.48v-5.71h3.21l-11.77-33.07h-3.66v-5.79h16.4v5.79h-3.39l10.07,28.17,10.07-28.17h-3.03v-5.79h18.01v5.79h-2.85l9.98,28.17,9.98-28.17h-2.94v-5.79h16.04v5.79h-3.74l-11.77,33.07h3.21v5.71h-21.48v-5.71h3.12l-8.56-23.71-8.38,23.71h2.94Z"></path></g><g><path class="cls-1" d="M175.45,160.37v25.52h-5.65v44.91h5.65v25.36h-41.68v-25.36h5.65v-11.31c-3.23,5.28-6.44,10.48-9.61,15.59-3.18,5.12-5.9,9.56-8.16,13.33l-17.45-28.76v11.15h5.49v25.36h-41.52v-25.36h5.49v-44.91h-5.49v-25.52h32.31l21.16,34.57c3.55-5.82,7.19-11.71,10.9-17.69,3.72-5.98,7.13-11.6,10.26-16.88h32.63ZM144.6,163.76c-3.55,5.82-7.33,12.01-11.31,18.58-3.99,6.57-7.86,12.92-11.63,19.06l-23.1-37.64h-26.98v18.58h5.65v51.86h-5.65v18.58h34.73v-18.58h-5.65v-26.66l21,34.41c3.12-5.06,6.54-10.61,10.26-16.64,3.72-6.03,7.35-11.95,10.9-17.77v26.66h-5.49v18.58h34.57v-18.58h-5.49v-51.86h5.49v-18.58h-27.3ZM167.86,167.8v10.5h-5.65v59.93h5.65v10.34h-26.33v-10.34h5.49v-45.56l-25.36,41.19-25.04-41.19v45.56h5.49v10.34h-26.33v-10.34h5.49v-59.93h-5.49v-10.5h20.52l25.36,41.52,25.52-41.52h20.68Z"></path><path class="cls-1" d="M250.73,256.16h-67.2v-25.36h5.17v-44.91h-5.17v-25.52h67.2v28.92h-23.75v-3.39h-10.18v5.98h22.46v32.79h-22.46v6.14h10.18v-3.72h23.75v29.08ZM247.5,230.48h-17.29v3.72h-16.64v-16.64h5.17v3.72h17.29v-25.85h-17.29v3.55h-5.17v-16.64h16.64v3.55h17.29v-22.13h-60.74v18.58h5.17v51.86h-5.17v18.58h60.74v-22.29ZM243.79,248.57h-53.15v-10.34h5.01v-59.93h-5.01v-10.5h53.15v14.05h-9.69v-3.55h-24.39v24.72h12.76v-3.55h9.85v17.77h-9.85v-3.72h-12.76v24.72h24.39v-3.55h9.69v13.89Z"></path><path class="cls-1" d="M329.08,185.89h-3.55c2.48,7.65,4.85,15,7.11,22.05,2.26,7.06,4.79,14.68,7.59,22.86h5.98v25.36h-39.26v-24.72h-9.05v24.72h-39.09v-25.36h5.82c1.4-4.2,2.67-8.05,3.8-11.55,1.13-3.5,2.26-6.97,3.39-10.42,1.13-3.45,2.31-7,3.55-10.66,1.24-3.66,2.61-7.75,4.12-12.28h-3.07v-25.52h52.66v25.52ZM325.69,163.76h-45.88v18.58h4.2c-1.62,4.74-3.1,9.24-4.44,13.49-1.35,4.26-2.69,8.46-4.04,12.6-1.35,4.15-2.72,8.32-4.12,12.52-1.4,4.2-2.85,8.62-4.36,13.25h-4.85v18.58h32.31v-18.58h-3.23c.54-1.83.91-3.04,1.13-3.63.21-.59.48-1.43.81-2.5h18.42c.43,1.29.81,2.42,1.13,3.39.32.97.65,1.89.97,2.75h-3.39v18.58h32.47v-18.58h-5.01c-2.91-9.05-5.73-17.74-8.48-26.09-2.75-8.34-5.52-16.93-8.32-25.77h4.69v-18.58ZM321.81,178.3h-6.46l19.71,59.93h3.72v10.34h-24.39v-10.34h5.01l-4.85-14.22h-24.23l-4.68,14.22h4.85v10.34h-24.39v-10.34h3.88l19.71-59.93h-5.82v-10.5h37.96v10.5ZM312.12,216.59l-9.53-29.73-9.85,29.73h19.39ZM298.22,212.55c.86-2.69,1.62-5.03,2.26-7.03.65-1.99,1.35-3.96,2.1-5.9.65,1.83,1.16,3.34,1.53,4.52.38,1.19.7,2.24.97,3.15.27.92.51,1.78.73,2.58.21.81.48,1.7.81,2.67h-8.4Z"></path><path class="cls-1" d="M395.31,185.89h-.48v44.75h5.33v25.36h-39.42v-25.36h5.17v-44.75h-.48v5.33h-24.56v-30.86h79v30.86h-24.56v-5.33ZM398.55,187.83h18.09v-24.07h-72.37v24.07h17.93v-5.33h7.11v51.53h-5.33v18.58h32.79v-18.58h-5.17v-51.53h6.95v5.33ZM402.42,178.3h-14.86v59.77h5.33v10.5h-24.88v-10.5h5.17v-59.77h-15.02v5.49h-10.02v-15.99h64.46v15.99h-10.18v-5.49Z"></path></g></g></g></g></svg> 