<svg width="16" height="16" viewBox="0 0 16 16" fill="none" xmlns="http://www.w3.org/2000/svg">
<rect width="16" height="16" rx="3" fill="#FDEBDD"/>
<path d="M6.13111 9.28702C6.13111 9.28702 6.1274 7.11804 6.1274 7.09001C6.1274 6.8677 6.21077 6.65408 6.35991 6.49653C6.50813 6.33898 6.711 6.26456 6.92035 6.24909C7.46967 6.20753 7.77258 5.92239 7.77814 5.52996C7.78277 5.10564 7.49653 4.8176 7.02317 4.68615C6.31267 4.48897 6.63411 4.28599 6.53499 4.07914C6.42754 3.85296 6.15982 4.14777 5.85228 4.50733C5.43821 4.99158 5.315 5.41591 4.54336 5.82767C3.62999 6.31482 3.35394 6.95469 3.21221 7.29395C3.06955 7.63419 2.9973 8.00148 3.00008 8.37168C3.00656 9.8225 4.06166 10.9563 5.62162 10.9979C6.41735 11.0191 7.27051 10.8838 7.21029 10.5329C7.17509 10.3261 6.79529 10.3734 6.50813 10.1859C6.23671 10.0081 6.13389 9.81574 6.13111 9.28606V9.28702ZM6.68691 5.28059C6.68969 5.23322 6.71007 5.1878 6.74342 5.15493C6.77677 5.12207 6.82031 5.1037 6.8657 5.1037C6.91109 5.1037 6.95462 5.12207 6.98797 5.15493C7.02132 5.1878 7.0417 5.23226 7.04448 5.28059V5.48067C7.0417 5.52803 7.02132 5.57346 6.98797 5.60632C6.95462 5.63918 6.91109 5.65755 6.8657 5.65755C6.82031 5.65755 6.77677 5.63918 6.74342 5.60632C6.71007 5.57346 6.68969 5.529 6.68691 5.48067V5.28059Z" fill="#E52331"/>
<path d="M9.86987 9.28702C9.86987 9.28702 9.87357 7.11804 9.87357 7.09001C9.87357 6.8677 9.7902 6.65408 9.64106 6.49653C9.49285 6.33898 9.28998 6.26456 9.0797 6.24909C8.53038 6.20753 8.22747 5.92239 8.22283 5.52996C8.2182 5.10564 8.50444 4.8176 8.9778 4.68615C9.6883 4.48897 9.36686 4.28599 9.46598 4.07914C9.57344 3.85296 9.84115 4.14777 10.1487 4.50733C10.5628 4.99158 10.686 5.41591 11.4576 5.82767C12.3701 6.31482 12.647 6.95469 12.7888 7.29395C12.9305 7.63322 13.0028 8.00052 13 8.37071C12.9935 9.82154 11.9384 10.9553 10.3784 10.9969C9.5827 11.0182 8.72954 10.8828 8.78975 10.532C8.82495 10.3251 9.20475 10.3725 9.49192 10.185C9.76334 10.0071 9.86616 9.81477 9.86894 9.28509L9.86987 9.28702ZM9.31406 5.28059C9.31128 5.23322 9.2909 5.1878 9.25756 5.15493C9.22421 5.12207 9.18067 5.1037 9.13528 5.1037C9.08989 5.1037 9.04635 5.12207 9.013 5.15493C8.97965 5.1878 8.95927 5.23226 8.9565 5.28059V5.48067C8.95927 5.52803 8.97965 5.57346 9.013 5.60632C9.04635 5.63918 9.08989 5.65755 9.13528 5.65755C9.18067 5.65755 9.22421 5.63918 9.25756 5.60632C9.2909 5.57346 9.31128 5.529 9.31406 5.48067V5.28059Z" fill="#E52331"/>
<path d="M8.00049 7.04559C7.67627 7.04753 7.35483 7.10165 7.04821 7.20604C6.94724 7.24084 6.88703 7.3491 6.90556 7.45735C6.94446 7.68353 7.05192 7.89424 7.21403 8.05856C7.42245 8.26927 7.70499 8.38719 7.99956 8.38719C8.29414 8.38719 8.57667 8.26927 8.7851 8.05856C8.94814 7.89424 9.05467 7.68353 9.09357 7.45735C9.1121 7.34813 9.05189 7.24084 8.95092 7.20604C8.6443 7.10069 8.32286 7.04656 7.99864 7.04559H8.00049Z" fill="#E52331"/>
</svg>
