<svg xmlns="http://www.w3.org/2000/svg"
     width="512" height="512"
     viewBox="0 0 512 512"
     preserveAspectRatio="xMidYMid meet" role="img" aria-label="Logo">
  
  <rect width="512" height="512" fill="#1F232A"/>
  
  <g transform="translate(0,512) scale(0.1,-0.1)" stroke="none">
    
    <path fill="#FF8A00" d="M763 4404 c-65 -32 -63 -11 -63 -757 l0 -674 24 -26 c23 -25 24 -25
202 -26 163 -1 181 1 204 18 l25 20 3 500 3 501 492 0 492 0 28 25 27 26 0
170 c0 184 -8 221 -52 233 -13 3 -322 6 -688 6 -584 0 -669 -2 -697 -16z"/>
    
    <path fill="#FFFFFF" d="M1623 3540 c-13 -11 -24 -28 -24 -38 -7 -96 -3 -1834 4 -1855 5 -15
17 -32 27 -37 10 -6 104 -10 209 -10 183 0 191 1 211 22 16 17 20 35 20 87 0
36 0 277 0 536 0 270 3 465 8 460 5 -6 35 -59 67 -120 32 -60 61 -114 65 -120
4 -5 25 -44 47 -85 121 -226 145 -269 164 -286 17 -16 40 -20 123 -22 153 -5
145 -12 294 264 68 126 139 259 159 297 19 37 38 67 41 67 4 0 7 -237 6 -527
l0 -528 22 -22 c22 -22 29 -23 217 -23 181 0 195 1 215 20 12 12 22 33 23 48
4 142 1 1824 -4 1844 -11 43 -46 50 -240 46 -161 -3 -178 -5 -196 -23 -16 -16
-121 -191 -121 -201 0 -1 -26 -49 -58 -106 -33 -57 -74 -130 -92 -163 -18 -33
-41 -73 -50 -90 -10 -16 -56 -100 -104 -185 -90 -159 -106 -184 -106 -161 0 7
-8 25 -19 39 -10 15 -36 61 -58 102 -47 87 -156 284 -178 320 -8 14 -63 111
-122 217 -58 106 -117 205 -129 220 l-22 28 -189 3 c-180 3 -189 2 -210 -18z"/>
    
    <path fill="#FF8A00" d="M3985 2174 l-25 -27 0 -493 0 -494 -493 0 c-482 0 -494 0 -515 -20
-31 -29 -34 -48 -30 -232 3 -147 5 -167 22 -184 19 -18 44 -19 698 -22 605 -2
683 -1 713 14 67 31 65 8 65 757 0 649 -1 676 -19 698 -19 23 -24 24 -205 27
l-186 3 -25 -27z"/>
  </g>
</svg>
