<svg width="180" height="180" viewBox="0 0 180 180" fill="none" xmlns="http://www.w3.org/2000/svg">
<g clip-path="url(#clip0_368_316)">
<rect width="180" height="180" rx="40" fill="#014A8F"/>
<path fill-rule="evenodd" clip-rule="evenodd" d="M100 192H134.519L142.565 156.506L100.091 191.595L100 192ZM145.011 145.716L170.101 35.0407C173.588 19.653 166.843 9.66724 151.419 12.4713L117.215 18.6903L110.944 47.1153L124.624 45.2996C132.659 44.232 132.206 49.9194 130.462 57.6095L104.795 170.842L145.011 145.716Z" fill="white"/>
<path d="M78.7959 61C81.1769 61 83.5506 61.3649 85.4121 62.7686C87.2305 64.1398 88.2216 66.234 88.5615 68.9326L88.6211 69.4805V69.4814L92.8184 115.819L93.0156 118H78.6152L78.4834 116.142L77.6729 104.75H61.6309L55.46 116.905L54.9043 118H26.9912L27.5283 115.568L36.5488 74.7695C36.6779 74.186 36.7299 73.7907 36.7422 73.5264C36.5039 73.4875 36.1432 73.458 35.6064 73.458H23.3975C21.9735 73.458 21.63 73.6651 21.5244 73.752C21.4036 73.8515 21.1202 74.1844 20.7998 75.6338L11.7793 116.432L11.4326 118H-2.49023L-1.95312 115.568L7.89453 71.0264C8.62906 67.7056 10.0419 65.2657 12.1289 63.6875C14.2001 62.1213 16.681 61.5977 19.1797 61.5977H43.3008C45.7055 61.5977 48.2474 62.0822 49.9014 63.9609C51.5988 65.8891 51.8249 68.6551 51.1094 71.8906L41.5654 115.054L66.252 68.7217V68.7207C67.7681 65.8798 69.5221 63.883 71.7002 62.6318C73.873 61.3837 76.2561 61 78.7959 61ZM140.117 61.5977L139.579 64.0293L137.842 71.8896L137.495 73.458H121.562L112.062 116.432L111.715 118H97.79L98.3281 115.568L107.64 73.458H91.7822L92.3193 71.0264L94.0566 63.166L94.4033 61.5977H140.117ZM173.809 61.5977C175.897 61.5977 178.049 61.9601 179.667 63.2539C181.403 64.6423 182.111 66.7521 181.985 69.2852L181.937 70.2803L181.112 70.8408L172.76 76.5137C171.765 77.2267 170.768 77.9413 169.768 78.6543L165.532 81.6729L166.653 76.5947L167.056 74.7705L167.057 74.7695C167.186 74.186 167.238 73.7907 167.25 73.5264C167.012 73.4874 166.651 73.458 166.114 73.458H153.905C152.482 73.458 152.138 73.6649 152.032 73.752C151.911 73.8513 151.628 74.1836 151.308 75.6328V75.6338L142.287 116.432L141.94 118H128.018L128.555 115.568L138.402 71.0264C139.137 67.7055 140.55 65.2657 142.637 63.6875C144.708 62.1213 147.189 61.5977 149.688 61.5977H173.809ZM172.493 81.0918C174.467 80.834 176.734 81.0186 178.324 82.6865L179.06 83.458L178.829 84.499L177.689 89.6514L177.448 90.7432L176.392 91.1094L170.784 93.0518C172 93.0522 173.266 93.0693 174.512 93.1182L176.903 93.2119L176.387 95.5479L171.769 116.432L171.422 118H157.498L158.036 115.568L162.638 94.752L162.971 93.2471V93.2461L163.143 92.4736L164.909 84.4824L165.13 83.4844L166.068 83.0791C168.231 82.1435 170.471 81.3558 172.493 81.0918ZM67.0342 93.7129H77.1562L75.9199 76.5479L67.0342 93.7129ZM175.145 76.1758L175.854 76.5283L175.856 76.5293C176.477 76.8387 177.04 77.1934 177.552 77.5938L175.846 81.1123C175.038 80.9154 174.099 80.8698 173.027 80.9795L165.535 81.7461L171.659 77.3633L172.771 76.5684H172.771L173.091 76.3398L174.068 75.6406L175.145 76.1758Z" fill="white" stroke="#014A8F" stroke-width="4"/>
</g>
<defs>
<clipPath id="clip0_368_316">
<rect width="180" height="180" rx="40" fill="white"/>
</clipPath>
</defs>
</svg>
