<svg width="160" height="143" viewBox="0 0 160 143" fill="none" xmlns="http://www.w3.org/2000/svg">
<path fill-rule="evenodd" clip-rule="evenodd" d="M103.372 114.169L103.372 114.169L103.372 114.169C103.487 114.139 103.605 114.109 103.724 114.069L103.858 109.253C111.26 107.514 118.529 105.017 125.53 101.672C125.53 102.185 125.519 102.687 125.508 103.188C125.496 103.69 125.485 104.192 125.485 104.705C125.396 111.055 125.296 117.405 125.196 123.755L125.195 123.768V123.768L125.195 123.769C125.095 130.123 124.995 136.477 124.906 142.832H103.055L102.297 142.832C102.408 138.082 102.52 133.321 102.631 128.561C102.743 123.801 102.854 119.041 102.965 114.292C103.09 114.242 103.228 114.207 103.372 114.169L103.372 114.169ZM126.012 104.411C126.077 104.375 126.139 104.339 126.199 104.303C126.199 103.813 126.21 103.322 126.221 102.832C126.232 102.341 126.243 101.851 126.243 101.36C133.2 97.971 139.889 93.6455 146.132 88.651L156.745 96.1427L160 142.832V142.876H147.514L147.513 142.832H125.664L125.663 142.876H124.905C124.994 136.522 125.095 130.167 125.195 123.813L125.195 123.8C125.296 117.45 125.396 111.099 125.485 104.749C125.648 104.618 125.836 104.512 126.012 104.411ZM96.544 137.57H97.4359V142.876H62.5641V137.57H63.456L63.4561 137.57C63.5006 137.525 63.5452 137.48 63.5897 137.48C63.6343 137.48 63.6789 137.525 63.7235 137.57H65.5964V136.009H69.0301V130.123H69.5206V127.67H70.4125L70.3233 127.492L70.7692 126.823L71.1706 126.867L71.4381 126.332L71.3489 125.797L70.9922 125.396L71.1706 125.084L71.3489 124.682L71.0368 124.281L70.8584 123.79L71.0368 123.434L71.2152 123.032L71.0814 122.542L70.7246 122.14L70.8138 121.695L71.2152 121.115L71.0814 120.713L70.8138 120.357L71.1706 119.688L71.3489 119.019L70.9922 118.707L71.0814 118.216L71.3044 117.77L71.126 117.28L70.4571 117.235C69.6544 117.146 69.476 115.318 70.6355 115.362L70.4571 114.916L70.8584 114.247V113.623L71.5273 113.445L71.7057 113.088L71.3935 112.553L71.7503 112.375L71.8841 112.062L71.3935 111.75L71.5719 111.349H71.9733L72.2854 111.037L72.5084 111.349C72.5084 111.349 72.107 111.706 72.4638 111.884L72.7313 112.018L72.8651 111.617C72.1962 110.903 72.5084 109.342 73.8462 109.342H74.2475L74.6488 108.896L75.5853 35.2285C75.2731 35.0948 75.0502 34.961 75.0502 34.8272V34.4259L73.9799 33.4894H73.0435V29.1193H75.5407V28.718L76.3434 28.0491V23.233L75.8528 23.1884H75.8082L75.3177 22.5195L76.6109 21.7614C76.8785 20.9142 77.4136 20.2007 78.1271 19.7547H78.0379C77.9933 19.7547 77.6366 19.3088 77.9041 18.9521C78.2163 18.5953 78.6176 18.3724 78.6176 18.3724C78.6176 18.3724 78.6622 17.5251 78.7068 17.4359C78.7312 17.4115 78.7122 17.4171 78.6689 17.43C78.5542 17.4641 78.2688 17.549 78.1717 17.2575C78.1717 17.2575 77.5028 17.2575 77.7704 16.9008C77.7704 16.9008 77.369 16.4548 77.5474 16.3211C77.5474 16.3211 77.8149 15.9643 77.9933 15.6968C78.0052 15.6848 78.0363 15.6729 78.0763 15.6576C78.1858 15.6155 78.362 15.5479 78.3947 15.3846L78.4008 15.3469C78.4442 15.0808 78.5043 14.7116 78.9298 14.6265C78.8896 14.4861 78.8946 14.463 78.9042 14.4191C78.9158 14.3656 78.9342 14.2809 78.8852 13.913C78.8852 13.6009 79.0635 13.3779 79.2865 13.2887C79.2865 13.1996 79.2865 13.0212 79.2419 12.8874C79.0766 12.8874 79.0093 12.5442 78.9674 12.3304C78.9528 12.2558 78.9413 12.197 78.9298 12.1739C78.796 12.2185 78.6176 12.3969 78.5284 12.5307C78.4937 12.6465 78.474 12.7352 78.4584 12.8055C78.4139 13.0058 78.4028 13.0559 78.1717 13.155C78.2163 13.1996 78.1717 13.7793 77.7258 13.8685C77.7258 13.7417 77.7128 13.4912 77.6953 13.1545V13.1544V13.1542C77.5962 11.2404 77.3529 6.54427 78.5284 5.97547C78.5741 5.95516 78.6152 5.93658 78.6525 5.91973C78.9422 5.78868 78.9998 5.76267 79.1973 5.84169C79.3757 5.93088 79.5541 6.10926 79.6433 6.33222V2.98774H77.0123V2.45262H79.5987V0H80.1338V2.45262H82.7648V2.98774H80.1338V7.58083C80.2074 7.58083 80.3622 7.60785 80.5013 7.63215C80.6148 7.65199 80.718 7.67001 80.7581 7.67001C80.8027 6.95652 81.7837 6.77815 81.8729 7.62542L82.1851 7.58083C82.1668 7.54423 82.186 7.27482 82.2089 6.95444V6.95429V6.95419C82.2418 6.49391 82.2822 5.92854 82.2297 5.7971C82.2297 5.78704 82.2138 5.77471 82.1897 5.756C82.1069 5.69182 81.9276 5.55263 81.9621 5.1728L81.8729 4.86065C81.8729 4.86065 82.0067 4.81605 82.0959 5.12821L82.1851 4.94983L82.0959 4.68227V4.5485L82.3634 4.86065L82.7202 5.35117C82.7202 5.35117 82.854 6.33222 82.854 6.51059C82.854 6.51059 83.2107 5.35117 83.835 5.88629C84.4593 6.42141 83.9688 11.1483 82.854 12.7536C82.854 12.7536 82.6756 14.4036 82.6756 14.9387C82.6911 15.14 82.6743 15.4113 82.657 15.6909V15.691C82.6245 16.2163 82.5902 16.7708 82.7648 16.9454C83.0511 17.1363 82.7926 17.2137 82.5886 17.2748C82.5067 17.2993 82.4336 17.3212 82.408 17.3467C82.3776 17.3619 82.3369 17.4237 82.2841 17.5038C82.1818 17.6589 82.0341 17.8828 81.8283 17.971C81.7373 18.0166 81.6565 18.0466 81.5844 18.0734C81.4445 18.1255 81.3369 18.1655 81.2486 18.2832L81.2932 18.9521C81.3202 18.9926 81.3513 19.0454 81.3853 19.103C81.4634 19.2356 81.5567 19.3939 81.6499 19.4872C82.6756 19.8885 83.4337 20.825 83.7458 21.8952L84.8161 22.5195L84.1472 23.1884L83.7458 23.233V28.0937L84.5485 28.7625V29.1639H87.0457V33.534H86.1093L85.039 34.4705V34.8718C85.039 35.0056 84.816 35.1394 84.5039 35.2731L85.4404 108.941L85.8417 109.387H86.243C87.5808 109.387 87.893 110.903 87.2241 111.661L87.447 111.929L87.8038 111.661C87.956 111.539 87.838 111.334 87.762 111.202C87.7267 111.141 87.7005 111.096 87.7146 111.081L87.9822 110.769L88.2943 111.081H88.6065L88.7848 111.483L88.2943 111.795L88.3835 112.152L88.7402 112.419L88.4281 113.133L88.6065 113.489L89.2308 113.668V114.337L89.6321 114.916L89.4537 115.407C90.6577 115.407 90.3902 117.28 89.7213 117.235L89.0078 117.28L88.8294 117.77L89.0524 118.216L89.1416 118.707L88.7848 119.019L88.9632 119.688L89.32 120.357L89.0524 120.713L88.9186 121.115L89.32 121.695L89.4091 122.14L89.0524 122.542L88.9186 123.032L89.097 123.434L89.2754 123.79L89.097 124.281L88.7848 124.682L88.9632 125.084L89.1416 125.396L88.7848 125.797L88.6957 126.332L88.9632 126.867L89.3646 126.823L89.6767 127.492L89.5875 127.67H90.4794V130.123H90.9699V136.009H94.4036V137.57H96.2765L96.2766 137.57C96.3212 137.525 96.3657 137.48 96.4103 137.48C96.4548 137.48 96.4994 137.525 96.5439 137.57L96.544 137.57ZM78.4392 19.5764L79.1081 19.3088C79.1081 19.2766 79.1056 19.2419 79.1029 19.2058C79.0944 19.0918 79.085 18.9645 79.1527 18.8629C79.1081 18.8629 79.019 18.8629 78.9744 18.8183C78.9744 18.8183 78.796 18.7737 78.7514 18.9075C78.6992 19.0641 78.6164 19.2207 78.5479 19.3505L78.5477 19.3507L78.5477 19.3508L78.5476 19.3509L78.5474 19.3513C78.499 19.4429 78.4577 19.5211 78.4392 19.5764ZM79.1973 18.0156C78.796 17.971 78.9298 18.2832 78.9298 18.2832L79.2865 18.3278L79.1973 18.0156ZM80.6243 19.2642C80.6243 19.175 80.6689 19.0413 80.7135 18.9075C80.7678 18.6903 80.7229 18.4897 80.6795 18.2955C80.6516 18.1707 80.6243 18.0486 80.6243 17.9264C80.4905 17.8818 80.3567 17.9264 80.3121 18.0156C80.2899 18.0602 80.2787 18.1159 80.2676 18.1717C80.2564 18.2274 80.2453 18.2832 80.223 18.3278L80.2229 18.3278C80.1783 18.417 80.0892 18.5953 80 18.6845L80.0446 19.0413C80.0892 19.1304 80.1338 19.175 80.1784 19.2196C80.3568 19.2196 80.4905 19.2196 80.6243 19.2642ZM12.6654 142.832H34.4707L35.2285 142.832C35.1394 136.566 35.039 130.312 34.9387 124.058V124.058V124.058C34.8383 117.804 34.738 111.549 34.6488 105.284C34.3813 105.151 34.1586 105.017 33.9356 104.838C33.9356 104.264 33.9247 103.69 33.9136 103.11C33.9024 102.519 33.891 101.923 33.891 101.315C26.9345 97.9264 20.2009 93.6455 13.9133 88.6064L13.9122 88.6517L3.2553 96.1873L0 142.876H12.6644L12.6654 142.832ZM57.2129 114.693C57.3913 124.058 57.6143 133.467 57.8372 142.832L57.124 142.832H35.2734C35.1842 136.568 35.084 130.316 34.9837 124.064L34.9836 124.058C34.8832 117.804 34.7829 111.55 34.6937 105.284C34.6937 104.682 34.6826 104.081 34.6714 103.479L34.6714 103.478C34.6603 102.876 34.6491 102.274 34.6491 101.672C41.6056 105.017 48.9189 107.559 56.3213 109.253L56.4551 114.47C56.5794 114.52 56.7175 114.556 56.8618 114.593L56.862 114.594C56.9764 114.623 57.0946 114.654 57.2129 114.693ZM133.379 101.895L133.378 101.895V105.953C133.712 105.797 134.057 105.63 134.403 105.463L134.404 105.463C134.749 105.295 135.095 105.128 135.429 104.972V100.825C134.716 101.182 134.048 101.538 133.379 101.895ZM134.404 110.39L134.403 110.391C134.058 110.535 133.712 110.68 133.378 110.814C133.378 111.482 133.367 112.161 133.356 112.84L133.356 112.843C133.345 113.523 133.334 114.203 133.334 114.872C133.69 114.738 134.036 114.615 134.382 114.493C134.727 114.37 135.073 114.247 135.429 114.114V109.967C135.095 110.1 134.75 110.245 134.405 110.39L134.404 110.39ZM135.019 119.282C134.455 119.46 133.909 119.633 133.334 119.777V123.79C134.003 123.657 134.716 123.478 135.429 123.3V119.153C135.291 119.196 135.155 119.239 135.019 119.282ZM128.339 133.289C129.053 133.244 129.766 133.155 130.48 133.066C130.524 131.773 130.524 130.48 130.524 129.098V129.097C129.811 129.231 129.097 129.365 128.384 129.454C128.384 130.1 128.373 130.736 128.361 131.371C128.35 132.007 128.339 132.642 128.339 133.289ZM129.499 124.638C129.855 124.56 130.212 124.482 130.569 124.415C130.569 123.121 130.569 121.828 130.613 120.49L128.473 121.026C128.473 121.671 128.462 122.306 128.451 122.941L128.451 122.943C128.44 123.579 128.428 124.214 128.428 124.861C128.785 124.794 129.142 124.716 129.499 124.638ZM129.61 116.098C129.956 115.987 130.301 115.875 130.658 115.764C130.658 114.47 130.658 113.177 130.703 111.839C130.346 111.973 130 112.096 129.655 112.218C129.309 112.341 128.964 112.464 128.607 112.598C128.607 113.25 128.595 113.902 128.584 114.549C128.573 115.184 128.562 115.814 128.562 116.433C128.919 116.321 129.264 116.21 129.61 116.098ZM129.655 107.559C130 107.414 130.346 107.269 130.703 107.113C130.703 106.472 130.714 105.831 130.725 105.184V105.184V105.184C130.736 104.526 130.747 103.863 130.747 103.188C130.391 103.344 130.045 103.512 129.7 103.679L129.699 103.679L129.699 103.679C129.353 103.846 129.008 104.013 128.651 104.169C128.651 104.816 128.64 105.451 128.629 106.087C128.618 106.722 128.607 107.358 128.607 108.004C128.964 107.848 129.309 107.703 129.655 107.559ZM133.289 128.696V132.754L135.429 132.486V128.339C134.716 128.428 134.003 128.562 133.29 128.695L133.289 128.696ZM140.023 98.1048L138.016 99.3088C138.016 100.022 138.027 100.736 138.038 101.449C138.049 102.163 138.061 102.876 138.061 103.59L140.067 102.519C140.067 101.784 140.056 101.048 140.045 100.312C140.034 99.5763 140.023 98.8406 140.023 98.1048ZM138.062 108.806L138.061 108.807C138.105 110.234 138.105 111.66 138.105 113.087V113.088C138.44 112.954 138.785 112.82 139.131 112.687C139.476 112.553 139.822 112.419 140.156 112.285C140.156 111.55 140.145 110.814 140.134 110.078L140.134 110.075C140.123 109.34 140.112 108.605 140.112 107.871C139.399 108.183 138.73 108.495 138.062 108.806ZM139.153 117.971C138.807 118.082 138.462 118.194 138.105 118.305C138.15 119.732 138.15 121.204 138.15 122.586C138.506 122.497 138.852 122.408 139.198 122.319C139.543 122.23 139.889 122.14 140.246 122.051C140.246 121.315 140.234 120.58 140.223 119.844C140.212 119.108 140.201 118.372 140.201 117.637C139.844 117.748 139.499 117.86 139.153 117.971ZM138.15 127.848C138.194 129.275 138.194 130.702 138.194 132.129L140.335 131.862C140.335 131.127 140.324 130.392 140.312 129.657L140.312 129.654L140.312 129.651C140.301 128.917 140.29 128.182 140.29 127.447L138.15 127.848ZM143.957 95.6352L143.957 95.6355C143.494 95.9502 143.04 96.2584 142.564 96.544C142.564 98.0597 142.609 99.5753 142.654 101.091L142.654 101.093C142.988 100.892 143.311 100.702 143.635 100.513C143.958 100.323 144.281 100.134 144.616 99.9331C144.593 99.1527 144.582 98.3723 144.571 97.5919C144.56 96.8116 144.549 96.0312 144.526 95.2508C144.334 95.3793 144.145 95.5078 143.957 95.6352ZM144.704 105.597C144.035 105.954 143.367 106.31 142.698 106.622C142.72 107.39 142.731 108.148 142.742 108.895V108.896C142.754 109.666 142.765 110.424 142.787 111.171C143.122 111.014 143.456 110.87 143.791 110.725C144.125 110.58 144.46 110.435 144.794 110.279C144.772 109.498 144.761 108.718 144.749 107.938C144.738 107.157 144.727 106.377 144.705 105.596L144.704 105.597ZM143.902 116.388C143.557 116.511 143.211 116.633 142.877 116.745C142.877 118.261 142.921 119.822 142.966 121.293C143.081 121.262 143.198 121.232 143.316 121.201C143.88 121.052 144.464 120.898 145.017 120.713C144.995 119.933 144.984 119.153 144.972 118.372C144.961 117.592 144.95 116.812 144.928 116.031C144.594 116.143 144.249 116.265 143.903 116.388L143.903 116.388L143.902 116.388ZM143.055 129.164C143.066 129.933 143.077 130.697 143.1 131.46C143.43 131.398 143.761 131.346 144.087 131.294L144.087 131.294L144.087 131.294C144.465 131.234 144.836 131.175 145.195 131.104C145.173 130.323 145.162 129.543 145.151 128.763C145.14 127.982 145.128 127.202 145.106 126.421C144.749 126.488 144.404 126.566 144.058 126.644C143.713 126.722 143.367 126.8 143.01 126.867C143.032 127.642 143.044 128.406 143.055 129.164ZM108.272 98.8183C126.645 91.1037 139.086 76.165 139.086 58.9966C139.086 35.0055 114.783 15.3846 84.0137 13.8238C84.0137 13.7061 84.0261 13.6009 84.0378 13.5015L84.0378 13.5013C84.0483 13.4125 84.0582 13.3283 84.0582 13.2441C84.5488 12.3077 84.9947 10.7023 85.2177 9.14155C118.573 11.1036 144.839 31.4381 144.839 56.2765C144.839 75.0055 129.945 91.1483 108.272 98.8183ZM15.1619 56.2319C15.1619 31.0368 42.1853 10.4793 76.2545 9.05237C76.2125 10.1437 76.2495 11.4326 76.2912 12.8819L76.2912 12.8831L76.2913 12.8835L76.299 13.1549C76.3436 13.4225 76.3436 13.6009 76.3436 13.7346C45.396 15.1616 20.9144 34.8718 20.9144 58.952C20.9144 76.165 33.3559 91.1037 51.7283 98.7737C30.1006 91.1483 15.1619 74.961 15.1619 56.2319ZM103.412 21.2709C121.293 28.1382 133.557 42.4972 133.557 59.0858C133.557 80.4905 113.088 98.1494 86.5555 100.87L86.5109 95.6076C110.279 92.7982 128.562 76.2096 128.562 56.0981C128.562 41.1594 118.395 28.0936 103.412 21.2709ZM89.9891 112.598C90.0337 112.419 89.9891 112.196 89.9445 112.018C90.0337 111.839 90.0337 111.661 89.9891 111.527C94.3593 111.126 98.7294 110.412 103.01 109.476C103.01 111.081 102.966 112.731 102.921 114.337C102.81 119.085 102.698 123.845 102.587 128.605C102.475 133.366 102.364 138.127 102.252 142.876H98.7294V136.143H95.7416V134.716H95.3403C95.3403 134.381 95.3514 134.058 95.3626 133.735L95.3626 133.735L95.3626 133.734C95.3738 133.411 95.3849 133.088 95.3849 132.754C95.0282 132.776 94.6603 132.787 94.2924 132.798C93.9245 132.809 93.5566 132.82 93.1998 132.843C93.1552 133.422 93.1552 134.047 93.1552 134.626V134.627H92.3526V129.052H91.8175V127.625C91.8175 126.912 91.2377 126.332 90.5688 126.288H90.4351V123.344C90.4351 122.876 90.4462 122.408 90.4574 121.94C90.4685 121.472 90.4797 121.003 90.4797 120.535H90.4351V118.172C90.9256 117.815 91.3715 117.28 91.5053 116.611C91.5499 116.522 91.5499 116.388 91.5499 116.254C91.5499 115.719 91.4161 115.229 91.104 114.827C91.0594 114.738 91.0148 114.693 90.9256 114.604C90.881 114.426 90.8364 114.247 90.7026 114.069L90.5242 113.846V113.668C90.5242 113.222 90.3013 112.865 89.9891 112.598ZM98.6179 114.359C98.6067 114.693 98.5956 115.028 98.5956 115.362C98.5956 115.674 98.5956 115.987 98.551 116.254C98.93 116.187 99.2979 116.132 99.6658 116.076C100.034 116.02 100.402 115.964 100.781 115.897C100.825 115.541 100.825 115.184 100.825 114.827C100.825 114.515 100.836 114.203 100.848 113.891C100.859 113.579 100.87 113.266 100.87 112.954C100.491 113.021 100.123 113.088 99.755 113.155C99.3871 113.222 99.0192 113.289 98.6402 113.356C98.6402 113.69 98.629 114.025 98.6179 114.359ZM100.736 119.465C99.978 119.599 99.2645 119.688 98.5064 119.777C98.5064 120.273 98.495 120.769 98.4837 121.26L98.4837 121.261C98.4727 121.74 98.4618 122.213 98.4618 122.676C98.8409 122.631 99.2088 122.586 99.5766 122.542C99.9445 122.497 100.312 122.453 100.691 122.408C100.691 121.917 100.703 121.427 100.714 120.936C100.725 120.446 100.736 119.955 100.736 119.465ZM99.4875 126.087C99.1196 126.12 98.7517 126.154 98.3726 126.198C98.3726 126.695 98.3612 127.191 98.3499 127.681L98.3499 127.682C98.3389 128.161 98.328 128.634 98.328 129.097C98.7248 129.074 99.1217 129.038 99.5121 129.003L99.5123 129.003C99.8677 128.971 100.218 128.94 100.558 128.919C100.558 128.428 100.569 127.938 100.58 127.447C100.591 126.956 100.602 126.466 100.602 125.975C100.223 126.02 99.8554 126.053 99.4875 126.087ZM99.3314 132.553C98.9635 132.575 98.5956 132.598 98.2389 132.62C98.2389 133.601 98.2389 134.582 98.1943 135.518C98.551 135.496 98.9189 135.485 99.2868 135.474C99.6547 135.463 100.023 135.451 100.379 135.429C100.379 134.939 100.39 134.448 100.402 133.958C100.413 133.467 100.424 132.977 100.424 132.486C100.075 132.508 99.715 132.53 99.355 132.552L99.3314 132.553ZM93.4897 115.251C93.4785 115.63 93.4674 116.009 93.4674 116.388V116.968C93.8464 116.923 94.2143 116.878 94.5822 116.834C94.9501 116.789 95.318 116.745 95.697 116.7V116.031C95.697 115.674 95.7082 115.307 95.7193 114.939C95.7305 114.571 95.7416 114.203 95.7416 113.846C95.0283 113.935 94.2703 114.024 93.5124 114.114L93.512 114.114C93.512 114.493 93.5008 114.872 93.4897 115.251ZM94.493 120.245L94.4922 120.245H94.4921C94.1245 120.279 93.7569 120.312 93.3782 120.357C93.3782 121.293 93.3782 122.23 93.3336 123.166C94.0917 123.121 94.8052 123.077 95.5633 122.988C95.5633 122.519 95.5744 122.04 95.5856 121.561C95.5967 121.081 95.6079 120.602 95.6079 120.134C95.2291 120.178 94.8615 120.212 94.4939 120.245H94.4939L94.493 120.245ZM95.5187 126.421C94.7606 126.511 94.0471 126.555 93.289 126.6C93.289 127.536 93.289 128.517 93.2444 129.409C93.6235 129.387 93.9914 129.365 94.3593 129.342C94.7271 129.32 95.095 129.298 95.4741 129.275C95.4741 128.807 95.4852 128.328 95.4964 127.848C95.5075 127.369 95.5187 126.89 95.5187 126.421ZM16.4997 131.349C16.8565 131.405 17.2132 131.46 17.57 131.505C17.57 130.747 17.5811 129.989 17.5922 129.231L17.5922 129.231L17.5923 129.23C17.6034 128.472 17.6145 127.714 17.6145 126.956C17.2578 126.89 16.9122 126.812 16.5666 126.734C16.221 126.655 15.8754 126.577 15.5187 126.511C15.4964 127.291 15.4852 128.071 15.4741 128.852L15.4741 128.852C15.4629 129.632 15.4518 130.412 15.4295 131.193C15.7862 131.237 16.143 131.293 16.4997 131.349ZM16.6558 121.182C17.0014 121.282 17.347 121.382 17.7037 121.472C17.7483 119.955 17.7483 118.439 17.7483 116.923C17.4139 116.812 17.0683 116.689 16.7227 116.566C16.3771 116.444 16.0315 116.321 15.697 116.21C15.6747 116.99 15.6636 117.77 15.6524 118.551C15.6413 119.331 15.6301 120.111 15.6078 120.892C15.9646 120.981 16.3102 121.081 16.6558 121.182ZM15.8311 110.546C16.4999 110.858 17.1687 111.171 17.8375 111.438C17.86 110.674 17.8711 109.911 17.8823 109.142V109.141V109.141C17.8934 108.383 17.9046 107.62 17.9267 106.845C17.2578 106.533 16.5889 106.221 15.92 105.864L15.8308 110.546L15.8311 110.546ZM16.0538 100.201C16.6781 100.602 17.347 101.003 18.0159 101.36L18.1051 96.8116C17.8519 96.6428 17.5986 96.4803 17.3478 96.3195C16.9361 96.0554 16.5309 95.7955 16.143 95.5184C16.1207 96.2986 16.1095 97.0789 16.0984 97.8591L16.0984 97.8595L16.0984 97.8599C16.0872 98.6401 16.0761 99.4204 16.0538 100.201ZM20.3347 131.906L22.4752 132.174V132.173C22.4752 130.746 22.4752 129.364 22.5198 127.938L20.3793 127.536C20.3793 128.244 20.3683 128.963 20.3573 129.688C20.346 130.423 20.3347 131.165 20.3347 131.906ZM21.4718 122.497C21.8174 122.586 22.163 122.676 22.5198 122.765C22.5198 121.338 22.5198 119.911 22.5644 118.528L22.5636 118.528C21.8503 118.305 21.1371 118.082 20.4685 117.86C20.4685 118.567 20.4575 119.286 20.4465 120.011V120.011V120.011C20.4352 120.747 20.4239 121.488 20.4239 122.23C20.7807 122.319 21.1262 122.408 21.4718 122.497ZM21.5387 112.91C21.8843 113.043 22.2299 113.177 22.5644 113.311C22.5644 111.884 22.5644 110.457 22.609 109.075C21.8957 108.763 21.227 108.451 20.5582 108.138L20.5577 108.138C20.5577 108.846 20.5467 109.565 20.5356 110.289V110.29V110.29C20.5244 111.025 20.5131 111.767 20.5131 112.508C20.8475 112.642 21.1931 112.776 21.5387 112.91ZM20.5577 102.787L22.5644 103.857L22.609 99.5763C21.9402 99.2197 21.2714 98.8184 20.6026 98.4171L20.6023 98.4169C20.6023 99.1248 20.5913 99.8437 20.5802 100.568V100.568V100.568C20.569 101.304 20.5577 102.046 20.5577 102.787ZM27.2466 102.118C26.5332 101.761 25.8643 101.405 25.1954 101.048V105.15C25.7041 105.422 26.2387 105.667 26.7599 105.907L26.76 105.907C26.9239 105.982 27.0866 106.057 27.2466 106.132V102.118ZM26.221 110.613C25.8754 110.468 25.5298 110.323 25.1954 110.19V110.191C25.1954 111.573 25.1954 112.91 25.1508 114.337C25.5075 114.448 25.8531 114.571 26.1987 114.693C26.5443 114.816 26.8899 114.939 27.2466 115.05V111.037C26.9122 110.903 26.5666 110.758 26.221 110.613ZM26.2879 119.599L26.2869 119.598L26.2865 119.598C25.9413 119.498 25.5962 119.398 25.24 119.286V123.434C25.6076 123.532 25.9887 123.616 26.3759 123.702L26.3762 123.702L26.3765 123.702C26.6936 123.773 27.0147 123.844 27.3358 123.924V119.911C26.9796 119.799 26.6345 119.699 26.2895 119.599L26.289 119.599L26.2879 119.599ZM25.24 128.383V132.531L25.2406 132.531C25.9539 132.62 26.6672 132.709 27.3804 132.754V128.74C26.6669 128.651 25.9534 128.517 25.24 128.383ZM30.6238 103.789L30.6219 103.788C30.3847 103.675 30.1508 103.563 29.9222 103.456C29.9222 104.749 29.9222 106.042 29.9668 107.336C30.1346 107.409 30.3 107.482 30.464 107.555C30.9974 107.792 31.517 108.023 32.0627 108.227C32.0627 107.603 32.0516 106.968 32.0404 106.333L32.0404 106.332C32.0293 105.697 32.0181 105.061 32.0181 104.437C31.5493 104.232 31.0805 104.008 30.6243 103.789L30.6241 103.789L30.6238 103.789ZM30.4238 112.235C30.273 112.178 30.1209 112.12 29.9668 112.062C30.0114 113.356 30.0114 114.649 30.0114 115.942C30.68 116.165 31.3932 116.388 32.1064 116.611L32.1073 116.611C32.1073 115.987 32.0961 115.351 32.085 114.716C32.0739 114.08 32.0627 113.445 32.0627 112.82C31.5033 112.646 30.9714 112.443 30.4238 112.235ZM32.1965 121.204L30.056 120.669C30.056 121.315 30.0672 121.962 30.0783 122.608L30.0783 122.609L30.0783 122.609C30.0895 123.255 30.1006 123.902 30.1006 124.548C30.4573 124.615 30.8141 124.693 31.1708 124.771C31.5276 124.849 31.8843 124.928 32.2411 124.994C32.2411 124.37 32.2299 123.735 32.2188 123.1L32.2188 123.099L32.2188 123.099C32.2076 122.463 32.1965 121.828 32.1965 121.204ZM30.1229 131.171C30.134 131.817 30.1452 132.464 30.1452 133.11C30.9033 133.2 31.6168 133.289 32.2857 133.378C32.2857 132.754 32.2745 132.118 32.2634 131.483L32.2634 131.482C32.2522 130.847 32.2411 130.212 32.2411 129.587C31.8843 129.521 31.5276 129.465 31.1708 129.409C30.8141 129.353 30.4573 129.298 30.1006 129.231C30.1006 129.877 30.1117 130.524 30.1229 131.171ZM55.6079 21.2709C40.58 28.0936 30.4574 41.1148 30.4574 56.0981C30.4574 76.4771 49.231 93.2887 73.4451 95.6967L73.4005 100.959C46.4217 98.5953 25.4629 80.7581 25.4629 59.0858C25.4629 42.4972 37.7706 28.1382 55.6079 21.2709ZM123.479 106.444C122.765 106.756 122.052 107.023 121.338 107.291L121.293 110.769C121.65 110.635 122.007 110.513 122.364 110.39C122.72 110.268 123.077 110.145 123.434 110.011C123.434 109.437 123.445 108.852 123.456 108.261C123.467 107.659 123.479 107.051 123.479 106.444ZM123.345 114.381L121.204 115.05L121.16 118.528C121.516 118.439 121.873 118.339 122.229 118.239L122.23 118.239C122.587 118.138 122.943 118.038 123.3 117.949C123.3 117.374 123.311 116.789 123.322 116.199C123.333 115.597 123.345 114.989 123.345 114.381ZM123.166 122.319C122.453 122.497 121.739 122.676 121.026 122.809L120.981 126.288L123.122 125.886C123.122 125.312 123.133 124.727 123.144 124.136C123.155 123.534 123.166 122.926 123.166 122.319ZM123.077 130.301C122.319 130.39 121.606 130.479 120.892 130.569C120.892 131.143 120.881 131.717 120.87 132.297C120.859 132.887 120.848 133.484 120.848 134.091C121.208 134.049 121.559 134.017 121.904 133.985H121.904C122.285 133.95 122.659 133.915 123.033 133.868C123.033 133.294 123.044 132.709 123.055 132.118C123.066 131.516 123.077 130.909 123.077 130.301ZM118.528 108.272C117.815 108.54 117.102 108.807 116.388 109.03V109.387C116.388 110.412 116.344 111.394 116.299 112.33L118.44 111.661C118.462 111.121 118.473 110.57 118.484 110.012L118.484 110.011V110.011C118.495 109.465 118.507 108.913 118.529 108.361V108.272L118.528 108.272ZM116.255 116.432L116.254 116.433C116.232 116.973 116.221 117.524 116.21 118.081V118.081L116.21 118.082V118.083C116.198 118.629 116.187 119.181 116.165 119.732C116.923 119.599 117.637 119.42 118.35 119.242C118.373 118.684 118.384 118.116 118.395 117.547C118.406 116.979 118.417 116.41 118.44 115.853C117.682 116.076 116.969 116.254 116.256 116.432L116.255 116.432L116.255 116.432ZM116.078 123.79L116.076 123.79L115.987 127.135C116.334 127.074 116.672 127.022 117.005 126.97L117.005 126.97L117.006 126.97C117.399 126.91 117.786 126.851 118.172 126.778C118.194 126.221 118.205 125.652 118.217 125.084C118.228 124.515 118.239 123.946 118.261 123.389C117.504 123.523 116.791 123.656 116.078 123.79ZM116.99 131.014L116.989 131.015C116.622 131.059 116.254 131.104 115.898 131.148C115.898 132.263 115.853 133.378 115.809 134.448C116.165 134.426 116.533 134.392 116.901 134.359C117.269 134.326 117.637 134.292 117.994 134.27C118.016 133.712 118.027 133.144 118.038 132.575C118.049 132.007 118.06 131.438 118.083 130.881C117.726 130.925 117.359 130.97 116.991 131.014L116.99 131.014ZM111.438 110.546C111.394 110.858 111.394 111.171 111.394 111.483C111.394 111.735 111.389 111.988 111.384 112.241C111.374 112.746 111.364 113.252 111.394 113.757C111.751 113.668 112.118 113.567 112.486 113.467C112.854 113.367 113.222 113.266 113.579 113.177C113.579 112.754 113.59 112.33 113.601 111.906C113.612 111.483 113.623 111.059 113.623 110.635V109.922C113.267 110.033 112.899 110.134 112.532 110.234L112.531 110.234L112.53 110.234C112.163 110.335 111.795 110.435 111.438 110.546ZM112.353 117.347C111.985 117.425 111.617 117.503 111.26 117.592C111.238 118.127 111.227 118.662 111.215 119.197C111.204 119.732 111.193 120.268 111.171 120.803C111.528 120.736 111.895 120.658 112.263 120.58C112.631 120.502 112.999 120.424 113.356 120.357C113.378 119.822 113.389 119.275 113.401 118.729C113.412 118.183 113.423 117.637 113.445 117.101C113.088 117.191 112.72 117.269 112.353 117.347ZM112.174 124.459C111.806 124.515 111.438 124.571 111.082 124.638C111.059 125.172 111.048 125.707 111.037 126.242L111.037 126.243L111.037 126.244C111.026 126.779 111.015 127.314 110.992 127.848C111.635 127.728 112.313 127.644 112.963 127.563H112.963L113.178 127.536L113.267 124.281C112.91 124.348 112.542 124.404 112.174 124.459ZM111.996 131.572C111.628 131.605 111.26 131.639 110.903 131.683C110.903 132.712 110.862 133.7 110.819 134.726L110.814 134.849C111.171 134.827 111.538 134.805 111.906 134.783L111.907 134.783C112.275 134.76 112.642 134.738 112.999 134.716C113.021 134.181 113.033 133.634 113.044 133.088C113.055 132.542 113.066 131.996 113.088 131.46C112.732 131.505 112.364 131.538 111.996 131.572ZM106.377 112.553C106.366 112.787 106.355 113.021 106.355 113.266V114.872C106.712 114.783 107.079 114.705 107.447 114.627C107.815 114.548 108.183 114.47 108.54 114.381C108.54 114.069 108.551 113.757 108.562 113.445L108.562 113.445C108.573 113.133 108.584 112.82 108.584 112.508C108.629 112.107 108.629 111.706 108.629 111.304C108.25 111.394 107.882 111.483 107.514 111.572C107.146 111.661 106.778 111.75 106.399 111.839C106.399 112.085 106.388 112.319 106.377 112.553ZM107.314 118.417C106.946 118.484 106.578 118.551 106.221 118.618C106.198 119.136 106.187 119.643 106.176 120.157V120.157V120.157C106.165 120.659 106.154 121.166 106.132 121.695C106.845 121.605 107.603 121.472 108.317 121.338C108.339 120.808 108.35 120.29 108.361 119.777C108.372 119.253 108.384 118.735 108.406 118.216C108.049 118.283 107.681 118.35 107.314 118.417ZM106.257 125.325L106.043 125.351C106.043 126.377 105.998 127.402 105.953 128.428L105.953 128.428C106.31 128.383 106.678 128.339 107.046 128.294C107.414 128.25 107.782 128.205 108.139 128.161C108.161 127.632 108.172 127.114 108.183 126.601L108.183 126.601L108.183 126.6C108.194 126.076 108.205 125.557 108.228 125.039C107.585 125.159 106.906 125.244 106.257 125.325ZM107.001 132.04C106.633 132.074 106.266 132.107 105.909 132.129C105.864 133.11 105.82 134.136 105.82 135.206C106.176 135.184 106.544 135.162 106.912 135.139C107.28 135.117 107.648 135.095 108.005 135.072C108.027 134.544 108.038 134.026 108.049 133.513L108.049 133.513L108.049 133.512C108.06 132.988 108.071 132.469 108.094 131.951C107.737 131.973 107.369 132.007 107.001 132.04ZM57.124 109.431C61.405 110.412 65.7305 111.081 70.1006 111.483C70.0114 111.706 70.0114 111.973 70.1006 112.241C70.056 112.33 70.056 112.464 70.056 112.598C69.7439 112.82 69.5209 113.222 69.5209 113.668V113.891L69.3425 114.203C69.2979 114.292 69.2533 114.381 69.2087 114.515C68.8074 114.872 68.5398 115.407 68.4953 116.076C68.4507 116.299 68.4953 116.566 68.5844 116.789C68.7628 117.324 69.1196 117.77 69.5655 118.082V126.243H69.4317C68.7182 126.288 68.1831 126.867 68.1831 127.581V129.008H67.648V134.582H67.5142L67.4696 132.798C67.1129 132.776 66.745 132.765 66.3771 132.754C66.0092 132.742 65.6413 132.731 65.2846 132.709C65.3291 133.378 65.3291 134.002 65.3291 134.626V134.627C65.2846 134.671 65.24 134.671 65.1954 134.671H64.2589V136.098H61.2712V142.832H57.8821C57.7037 133.467 57.4808 124.058 57.2578 114.693C57.2355 113.824 57.2132 112.943 57.1909 112.062C57.1686 111.182 57.1463 110.301 57.124 109.431ZM59.8219 114.181C59.833 114.56 59.8442 114.939 59.8442 115.318V115.942L60.1403 115.995L60.1406 115.995C60.7904 116.11 61.4153 116.221 62.0739 116.299V115.764C62.0739 115.362 62.0627 114.972 62.0516 114.582C62.0404 114.192 62.0293 113.802 62.0293 113.4C61.3706 113.323 60.7455 113.212 60.0956 113.096L59.7996 113.043C59.7996 113.422 59.8107 113.801 59.8219 114.18L59.8219 114.181ZM62.163 119.866C61.405 119.732 60.6915 119.643 59.9334 119.554C59.978 120.535 59.978 121.516 59.978 122.496V122.497C60.3569 122.542 60.7247 122.586 61.0924 122.631L61.0928 122.631C61.4607 122.676 61.8286 122.72 62.2076 122.765L62.163 119.866ZM61.182 126.176L61.1812 126.176H61.1811C60.8135 126.143 60.4459 126.109 60.0672 126.065L60.1118 129.008C60.8698 129.097 61.5833 129.142 62.3414 129.186C62.3414 128.696 62.3303 128.216 62.3191 127.737C62.308 127.257 62.2968 126.778 62.2968 126.288C61.9181 126.243 61.5504 126.21 61.1828 126.176L61.182 126.176ZM60.2678 134.002C60.279 134.493 60.2901 134.983 60.2901 135.474C60.6469 135.496 61.0148 135.507 61.3827 135.518C61.7506 135.53 62.1184 135.541 62.4752 135.563C62.4752 135.072 62.464 134.593 62.4529 134.114C62.4417 133.634 62.4306 133.155 62.4306 132.664C62.0739 132.642 61.706 132.62 61.3381 132.598C60.9702 132.575 60.6023 132.553 60.2455 132.531C60.2455 133.021 60.2567 133.511 60.2678 134.002L60.2678 134.002ZM64.9501 115.095C64.9613 115.507 64.9724 115.92 64.9724 116.343V116.7C65.6859 116.745 66.444 116.834 67.2021 116.923V116.656C67.2021 116.232 67.1909 115.808 67.1798 115.385C67.1686 114.961 67.1575 114.537 67.1575 114.114C66.4441 114.025 65.6861 113.935 64.9282 113.846L64.9278 113.846C64.9278 114.27 64.939 114.682 64.9501 115.095ZM66.1764 120.29C65.8085 120.256 65.4406 120.223 65.0616 120.178V120.179C65.0616 121.115 65.0616 122.096 65.1062 123.032C65.4852 123.055 65.8531 123.088 66.221 123.121C66.5889 123.155 66.9568 123.188 67.3358 123.211C67.3358 122.742 67.3247 122.274 67.3135 121.806L67.3135 121.805C67.3024 121.337 67.2913 120.869 67.2913 120.401C66.9125 120.357 66.5449 120.323 66.1773 120.29H66.1772L66.1764 120.29ZM65.1731 127.938C65.1842 128.417 65.1954 128.896 65.1954 129.365L65.315 129.372H65.3153H65.3155C66.0292 129.414 66.7071 129.454 67.425 129.454C67.425 128.986 67.4139 128.518 67.4027 128.05L67.4027 128.049C67.3916 127.581 67.3804 127.113 67.3804 126.644C67.0016 126.622 66.634 126.6 66.2664 126.577L66.2656 126.577C65.8977 126.555 65.5298 126.533 65.1508 126.511C65.1508 126.979 65.1619 127.458 65.1731 127.938ZM38.6178 107.236L38.6177 107.236L38.6177 107.236C38.1421 107.048 37.6665 106.86 37.1909 106.711C37.1909 107.285 37.2019 107.871 37.2129 108.461C37.2241 109.063 37.2355 109.671 37.2355 110.279L37.2361 110.279C37.9494 110.546 38.6627 110.814 39.376 111.037C39.376 110.502 39.3648 109.978 39.3537 109.454L39.3537 109.454L39.3537 109.453C39.3425 108.929 39.3314 108.406 39.3314 107.871V107.514C39.0935 107.425 38.8557 107.331 38.6178 107.236ZM39.4652 115.184C38.7517 115.006 38.0382 114.783 37.3247 114.56C37.3468 115.156 37.3579 115.741 37.3689 116.32L37.3689 116.321L37.369 116.321C37.3802 116.912 37.3914 117.497 37.4139 118.082C38.1274 118.305 38.8409 118.484 39.5543 118.662C39.532 118.082 39.5209 117.503 39.5098 116.923C39.4986 116.343 39.4874 115.764 39.4652 115.184ZM39.5985 122.898L39.5984 122.898L39.5984 122.898C38.8851 122.765 38.1718 122.631 37.4585 122.453C37.4805 123.049 37.4917 123.634 37.5027 124.213L37.5027 124.214L37.5027 124.214C37.514 124.805 37.5251 125.39 37.5477 125.975L39.6881 126.377C39.6658 125.797 39.6547 125.217 39.6435 124.638C39.6324 124.058 39.6212 123.478 39.5989 122.899L39.5985 122.898ZM37.6591 132.129C37.6703 132.72 37.6814 133.311 37.6814 133.913C38.0081 133.933 38.3348 133.963 38.6701 133.994L38.6705 133.994L38.6709 133.994L38.6713 133.994L38.6719 133.994C39.0682 134.03 39.4766 134.067 39.9111 134.091C39.8888 133.512 39.8776 132.932 39.8665 132.352C39.8553 131.773 39.8442 131.193 39.8219 130.613C39.0639 130.524 38.3505 130.435 37.637 130.346H37.6368C37.6368 130.948 37.648 131.538 37.6591 132.129ZM42.0962 108.495V109.208C42.1407 110.1 42.1407 110.992 42.0962 111.884C42.8542 112.107 43.5677 112.33 44.2812 112.553C44.2812 112.152 44.2701 111.761 44.2589 111.371C44.2478 110.981 44.2366 110.591 44.2366 110.19V109.208C43.5231 108.985 42.8096 108.763 42.0962 108.495ZM43.2181 116.24L43.2177 116.24C42.9008 116.152 42.5877 116.065 42.2745 115.987L42.3637 119.376C42.6971 119.454 43.0219 119.524 43.3418 119.593C43.7494 119.68 44.1491 119.766 44.5488 119.866C44.5263 119.326 44.5151 118.774 44.5038 118.216L44.5038 118.216L44.5038 118.216C44.4928 117.67 44.4817 117.118 44.4596 116.566C44.0344 116.466 43.6232 116.352 43.2181 116.24ZM44.5934 123.88C43.8353 123.746 43.1218 123.612 42.4083 123.478C42.4304 124.03 42.4415 124.593 42.4525 125.15L42.4526 125.151L42.4526 125.151C42.4638 125.719 42.475 126.282 42.4975 126.823C43.211 126.957 43.9691 127.09 44.6825 127.179C44.66 126.639 44.6489 126.087 44.6376 125.53L44.6376 125.529L44.6376 125.529C44.6266 124.983 44.6154 124.431 44.5934 123.88ZM42.6313 132.664C42.6424 133.233 42.6536 133.802 42.6759 134.359C43.3893 134.404 44.1028 134.448 44.8609 134.537C44.8384 133.997 44.8273 133.445 44.816 132.888C44.805 132.341 44.7938 131.789 44.7717 131.237C44.4191 131.193 44.0556 131.149 43.6919 131.105L43.6792 131.104L43.6665 131.102L43.6657 131.102C43.3023 131.058 42.9391 131.014 42.5867 130.97C42.609 131.527 42.6201 132.096 42.6313 132.664ZM47.046 110.1C47.0906 110.502 47.0906 110.948 47.0906 111.349C47.0906 111.683 47.1017 112.006 47.1129 112.33L47.1129 112.33C47.124 112.653 47.1352 112.977 47.1352 113.311C47.7303 113.497 48.3566 113.652 48.962 113.802L48.9624 113.802L48.967 113.803C49.051 113.824 49.1346 113.844 49.2177 113.865C49.252 113.874 49.2862 113.882 49.3202 113.891C49.3202 113.601 49.3091 113.322 49.2979 113.043L49.2979 113.043C49.2868 112.765 49.2756 112.486 49.2756 112.196L49.231 110.725C48.8743 110.613 48.5064 110.513 48.1385 110.412C47.7706 110.312 47.4027 110.212 47.046 110.1ZM48.3169 117.48C47.949 117.402 47.5811 117.324 47.2244 117.235C47.2467 117.77 47.2578 118.305 47.269 118.841L47.269 118.841C47.2801 119.376 47.2912 119.911 47.3135 120.446C47.9303 120.6 48.5803 120.721 49.2061 120.837C49.3043 120.856 49.4018 120.874 49.4986 120.892C49.4763 120.357 49.4652 119.833 49.454 119.309L49.454 119.309C49.4429 118.785 49.4317 118.261 49.4094 117.726C49.0527 117.637 48.6848 117.559 48.3169 117.48ZM48.4953 124.548C48.1274 124.493 47.7595 124.437 47.4027 124.37C47.4253 124.911 47.4364 125.451 47.4477 125.998C47.4587 126.533 47.4698 127.074 47.4919 127.625C47.8487 127.67 48.2165 127.715 48.5844 127.759C48.9523 127.804 49.3202 127.848 49.677 127.893C49.6547 127.358 49.6435 126.834 49.6324 126.31C49.6212 125.786 49.6101 125.262 49.5878 124.727C49.231 124.66 48.8632 124.604 48.4953 124.548ZM47.6257 133.11C47.6368 133.645 47.648 134.181 47.6703 134.716C48.3838 134.805 49.0973 134.849 49.8554 134.894C49.8331 134.359 49.8219 133.835 49.8108 133.311C49.7996 132.787 49.7885 132.263 49.7662 131.728C49.4094 131.683 49.0415 131.65 48.6736 131.616C48.3057 131.583 47.9378 131.55 47.5811 131.505C47.6034 132.04 47.6145 132.575 47.6257 133.11ZM52.1073 112.308C52.1185 112.598 52.1296 112.887 52.1296 113.177C52.1296 113.406 52.1413 113.647 52.1528 113.881C52.1636 114.103 52.1742 114.32 52.1742 114.515C52.2963 114.544 52.4172 114.572 52.5373 114.601C53.1632 114.75 53.7678 114.893 54.4038 115.006C54.3593 114.649 54.3593 114.248 54.3593 113.891V113.891C54.3593 113.551 54.3477 113.222 54.3364 112.899C54.3254 112.587 54.3147 112.28 54.3147 111.973C53.5566 111.795 52.7985 111.616 52.085 111.438C52.085 111.728 52.0961 112.018 52.1073 112.307L52.1073 112.308ZM53.3559 118.506C52.988 118.439 52.6201 118.372 52.2634 118.305C52.2857 118.818 52.2968 119.331 52.308 119.844C52.3191 120.357 52.3303 120.87 52.3526 121.382C52.7091 121.449 53.0768 121.505 53.4445 121.561L53.4451 121.561L53.4457 121.561C53.8134 121.617 54.1811 121.672 54.5376 121.739C54.5153 121.226 54.5042 120.725 54.493 120.223C54.4819 119.721 54.4707 119.22 54.4484 118.707C54.0917 118.64 53.7238 118.573 53.3559 118.506ZM52.6564 125.155L52.4417 125.128C52.4417 126.112 52.4828 127.096 52.5255 128.12L52.5256 128.121L52.5256 128.121L52.5309 128.25C53.2444 128.294 54.0025 128.383 54.716 128.473C54.6937 127.96 54.6825 127.458 54.6714 126.956C54.6602 126.455 54.6491 125.953 54.6268 125.44C53.9845 125.32 53.306 125.236 52.6564 125.155ZM52.6201 133.534C52.6313 134.047 52.6424 134.56 52.6647 135.072C53.0136 135.094 53.3731 135.116 53.7329 135.138L53.7572 135.139C54.1251 135.162 54.493 135.184 54.8498 135.206C54.8275 134.693 54.8163 134.192 54.8052 133.69C54.794 133.188 54.7829 132.687 54.7606 132.174C54.4038 132.152 54.036 132.118 53.6681 132.085C53.3002 132.051 52.9323 132.018 52.5755 131.996C52.5978 132.508 52.609 133.021 52.6201 133.533L52.6201 133.534Z" fill="#255C84"/>
</svg>
