<svg width="120" height="120" viewBox="0 0 120 120" fill="none" xmlns="http://www.w3.org/2000/svg">
    <rect width="120" height="120" fill="#3139DF"/>
    <path d="M71.9194 43.9207L89.4286 42.6796C88.5906 35.3726 85.6575 29.5992 80.6295 25.3594C75.631 21.1202 68.7772 19 60.0672 19C54.171 19 49.0235 19.9997 44.6234 21.9992C40.2539 23.9981 36.8567 26.8414 34.4325 30.5298C32.0379 34.2182 30.841 38.6126 30.841 43.7139C30.841 49.6426 32.4719 54.5193 35.7342 58.3454C39.0265 62.1715 44.0397 64.8601 50.7739 66.4113L62.7163 69.1515C65.7094 69.8406 67.9239 70.8403 69.3604 72.1501C70.7974 73.4252 71.5307 75.0625 71.5607 77.062C71.5307 79.44 70.4829 81.3874 68.418 82.904C66.3826 84.386 63.6887 85.1273 60.3369 85.1273C56.925 85.1273 54.1263 84.2998 51.9413 82.6455C49.7568 80.9566 48.3798 78.5095 47.8109 75.304L29 76.4414C29.9282 84.0244 33.0856 90.0217 38.4729 94.4337C43.8901 98.8112 51.1632 101 60.2921 101C66.2777 101 71.5607 99.9141 76.1399 97.7429C80.7491 95.5366 84.3706 92.4688 87.0045 88.5396C89.6683 84.6104 91 80.0431 91 74.8387C91 69.1169 89.3539 64.4979 86.0616 60.9825C82.7693 57.4664 77.7708 54.9161 71.0666 53.3303L58.5859 50.4354C55.3831 49.6425 53.1238 48.5913 51.8069 47.2815C50.49 45.9718 49.8316 44.369 49.8316 42.4733C49.8316 40.0947 50.8487 38.1989 52.8842 36.786C54.9196 35.338 57.4186 34.6143 60.3817 34.6143C62.5967 34.6143 64.4973 35.045 66.0834 35.907C67.6995 36.7339 69.0017 37.8544 69.9893 39.2672C70.977 40.6461 71.6202 42.1973 71.9194 43.9207Z" fill="#E6E7F9"/>
</svg>