<?xml version="1.0" encoding="UTF-8"?>
<!DOCTYPE svg PUBLIC "-//W3C//DTD SVG 1.1//EN" "http://www.w3.org/Graphics/SVG/1.1/DTD/svg11.dtd">
<!-- Creator: CorelDRAW 2018 (64-Bit) -->
<svg xmlns="http://www.w3.org/2000/svg" xml:space="preserve" width="616px" height="554px" version="1.1" style="shape-rendering:geometricPrecision; text-rendering:geometricPrecision; image-rendering:optimizeQuality; fill-rule:evenodd; clip-rule:evenodd"
viewBox="0 0 616 553.99"
 xmlns:xlink="http://www.w3.org/1999/xlink">
 <defs>
  <style type="text/css">
   <![CDATA[
    .fil0 {fill:#D66C56}
   ]]>
  </style>
 </defs>
 <g id="Слой_x0020_1">
  <metadata id="CorelCorpID_0Corel-Layer"/>
  <path class="fil0" d="M308 265.42c-54.9,0 -99.4,44.51 -99.4,99.4 2.09,62.41 35.23,125.46 99.4,189.16 -39.06,0.45 -71.33,-8.68 -108.79,-21.22 -117.98,-39.54 -199.21,-156.43 -199.21,-288.24l0 -205.39c92.62,0 164.88,52.93 164.88,180.49 0,-124.44 55.71,-167.65 143.12,-219.62 87.41,51.97 143.12,95.18 143.12,219.62 0,-127.56 72.25,-180.49 164.88,-180.49l0 205.39c0,131.81 -81.23,248.7 -199.21,288.24 -37.46,12.54 -69.73,21.67 -108.79,21.22 64.17,-63.7 97.31,-126.75 99.4,-189.16 0,-54.89 -44.5,-99.4 -99.4,-99.4z"/>
 </g>
</svg>
