<svg width="120" height="120" viewBox="0 0 120 120" fill="none" xmlns="http://www.w3.org/2000/svg">
    <g clip-path="url(#clip0_7379_2809)">
        <path fill-rule="evenodd" clip-rule="evenodd" d="M32.8364 26.9891C33.0955 27.3062 33.7214 28.0558 34.3298 28.7275V28.7275C34.7112 29.1196 41.5816 36.1024 45.1508 39.7207V39.7207V39.7207C42.7228 35.1337 38.4404 27.0323 38.161 26.5797V26.5797C37.7097 25.7897 37.1886 24.9853 36.9528 24.6192V24.6192C35.5351 22.3906 32.8713 20.3955 29.9048 19.2884V19.2884C30.1726 22.2089 31.2207 25.0718 32.8364 26.9891" fill="#D8D8D8"/>
        <mask id="mask0_7379_2809" style="mask-type:luminance" maskUnits="userSpaceOnUse" x="29" y="19" width="17" height="21">
            <path fill-rule="evenodd" clip-rule="evenodd" d="M32.8364 26.9891C33.0955 27.3062 33.7214 28.0558 34.3298 28.7275V28.7275C34.7112 29.1196 41.5816 36.1024 45.1508 39.7207V39.7207V39.7207C42.7228 35.1337 38.4404 27.0323 38.161 26.5797V26.5797C37.7097 25.7897 37.1886 24.9853 36.9528 24.6192V24.6192C35.5351 22.3906 32.8713 20.3955 29.9048 19.2884V19.2884C30.1726 22.2089 31.2207 25.0718 32.8364 26.9891" fill="white"/>
        </mask>
        <g mask="url(#mask0_7379_2809)">
            <path d="M21.5679 35.6482L29.6753 11.0141L50.8794 17.8742L42.772 42.8202L21.5679 35.6482Z" fill="url(#paint0_radial_7379_2809)"/>
        </g>
        <path fill-rule="evenodd" clip-rule="evenodd" d="M21.5903 70.1081C20.7083 70.3012 19.7825 70.5492 19.3458 70.6386V70.6386C16.7665 71.2872 14.0445 73.1785 12.0445 75.6205V75.6205C14.9412 76.2951 18.0329 76.1683 20.3473 75.2543V75.2543C20.7432 75.1044 21.6398 74.7585 22.4666 74.3894V74.3894C22.9935 74.1645 31.8116 69.8313 36.3735 67.5969V67.5969C31.241 68.4618 22.1202 69.9899 21.5903 70.1081" fill="#D8D8D8"/>
        <mask id="mask1_7379_2809" style="mask-type:luminance" maskUnits="userSpaceOnUse" x="12" y="67" width="25" height="10">
            <path fill-rule="evenodd" clip-rule="evenodd" d="M21.5903 70.1081C20.7083 70.3012 19.7825 70.5492 19.3458 70.6386V70.6386C16.7665 71.2872 14.0445 73.1785 12.0445 75.6205V75.6205C14.9412 76.2951 18.0329 76.1683 20.3473 75.2543V75.2543C20.7432 75.1044 21.6398 74.7585 22.4666 74.3894V74.3894C22.9935 74.1645 31.8116 69.8313 36.3735 67.5969V67.5969C31.241 68.4618 22.1202 69.9899 21.5903 70.1081" fill="white"/>
        </mask>
        <g mask="url(#mask1_7379_2809)">
            <path d="M25.9335 89.9057L4.41758 74.3145L17.826 55.605L39.3419 71.1963L25.9335 89.9057Z" fill="url(#paint1_radial_7379_2809)"/>
        </g>
        <path fill-rule="evenodd" clip-rule="evenodd" d="M58.3096 99.1636C58.1961 100.063 58.1466 101.015 58.1058 101.438V101.438C57.9312 104.073 58.886 107.233 60.6444 109.871V109.871C62.1786 107.346 63.0141 104.411 62.8569 101.949V101.949C62.8133 101.502 62.7696 100.568 62.6706 99.6681V99.6681C62.6269 99.1117 61.1859 89.4707 60.4464 84.4686V84.4686C59.6924 89.5803 58.3475 98.636 58.3096 99.1636" fill="#D8D8D8"/>
        <mask id="mask2_7379_2809" style="mask-type:luminance" maskUnits="userSpaceOnUse" x="58" y="84" width="5" height="26">
            <path fill-rule="evenodd" clip-rule="evenodd" d="M58.3096 99.1636C58.1961 100.063 58.1466 101.015 58.1058 101.438V101.438C57.9312 104.073 58.886 107.233 60.6444 109.871V109.871C62.1786 107.346 63.0141 104.411 62.8569 101.949V101.949C62.8133 101.502 62.7696 100.568 62.6706 99.6681V99.6681C62.6269 99.1117 61.1859 89.4707 60.4464 84.4686V84.4686C59.6924 89.5803 58.3475 98.636 58.3096 99.1636" fill="white"/>
        </mask>
        <g mask="url(#mask2_7379_2809)">
            <path d="M76.761 104.25L59.9225 116.411L44.9549 95.8303L61.7934 83.6692L76.761 104.25Z" fill="url(#paint2_radial_7379_2809)"/>
        </g>
        <path fill-rule="evenodd" clip-rule="evenodd" d="M83.0489 23.8235C82.8276 24.1868 82.3036 24.9854 81.8436 25.7753V25.7753C81.5729 26.2395 76.9965 34.8829 74.6239 39.3574V39.3574C78.2862 35.6556 84.7345 29.1168 85.1042 28.7276V28.7276C85.6923 28.0558 86.3065 27.3062 86.5773 26.9891V26.9891C88.2949 24.9479 89.3866 21.84 89.5613 18.6974V18.6974L89.5583 18.6945V18.6917C86.8014 19.842 84.3851 21.7275 83.0489 23.8235" fill="#D8D8D8"/>
        <mask id="mask3_7379_2809" style="mask-type:luminance" maskUnits="userSpaceOnUse" x="74" y="18" width="16" height="22">
            <path fill-rule="evenodd" clip-rule="evenodd" d="M83.0489 23.8235C82.8276 24.1868 82.3036 24.9854 81.8436 25.7753V25.7753C81.5729 26.2395 76.9965 34.8829 74.6239 39.3574V39.3574C78.2862 35.6556 84.7345 29.1168 85.1042 28.7276V28.7276C85.6923 28.0558 86.3065 27.3062 86.5773 26.9891V26.9891C88.2949 24.9479 89.3866 21.84 89.5613 18.6974V18.6974L89.5583 18.6945V18.6917C86.8014 19.842 84.3851 21.7275 83.0489 23.8235" fill="white"/>
        </mask>
        <g mask="url(#mask3_7379_2809)">
            <path d="M90.4813 10.3904L98.5887 35.3363L77.3846 42.1965L69.2772 17.2505L90.4813 10.3904Z" fill="url(#paint3_radial_7379_2809)"/>
        </g>
        <path fill-rule="evenodd" clip-rule="evenodd" d="M84.097 67.0232C88.755 69.3152 97.0344 73.3717 97.5293 73.5822V73.5822C98.3532 73.9425 99.2644 74.3058 99.6603 74.45V74.45C102.141 75.4389 105.474 75.4994 108.525 74.6777V74.6777C106.586 72.4549 104.024 70.7596 101.602 70.1456V70.1456C101.197 70.0418 100.26 69.7996 99.3663 69.6237V69.6237C98.8161 69.5026 89.1101 67.8622 84.097 67.0232V67.0232Z" fill="#D8D8D8"/>
        <mask id="mask4_7379_2809" style="mask-type:luminance" maskUnits="userSpaceOnUse" x="84" y="67" width="25" height="9">
            <path fill-rule="evenodd" clip-rule="evenodd" d="M84.097 67.0232C88.755 69.3152 97.0344 73.3717 97.5293 73.5822V73.5822C98.3532 73.9425 99.2644 74.3058 99.6603 74.45V74.45C102.141 75.4389 105.474 75.4994 108.525 74.6777V74.6777C106.586 72.4549 104.024 70.7596 101.602 70.1456V70.1456C101.197 70.0418 100.26 69.7996 99.3663 69.6237V69.6237C98.8161 69.5026 89.1101 67.8622 84.097 67.0232V67.0232Z" fill="white"/>
        </mask>
        <g mask="url(#mask4_7379_2809)">
            <path d="M109.19 59.6587L115.115 75.5617L85.4918 84.2928L79.5671 68.3898L109.19 59.6587Z" fill="url(#paint4_radial_7379_2809)"/>
        </g>
        <path fill-rule="evenodd" clip-rule="evenodd" d="M91.0199 18.1581C90.5279 18.3081 90.033 18.507 89.5614 18.6915V18.6915C89.3867 21.834 88.295 24.9449 86.592 26.989V26.989C86.3067 27.3061 85.6924 28.0557 85.1044 28.7274V28.7274C84.7346 29.1167 78.2863 35.6554 74.624 39.3573V39.3573C73.7914 40.9487 73.2208 42.0097 73.2208 42.0097V42.0097C71.0258 46.1354 69.3314 50.8607 70.8569 55.7417V55.7417C72.5192 60.5651 76.6881 63.3992 80.9268 65.4634V65.4634C80.9268 65.4634 82.2194 66.1006 84.0971 67.0232V67.0232C89.1102 67.8621 98.8132 69.5026 99.3664 69.6237V69.6237C100.26 69.7996 101.198 70.0417 101.602 70.1455V70.1455C104.024 70.7596 106.586 72.4549 108.531 74.6777V74.6777C108.845 74.5941 109.16 74.5105 109.465 74.4096V74.4096C117.343 71.76 121.657 63.4712 119.404 55.6408V55.6408C117.218 49.2549 112.202 50.189 109.89 43.1716V43.1716C107.608 36.1657 112.205 34.0006 110.19 27.554V27.554C107.902 21.3785 101.995 17.4633 95.6284 17.4633V17.4633C94.1029 17.4633 92.5512 17.6882 91.0199 18.1581" fill="#D8D8D8"/>
        <mask id="mask5_7379_2809" style="mask-type:luminance" maskUnits="userSpaceOnUse" x="70" y="17" width="51" height="58">
            <path fill-rule="evenodd" clip-rule="evenodd" d="M91.0199 18.1581C90.5279 18.3081 90.033 18.507 89.5614 18.6915V18.6915C89.3867 21.834 88.295 24.9449 86.592 26.989V26.989C86.3067 27.3061 85.6924 28.0557 85.1044 28.7274V28.7274C84.7346 29.1167 78.2863 35.6554 74.624 39.3573V39.3573C73.7914 40.9487 73.2208 42.0097 73.2208 42.0097V42.0097C71.0258 46.1354 69.3314 50.8607 70.8569 55.7417V55.7417C72.5192 60.5651 76.6881 63.3992 80.9268 65.4634V65.4634C80.9268 65.4634 82.2194 66.1006 84.0971 67.0232V67.0232C89.1102 67.8621 98.8132 69.5026 99.3664 69.6237V69.6237C100.26 69.7996 101.198 70.0417 101.602 70.1455V70.1455C104.024 70.7596 106.586 72.4549 108.531 74.6777V74.6777C108.845 74.5941 109.16 74.5105 109.465 74.4096V74.4096C117.343 71.76 121.657 63.4712 119.404 55.6408V55.6408C117.218 49.2549 112.202 50.189 109.89 43.1716V43.1716C107.608 36.1657 112.205 34.0006 110.19 27.554V27.554C107.902 21.3785 101.995 17.4633 95.6284 17.4633V17.4633C94.1029 17.4633 92.5512 17.6882 91.0199 18.1581" fill="white"/>
        </mask>
        <g mask="url(#mask5_7379_2809)">
            <path d="M121.04 -2.70618L144.427 69.6371L75.5135 92.0884L52.1267 19.7452L121.04 -2.70618Z" fill="url(#paint5_radial_7379_2809)"/>
        </g>
        <path fill-rule="evenodd" clip-rule="evenodd" d="M67.183 68.5369C63.0694 71.5843 61.6138 76.3903 60.9588 81.0119V81.0119C60.9588 81.0119 60.7521 82.4304 60.4464 84.4687V84.4687C61.1859 89.4708 62.6269 99.1118 62.6706 99.6682V99.6682C62.7696 100.568 62.8132 101.502 62.8569 101.949V101.949C63.0141 104.411 62.1786 107.346 60.6444 109.871V109.871C60.8191 110.142 60.9996 110.416 61.1975 110.667V110.667C66.1553 117.255 75.4653 118.766 82.2746 114.216V114.216C87.7506 110.183 85.2848 105.746 91.3169 101.41V101.41C97.346 97.0792 100.839 100.764 106.417 96.8543V96.8543C112.886 91.8464 114.318 82.6206 109.509 75.8973V75.8973C109.218 75.4793 108.874 75.0699 108.531 74.6778V74.6778C105.474 75.4995 102.141 75.4389 99.6604 74.45V74.45C99.2644 74.3059 98.3532 73.9426 97.5381 73.5822V73.5822C97.0461 73.3718 88.7521 69.3124 84.0971 67.0233V67.0233C82.3096 66.7205 81.1218 66.513 81.1218 66.513V66.513C79.4246 66.2247 77.6895 66.02 75.9602 66.02V66.02C72.9035 66.02 69.8758 66.6485 67.183 68.5369" fill="#D8D8D8"/>
        <mask id="mask6_7379_2809" style="mask-type:luminance" maskUnits="userSpaceOnUse" x="60" y="66" width="53" height="51">
            <path fill-rule="evenodd" clip-rule="evenodd" d="M67.183 68.5369C63.0694 71.5843 61.6138 76.3903 60.9588 81.0119V81.0119C60.9588 81.0119 60.7521 82.4304 60.4464 84.4687V84.4687C61.1859 89.4708 62.6269 99.1118 62.6706 99.6682V99.6682C62.7696 100.568 62.8132 101.502 62.8569 101.949V101.949C63.0141 104.411 62.1786 107.346 60.6444 109.871V109.871C60.8191 110.142 60.9996 110.416 61.1975 110.667V110.667C66.1553 117.255 75.4653 118.766 82.2746 114.216V114.216C87.7506 110.183 85.2848 105.746 91.3169 101.41V101.41C97.346 97.0792 100.839 100.764 106.417 96.8543V96.8543C112.886 91.8464 114.318 82.6206 109.509 75.8973V75.8973C109.218 75.4793 108.874 75.0699 108.531 74.6778V74.6778C105.474 75.4995 102.141 75.4389 99.6604 74.45V74.45C99.2644 74.3059 98.3532 73.9426 97.5381 73.5822V73.5822C97.0461 73.3718 88.7521 69.3124 84.0971 67.0233V67.0233C82.3096 66.7205 81.1218 66.513 81.1218 66.513V66.513C79.4246 66.2247 77.6895 66.02 75.9602 66.02V66.02C72.9035 66.02 69.8758 66.6485 67.183 68.5369" fill="white"/>
        </mask>
        <g mask="url(#mask6_7379_2809)">
            <path d="M145.674 103.626L80.8148 150.711L33.7293 86.1638L98.5888 38.7665L145.674 103.626Z" fill="url(#paint6_radial_7379_2809)"/>
        </g>
        <path fill-rule="evenodd" clip-rule="evenodd" d="M39.8613 67.0145C39.8613 67.0145 38.4406 67.2452 36.3736 67.5969V67.5969C31.8147 69.8313 22.9937 74.1645 22.4668 74.3894V74.3894C21.64 74.7585 20.7434 75.1044 20.3474 75.2543V75.2543C18.033 76.1683 14.953 76.2951 12.0447 75.6205V75.6205C11.8409 75.8742 11.6488 76.1366 11.4508 76.3932V76.3932C6.66477 83.1136 8.07671 92.3394 14.5629 97.3473V97.3473C20.1175 101.251 23.6167 97.5779 29.6458 101.9V101.9C35.672 106.236 33.2266 110.684 38.6822 114.721V114.721C45.5206 119.27 54.8045 117.759 59.771 111.16V111.16C60.0854 110.733 60.3707 110.315 60.6444 109.871V109.871C58.886 107.233 57.9311 104.073 58.1058 101.438V101.438C58.1465 101.015 58.196 100.063 58.3096 99.1636V99.1636C58.3474 98.636 59.6924 89.5803 60.4464 84.4686V84.4686C60.1873 82.6984 60.0039 81.5106 60.0039 81.5106V81.5106C59.3372 76.8804 57.8991 72.0743 53.771 69.0269V69.0269C51.0869 67.1501 48.0592 66.5215 45.017 66.5215V66.5215C43.2819 66.5215 41.5439 66.7205 39.8613 67.0145" fill="#D8D8D8"/>
        <mask id="mask7_7379_2809" style="mask-type:luminance" maskUnits="userSpaceOnUse" x="8" y="66" width="53" height="52">
            <path fill-rule="evenodd" clip-rule="evenodd" d="M39.8613 67.0145C39.8613 67.0145 38.4406 67.2452 36.3736 67.5969V67.5969C31.8147 69.8313 22.9937 74.1645 22.4668 74.3894V74.3894C21.64 74.7585 20.7434 75.1044 20.3474 75.2543V75.2543C18.033 76.1683 14.953 76.2951 12.0447 75.6205V75.6205C11.8409 75.8742 11.6488 76.1366 11.4508 76.3932V76.3932C6.66477 83.1136 8.07671 92.3394 14.5629 97.3473V97.3473C20.1175 101.251 23.6167 97.5779 29.6458 101.9V101.9C35.672 106.236 33.2266 110.684 38.6822 114.721V114.721C45.5206 119.27 54.8045 117.759 59.771 111.16V111.16C60.0854 110.733 60.3707 110.315 60.6444 109.871V109.871C58.886 107.233 57.9311 104.073 58.1058 101.438V101.438C58.1465 101.015 58.196 100.063 58.3096 99.1636V99.1636C58.3474 98.636 59.6924 89.5803 60.4464 84.4686V84.4686C60.1873 82.6984 60.0039 81.5106 60.0039 81.5106V81.5106C59.3372 76.8804 57.8991 72.0743 53.771 69.0269V69.0269C51.0869 67.1501 48.0592 66.5215 45.017 66.5215V66.5215C43.2819 66.5215 41.5439 66.7205 39.8613 67.0145" fill="white"/>
        </mask>
        <g mask="url(#mask7_7379_2809)">
            <path d="M40.9011 151.335L-23.9584 104.25L23.1271 39.3901L88.2984 86.4756L40.9011 151.335Z" fill="url(#paint7_radial_7379_2809)"/>
        </g>
        <path fill-rule="evenodd" clip-rule="evenodd" d="M9.82044 28.3585C7.79133 34.805 12.4143 36.9702 10.097 43.9732V43.9732C7.8088 50.9848 2.79279 50.0622 0.603562 56.4424V56.4424C-1.67009 64.2786 2.66179 72.5559 10.5395 75.2083V75.2083C11.0286 75.3611 11.5351 75.5139 12.0446 75.6206V75.6206C14.0446 73.1786 16.7666 71.2873 19.3517 70.6386V70.6386C19.7826 70.5493 20.7084 70.3013 21.5904 70.1081V70.1081C22.1203 69.9899 31.2411 68.4562 36.3736 67.597V67.597C38.0067 66.8013 39.0897 66.2621 39.0897 66.2621V66.2621C43.3226 64.2036 47.4944 61.3638 49.1479 56.5289V56.5289C50.6705 51.6681 48.9907 46.9456 46.7782 42.8199V42.8199C46.7782 42.8199 46.1145 41.5399 45.1508 39.7207V39.7207C41.5846 36.1024 34.7113 29.1225 34.3299 28.7275V28.7275C33.7214 28.0558 33.0955 27.3062 32.8364 26.989V26.989C31.2207 25.0718 30.1727 22.2089 29.9049 19.2884V19.2884C29.6137 19.1673 29.3051 19.0664 29.0053 18.9655V18.9655C27.4653 18.4898 25.9078 18.2649 24.3794 18.2649V18.2649C18.0155 18.262 12.1028 22.1887 9.82044 28.3585" fill="#D8D8D8"/>
        <mask id="mask8_7379_2809" style="mask-type:luminance" maskUnits="userSpaceOnUse" x="0" y="18" width="50" height="58">
            <path fill-rule="evenodd" clip-rule="evenodd" d="M9.82044 28.3585C7.79133 34.805 12.4143 36.9702 10.097 43.9732V43.9732C7.8088 50.9848 2.79279 50.0622 0.603562 56.4424V56.4424C-1.67009 64.2786 2.66179 72.5559 10.5395 75.2083V75.2083C11.0286 75.3611 11.5351 75.5139 12.0446 75.6206V75.6206C14.0446 73.1786 16.7666 71.2873 19.3517 70.6386V70.6386C19.7826 70.5493 20.7084 70.3013 21.5904 70.1081V70.1081C22.1203 69.9899 31.2411 68.4562 36.3736 67.597V67.597C38.0067 66.8013 39.0897 66.2621 39.0897 66.2621V66.2621C43.3226 64.2036 47.4944 61.3638 49.1479 56.5289V56.5289C50.6705 51.6681 48.9907 46.9456 46.7782 42.8199V42.8199C46.7782 42.8199 46.1145 41.5399 45.1508 39.7207V39.7207C41.5846 36.1024 34.7113 29.1225 34.3299 28.7275V28.7275C33.7214 28.0558 33.0955 27.3062 32.8364 26.989V26.989C31.2207 25.0718 30.1727 22.2089 29.9049 19.2884V19.2884C29.6137 19.1673 29.3051 19.0664 29.0053 18.9655V18.9655C27.4653 18.4898 25.9078 18.2649 24.3794 18.2649V18.2649C18.0155 18.262 12.1028 22.1887 9.82044 28.3585" fill="white"/>
        </mask>
        <g mask="url(#mask8_7379_2809)">
            <path d="M-23.9584 70.8843L-0.259739 -1.77081L68.6534 20.6805L44.9548 93.3356L-23.9584 70.8843Z" fill="url(#paint8_radial_7379_2809)"/>
        </g>
        <path fill-rule="evenodd" clip-rule="evenodd" d="M59.704 7.67538C52.2804 7.67538 51.6137 2.67038 44.8102 2.57812V2.57812C36.5861 2.8722 29.9427 9.4946 29.8495 17.7286V17.7286C29.8321 18.2505 29.8583 18.7665 29.9049 19.2884V19.2884C32.8714 20.3955 35.5351 22.3905 36.9529 24.6191V24.6191C37.1887 24.9853 37.7098 25.7897 38.161 26.5796V26.5796C38.4405 27.0323 42.7287 35.1366 45.1508 39.7206V39.7206C46.4114 40.9949 47.2527 41.8599 47.2527 41.8599V41.8599C50.5453 45.21 54.5599 48.2516 59.704 48.3237V48.3237C64.8684 48.2516 68.8714 45.21 72.1639 41.8599V41.8599C72.1639 41.8599 73.1887 40.8364 74.6239 39.3574V39.3574C76.9965 34.8829 81.5729 26.2394 81.8437 25.7753V25.7753C82.3037 24.9853 82.8277 24.1867 83.0489 23.8234V23.8234C84.3852 21.7274 86.8015 19.8419 89.5613 18.6916V18.6916C89.5642 18.3744 89.5875 18.0458 89.5642 17.7286V17.7286C89.4594 9.4946 82.8422 2.8722 74.6239 2.57812V2.57812C67.8059 2.67038 67.1479 7.67538 59.704 7.67538" fill="#D8D8D8"/>
        <mask id="mask9_7379_2809" style="mask-type:luminance" maskUnits="userSpaceOnUse" x="29" y="2" width="61" height="47">
            <path fill-rule="evenodd" clip-rule="evenodd" d="M59.704 7.67538C52.2804 7.67538 51.6137 2.67038 44.8102 2.57812V2.57812C36.5861 2.8722 29.9427 9.4946 29.8495 17.7286V17.7286C29.8321 18.2505 29.8583 18.7665 29.9049 19.2884V19.2884C32.8714 20.3955 35.5351 22.3905 36.9529 24.6191V24.6191C37.1887 24.9853 37.7098 25.7897 38.161 26.5796V26.5796C38.4405 27.0323 42.7287 35.1366 45.1508 39.7206V39.7206C46.4114 40.9949 47.2527 41.8599 47.2527 41.8599V41.8599C50.5453 45.21 54.5599 48.2516 59.704 48.3237V48.3237C64.8684 48.2516 68.8714 45.21 72.1639 41.8599V41.8599C72.1639 41.8599 73.1887 40.8364 74.6239 39.3574V39.3574C76.9965 34.8829 81.5729 26.2394 81.8437 25.7753V25.7753C82.3037 24.9853 82.8277 24.1867 83.0489 23.8234V23.8234C84.3852 21.7274 86.8015 19.8419 89.5613 18.6916V18.6916C89.5642 18.3744 89.5875 18.0458 89.5642 17.7286V17.7286C89.4594 9.4946 82.8422 2.8722 74.6239 2.57812V2.57812C67.8059 2.67038 67.1479 7.67538 59.704 7.67538" fill="white"/>
        </mask>
        <g mask="url(#mask9_7379_2809)">
            <path d="M28.7399 -0.835205H92.6639V48.7449H28.7399V-0.835205Z" fill="url(#paint9_radial_7379_2809)"/>
        </g>
    </g>
    <defs>
        <radialGradient id="paint0_radial_7379_2809" cx="0" cy="0" r="1" gradientUnits="userSpaceOnUse" gradientTransform="translate(58.7969 59.4133) rotate(-72.0018) scale(48.6386 45.5832)">
            <stop stop-color="#F4ECE0"/>
            <stop offset="0.5112" stop-color="#B48C80"/>
            <stop offset="1" stop-color="#933F39"/>
        </radialGradient>
        <radialGradient id="paint1_radial_7379_2809" cx="0" cy="0" r="1" gradientUnits="userSpaceOnUse" gradientTransform="translate(59.8977 61.066) rotate(-143.999) scale(48.6478 48.3848)">
            <stop stop-color="#F4EDEB"/>
            <stop offset="0.5112" stop-color="#B49B9E"/>
            <stop offset="1" stop-color="#785830"/>
        </radialGradient>
        <radialGradient id="paint2_radial_7379_2809" cx="0" cy="0" r="1" gradientUnits="userSpaceOnUse" gradientTransform="translate(61.8053 60.519) rotate(143.999) scale(48.6397 49.0959)">
            <stop stop-color="#EFEBE0"/>
            <stop offset="0.5112" stop-color="#AE9954"/>
            <stop offset="1" stop-color="#91592F"/>
        </radialGradient>
        <radialGradient id="paint3_radial_7379_2809" cx="0" cy="0" r="1" gradientUnits="userSpaceOnUse" gradientTransform="translate(61.9926 58.4859) rotate(72.0018) scale(48.6668 45.6096)">
            <stop stop-color="#E2DDDB"/>
            <stop offset="0.5112" stop-color="#9D8F8C"/>
            <stop offset="1" stop-color="#2B2E2E"/>
        </radialGradient>
        <radialGradient id="paint4_radial_7379_2809" cx="0" cy="0" r="1" gradientUnits="userSpaceOnUse" gradientTransform="translate(55.6519 58.4554) rotate(70.0435) scale(49.1712 66.6597)">
            <stop stop-color="#B4C9B6"/>
            <stop offset="0.5112" stop-color="#889281"/>
            <stop offset="1" stop-color="#194936"/>
        </radialGradient>
        <radialGradient id="paint5_radial_7379_2809" cx="0" cy="0" r="1" gradientUnits="userSpaceOnUse" gradientTransform="translate(61.9055 58.4241) rotate(72.0016) scale(48.6491 47.6167)">
            <stop stop-color="#8FD0F1"/>
            <stop offset="0.5112" stop-color="#4B97D1"/>
            <stop offset="1" stop-color="#0064AD"/>
        </radialGradient>
        <radialGradient id="paint6_radial_7379_2809" cx="0" cy="0" r="1" gradientUnits="userSpaceOnUse" gradientTransform="translate(61.924 60.48) rotate(143.999) scale(48.6522)">
            <stop stop-color="#FFF0E2"/>
            <stop offset="0.5112" stop-color="#FFD02A"/>
            <stop offset="1" stop-color="#F59324"/>
        </radialGradient>
        <radialGradient id="paint7_radial_7379_2809" cx="0" cy="0" r="1" gradientUnits="userSpaceOnUse" gradientTransform="translate(59.8796 60.9968) rotate(-143.999) scale(48.654 48.6124)">
            <stop stop-color="#EDE6F1"/>
            <stop offset="0.5112" stop-color="#C2A4CE"/>
            <stop offset="1" stop-color="#8D5BA4"/>
        </radialGradient>
        <radialGradient id="paint8_radial_7379_2809" cx="0" cy="0" r="1" gradientUnits="userSpaceOnUse" gradientTransform="translate(58.7387 59.3692) rotate(-72.0018) scale(48.6455 47.6165)">
            <stop stop-color="#F6F8E8"/>
            <stop offset="0.5112" stop-color="#B2D138"/>
            <stop offset="1" stop-color="#74BD43"/>
        </radialGradient>
        <radialGradient id="paint9_radial_7379_2809" cx="0" cy="0" r="1" gradientUnits="userSpaceOnUse" gradientTransform="translate(60.6348 59.3177) scale(48.6555 37.7377)">
            <stop stop-color="#FFF5E5"/>
            <stop offset="0.5112" stop-color="#FAB678"/>
            <stop offset="1" stop-color="#E91D26"/>
        </radialGradient>
        <clipPath id="clip0_7379_2809">
            <rect width="120" height="120" fill="white"/>
        </clipPath>
    </defs>
</svg>
