<svg width="42" height="62" viewBox="0 0 42 62" fill="none" xmlns="http://www.w3.org/2000/svg">
<path d="M13 4.83002C16.66 1.39002 22 -1.16998 27 0.570016C31.56 2.11002 33.63 7.28002 33.67 11.76C33.5078 17.9343 32.0496 24.0056 29.39 29.58C26.93 28.25 24.46 26.95 21.96 25.7C24.25 21.08 26.96 16.11 26.11 10.77C25.81 9.14002 25 7.00002 23 7.06002C19.78 7.52002 17.66 10.35 15.87 12.8C10.43 20.39 9.58 30.22 10.44 39.25C11.02 43.65 12.49 48.97 17.1 50.7C21.71 52.43 26.45 49.7 29.41 46.29C33.71 41.22 35.97 34.85 38.63 28.86L42 30.73C39.4268 38.8532 35.4833 46.4764 30.34 53.27C26.55 58.27 20.53 62.21 14.03 61.51C9.25 61.14 5.6 57.34 3.58 53.26C-0.629999 44.95 -0.420005 35.12 1.72999 26.26C3.70999 18.39 6.79 10.34 13 4.83002Z" fill="#E52C31"/>
</svg>
