<?xml version="1.0" encoding="UTF-8"?>
<svg xmlns="http://www.w3.org/2000/svg" xmlns:xlink="http://www.w3.org/1999/xlink" width="120px" height="120px" viewBox="0 0 120 120" version="1.1">
<g id="surface1">
<path style=" stroke:none;fill-rule:evenodd;fill:rgb(89.019608%,0%,19.215686%);fill-opacity:1;" d="M 43.375 2.464844 C 75.179688 -6.898438 108.378906 11.246094 117.527344 42.988281 C 126.675781 74.730469 108.308594 108.054688 76.503906 117.417969 C 44.699219 126.777344 11.5 108.632812 2.351562 76.890625 C -6.796875 45.148438 11.570312 11.824219 43.375 2.464844 Z M 43.375 2.464844 "/>
<path style=" stroke:none;fill-rule:evenodd;fill:rgb(100%,100%,100%);fill-opacity:1;" d="M 43.855469 4.835938 C 74.46875 -4.175781 106.425781 13.289062 115.230469 43.839844 C 124.035156 74.394531 106.355469 106.464844 75.742188 115.476562 C 45.128906 124.488281 13.175781 107.023438 4.371094 76.472656 C -4.433594 45.917969 13.242188 13.84375 43.855469 4.835938 Z M 43.855469 4.835938 "/>
<path style=" stroke:none;fill-rule:evenodd;fill:rgb(89.019608%,67.45098%,0%);fill-opacity:1;" d="M 44.410156 6.054688 C 74.226562 -2.722656 105.351562 14.289062 113.929688 44.046875 C 122.507812 73.808594 105.285156 105.046875 75.46875 113.824219 C 45.652344 122.601562 14.527344 105.589844 5.949219 75.832031 C -2.628906 46.070312 14.59375 14.832031 44.410156 6.054688 Z M 44.410156 6.054688 "/>
<path style=" stroke:none;fill-rule:evenodd;fill:rgb(89.019608%,0%,19.215686%);fill-opacity:1;" d="M 45.03125 8.210938 C 73.65625 -0.214844 103.535156 16.113281 111.769531 44.683594 C 120.003906 73.253906 103.472656 103.242188 74.847656 111.667969 C 46.222656 120.09375 16.34375 103.765625 8.109375 75.195312 C -0.125 46.625 16.40625 16.636719 45.03125 8.210938 Z M 45.03125 8.210938 "/>
<path style=" stroke:none;fill-rule:evenodd;fill:rgb(61.960784%,4.313725%,16.078431%);fill-opacity:1;" d="M 94.847656 35.828125 L 98.59375 40.214844 L 102.757812 38.351562 L 103.980469 38.148438 L 100.96875 43.066406 L 104.59375 47.550781 L 103.375 47.753906 L 98.988281 46.203125 L 95.84375 51.039062 L 94.625 51.246094 L 95.390625 45.289062 L 89.820312 43.796875 L 95.148438 41.589844 L 93.625 36.035156 Z M 94.847656 35.828125 "/>
<path style="fill-rule:evenodd;fill:rgb(100%,100%,100%);fill-opacity:1;stroke-width:1.6466;stroke-linecap:butt;stroke-linejoin:miter;stroke:rgb(89.019608%,0%,19.215686%);stroke-opacity:1;stroke-miterlimit:4;" d="M 204.766858 96.113975 L 211.853218 104.404796 L 222.035705 100.495844 L 216.338537 109.799002 L 223.203218 118.281944 L 212.592151 115.732628 L 206.651135 124.887999 L 205.793974 114.010916 L 195.256799 111.180805 L 205.335835 107.005837 Z M 204.766858 96.113975 " transform="matrix(0.528634,0,0,0.528634,-14.985078,-14.984931)"/>
<path style=" stroke:none;fill-rule:evenodd;fill:rgb(61.960784%,4.313725%,16.078431%);fill-opacity:1;" d="M 20.363281 56.117188 L 22.863281 61.367188 L 27.53125 60.609375 L 28.648438 60.765625 L 24.425781 64.765625 L 26.789062 70.078125 L 25.671875 69.925781 L 21.679688 67.300781 L 17.355469 71.1875 L 16.238281 71.03125 L 18.417969 65.472656 L 13.386719 62.558594 L 19.152344 61.804688 L 19.25 55.964844 Z M 20.363281 56.117188 "/>
<path style="fill-rule:evenodd;fill:rgb(100%,100%,100%);fill-opacity:1;stroke-width:1.66;stroke-linecap:butt;stroke-linejoin:miter;stroke:rgb(89.019608%,0%,19.215686%);stroke-opacity:1;stroke-miterlimit:4;" d="M 64.06676 133.814301 L 68.795927 143.738162 L 79.732125 142.600206 L 71.751656 150.166873 L 76.214807 160.223741 L 66.556962 154.969932 L 58.369592 162.314919 L 60.386877 151.50434 L 50.86204 145.999294 L 61.768681 144.565766 Z M 64.06676 133.814301 " transform="matrix(0.528634,0,0,0.528634,-14.985078,-14.984931)"/>
<path style=" stroke:none;fill-rule:evenodd;fill:rgb(100%,100%,100%);fill-opacity:1;" d="M 52.875 33.574219 C 63.628906 36.835938 74.003906 40.910156 84.113281 45.566406 C 84.308594 57.335938 83.632812 68.421875 82.359375 78.980469 C 76.972656 80.421875 71.585938 81.867188 66.199219 83.308594 C 60.816406 84.753906 55.429688 86.195312 50.042969 87.636719 C 43.660156 79.132812 38.050781 70.953125 31.820312 59.578125 C 38.128906 50.179688 45.15625 41.519531 52.875 33.574219 Z M 52.875 33.574219 "/>
<path style=" stroke:none;fill-rule:evenodd;fill:rgb(89.019608%,67.45098%,0%);fill-opacity:1;" d="M 53.382812 35.472656 L 63.816406 51.414062 L 82.234375 46.550781 L 70.300781 61.398438 L 80.617188 77.410156 L 62.808594 70.648438 L 50.765625 85.410156 L 51.695312 66.382812 L 33.9375 59.492188 L 52.320312 54.492188 Z M 53.382812 35.472656 "/>
<path style=" stroke:none;fill-rule:evenodd;fill:rgb(100%,100%,100%);fill-opacity:1;" d="M 82.234375 46.550781 L 60.097656 60.457031 L 80.617188 77.410156 L 61.503906 65.785156 L 50.78125 85.152344 L 60.097656 60.457031 L 33.9375 59.492188 C 52.535156 58.425781 65.863281 54.808594 82.234375 46.550781 Z M 82.234375 46.550781 "/>
<path style=" stroke:none;fill-rule:evenodd;fill:rgb(61.960784%,4.313725%,16.078431%);fill-opacity:1;" d="M 26.035156 29.300781 L 29.867188 25.527344 L 31.851562 27.539062 L 31.28125 28.101562 L 33.605469 30.460938 L 36.148438 27.960938 L 33.820312 25.601562 L 33.25 26.164062 L 31.265625 24.148438 L 35.085938 20.386719 L 37.070312 22.402344 L 36.496094 22.964844 L 43.191406 29.761719 L 43.761719 29.199219 L 45.746094 31.210938 L 41.925781 34.972656 L 39.941406 32.957031 L 40.515625 32.394531 L 37.96875 29.808594 L 35.425781 32.3125 L 37.972656 34.898438 L 38.542969 34.335938 L 40.527344 36.347656 L 36.695312 40.125 L 34.710938 38.109375 L 35.296875 37.53125 L 28.605469 30.738281 L 28.019531 31.316406 Z M 45.203125 15.136719 L 53.324219 12.921875 L 54.066406 15.652344 L 53.496094 15.804688 L 58.222656 24.402344 L 58.875 24.226562 L 59.617188 26.953125 L 54.367188 28.382812 L 53.621094 25.65625 L 54.5 25.417969 L 53.496094 23.503906 L 49.933594 24.476562 L 50.019531 26.636719 L 50.894531 26.398438 L 51.636719 29.128906 L 46.957031 30.402344 L 46.210938 27.675781 L 46.863281 27.496094 L 46.554688 17.695312 L 45.945312 17.863281 Z M 49.527344 16.886719 L 49.789062 21.78125 L 52.230469 21.113281 L 49.976562 16.765625 Z M 66.398438 23.898438 L 69.339844 24.574219 L 71.554688 14.953125 L 74.515625 15.636719 L 72.300781 25.257812 L 75.261719 25.9375 L 77.402344 16.644531 L 76.496094 16.4375 L 77.132812 13.683594 L 82.476562 14.914062 L 81.84375 17.667969 L 81.0625 17.488281 L 78.921875 26.78125 L 79.703125 26.960938 L 79.070312 29.71875 L 61.304688 25.628906 L 61.9375 22.871094 L 62.738281 23.054688 L 64.878906 13.761719 L 64.078125 13.578125 L 64.710938 10.824219 L 70.078125 12.058594 L 69.445312 14.8125 L 68.539062 14.605469 Z M 66.398438 23.898438 "/>
<path style="fill-rule:evenodd;fill:rgb(100%,100%,100%);fill-opacity:1;stroke-width:1.2316;stroke-linecap:butt;stroke-linejoin:miter;stroke:rgb(89.019608%,0%,19.215686%);stroke-opacity:1;stroke-miterlimit:4;" d="M 46.700521 54.651432 L 53.949447 47.505957 L 57.703223 51.318848 L 56.624382 52.38291 L 61.021029 56.846061 L 65.824089 52.109505 L 61.427441 47.646354 L 60.3486 48.710417 L 56.594824 44.904915 L 63.821582 37.788997 L 67.567969 41.601888 L 66.489128 42.665951 L 79.147038 55.515983 L 80.233268 54.451921 L 83.979655 58.264811 L 76.760286 65.37334 L 73.00651 61.567839 L 74.085352 60.503776 L 69.267513 55.612044 L 64.464453 60.341211 L 69.282292 65.232943 L 70.361133 64.16888 L 74.114909 67.981771 L 66.865983 75.119857 L 63.112207 71.314355 L 64.220605 70.220736 L 51.562695 57.363314 L 50.454297 58.456934 Z M 82.952539 27.850358 L 98.322331 23.668001 L 99.726302 28.825749 L 98.647461 29.121322 L 107.588542 45.385221 L 108.822559 45.045313 L 110.22653 50.20306 L 100.287891 52.914941 L 98.883919 47.749805 L 100.539128 47.299056 L 98.647461 43.678288 L 91.908398 45.518229 L 92.070964 49.611914 L 93.726172 49.161165 L 95.130143 54.318913 L 86.270345 56.735221 L 84.866374 51.570085 L 86.100391 51.237565 L 85.516634 32.697754 L 84.3639 33.008105 Z M 91.139909 31.168164 L 91.634993 40.419596 L 96.25332 39.163411 L 91.989681 30.931706 Z M 123.054395 44.431999 L 128.618555 45.710352 L 132.808301 27.50306 L 138.409408 28.796191 L 134.219661 46.996094 L 139.820768 48.289225 L 143.862728 30.710026 L 142.155794 30.311003 L 143.352865 25.10153 L 153.468848 27.429167 L 152.264388 32.638639 L 150.786523 32.29873 L 146.744564 49.885319 L 148.222428 50.225228 L 147.017969 55.434701 L 113.411328 47.698079 L 114.615788 42.488607 L 116.130599 42.835905 L 120.179948 25.256706 L 118.665137 24.902018 L 119.862207 19.692546 L 130.015137 22.027572 L 128.810677 27.244434 L 127.103743 26.84541 Z M 123.054395 44.431999 " transform="matrix(0.528634,0,0,0.528634,0,0)"/>
<path style=" stroke:none;fill-rule:evenodd;fill:rgb(61.960784%,4.313725%,16.078431%);fill-opacity:1;" d="M 34.039062 81.054688 L 41.675781 89.15625 L 39.875 90.851562 L 39.394531 90.34375 L 33.320312 96.066406 L 33.804688 96.578125 L 32.003906 98.273438 L 28.785156 94.859375 L 30.585938 93.164062 L 31.066406 93.675781 L 37.140625 87.949219 L 34.988281 85.667969 L 28.914062 91.390625 L 29.394531 91.902344 L 27.597656 93.597656 L 24.367188 90.171875 L 26.167969 88.476562 L 26.660156 89 L 32.734375 83.277344 L 32.238281 82.75 Z M 34.039062 81.054688 "/>
<path style=" stroke:none;fill-rule:evenodd;fill:rgb(61.960784%,4.313725%,16.078431%);fill-opacity:1;" d="M 41.886719 100.71875 L 42.671875 101.085938 L 41.625 103.328125 L 37.210938 101.257812 L 38.257812 99.019531 L 38.910156 99.324219 L 42.453125 91.765625 L 41.800781 91.460938 L 42.851562 89.222656 L 47.917969 91.597656 C 49.386719 92.285156 50.320312 93.078125 50.714844 93.976562 C 51.109375 94.875 50.976562 96.035156 50.3125 97.449219 C 49.976562 98.160156 49.617188 98.726562 49.230469 99.144531 C 48.84375 99.5625 48.410156 99.847656 47.921875 100 C 47.4375 100.152344 46.894531 100.171875 46.300781 100.066406 C 45.707031 99.957031 45.03125 99.722656 44.273438 99.371094 L 42.835938 98.695312 Z M 45.429688 93.160156 L 43.886719 96.457031 L 44.613281 96.796875 C 45.382812 97.15625 45.945312 97.289062 46.308594 97.203125 C 46.675781 97.117188 47.015625 96.738281 47.328125 96.070312 C 47.644531 95.390625 47.722656 94.882812 47.554688 94.546875 C 47.386719 94.210938 46.925781 93.863281 46.160156 93.503906 Z M 45.429688 93.160156 "/>
<path style=" stroke:none;fill-rule:evenodd;fill:rgb(61.960784%,4.313725%,16.078431%);fill-opacity:1;" d="M 56.378906 107.515625 L 56.214844 107.5 C 55.292969 107.402344 54.53125 107.226562 53.929688 106.976562 C 53.328125 106.726562 52.867188 106.390625 52.539062 105.964844 C 52.210938 105.539062 52 105.019531 51.914062 104.402344 C 51.824219 103.785156 51.824219 103.0625 51.914062 102.230469 L 52.367188 97.972656 C 52.457031 97.140625 52.609375 96.433594 52.828125 95.847656 C 53.042969 95.265625 53.359375 94.800781 53.769531 94.453125 C 54.179688 94.109375 54.703125 93.875 55.34375 93.757812 C 55.984375 93.640625 56.765625 93.632812 57.683594 93.730469 L 57.851562 93.75 C 58.773438 93.847656 59.53125 94.019531 60.125 94.269531 C 60.71875 94.519531 61.183594 94.855469 61.519531 95.28125 C 61.851562 95.707031 62.0625 96.230469 62.152344 96.84375 C 62.242188 97.460938 62.242188 98.183594 62.152344 99.015625 L 61.695312 103.277344 C 61.609375 104.109375 61.457031 104.816406 61.238281 105.398438 C 61.019531 105.984375 60.703125 106.445312 60.289062 106.792969 C 59.871094 107.136719 59.347656 107.371094 58.710938 107.488281 C 58.078125 107.605469 57.300781 107.613281 56.378906 107.515625 Z M 56.503906 104.78125 L 56.667969 104.800781 C 57.246094 104.863281 57.660156 104.785156 57.910156 104.570312 C 58.164062 104.355469 58.328125 103.855469 58.414062 103.074219 L 58.898438 98.519531 C 58.984375 97.738281 58.925781 97.214844 58.722656 96.953125 C 58.523438 96.6875 58.136719 96.527344 57.558594 96.464844 L 57.394531 96.449219 C 56.820312 96.386719 56.40625 96.464844 56.15625 96.675781 C 55.902344 96.890625 55.734375 97.390625 55.652344 98.175781 L 55.164062 102.726562 C 55.082031 103.511719 55.140625 104.03125 55.339844 104.296875 C 55.542969 104.558594 55.929688 104.722656 56.503906 104.78125 Z M 56.503906 104.78125 "/>
<path style=" stroke:none;fill-rule:evenodd;fill:rgb(61.960784%,4.313725%,16.078431%);fill-opacity:1;" d="M 73.789062 92.136719 L 74.316406 94.515625 L 73.613281 94.671875 L 75.421875 102.855469 L 76.613281 102.59375 L 77.621094 107.152344 L 75.1875 107.691406 L 74.886719 106.339844 C 74.828125 106.0625 74.714844 105.878906 74.546875 105.78125 C 74.382812 105.6875 74.117188 105.679688 73.757812 105.757812 L 68.421875 106.9375 C 68.097656 107.007812 67.886719 107.121094 67.796875 107.273438 C 67.703125 107.425781 67.6875 107.640625 67.75 107.917969 L 68.046875 109.269531 L 65.613281 109.808594 L 64.605469 105.246094 L 65.292969 105.097656 C 65.675781 105.011719 65.921875 104.800781 66.03125 104.460938 C 66.136719 104.121094 66.136719 103.699219 66.023438 103.195312 L 64.582031 96.667969 L 63.769531 96.847656 L 63.242188 94.46875 Z M 70.402344 95.382812 L 67.339844 96.058594 L 68.816406 102.746094 C 68.867188 102.976562 68.886719 103.238281 68.871094 103.539062 C 68.855469 103.839844 68.820312 104.101562 68.769531 104.328125 L 72.214844 103.566406 Z M 70.402344 95.382812 "/>
<path style=" stroke:none;fill-rule:evenodd;fill:rgb(61.960784%,4.313725%,16.078431%);fill-opacity:1;" d="M 74.742188 91.425781 L 78.921875 88.851562 L 80.21875 90.960938 L 79.621094 91.328125 L 83.164062 93.808594 L 82.421875 89.605469 L 81.792969 89.992188 L 80.496094 87.886719 L 84.269531 85.566406 L 85.566406 87.671875 L 84.90625 88.078125 L 86.253906 97.070312 C 86.414062 98.152344 86.351562 99.023438 86.058594 99.679688 C 85.769531 100.335938 85.289062 100.871094 84.617188 101.28125 C 84.386719 101.425781 84.164062 101.535156 83.953125 101.613281 C 83.742188 101.695312 83.515625 101.75 83.277344 101.78125 L 81.855469 99.46875 C 82 99.46875 82.195312 99.421875 82.4375 99.328125 C 82.683594 99.234375 82.859375 99.15625 82.964844 99.089844 C 83.195312 98.949219 83.339844 98.761719 83.394531 98.535156 C 83.449219 98.304688 83.433594 97.925781 83.355469 97.398438 L 76.679688 93.136719 L 76.035156 93.53125 Z M 74.742188 91.425781 "/>
<path style=" stroke:none;fill-rule:evenodd;fill:rgb(61.960784%,4.313725%,16.078431%);fill-opacity:1;" d="M 97.707031 89.589844 L 94.773438 93.269531 L 92.839844 91.726562 L 93.289062 91.164062 L 86.765625 85.957031 L 86.316406 86.519531 L 84.382812 84.976562 L 87.316406 81.296875 L 89.25 82.839844 L 88.8125 83.390625 L 91.222656 85.3125 L 90.460938 81.324219 L 90.171875 81.6875 L 88.238281 80.144531 L 91.210938 76.421875 L 93.144531 77.964844 L 92.707031 78.511719 L 93.398438 83.269531 L 99.460938 83.429688 L 99.875 82.910156 L 101.808594 84.453125 L 98.628906 88.433594 L 96.695312 86.890625 L 97.019531 86.488281 L 92.421875 86.269531 L 95.335938 88.59375 L 95.773438 88.046875 Z M 97.707031 89.589844 "/>
<path style=" stroke:none;fill-rule:evenodd;fill:rgb(61.960784%,4.313725%,16.078431%);fill-opacity:1;" d="M 105.390625 76.417969 L 103.023438 75.699219 L 103.324219 74.710938 L 95.335938 72.289062 L 95.140625 72.941406 C 95.027344 73.308594 95.007812 73.570312 95.082031 73.734375 C 95.15625 73.898438 95.339844 74.023438 95.632812 74.113281 L 96.957031 74.515625 L 96.230469 76.917969 L 91.757812 75.5625 L 95.113281 64.503906 L 99.582031 65.859375 L 98.855469 68.261719 L 97.53125 67.859375 C 97.234375 67.769531 97.011719 67.773438 96.859375 67.871094 C 96.710938 67.964844 96.578125 68.195312 96.46875 68.5625 L 96.269531 69.214844 L 104.253906 71.636719 L 104.554688 70.648438 L 106.921875 71.363281 Z M 105.390625 76.417969 "/>
<path style="fill-rule:evenodd;fill:rgb(100%,100%,100%);fill-opacity:1;stroke-width:1.2316;stroke-linecap:butt;stroke-linejoin:miter;stroke:rgb(89.019608%,0%,19.215686%);stroke-opacity:1;stroke-miterlimit:4;" d="M 61.870801 152.4639 L 76.309538 167.789355 L 72.910449 170.996322 L 71.994173 170.02832 L 60.511165 180.861068 L 61.420052 181.82168 L 58.013574 185.036035 L 51.932161 178.577767 L 55.338639 175.370801 L 56.247526 176.338802 L 67.730534 165.506055 L 63.659017 161.19069 L 52.176009 172.016048 L 53.084896 172.984049 L 49.678418 176.191016 L 43.567448 169.710579 L 46.973926 166.503613 L 47.91237 167.493783 L 59.395378 156.661035 L 58.464323 155.670866 Z M 61.870801 152.4639 " transform="matrix(0.528634,0,0,0.528634,0,0)"/>
<path style="fill-rule:evenodd;fill:rgb(100%,100%,100%);fill-opacity:1;stroke-width:1.2316;stroke-linecap:butt;stroke-linejoin:miter;stroke:rgb(89.019608%,0%,19.215686%);stroke-opacity:1;stroke-miterlimit:4;" d="M 76.686393 189.750423 L 78.171647 190.44502 L 76.183919 194.686491 L 67.833984 190.77015 L 69.821712 186.536068 L 71.055729 187.112435 L 77.750456 172.821484 L 76.516439 172.245117 L 78.504167 168.003646 L 88.088118 172.496354 C 90.873893 173.796875 92.632552 175.304297 93.378874 177.003841 C 94.125195 178.703385 93.873958 180.890625 92.617773 183.56556 C 91.982292 184.917806 91.302474 185.989258 90.57832 186.772526 C 89.846777 187.563184 89.019173 188.102604 88.102897 188.390788 C 87.179232 188.678971 86.159505 188.723307 85.036328 188.516406 C 83.905762 188.309505 82.627409 187.873535 81.19388 187.201107 L 78.474609 185.922754 Z M 83.38112 175.459473 L 80.462337 181.688672 L 81.844141 182.338932 C 83.292448 183.011361 84.35651 183.269987 85.051107 183.107422 C 85.738314 182.937467 86.381185 182.228092 86.972331 180.957129 C 87.578255 179.671387 87.718652 178.710775 87.408301 178.075293 C 87.09056 177.439811 86.21123 176.782161 84.762923 176.102344 Z M 83.38112 175.459473 " transform="matrix(0.528634,0,0,0.528634,0,0)"/>
<path style="fill-rule:evenodd;fill:rgb(100%,100%,100%);fill-opacity:1;stroke-width:1.2316;stroke-linecap:butt;stroke-linejoin:miter;stroke:rgb(89.019608%,0%,19.215686%);stroke-opacity:1;stroke-miterlimit:4;" d="M 104.078613 202.681738 L 103.768262 202.644792 C 102.024382 202.460059 100.583464 202.127539 99.445508 201.654622 C 98.307552 201.181706 97.435612 200.546224 96.814909 199.740788 C 96.194206 198.935352 95.795182 197.952572 95.625228 196.785059 C 95.462663 195.624935 95.462663 194.250521 95.625228 192.676595 L 96.489779 184.622233 C 96.659733 183.048307 96.947917 181.71084 97.354329 180.602441 C 97.768132 179.501432 98.366667 178.622103 99.135156 177.971842 C 99.918424 177.314193 100.908594 176.878223 102.120443 176.656543 C 103.332292 176.434863 104.810156 176.412695 106.546647 176.597428 L 106.864388 176.634375 C 108.600879 176.819108 110.034408 177.151628 111.164974 177.617155 C 112.288151 178.090072 113.16748 178.732943 113.795573 179.538379 C 114.423665 180.343815 114.830078 181.326595 115.000033 182.494108 C 115.169987 183.654232 115.169987 185.028646 115.000033 186.602572 L 114.135482 194.656934 C 113.972917 196.230859 113.677344 197.568327 113.270931 198.676725 C 112.857129 199.777734 112.258594 200.657064 111.467936 201.307324 C 110.684668 201.964974 109.694499 202.400944 108.490039 202.622624 C 107.292969 202.844303 105.822493 202.866471 104.078613 202.681738 Z M 104.315072 197.509212 L 104.625423 197.53877 C 105.719043 197.656999 106.494922 197.509212 106.975228 197.102799 C 107.448145 196.696387 107.765885 195.757943 107.928451 194.272689 L 108.844727 185.664128 C 109.007292 184.178874 108.896452 183.188704 108.512207 182.69362 C 108.135352 182.198535 107.403809 181.888184 106.310189 181.769954 L 105.999837 181.740397 C 104.913607 181.622168 104.130339 181.769954 103.650033 182.176367 C 103.177116 182.58278 102.859375 183.521224 102.69681 185.006478 L 101.780534 193.615039 C 101.625358 195.100293 101.728809 196.090462 102.113053 196.585547 C 102.489909 197.080632 103.228841 197.390983 104.315072 197.509212 Z M 104.315072 197.509212 " transform="matrix(0.528634,0,0,0.528634,0,0)"/>
<path style="fill-rule:evenodd;fill:rgb(100%,100%,100%);fill-opacity:1;stroke-width:1.2341;stroke-linecap:butt;stroke-linejoin:miter;stroke:rgb(89.019608%,0%,19.215686%);stroke-opacity:1;stroke-miterlimit:4;" d="M 136.998047 173.641699 L 137.995605 178.141797 L 136.665527 178.42998 L 140.086784 193.918001 L 142.340527 193.415527 L 144.246973 202.046257 L 139.643424 203.065983 L 139.074447 200.501888 C 138.963607 199.984635 138.741927 199.629948 138.431576 199.452604 C 138.113835 199.267871 137.61875 199.253092 136.938932 199.400879 L 126.845117 201.639844 C 126.231803 201.772852 125.83278 201.987142 125.662826 202.275326 C 125.485482 202.563509 125.455924 202.969922 125.574154 203.494564 L 126.135742 206.05127 L 121.532194 207.063607 L 119.625749 198.440267 L 120.91888 198.152083 C 121.650423 197.989518 122.115951 197.590495 122.322852 196.947624 C 122.522363 196.312142 122.522363 195.514095 122.308073 194.553483 L 119.581413 182.213314 L 118.044434 182.553223 L 117.046875 178.053125 Z M 130.591504 179.774837 L 124.798275 181.060579 L 127.591439 193.7111 C 127.6875 194.139681 127.724447 194.642155 127.694889 195.203743 C 127.665332 195.772721 127.598828 196.267806 127.502767 196.696387 L 134.02015 195.255469 Z M 130.591504 179.774837 " transform="matrix(0.528634,0,0,0.528634,0,0)"/>
<path style="fill-rule:evenodd;fill:rgb(100%,100%,100%);fill-opacity:1;stroke-width:1.2316;stroke-linecap:butt;stroke-linejoin:miter;stroke:rgb(89.019608%,0%,19.215686%);stroke-opacity:1;stroke-miterlimit:4;" d="M 138.771484 172.407682 L 146.685449 167.545508 L 149.138704 171.528353 L 148.008138 172.222949 L 154.702865 176.915169 L 153.298893 168.964258 L 152.109212 169.695801 L 149.655957 165.712956 L 156.801432 161.323698 L 159.247298 165.306543 L 157.998503 166.075033 L 160.547819 183.085254 C 160.850781 185.139486 160.732552 186.779915 160.185742 188.021322 C 159.631543 189.262728 158.722656 190.275065 157.451693 191.050944 C 157.015723 191.324349 156.601921 191.53125 156.202897 191.679036 C 155.796484 191.834212 155.375293 191.937663 154.917155 191.996777 L 152.227441 187.622298 C 152.500846 187.622298 152.870312 187.533626 153.33584 187.356283 C 153.801367 187.178939 154.133887 187.031152 154.333398 186.905534 C 154.769368 186.639518 155.035384 186.284831 155.138835 185.85625 C 155.242285 185.42028 155.220117 184.703516 155.064941 183.705957 L 142.443978 175.644206 L 141.22474 176.397917 Z M 138.771484 172.407682 " transform="matrix(0.528634,0,0,0.528634,0,0)"/>
<path style="fill-rule:evenodd;fill:rgb(100%,100%,100%);fill-opacity:1;stroke-width:1.2316;stroke-linecap:butt;stroke-linejoin:miter;stroke:rgb(89.019608%,0%,19.215686%);stroke-opacity:1;stroke-miterlimit:4;" d="M 182.220703 168.934701 L 176.663932 175.895443 L 173.006217 172.97666 L 173.85599 171.912598 L 161.51582 162.06263 L 160.666048 163.134082 L 157.008333 160.20791 L 162.565104 153.247168 L 166.222819 156.165951 L 165.395215 157.207845 L 169.954427 160.843392 L 168.50612 153.306283 L 167.966699 153.9861 L 164.308984 151.067318 L 169.92487 144.025293 L 173.582585 146.944076 L 172.75498 147.978581 L 174.062891 156.978776 L 185.53112 157.281738 L 186.314388 156.298958 L 189.972103 159.217741 L 183.957194 166.747461 L 180.299479 163.828678 L 180.912793 163.067578 L 172.21556 162.653776 L 177.735384 167.050423 L 178.562988 166.015918 Z M 182.220703 168.934701 " transform="matrix(0.528634,0,0,0.528634,0,0)"/>
<path style="fill-rule:evenodd;fill:rgb(100%,100%,100%);fill-opacity:1;stroke-width:1.2316;stroke-linecap:butt;stroke-linejoin:miter;stroke:rgb(89.019608%,0%,19.215686%);stroke-opacity:1;stroke-miterlimit:4;" d="M 196.725944 144.143522 L 192.248014 142.783887 L 192.816992 140.914388 L 177.713216 136.333008 L 177.336361 137.567025 C 177.12946 138.261621 177.092513 138.756706 177.225521 139.067057 C 177.365918 139.377409 177.713216 139.613867 178.267415 139.783822 L 180.772396 140.544922 L 179.397982 145.089355 L 170.944596 142.52526 L 177.284635 121.606087 L 185.74541 124.170182 L 184.363607 128.714616 L 181.858626 127.953516 C 181.297038 127.783561 180.875846 127.790951 180.595052 127.975684 C 180.306868 128.153027 180.055632 128.588997 179.84873 129.276204 L 179.471875 130.517611 L 194.58304 135.098991 L 195.152018 133.229492 L 199.629948 134.581738 Z M 196.725944 144.143522 " transform="matrix(0.528634,0,0,0.528634,0,0)"/>
</g>
</svg>
