<?xml version="1.0" encoding="UTF-8"?>
<!DOCTYPE svg PUBLIC "-//W3C//DTD SVG 1.1//EN" "http://www.w3.org/Graphics/SVG/1.1/DTD/svg11.dtd">
<svg xmlns="http://www.w3.org/2000/svg" xml:space="preserve" width="719px" height="719px" version="1.1" style="shape-rendering:geometricPrecision; text-rendering:geometricPrecision; image-rendering:optimizeQuality; fill-rule:evenodd; clip-rule:evenodd"
viewBox="0 0 265.28 265.28">
 <defs>
  <style type="text/css">
   <![CDATA[
    .fil0 {fill:#00ABC9}
    .fil1 {fill:#FEFEFE;fill-rule:nonzero}
   ]]>
  </style>
 </defs>
 <g id="Layer_x0020_1">
  <rect class="fil0" width="265.28" height="265.28"/>
  <path class="fil1" d="M59.82 66.64c0.16,-0.22 13.65,-22.23 34.41,-25.22 5.6,-0.63 18.81,-2.64 31.2,8.56 0.06,0.06 7.2,6.79 14.5,17.67 0.37,0.6 8.05,11.55 15.13,15.26 0.03,0 3.65,2.17 8.86,2.39 6.42,0.28 10.93,-1.01 15.48,-4.54 1.07,-0.78 6.67,-5.15 14.31,-15.34 0.1,-0.16 2.64,-3.39 6.01,-3.39 2.07,0.02 4.37,0.9 5.73,2.19 0.5,0.47 4.99,4.75 0,12.08 -0.14,0.18 -13.69,21.64 -34.38,25.2 -3.21,0.75 -19.69,1.91 -31.14,-8.5 -2.92,-2.21 -7.27,-7.55 -13.37,-15.88 -0.41,-0.56 -9.97,-13.65 -15.06,-16.36 -0.07,-0.03 -4.03,-3.21 -10.13,-3.21 -6.45,0 -10.57,1.2 -15.51,4.63 -2.66,1.86 -6.63,5.12 -14.27,15.32 -0.1,0.16 -2.64,3.39 -6.01,3.39 -2.08,-0.03 -4.37,-0.91 -5.72,-2.2 -0.54,-0.47 -5.01,-4.74 -0.04,-12.05zm0 61.21l0 0c0.16,-0.19 13.65,-22.21 34.41,-25.22 5.6,-0.6 18.81,-2.61 31.2,8.58 0.06,0.06 7.2,6.8 14.5,17.67 0.37,0.61 8.05,11.55 15.13,15.23 0.03,0.04 3.65,2.2 8.86,2.42 6.42,0.28 10.93,-1.01 15.48,-4.53 1.07,-0.79 6.67,-5.16 14.31,-15.35 0.1,-0.15 2.64,-3.39 6.01,-3.39 2.07,0.02 4.37,0.88 5.73,2.2 0.5,0.47 4.99,4.75 0,12.03 -0.14,0.23 -13.69,21.68 -34.38,25.24 -3.21,0.72 -19.69,1.91 -31.14,-8.52 -2.92,-2.18 -7.27,-7.53 -13.37,-15.86 -0.41,-0.56 -9.97,-13.65 -15.06,-16.35 -0.07,-0.04 -4.03,-3.21 -10.13,-3.21 -6.45,0 -10.57,1.19 -15.51,4.62 -2.66,1.86 -6.63,5.13 -14.27,15.32 -0.1,0.13 -2.64,3.39 -6.01,3.39 -2.08,-0.03 -4.37,-0.91 -5.72,-2.2 -0.54,-0.47 -5.01,-4.74 -0.04,-12.07zm0 61.24l0 0c0.16,-0.2 13.65,-22.24 34.41,-25.23 5.6,-0.59 18.81,-2.61 31.2,8.59 0.06,0.06 7.2,6.79 14.5,17.67 0.37,0.6 8.05,11.54 15.13,15.22 0.03,0.04 3.65,2.2 8.86,2.43 6.42,0.24 10.93,-1.01 15.48,-4.54 1.07,-0.78 6.67,-5.16 14.31,-15.37 0.1,-0.13 2.64,-3.4 6.01,-3.4 2.07,0.06 4.37,0.91 5.73,2.23 0.5,0.47 4.99,4.75 0,12.04 -0.14,0.22 -13.69,21.68 -34.38,25.24 -3.21,0.71 -19.69,1.91 -31.14,-8.53 -2.92,-2.2 -7.27,-7.52 -13.37,-15.88 -0.41,-0.53 -9.97,-13.63 -15.06,-16.33 -0.07,-0.03 -4.03,-3.21 -10.13,-3.21 -6.45,0 -10.57,1.2 -15.51,4.59 -2.66,1.89 -6.63,5.14 -14.27,15.36 -0.1,0.12 -2.64,3.39 -6.01,3.39 -2.08,-0.03 -4.37,-0.91 -5.72,-2.2 -0.54,-0.48 -5.01,-4.74 -0.04,-12.07z"/>
 </g>
</svg>
