<?xml version="1.0" encoding="UTF-8"?> <svg xmlns="http://www.w3.org/2000/svg" width="180" height="181" viewBox="0 0 180 181" fill="none"><path d="M149.702 19.5324C157.105 19.5324 163.116 25.5849 163.116 33.0388C163.116 40.4926 157.105 46.5451 149.702 46.5451C142.298 46.5451 136.287 40.4926 136.287 33.0388C136.287 25.5849 142.298 19.5324 149.702 19.5324Z" fill="#E6A500"></path><path d="M151.839 97.7673C151.661 60.6472 121.931 30.7125 85.4187 30.8914C78.5487 30.8914 71.9452 31.935 65.7266 33.873L55.2734 72.0664C62.5284 63.4498 73.3369 57.9936 85.4187 57.9936C107.243 57.9936 124.922 75.7934 124.922 97.7673C124.922 106.384 122.197 114.374 117.548 120.874L151.78 99.586C151.81 98.9599 151.839 98.3636 151.839 97.7673Z" fill="#E6A500"></path><path d="M117.534 120.875C110.368 130.982 98.6414 137.541 85.3751 137.541C63.5509 137.541 45.8723 119.742 45.8723 97.7677C45.8723 87.9584 49.3962 78.984 55.2594 72.037L65.683 33.8734C38.6469 42.3409 18.9844 67.7436 18.9844 97.7677C18.9844 134.709 48.7151 164.644 85.4047 164.644C121.473 164.644 150.848 135.663 151.796 99.5864L117.534 120.875Z" fill="#FFD20A"></path></svg> 