<?xml version="1.0" encoding="UTF-8"?><svg id="_Слой_1" xmlns="http://www.w3.org/2000/svg" viewBox="0 0 31.08 31.08"><defs><style>.cls-1{fill:#beb1d7;}.cls-2{fill:#0ea23a;}.cls-3{fill:#f6e9ba;}.cls-4{fill:#e3013c;}.cls-5{fill:#e84a19;}.cls-6{opacity:.58;}.cls-6,.cls-7,.cls-8{fill:#f08d23;}.cls-9{fill:#088eb7;}.cls-10{fill:#e9610b;}.cls-11{fill:#ffd004;}.cls-12{fill:#f4b84a;}.cls-13{fill:#e43845;}.cls-14{fill:#e84b15;}.cls-7{opacity:.28;}.cls-15{fill:#933081;}.cls-16{fill:#d75077;}.cls-17{fill:#fad740;}.cls-18{fill:#fbbc09;}.cls-19{fill:#078e38;}.cls-20{fill:#82afde;}.cls-21{fill:#fbc205;}.cls-22{fill:#fcd8a0;}.cls-23{fill:#ecacad;}.cls-24{opacity:.3;}.cls-24,.cls-25,.cls-26{fill:#f5a422;}.cls-27{fill:#edb308;}.cls-28{fill:#d29fc8;}.cls-29{fill:#f4970b;}.cls-30{fill:#861f70;}.cls-31{fill:#fce7ed;}.cls-32{fill:#f7c2d1;}.cls-33{fill:#f2ebd2;}.cls-34{fill:#cd151a;}.cls-35{fill:#f9be59;}.cls-36{fill:#a25a9f;}.cls-37{fill:#a390c3;}.cls-38{fill:#fae5c5;}.cls-39{fill:#bb8dbe;}.cls-40{fill:#f2dd87;}.cls-41{fill:#fab60d;}.cls-42{fill:#6d9fbe;}.cls-43{fill:#f29206;}.cls-44{fill:#f1e8c0;}.cls-45{fill:#66529c;}.cls-46{fill:#e7e1c5;}.cls-26{opacity:.29;}.cls-47{fill:#f8d2be;}.cls-48{fill:#a3d6ec;}.cls-49{fill:#cce2b8;}.cls-50{fill:#de0a25;}.cls-51{fill:#59277a;}.cls-52{fill:#f9cacb;}.cls-53{fill:#1d3d77;}.cls-54{fill:#f08246;}.cls-55{fill:#f6a308;}.cls-56{fill:#80b860;}.cls-8{opacity:.34;}.cls-57{fill:#087ca9;}.cls-58{fill:#6d388d;}.cls-59{fill:#e10e1b;}.cls-60{fill:#064794;}.cls-61{fill:#3670aa;}</style></defs><path class="cls-27" d="m25.15,14.4c.06-.06.29.17.72.24.25.04.39,0,.4.03.01.06-.3.26-.63.2-.05,0-.24-.05-.38-.21-.05-.07-.15-.21-.11-.25Z"/><path class="cls-27" d="m25.06,16.3c0,.06.32.2.6.1.09-.03.19-.09.18-.13,0-.02-.06-.03-.25-.03-.34,0-.54.01-.54.05Z"/><path class="cls-40" d="m25.25,14.27c0,.1.72.25.77.14.02-.05-.12-.16-.23-.21-.25-.11-.53,0-.53.06Z"/><path class="cls-25" d="m11.47,2.87c.97-.34,4.13-1.35,7.54-.43,1.91.52,3.42,1.51,3.63,1.65.76.51,1.34,1.02,1.75,1.42"/><circle class="cls-43" cx="15.54" cy="15.54" r="15.54"/><path class="cls-21" d="m30.96,17.41c-.26.8-.41.95-.49.93-.36-.05.22-2.84-.54-6.11-.58-2.48-1.72-4.3-2.47-5.31-.28-.38-1.38-1.83-3.3-3.22-2.63-1.91-5.14-2.49-5.69-2.61-.92-.2-3.54-.68-6.68.09-3.3.81-5.6,2.61-5.75,2.38-.04-.07.1-.3,1.08-1.1.94-.6,2.5-1.49,4.33-1.99.65-.18,1.26-.28,1.35-.29C13.99,0,14.95,0,15.54,0c2.47.02,4.32.6,4.92.79,1.05.35,2.78,1.05,4.56,2.43,4.13,3.19,5.34,7.52,5.57,8.42.31,1.2.68,3.23.38,5.77Z"/><path class="cls-41" d="m29.61,17.61c-.04,1.38-.3,3.94-1.87,6.53-3.87,6.39-11.83,6.5-12.21,6.5-5.51-.01-9.14-3.21-9.87-3.89-1.03-.95-3.93-3.89-4.58-8.65-.41-2.99.25-5.41.69-6.67-1.38,7.78,3.81,15.25,11.35,16.69,7.23,1.38,14.55-3.19,16.5-10.52Z"/><ellipse class="cls-31" cx="15.54" cy="15.58" rx="14.22" ry="14.44"/><path class="cls-35" d="m15.54,1.14C7.69,1.14,1.32,7.6,1.32,15.58s6.37,14.44,14.22,14.44,14.22-6.46,14.22-14.44S23.39,1.14,15.54,1.14Zm-4.05,27.36c-2.59-.81-4.25-2.19-4.62-2.51-3.93-3.36-6.1-9.67-4.08-15.43.33-.95,2.24-6.04,7.78-8.24,5.87-2.33,11.02.5,11.75.91,4.46,2.55,7.35,7.57,7.01,12.97-.31,5.08-3.41,9.58-7.79,11.66-4.66,2.21-9.11.93-10.04.64Z"/><ellipse class="cls-26" cx="23.64" cy="27.11" rx=".14" ry=".13" transform="translate(-6.26 7.12) rotate(-15.15)"/><ellipse class="cls-24" cx="14.79" cy="12.4" rx=".03" ry=".02" transform="translate(-.57 .71) rotate(-2.72)"/><ellipse class="cls-26" cx="14.87" cy="12.33" rx=".03" ry=".02" transform="translate(-.57 .72) rotate(-2.72)"/><ellipse class="cls-26" cx="14.96" cy="12.38" rx=".03" ry=".03" transform="translate(-.57 .72) rotate(-2.72)"/><circle class="cls-7" cx="14.71" cy="12.29" r=".04"/><circle class="cls-24" cx="14.63" cy="12.35" r=".03" transform="translate(-.57 .71) rotate(-2.72)"/><ellipse class="cls-24" cx="15.29" cy="12.37" rx=".03" ry=".02" transform="translate(-2.7 4.42) rotate(-15.15)"/><ellipse class="cls-26" cx="15.35" cy="12.28" rx=".03" ry=".02" transform="translate(-2.68 4.44) rotate(-15.15)"/><ellipse class="cls-26" cx="15.45" cy="12.3" rx=".03" ry=".03" transform="translate(-2.68 4.46) rotate(-15.15)"/><circle class="cls-7" cx="15.19" cy="12.27" r=".04"/><circle class="cls-24" cx="15.12" cy="12.35" r=".03" transform="translate(-2.7 4.38) rotate(-15.15)"/><circle class="cls-26" cx="15.76" cy="12.39" r=".02" transform="translate(.53 25.43) rotate(-78.72)"/><circle class="cls-7" cx="15.66" cy="12.33" r=".03" transform="translate(.51 25.28) rotate(-78.72)"/><circle class="cls-24" cx="15.59" cy="12.36" r=".02" transform="translate(.42 25.24) rotate(-78.72)"/><path class="cls-6" d="m29.95,16.88c-.24-.01-.25.37-.01.37.24.01.25-.37.01-.37Z"/><path class="cls-8" d="m29.93,15.13c-.23-.01-.24.4-.01.4.23.01.24-.4.01-.4Z"/><path class="cls-24" d="m18.65,28.92c.03.12.29.05.25-.07-.03-.12-.29-.05-.25.07Z"/><path class="cls-59" d="m13.73,14.74c.05,0,.16.03.3-.01,0,0,.19-.06.32-.22.15-.19.08-.43-.08-1.21-.14-.69-.19-.99-.22-1.2-.02-.17-.04-.31-.06-.53-.09-.91-.11-1.41-.16-1.95-.03-.41-.08-.79-.17-1.55-.08-.65-.16-1.26-.25-1.9-.3-2.14-.21-2.53-.56-2.79-.34-.25-.77-.16-1.62.04,0,0-2.57.61-4.24,2.55-.26.3-.56.71-.45,1.06.07.22.3.47.47.65.11.11.13.12.26.26.28.28.31.36.64.73.23.26.24.24.62.66.16.18.25.28.36.4.35.39.56.6.95,1.02.53.56.8.85,1.06,1.14.26.29.83.96,1.16,1.37.03.04.13.16.26.32.12.13.2.23.35.39.24.25.34.34.38.38.1.1.16.15.23.2.14.1.26.19.43.22Z"/><path class="cls-10" d="m14.28,13.16c.17.79.32,1.15.64,1.3.23.11.54.11.76-.02.25-.14.35-.4.54-.91.09-.24.11-.35.2-.67,0,0,.12-.4.35-1.07.3-.84.64-1.57.77-1.84.15-.31.56-1.23,1.78-3.07.93-1.4,1.35-1.77,1.39-2.16,0-.07,0-.13-.01-.2-.01-.06-.91-1.45-3.66-1.8-.72-.09-3.31-.43-3.84.65-.09.18-.01.75.14,1.91.08.63.12.81.25,1.72.11.8.17,1.2.23,1.69.06.6.05.66.15,2.01.06.81.12,1.54.31,2.45Z"/><path class="cls-55" d="m16.21,13.83c-.05.21-.15.62.07.92.2.27.54.32.6.33.32.04.57-.1.88-.29.42-.25.59-.37,1.23-.77.23-.15.24-.14.49-.3.68-.42,1.16-.75,1.39-.91,0,0,1.79-1.21,4.31-2.21h0c.1-.04.24-.1.41-.19.31-.16.46-.24.58-.38,0,0,.16-.18.21-.5.09-.47-.31-1.66-1.69-2.94-.73-.68-2.13-1.98-3.56-1.61-.07.02-.12.03-.16.05-.35.15-.84.68-2.61,3.52,0,0-1.51,2.42-2.17,5.27Z"/><path class="cls-11" d="m17.39,15.35c-.02.06-.09.23-.06.46,0,.06.03.2.12.32.16.2.43.24.56.25,1.1.11,1.65.16,1.66.16.1,0,.74.05,2.01.16,1.62.14,2.44.21,3.17.39.5.12,1.02.19,1.52.31.7.16,1.01.23,1.29.05.24-.15.31-.4.46-.9.27-.94.23-1.74.2-2.19-.02-.38-.08-.77-.08-.77-.02-.12-.04-.25-.07-.39-.04-.18-.08-.37-.14-.57-.26-.93-.49-1.75-1.15-2.07-.3-.14-.63-.16-.67-.16-.08,0-.31,0-.93.23-.2.07-.37.15-.94.41-.38.17-.57.26-.84.39-.72.34-1.08.51-1.34.67-.09.05-.05.03-1.03.66-.51.33-.44.28-.54.34-.47.3-1.08.71-1.24.81-.01,0-.05.03-.09.06-.08.05-.11.07-.22.14-.23.15-.58.35-1.03.65-.33.22-.51.35-.61.59Z"/><path class="cls-2" d="m17.1,17.42c-.03-.09-.13-.42.04-.64.14-.18.4-.21.83-.24.18-.02.31-.01.47,0,.6.02,1.06.06,1.12.07.52.05.78.07,1.21.12,1.11.11,1.11.07,1.92.16.29.03.84.09,1.53.21.5.08.64.12,1.06.21.12.03.26.05.52.1.92.18,1.1.2,1.37.33.2.1.31.14.38.22.81.81-.52,3.3-.59,3.43-.03.05-.05.09-.08.14-.35.62-1.58,2.78-2.69,2.7-.06,0-.13-.02-.15-.02-.48-.1-.79-.41-1.03-.66-.51-.53-.77-.8-.89-.93-.6-.65-1.11-1.13-1.45-1.45-.28-.27-.23-.21-.67-.62-1.55-1.45-1.33-1.37-2.01-1.98,0,0-.2-.18-.62-.68-.14-.17-.23-.28-.28-.45Z"/><path class="cls-9" d="m16.14,19.43c-.22-1.26-.34-1.56-.14-1.79.18-.2.47-.21.51-.21.24,0,.42.12.9.59.38.37.64.65.89.92.28.3.49.51.79.8.35.35.63.61,1.17,1.13.75.71.77.72,1.1,1.05.34.33.74.76.99,1.02.71.75.84.88,1.04,1.18.14.21.22.31.26.43,0,0,.06.17.04.4-.05.61-1.2,1.54-2.85,2.34-.01,0-.02.01-.04.02-.47.23-1.92.91-2.73.35-.29-.21-.39-.48-.72-2.02-.02-.1-.08-.41-.18-.95,0,0-.13-.67-.26-1.32-.04-.21-.08-.38-.11-.53-.02-.1-.05-.25-.14-.64-.1-.45-.11-.51-.15-.71-.07-.32-.13-.6-.18-.84-.1-.51-.11-.63-.21-1.21Z"/><path class="cls-60" d="m15.79,18.3c.08.22.12.4.17.62.04.19.07.34.1.5.06.35.05.37.1.64.02.08.02.11.08.41.03.16.04.22.05.24.04.2.07.35.07.4.06.35.14.74.19.98.1.46.1.44.17.78.07.34.1.54.15.84.15.84.27,1.55.43,2.18.02.07.07.28.17.7.07.28.08.36.1.47.06.36.09.54.03.69-.08.2-.27.3-.37.35-1.22.64-3.62.21-3.62.21-.38-.07-1.21-.23-2.12-.73-.47-.26-.63-.42-.73-.6-.11-.19-.22-.56.14-1.76.24-.79.55-1.37,1.18-2.54.22-.41.38-.68.65-1.23.27-.53.46-.97.54-1.12.2-.44.46-1.04.83-1.81.24-.49.37-.71.63-.81.24-.09.58-.08.79.11.1.08.14.21.24.47Z"/><path class="cls-58" d="m14.22,17.54c.13.19.06.52-.22,1.13-.36.78-.5,1.02-.76,1.61-.17.36-.22.49-.4.87-.19.4-.35.68-.43.84-.85,1.58-1.3,2.42-1.52,3.21-.05.19-.12.37-.18.56-.17.55-.22.78-.43.95,0,0-.12.09-.29.13-.5.12-1.67-.23-2.9-1.32-.55-.48-1.45-1.29-1.87-2.64-.16-.51-.23-.76-.19-1.03.17-.99,1.31-1.16,3.92-2.64.56-.32,1-.55,1.41-.76,1.31-.66,1.59-.79,1.79-.85.28-.09,1.75-.54,2.08-.04Z"/><path class="cls-15" d="m9.91,15.24c-.99-.28-1.77-.54-2.11-.65-2.53-.82-3.38-1.16-4.28-.8-.08.03-.15.08-.22.14-.7.58-.59,1.76-.49,2.93.04.41.31,3.63,1.87,4.03.38.1.92-.13,1.99-.6.57-.25.84-.42,2.77-1.48.56-.3.83-.46.97-.53,1.73-.81,2.38-1.02,2.38-1.02.13-.04.46-.15.58-.42.02-.05.09-.22.02-.4-.03-.09-.09-.17-.2-.26-.28-.22-.59-.27-.64-.28-.53-.09-1.05-.25-1.57-.37-.22-.05-.49-.13-1.05-.29Z"/><path class="cls-4" d="m3.48,12.77c.21.28.5.47.5.47.19.12.36.19.87.33.34.1.52.15.82.23.42.11.5.17,1.5.48,1.16.37,1.1.37,1.84.59.35.11.4.12.67.19.25.07.45.13.77.22.89.26,1.34.39,1.68.46.91.18,1.1.07,1.2-.02.16-.15.22-.41.2-.6-.03-.32-.27-.53-.35-.61-1.16-1.06-2.05-2.38-3.14-3.51-.6-.62-.89-.93-1.1-1.16-.54-.61-1.12-1.19-1.65-1.81-.1-.11-.31-.36-.67-.54-.26-.13-.51-.17-.63-.18-.88-.05-1.69,1.68-1.97,2.3-.31.66-1.1,2.35-.51,3.15Z"/><path class="cls-14" d="m13.98,4.54c-.32.85-.06,2.56.48,5.97.48,3.02.69,3.31.87,3.33.44.04.62-1.52,1.67-3.85,1.23-2.73,2.14-3.18,2.09-4.33-.06-1.44-1.55-2.04-1.9-2.18-.19-.08-2.45-.94-3.21,1.06Z"/><path class="cls-54" d="m17.16,8.94c-.15.09-.17.07-.32.16-.15.09-.17.12-.23.13-.12,0-.16-.12-.31-.26-.28-.25-.53-.15-.6-.35,0-.02-.01-.05-.01-.08.01-.03.02-.05.02-.05.05-.13.08-.21.13-.31.19-.43.16-.46.25-.57,0,0,.11-.14.28-.22.29-.14.92.23.93.21,0-.01-.1-.09-.24-.16-.07-.04-.19-.09-.45-.16-.24-.07-.23-.05-.29-.07-.24-.1-.49-.43-.49-.83,0-.34.2-.63.39-.76.11-.07.21-.09.35-.16.06-.03.1-.06.13-.08.02-.01.03-.03.04-.03.1-.08.87.14,1.23.16.63.05.93-.4,1.13-.23.24.2-.06.91-.04.91.02,0,.38-.8.14-.99-.16-.12-.44.11-1.17.18-.03,0-.19.02-.4,0-.33-.04-.48-.13-.52-.16-.06-.04-.08-.07-.15-.13-.17-.16-.28-.16-.51-.37-.27-.25-.76-.63-.84-.71-.04-.04-.07-.08-.1-.12,0,0-.02,0-.03,0,.12.18.36.51.72.79.32.26.57.36.56.5-.02.15-.3.12-.63.47-.15.15-.22.23-.26.36-.02.08-.05.19-.13.32-.01.02-.04.06-.07.1-.16.16-.49.17-.7-.01-.09-.08-.13-.18-.18-.3-.12-.28-.12-.54-.13-.53,0,0-.02.18.02.41.05.27.12.32.09.45-.02.1-.09.16-.22.29-.04.04-.15.14-.33.25-.19.11-.24.11-.25.17-.03.13.18.31.29.38.08.1.29.34.56.58.22.2.32.26.32.37,0,.15-.17.26-.43.41-.4.25-.59.24-.81.39,0,0,0,0,0,0,0,.03,0,.06,0,.09.02,0,.04-.02.05-.02.69-.27,1.33-.51,1.36-.77,0-.03-.01-.07-.05-.14-.11-.26-.3-.36-.52-.53-.19-.14-.33-.28-.42-.36,0-.01-.3-.25-.25-.39.01-.04.05-.05.13-.1.19-.09.17-.16.35-.27.16-.1.3-.13.4-.15.16-.04.28-.04.31-.04.08,0,.15,0,.23.02.21.06.35.22.39.27.05.06.16.19.19.37.03.18-.03.3-.25.77-.3.65-.33.72-.35.85-.05.25,0,.29-.06.6-.05.26-.09.45-.22.6-.22.25-.55.23-.61.23-.22-.01-.44-.12-.61-.26.01.06.02.13.02.2,0,.03-.02.06-.04.07,0,0,0,0,0,0,0,.09.03.17.03.25,0,.03,0,.06,0,.09.06-.17.07-.22.14-.26.06-.03.11-.04.36.01.26.05.39.08.43.11.12.08.14.19.33.86.14.52.17.58.13.66-.09.18-.29.13-.65.43-.13.1-.22.21-.21.22,0,.02.18-.13.46-.26.23-.1.34-.16.47-.12.03,0,.05.02.07.03.13.07.3.19.44.31-.11-.12-.24-.28-.34-.47-.04-.07-.12-.25-.12-.48,0-.08,0-.2.07-.29.08-.11.21-.13.27-.14.43-.07.53-.56.9-.64.01,0,.02,0,.04,0,.02-.07.05-.14.09-.21-.02-.03-.04-.06-.06-.1-.06-.13-.01-.21-.04-.51-.02-.26-.03-.36,0-.43,0-.02.02-.04.02-.04.11-.21.31-.23.58-.45.1-.08.17-.15.17-.16,0,0-.13.1-.33.22Zm-.55,1.48c-.04.11-.11.17-.15.21-.34.3-.27.31-.44.42-.26.16-.31.07-.52.23-.04.03-.09.07-.14.06-.06-.02-.09-.13-.12-.28-.06-.3-.09-.45-.08-.59.02-.32.15-.33.26-.71.11-.37.08-.66.2-1.02,0-.03.02-.06.03-.08.08.25.54.2.8.61.15.24.16.52.18.97,0,.04,0,.11-.02.19Z"/><path class="cls-5" d="m16.58,7.62s-.2.07-.32.18c-.17.18-.24.51-.12.74.13.26.44.29.45.52,0,.02,0,.06-.02.07-.07.04-.22-.27-.57-.41-.13-.05-.23-.06-.26-.14-.03-.07.03-.14.09-.24.21-.34.11-.41.28-.64.07-.09.21-.27.42-.29.19-.02.37.09.36.13,0,.03-.14,0-.34.06Z"/><path class="cls-47" d="m15.94,4.82c-.05.06.05.2.11.36.15.42-.06.76,0,.79.08.03.52-.51.36-.9-.01-.03-.08-.2-.25-.26,0,0-.16-.06-.22,0Z"/><path class="cls-47" d="m14.11,5.76s-.19-.24-.21-.52c0-.13.03-.25.17-.35.07-.05.18-.11.22-.1.07.02-.19.21-.26.49-.06.28.1.47.08.47Z"/><path class="cls-29" d="m20.35,7.19c-.65.39-1.24,1.71-2.38,4.32-1.02,2.32-.98,2.63-.84,2.75.33.27,1.21-.68,3.14-1.67,2.27-1.16,3.21-.95,3.71-1.76.62-1.01-.3-2.25-.53-2.55-.12-.16-1.55-2.02-3.09-1.09Z"/><path class="cls-12" d="m21.14,11.45c-.18,0-.18-.02-.36-.02-.18,0-.21.03-.26,0-.1-.06-.08-.18-.14-.37-.12-.36-.38-.4-.34-.6,0-.03.01-.05.02-.07.02-.02.04-.03.04-.03.11-.09.18-.14.26-.2.38-.28.37-.32.5-.37,0,0,.17-.07.35-.06.32.03.68.66.71.64,0,0-.05-.13-.13-.26-.04-.07-.12-.17-.31-.37-.18-.18-.18-.16-.22-.21-.16-.21-.21-.62-.01-.96.17-.29.48-.45.72-.47.14,0,.23.03.38.03.07,0,.12,0,.16,0,.02,0,.04,0,.04,0,.12-.02.69.55.99.75.52.35,1,.11,1.1.36.11.29-.5.76-.49.77.02.02.73-.51.61-.79-.07-.18-.44-.12-1.11-.43-.03-.01-.17-.08-.34-.2-.27-.19-.35-.35-.37-.4-.03-.07-.04-.1-.06-.19-.07-.22-.17-.28-.26-.57-.11-.35-.35-.92-.37-1.04-.01-.06-.02-.11-.03-.15,0,0-.02-.01-.02-.02.01.22.06.62.23,1.05.15.39.32.6.23.71-.09.12-.32-.04-.78.09-.2.06-.3.09-.41.18-.06.05-.14.14-.28.21-.02.01-.07.03-.11.05-.22.06-.51-.1-.6-.36-.04-.12-.03-.22-.01-.35.04-.31.16-.52.16-.53,0,0-.11.15-.19.37-.09.26-.05.34-.14.44-.07.07-.16.09-.33.14-.06.01-.2.05-.41.05-.22,0-.26-.02-.3.02-.09.1,0,.36.06.48.02.13.08.44.19.78.09.28.15.38.09.48-.08.13-.28.14-.58.15-.47.01-.63-.08-.9-.07,0,0,0,0,0,0-.02.03-.03.05-.04.08.02,0,.04,0,.05,0,.73.11,1.41.22,1.56,0,.02-.03.02-.07.03-.15.03-.28-.08-.46-.19-.72-.1-.22-.15-.4-.18-.52.01,0-.13-.36-.02-.46.03-.03.07-.02.16-.02.21.01.23-.05.44-.05.19,0,.33.04.42.07.16.05.26.11.28.12.07.04.13.08.19.14.16.16.19.36.2.43.01.08.04.24-.02.41-.06.17-.17.24-.6.54-.59.42-.64.46-.73.56-.17.2-.14.25-.35.49-.18.2-.3.34-.49.41-.28.1-.53-.03-.62-.09,0,0,0,0,0,0,0,0-.01,0-.02-.01,0,0-.28-.24-.64-.57-.01.04-.03.09-.05.16-.02.07-.04.13-.06.21-.02.05-.04.12-.06.2.19-.13.32-.14.38-.14.02,0,.03,0,.03,0,.05,0,.12.05.27.19.2.18.3.27.32.31.06.13.03.24-.14.91-.13.52-.14.58-.22.64-.17.11-.31-.03-.78.05-.16.03-.29.07-.29.08,0,.02.23-.02.53,0,.25.02.37.03.47.13.02.02.04.05.04.06.08.12.16.32.23.49-.04-.16-.07-.36-.06-.58,0-.08.02-.27.13-.48.04-.07.1-.17.21-.22.13-.06.25,0,.3.02.4.15.74-.23,1.1-.11.01,0,.02,0,.03.01.05-.05.12-.1.18-.14,0-.04,0-.07,0-.12.01-.14.09-.19.22-.46.11-.23.15-.32.21-.37.02-.01.03-.02.04-.03.2-.13.38-.05.73-.1.12-.02.22-.05.22-.05,0,0-.16.03-.39.02Zm-1.21,1.01c-.09.08-.18.1-.24.11-.44.09-.39.14-.59.14-.3.01-.3-.1-.56-.06-.05,0-.11.02-.15-.02-.05-.05-.02-.16.03-.31.1-.29.15-.44.23-.55.18-.26.29-.21.58-.49.28-.27.4-.53.68-.79.02-.02.04-.04.06-.06-.06.26.37.44.39.93.01.28-.12.53-.33.93-.02.04-.05.1-.12.16Z"/><path class="cls-22" d="m19.52,8.11c-.06-.01-.08-.52.19-.95.14-.22.36-.41.41-.38.04.03-.13.28-.41.94-.14.31-.16.39-.18.39Z"/><path class="cls-47" d="m15.03,11.53c.06-.01-.18-1.41-.24-1.41-.03,0-.03.43.05.83.05.26.16.58.19.58Z"/><path class="cls-22" d="m20.14,8.58c-.03-.06.26-.3.55-.43.04-.02.31-.13.34-.08.03.05-.17.25-.39.38-.2.11-.47.19-.5.13Z"/><path class="cls-22" d="m23.2,10.74c-.01-.07.42-.29.83-.39.05-.01.41-.1.43-.04.01.06-.3.25-.61.36-.28.1-.63.14-.64.08Z"/><path class="cls-18" d="m26.03,11.58c-1.04-.21-2.02.17-5.34,2.31-1.98,1.27-2.3,1.56-2.23,1.81.11.4,1.14.26,3.44.48,3.14.31,4.25.88,4.97.17.32-.32.39-.8.53-1.76.12-.82.27-1.85-.35-2.5-.07-.08-.37-.37-1.02-.51Z"/><path class="cls-19" d="m25.66,18.39c-.45-.75-1.01-.8-4.7-1-2.45-.13-3.01-.15-3.09.18-.13.53,1.08,1.04,3.3,3.46,1.4,1.52,1.92,2.41,2.94,2.39.15,0,1.12-.04,1.69-1.04.64-1.11.48-2.96-.14-3.99Z"/><path class="cls-17" d="m22.99,15.85c-.13-.11-.12-.13-.26-.25-.14-.11-.17-.11-.2-.17-.04-.11.06-.19.13-.38.14-.35-.04-.55.12-.68.02-.02.04-.03.07-.04.03,0,.05,0,.05,0,.14,0,.23,0,.33.01.47.02.49-.01.62.03,0,0,.17.05.31.18.23.22.1.94.13.95.01,0,.05-.13.06-.28,0-.08.02-.21,0-.48-.02-.25-.04-.23-.03-.3.01-.26.23-.61.61-.75.32-.12.66-.04.85.1.11.08.16.17.28.27.05.04.09.07.12.09.02.01.04.02.04.02.1.06.18.87.28,1.21.17.61.7.73.61.98-.1.3-.87.26-.87.28,0,.02.88.07.98-.22.06-.19-.26-.37-.58-1.04-.01-.03-.08-.17-.13-.37-.08-.32-.04-.49-.03-.55.02-.07.04-.1.07-.19.09-.22.05-.32.17-.6.14-.34.33-.93.38-1.04.03-.05.05-.1.07-.14,0,0,0-.02,0-.03-.13.17-.35.52-.49.95-.13.39-.14.66-.28.7-.15.04-.22-.24-.66-.43-.19-.09-.29-.13-.43-.12-.08,0-.2.02-.35-.01-.02,0-.07-.02-.12-.04-.21-.09-.33-.4-.23-.66.04-.11.12-.19.22-.28.22-.21.46-.3.46-.31,0,0-.18.04-.38.16-.23.14-.26.22-.39.24-.1.01-.18-.03-.35-.11-.05-.03-.19-.09-.35-.22-.17-.13-.19-.18-.25-.18-.13.01-.23.28-.26.4-.07.11-.22.39-.35.73-.11.27-.13.39-.24.43-.14.05-.3-.07-.54-.25-.37-.29-.44-.47-.65-.63,0,0,0,0,0,0-.03.01-.06.02-.08.03.02.01.03.03.04.04.49.55.95,1.07,1.2,1,.03,0,.06-.04.12-.09.2-.2.23-.41.31-.67.07-.23.14-.41.19-.52.01,0,.13-.36.28-.37.05,0,.07.03.14.09.15.14.21.11.37.24.15.12.23.24.28.32.09.14.13.25.14.27.03.08.05.14.06.23.02.22-.09.4-.12.46-.04.07-.13.21-.28.3-.15.09-.29.08-.81.04-.72-.06-.79-.06-.92-.03-.25.04-.27.1-.58.15-.26.04-.45.07-.64,0-.28-.11-.39-.37-.42-.46,0,0,0,0,0,0,0,0,0-.01,0-.02,0-.01-.06-.36-.13-.85-.03.02-.08.05-.14.09-.06.04-.11.07-.18.12-.05.03-.11.07-.18.12.23.02.34.09.38.13.01.01.02.02.02.02.04.04.06.11.09.32.04.26.06.4.05.44-.04.14-.13.2-.69.61-.44.32-.48.36-.58.35-.2-.02-.22-.22-.63-.46-.14-.08-.27-.14-.28-.12-.01.01.19.13.41.34.18.18.27.26.28.4,0,.03,0,.06,0,.07-.02.14-.08.35-.13.52.08-.15.18-.32.32-.48.05-.06.19-.2.41-.28.08-.03.19-.07.3-.04.13.04.19.16.22.2.21.37.71.3.92.62,0,.01.01.02.02.03.08,0,.15,0,.23,0,.02-.03.04-.06.07-.09.1-.1.19-.09.46-.21.24-.11.32-.15.4-.15.02,0,.04,0,.05,0,.24.03.32.21.62.39.11.06.2.11.2.1,0,0-.14-.08-.32-.23Zm-1.58,0c-.12,0-.2-.04-.25-.07-.4-.21-.39-.15-.54-.26-.24-.18-.17-.27-.39-.4-.04-.02-.1-.06-.1-.11,0-.07.09-.13.22-.21.26-.16.39-.24.53-.28.31-.09.36.03.76,0,.39-.02.65-.15,1.02-.17.03,0,.06,0,.09,0-.21.16,0,.57-.3.96-.17.22-.43.33-.85.51-.04.02-.1.04-.19.04Z"/><path class="cls-38" d="m17.25,12.86c-.09-.03,0-.83.51-1.41.23-.26.52-.46.56-.42.06.06-.5.49-.65,1.11-.01.05-.08.33-.29.59-.06.08-.11.14-.13.13Z"/><path class="cls-18" d="m26.2,11.95s-.59.07-.59.11c0,.03.18.05.34,0,.12-.03.25-.1.25-.12Z"/><path class="cls-33" d="m19.45,15.96s.03.01.07.02c.48.09.72.14.82.15.27.02.65.01.66-.04,0-.04-.31-.11-.53-.14-.52-.08-1.02-.02-1.02,0Z"/><path class="cls-44" d="m19.29,14.64s.51-.64.9-.54c.02,0,.1.02.1.06,0,.07-.24.12-.61.29-.3.14-.38.2-.39.19Z"/><path class="cls-3" d="m23.88,13.08c0-.16.96-.42,1.13-.16.06.09.03.27-.06.35-.07.06-.17.05-.32.03-.46-.08-.74-.13-.75-.22Z"/><path class="cls-46" d="m23.12,15.77c.05-.08.95.12,1.49.23.56.12,1.1.24,1.08.3-.02.07-.69.08-1.33-.04-.7-.13-1.28-.42-1.24-.49Z"/><path class="cls-56" d="m21.64,20.28c-.05-.17-.03-.18-.09-.35-.06-.17-.09-.19-.08-.25.02-.12.15-.13.31-.25.3-.22.26-.49.47-.52.03,0,.05,0,.08,0,.03.02.04.03.04.03.12.07.19.12.28.18.39.27.42.25.51.36,0,0,.12.14.16.32.08.31-.41.86-.39.87,0,0,.11-.08.2-.2.05-.06.12-.17.25-.41.11-.22.09-.22.13-.27.15-.21.52-.4.91-.31.33.07.58.32.67.54.05.13.05.23.09.37.02.06.04.11.06.15.01.02.02.04.02.04.06.11-.31.83-.4,1.17-.17.61.21.99,0,1.16-.24.2-.88-.24-.89-.22-.01.02.71.53.94.33.15-.13-.03-.45.06-1.18,0-.03.02-.19.08-.39.1-.32.22-.44.26-.48.05-.05.08-.07.16-.12.19-.14.21-.25.46-.43.29-.21.77-.62.87-.68.05-.03.1-.06.13-.08,0,0,0-.02,0-.03-.2.08-.57.26-.92.55-.32.27-.46.49-.6.45-.14-.05-.06-.31-.33-.71-.12-.17-.18-.26-.3-.33-.07-.04-.18-.08-.29-.19-.02-.02-.05-.05-.08-.09-.13-.19-.07-.51.15-.68.1-.07.2-.09.33-.12.3-.06.55,0,.55-.02,0,0-.17-.06-.41-.06-.27,0-.34.06-.46,0-.09-.04-.14-.12-.24-.27-.03-.05-.11-.18-.18-.37-.08-.2-.06-.26-.12-.28-.12-.06-.34.11-.43.2-.12.06-.39.22-.68.43-.24.17-.32.26-.43.24-.15-.03-.22-.22-.32-.5-.16-.44-.12-.63-.22-.87,0,0,0,0,0,0-.03,0-.06-.01-.09-.02,0,.02,0,.04.01.05.12.73.24,1.41.49,1.48.03,0,.07,0,.15-.02.28-.06.41-.22.62-.41.18-.16.34-.27.43-.34,0,0,.3-.24.43-.16.04.02.04.06.07.15.05.2.12.2.19.4.06.18.07.32.07.42,0,.16-.02.28-.03.31-.02.08-.03.15-.07.22-.1.2-.28.3-.35.33-.07.04-.22.11-.4.11-.18,0-.28-.08-.71-.39-.58-.42-.64-.46-.76-.51-.24-.09-.29-.06-.58-.18-.25-.1-.42-.18-.54-.34-.18-.24-.14-.52-.11-.61,0-.01,0-.02,0-.03.04-.14.14-.37.45-.71-.24-.02-.47-.04-.71-.07.18.13.23.25.25.31,0,.02,0,.03,0,.03,0,.05-.01.13-.09.32-.1.25-.16.37-.19.4-.11.1-.22.1-.91.15-.54.04-.6.05-.67,0-.16-.12-.07-.31-.3-.72-.08-.14-.16-.26-.17-.25-.02,0,.09.21.17.5.06.24.09.36.03.48-.01.03-.03.05-.04.06-.09.11-.25.25-.39.37.14-.09.32-.18.53-.24.07-.02.26-.07.49-.02.08.02.2.04.28.13.09.1.08.23.08.29-.02.43.45.63.45,1.01,0,.01,0,.02,0,.04.07.03.13.08.19.13.03-.02.07-.03.11-.04.14-.03.21.03.5.07.26.03.35.04.42.08.02.01.03.02.04.03.19.15.17.35.32.66.06.11.11.2.12.19,0,0-.08-.15-.15-.36Zm-1.34-.83c-.1-.06-.15-.14-.18-.19-.23-.39-.25-.33-.32-.51-.11-.28,0-.32-.12-.55-.02-.04-.06-.1-.03-.15.03-.06.14-.07.3-.06.31,0,.46,0,.6.04.31.08.29.21.65.4.34.18.63.21.96.39.03.01.05.03.08.04-.26.03-.3.49-.76.66-.26.1-.54.05-.99-.02-.04,0-.11-.02-.18-.06Z"/><path class="cls-49" d="m18.17,17.01c.02-.1,1.12,0,1.12.1,0,.06-.38.17-.76.08-.14-.04-.37-.13-.36-.17Z"/><path class="cls-49" d="m24.82,17.62s.37.09.67.41c.32.34.35.75.4.74.04,0,.04-.26-.05-.49-.11-.27-.31-.41-.38-.46-.29-.21-.64-.23-.65-.2Z"/><path class="cls-49" d="m21.05,19.13c-.03.08.84.55.89.49.02-.03-.16-.22-.34-.33-.24-.14-.53-.2-.55-.16Z"/><path class="cls-49" d="m23.26,20.93c.08-.1,1.27.69,1.22.8-.03.05-.3-.04-.41-.08-.52-.2-.85-.66-.8-.72Z"/><path class="cls-57" d="m16.51,18.37c-.46.21.05,1.18.42,2.61.23.93.31,1.66.84,3.76.1.39.22.82.68,1.12.6.39,1.51.39,2.14.2,1.28-.39,1.53-1.58,1.54-1.67,0-.01.02-.11.02-.21.02-1.02-1.15-1.89-2.31-3.14-1.04-1.13-1.94-2.43-2.98-2.7-.1-.03-.23-.03-.35.02Z"/><path class="cls-47" d="m15.88,12.01s-.03-.04.06-.55c.09-.52.14-.78.17-.77.06,0,.13.46,0,.91-.07.21-.19.43-.23.41Z"/><path class="cls-42" d="m21.64,25.37s.01-.01.02-.02c0,0,0,0,0,0-.2-.06-.48-.12-.79-.12-.37,0-.6.06-.68-.05-.08-.12.13-.25.14-.69,0-.19,0-.29-.04-.41-.03-.07-.09-.17-.11-.31,0-.02-.01-.07,0-.11,0-.21.22-.4.48-.38.06,0,.17.01.31.11.56.43.6,1.76.64,1.76.02,0,.06-.48-.11-1.03-.13-.39-.23-.69-.48-.81-.07-.03-.17-.06-.23-.17-.05-.08-.04-.17-.03-.33,0-.06.02-.19.07-.37.05-.19.09-.21.07-.27-.06-.11-.31-.12-.42-.12-.12-.03-.4-.08-.73-.11-.26-.02-.37,0-.44-.09-.09-.11-.04-.29.03-.54.12-.41.25-.51.31-.74,0,0,0,0,0,0-.02-.02-.03-.04-.05-.06,0,.02-.01.03-.02.04-.3.58-.58,1.12-.44,1.32.02.02.05.04.12.08.23.12.42.09.67.09.22,0,.39.01.5.03,0,.01.35.01.4.15.02.04,0,.07-.03.14-.07.17-.02.21-.07.39-.05.16-.12.26-.18.33-.08.11-.16.18-.18.2-.05.04-.1.08-.17.11-.18.08-.37.03-.43.02-.07-.02-.22-.05-.35-.16-.13-.11-.16-.23-.3-.7-.2-.64-.22-.71-.28-.81-.12-.21-.18-.21-.32-.47-.12-.22-.21-.38-.21-.56,0-.27.18-.44.25-.49,0,0,.01-.01.02-.02.1-.07.3-.18.71-.22-.16-.16-.32-.31-.48-.47.06.2.04.32.02.37,0,.02,0,.03-.01.03-.02.04-.08.08-.24.16-.21.11-.31.16-.35.16-.13,0-.21-.06-.74-.44-.41-.3-.46-.33-.49-.41-.05-.18.11-.26.17-.68.02-.14.02-.27.01-.28-.02,0-.04.2-.15.45-.09.2-.13.3-.24.35-.03.01-.05.01-.06.02-.13.02-.32.03-.48.02.15.02.33.07.51.15.07.03.23.11.37.28.05.06.12.15.13.25.01.13-.07.21-.1.25-.24.29-.01.7-.21.97,0,0-.01.02-.02.02.03.06.05.13.07.2.03,0,.07.02.1.04.12.06.14.14.33.35.17.18.24.24.26.31,0,.02.01.03.01.04.06.22-.06.34-.12.65-.02.11-.02.2-.02.21,0,0,.02-.15.09-.34.05-.15.07-.14.12-.29.05-.15.04-.18.08-.22.08-.07.18,0,.36.02.34.03.45-.18.62-.08.02.01.04.03.06.05.01.03.02.04.02.04.05.12.07.2.1.29.14.42.17.42.18.56,0,0,.01.17-.05.32-.11.26-.76.35-.75.37,0,.01.12,0,.26-.02.07-.01.18-.04.4-.14.2-.09.18-.09.24-.11.22-.06.59.04.83.33.2.24.26.57.2.78-.03.12-.09.18-.13.31-.02.05-.03.1-.04.13,0,.02,0,.03,0,.04,0,0,0,0,0,0,0,.02-.37.45-.71.35-.26-.07-.2-.35-.53-.67-.36-.35-.83-.4-.83-.38,0,.02.45.13.82.55.14.16.34.38.31.64-.02.14-.08.15-.33.55-.17.27-.18.34-.25.35-.24.04-.51-.69-.53-.68-.02,0,.24.79.51.8.18,0,.22-.33.67-.79.02-.02.12-.12.27-.22.24-.16.4-.17.45-.18.07,0,.1,0,.18.01.21.02.29-.04.56-.02.3.03.79.03.96.04,0,0,0,0,0,0Zm-3.75-3.35c-.25-.09-.43-.29-.71-.6-.03-.03-.07-.08-.1-.15-.04-.1-.03-.19-.03-.24.04-.41,0-.38.04-.55.07-.26.17-.22.21-.46,0-.04.01-.1.06-.12.06-.02.14.04.25.14.22.19.33.28.41.39.18.24.1.32.26.67.15.33.35.53.49.85.01.03.02.05.03.07-.21-.14-.48.16-.91,0Z"/><path class="cls-53" d="m14.78,19.22c-.31.03-.43.53-.81,1.42-.24.57-.5,1.03-1,1.95-1,1.84-1.48,1.98-1.46,2.75.03.95.8,1.57.89,1.65,1.04.83,2.84.8,3.56,0,.47-.51.43-1.27.4-1.75-.03-.68-.25-.77-.32-1.6-.07-.75.1-.77.05-1.6-.06-1.06-.36-1.68-.46-1.87-.18-.34-.51-.98-.86-.95Z"/><path class="cls-61" d="m13.62,22.83c.12-.1.14-.09.26-.19.12-.1.13-.14.18-.15.1-.02.16.09.31.19.29.19.5.06.59.23.01.02.02.04.02.07,0,.03,0,.05,0,.05-.02.13-.04.2-.06.3-.1.42-.07.44-.13.56,0,0-.07.15-.21.25-.24.17-.86-.07-.86-.04,0,.01.11.06.24.11.07.02.18.05.43.08.23.02.21,0,.27.02.23.06.5.31.56.68.05.31-.07.61-.23.76-.09.09-.18.11-.29.2-.05.04-.08.07-.1.1-.02.02-.03.03-.03.03-.07.08-.8.01-1.12.04-.57.05-.76.51-.98.39-.25-.14-.09-.83-.11-.84-.02,0-.21.79.03.92.16.09.37-.17,1.02-.34.03,0,.17-.04.35-.06.3-.02.45.05.49.07.06.03.08.05.15.1.18.12.28.1.51.26.28.18.78.46.86.52.04.03.08.06.11.09,0,0,.02,0,.03,0-.13-.15-.4-.41-.76-.61-.33-.19-.57-.24-.57-.37,0-.14.25-.15.49-.52.11-.16.16-.24.18-.37.01-.07.01-.18.07-.31,0-.02.03-.06.05-.1.12-.17.41-.23.62-.09.09.06.15.14.21.24.15.24.19.47.2.47,0,0-.01-.17-.08-.37-.09-.24-.16-.27-.15-.4,0-.09.05-.16.15-.29.03-.04.11-.15.26-.28.15-.13.19-.14.2-.19,0-.12-.21-.25-.31-.31-.09-.08-.31-.26-.59-.44-.22-.14-.33-.19-.34-.29-.02-.14.11-.26.31-.44.32-.29.49-.31.66-.48,0,0,0,0,0,0,0-.03,0-.05-.01-.08-.02.01-.03.02-.04.03-.57.35-1.11.67-1.09.91,0,.03.02.06.06.12.14.22.33.28.55.4.2.1.34.2.43.26,0,.01.3.18.28.32,0,.04-.04.06-.1.11-.15.11-.13.17-.27.3-.13.11-.25.16-.33.2-.14.06-.24.08-.27.08-.07.01-.13.02-.21.01-.2-.02-.34-.15-.39-.19-.06-.05-.17-.15-.22-.31-.06-.15-.02-.27.1-.74.17-.64.18-.71.18-.83,0-.24-.05-.27-.04-.56,0-.25.01-.42.11-.58.14-.23.39-.29.48-.3,0,0,.01,0,.01,0,0,0,0,0,.01,0,.34-.04.51.05.51.05.04.02.11.06.17.12-.04-.21-.08-.43-.12-.64-.05.2-.14.29-.18.32-.01.01-.02.02-.02.02-.04.03-.11.03-.3.02-.24,0-.36-.01-.4-.03-.12-.06-.16-.15-.43-.73-.21-.45-.24-.5-.22-.58.05-.18.23-.17.51-.49.1-.11.16-.22.16-.23-.01-.01-.14.15-.37.31-.19.13-.28.19-.4.18-.03,0-.05-.01-.07-.02-.13-.04-.3-.13-.44-.21.12.09.26.22.37.38.04.06.15.2.18.42.01.07.03.18-.02.28-.05.11-.17.15-.22.16-.37.13-.38.59-.7.72,0,0-.02,0-.03.01,0,.07-.03.14-.04.2.02.02.05.05.07.08.07.11.05.19.11.45.06.23.08.32.07.39,0,.02,0,.03-.01.04-.06.21-.24.26-.45.5-.07.08-.13.16-.12.17,0,0,.1-.11.26-.25Zm.26-1.43c.02-.11.07-.17.1-.22.25-.33.2-.33.32-.45.2-.19.27-.11.42-.29.03-.03.07-.08.11-.07.06,0,.1.1.15.24.1.27.15.4.16.53.03.29-.08.32-.12.69-.04.36.03.61-.02.96,0,.03,0,.05-.01.08-.11-.22-.51-.1-.81-.43-.17-.2-.22-.45-.31-.85,0-.04-.02-.1,0-.18Z"/><path class="cls-48" d="m16.29,18.77c.13-.03.6.67.5.74-.06.04-.36-.12-.48-.37-.07-.15-.08-.36-.02-.37Z"/><path class="cls-48" d="m17.92,21.91c-.08.1.02.97.12.99.06,0,.12-.23.12-.45,0-.36-.19-.6-.24-.53Z"/><path class="cls-48" d="m19.47,24.67c-.02-.3-.28-.53-.35-.49-.11.06.12.86.25.86.07,0,.11-.21.1-.36Z"/><path class="cls-51" d="m6.01,22.26c-.27,1.22,1.03,2.5,1.34,2.8.38.38,1.4,1.38,2.29,1.08.77-.26.52-1.18,1.68-3.22.65-1.14,1.24-1.75,1.73-3.25.35-1.08.22-1.28.15-1.35-.32-.33-1.25.34-2.9,1.27-3.15,1.76-4.08,1.73-4.29,2.67Z"/><path class="cls-45" d="m8.9,25.12s.01,0,.03,0c0,0,0,0,.01,0-.03-.2-.09-.47-.21-.74-.14-.33-.29-.5-.22-.61.07-.12.28,0,.67-.16.17-.07.26-.11.35-.2.05-.05.11-.14.23-.22.02-.01.06-.04.1-.05.19-.08.45.03.53.26.02.06.06.16.02.31-.16.66-1.34,1.24-1.32,1.27.01.02.45-.14.87-.52.3-.27.53-.48.53-.75,0-.07-.01-.18.06-.27.05-.07.13-.1.29-.16.05-.02.18-.06.35-.09.19-.03.23,0,.26-.05.08-.09-.01-.32-.06-.42-.02-.11-.08-.38-.19-.68-.03-.08-.13-.24-.09-.42,0-.05.02-.1.06-.14.08-.08.19-.04.43-.05.12,0,.08-.01.27-.03.05,0,.25-.02.51,0,.08,0,.18,0,.29.02.02-.03.03-.06.05-.09-.08,0-.25,0-.35,0-.95-.01-1.25-.01-1.35.16-.02.03-.02.06-.02.13-.02.25.08.4.19.62.09.19.14.34.17.44-.01,0,.13.31.03.41-.03.03-.06.03-.14.03-.18.01-.2.07-.38.09-.16.02-.28,0-.37-.02-.14-.03-.23-.07-.25-.08-.06-.03-.11-.05-.17-.1-.14-.12-.18-.3-.19-.36-.01-.07-.04-.21,0-.37.05-.16.14-.23.5-.55.5-.43.55-.48.62-.58.14-.19.12-.24.29-.47.15-.2.25-.34.42-.42.24-.12.46-.02.54.01,0,0,0,0,.01,0,0,0,0,0,0,0,.03.01.42.15.56.37.03.05.07.13.07.27.09-.19.17-.38.26-.58-.3,0-.44.01-.51.02,0,0-.02,0-.03,0-.05,0-.1-.03-.24-.14-.18-.14-.27-.21-.29-.24-.06-.11-.03-.21.1-.83.1-.48.11-.54.17-.59.14-.12.27,0,.68-.13.14-.04.25-.09.25-.1,0-.02-.19.04-.46.05-.22,0-.32,0-.41-.07-.02-.02-.03-.04-.04-.05-.07-.1-.15-.26-.21-.41.04.14.07.32.07.51,0,.07,0,.25-.1.44-.03.07-.08.17-.17.22-.11.06-.22.03-.26.02-.23-.06-.39.1-.75.2-.03,0-.11.03-.21,0-.01,0-.02,0-.03,0-.11-.02-.2-.04-.26-.06-.24-.07-.37-.15-.52-.09-.03.01-.05.02-.06.03.1.01.66.09.7.31,0,.02,0,.03,0,.06,0,.13-.08.18-.18.43-.09.22-.12.3-.17.35,0,0-.02.02-.03.03-.24.19-.95-.01-.95-.01-.67-.19-.87-.29-.88-.27-.02.04,1.22.47,1.35.46,0,0,.04,0,.09,0,.07,0,.1,0,.22-.01.15-.02.18-.04.23-.02.09.04.07.16.13.32.11.31.34.32.31.5,0,.02-.01.05-.02.07-.02.02-.03.03-.03.03-.09.09-.15.14-.22.21-.32.29-.31.32-.42.38,0,0-.14.08-.3.09-.23,0-.51-.33-.64-.67-.06-.15-.03-.14-.13-.57-.09-.36-.13-.54-.14-.54-.04,0,.15,1.18.4,1.49.04.04.18.21.28.3.16.14.16.12.19.17.14.17.2.53.03.86-.14.28-.41.45-.61.49-.12.02-.2,0-.33.01-.06,0-.1.02-.13.02-.02,0-.03,0-.04,0,0,0,0,0,0,0-.02,0-.55-.14-.6-.48-.04-.28.26-.4.39-.74.32-.82-.82-1.99-.82-1.99,0,0,.13.18.43.72.22.38.24.46.26.54.03.1.11.43-.03.79-.04.11-.17.44-.45.52-.13.04-.16-.01-.62-.06-.31-.03-.37-.02-.41-.07-.13-.19.41-.73.4-.74-.02-.01-.62.53-.51.77.07.16.38.06.97.27.03,0,.15.05.3.15.24.15.31.28.33.32.03.06.03.09.06.16.03.09.2.4.24.48.16.3.32.85.35.85Zm1.51-4.62c-.02-.25.09-.49.26-.86.02-.03.04-.09.1-.15.07-.08.15-.1.2-.12.38-.13.34-.16.5-.19.26-.04.26.06.49,0,.04-.01.1-.03.13,0,.04.04.02.14-.02.28-.08.27-.12.4-.18.52-.15.25-.25.22-.49.49-.24.27-.33.51-.57.77-.02.02-.04.04-.05.06.04-.24-.33-.36-.36-.79Z"/><path class="cls-53" d="m12.17,25.17s-.07-.65.31-1.12c.12-.15.28-.27.31-.25.03.03-.17.27-.36.68-.21.44-.23.7-.26.69Z"/><path class="cls-20" d="m12.07,25.97c.05,0,.12-.19.23-.56.21-.69.32-1.03.29-1.04-.08-.04-.62.62-.59,1.31,0,.03.01.29.07.29Z"/><path class="cls-20" d="m15.9,22.9c-.08-.02,0-.83.09-.83.04,0,.1.21.1.38,0,.24-.13.46-.18.45Z"/><path class="cls-30" d="m4.45,14.76c-.52.24-.64.92-.75,1.55-.09.5-.45,2.56.81,3.32.53.32,1.12.27,1.39.25,1.04-.08,1.54-.66,2.46-1.23,2.04-1.27,3.82-1.04,3.83-1.54,0-.33-.74-.57-1.9-.96-1.87-.62-2.14-.36-3.75-.9-1.19-.4-1.61-.73-2.09-.51Z"/><path class="cls-36" d="m8.05,15.65c.11.12.09.14.2.26.11.12.14.12.15.18.03.11-.07.17-.16.33-.16.31-.03.51-.18.62-.02.01-.04.02-.06.03-.03,0-.04,0-.04,0-.12-.02-.2-.03-.29-.05-.41-.08-.43-.05-.54-.1,0,0-.15-.07-.25-.2-.18-.23.01-.89-.01-.89-.01,0-.05.11-.09.25-.02.07-.04.19-.05.45,0,.24,0,.22,0,.28-.04.24-.27.54-.61.62-.29.07-.59-.04-.74-.19-.09-.09-.12-.17-.21-.28-.04-.05-.07-.08-.1-.1-.02-.01-.03-.03-.03-.03-.08-.07-.06-.82-.11-1.15-.09-.58-.54-.76-.43-.98.12-.26.79-.14.79-.16,0-.02-.77-.17-.88.09-.07.17.19.37.39,1.03,0,.03.05.17.08.36.04.31-.02.46-.03.51-.02.07-.04.09-.08.17-.05.09-.16.4-.21.54-.08.22-.1.2-.35.76-.06.13-.08.18-.07.18.02,0,.25-.3.43-.7.19-.4.2-.6.32-.61.13-.02.16.24.53.48.16.1.24.15.36.16.07,0,.17,0,.31.05.02,0,.06.02.1.05.17.11.25.41.13.64-.05.1-.13.16-.22.23-.22.17-.44.22-.43.23,0,0,.16-.02.35-.11.22-.1.25-.18.37-.18.09,0,.16.05.29.14.05.03.15.11.28.25.14.14.14.19.2.19.12,0,.23-.23.27-.34.07-.1.23-.34.39-.63.12-.24.16-.35.26-.37.13-.03.26.1.44.3.3.31.33.49.5.66,0,0,0,0,0,0,.03,0,.05-.01.08-.02-.01-.02-.02-.03-.03-.04-.37-.57-.71-1.1-.94-1.07-.03,0-.06.03-.11.07-.2.16-.25.35-.35.59-.08.21-.17.36-.22.46-.01,0-.15.32-.29.31-.04,0-.06-.03-.11-.1-.12-.15-.17-.12-.3-.27-.12-.12-.17-.25-.21-.33-.06-.14-.09-.24-.09-.27-.02-.07-.03-.14-.03-.22,0-.21.12-.36.16-.41.04-.06.13-.18.28-.25.14-.07.26-.04.71.06.62.13.69.14.8.14.23-.01.25-.06.53-.07.24,0,.4-.01.56.08.23.13.3.38.32.48,0,0,0,0,0,0,0,0,0,.01,0,.02,0,0,.01.34.03.8.03-.02.08-.04.13-.07.06-.03.1-.05.17-.09.04-.02.1-.05.17-.09-.2-.05-.29-.13-.32-.17-.01-.01-.02-.02-.02-.02-.03-.04-.04-.11-.04-.3,0-.25-.01-.38,0-.42.05-.13.14-.17.67-.48.42-.24.46-.28.54-.26.17.04.17.23.51.5.11.09.22.16.23.15.01-.01-.15-.14-.32-.36-.14-.18-.2-.28-.2-.4,0-.03,0-.05.01-.07.03-.13.11-.31.17-.47-.08.13-.19.28-.34.41-.05.05-.19.16-.39.21-.07.02-.17.04-.27,0-.11-.05-.15-.17-.17-.21-.15-.37-.59-.36-.74-.68,0-.01,0-.02-.01-.03-.07,0-.13-.02-.2-.03-.02.03-.04.05-.08.08-.1.08-.18.06-.43.14-.22.07-.3.1-.37.09-.02,0-.03,0-.04,0-.21-.05-.26-.23-.5-.43-.09-.07-.16-.12-.17-.12,0,0,.12.09.25.25Zm1.38.18c.1.01.17.06.21.09.33.24.33.18.45.31.19.2.12.27.3.42.03.03.08.06.08.11,0,.06-.09.11-.22.17-.25.12-.37.18-.5.2-.28.05-.31-.07-.67-.09-.34-.02-.59.07-.92.04-.03,0-.05,0-.08,0,.2-.13.06-.53.37-.86.18-.19.42-.26.8-.37.03-.01.1-.03.17-.02Z"/><path class="cls-1" d="m6.61,21.8c-.02-.07.36-.23.6-.33.17-.07.49-.2.52-.14.03.05-.11.2-.23.29-.36.27-.87.26-.89.18Z"/><path class="cls-1" d="m11.47,19.18c-.06-.07.29-.49.63-.74.02-.02.3-.22.34-.18.01.01,0,.04,0,.05-.1.2-.87.95-.96.86Z"/><path class="cls-37" d="m10.21,20.81c-.06-.07.86-.93.93-.86.04.03-.16.37-.45.6-.18.15-.45.3-.48.26Z"/><path class="cls-1" d="m11.07,23.4c-.06-.04.16-.47.29-.71.22-.38.6-.96.68-.92.08.04-.15.75-.61,1.3-.1.13-.32.36-.37.33Z"/><path class="cls-28" d="m5.69,15.02c.11.03,1.21.35,1.23.28.02-.05-.48-.29-1.03-.42-.42-.1-.85-.13-.86-.09,0,.04.34.14.66.23Z"/><path class="cls-39" d="m4.38,19.15c.02-.11,1.39.06,1.39.16,0,.05-.29.08-.47.09-.48.01-.93-.19-.92-.25Z"/><path class="cls-28" d="m8,16.32c-.02.13,1.17.51,1.23.39.03-.07-.26-.31-.6-.4-.28-.08-.62-.05-.63.02Z"/><path class="cls-50" d="m6.04,8.27c-1.09.11-1.68,1.89-1.91,2.59-.22.67-.46,1.38-.12,1.92.34.54,1.04.58,1.81.7,3.5.54,5.33,2.12,5.97,1.34.12-.15.15-.31.16-.38.11-.69-.68-1.25-1.51-2.04-1.24-1.19-.91-1.33-2.33-2.71-1.02-.99-1.54-1.48-2.07-1.42Z"/><path class="cls-16" d="m9.15,11.69c.03.16,0,.16.04.32.03.16.06.18.04.23-.04.1-.16.09-.32.18-.31.16-.3.4-.49.39-.02,0-.05,0-.07-.01-.02-.02-.04-.03-.04-.03-.1-.08-.16-.14-.23-.21-.32-.29-.35-.28-.42-.39,0,0-.09-.14-.11-.31-.03-.29.49-.71.47-.73,0,0-.11.06-.21.15-.05.05-.14.13-.28.33-.13.18-.11.18-.16.23-.16.17-.52.28-.87.15-.29-.11-.49-.37-.54-.58-.03-.12-.01-.21-.03-.35,0-.06-.02-.11-.03-.14,0-.02-.01-.04-.01-.04-.04-.11.39-.7.53-.99.24-.52-.06-.92.15-1.04.25-.14.77.34.78.32.01-.02-.58-.58-.81-.43-.16.09-.04.41-.21,1.05,0,.03-.05.17-.13.33-.13.27-.26.36-.3.39-.06.04-.08.05-.16.09-.19.09-.23.19-.48.32-.3.15-.78.45-.88.49-.05.02-.09.04-.13.05,0,0,0,.02-.01.02.19-.04.56-.15.91-.36.33-.19.49-.37.61-.31.12.06.01.29.21.69.09.17.13.26.23.34.06.05.15.1.24.22.01.02.04.05.06.09.09.19,0,.47-.23.59-.1.05-.19.06-.32.06-.28.01-.5-.07-.5-.06,0,0,.15.08.36.11.25.04.31,0,.42.07.08.05.11.13.18.28.02.05.07.18.11.36.04.19.02.24.07.27.1.07.32-.05.42-.12.12-.04.38-.14.68-.29.24-.12.32-.19.42-.15.13.05.17.23.23.49.09.42.03.58.08.81,0,0,0,0,0,0,.03,0,.05.02.08.03,0-.02,0-.04,0-.05-.01-.67-.03-1.3-.24-1.4-.03-.01-.06-.01-.14,0-.26.01-.41.14-.62.28-.19.12-.34.2-.44.24,0,0-.31.17-.42.08-.03-.03-.03-.06-.04-.14-.02-.19-.08-.2-.12-.39-.03-.17-.02-.3,0-.39.02-.15.06-.25.06-.27.03-.07.05-.13.09-.19.12-.16.3-.22.36-.24.07-.02.22-.07.38-.04.16.03.25.12.59.45.47.46.52.51.62.57.2.12.25.09.5.24.21.13.36.22.45.38.13.24.05.48.02.57,0,0,0,0,0,.01,0,0,0,0,0,.01-.14.31-.3.42-.3.42-.04.03-.1.06-.19.09.21.07.41.15.62.22-.15-.15-.18-.26-.19-.31,0-.02,0-.03,0-.03,0-.05.03-.11.13-.27.13-.21.19-.31.23-.33.11-.08.21-.06.85,0,.5.04.55.04.61.1.13.13.03.28.17.69.05.14.11.25.12.25.02,0-.06-.2-.08-.47-.02-.23-.03-.34.04-.44.02-.02.04-.04.05-.05.1-.09.26-.19.4-.28-.14.06-.32.11-.51.14-.07,0-.25.03-.45-.05-.07-.03-.17-.07-.23-.15-.07-.1-.04-.22-.03-.27.07-.38-.32-.63-.27-.97,0-.01,0-.02,0-.03-.06-.04-.11-.09-.15-.14-.03.01-.07.02-.11.02-.13,0-.19-.06-.45-.13-.23-.07-.32-.09-.37-.13-.02-.01-.03-.02-.03-.03-.15-.16-.1-.33-.21-.64-.04-.11-.08-.19-.08-.19,0,0,.05.14.08.35Zm1.11.94c.08.07.12.15.14.2.16.38.19.33.22.5.06.27-.04.28.04.51.01.04.04.1,0,.14-.04.05-.14.04-.28.01-.28-.05-.42-.07-.54-.12-.27-.12-.24-.23-.53-.45-.29-.21-.55-.28-.82-.49-.02-.02-.04-.03-.06-.05.24.01.34-.39.78-.48.25-.05.5.03.9.16.04.01.1.03.16.08Z"/><path class="cls-32" d="m6.78,9.3c-.03.06.23.24.68.8.13.16.17.22.19.21.05-.03-.05-.56-.4-.84-.19-.15-.44-.22-.47-.17Z"/><path class="cls-32" d="m12.22,14.29s-.32-.25-1.06-.66c-.14-.08-.31-.17-.29-.18.03-.01.31.08.52.18.62.28.89.65.83.66Z"/><path class="cls-32" d="m7.17,10.32c.04-.07-.77-1-1.21-.76-.06.03-.15.1-.14.17.01.1.27.11.57.2.52.15.76.42.78.39Z"/><path class="cls-34" d="m7.65,6.97c.03-1.1,1.41-1.82,1.74-2,.61-.32,1.59-.84,2.37-.45.49.24.49.63,1.21,3.22.4,1.43.49,2.93.82,4.37.04.17.14.59-.09.89-.22.29-.63.3-.69.31-.69.02-1.06-.84-1.9-1.88-1.31-1.61-2.48-2.08-3.28-3.73-.09-.18-.19-.42-.18-.73Z"/><path class="cls-13" d="m8.44,6.9s0,.01,0,.03c0,0,0,0,0,.01.16,0,.39-.02.62-.1.28-.1.44-.23.52-.14.09.1-.04.3.04.77.04.2.05.31.12.42.04.06.1.15.15.3,0,.02.02.07.03.11.04.22-.08.48-.28.54-.05.01-.13.04-.26-.03-.51-.3-.83-1.69-.86-1.68-.02,0,.05.52.3,1.05.18.37.32.67.53.72.06.01.15.02.21.11.05.07.06.16.09.34,0,.06.03.2.03.41,0,.21-.02.25,0,.3.07.1.26.04.35,0,.09,0,.32-.02.57-.09.07-.02.21-.1.35-.03.04.02.08.04.11.09.05.1,0,.22-.02.49-.01.13,0,.09-.01.3,0,.06-.02.28-.06.57-.01.08-.03.19-.05.32.02.02.04.05.07.07.01-.08.03-.27.05-.38.13-1.04.17-1.38.05-1.52-.02-.02-.05-.03-.11-.05-.2-.07-.34.02-.52.1-.16.07-.3.1-.38.11,0-.01-.27.08-.34-.04-.02-.04-.01-.07,0-.16.01-.2-.03-.23-.03-.44,0-.18.04-.31.06-.4.04-.14.08-.24.1-.26.03-.06.06-.12.1-.17.12-.13.27-.14.32-.14.06,0,.18,0,.3.07.12.08.17.2.38.65.28.62.32.68.39.78.14.19.18.17.34.4.14.2.24.34.28.53.06.29-.04.51-.08.59,0,0,0,0,0,.01,0,0,0,0,0,0-.02.03-.17.43-.37.55-.05.03-.12.05-.22.03.14.13.29.26.43.39.03-.33.04-.48.05-.56,0,0,0-.02,0-.03,0-.05.04-.11.14-.24.13-.17.2-.26.23-.27.1-.05.17,0,.65.25.38.2.42.21.45.29.08.18-.03.3.01.77.01.16.04.29.05.3.01,0-.01-.22.02-.52.02-.24.03-.36.11-.44.02-.02.03-.03.04-.04.09-.06.23-.12.36-.16-.12.02-.27.02-.42-.02-.06-.01-.2-.05-.34-.19-.05-.05-.12-.12-.15-.23-.04-.13,0-.24.02-.29.08-.24-.03-.45-.07-.86,0-.04-.01-.13.02-.23,0-.01,0-.02,0-.03.03-.12.06-.22.08-.28.09-.25.17-.38.14-.56,0-.03-.01-.06-.02-.07-.02.1-.16.71-.34.72-.01,0-.02,0-.05,0-.1-.03-.13-.11-.32-.27-.17-.14-.23-.19-.26-.25,0,0-.01-.02-.02-.04-.12-.29.13-1.04.13-1.04.24-.71.35-.91.34-.92-.03-.03-.54,1.26-.55,1.41,0,0,0,.05,0,.1,0,.08-.02.11-.02.24,0,.17.01.2-.01.25-.04.09-.14.05-.27.09-.26.07-.3.32-.45.26-.02,0-.04-.02-.05-.03-.01-.03-.02-.04-.02-.04-.06-.12-.1-.19-.14-.28-.19-.4-.22-.4-.26-.53,0,0-.05-.17-.03-.35.02-.25.33-.51.62-.59.13-.04.12,0,.47-.04.3-.03.46-.05.45-.06,0-.05-.97-.04-1.26.18-.04.03-.19.16-.28.26-.13.15-.12.15-.16.19-.15.13-.45.13-.7-.11-.21-.2-.31-.53-.32-.76,0-.13.03-.22.03-.37,0-.06,0-.12,0-.15,0-.02,0-.04,0-.04,0,0,0,0,0,0,0-.02.18-.58.46-.57.23,0,.29.36.55.56.62.49,1.72-.55,1.72-.55,0,0-.17.11-.63.35-.34.17-.4.19-.47.2-.09.01-.36.04-.63-.17-.08-.06-.33-.26-.37-.59-.02-.15.03-.18.13-.68.07-.34.06-.41.11-.44.17-.11.53.58.55.57.01-.01-.35-.77-.55-.7-.14.05-.1.41-.34,1.02-.01.03-.06.16-.16.31-.15.24-.26.3-.3.31-.05.02-.07.02-.14.04-.08.02-.35.15-.42.18-.26.12-.73.2-.73.23Zm3.54,2.47c.2.03.38.19.66.44.03.02.07.06.11.13.05.1.06.19.07.24.06.44.09.4.09.59,0,.29-.08.28-.06.54,0,.05.01.11-.02.14-.04.04-.11,0-.22-.07-.21-.13-.31-.2-.39-.29-.19-.21-.14-.31-.33-.63-.19-.31-.37-.46-.55-.76-.01-.02-.03-.05-.04-.07.18.09.33-.3.68-.26Z"/><path class="cls-23" d="m11.41,4.96c-.08.02.01.57.07.83.03.12.1.49.17.48.05,0,.09-.25.08-.46-.02-.46-.25-.88-.32-.86Z"/><path class="cls-52" d="m12.95,12.63c.01-.05.22.11.4.36.07.09.1.14.1.16,0,.05-.23-.04-.41-.34-.04-.06-.09-.15-.09-.18Z"/><path class="cls-52" d="m12.45,8.51c.08-.03.44.57.62,1.23.03.12.1.36.06.38-.03.01-.18-.26-.48-.81-.05-.1-.14-.27-.19-.51-.02-.1-.06-.28-.01-.3Z"/></svg>