<?xml version="1.0" encoding="UTF-8"?>
<!DOCTYPE svg PUBLIC "-//W3C//DTD SVG 1.1//EN" "http://www.w3.org/Graphics/SVG/1.1/DTD/svg11.dtd">
<!-- Creator: CorelDRAW 2018 (64-Bit) -->
<svg xmlns="http://www.w3.org/2000/svg" xml:space="preserve" width="150px" height="150px" version="1.1" style="shape-rendering:geometricPrecision; text-rendering:geometricPrecision; image-rendering:optimizeQuality; fill-rule:evenodd; clip-rule:evenodd"
viewBox="0 0 32 32"
 xmlns:xlink="http://www.w3.org/1999/xlink">
 <defs>
  <style type="text/css">
   <![CDATA[
    .fil2 {fill:#FEFEFE}
    .fil0 {fill:#009800}
    .fil1 {fill:#E83242}
   ]]>
  </style>
 </defs>
 <g id="Layer_x0020_1">
  <metadata id="CorelCorpID_0Corel-Layer"/>
  <g id="_2057733916048">
   <path class="fil0" d="M11.98 2.12c-0.6,0 -1.21,0.04 -1.81,0.07 -0.64,0.04 -1.29,0.08 -1.93,0.08 -0.6,0 -1.22,-0.03 -1.83,-0.07 -0.59,-0.03 -1.19,-0.06 -1.78,-0.06 0,0 0,0 0,0 0,0 0,0 0,0.01 0,2.07 0.08,4.15 0.15,6.22 0.05,1.23 0.08,2.45 0.1,3.67 0.01,0.86 0.02,1.73 0.05,2.6l0.27 8.13c1.91,-1.49 4.25,-2.64 6.56,-3.27l-0.09 -4.85c0,-2.08 0.08,-4.19 0.16,-6.28 0.07,-2.07 0.15,-4.15 0.15,-6.22 0,-0.01 0,-0.02 0,-0.03z"/>
   <path class="fil1" d="M21.99 24.52c0.68,4.46 3.72,2.5 3.87,7.48 5.43,-4.21 5.28,-11.92 -2.15,-12.21 2.84,-1.04 2.97,-3.62 2.74,-6.6 -0.16,-2.06 -1.09,-10.62 1.55,-13.19 -8.1,0.19 -12.4,12.27 -8.67,19.13 -8.49,-2.52 -18.25,5.34 -16.84,8.23 3.19,-3.97 13.13,2.37 19.5,-2.84z"/>
   <path class="fil2" d="M20.6 21.01c0,0 0.05,0.64 -0.18,1.16 0,0 0.28,0.9 1.07,0.14 0,0 0.18,-0.17 0.11,-0.76 0,0 0.5,0.49 0.62,0.74 0.13,0.27 1.27,0.42 0.71,-0.6 0,0 -0.36,-0.44 -0.73,-0.63 0,0 0.56,0.31 0.91,0.18 0.35,-0.13 1,-0.72 0.14,-0.9 0,0 -0.69,-0.09 -0.94,-0.08 -0.24,0.02 0.71,-0.09 1.25,-0.53 0.53,-0.42 0.32,-0.59 0.29,-0.79 -0.03,-0.19 -0.33,-0.4 -0.67,-0.15 -0.33,0.26 -1.04,0.95 -1.22,1.03 0,0 -0.08,-0.15 0.21,-0.51 0.29,-0.36 0.75,-1.01 0.5,-1.26 -0.23,-0.25 -0.76,-0.38 -0.92,-0.06 -0.16,0.34 -0.36,1.19 -0.53,1.35 0,0 0.02,-0.48 -0.48,-0.68 -0.51,-0.18 -0.65,0.38 -0.59,0.57 0.07,0.19 0.39,0.58 0.22,1 -0.74,0.7 -1.71,0.04 -2.06,0.57 -0.17,0.25 -0.04,0.87 0.41,0.82 0,0 0.9,-0.27 1.38,-0.45 0,0 0.38,-0.08 0.5,-0.16z"/>
  </g>
 </g>
</svg>
