<svg width="32" height="32" viewBox="0 0 32 32" fill="none" xmlns="http://www.w3.org/2000/svg">
<path fill-rule="evenodd" clip-rule="evenodd" d="M16 32C24.8366 32 32 24.8366 32 16C32 7.16344 24.8366 0 16 0C7.16344 0 0 7.16344 0 16C0 24.8366 7.16344 32 16 32Z" fill="#EC7404"/>
<path fill-rule="evenodd" clip-rule="evenodd" d="M16 28.8002C23.0693 28.8002 28.8 23.0694 28.8 16.0002C28.8 8.93095 23.0693 3.2002 16 3.2002C8.93077 3.2002 3.20001 8.93095 3.20001 16.0002C3.20001 23.0694 8.93077 28.8002 16 28.8002Z" fill="white"/>
<path fill-rule="evenodd" clip-rule="evenodd" d="M16.6953 16.6416C17.3928 16.6416 17.957 17.1875 17.957 17.8625C17.957 18.5375 17.3928 19.0834 16.6953 19.0834C15.9978 19.0834 15.4336 18.5375 15.4336 17.8625C15.4336 17.1875 15.9978 16.6416 16.6953 16.6416" fill="#EC7404"/>
<path fill-rule="evenodd" clip-rule="evenodd" d="M10.0791 8.7998C11.3613 8.7998 12.4076 9.81225 12.4076 11.053C12.4076 12.2937 11.3613 13.3062 10.0791 13.3062C8.79687 13.3062 7.74033 12.2937 7.74033 11.053C7.74033 9.80232 8.78661 8.7998 10.0791 8.7998" fill="#EC7404"/>
<path fill-rule="evenodd" clip-rule="evenodd" d="M21.8447 11.877C22.891 11.877 23.7423 12.7008 23.7423 13.7132C23.7423 14.7257 22.891 15.5495 21.8447 15.5495C20.7984 15.5495 19.947 14.7257 19.947 13.7132C19.947 12.7008 20.7984 11.877 21.8447 11.877" fill="#EC7404"/>
<path fill-rule="evenodd" clip-rule="evenodd" d="M21.847 15.9072V15.9072C22.8933 15.9072 23.6729 16.5623 23.7447 17.3564L24.2166 22.9546H19.4878L19.7852 19.3614L17.19 22.0712C17.0054 22.2598 16.749 22.3392 16.5028 22.3193C16.2771 22.2995 16.0617 22.2002 15.9181 22.0116V22.0116V22.0116L12.451 17.4953L12.1022 22.9447H8.21455L7.74269 15.5002C7.68114 14.5473 8.83001 13.7632 10.1533 13.7632C11.1483 13.7632 12.0407 14.1999 12.3997 14.8253L16.6361 20.3341L20.2571 16.5424C20.6161 16.1256 21.3034 15.9072 21.847 15.9072" fill="#3C9E2D"/>
</svg>
