<?xml version="1.0" encoding="UTF-8"?> <svg xmlns="http://www.w3.org/2000/svg" width="32" height="33" viewBox="0 0 32 33" fill="none"><g clip-path="url(#clip0_467_59)"><path d="M25.51 13.8289C26.13 13.9044 26.6975 13.4616 26.7697 12.8384C26.8451 12.2185 26.4023 11.651 25.779 11.5789C25.1557 11.5034 24.5915 11.9462 24.5193 12.5694C24.4438 13.1893 24.8867 13.7568 25.51 13.8289Z" fill="#EE859C"></path><path d="M27.3334 9.26679C26.8447 9.20775 26.4051 9.55543 26.346 10.0441C26.287 10.5329 26.6347 10.9724 27.1235 11.0314C27.6123 11.0905 28.0518 10.7428 28.1109 10.2541C28.1699 9.76535 27.8222 9.32583 27.3334 9.26679Z" fill="#EE859C"></path><path d="M27.4788 23.5668C26.4657 23.5668 25.6777 23.296 25.1149 22.7542C24.5623 22.2022 24.286 21.4355 24.286 20.4542L24.286 17.0963H22.8737V15.103H22.9505C23.3803 15.103 24.286 15.103 24.286 15.103H28.5533V17.0963H26.5885V20.3009C26.5885 20.5871 26.6396 20.8273 26.742 21.0216C26.8443 21.2056 27.0029 21.3435 27.2178 21.4355C27.4327 21.5275 27.6988 21.5735 28.016 21.5735C28.0876 21.5735 28.1695 21.5684 28.2616 21.5582C28.3537 21.548 28.4509 21.5378 28.5533 21.5275V23.4748C28.3998 23.4953 28.2258 23.5157 28.0314 23.5362C27.8369 23.5566 27.6527 23.5668 27.4788 23.5668Z" fill="#EE859C"></path><path d="M7.72895 23.7398C6.91028 23.7398 6.1786 23.5455 5.5339 23.1571C4.88919 22.7687 4.37753 22.2422 3.99889 21.5778C3.63049 20.9134 3.44629 20.1774 3.44629 19.3698C3.44629 18.5521 3.63561 17.8161 4.01424 17.1619C4.39288 16.4974 4.90454 15.971 5.54925 15.5826C6.19395 15.1941 6.9154 14.9999 7.7136 14.9999C8.32761 14.9999 8.86997 15.1175 9.34071 15.3526C9.82168 15.5775 10.2003 15.8994 10.4766 16.3186L10.1236 16.7785V11.9486L12.4261 11.9486L12.4261 23.5558H10.2771L10.2771 22.0225L10.492 22.4978C10.2054 22.9067 9.81656 23.2184 9.32536 23.4331C8.83416 23.6375 8.30202 23.7398 7.72895 23.7398ZM8.00525 21.6698C8.42482 21.6698 8.79322 21.5727 9.11046 21.3785C9.42769 21.1842 9.67329 20.9134 9.84726 20.5658C10.0315 20.2183 10.1236 19.8196 10.1236 19.3698C10.1236 18.9201 10.0315 18.5214 9.84726 18.1739C9.67329 17.8263 9.42769 17.5554 9.11046 17.3612C8.79322 17.167 8.42482 17.0699 8.00525 17.0699C7.58569 17.0699 7.20705 17.1721 6.86935 17.3765C6.54188 17.5708 6.28605 17.8416 6.10185 18.1892C5.91765 18.5265 5.82555 18.9201 5.82555 19.3698C5.82555 19.8196 5.91765 20.2183 6.10185 20.5658C6.28605 20.9134 6.54188 21.1842 6.86935 21.3785C7.20705 21.5727 7.58569 21.6698 8.00525 21.6698Z" fill="#EE859C"></path><path d="M18.4568 23.7398C17.8837 23.7398 17.3516 23.6375 16.8604 23.4331C16.3794 23.2184 15.9905 22.9067 15.6938 22.4978L15.9087 22.0225V23.5558H13.7596L13.7596 11.9486H16.0622V16.7785L15.7091 16.3186C15.9854 15.8994 16.3589 15.5775 16.8297 15.3526C17.3106 15.1175 17.8581 14.9999 18.4721 14.9999C19.2703 14.9999 19.9918 15.1941 20.6365 15.5826C21.2812 15.971 21.7928 16.4974 22.1715 17.1619C22.5501 17.8161 22.7394 18.5521 22.7394 19.3698C22.7394 20.1774 22.5501 20.9134 22.1715 21.5778C21.8031 22.2422 21.2965 22.7687 20.6518 23.1571C20.0071 23.5455 19.2754 23.7398 18.4568 23.7398ZM18.1805 21.6698C18.6103 21.6698 18.9889 21.5727 19.3164 21.3785C19.6438 21.1842 19.8997 20.9134 20.0839 20.5658C20.2681 20.2183 20.3602 19.8196 20.3602 19.3698C20.3602 18.9201 20.2681 18.5265 20.0839 18.1892C19.8997 17.8416 19.6438 17.5708 19.3164 17.3765C18.9889 17.1721 18.6103 17.0699 18.1805 17.0699C17.7711 17.0699 17.4027 17.167 17.0753 17.3612C16.758 17.5554 16.5073 17.8263 16.3231 18.1739C16.1491 18.5214 16.0622 18.9201 16.0622 19.3698C16.0622 19.8196 16.1491 20.2183 16.3231 20.5658C16.5073 20.9134 16.758 21.1842 17.0753 21.3785C17.4027 21.5727 17.7711 21.6698 18.1805 21.6698Z" fill="#EE859C"></path></g><defs><clipPath id="clip0_467_59"><rect width="25.107" height="14.4795" fill="white" transform="translate(3.44629 9.26025)"></rect></clipPath></defs></svg> 