
<svg width="45" height="45" xmlns="http://www.w3.org/2000/svg">
 <g>
  <path fill-rule="evenodd" clip-rule="evenodd" d="m24.30232,9.00698l4.5819,8.09751l1.2688,3.591l-0.9868,7.7455c0,0 -1.6918,5.9146 -1.9033,5.9146c-0.2114,0 -7.5424,2.042 -7.5424,2.042l-6.6261,-1.6195l-4.93436,-2.6053l-0.42295,-9.9986l7.54251,0.9154l4.5113,-8.66082l3.3836,-5.42179l1.1278,0z" fill="#FEFEFE" id="svg_1"/>
  <path fill-rule="evenodd" clip-rule="evenodd" d="m14.64542,4.71159c0.9164,0.07042 2.8901,0.14083 3.5245,0.14083c0.6345,0 1.4803,0.07041 2.3262,0.07041c0.3525,0 3.6655,0.07041 4.6524,0.35207c0.9869,0.28165 1.6918,1.19702 1.9032,1.54908c1.4098,2.25321 3.2426,5.77386 4.3704,8.16791c0.4935,1.0562 2.1147,3.9431 3.4541,4.9993c2.1852,1.6899 -0.423,2.7461 -1.6918,2.9573c-0.4934,0.0705 -1.6213,0.2817 -2.4672,0.2113c-0.8459,2.3236 -0.7049,6.9709 -1.4098,9.1537c-0.2819,0.7745 2.7491,0.6337 0.4935,1.549c-2.2557,0.9154 -4.2295,2.2533 -7.472,3.5911c0,0 -1.6213,0.4929 -2.0442,0.4929c-0.423,0 -2.9606,-1.2674 -3.736,-1.197c-0.7049,0.1408 0.9868,3.9431 -1.3393,3.9431c-1.4803,0 -3.1016,0.1408 -2.7492,-2.394c0.2115,-0.845 -0.141,-2.3237 -0.2114,-2.6757c-0.0705,-0.3521 0.1409,-0.4225 -0.423,-0.7746c-1.1278,-0.7745 -2.96058,-1.1266 -4.44088,-1.4786c-1.05735,-0.4225 -2.1852,-0.1409 -1.62127,-0.9154c0.98686,-1.2674 1.33931,-0.2113 1.4098,-2.2532c0.07049,-1.0562 0.49343,-6.4076 -0.21147,-7.2526c-2.67863,-2.8165 -9.16374,0.9154 -5.42776,-3.7318c0.35246,-0.4225 1.97373,-2.1124 2.2557,-2.3237c0.91637,-0.9153 3.52451,-4.78804 5.56873,-7.95662c1.33935,-2.11239 2.39665,-4.08395 2.81965,-4.15436c0.5639,-0.14083 1.0573,-0.07042 2.4671,-0.07042zm0.8459,1.12661c0.9164,0.07041 2.8196,0.21124 2.8196,0.21124c0,0 1.9033,-0.07041 2.0442,-0.07041c0.141,0 2.0443,0 2.1148,0c0.1409,0 2.3261,0 2.7491,0.28165c1.8327,1.68991 5.9212,12.39271 7.8244,14.15301c0.3525,0.4929 -0.282,0.7041 -0.5639,0.7041c-0.2115,0 -0.7049,-1.1266 -0.7049,-1.1266c-0.0705,-0.0704 -4.9343,-8.51996 -5.4983,-9.64657c-0.2114,-0.49289 -0.7754,-1.76032 -1.0573,-2.11238c-0.282,-0.42248 -0.4935,-1.0562 -1.0574,-1.0562c-2.1147,-0.35206 -7.331,12.95595 -9.2342,14.22345c-0.5639,0.352 -1.3393,0.6337 -1.8328,0.5633c-0.4934,-0.1409 -2.3261,-0.5633 -2.6081,-0.7746c-1.76226,-0.7041 -5.56874,-0.9858 -6.48511,-1.6195c-0.84589,-0.5633 5.14579,-4.92888 4.65236,-6.90044c2.18525,-1.54908 4.08845,-6.83005 4.08845,-6.83005c0.282,-0.14083 1.8327,0 2.7491,0zm8.8113,5.21055c1.5508,4.64724 5.5687,9.22414 5.3573,9.99864c-0.7049,2.9573 -0.7754,8.0975 -1.6213,10.2099c-0.282,0.7041 -5.7097,4.0135 -6.5556,4.0135c-0.282,0 -1.8328,0.2112 -2.0442,-0.3521c-0.7049,-1.4786 -0.7754,-2.394 -1.2689,-2.5348c-1.8327,-0.7042 0.3525,2.8165 -1.6212,2.1828c-0.6344,-0.2113 -7.61299,-1.4083 -7.61299,-3.9432c0,-2.1123 0,-3.7318 -0.14098,-5.985c-0.07049,-1.6195 0.42294,-1.7604 1.40981,-1.69c0.84586,0 1.97376,0.2113 3.10156,0.5633c1.5508,0.4929 2.1147,0.4225 2.3262,0.4225c0.2115,0 0.7049,-0.7041 0.7754,-1.2674c0.141,-0.5633 3.595,-8.30873 5.9212,-11.54772c1.1278,-1.54909 1.3393,-1.97156 1.9737,-0.07042zm-2.1852,18.16654c-0.7754,-2.394 -0.7049,-4.7881 0.7754,-5.3514c1.1983,-0.4929 2.7491,-0.3521 3.313,0.5633c0.8459,1.3379 0.3525,3.0278 -0.5639,4.2952c-0.9868,1.4787 -2.9606,1.4787 -3.5245,0.4929z" fill="black" id="svg_2"/>
  <path fill-rule="evenodd" clip-rule="evenodd" d="m13.16492,5.6979c-0.8459,0.14082 -0.705,0.77454 -0.9164,0.98578c-1.1279,2.32362 -2.53768,4.22477 -4.01797,6.26674c-0.84589,1.26744 -3.80648,5.28097 -4.08844,5.91467c-0.14098,0.4225 -0.56393,0.4225 -0.14098,0.7041c0.63441,0.4225 7.40149,1.9716 9.09329,2.3941c0.4934,0.0704 1.8327,-0.0704 2.2557,-0.5633c0.7049,-0.7041 2.4671,-4.3656 3.1015,-5.7035c0.8459,-1.68987 4.2999,-8.73116 5.8507,-8.51992c0.2115,0.07041 0.6344,0.63371 0.9164,1.05619c0.282,0.35207 0.8459,1.6195 1.0574,2.11239c1.4802,3.3094 3.595,6.68924 5.1457,9.85784c0.2115,0.4224 -0.5639,1.0562 -0.3524,1.4786c0,0 0.7754,0.2113 1.0574,0.2113c0.2819,0 1.8327,-0.7746 1.4802,-1.2675c-2.4671,-3.1685 -6.3441,-12.32222 -8.3883,-14.36419c-0.4229,-0.28165 -2.6081,-0.28165 -2.7491,-0.28165l-2.1147,0c-0.141,0 -2.0443,0.07041 -2.0443,0.07041c0,0 -2.5376,-0.14083 -2.8196,-0.21124c-0.2819,0 -1.5508,-0.14082 -2.3261,-0.14082z" fill="#F6A708" id="svg_3"/>
  <path fill-rule="evenodd" clip-rule="evenodd" d="m34.10042,25.27219c-0.7754,0.352 -1.5508,0.8449 -2.3262,1.1266c-0.0705,0.0704 2.0442,0.6337 2.3262,1.4786c0.9869,2.6053 4.6524,3.0982 6.4146,4.0136c2.4672,1.4082 2.1147,1.2674 0.4935,-1.0562c-0.7049,-0.9858 -0.564,-2.1828 -0.564,-3.5911c0,-1.6899 3.0311,-0.4224 2.9606,-1.7603c0,-0.1408 -1.0573,-0.5633 -1.1278,-0.5633c-0.2115,0 4.6523,-2.7461 2.1852,-2.6757c-2.8901,0.0704 -1.1984,0.9154 0.0705,-2.5348c0.8459,-2.3237 -3.877,1.197 -4.5819,1.9715c-1.1278,1.1266 -0.7754,1.6899 -1.2688,2.8869c-1.1279,2.8166 -0.3525,-0.0704 -4.5819,0.7042z" fill="black" id="svg_4"/>
 </g>
</svg>
