<svg xmlns="http://www.w3.org/2000/svg" xmlns:xlink="http://www.w3.org/1999/xlink" width="64" height="64" viewBox="0 0 64 64"><defs><clipPath id="b"><rect width="64" height="64"/></clipPath></defs><g id="a" clip-path="url(#b)"><g transform="translate(-717.088 -607.024)"><path d="M750.685,607.024a32.026,32.026,0,0,1,5.142.671l.256.957,1.067.285,1.068.287.7-.7a31.87,31.87,0,0,1,4.786,1.986v.989l.957.552.956.552.853-.492a32.042,32.042,0,0,1,4.113,3.162l-.252.946.781.782.781.781.946-.254A32.23,32.23,0,0,1,776,621.642l-.492.852.553.957.552.957h.988a31.843,31.843,0,0,1,1.986,4.788l-.7.7.285,1.067.286,1.068.956.256a32.129,32.129,0,0,1,.672,5.142l-.852.492v2.21l.852.492a32.144,32.144,0,0,1-.672,5.142l-.956.255-.286,1.068-.285,1.067.7.7a31.8,31.8,0,0,1-1.986,4.788h-.988l-.552.957-.553.957.492.852a32.247,32.247,0,0,1-3.163,4.114l-.946-.254-.781.782-.782.781.255.947a32.229,32.229,0,0,1-4.114,3.162l-.853-.493-.956.553-.957.552v.988a31.73,31.73,0,0,1-4.786,1.986l-.7-.7-1.068.286-1.067.286-.256.956a32.02,32.02,0,0,1-5.142.672l-.492-.852h-1.1v-1.591a29.558,29.558,0,1,0,0-59.116v-1.591h1.1Zm-1.6,63.149h-1.1l-.492.852a32.012,32.012,0,0,1-5.142-.672l-.256-.956-1.067-.286-1.068-.286-.7.7a31.73,31.73,0,0,1-4.786-1.986v-.988l-.958-.552-.956-.553-.853.493a32.229,32.229,0,0,1-4.114-3.162l.255-.947-.782-.781-.781-.782-.946.254a32.288,32.288,0,0,1-3.162-4.114l.492-.852-.553-.957-.552-.957h-.988a31.816,31.816,0,0,1-1.986-4.788l.7-.7L719,647.087l-.285-1.068-.956-.255a32.137,32.137,0,0,1-.672-5.142l.852-.492v-2.21l-.851-.492a32.122,32.122,0,0,1,.672-5.142l.956-.256.285-1.068.287-1.067-.7-.7a31.859,31.859,0,0,1,1.986-4.788h.988l.552-.957.553-.957-.492-.852a32.355,32.355,0,0,1,3.162-4.115l.946.254.781-.781.781-.782-.252-.946a32.042,32.042,0,0,1,4.113-3.162l.853.492.956-.552.958-.552v-.989a31.943,31.943,0,0,1,4.787-1.986l.7.7,1.068-.287,1.067-.286.256-.956a32.178,32.178,0,0,1,5.142-.671l.492.852h1.1v1.591a29.558,29.558,0,0,0,0,59.116Z" fill="#bb171d" fill-rule="evenodd"/><path d="M782.21,643.069c-3.553,2.623-6.957,5.246-12.863,6.765l1.763,1.543a10.076,10.076,0,0,0,4.265-1.469V673.73h6.836Z" transform="translate(-29.033 -20.025)" fill="#bb171d" fill-rule="evenodd"/><path d="M754.632,617.007a27.564,27.564,0,0,1,0,55.128h0v-2.95h0a24.614,24.614,0,1,0,0-49.228h0v-2.949Zm0,55.128a27.564,27.564,0,1,1,0-55.128v2.949a24.614,24.614,0,1,0,0,49.228Z" transform="translate(-5.544 -5.546)" fill="#bb171d"/></g></g></svg>