<svg width="100" height="100" viewBox="0 0 64 64" fill="none" xmlns="http://www.w3.org/2000/svg">
    <rect width="64" height="64" rx="8" fill="#EF4722"/>
    <path fill-rule="evenodd" clip-rule="evenodd" d="M42.2926 9.02549C46.6058 10.6201 50.3654 13.3945 53.1728 17.0585C56.4596 21.3406 58.197 26.4652 58.197 31.8767C58.197 35.641 57.3606 39.2504 55.7122 42.606V42.608L55.628 42.7804C54.1647 45.6996 52.0724 48.3534 49.566 50.4753V50.4794L49.2751 50.7218C44.9377 54.2767 39.4563 56.2342 33.8408 56.2342C32.8064 56.2342 31.7647 56.1683 30.7438 56.0383C26.3916 55.4861 22.2603 53.7575 18.7984 51.039C16.6145 49.3225 14.7593 47.2652 13.2738 44.9272C12.6212 44.6821 11.9559 44.4107 11.2785 44.1137C10.0179 46.4895 8.96132 47.5891 7.92899 47.5891C7.8098 47.5891 7.69061 47.5743 7.57142 47.5454C6.1034 47.1858 5.83068 44.7757 5.7997 43.3662C2.27108 41.175 2.34785 39.6942 2.72495 38.9938C3.41653 37.7083 5.80105 37.7972 8.86569 39.1905C9.16468 38.5117 9.5667 37.7945 10.0468 37.08C9.67512 35.3898 9.47849 33.643 9.47849 31.8773C9.47849 22.6915 15.7101 13.4659 24.6576 9.36219L26.2697 5.74805L42.5505 6.51707C42.1512 7.26926 41.7209 7.97835 41.267 8.65108C41.6744 8.79653 42.0542 8.93593 42.129 8.96354L42.2926 9.02549ZM39.8058 7.97902L27.2792 7.3871L22.3425 18.4551C23.8516 18.1757 25.8691 17.6895 28.059 16.8504C33.1458 14.9009 37.0866 11.9225 39.8058 7.97902ZM23.6307 11.6652C16.1458 15.8437 11.0684 23.8807 11.0684 31.8767C11.0684 33.0598 11.1667 34.2322 11.3452 35.3837C11.7196 34.9514 12.1149 34.5319 12.5297 34.1406C12.4623 33.7575 12.4071 33.3602 12.3654 32.9474C12.0421 29.7507 12.7034 27.3319 14.3317 25.7575C17.4809 22.7119 23.522 23.5273 27.9367 24.1232L27.9465 24.1245L27.9549 24.1256C29.4611 24.3292 30.7617 24.5049 31.7041 24.5049C37.9586 24.5049 44.7701 20.573 45.7216 16.4134C46.3916 13.4807 43.8253 11.5494 41.5398 10.441L41.432 10.4006C41.1081 10.2814 40.6529 10.1171 40.2933 9.99182C36.9337 14.2874 32.5532 16.8188 28.698 18.3063C29.5202 19.8053 31.1142 20.7608 32.8374 20.7608C35.4414 20.7608 37.5606 18.6423 37.5606 16.0376C37.5606 15.9198 37.5566 15.8026 37.5478 15.6854C37.5182 15.2861 37.7654 14.9191 38.1559 14.8309L38.1707 14.8275C38.6287 14.7238 39.0893 15.0403 39.1283 15.5076C39.1431 15.6841 39.1505 15.8605 39.1505 16.0376C39.1505 19.5191 36.3182 22.3507 32.8374 22.3507C30.4509 22.3507 28.2502 20.979 27.1896 18.8484C22.9842 20.2423 19.7324 20.4046 19.7324 20.4046L23.6307 11.6652ZM21.7741 42.8504C18.9007 42.9938 14.6334 41.1952 12.9701 35.9487C10.659 38.4147 9.57411 41.2295 9.89802 41.7218C17.1021 45.2942 22.8536 46.0329 26.9802 43.9063C31.298 41.6807 32.828 36.7885 33.3674 33.7905C28.059 29.2821 23.7337 28.5635 21.6145 29.3359C20.9276 29.5871 20.4933 29.9986 20.4212 30.4652C20.1984 31.9171 21.0973 32.8672 22.5835 34.2975L22.5854 34.2993C24.0044 35.6659 25.6125 37.2144 25.6125 39.6854C25.6125 41.4625 24.0697 42.7346 21.7741 42.8504ZM7.3869 42.9251C7.36738 44.614 7.71889 45.7454 7.9465 45.9831C8.10071 45.9151 8.71552 45.5258 9.83 43.4484C9.61317 43.3447 9.39768 43.241 9.17882 43.1326C8.69465 42.8982 8.37748 42.4336 8.2933 41.8289C8.24818 41.5023 8.27512 41.1225 8.36064 40.707C5.87647 39.5481 4.47983 39.581 4.14852 39.748C4.21653 40.041 4.81384 40.94 6.99701 42.2316L7.39229 42.4659L7.3869 42.9251ZM21.7283 46.6787C19.9041 46.6787 17.9263 46.373 15.8004 45.7656C16.9041 47.1979 18.1721 48.4935 19.5916 49.6336C23.2596 49.8713 27.2522 47.8807 30.03 43.7184C29.3472 44.3225 28.5822 44.8693 27.7081 45.3198C25.9499 46.2262 23.9532 46.6787 21.7283 46.6787ZM45.4879 47.1339C43.0374 46.4868 38.7317 49.0039 32.6771 54.6107C33.065 54.6309 33.4529 54.643 33.8401 54.643C38.9068 54.643 43.8536 52.9346 47.8381 49.8282C47.2879 48.2928 46.5175 47.4046 45.4879 47.1339ZM45.8926 45.5972C47.3014 45.9676 48.3835 47.0275 49.1223 48.7481C51.1189 46.9359 52.8004 44.7582 54.0394 42.381C52.6542 39.0302 49.8576 38.7063 47.1465 38.4012C44.296 38.0814 41.065 37.7184 41.065 33.1353C41.065 30.4662 43.1103 29.0044 45.2757 27.4567L45.2798 27.4538C48.061 25.4672 51.2004 23.212 51.7169 17.7804C50.3384 16.0315 48.7249 14.5063 46.9276 13.2423C47.5445 14.614 47.4717 15.8854 47.2697 16.7682C46.1344 21.7359 38.8603 26.0942 31.7034 26.0942C30.6522 26.0942 29.2994 25.9117 27.733 25.6996L27.7316 25.6994C23.6388 25.1465 18.0337 24.3894 15.4367 26.9002C14.1586 28.1366 13.6718 30.0619 13.9472 32.7878C14.6017 39.2592 18.9411 41.4114 21.694 41.2632C22.768 41.2087 24.0226 40.7635 24.0226 39.6861C24.0226 37.8908 22.7876 36.7016 21.4805 35.4437C20.0785 34.0949 18.4893 32.5656 18.8495 30.2248C19.0125 29.1669 19.8212 28.2996 21.0684 27.8437C23.762 26.8612 28.7707 27.6666 34.7478 32.8827L35.0792 33.1716L35.0125 33.5925C33.966 44.3797 27.7775 50.2888 21.692 51.1359C24.3876 52.8369 27.4138 53.9528 30.5741 54.4066C37.7802 47.5467 42.6556 44.7447 45.8926 45.5972ZM47.3249 36.8228C49.8994 37.1124 53.0192 37.4645 54.8946 40.5379C56.0273 37.7952 56.6071 34.8901 56.6078 31.8753C56.6078 27.4821 55.3808 23.2922 53.0462 19.6437C52.0165 24.5864 48.8286 26.8726 46.2044 28.7474L46.2015 28.7494C44.2204 30.1653 42.6556 31.2836 42.6556 33.1359C42.6556 36.1635 44.1714 36.4686 47.3249 36.8228ZM29.2792 33.9655C29.2792 34.5958 28.7681 35.107 28.1378 35.107C27.5075 35.107 26.9964 34.5958 26.9964 33.9655C26.9964 33.3352 27.5075 32.8241 28.1378 32.8241C28.7681 32.8241 29.2792 33.3352 29.2792 33.9655Z" fill="white"/>
</svg>
