<svg width="120" height="120" viewBox="0 0 120 120" fill="none" xmlns="http://www.w3.org/2000/svg">
<path d="M57.9501 11V33.4949C72.4122 33.4949 84.1339 45.2486 84.1339 59.75C84.1339 74.2514 72.4122 86.005 57.9501 86.005V76.6311C46.3856 76.6311 36.9322 67.4806 36.4471 56.003H14C14.4982 79.9047 33.9821 99.126 57.9501 99.126V108.5C84.8026 108.5 106.568 86.6756 106.568 59.75C106.568 32.8244 84.8026 11 57.9501 11Z" fill="#7963FF"/>
<path d="M57.9497 33.4953V20.3743C38.8461 20.3743 23.3613 35.9012 23.3613 55.0567C23.3613 55.3723 23.3744 55.6878 23.3744 55.9902H36.4729C36.4598 55.6878 36.4467 55.3723 36.4467 55.0567C36.4336 43.1585 46.0706 33.4953 57.9497 33.4953Z" fill="#5DDBD2"/>
</svg>
