<svg width="512" height="512" viewBox="0 0 512 512" fill="none" xmlns="http://www.w3.org/2000/svg">
<rect width="512" height="512" rx="128" fill="#0921FF"/>
<g clip-path="url(#clip0_3372_14)">
<path d="M247.188 159.928C213.592 249.846 111.742 278.406 64 281.468V241.131C183.65 234.418 224.614 143.558 230.39 97.981C230.39 97.6277 230.449 97.3333 230.508 96.98C230.508 97.3333 230.449 97.6277 230.39 97.981C228.976 112.585 240.882 145.148 247.188 159.928Z" fill="white"/>
<path d="M264.871 352.072C298.467 262.154 400.317 233.594 448.059 230.532V270.869C328.409 277.582 287.445 368.442 281.669 414.019C281.669 414.372 281.61 414.667 281.551 415.02C281.551 414.667 281.61 414.372 281.669 414.019C283.083 399.416 271.177 366.852 264.871 352.072Z" fill="white"/>
<path d="M353.046 243.016C263.043 209.451 234.457 107.697 231.451 60H271.826C278.545 179.537 369.491 220.463 415.111 226.233C415.465 226.233 415.759 226.292 416.113 226.351C415.759 226.351 415.465 226.292 415.111 226.233C400.494 224.82 367.899 236.715 353.105 243.016H353.046Z" fill="white"/>
<path d="M158.954 268.984C248.957 302.549 277.543 404.303 280.608 452H240.233C233.514 332.463 142.568 291.537 96.948 285.767C96.5944 285.767 96.2997 285.708 95.946 285.649C96.2997 285.649 96.5944 285.708 96.948 285.767C111.565 287.18 144.16 275.285 158.954 268.984Z" fill="white"/>
</g>
<defs>
<clipPath id="clip0_3372_14">
<rect width="384" height="392" fill="white" transform="translate(64 60)"/>
</clipPath>
</defs>
</svg>
