<?xml version="1.0" encoding="utf-8"?>
<!-- Generator: Adobe Illustrator 28.1.0, SVG Export Plug-In . SVG Version: 6.00 Build 0)  -->
<svg version="1.1" id="Layer_1" xmlns="http://www.w3.org/2000/svg" xmlns:xlink="http://www.w3.org/1999/xlink" x="0px" y="0px"
	 viewBox="0 0 16 16" style="enable-background:new 0 0 16 16;" xml:space="preserve">
<style type="text/css">
	.st0{fill:#010101;}
</style>
<path class="st0" d="M9.82,5.13C6.05,2,2.06,0.58,0.9,1.97c-1.16,1.39,2.54,7.3,6.31,10.43c3.76,3.13,6.17,2.3,7.32,0.91
	C15.69,11.93,13.58,8.26,9.82,5.13z M3.32,6.3C3.24,5.91,4.23,5.39,5.53,5.14c1.3-0.26,2.41-0.15,2.49,0.24
	C8.09,5.76,7.1,6.28,5.8,6.53C4.51,6.79,3.39,6.68,3.32,6.3z M5.37,8.11C5.3,7.72,6.29,7.2,7.58,6.95c1.3-0.26,2.41-0.15,2.49,0.24
	c0.08,0.39-0.91,0.91-2.21,1.16S5.45,8.5,5.37,8.11z M12.12,9c0.08,0.39-0.91,0.91-2.21,1.16c-1.3,0.26-2.41,0.15-2.49-0.24
	C7.35,9.54,8.34,9.02,9.64,8.76C10.94,8.51,12.05,8.61,12.12,9z"/>
</svg>
