<svg width="120" height="120" viewBox="0 0 120 120" fill="none" xmlns="http://www.w3.org/2000/svg">
<g clip-path="url(#clip0)">
<path fill-rule="evenodd" clip-rule="evenodd" d="M67.8964 56.1756C69.7418 56.1756 71.2425 54.6749 71.2425 52.8498C71.2425 51.0246 69.7418 49.5239 67.8964 49.5239C66.051 49.5239 64.5503 51.0246 64.5503 52.8498C64.5503 54.6952 66.051 56.1756 67.8964 56.1756Z" fill="#92022D"/>
<path fill-rule="evenodd" clip-rule="evenodd" d="M67.8964 70.4134C69.7418 70.4134 71.2425 68.9127 71.2425 67.0876C71.2425 65.2624 69.7418 63.7617 67.8964 63.7617C66.051 63.7617 64.5503 65.2624 64.5503 67.0876C64.5706 68.933 66.0713 70.4134 67.8964 70.4134Z" fill="#92022D"/>
<path fill-rule="evenodd" clip-rule="evenodd" d="M80.5906 42.1248C78.076 37.1564 75.9466 34.0536 72.1949 30.3222C68.7068 26.8544 65.746 24.7048 61.3251 22.4132C60.9804 22.2307 60.6356 22.0685 60.2909 21.8859C56.6 20.0405 49.5022 17.8706 44.0673 17.8706H40.8834C39.7478 17.8706 38.2065 19.4321 38.2065 20.5272V99.4549C38.2065 100.611 39.8289 102.111 41.1268 102.111H43.682C49.563 102.111 56.4783 100.002 60.4531 98.015L61.3251 97.5689C65.9894 95.1556 68.9096 92.9249 72.5599 89.2746C79.0899 82.7851 84.5654 72.7468 84.5654 59.7882V58.4295C84.5857 52.8729 82.4969 45.8563 80.5906 42.1248ZM78.0962 61.5931C78.0962 71.0231 72.6005 80.2908 67.8145 85.0564C65.8474 87.0033 63.7181 88.727 61.3454 90.2277C60.2706 90.8969 59.1349 91.5459 57.979 92.1137C55.0791 93.5535 48.8735 95.6626 44.5946 95.6626V24.3398C48.9344 24.3398 54.7546 26.3677 57.7965 27.8075C58.993 28.3754 60.1895 29.0446 61.3454 29.7746C63.6775 31.255 65.8474 32.9991 67.6118 34.7634C70.2684 37.42 72.8844 40.9486 74.6082 44.5381C76.0683 47.58 78.0962 53.461 78.0962 57.8008V61.5931V61.5931Z" fill="#92022D"/>
<path fill-rule="evenodd" clip-rule="evenodd" d="M28.9182 95.1563C30.3378 95.1563 31.8385 93.6556 31.8385 92.2361V27.7474C31.8385 26.1656 30.3175 24.8271 28.6546 24.8271C27.1133 24.8271 25.4707 26.1859 25.4707 27.4838V92.4997C25.4707 93.6556 27.0931 95.1563 28.3909 95.1563H28.9182V95.1563Z" fill="#92022D"/>
<path fill-rule="evenodd" clip-rule="evenodd" d="M3.44751 73.252C5.0293 73.252 6.36775 71.7311 6.36775 70.0884V49.9509C6.36775 48.43 4.98874 46.7873 3.69086 46.7873H2.92024C1.66291 46.7671 0 48.1258 0 49.302V70.2101C0 71.7108 1.379 73.252 2.67689 73.252H3.44751Z" fill="#92022D"/>
<path fill-rule="evenodd" clip-rule="evenodd" d="M16.0604 85.1593C17.6828 85.1593 19.1226 83.7194 19.1226 81.9957V38.0298C19.1226 36.2249 17.6828 34.8662 15.9388 34.8662C14.4584 34.8662 12.7549 36.2047 12.7549 37.5228V82.239C12.7549 83.6992 14.2961 85.1593 15.6751 85.1593H16.0604Z" fill="#92022D"/>
<path fill-rule="evenodd" clip-rule="evenodd" d="M89.0474 10.3464C88.6824 10.6709 88.3579 10.9954 88.0537 11.3604C87.7495 11.7051 87.4859 12.0702 87.2425 12.4352C86.7761 13.1653 86.4516 13.9359 86.2286 14.7065C86.0055 15.5177 85.8838 16.3491 85.9041 17.1603C85.9041 17.9512 86.0258 18.7421 86.2488 19.4925C86.4719 20.2631 86.7761 21.0337 87.1817 21.7232C87.5873 22.433 88.074 23.0819 88.6418 23.67C89.1894 24.2581 89.818 24.7651 90.5075 25.2113C94.1984 27.5637 99.8158 27.077 103.405 24.7651L103.669 24.5826L103.892 24.4204L103.912 24.4001L104.176 24.1973L104.439 23.9945L104.521 23.9337C104.906 23.6295 105.332 23.3658 105.758 23.1833C106.224 22.9805 106.711 22.8386 107.177 22.798C107.664 22.7574 108.13 22.798 108.556 22.94C108.982 23.0819 109.347 23.305 109.651 23.6295C109.915 23.8931 110.138 24.2379 110.28 24.6232C110.402 24.9679 110.483 25.3735 110.462 25.7791C110.442 26.1441 110.361 26.5294 110.179 26.9147C110.037 27.2392 109.834 27.5637 109.55 27.8882L109.469 27.9693C109.225 28.2532 108.942 28.5168 108.658 28.7804C108.353 29.0644 108.009 29.3483 107.684 29.5916C103.872 32.3294 98.7815 33.4244 93.9347 32.8972C87.1006 32.1468 81.5237 28.1112 79.7189 21.1959C78.928 18.1743 79.3538 14.8485 79.9014 12.9219C80.1447 12.0702 80.4692 11.2184 80.8951 10.387C81.3412 9.4744 81.8888 8.62267 82.5174 7.81149C83.1461 6.98003 83.8761 6.22969 84.667 5.51991C85.4782 4.81013 86.3502 4.14091 87.2831 3.5528C88.2362 2.9647 89.2502 2.43743 90.2844 1.99128C91.9879 1.26122 93.8131 0.733957 95.6788 0.409485C97.6053 0.0647344 99.613 -0.0569423 101.6 0.0241755C103.608 0.105293 105.616 0.368926 107.542 0.855633C109.449 1.32206 111.274 1.99128 112.957 2.82274L113.038 2.8633L113.099 2.88358H113.119C113.464 3.06609 113.809 3.22833 114.113 3.41085C114.478 3.61364 114.843 3.83671 115.208 4.05979C115.573 4.28286 115.918 4.52622 116.242 4.76957C116.587 5.01292 116.911 5.29684 117.236 5.58075L117.337 5.68214L117.357 5.70242C118.006 6.29053 118.838 7.04087 119.385 7.93317C120.947 10.4275 118.899 11.9282 116.83 12.8205L101.033 19.6141L100.809 19.7155L100.607 19.7966L96.3074 21.6421C95.3949 22.0274 94.5837 22.2099 93.8942 22.1896C93.1438 22.1896 92.5152 21.9868 92.0285 21.6421L91.9474 21.5812C91.7648 21.4393 91.5823 21.2568 91.4404 21.0743C91.2984 20.8917 91.1767 20.6687 91.0956 20.4659L91.0145 20.2834C90.9537 20.1211 90.9131 19.9792 90.8928 19.8169C90.8523 19.5939 90.8523 19.3708 90.8725 19.1477V19.1477C90.9334 18.519 91.1565 17.8904 91.6026 17.3428C91.9474 16.8967 92.4341 16.4911 93.0627 16.2072L93.2452 16.1261L100.282 13.1044L100.363 13.0639L100.444 13.0233L110.077 8.8863L109.773 8.72406C109.53 8.60239 109.286 8.50099 109.063 8.39959C108.82 8.2982 108.576 8.1968 108.333 8.0954C106.995 7.56813 105.575 7.16255 104.095 6.91919C102.635 6.67584 101.114 6.55416 99.613 6.615C98.1529 6.65556 96.713 6.85835 95.334 7.2031C94.0159 7.52758 92.7383 8.01428 91.5621 8.62267H91.5418H91.5215L91.4809 8.64295C91.0348 8.8863 90.5886 9.14993 90.183 9.43385C89.818 9.69748 89.4124 10.0017 89.0474 10.3464Z" fill="#92022D"/>
<path fill-rule="evenodd" clip-rule="evenodd" d="M89.0469 109.654C88.6819 109.329 88.3574 109.005 88.0532 108.64C87.749 108.295 87.4854 107.93 87.242 107.565C86.7756 106.835 86.4511 106.064 86.2281 105.294C86.005 104.483 85.8833 103.651 85.9036 102.84C85.9036 102.049 86.0253 101.258 86.2483 100.508C86.4714 99.7371 86.7756 98.9665 87.1812 98.277C87.5868 97.5673 88.0735 96.9183 88.6413 96.3302C89.1889 95.7421 89.8175 95.2351 90.507 94.789C94.1979 92.4365 99.8153 92.9233 103.405 95.2351L103.668 95.4176L103.891 95.5799L103.912 95.6001L104.175 95.8029L104.439 96.0057L104.52 96.0666C104.905 96.3708 105.331 96.6344 105.757 96.8169C106.224 97.0197 106.71 97.1617 107.177 97.2022C107.663 97.2428 108.13 97.2022 108.556 97.0603C108.982 96.9183 109.347 96.6952 109.651 96.3708C109.914 96.1071 110.138 95.7624 110.279 95.3771C110.401 95.0323 110.482 94.6267 110.462 94.2211C110.442 93.8561 110.361 93.4708 110.178 93.0855C110.036 92.761 109.833 92.4365 109.549 92.1121L109.468 92.031C109.225 91.747 108.941 91.4834 108.657 91.2198C108.353 90.9359 108.008 90.652 107.684 90.4086C103.871 87.6709 98.781 86.5758 93.9343 87.103C87.1001 87.8534 81.5232 91.889 79.7184 98.8043C78.9275 101.826 79.3533 105.152 79.9009 107.078C80.1442 107.93 80.4687 108.782 80.8946 109.613C81.3407 110.526 81.8883 111.378 82.5169 112.189C83.1456 113.02 83.8757 113.771 84.6666 114.48C85.4777 115.19 86.3497 115.859 87.2826 116.447C88.2357 117.036 89.2497 117.563 90.284 118.009C91.9874 118.739 93.8126 119.266 95.6783 119.591C97.6048 119.935 99.6125 120.057 101.6 119.976C103.608 119.895 105.615 119.631 107.542 119.145C109.448 118.678 111.273 118.009 112.956 117.177L113.038 117.137L113.098 117.117H113.119C113.463 116.934 113.808 116.772 114.112 116.589C114.477 116.387 114.842 116.164 115.207 115.94C115.572 115.717 115.917 115.474 116.242 115.231C116.586 114.987 116.911 114.703 117.235 114.419L117.337 114.318L117.357 114.298C118.006 113.71 118.837 112.959 119.385 112.067C120.946 109.573 118.898 108.072 116.83 107.18L101.032 100.386L100.809 100.285L100.606 100.204L96.307 98.3582C95.3944 97.9728 94.5832 97.7903 93.8937 97.8106C93.1434 97.8106 92.5147 98.0134 92.028 98.3582L91.9469 98.419C91.7644 98.5609 91.5818 98.7435 91.4399 98.926C91.2979 99.1085 91.1763 99.3316 91.0951 99.5344L91.014 99.7169C90.9532 99.8791 90.9126 100.021 90.8923 100.183C90.8518 100.406 90.8518 100.629 90.8721 100.853V100.873C90.9329 101.501 91.156 102.13 91.6021 102.678C91.9469 103.124 92.4336 103.529 93.0622 103.813L93.2448 103.894L100.282 106.916L100.363 106.957L100.444 106.997L110.077 111.134L109.773 111.296C109.529 111.418 109.286 111.52 109.063 111.621C108.819 111.722 108.576 111.824 108.333 111.925C106.994 112.452 105.575 112.858 104.094 113.101C102.634 113.345 101.113 113.466 99.6125 113.406C98.1524 113.365 96.7125 113.162 95.3335 112.817C94.0154 112.493 92.7378 112.006 91.5616 111.398H91.5413H91.521L91.4804 111.378C91.0343 111.134 90.5882 110.871 90.1826 110.587C89.8175 110.303 89.4119 109.999 89.0469 109.654Z" fill="#92022D"/>
</g>
<defs>
<clipPath id="clip0">
<rect width="120" height="120" fill="white"/>
</clipPath>
</defs>
</svg>
