<?xml version="1.0" encoding="UTF-8"?>
<svg version="1.1" xmlns="http://www.w3.org/2000/svg" width="48" height="48">
<path d="M0 0 C5.11716751 3.0400086 9.39377435 7.87767607 11.5625 13.4375 C12.39301848 21.27913956 12.64311747 29.03085627 7.5625 35.4375 C2.23217958 41.1937298 -2.84541744 43.44544772 -10.6875 43.875 C-16.79793634 43.72535666 -21.55662946 42.14935085 -26.4375 38.4375 C-31.86419429 32.13944627 -33.81988366 26.60269327 -33.7109375 18.35546875 C-33.11755319 12.02321051 -30.70873544 7.25636785 -26 3 C-18.91297834 -2.7715652 -8.33195105 -3.74776949 0 0 Z " fill="#8C0E17" transform="translate(34.4375,3.5625)"/>
<path d="M0 0 C3.25 2 3.25 2 5 4 C4.67 5.65 4.34 7.3 4 9 C2.0625 8.6875 2.0625 8.6875 0 8 C-0.33 7.01 -0.66 6.02 -1 5 C-2.918125 4.9690625 -2.918125 4.9690625 -4.875 4.9375 C-5.59429687 4.92589844 -6.31359375 4.91429687 -7.0546875 4.90234375 C-9.08185404 4.87350758 -9.08185404 4.87350758 -11 6 C-11.02688151 7.64574566 -11.04634123 9.29161413 -11.0625 10.9375 C-11.07410156 11.85402344 -11.08570313 12.77054688 -11.09765625 13.71484375 C-11.25949049 15.96593327 -11.25949049 15.96593327 -10 17 C-8.48530552 17.23192865 -6.96245438 17.41215238 -5.4375 17.5625 C-4.61121094 17.64628906 -3.78492188 17.73007812 -2.93359375 17.81640625 C-1.97646484 17.90728516 -1.97646484 17.90728516 -1 18 C-0.34 16.68 0.32 15.36 1 14 C2.32 14 3.64 14 5 14 C5.3125 16.25 5.3125 16.25 5 19 C2.76100004 21.85665513 0.9945338 22.86580503 -2.60546875 23.3515625 C-12.11547461 23.63391085 -12.11547461 23.63391085 -16 20 C-18.39406544 16.00989094 -18.74630024 11.54887764 -18 7 C-13.60498646 -1.05752483 -8.6556996 -0.88746853 0 0 Z " fill="#EB9B02" transform="translate(30,13)"/>
</svg>
