<svg width="212" height="212" viewBox="0 0 212 212" fill="none" xmlns="http://www.w3.org/2000/svg">
<g clip-path="url(#clip0_126_2)">
<mask id="mask0_126_2" style="mask-type:luminance" maskUnits="userSpaceOnUse" x="0" y="0" width="718" height="212">
<path d="M717.834 0H0V212H717.834V0Z" fill="white"/>
</mask>
<g mask="url(#mask0_126_2)">
<path d="M1.05297 6.85553V8.39028H1.54439C1.80765 8.39028 2.52724 8.53354 3.14153 8.69723C6.80968 9.72042 9.70556 13.1787 10.4427 17.3737C10.6358 18.4787 10.6885 34.522 10.7411 108.967L10.7937 199.211L10.3725 200.438C9.23169 203.733 5.86194 205.841 1.7199 205.861H0.175415V207.499V209.135H14.0407H27.9059V207.499V205.861H26.379C21.728 205.841 18.4986 203.549 17.4631 199.518C17.1998 198.494 17.1472 190.698 16.8488 110.911C16.6733 62.8023 16.568 23.3899 16.6031 23.349C16.6382 23.3081 16.7786 23.5945 16.9366 23.9629C17.0945 24.3517 34.0663 66.1376 54.6536 116.846L92.1074 209.033H95.0381H97.9517L130.807 115.618L163.662 22.203L163.715 109.029C163.75 204.633 163.838 197.082 162.68 199.763C162.048 201.216 160.398 203.304 159.152 204.245C157.888 205.206 155.923 205.861 154.361 205.861H153.044V207.499V209.135H182.618H212.191V207.499V205.861H210.927C206.663 205.841 202.871 202.362 201.748 197.472C201.52 196.489 201.485 184.477 201.485 107.228C201.485 8.39028 201.38 17.1281 202.643 14.3042C203.363 12.7285 205.206 10.5389 206.434 9.80226C207.575 9.12695 208.944 8.63588 210.085 8.47212L211.138 8.32893V6.8351V5.3208L187.409 5.36172L163.698 5.42311L136.722 81.0964C121.891 122.699 109.711 156.79 109.658 156.852C109.606 156.913 96.3897 124.99 80.2953 85.9056C64.1838 46.8204 50.1254 12.6876 49.0198 10.0683L47.0189 5.3208H24.0447H1.05297V6.85553Z" fill="#161E86"/>
</g>
</g>
<defs>
<clipPath id="clip0_126_2">
<rect width="212" height="212" fill="white"/>
</clipPath>
</defs>
</svg>
