<?xml version="1.0" encoding="UTF-8"?> <svg xmlns="http://www.w3.org/2000/svg" width="32" height="32" viewBox="0 0 32 32" fill="none"><rect width="32" height="32" rx="4" fill="#FF5B1B"></rect><path d="M10.4126 20.9454C12.4007 20.9454 13.8755 19.7233 13.8755 17.5535V9H17.1245V17.6377C17.1245 19.3864 17.9154 20.9454 20.3309 20.9454C22.3187 20.9454 23.7509 19.7233 23.7509 17.5535V9H27V23.7472H23.9861V22.2423H23.302C22.4131 23.2291 21.178 23.8542 19.8444 23.9717C19.6386 23.9897 19.4351 24 19.2407 24C16.8252 24 15.7594 23.1905 15.0324 21.6736H14.4128L13.8273 22.2596C12.7623 23.3259 11.3229 23.9642 9.80518 23.9984C9.75791 23.9995 9.71096 24 9.66465 24C5.60319 24 4 21.3667 4 18.1011V9H7.24914V17.6377C7.24914 19.3864 7.99725 20.9454 10.4126 20.9454Z" fill="white"></path></svg> 