<svg xmlns="http://www.w3.org/2000/svg" width="292" height="350" fill="none"><path fill="#465A46" fill-rule="evenodd" d="M100.503 211.235C92 152.713 71.124 80.562 39.041 21.281L31.834 7.832C29.93 4.275 32.55 0 36.634 0H84.32a5.434 5.434 0 0 1 4.77 2.8l7.545 13.73c7.732 13.956 16.18 37.532 24.001 59.367 1.443 4.027 2.864 7.995 4.258 11.832a876.366 876.366 0 0 0 4.211 11.403c15.655 41.231 28.026 105.073 25.705 133.573l-.727 10.168a5.315 5.315 0 0 0 2.691 4.994l3.063 1.749c29.764 17.102 64.747 30.401 85.039 32.491l6.16.639c2.764.285 4.859 2.576 4.859 5.312v44.301c0 3.191-2.825 5.671-6.045 5.305l-4.007-.454c-17.587-2.09-37.107-6.271-47.544-10.26-15.655-6.081-37.11-17.102-47.352-24.132-.443-.318-.881-.629-1.319-.933l-.991-.687-1.011-.692-.858-.574a94.208 94.208 0 0 0-2.379-1.527c-.468-.288-.91-.551-1.317-.788a27.35 27.35 0 0 0-1.07-.591c-.508-.264-.926-.459-1.237-.568a1.48 1.48 0 0 0-.45-.1c-.43 0-1.16.824-1.988 2.144-.66 1.051-1.382 2.419-2.068 3.937-4.834 10.83-25.514 29.07-37.884 33.629-17.202 6.271-29.376 8.361-42.134 6.841-17.975-1.901-30.73-7.409-40.007-17.29C3.67 312.319 0 302.248 0 282.868c0-14.631.58-17.67 6.184-28.882 13.338-26.601 42.52-40.28 75.764-35.53l1.734.255c4.93.726 8.52 1.255 11.114 1.463l.686.048.426.022.387.015c.534.016 1.014.011 1.442-.017a8.05 8.05 0 0 0 .677-.068l.237-.039.252-.052c.705-.163 1.206-.437 1.547-.84l.081-.104.065-.091.079-.129a2.541 2.541 0 0 0 .217-.506l.062-.216c.047-.191.08-.396.102-.617.067-.655.033-1.447-.062-2.389l-.089-.813-.129-1.037-.121-.918v-.046l-.152-1.142Zm3.078 55.879c3.964 12.365-14.62 29.166-31.946 34.555-17.326 5.386-34.589-.271-38.553-12.635-3.965-12.365 6.864-26.755 24.193-32.144 17.326-5.388 42.339-2.141 46.306 10.224Z" clip-rule="evenodd"/><path fill="url(#a)" fill-rule="evenodd" d="M100.503 211.235C92 152.713 71.124 80.562 39.041 21.281L31.834 7.832C29.93 4.275 32.55 0 36.634 0H84.32a5.434 5.434 0 0 1 4.77 2.8l7.545 13.73c7.732 13.956 16.18 37.532 24.001 59.367 1.443 4.027 2.864 7.995 4.258 11.832a876.366 876.366 0 0 0 4.211 11.403c15.655 41.231 28.026 105.073 25.705 133.573l-.727 10.168a5.315 5.315 0 0 0 2.691 4.994l3.063 1.749c29.764 17.102 64.747 30.401 85.039 32.491l6.16.639c2.764.285 4.859 2.576 4.859 5.312v44.301c0 3.191-2.825 5.671-6.045 5.305l-4.007-.454c-17.587-2.09-37.107-6.271-47.544-10.26-15.655-6.081-37.11-17.102-47.352-24.132-.443-.318-.881-.629-1.319-.933l-.991-.687-1.011-.692-.858-.574a94.208 94.208 0 0 0-2.379-1.527c-.468-.288-.91-.551-1.317-.788a27.35 27.35 0 0 0-1.07-.591c-.508-.264-.926-.459-1.237-.568a1.48 1.48 0 0 0-.45-.1c-.43 0-1.16.824-1.988 2.144-.66 1.051-1.382 2.419-2.068 3.937-4.834 10.83-25.514 29.07-37.884 33.629-17.202 6.271-29.376 8.361-42.134 6.841-17.975-1.901-30.73-7.409-40.007-17.29C3.67 312.319 0 302.248 0 282.868c0-14.631.58-17.67 6.184-28.882 13.338-26.601 42.52-40.28 75.764-35.53l1.734.255c4.93.726 8.52 1.255 11.114 1.463l.686.048.426.022.387.015c.534.016 1.014.011 1.442-.017a8.05 8.05 0 0 0 .677-.068l.237-.039.252-.052c.705-.163 1.206-.437 1.547-.84l.081-.104.065-.091.079-.129a2.541 2.541 0 0 0 .217-.506l.062-.216c.047-.191.08-.396.102-.617.067-.655.033-1.447-.062-2.389l-.089-.813-.129-1.037-.121-.918v-.046l-.152-1.142Zm3.078 55.879c3.964 12.365-14.62 29.166-31.946 34.555-17.326 5.386-34.589-.271-38.553-12.635-3.965-12.365 6.864-26.755 24.193-32.144 17.326-5.388 42.339-2.141 46.306 10.224Z" clip-rule="evenodd"/><g filter="url(#b)"><path fill="#D5FF62" d="M217.507 307.892c0 19.378 15.901 35.087 35.517 35.087 19.616 0 35.518-15.709 35.518-35.087 0-19.378-15.902-35.087-35.518-35.087s-35.517 15.709-35.517 35.087Z"/></g><defs><linearGradient id="a" x1="0" x2="255.896" y1="171.692" y2="171.692" gradientUnits="userSpaceOnUse"><stop stop-color="#D5FF62"/><stop offset="1" stop-color="#D1E49E" stop-opacity=".4"/></linearGradient><filter id="b" width="77.683" height="76.822" x="214.183" y="272.805" color-interpolation-filters="sRGB" filterUnits="userSpaceOnUse"><feFlood flood-opacity="0" result="BackgroundImageFix"/><feColorMatrix in="SourceAlpha" result="hardAlpha" values="0 0 0 0 0 0 0 0 0 0 0 0 0 0 0 0 0 0 127 0"/><feOffset dy="3.324"/><feGaussianBlur stdDeviation="1.662"/><feComposite in2="hardAlpha" operator="out"/><feColorMatrix values="0 0 0 0 0 0 0 0 0 0 0 0 0 0 0 0 0 0 0.25 0"/><feBlend in2="BackgroundImageFix" result="effect1_dropShadow_15607_10538"/><feBlend in="SourceGraphic" in2="effect1_dropShadow_15607_10538" result="shape"/></filter></defs></svg>