<svg width="200" height="200" viewBox="0 0 200 200" fill="none" xmlns="http://www.w3.org/2000/svg">
<mask id="mask0_44_15454" style="mask-type:alpha" maskUnits="userSpaceOnUse" x="0" y="0" width="200" height="200">
<path d="M0 80C0 51.9974 0 37.9961 5.44967 27.3005C10.2433 17.8924 17.8924 10.2433 27.3005 5.44967C37.9961 0 51.9974 0 80 0L120 0C148.003 0 162.004 0 172.7 5.44967C182.108 10.2433 189.757 17.8924 194.55 27.3005C200 37.9961 200 51.9974 200 80V120C200 148.003 200 162.004 194.55 172.7C189.757 182.108 182.108 189.757 172.7 194.55C162.004 200 148.003 200 120 200H80C51.9974 200 37.9961 200 27.3005 194.55C17.8924 189.757 10.2433 182.108 5.44967 172.7C0 162.004 0 148.003 0 120L0 80Z" fill="white"/>
</mask>
<g mask="url(#mask0_44_15454)">
<rect width="200" height="200" fill="#0EC645"/>
</g>
<path fill-rule="evenodd" clip-rule="evenodd" d="M111.514 138.722C111.277 136.502 112.627 125.577 112.627 125.577C112.627 125.577 115.341 126.03 117.96 126.319C120.579 126.607 124.792 126.836 124.792 126.836C124.792 126.836 122.52 135.033 123.84 136.904C126.889 141.229 143.558 151.911 147.38 156.197C149.301 158.104 151.252 159.953 153.639 161.618C155.325 163.048 160.769 163.213 162.201 164.643C163.158 165.676 164.33 168.687 163.742 169.231C163.341 169.603 155.091 169.783 153.639 169.523C152.064 169.523 150.178 168.009 150.178 168.009C150.178 168.009 149.007 169.231 147.38 168.366C144.513 166.942 144.942 164.002 143.268 161.618C142.311 160.666 128.302 151.477 119.275 146.397C111.531 142.04 111.875 142.102 111.514 138.722Z" fill="white"/>
<path fill-rule="evenodd" clip-rule="evenodd" d="M55.8101 110.438C54.1317 108.95 47.9305 114.245 46.1578 113.863C44.3851 113.481 46.1189 109.108 44.5485 109.374C42.419 109.735 41.8509 114.707 39.9382 115.093C36.8535 116.249 35.1 111.642 35.1 106.143C35.1 100.643 37.0611 94.6508 43.7405 90.8138C50.4199 86.9767 60.3111 85.9992 67.986 88.5674C75.269 84.6786 84.8509 73.3919 106.192 72.8643C127.533 72.3367 135.524 82.9741 140.06 80.4272C144.596 77.8803 146.131 72.1379 145.144 67.848C143.254 59.631 139.587 55.1631 136.653 47.8461C134.811 43.2549 134.71 37.1905 137.031 32.7431C138.072 30.7678 140.601 28.4636 144.414 28.0387C148.227 27.6138 149.231 30.8105 151.9 31.6825C154.569 32.5546 160.273 33.0914 160.719 35.12C161.165 37.1487 154.32 38.7435 152.768 38.5773C149.134 38.1889 146.841 40.6279 147.038 44.937C147.273 50.4169 148.564 52.3736 153.628 60.1739C158.692 67.9741 158.646 80.9438 152.178 89.9935C150.139 92.6372 147.968 94.883 146.529 97.9057C145.369 100.327 146.529 95.4475 146.529 105.113C146.529 114.778 141.644 119.431 135.261 121.473C126.668 124.223 119.247 123.195 111.658 122.302C101.157 121.067 92.9393 121.212 88.6502 122.302C84.9334 123.251 73.3002 129.798 71.8687 132.846C71.1088 134.49 67.0031 151.611 66.2507 155.371C65.943 156.919 66.1164 160 65.3978 161.372C64.6117 162.896 55.0389 168.917 51.7893 170.153C50.292 170.725 47.2687 171.455 46.9096 170.932C44.7915 168.5 44.7989 167.936 50.9537 163.505C48.8039 159.056 55.0064 157.97 56.8301 155.776C58.8208 153.39 62.4316 127.411 63.6695 124.027C64.9073 120.644 69.7391 119.479 71.6979 116.47C70.7712 115.402 69.488 115.972 66.0939 116.921C63.1819 117.738 57.101 119.9 55.8101 118.819C54.5193 117.738 57.4886 111.926 55.8101 110.438Z" fill="white"/>
</svg>
