<?xml version="1.0" encoding="UTF-8"?> <svg xmlns="http://www.w3.org/2000/svg" width="3013" height="892" viewBox="0 0 3013 892" fill="none"><path d="M0 446.399V466.611V886.526H90.6958V466.611V446.399V0H0V446.399Z" fill="black"></path><path d="M1957.88 666.268V676.396V886.818H2048.51V676.396V666.268V442.574H1957.88V666.268Z" fill="black"></path><path d="M986.637 666.268V676.396V886.818H1077.26V676.396V666.268V442.574H986.637V666.268Z" fill="black"></path><path d="M97.3662 666.76C97.3662 794.651 292.273 886.649 546.222 886.649V797.787C339.933 797.787 189.129 747.607 189.129 666.76C189.129 585.913 339.933 535.733 546.222 535.733V446.871C292.273 446.871 97.3662 538.869 97.3662 666.76Z" fill="black"></path><path d="M1794.74 891.227C1922.63 891.227 2014.63 696.319 2014.63 442.371H1925.77C1925.77 648.66 1875.59 799.464 1794.74 799.464C1713.9 799.464 1663.72 648.66 1663.72 442.371H1574.85C1574.85 696.319 1666.85 891.227 1794.74 891.227Z" fill="black"></path><path d="M823.497 891.227C951.388 891.227 1043.39 696.319 1043.39 442.371H954.524C954.524 648.66 904.344 799.464 823.497 799.464C742.65 799.464 692.47 648.66 692.47 442.371H603.608C603.608 696.319 695.606 891.227 823.497 891.227Z" fill="black"></path><path d="M1354.95 442.391C1227.06 442.391 1135.06 637.298 1135.06 891.246H1223.92C1223.92 684.957 1274.1 534.153 1354.95 534.153C1435.8 534.153 1485.98 684.957 1485.98 891.246H1574.84C1574.84 637.298 1482.84 442.391 1354.95 442.391Z" fill="black"></path><path d="M2565.73 820.348C2580.66 602.266 2669.23 442.575 2788.04 442.575C2918.58 442.575 3012.48 635.682 3012.84 886.476H2922.13C2922.13 682.464 2871.27 533.325 2788.39 533.325C2705.51 533.325 2654.65 682.464 2654.65 886.476H2597.38L2474.99 886.476C2474.99 682.464 2423.09 533.324 2338.53 533.324C2253.96 533.324 2202.06 682.464 2202.06 886.476H2109.51C2109.87 635.682 2205.69 442.574 2338.89 442.574C2460.11 442.574 2550.48 602.266 2565.73 820.348Z" fill="black"></path></svg> 