<svg width="120" height="120" viewBox="0 0 120 120" fill="none" xmlns="http://www.w3.org/2000/svg">
<rect width="120" height="120" rx="12" fill="white"/>
<path fill-rule="evenodd" clip-rule="evenodd" d="M44.4984 65.4681C44.0485 63.9085 40.4237 62.9801 39.255 62.4602C38.2613 62.0208 37.3489 62.0146 37.4239 61.3276C37.4989 60.6345 37.5739 60.1455 36.2989 60.5107C35.0303 60.8758 35.3115 60.4674 34.6241 60.684C33.9366 60.9068 32.5804 59.6133 32.6492 60.6283C32.7179 61.6433 32.7742 61.5876 31.5555 61.5938C30.3368 61.5938 29.4494 62.0084 29.4369 61.9589C29.6994 62.9368 29.0182 63.1596 28.8807 63.8218C28.6307 65.0287 29.3244 66.6193 29.8743 67.8694C29.8806 67.7828 29.8681 67.6961 29.9118 67.5847C30.1556 67.6652 30.4431 67.6652 30.7368 67.5971C30.718 67.8509 30.7243 68.1418 30.768 68.4636C30.9555 69.8747 34.4553 70.0046 32.818 72.4988C32.4742 73.0187 33.5304 73.4829 33.8553 73.8728C34.8553 75.0549 34.3616 74.5164 35.4053 75.123C35.4365 75.1787 35.4802 75.2034 35.5177 75.2344C35.5302 75.2282 35.5427 75.222 35.5552 75.2158C36.7802 74.9621 36.8239 74.2875 37.0489 73.9037C37.2739 73.5138 36.6364 73.2229 37.2489 73.2229C37.8613 73.2229 39.4113 72.4679 39.4425 71.3353C39.53 68.3336 44.8297 69.559 44.4734 68.903C44.1172 68.2532 42.5486 68.0489 42.7173 67.7209C42.886 67.3929 43.086 67.102 43.5547 66.6564C44.0297 66.2046 44.6859 66.1056 44.4984 65.4681Z" fill="#C62829"/>
<path fill-rule="evenodd" clip-rule="evenodd" d="M89.2834 56.6251C88.7247 56.8398 87.7915 58.2388 87.7915 58.2388C87.7915 58.2388 87.4169 59.5076 86.2044 59.2148C84.9918 58.9285 81.9382 60.0087 82.0334 60.9782C82.1287 61.9477 83.7031 62.2796 84.3951 62.4813C85.087 62.683 86.7313 63.9844 86.7313 63.9844L89.423 63.3922L89.969 62.7741C89.969 62.7741 91.6895 58.0175 91.3657 57.1781C91.0483 56.3388 89.842 56.4103 89.2834 56.6251Z" fill="#C62829"/>
<path fill-rule="evenodd" clip-rule="evenodd" d="M112.34 63.3221C111.47 55.6451 106.732 47.3209 98.8688 39.914L98.8624 39.9014L98.8561 39.8952C92.8158 34.2096 84.94 29.058 75.5525 25.1504C1.10723 -5.81545 -24.1716 94.2251 62.3227 100.702C80.3415 102.053 91.5265 98.8175 91.7615 95.2177C91.9076 93.044 88.1665 92.623 85.2893 91.5488C79.1538 89.2557 74.892 86.9878 77.2865 80.9505C78.6901 77.401 83.7967 76.5654 89.0621 77.646C93.451 78.5444 97.5794 79.5118 101.886 79.292C107.513 79.0093 113.566 75.6796 112.34 63.3221ZM92.3585 43.2814C92.5236 43.8656 92.2251 45.8257 92.0981 46.3095C92.0346 46.5482 91.8822 46.655 91.698 46.6927C91.7043 46.7241 91.7107 46.7429 91.7297 46.7618C91.8885 46.611 92.0282 46.4854 92.0282 46.4854C91.9774 47.0068 92.7714 46.3346 92.6888 46.6801C92.6253 46.9377 92.0409 47.3712 92.3522 47.5031C92.6634 47.6413 93.47 49.0863 93.3811 49.4381C93.2858 49.7899 93.5843 49.9281 93.2414 50.2359C92.8984 50.5438 92.9428 50.5187 92.7777 50.481L92.7714 50.4747C92.5935 50.6317 92.5554 50.6569 92.4157 50.6255C92.2505 50.5878 92.2251 50.4181 92.1743 50.3239C92.1235 50.2297 91.6662 50.594 91.5074 50.5438C91.0628 50.4056 91.1454 50.1983 90.6055 50.0349C90.3959 49.9721 90.091 49.3627 90.1228 48.9355C90.1482 48.5146 90.6309 47.5408 90.7961 47.4214C90.9421 47.3209 91.482 46.8183 91.6281 46.6801C91.5963 46.6801 91.5646 46.6676 91.5328 46.6676C91.3169 46.8309 91.031 46.8623 90.7706 46.7555C90.415 46.611 90.1228 46.0896 89.964 45.7629C89.8052 45.4362 89.367 44.7828 89.5131 44.5692C89.621 44.4122 90.5801 42.9547 91.3169 42.8165C91.7361 42.5338 92.1489 42.5338 92.3585 43.2814ZM89.9449 39.4617C89.9704 39.4554 90.0148 39.4742 90.0466 39.4805C90.1228 39.4177 90.1927 39.3423 90.3006 39.3172C90.5674 39.2543 91.1136 39.6753 91.6408 40.9443C91.9711 41.7296 91.7361 41.8867 91.3677 41.9244C91.2025 42.1442 90.7643 42.0689 90.3959 42.1191C90.2689 42.2196 90.18 42.3704 90.2054 42.672C90.2181 42.8165 90.1228 42.628 90.0085 42.295C89.9005 42.4018 89.8306 42.5463 89.8497 42.8165C89.8941 43.3379 88.554 39.7884 89.9449 39.4617ZM86.4707 47.2832C86.7883 47.3712 87.0741 46.9754 87.3345 47.7481C87.3917 47.9303 87.4996 48.6716 87.4171 48.6968C87.3345 48.7219 87.6076 48.8978 87.5441 48.9418C87.4806 48.9795 87.4234 49.7334 86.8327 49.8841C86.7184 49.9155 86.6422 49.947 86.5406 49.9847C86.5215 49.9909 86.5088 50.0098 86.4898 50.0161C85.8991 50.1668 85.4608 50.481 85.1369 50.2359C84.813 49.9909 84.8447 50.0726 84.7876 49.9595C84.7304 49.8464 84.5843 49.6705 84.6732 49.5198C84.7622 49.369 84.8193 49.3313 84.8193 49.3313L84.6034 49.08C84.6034 49.08 84.3048 48.546 84.2223 48.5083C84.1397 48.4706 84.0635 48.4392 84.2985 48.2382C84.5271 48.0371 84.5335 48.0183 84.5716 47.9554C84.6097 47.8926 84.8447 47.5471 85.0226 47.4717C85.0734 47.4529 85.1432 47.4717 85.2068 47.4843C85.2639 47.434 85.3147 47.3649 85.3655 47.3461C85.537 47.2769 85.8101 47.4089 85.8483 47.4277C85.8673 47.4277 85.8737 47.4152 85.8991 47.4152C85.9245 47.3837 86.0134 47.2707 86.2611 47.2832C86.5469 47.2958 86.35 47.2518 86.4707 47.2832ZM82.0247 39.0345C82.1708 38.8648 82.4121 38.8334 82.8186 39.0407C84.0254 39.669 84.1651 40.536 84.2096 40.5988C84.8765 41.6605 86.7629 43.4635 85.4989 44.7075C84.7177 45.4739 84.3938 45.6121 84.2032 45.6058C83.8285 45.8194 83.7078 45.6938 83.5998 45.6687C83.4283 45.6247 82.9647 44.8331 82.9647 44.8331C82.5074 43.3693 82.0755 42.8227 81.7452 41.3527C81.7198 41.2898 81.0719 38.9905 82.0247 39.0345ZM80.4495 49.6454L80.5575 49.7334C80.7163 49.5951 80.8242 49.5072 80.8242 49.5072L81.904 50.3993C81.904 50.3993 82.0945 51.6495 81.796 51.951C81.4975 52.2526 81.3006 52.5541 80.7671 52.7992C80.6527 52.8494 80.5448 52.8683 80.4304 52.9122C80.4114 52.9185 80.4114 52.9311 80.3923 52.9374C79.8588 53.1824 79.2872 53.3332 79.122 53.1007C78.9569 52.8683 78.4043 52.083 78.6203 51.5364C78.8362 50.9898 80.4495 49.6454 80.4495 49.6454ZM74.9047 40.2847C75.127 40.0334 75.5081 40.0648 76.2893 40.4731C76.2893 40.4731 77.35 41.3904 77.7438 41.849C78.4234 42.6531 78.1439 43.6457 78.0232 43.985C78.0359 43.985 78.0487 43.9787 78.0614 43.985C78.1947 43.8028 78.4615 43.6018 78.8807 44.274C79.4714 45.2163 78.8934 46.5859 78.8997 46.8937C78.8807 47.0194 78.9061 47.1513 78.868 47.2769C78.7346 47.7418 78.4424 48.1439 78.0105 48.4203C78.0105 48.4203 77.8899 48.4203 77.7438 48.4203C77.693 48.458 77.693 48.5271 77.6358 48.5648C77.6358 48.5648 76.8736 48.5648 76.8101 48.5334C76.4354 48.3575 75.3747 46.6236 75.6287 45.7629L75.9654 45.0593L75.6033 44.7326C75.6033 44.7326 74.098 43.2374 74.2378 41.5725C74.3013 40.6804 74.441 40.2784 74.9047 40.2847ZM74.1044 52.7866C74.1107 52.7866 74.1234 52.7929 74.1298 52.7929C74.1552 52.774 74.1806 52.7363 74.206 52.7238C74.5998 52.529 76.7148 53.4462 77.0197 53.9237C77.4516 54.5959 77.5088 54.7781 77.2357 55.1488C77.1404 55.2807 76.9943 55.3121 76.8673 55.3372C76.7974 55.4189 76.7148 55.4566 76.6259 55.4817C76.6386 55.532 76.6704 55.6011 76.7784 55.7205C77.2611 56.2859 77.007 57.1152 77.007 57.1152C77.007 57.1152 76.8736 57.1089 76.6831 57.0963V57.1026C76.6831 57.1026 74.9936 57.0146 74.7205 56.8576C74.4474 56.7005 73.844 56.1163 73.7868 55.5634C73.7551 55.2242 73.2533 55.4063 73.1771 55.2744C73.158 55.243 73.1453 55.1739 73.1326 55.0985C73.0818 54.7907 73.05 54.219 72.9294 54.1436C72.7706 54.0431 73.7297 52.9688 74.1044 52.7866ZM52.3509 48.703C52.7447 48.0999 53.0114 48.0622 53.7799 47.9617C54.5485 47.8612 54.3008 47.9869 54.3198 47.3398C54.3325 46.8686 54.6501 46.8246 55.0756 46.9314C55.3106 46.8246 55.6854 46.9189 56.1173 47.0948C56.7778 47.3649 57.9465 49.2496 57.6924 49.4381C57.6099 49.5009 57.3939 49.4255 57.1526 49.3187C57.1526 49.3564 57.1907 49.4381 57.1653 49.4507C57.0065 49.57 56.4412 49.2496 55.9966 49.0549C56.0411 49.4318 56.9811 50.4496 56.9303 51.3605C56.8795 52.3531 55.8886 53.4902 55.444 53.8169C54.9931 54.1436 52.1222 54.5896 52.1222 54.5896C52.1222 54.5896 52.1095 54.5331 52.1032 54.5205C51.8046 54.5708 51.595 54.6022 51.595 54.6022C51.595 54.6022 51.1504 53.308 51.8491 52.328C52.5541 51.3479 51.5442 52.039 51.0933 51.4861C50.6423 50.9333 50.7185 50.6255 51.3346 49.4758C51.9444 48.3261 51.9571 49.3062 52.3509 48.703ZM45.1229 37.2691C45.2245 36.911 45.3388 36.6974 45.4595 36.5781C45.4849 36.4398 45.4659 36.3079 45.5167 36.176C45.7199 35.6671 45.9168 35.5163 46.101 35.4661C46.0184 34.1719 45.9994 32.2244 46.4758 31.2255C47.2062 29.6988 47.13 30.302 47.5428 30.2517C47.5619 30.2077 47.5809 30.1575 47.6063 30.1198C48.559 28.5931 48.3621 29.2968 48.8449 29.2402C49.3276 29.19 50.6741 28.2225 51.5569 29.768C52.4398 31.3134 49.4292 35.8116 49.4292 35.8116L49.0417 36.3268L49.2323 37.3257L49.1815 38.7455C49.1815 38.7455 48.7496 41.183 48.6734 41.2396C48.6734 41.2396 48.648 41.2459 48.6416 41.2521C48.6353 41.2647 48.6289 41.315 48.6289 41.315C48.5463 41.3778 47.5364 41.5851 47.5364 41.5851L46.8124 41.315L46.3805 40.6428L46.3678 40.6616C46.3678 40.6616 46.1137 40.9946 46.0502 40.6365C45.9867 40.2721 44.7227 38.7203 45.1229 37.2691ZM42.8999 44.2865C42.8999 44.2865 43.046 44.3682 43.2492 44.4876L43.427 44.274C43.427 44.274 46.1455 45.8006 46.5901 46.5608C47.0347 47.3146 46.4186 48.6528 46.2344 49.0549C46.1137 49.3124 45.6945 49.3753 45.1928 49.3313C44.818 49.3815 44.3099 49.3313 43.8018 49.2056C42.957 48.9983 42.5887 48.6025 42.0742 48.2444C41.5597 47.8863 41.5343 45.9514 41.5343 45.9514L42.8999 44.2865ZM35.475 34.4923C35.2845 33.9646 36.0466 32.1113 36.0911 31.9856C36.1419 31.8663 36.396 30.6349 37.9203 28.9198C38.5237 28.2413 38.9874 28.1974 39.3367 28.3795C40.3656 27.9461 40.842 29.479 40.842 29.479C40.842 29.479 41.89 29.2025 41.0135 32.4003C40.1433 35.5917 39.2478 35.6797 39.2478 35.6797L39.8893 35.8996L38.8667 38.1424L39.2986 38.5005C39.2986 38.5005 38.7524 39.9768 38.492 40.1088C38.2951 40.2093 38.1045 41.0323 37.1645 40.7433C36.8215 40.9003 36.2689 40.8501 35.2908 40.0711C33.3028 38.4879 36.4785 35.3216 36.4785 35.3216C35.3226 35.6231 35.6656 35.02 35.475 34.4923ZM33.2837 46.0079C33.4997 44.6383 34.0586 45.1975 34.5413 44.9462C34.7319 44.8457 34.4207 44.9839 34.878 44.8708C35.005 44.8394 35.0685 44.8708 35.1574 44.8834C35.1955 44.8771 35.2337 44.8708 35.3226 44.8457C35.5131 44.7954 35.6338 44.8268 35.7354 44.8582C35.9069 44.7514 36.1292 44.6258 36.3261 44.6635C36.3579 44.6698 36.4023 44.7137 36.4341 44.7326C36.5484 44.6886 36.6691 44.6195 36.7644 44.6383C37.0756 44.7012 37.5329 45.2038 37.6155 45.2917C37.6917 45.3797 37.7107 45.4174 38.1299 45.6687C38.5491 45.92 38.4348 45.9953 38.3141 46.0896C38.1934 46.1838 37.8441 47.1764 37.8441 47.1764L37.5646 47.6665C37.5646 47.6665 37.6663 47.7041 37.8441 47.924C38.0219 48.1439 37.8314 48.4894 37.7679 48.6968C37.7044 48.9041 37.7361 48.7533 37.2788 49.2747C37.0692 49.5135 36.7834 49.5575 36.4468 49.5323C35.9895 49.6517 35.367 49.4318 34.6176 49.3941C33.6267 49.3439 33.3473 48.1125 33.2393 48.0685C33.125 48.0246 33.5188 47.6413 33.379 47.6225C33.252 47.5973 33.2329 46.3346 33.2837 46.0079ZM28.8187 48.0183C28.6345 48.6025 29.06 49.3941 28.825 49.57C28.59 49.7522 27.434 49.8653 27.5103 49.9218C27.5865 49.9784 27.5484 50.4244 27.3705 50.5626C27.1927 50.7008 26.9831 50.5438 26.9513 50.6883C26.9259 50.8391 26.964 51.0652 26.7671 51.1972C26.5893 51.3165 26.583 51.3102 26.1638 51.1343C26.1447 51.1595 26.1447 51.1909 26.1193 51.2097C25.9224 51.3416 25.9923 51.3479 25.4333 51.1155C24.8744 50.883 25.192 50.5564 24.9316 50.1417C24.6648 49.7334 25.0967 47.4529 25.4333 47.1262C25.77 46.7995 24.5886 46.5608 24.6712 46.2089C24.7347 45.9074 24.9824 46.1336 25.3254 46.1964C25.3698 46.0016 25.5032 46.0456 25.681 46.1084C25.7128 45.9388 25.4206 45.6435 25.4206 45.6435L25.4397 45.6498C25.3508 45.5996 25.2555 45.587 25.1856 45.4802C24.8299 44.9148 23.6486 42.4961 23.6168 41.6542C23.5978 41.2082 24.3345 41.0951 25.1094 41.1077C25.9224 40.9946 27.1419 41.1642 27.5039 41.271C28.0692 41.4343 27.5103 41.6479 27.5103 41.6479C27.2245 41.7673 27.3705 42.1065 27.3705 42.1065C27.3705 42.1065 27.5166 42.1819 27.7834 42.3893C28.0501 42.5966 27.9485 43.1808 27.885 43.6771C27.8215 44.1797 27.6627 44.9964 27.2753 45.3608C26.9704 45.6498 26.5131 45.8634 26.1638 45.6687C26.3797 45.7629 27.2943 46.1775 27.523 46.2404C27.7707 46.3283 29.0029 47.434 28.8187 48.0183ZM24.6775 35.5289C25.6493 34.9195 26.4242 34.285 26.7163 34.5928C27.3832 34.2599 27.6881 34.4483 27.3134 36.1823C26.8878 38.1738 28.0247 38.312 28.0247 38.312C28.4185 39.8386 27.5166 40.1904 26.6528 40.1716C26.4623 40.1653 26.2781 40.1904 26.1066 40.2156C26.0812 40.2156 26.0558 40.2218 26.024 40.2218C25.4587 40.3224 25.0459 40.5297 25.0459 40.5297C25.0459 40.5297 25.0078 40.4731 24.957 40.3789C24.6331 40.4731 24.4171 40.5799 24.4171 40.5799C24.4171 40.5799 24.036 40.1464 23.6486 38.2869C23.2611 36.4336 24.3663 35.7237 24.6775 35.5289ZM51.0679 81.3337C51.0107 81.5095 50.6677 81.5723 50.2549 81.5975C49.8865 82.0247 47.6508 81.7168 46.914 81.8676C45.8216 82.2257 43.7764 82.9356 42.6395 83.3628C42.4362 83.4382 42.2203 83.501 41.9535 83.5701C41.9472 83.5764 41.9345 83.5764 41.9217 83.5827C41.4454 83.7586 41.0008 83.8717 39.6225 84.0979C38.6761 84.2549 36.4658 83.6204 35.1574 83.2058V83.212C35.1447 83.2058 35.113 83.1869 35.0939 83.1869C34.535 83.011 34.1412 82.8728 34.1412 82.8728C34.1412 82.8728 34.1476 82.8162 34.1476 82.7346C33.3473 82.3011 32.42 81.7357 32.312 81.6163C31.6641 80.894 32.0135 81.6163 29.4856 80.7997C29.0791 80.6678 29.2379 80.4165 28.6599 80.5359C24.3409 81.4343 19.7742 73.6944 21.7749 70.2139C22.0861 69.6674 22.4799 68.2413 22.5371 67.4308C22.7721 63.7305 23.1786 54.5457 27.1546 53.4651C27.4404 53.3897 27.7389 53.1573 28.0311 53.1698C28.3105 53.0379 28.5964 52.8243 28.8822 52.9311C29.6444 53.2264 30.0826 52.6295 30.8257 52.8557C31.5625 53.0756 32.3183 53.1196 33.1758 52.9185C33.4806 52.7992 33.7855 52.6672 34.1221 52.4788C34.2365 52.4097 34.3381 52.4159 34.4334 52.4473C34.5731 52.3782 34.6938 52.3405 34.8399 52.2589C35.2654 52.0139 35.5068 52.6233 35.945 52.8494C36.5166 52.8683 37.5519 52.9876 37.8822 52.8934C38.2125 52.7992 38.8413 53.2955 40.4482 52.9311C41.3247 52.7301 41.5026 52.7992 41.8709 53.4023C42.2393 54.0054 44.0431 53.8106 44.1956 53.7478C44.6529 53.5593 44.5767 53.7666 45.5865 53.9363L45.739 53.7918C45.993 53.8609 46.1518 53.9488 46.3551 54.0305C46.6536 54.0556 46.9966 54.0745 47.4158 54.087C49.1116 54.1373 53.2274 57.2157 53.113 57.3727H53.0813C53.1829 57.5612 53.0813 57.7434 53.2845 58.1266C53.8053 59.113 52.9415 62.4929 51.9634 64.1577C51.9698 64.164 51.9634 64.1766 51.9698 64.1828C51.9571 64.1954 51.9317 64.2205 51.919 64.2394C51.7475 64.5221 51.5696 64.7671 51.3981 64.9179C51.3981 64.9179 51.3981 64.9179 51.3918 64.9242C51.2139 65.2131 51.0615 65.5398 51.0679 65.8602C51.0615 66.1806 50.547 66.6769 50.0262 67.0539C50.1024 67.3429 50.1342 67.7826 50.0072 68.5428C49.8103 69.7616 51.1822 75.0137 51.8809 75.7864C52.5605 76.5466 52.2048 76.8544 52.5351 77.8156C52.9225 78.9213 51.2076 80.8877 51.0679 81.3337ZM56.0347 77.5706C54.5421 79.0218 54.5739 77.9978 53.9514 78.3747C53.8435 78.4376 53.7482 78.337 53.6529 78.18C53.5767 78.1863 53.5068 78.1737 53.3989 78.2365C52.7764 78.6135 52.3255 74.4482 52.3255 74.4482C51.6077 73.9771 54.974 73.619 55.9267 73.3237C56.4158 73.1729 56.835 73.2043 57.197 73.374C57.7877 73.4117 58.2577 73.7635 58.6388 74.3854C59.1596 75.2335 57.5273 76.1194 56.0347 77.5706ZM57.5845 46.7681C56.6699 46.2592 56.7334 45.3671 56.3332 44.9273C55.9394 44.4939 56.9176 41.9558 57.5464 41.4972C58.1625 41.0448 58.8167 40.5297 59.1469 40.4606C59.8964 38.4565 60.9126 36.1571 61.389 36.1697C62.0241 36.1823 62.075 36.1069 62.2846 35.5666C62.4688 35.0891 63.0467 34.5551 63.4024 34.8127C63.6501 34.6431 63.9169 34.618 64.0693 34.9132C64.3805 35.4975 64.8633 36.9927 64.6537 37.8911C64.4504 38.7706 64.9458 39.8323 64.5584 39.958C64.7362 39.9203 65.0602 39.9266 64.7553 40.4166C64.3424 41.0825 62.8689 41.9369 62.0686 42.0312C62.3989 42.3453 62.6148 42.6406 62.5005 42.8542C62.3036 43.2311 61.7701 43.7965 61.4398 44.1295C61.2874 44.2865 61.2239 44.808 61.1985 44.9462C61.1604 45.1284 60.9126 44.8708 61.0778 45.1095C61.3001 45.4362 60.7475 45.2917 60.5189 45.4425C60.3664 45.543 60.4998 45.6749 60.3156 45.744C60.1949 45.788 60.2711 45.8446 60.1695 45.92C59.8837 46.1461 59.5153 46.4791 59.6932 46.567C59.8837 46.6676 59.3375 47.0319 58.6515 46.9314C58.3657 46.9942 57.9846 46.9942 57.5845 46.7681ZM66.5273 70.1197C65.8223 70.9175 65.0665 71.1311 64.4187 71.5144C64.1709 71.6589 61.6367 72.752 61.3509 72.6389C61.3255 72.6264 61.3191 72.6075 61.2937 72.6012C60.9889 72.7017 60.7412 72.7646 60.6649 72.7332C57.6924 71.5646 61.8717 65.7597 64.533 65.7723C65.8985 65.3451 67.0863 66.0236 67.1434 69.0077C67.1561 69.5229 66.9529 69.6422 66.5273 70.1197ZM70.6113 52.0013C70.7064 51.8442 70.5542 52.0201 70.5288 51.9071C70.5097 51.8191 70.4525 51.505 70.3509 51.417C70.1286 51.2286 69.7729 50.9144 69.6332 50.6946C69.5506 50.5564 69.7285 50.3365 69.9762 50.0977C69.5316 49.9595 68.7249 48.7596 68.4201 48.3575C67.7468 47.478 68.1406 46.1775 68.4074 45.876C68.5026 45.7692 68.617 45.7503 68.7313 45.7503C68.7377 45.7378 68.7504 45.7126 68.7567 45.7001C69.2077 45.1912 69.9571 46.1336 70.0016 46.1461C70.37 46.2341 72.0656 48.791 72.0656 48.791C72.0592 48.835 71.9957 48.8978 71.9576 48.9543C72.1926 49.0549 72.4975 49.2308 72.8087 49.413C73.2279 49.6643 73.9265 51.172 73.6852 51.4673C73.4438 51.7626 73.5073 52.3091 72.9294 52.6798C72.8277 52.7426 72.7261 52.7677 72.6245 52.7992C72.6054 52.818 72.6054 52.8369 72.58 52.8557C72.002 53.2264 71.3923 52.9248 71.5447 52.8306C71.6591 52.7615 71.4114 52.5793 71.2208 52.4599C71.151 52.4159 71.2018 52.3782 71.1192 52.3594C70.9985 52.328 71.0811 52.24 70.9795 52.1835C70.8334 52.0955 70.478 52.2149 70.6113 52.0013ZM73.8694 65.9231C73.717 66.0173 72.8786 65.0749 72.7388 65.0184C72.3831 64.8676 71.7988 64.8236 71.4431 64.3776C71.1764 64.0446 71.0557 63.7808 71.0176 63.5546C70.0651 61.651 74.549 62.3421 74.8158 63.9818C75.1016 64.5158 74.9428 65.188 73.8694 65.9231ZM79.3316 65.7032C79.3952 65.7848 79.4206 65.8602 79.3443 65.9293C79.3443 65.9293 79.4333 68.7501 78.9823 68.5554C78.5314 68.3606 78.6457 69.0391 77.5151 68.2098C76.3846 67.3806 75.851 66.9471 75.4827 66.3188C75.4382 66.2435 75.4763 66.1492 75.47 66.0613C75.1016 65.433 76.2448 64.3839 76.9117 64.497C77.5723 64.6038 79.7635 65.2948 79.3316 65.6718C79.3316 65.6655 79.3316 65.6906 79.3316 65.7032ZM92.0028 68.0968C88.3761 68.3732 86.693 70.5909 83.9555 70.2767C83.6633 70.2705 83.3775 70.2265 83.1044 70.1511C82.5836 70.0946 82.1072 69.8935 81.6626 69.592C81.3832 69.4663 81.1291 69.3784 80.8242 69.2025C80.3288 68.9072 80.6845 68.1282 80.8433 67.5628C80.8496 67.5502 80.8433 67.5376 80.8433 67.5251C81.4848 65.031 76.4925 60.5265 76.9816 58.3716C77.0832 57.9444 76.6894 58.0324 77.3817 57.4858C77.4135 57.4607 77.4707 57.4293 77.5088 57.4041C78.0042 56.7571 79.2999 55.3247 80.0113 54.9791C80.9449 54.5331 81.3324 54.4389 81.5293 54.4012C81.5991 54.3698 81.6753 54.3321 81.7516 54.2944C81.7643 54.2755 81.777 54.2755 81.796 54.2378C81.8468 54.131 82.8059 53.8483 83.0663 53.6536C83.4029 53.4023 83.2759 53.195 83.8031 53.1573C84 53.1384 84.1524 53.107 84.2985 53.0693C84.6669 52.8871 85.0099 52.7238 85.3338 52.5793C85.3782 52.5353 85.4291 52.4976 85.4672 52.485C85.4862 52.4788 85.4735 52.5039 85.4862 52.5039C85.4926 52.5039 85.4989 52.4976 85.4989 52.4976C85.6196 52.4473 85.9054 52.3217 86.1912 52.2023C86.2611 52.0955 86.3437 52.0264 86.458 52.0641C86.4961 52.0516 86.5088 51.995 86.5596 52.0076C86.5723 52.0076 86.5787 52.0076 86.5977 52.0076C86.6104 51.9887 86.6358 51.9887 86.6549 51.9699C86.8137 51.7626 86.8835 51.4799 87.1313 51.5364C88.2046 51.7626 88.8144 51.4108 89.5003 51.172C91.1581 50.6003 91.5582 50.9082 91.6853 50.9647L91.698 50.971C91.9901 50.9898 92.1235 51.0715 92.187 51.0904C93.5716 51.6306 93.8956 51.6746 94.0607 52.2526C94.4037 52.529 94.7276 52.8808 95.0261 53.396C96.5441 56.0346 98.7989 67.5753 92.0028 68.0968Z" fill="#C62829"/>
</svg>
