<svg xmlns="http://www.w3.org/2000/svg" xmlns:xlink="http://www.w3.org/1999/xlink" viewBox="0 0 91.8 113.3"><defs><linearGradient id="a" x1="39.57" y1="80.54" x2="93.18" y2="20.8" gradientUnits="userSpaceOnUse"><stop offset="0" stop-color="#ba2009"/><stop offset="1" stop-color="#e52410"/></linearGradient></defs><path d="M82.2,2.6c22.7,0,29.6,27.8,18.1,56.6A97.5,97.5,0,0,1,87.1,82.3H32.5c-3.5-.1-7.1-.3-8.4-.9-3.9-1.4-6.3-4.6-3.6-9l36.2-30H26.6l8.1-11H62.1c4.3,0,15.2,0,16.6,4.6.7,2.2-.8,4.7-2.5,6.1L42,71.3H77.8A84,84,0,0,0,86,56c9.3-23.2,3.5-46-14.8-46-7.5,0-15.9,3.1-23.8,8.5C58.6,8.6,71,2.6,82.2,2.6Z" transform="translate(-14 -2.6)" style="fill-rule:evenodd;fill:url(#a)"/><path d="M82.6,88.3c-13.9,16-31.5,27.7-45.1,27.6-17.8-.1-27.3-18.9-22-43.7-.9,16.7,7.1,29.2,20.4,29.4,8.7.1,18.7-5.2,27.7-13.3Z" transform="translate(-14 -2.6)" style="fill:#1b2230;fill-rule:evenodd"/></svg>