<svg id="Layer_1" data-name="Layer 1" xmlns="http://www.w3.org/2000/svg" viewBox="0 0 95.86 111.1"><defs><style>.cls-1{fill:#3a8fc5;}.cls-1,.cls-2{fill-rule:evenodd;}.cls-2{fill:#fff;}</style></defs><path class="cls-1" d="M89.75,103.39h0l-19-10.68a45.42,45.42,0,0,1-12.56,2.07h-1a45.17,45.17,0,0,1-1-90.32A45.18,45.18,0,0,1,102.4,48.65,44.36,44.36,0,0,1,89.82,80.89Z" transform="translate(-12.07 -4.45)"/><path class="cls-2" d="M47.93,45.4c.06,3-1.69,4.56-5.25,4.65l-3.38.07-.2-9L42.47,41Q47.83,40.91,47.93,45.4ZM35.34,34.53h0c-2.09,0-3.52.5-4.31,1.39s-1,2.22-1,4.22l.51,23.68c.08,3.69,1.43,5.51,4,5.46s3.86-1.93,3.78-5.63l-.13-5.89,5.26-.11c3.76-.09,6.68-1.19,8.75-3.33s3-5,3-8.55a11.11,11.11,0,0,0-3.51-8.41q-3.49-3.12-9.33-3Z" transform="translate(-12.07 -4.45)"/><path class="cls-2" d="M72.3,61.71a10.78,10.78,0,0,1-2.46-.24,14.9,14.9,0,0,1-2.23-.63l-2-.53a6.55,6.55,0,0,0-1.68-.25c-2.58.06-3.84,1.2-3.79,3.45,0,1.39,1.1,2.6,3.21,3.65a17.59,17.59,0,0,0,8,1.47A14.46,14.46,0,0,0,81,65.23a10,10,0,0,0,3.4-8q-.15-7-9.67-9.78l-1.41-.4-.29,0-.33-.09-.6-.19a13.69,13.69,0,0,1-2-.72,2.48,2.48,0,0,1-1.69-2.28c0-1.92,1.2-2.92,3.74-3a7.48,7.48,0,0,1,1.59.16l1.56.39a9.33,9.33,0,0,0,1.55.36,6.74,6.74,0,0,0,1.45.16c2.35-.05,3.49-1.14,3.45-3.26,0-1.35-.91-2.48-2.62-3.37a13.77,13.77,0,0,0-6.84-1.35,13.41,13.41,0,0,0-9,3.19,9.43,9.43,0,0,0-3.21,7.54,7.34,7.34,0,0,0,2.49,5.79c1.47,1.31,3.94,2.42,7.4,3.31a18,18,0,0,1,4.42,1.59,3.27,3.27,0,0,1,1.65,2.82Q76.17,61.62,72.3,61.71Z" transform="translate(-12.07 -4.45)"/><path class="cls-1" d="M102.07,115.55h0a5.81,5.81,0,0,1-5.91-5.92,5.89,5.89,0,1,1,11.77,0,5.87,5.87,0,0,1-1.68,4.2A5.67,5.67,0,0,1,102.07,115.55Z" transform="translate(-12.07 -4.45)"/></svg>