<svg xmlns="http://www.w3.org/2000/svg" width="60" height="61" fill="none"><g clip-path="url(#a)"><path fill="#09090C" d="M0 29.3C0 15.723 0 8.935 4.218 4.718 8.435.5 15.223.5 28.8.5h2.4c13.577 0 20.365 0 24.582 4.218C60 8.935 60 15.723 60 29.3v2.4c0 13.577 0 20.365-4.218 24.582C51.565 60.5 44.777 60.5 31.2 60.5h-2.4c-13.577 0-20.365 0-24.582-4.218C0 52.065 0 45.277 0 31.7z"/><path fill="#fff" d="M41.836 23.059v14.824l-21.563 9.433V13.625zM36.445 16.657v3.433l-5.39-2.38v-4.085zM41.836 19.69v2.779l-4.717-2.082v-3.35z"/></g><defs><clipPath id="a"><path fill="#fff" d="M0 .5h60v60H0z"/></clipPath></defs></svg>