<svg width="120" height="120" viewBox="0 0 120 120" fill="none" xmlns="http://www.w3.org/2000/svg">
<path d="M113.903 59.4384C115.28 57.3897 116.879 55.5272 118.665 53.9255C118.851 55.49 118.926 57.0544 119 58.6562C117.326 59.0659 115.652 59.3266 113.941 59.4384H113.903ZM86.2995 107.378C87.0436 108.905 87.676 110.507 88.1596 112.146C86.7831 112.891 85.3695 113.562 83.9186 114.195C84.4022 111.848 85.2207 109.539 86.2995 107.378ZM34.7005 13.6218C33.9564 12.0946 33.324 10.4928 32.8404 8.85387C34.2169 8.10888 35.6305 7.4384 37.0814 6.80516C36.5978 9.11461 35.8165 11.4241 34.7005 13.6218ZM88.0852 8.85387C87.6016 10.5301 86.9692 12.0946 86.2251 13.6218C85.1463 11.4241 84.3278 9.15186 83.8442 6.80516C85.2951 7.4384 86.7087 8.10888 88.0852 8.85387ZM112.006 88.1576C108.174 80.3352 107.951 70.9484 112.006 62.6791C115.838 70.5014 116.061 79.8882 112.006 88.1576ZM110.146 91.361C105.049 99.0344 96.7905 103.542 88.0852 104.138C93.1819 96.4642 101.441 91.957 110.146 91.361ZM84.365 106.261C79.5288 113.487 71.4932 118.404 62.3043 119C67.1405 111.774 75.1761 106.857 84.365 106.261V106.261ZM58.5841 119C49.3952 118.404 41.3596 113.524 36.5234 106.261C45.7122 106.857 53.7479 111.736 58.5841 119ZM10.8169 91.361C19.5221 91.9198 27.7809 96.4642 32.9148 104.138C24.2095 103.579 15.9507 99.0716 10.8169 91.361ZM8.95676 62.6418C13.049 70.9112 12.8258 80.298 8.95676 88.1203C4.86455 79.851 5.08776 70.4642 8.95676 62.6418ZM8.95676 32.8424C12.7886 40.6648 13.0118 50.0516 8.95676 58.3209C5.12496 50.4986 4.90175 41.1117 8.95676 32.8424ZM10.8169 29.6017C15.9135 21.9284 24.1723 17.4212 32.8404 16.8252C27.7437 24.4986 19.4849 29.0057 10.8169 29.6017V29.6017ZM36.5606 14.7393C41.3968 7.47564 49.4324 2.59599 58.6213 2C53.7851 9.22636 45.7494 14.1433 36.5606 14.7393V14.7393ZM62.3415 2C71.5304 2.59599 79.5288 7.47564 84.4022 14.7393C75.2134 14.1433 67.2149 9.26361 62.3415 2ZM110.183 29.639C101.515 29.0802 93.2191 24.5358 88.1224 16.8625C96.7905 17.4585 105.086 21.9656 110.183 29.639ZM112.043 58.3582C107.951 50.0888 108.174 40.702 112.043 32.8797C116.135 41.149 115.912 50.5358 112.043 58.3582ZM88.0852 76.4613C96.7905 77.0201 105.049 81.5272 110.183 89.2006C100.994 88.6046 92.9215 83.6877 88.0852 76.4613V76.4613ZM32.8404 76.4613C28.0041 83.7249 19.9685 88.6046 10.7796 89.2006C15.8763 81.5272 24.1351 77.0201 32.8404 76.4613ZM32.8404 44.5387C24.1723 43.9799 15.9135 39.4728 10.7796 31.7994C19.9685 32.3954 28.0041 37.3123 32.8404 44.5387ZM88.0852 44.5387C92.9215 37.2751 100.957 32.3954 110.146 31.7994C105.049 39.4728 96.7905 43.9799 88.0852 44.5387ZM104.566 62.4928C106.426 62.0086 108.286 61.6734 110.146 61.5616C107.765 65.1375 104.566 68.2665 100.622 70.5759C96.6789 72.8481 92.4006 74.0774 88.1224 74.3381C91.9914 68.5272 97.7577 64.3181 104.566 62.4928V62.4928ZM86.2251 103.095C85.4067 101.418 84.737 99.6304 84.2162 97.7679C82.3933 90.9513 83.1374 83.8739 86.2251 77.5788C88.1224 81.4155 89.2385 85.7364 89.2385 90.318C89.2385 94.8997 88.1224 99.2206 86.2251 103.095ZM84.4022 104.138C80.124 103.877 75.8458 102.648 71.8652 100.375C67.9218 98.1032 64.7224 94.9742 62.3787 91.4355C71.5304 92.0315 79.566 96.9484 84.4022 104.175V104.138ZM58.4725 97.8052C58.9561 95.9427 59.663 94.1547 60.4814 92.4785C64.3504 100.301 64.5736 109.725 60.4814 117.994C57.3936 111.736 56.6496 104.622 58.4725 97.8052ZM58.6213 91.4355C56.2032 95.086 53.0038 98.1404 49.0976 100.413C45.1542 102.685 40.8388 103.914 36.5606 104.175C41.3968 96.9484 49.4324 92.0315 58.6213 91.4355ZM34.7005 77.616C37.7882 83.8739 38.5323 90.9885 36.7094 97.8052C36.2258 99.6676 35.5561 101.456 34.7005 103.132C32.8032 99.2951 31.6871 94.937 31.6871 90.3553C31.6871 85.7736 32.8032 81.4527 34.7005 77.616ZM16.3599 62.4928C23.1679 64.3181 28.9342 68.5272 32.8404 74.3381C28.4878 74.0774 24.2095 72.8109 20.3033 70.5387C16.3227 68.2292 13.1234 65.1375 10.7796 61.5244C12.6397 61.6361 14.537 61.9713 16.3599 62.4556V62.4928ZM16.3599 58.5072C14.4998 58.9914 12.6397 59.3266 10.7796 59.4384C13.1606 55.8625 16.3599 52.7335 20.3033 50.4241C24.2095 48.1891 28.4506 46.9226 32.8032 46.6246C28.9342 52.4728 23.1679 56.6447 16.3599 58.4699V58.5072ZM34.7377 17.9427C35.5561 19.6189 36.2258 21.4069 36.7466 23.2693C38.5695 30.086 37.8254 37.1633 34.7377 43.4585C32.8404 39.6218 31.7243 35.3009 31.7243 30.7192C31.7243 26.1375 32.8404 21.8166 34.7377 17.9427V17.9427ZM36.5606 16.8997C40.8388 17.1605 45.117 18.3897 49.0976 20.6619C53.0038 22.8968 56.2032 25.9885 58.6213 29.6017C49.4324 29.0057 41.3968 24.1261 36.5606 16.8625V16.8997ZM60.4442 28.5587C59.6258 26.8825 58.9561 25.0946 58.4353 23.2321C56.6124 16.4155 57.3564 9.33811 60.4442 3.04298C64.5364 11.3123 64.276 20.7364 60.4442 28.5587ZM62.3415 29.5645C64.7224 25.9885 67.8846 22.8968 71.828 20.6246C75.8086 18.3152 80.0868 17.086 84.365 16.8252C79.5288 24.0888 71.4932 28.9685 62.3043 29.5645H62.3415ZM86.1879 43.384C83.1002 37.1261 82.3561 30.0115 84.179 23.1948C84.6626 21.3324 85.3323 19.5817 86.1879 17.8682C88.0852 21.7421 89.2013 26.063 89.2013 30.6447C89.2013 35.2264 88.1224 39.51 86.1879 43.384ZM104.528 58.4699C97.6833 56.6447 91.917 52.4355 88.048 46.5874C92.3262 46.8481 96.6045 48.0774 100.585 50.3868C104.566 52.6963 107.728 55.788 110.109 59.4011C108.249 59.2894 106.351 58.9542 104.528 58.4699ZM86.1879 73.1834C84.2906 69.3467 83.1746 65.0258 83.1746 60.4441C83.1746 55.8625 84.2906 51.5788 86.1879 47.7049C88.0852 51.5415 89.2013 55.8625 89.2013 60.4441C89.2013 65.0258 88.1224 69.3095 86.1879 73.1834ZM71.7908 80.2235C75.7714 77.914 80.0496 76.6848 84.3278 76.4241C79.4916 83.6877 71.456 88.6046 62.2299 89.2006C64.648 85.5501 67.8846 82.4957 71.7536 80.2235H71.7908ZM48.986 80.2235C52.9294 82.4957 56.1288 85.6246 58.5097 89.2006C49.3208 88.6046 41.3224 83.6877 36.4862 76.4613C40.7644 76.7221 45.0426 77.9513 49.0232 80.2235H48.986ZM34.6261 47.7421C36.5234 51.5788 37.6394 55.8997 37.6394 60.4814C37.6394 65.063 36.5606 69.3467 34.6261 73.2206C32.7288 69.384 31.6127 65.063 31.6127 60.4814C31.6127 55.8997 32.7288 51.616 34.6261 47.7421V47.7421ZM49.0232 40.7393C45.0426 43.0115 40.7644 44.2407 36.4862 44.5014C41.3224 37.2751 49.358 32.3582 58.5097 31.7622C56.1288 35.3381 52.9666 38.4298 48.986 40.7393H49.0232ZM71.7536 40.7393C67.8474 38.5043 64.648 35.4126 62.2299 31.7622C71.4188 32.3582 79.4544 37.2378 84.2906 44.5014C80.0124 44.2407 75.7342 43.0487 71.7536 40.7393ZM62.2671 61.5616C71.456 62.1576 79.4544 67.0745 84.2906 74.3009C75.6226 73.7421 67.3638 69.235 62.2671 61.5616V61.5616ZM84.3278 46.6246C79.4916 53.8883 71.456 58.8052 62.2299 59.3639C67.3266 51.6905 75.6226 47.1834 84.3278 46.6246ZM60.407 62.6418C63.4948 68.8997 64.2388 76.0143 62.4159 82.8309C61.9323 84.6934 61.2626 86.4814 60.407 88.1576C56.538 80.3352 56.3148 70.9112 60.407 62.6418V62.6418ZM60.407 58.2837C56.3148 50.0143 56.5752 40.5903 60.407 32.7679C61.2254 34.4441 61.8951 36.2321 62.4159 38.0946C64.2388 44.9112 63.4948 51.9885 60.407 58.2837ZM42.0665 47.5186C48.8744 49.3438 54.6407 53.5158 58.5097 59.3639C49.3208 58.7679 41.2852 53.851 36.449 46.5874C38.3463 46.6991 40.2064 47.0344 42.0665 47.5186ZM36.449 74.3009C41.2852 67.0372 49.3208 62.1203 58.5097 61.5244C54.6407 67.3352 48.8744 71.5444 42.0665 73.3696C40.2064 73.8539 38.3463 74.1891 36.449 74.3009ZM95.228 13.361C92.9587 14.106 90.6149 14.553 88.1596 14.702C89.0897 13.2865 90.1685 11.9456 91.359 10.7163C92.6983 11.5358 94.0003 12.4298 95.2652 13.361H95.228ZM29.641 10.7163C30.8315 11.9456 31.9103 13.2865 32.8404 14.702C30.3851 14.553 28.0041 14.106 25.772 13.361C27.0369 12.4298 28.3389 11.5358 29.641 10.7163V10.7163ZM2.33482 53.9628C4.12051 55.5645 5.72019 57.3897 7.05946 59.4756C5.34817 59.3639 3.63688 59.1032 2 58.6934C2.0372 57.0917 2.14881 55.5272 2.33482 53.9628ZM2 62.3811C3.67409 61.9713 5.34817 61.7106 7.05946 61.5989C5.68299 63.6476 4.08331 65.51 2.33482 67.0745C2.14881 65.51 2.0372 63.9456 2 62.3811H2ZM25.7348 107.676C28.0041 106.931 30.3851 106.484 32.8404 106.335C31.8731 107.751 30.8315 109.092 29.641 110.321C28.3017 109.501 26.9997 108.607 25.7348 107.676V107.676ZM32.8404 112.183C33.324 110.507 33.9564 108.943 34.7005 107.415C35.7793 109.613 36.5978 111.923 37.0814 114.232C35.6305 113.599 34.2169 112.928 32.8404 112.183V112.183ZM91.3218 110.321C90.1313 109.092 89.0525 107.751 88.1224 106.335C90.5777 106.484 92.9587 106.931 95.228 107.676C93.9631 108.607 92.661 109.501 91.3218 110.321ZM118.628 67.0745C116.842 65.4728 115.243 63.6476 113.866 61.5616C115.577 61.6734 117.289 61.9341 118.926 62.3438C118.888 63.9456 118.777 65.51 118.591 67.0372" fill="#65569B"/>
</svg>
