<?xml version="1.0" encoding="UTF-8"?> <svg xmlns="http://www.w3.org/2000/svg" width="79" height="116" viewBox="0 0 79 116" fill="none"><g clip-path="url(#clip0_4_36)"><path d="M5.66854 114.671C5.37824 115.19 4.98339 115.481 4.67202 115.647C4.07034 115.979 3.40549 116 3.05276 116C2.30517 116 1.43274 115.813 0.747583 114.962C0.0834826 114.131 0 113.093 0 112.428V105.078C0 104.206 0.0413652 103.313 0.685159 102.42C1.51622 101.257 2.82412 101.049 3.61307 101.049C4.69308 101.049 5.60687 101.403 6.18824 101.984C6.74855 102.544 7.24719 103.479 7.24719 104.828V105.41H5.17066V104.683C5.17066 104.33 5.12929 103.873 4.7555 103.499C4.54792 103.292 4.19444 103.084 3.63413 103.084C3.09412 103.084 2.72033 103.313 2.47139 103.603C2.07654 104.081 2.07654 104.621 2.07654 105.14V111.951C2.07654 112.387 2.09759 113.01 2.42927 113.446C2.67896 113.757 3.09412 113.965 3.59276 113.965C4.02822 113.965 4.52686 113.737 4.79687 113.383C5.17066 112.906 5.17066 112.2 5.17066 111.681V109.729H3.40549V107.86H7.24719V115.792H6.20855L5.66854 114.671Z" fill="#010202"></path><path d="M20.6856 101.257C21.7446 101.257 23.2819 101.195 24.2573 102.399C24.7349 102.98 25.026 103.853 25.026 104.932V106.033C25.026 106.967 24.6936 107.84 24.2573 108.338C23.946 108.691 23.5308 108.94 23.157 109.085L25.4411 115.792H23.2819L21.267 109.521H20.0418V115.792H17.9661V101.257H20.6856ZM20.0418 107.652H21.2256C21.6829 107.652 22.1184 107.549 22.5132 107.175C22.9284 106.781 22.9495 106.427 22.9495 105.867V104.828C22.9495 104.268 22.7419 103.769 22.4719 103.499C22.0567 103.084 21.5581 103.126 21.1219 103.126H20.0418V107.652Z" fill="#010202"></path><path d="M35.4327 105.078C35.4327 103.977 35.5162 102.918 36.5127 101.984C37.1355 101.403 37.9869 101.049 39.0669 101.049C40.1461 101.049 40.9975 101.403 41.621 101.984C42.6175 102.918 42.7002 103.977 42.7002 105.078V111.972C42.7002 113.072 42.6175 114.131 41.621 115.066C40.9975 115.647 40.1461 116 39.0669 116C37.9869 116 37.1355 115.647 36.5127 115.066C35.5162 114.131 35.4327 113.072 35.4327 111.972V105.078ZM40.6237 104.766C40.6237 104.33 40.5823 103.894 40.1882 103.499C39.9596 103.272 39.5858 103.084 39.0669 103.084C38.5479 103.084 38.1741 103.272 37.9455 103.499C37.5506 103.894 37.5093 104.33 37.5093 104.766V112.283C37.5093 112.719 37.5506 113.156 37.9455 113.55C38.1741 113.778 38.5479 113.965 39.0669 113.965C39.5858 113.965 39.9596 113.778 40.1882 113.55C40.5823 113.156 40.6237 112.719 40.6237 112.283V104.766Z" fill="#010202"></path><path d="M55.4953 101.257V112.283C55.4953 113.28 55.9736 113.965 56.8867 113.965C57.7997 113.965 58.278 113.28 58.278 112.283V101.257H60.3538V111.972C60.3538 115.17 58.4435 116 56.8867 116C55.3298 116 53.4195 115.17 53.4195 111.972V101.257H55.4953Z" fill="#010202"></path><path d="M71.1569 101.257H74.2495C75.143 101.257 76.2441 101.299 77.1571 102.212C78.1123 103.188 78.2161 104.455 78.2161 105.535V105.95C78.2161 106.76 78.1334 107.964 77.3241 108.899C76.4727 109.874 75.3506 110.04 74.4571 110.04H73.2327V115.792H71.1569V101.257ZM73.2327 108.171H74.3533C74.7489 108.171 75.3085 108.11 75.7447 107.632C76.1809 107.154 76.1403 106.656 76.1403 106.137V105.182C76.1403 104.683 76.1599 103.977 75.5792 103.499C75.1009 103.105 74.5203 103.126 73.9592 103.126H73.2327V108.171Z" fill="#010202"></path><path d="M69.3762 55.535L62.6113 62.3275L62.9893 62.7145L69.3762 56.2908V66.2813H69.4223C69.4223 76.0508 63.8003 83.9861 56.9525 83.9861C50.1048 83.9861 44.4919 75.9678 44.4919 66.1893L44.4026 38.4732V27.8499L35.9758 36.259C35.9391 36.7476 35.9205 37.236 35.9205 37.7244V66.2813H35.9851C35.9851 71.7191 37.9943 77.0277 42.1048 81.1383C42.1509 81.1844 42.197 81.2028 42.2429 81.2489C48.4826 87.3778 58.547 87.1014 64.7311 80.9171L69.3762 76.2351V85.6911L70.2291 84.8374C75.1715 79.8898 77.9476 73.1826 77.9476 66.1893V46.9085L69.3762 55.535Z" fill="#E0AF7A"></path><path d="M71.9745 22.8668C71.9564 22.8486 71.9382 22.8304 71.9199 22.8123C71.8739 22.7661 71.837 22.72 71.7909 22.674C68.1238 19.0719 63.1268 17.6783 58.3741 18.3961C58.3527 18.3994 58.3309 18.4026 58.3094 18.406C55.3816 18.8602 52.6759 20.2413 50.4951 22.2469L44.4025 27.85C44.4025 27.85 44.3831 32.365 44.3831 34.3708C44.3831 29.1766 48.0755 24.4682 52.0359 21.942C53.5661 20.966 55.1109 19.9811 56.9258 19.9736C56.9378 19.9736 56.9497 19.9736 56.9617 19.9736C63.3303 19.9736 68.6113 26.8768 69.3117 35.7153L71.9078 33.1261C74.7387 30.303 74.7977 25.6978 71.9745 22.8668Z" fill="#E0AF7A"></path><path d="M44.3832 34.3708C44.3818 34.433 44.3762 34.4953 44.3762 34.5575C44.3762 35.7633 44.3792 35.3916 44.3832 34.3708Z" fill="#E0AF7A"></path><path d="M35.8193 36.3125L29.0544 43.1051L29.4324 43.492L35.8193 37.0683V47.0588H35.8654C35.8654 56.8284 30.2434 64.7636 23.3956 64.7636C16.5478 64.7636 10.935 56.7453 10.935 46.9668L10.8456 20.2596V9.63641L2.41883 18.0454C2.38211 18.534 2.36359 19.0225 2.36359 19.5109V47.0588H2.42813C2.42813 52.4966 4.43734 57.8052 8.54781 61.9158C8.59396 61.9619 8.64004 61.9804 8.686 62.0265C14.9257 68.1554 24.99 67.8789 31.1742 61.6946L35.8193 57.0127V66.4687L36.6722 65.615C41.6145 60.6674 44.3907 53.9601 44.3907 46.9668V27.686L35.8193 36.3125Z" fill="black"></path><path d="M38.4176 4.65328C38.3995 4.63505 38.3813 4.61682 38.363 4.59876C38.317 4.55253 38.2801 4.50647 38.234 4.46049C34.5669 0.858309 29.5699 -0.535288 24.8172 0.18257C24.7958 0.185812 24.774 0.189097 24.7525 0.192424C21.8247 0.646662 19.119 2.0278 16.9382 4.03339L10.8457 9.63642C10.8457 9.63642 10.8262 14.1514 10.8262 16.1572C10.8262 10.963 14.5186 6.25469 18.479 3.72848C20.0092 2.75242 21.554 1.76758 23.3689 1.76008C23.3809 1.76003 23.3928 1.76 23.4048 1.76C29.7734 1.76 35.0544 8.66329 35.7548 17.5017L38.3509 14.9126C41.1819 12.0894 41.2408 7.48424 38.4176 4.65328Z" fill="black"></path><path d="M10.8262 16.1572C10.8248 16.2195 10.8192 16.2817 10.8192 16.344C10.8192 17.5498 10.8222 17.1781 10.8262 16.1572Z" fill="black"></path></g><defs><clipPath id="clip0_4_36"><rect width="78.2161" height="116" fill="white"></rect></clipPath></defs></svg> 