<svg width="48" height="48" viewBox="0 0 48 48" fill="none" xmlns="http://www.w3.org/2000/svg">
<g clip-path="url(#clip0_67_13086)">
<rect width="219" height="81" transform="translate(-16 -16)" fill="white"/>
<path d="M28.0711 38.7957V29.2681H20.0583V38.7957H13.9472L21.3858 46.3158C21.7409 46.6754 22.1626 46.9606 22.6269 47.1552C23.0911 47.3499 23.5887 47.4501 24.0913 47.4501C24.5939 47.4501 25.0915 47.3499 25.5557 47.1552C26.02 46.9606 26.4417 46.6754 26.7968 46.3158L34.2354 38.7957H28.0711ZM9.92264 34.7383V14.242L2.48403 21.7621C2.12769 22.1207 1.84494 22.5469 1.652 23.0163C1.45906 23.4856 1.35974 23.9889 1.35974 24.4972C1.35974 25.0055 1.45906 25.5088 1.652 25.9782C1.84494 26.4475 2.12769 26.8737 2.48403 27.2323L9.92264 34.7383ZM20.0583 10.1988V19.7263H28.0711V10.1988H34.1934L26.7548 2.68429C26.3997 2.32473 25.978 2.03948 25.5137 1.84485C25.0495 1.65022 24.5519 1.55005 24.0493 1.55005C23.5467 1.55005 23.0491 1.65022 22.5849 1.84485C22.1206 2.03948 21.6989 2.32473 21.3438 2.68429L13.9052 10.2044L20.0583 10.1988ZM45.6314 21.7621L38.1927 14.242V34.7383L45.6314 27.2323C45.987 26.8734 46.2692 26.447 46.4617 25.9777C46.6542 25.5084 46.7533 25.0053 46.7533 24.4972C46.7533 23.9891 46.6542 23.4861 46.4617 23.0167C46.2692 22.5474 45.987 22.1211 45.6314 21.7621V21.7621Z" fill="#DA291C"/>
</g>
<defs>
<clipPath id="clip0_67_13086">
<rect width="48" height="48" fill="white"/>
</clipPath>
</defs>
</svg>
