<svg xmlns="http://www.w3.org/2000/svg" version="1.1" xmlns:xlink="http://www.w3.org/1999/xlink" width="512" height="512"><svg width="512" height="512" viewBox="0 0 512 512" fill="none" xmlns="http://www.w3.org/2000/svg">
<path d="M0 256C0 151.738 0 99.6067 25.6135 62.4992C35.5726 48.0709 48.0709 35.5726 62.4992 25.6135C99.6067 0 151.738 0 256 0V0C360.262 0 412.393 0 449.501 25.6135C463.929 35.5726 476.427 48.0709 486.387 62.4992C512 99.6067 512 151.738 512 256V256C512 360.262 512 412.393 486.387 449.501C476.427 463.929 463.929 476.427 449.501 486.387C412.393 512 360.262 512 256 512V512C151.738 512 99.6067 512 62.4992 486.387C48.0709 476.427 35.5726 463.929 25.6135 449.501C0 412.393 0 360.262 0 256V256Z" fill="#F90043"></path>
<mask id="SvgjsMask1013" style="mask-type:alpha" maskUnits="userSpaceOnUse" x="0" y="0" width="512" height="512">
<path d="M0 256C0 151.738 0 99.6067 25.6135 62.4992C35.5726 48.0709 48.0709 35.5726 62.4992 25.6135C99.6067 0 151.738 0 256 0V0C360.262 0 412.393 0 449.501 25.6135C463.929 35.5726 476.427 48.0709 486.387 62.4992C512 99.6067 512 151.738 512 256V256C512 360.262 512 412.393 486.387 449.501C476.427 463.929 463.929 476.427 449.501 486.387C412.393 512 360.262 512 256 512V512C151.738 512 99.6067 512 62.4992 486.387C48.0709 476.427 35.5726 463.929 25.6135 449.501C0 412.393 0 360.262 0 256V256Z" fill="#F90043"></path>
</mask>
<g mask="url(#mask)">
<path opacity="0.54" fill-rule="evenodd" clip-rule="evenodd" d="M1596.73 1076.06L1047.51 861.705L96.2982 748.399L-146.221 395.779L-159.721 390.511L-159.605 390.213C-155.207 392.157 -150.745 394.014 -146.221 395.779C349.854 609.225 208.77 -149.101 683.095 36.0328C1071.6 187.669 996.801 837.562 1596.73 1076.06Z" fill="url(#gradient)"></path>
<path d="M117.982 175.86V337.763H222.339V308.852H152.31V175.86H117.982Z" fill="white"></path>
<path d="M257.807 175.86V337.763H317.537C329.666 337.763 340.651 336.144 350.263 332.443C359.875 328.743 368.113 323.654 374.979 316.716C381.845 309.777 386.879 301.451 390.541 291.274C394.203 281.328 396.033 269.764 396.033 256.811C396.033 243.859 394.203 232.526 390.541 222.349C386.879 212.404 381.845 204.077 374.979 197.139C368.113 190.2 359.875 185.111 350.263 181.411C340.651 177.71 329.666 175.86 317.537 175.86H257.807ZM360.561 256.811C360.561 264.675 359.646 271.845 357.815 278.322C355.984 284.798 353.467 290.117 349.805 294.743C346.144 299.369 341.795 303.07 336.303 305.382C330.81 307.927 324.174 309.083 316.622 309.083H292.363V204.54H316.622C324.174 204.54 330.81 205.928 336.303 208.24C341.795 210.785 346.144 214.254 349.805 218.88C353.467 223.506 355.984 229.057 357.815 235.533C359.646 242.009 360.561 248.948 360.561 256.811Z" fill="white"></path>
</g>
<defs>
<linearGradient id="SvgjsLinearGradient1012" x1="494.192" y1="161.39" x2="-188.104" y2="825.877" gradientUnits="userSpaceOnUse">
<stop stop-color="#893636"></stop>
<stop offset="1" stop-color="#893636" stop-opacity="0"></stop>
</linearGradient>
</defs>
</svg><style>@media (prefers-color-scheme: light) { :root { filter: none; } }
@media (prefers-color-scheme: dark) { :root { filter: none; } }
</style></svg>