<svg width="120" height="120" viewBox="0 0 120 120" fill="none" xmlns="http://www.w3.org/2000/svg">
<path d="M0 16C0 7.16344 7.16344 0 16 0H104C112.837 0 120 7.16344 120 16V104C120 112.837 112.837 120 104 120H16C7.16344 120 0 112.837 0 104V16Z" fill="white"/>
<path d="M108.265 14.609C107.032 13.7312 103.752 13.0004 100.954 13.0004H72.266C71.0331 13.0004 69.4663 14.0594 68.2449 15.5115C65.533 18.702 60.7714 23.8426 58.2522 23.875C55.7559 23.896 50.5363 18.7554 47.5458 15.5402C46.1583 14.069 44.2499 13.0004 42.6506 13.0004H14.5715C11.7756 13.0004 9.5007 15.2807 9.5007 18.0704V37.9362V98.7014C9.5007 101.485 10.5122 104.485 11.7317 105.361C12.9684 106.254 16.2738 107 19.0392 107H44.6621C47.4561 107 49.7214 104.71 49.7214 101.928V88.2753C49.7214 85.4875 51.336 84.8234 53.3074 86.7869L54.1738 87.6761C56.1434 89.6453 58.7828 91.9695 60.0061 92.8529C61.2466 93.746 63.8573 92.8529 65.8231 90.8895L66.6799 90.0231C68.6705 88.0406 70.2888 88.716 70.2888 91.5096V98.7014C70.2888 101.485 71.2793 104.485 72.5141 105.361C73.7412 106.254 77.0352 107 79.8139 107H105.424C108.223 107 110.5 104.71 110.5 101.928V21.3066C110.5 18.5226 109.487 15.5115 108.265 14.609Z" fill="#A8D394"/>
<path d="M72.752 13C71.2137 13 69.4961 14.1583 68.2938 15.742C65.6582 19.2072 61.0283 24.7791 58.3526 24.8954C55.3678 25.029 49.1921 17.904 46.5355 14.6296C45.7416 13.6297 44.1137 13 42.272 13L14.5715 13.0004C11.7756 13.0004 9.5 15.2802 9.5 18.0719L9.5007 37.9362V98.7014C9.5007 101.485 11.7768 103.758 14.5727 103.758H40.1918C42.982 103.758 45.2282 101.485 45.2282 98.701V83.8021C45.2282 81.0067 46.8561 80.3522 48.8237 82.329L54.1738 87.6761C56.1434 89.6472 59.3813 89.6468 61.347 87.6757L66.6792 82.329C68.6698 80.3522 70.2881 81.0067 70.2881 83.8136L70.2888 98.7014C70.2888 101.485 72.5477 103.758 75.336 103.758H100.953C103.751 103.758 106.013 101.485 106.013 98.701V18.0719C106.013 15.2802 103.752 13.0004 100.954 13.0004L72.752 13Z" fill="#4FB338"/>
<path d="M47.3457 27.5996H28.4939V78.66H40.1489V38.1651L52.092 78.1104H63.7469L75.6824 38.1651V78.66H87.3373V27.5996H68.4551L57.9166 67.8503L47.3457 27.5996Z" fill="#ED1C24"/>
</svg>
