<svg width="26" height="26" viewBox="0 0 26 26" fill="none" xmlns="http://www.w3.org/2000/svg">
<path d="M24.2654 10.2934C26.6063 7.9525 26.5739 4.18929 24.1923 1.80771C21.8107 -0.573866 18.0475 -0.606304 15.7066 1.73457L13 4.44119L21.5588 13L24.2654 10.2934Z" fill="#F5B38A"/>
<path d="M1.73469 15.7066C-0.606183 18.0475 -0.573742 21.8107 1.80784 24.1923C4.18942 26.5739 7.95262 26.6063 10.2935 24.2654L13.0001 21.5588L4.44131 13L1.73469 15.7066Z" fill="#434081"/>
<path d="M10.2934 1.73457C7.9525 -0.606304 4.18929 -0.573866 1.80771 1.80771C-0.573866 4.18929 -0.606304 7.9525 1.73457 10.2934L4.4412 13L13 4.44119L10.2934 1.73457Z" fill="#F5B38A"/>
<path d="M21.5588 13L13 21.5588L15.7066 24.2654C18.0475 26.6063 21.8107 26.5739 24.1923 24.1923C26.5739 21.8107 26.6063 18.0475 24.2654 15.7066L21.5588 13Z" fill="#434081"/>
<path d="M13 4.44141L4.44116 13.0002L13 21.559L21.5588 13.0002L13 4.44141Z" fill="#B66BB4"/>
</svg>
