<svg width="17" height="16" viewBox="0 0 17 16" fill="none" xmlns="http://www.w3.org/2000/svg">
    <g clip-path="url(#clip0)">
        <rect x="0.8125" width="16" height="16" fill="#7B102E"/>
        <mask id="mask0" mask-type="alpha" maskUnits="userSpaceOnUse" x="0" y="0" width="17" height="16">
            <rect x="0.8125" width="16" height="16" fill="#7B102E"/>
        </mask>
        <g mask="url(#mask0)">
            <path fill-rule="evenodd" clip-rule="evenodd"
                  d="M15.7507 11.3356C14.4003 7.20783 12.7265 2.10559 12.6958 1.84442C12.6335 1.31268 13.1246 1.03667 13.4135 0.995117H7.05241C7.31853 1.03667 8.02439 1.24343 7.98481 1.84442C7.96552 2.13824 7.75926 2.69471 7.67121 2.94055L6.88424 5.17287C6.25604 4.78804 5.47599 4.44475 4.65587 4.26421C3.41828 4.00403 2.11588 4.10988 1.2552 5.3272C0.997991 5.67889 0.845641 6.12011 0.8125 6.58606V7.0352C0.908955 8.27922 1.84284 9.52968 3.84367 9.67609L3.89462 9.54501C3.40789 9.56579 2.8989 9.41789 2.43542 9.08648C1.36699 8.32176 1.0895 6.89719 1.81563 5.90395C2.43691 5.05465 3.59239 4.79743 4.58266 5.21986C5.21877 5.43503 5.8994 5.80947 6.52908 6.20172L4.74441 11.303C4.39124 12.2433 3.99404 13.1767 3.04532 13.6377C2.86823 13.7242 2.19552 13.9602 2.19552 13.9602H7.77509C7.26115 13.9033 6.10072 13.5051 6.28176 12.5376C6.36437 12.0954 6.49743 11.5152 6.62603 11.0829L7.92892 7.04311C8.08127 7.13314 8.23412 7.23108 8.39487 7.34583C8.70007 7.55803 9.01466 7.81179 9.32727 8.1061C10.5985 9.26752 11.9533 10.9904 11.8124 12.4308C11.7293 13.281 10.7637 13.9181 10.1523 13.9597H18.0355C18.0355 13.9597 17.5126 13.7584 17.3197 13.6782C16.3804 13.2885 16.0396 12.178 15.7507 11.3356ZM9.32678 6.75869C9.02159 6.49653 8.66792 6.23486 8.26528 5.99051L9.04632 3.52917L9.32678 4.42794L10.3883 7.83701C10.1964 7.57535 9.82637 7.17469 9.32678 6.75869Z"
                  fill="#FCB713"/>
            <path d="M2.02468 6.27767C1.54537 7.1987 1.90547 8.40315 2.82946 8.96803C3.23061 9.21337 3.64908 9.29548 4.03391 9.23464L4.3767 7.77495C2.70481 7.8541 2.1241 6.5611 2.58362 5.832C2.90019 5.32994 3.48585 5.278 4.1551 5.44222C3.32806 5.16522 2.43523 5.48921 2.02468 6.27767Z"
                  fill="#FCB713"/>
            <path fill-rule="evenodd" clip-rule="evenodd"
                  d="M8.98979 13.7103L8.98873 14.4884C8.98873 14.4884 9.00888 14.8282 8.7078 14.9002C8.39983 14.9723 8.25778 14.9464 8.34206 15.0508H9.94232C10.0261 14.9474 9.88295 14.9766 9.57498 14.9008C9.34759 14.8462 9.30306 14.6098 9.29511 14.49V13.7103C11.1053 13.3806 10.7151 11.6764 10.0229 10.5474H8.26891C7.55597 11.6838 7.18811 13.354 8.98979 13.7103Z"
                  fill="#CC2128"/>
        </g>
    </g>
    <defs>
        <clipPath id="clip0">
            <rect width="16" height="16" fill="white" transform="translate(0.8125)"/>
        </clipPath>
    </defs>
</svg>
