<svg width="13" height="16" viewBox="0 0 13 16" fill="none" xmlns="http://www.w3.org/2000/svg">
<g clip-path="url(#clip0_702_6276)">
<mask id="mask0_702_6276" style="mask-type:luminance" maskUnits="userSpaceOnUse" x="-3" y="-3" width="19" height="22">
<path d="M-2.59961 -2.66634H15.8075V18.667H-2.59961V-2.66634Z" fill="white"/>
</mask>
<g mask="url(#mask0_702_6276)">
<path d="M8.47743 9.81096C8.47743 10.9317 8.13416 12.3527 6.66094 12.3527H6.60368H6.54634C5.07313 12.3527 4.72986 10.9317 4.72986 9.81096C4.72986 9.7978 4.7302 9.78415 4.73027 9.77085C4.7302 9.75748 4.72986 9.7439 4.72986 9.73074C4.72986 8.60997 5.07313 7.18895 6.54634 7.18895H6.60368H6.66094C8.13416 7.18895 8.47743 8.60997 8.47743 9.73074C8.47743 9.7439 8.47715 9.75748 8.47702 9.77085C8.47715 9.78415 8.47743 9.7978 8.47743 9.81096ZM6.86108 3.88642H6.34621C1.46842 3.88642 0.896484 7.70922 0.896484 9.6706V9.87102C0.896484 11.8325 1.46842 15.6553 6.34621 15.6553H6.86108C11.7389 15.6553 12.3108 11.8325 12.3108 9.87102V9.6706C12.3108 7.70922 11.7389 3.88642 6.86108 3.88642Z" fill="#FCC000"/>
</g>
<mask id="mask1_702_6276" style="mask-type:luminance" maskUnits="userSpaceOnUse" x="-3" y="-3" width="19" height="22">
<path d="M-2.59961 -2.66634H15.8075V18.667H-2.59961V-2.66634Z" fill="white"/>
</mask>
<g mask="url(#mask1_702_6276)">
<path d="M3.20671 3.00354C3.20671 3.81601 2.56454 4.47461 1.77233 4.47461C0.980131 4.47461 0.337891 3.81601 0.337891 3.00354C0.337891 2.19107 0.980131 1.53247 1.77233 1.53247C2.56454 1.53247 3.20671 2.19107 3.20671 3.00354Z" fill="#FCC000"/>
</g>
<mask id="mask2_702_6276" style="mask-type:luminance" maskUnits="userSpaceOnUse" x="-3" y="-3" width="19" height="22">
<path d="M-2.59961 -2.66634H15.8075V18.667H-2.59961V-2.66634Z" fill="white"/>
</mask>
<g mask="url(#mask2_702_6276)">
<path d="M6.35905 1.81701C6.35905 2.62949 5.71688 3.28809 4.92468 3.28809C4.13247 3.28809 3.49023 2.62949 3.49023 1.81701C3.49023 1.00454 4.13247 0.345944 4.92468 0.345944C5.71688 0.345944 6.35905 1.00454 6.35905 1.81701Z" fill="#FCC000"/>
</g>
<mask id="mask3_702_6276" style="mask-type:luminance" maskUnits="userSpaceOnUse" x="0" y="0" width="14" height="16">
<path d="M0.0292969 0H13.1772V16H0.0292969V0Z" fill="white"/>
</mask>
<g mask="url(#mask3_702_6276)">
<path d="M9.71647 1.81701C9.71647 2.62949 9.0743 3.28809 8.2821 3.28809C7.4899 3.28809 6.84766 2.62949 6.84766 1.81701C6.84766 1.00454 7.4899 0.345944 8.2821 0.345944C9.0743 0.345944 9.71647 1.00454 9.71647 1.81701Z" fill="#FCC000"/>
</g>
<path d="M12.8708 3.00354C12.8708 3.81601 12.2286 4.47461 11.4364 4.47461C10.6442 4.47461 10.002 3.81601 10.002 3.00354C10.002 2.19107 10.6442 1.53247 11.4364 1.53247C12.2286 1.53247 12.8708 2.19107 12.8708 3.00354Z" fill="#FCC000"/>
</g>
<defs>
<clipPath id="clip0_702_6276">
<rect width="13" height="16" fill="white"/>
</clipPath>
</defs>
</svg>
