<svg xmlns="http://www.w3.org/2000/svg" version="1.1" xmlns:xlink="http://www.w3.org/1999/xlink" width="100" height="100"><svg xmlns="http://www.w3.org/2000/svg" version="1.1" xmlns:xlink="http://www.w3.org/1999/xlink" width="100" height="100"><svg width="100" height="100" viewBox="0 0 100 100" fill="none" xmlns="http://www.w3.org/2000/svg">
<rect width="100" height="100" fill="#FF4D4D"></rect>
<path fill-rule="evenodd" clip-rule="evenodd" d="M44.9888 20C29.3466 20 16.6666 30.6026 16.6666 43.6827C16.6666 46.0256 17.0737 48.289 17.8308 50.4254C18.3223 51.8096 19.8499 52.5395 21.2361 52.051L24.5532 50.8819C25.9316 50.3963 26.6654 48.8842 26.1923 47.5009C25.7891 46.3193 25.5681 45.0466 25.5681 43.6827C25.5681 34.0185 36.6564 28.9014 44.9888 28.9014C53.3213 28.9014 64.4086 34.0185 64.4086 43.6827C64.4086 53.346 53.3213 58.4641 44.9888 58.4641C41.9228 58.4641 38.4836 57.771 35.3613 56.413C33.6689 55.6782 31.7447 56.6272 31.2988 58.4175L26.2883 78.5234C25.982 79.7535 27.5746 80.5416 28.3666 79.5528L38.6106 66.7606C40.6607 67.1551 42.7952 67.3645 44.9888 67.3645C60.6301 67.3645 73.3101 56.7619 73.3101 43.6827C73.3101 30.6026 60.6301 20 44.9888 20ZM79.9956 47.8712C82.1156 50.8441 83.3321 54.3056 83.3321 57.9988C83.3321 62.1126 81.8238 65.9386 79.2366 69.1238L83.2313 78.3363C83.6849 79.3842 82.5362 80.4068 81.5475 79.8359L72.5675 74.6403C68.6514 76.8184 63.9249 78.0921 58.8359 78.0921C53.6693 78.0921 48.8759 76.7786 44.9249 74.5385C44.476 74.2836 44.6554 73.5982 45.1711 73.5953C60.7707 73.5197 76.6679 63.7004 79.194 48.0583C79.2579 47.6657 79.7639 47.5465 79.9956 47.8712Z" fill="white"></path>
</svg></svg><style>@media (prefers-color-scheme: light) { :root { filter: none; } }
@media (prefers-color-scheme: dark) { :root { filter: none; } }
</style></svg>