<svg xmlns="http://www.w3.org/2000/svg" version="1.1" xmlns:xlink="http://www.w3.org/1999/xlink" width="512px" height="512px">
 <svg xmlns="http://www.w3.org/2000/svg" version="1.1" xmlns:xlink="http://www.w3.org/1999/xlink" width="512px" height="512px">
  <svg xmlns="http://www.w3.org/2000/svg" xml:space="preserve" width="512px" height="512px" version="1.1" style="shape-rendering:geometricPrecision; text-rendering:geometricPrecision; image-rendering:optimizeQuality; fill-rule:evenodd; clip-rule:evenodd" viewBox="0 0 5578.94 5578.94" xmlns:xlink="http://www.w3.org/1999/xlink" xmlns:xodm="http://www.corel.com/coreldraw/odm/2003">
 <defs>
  <style type="text/css">
   
    .fil0 {fill:#E31E24}
    .fil1 {fill:white}
   
  </style>
 </defs>
 <g id="Слой_x0020_1">
  <metadata id="CorelCorpID_0Corel-Layer"></metadata>
  <rect class="fil0" x="-0.01" y="-0" width="5578.94" height="5578.94" rx="977.36" ry="977.36"></rect>
  <path class="fil1" d="M4449.27 3362.82l0 -1141.69 583.5 0c84.36,0 155.69,12.03 214.42,36.3 58.54,24.03 104.72,55.66 138.28,94.59 33.58,38.95 57.57,80.74 71.95,125.8 14.16,45.04 21.38,90.52 21.38,136.38 0,103.38 -34.38,194.92 -103.31,274.83 -68.75,79.92 -183.07,119.85 -342.73,119.85l-135.86 0 0 353.94 -447.63 0zm447.63 -845.07l0 194.53 49.55 0c71.36,0 106.93,-32.61 106.93,-98.08 0,-64.2 -35.56,-96.45 -106.93,-96.45l-49.55 0zm-1308.09 514.21l0 -810.83 783.33 0 0 330.88 -335.69 0 0 96.43 302.13 0 0 274.02 -302.13 0 0 109.5 335.69 0 0 330.86 -774.25 0 0 228.16 -380.5 0 0 -228.16 -582.1 0 0 228.16 -380.48 0 0 -559.02c184.02,-116.02 223.47,-242.31 223.47,-488.77l0.16 -322.07 985.16 0 0 810.83 125.21 0zm-707.11 -479.96l0 161.69c0,86.05 -8.6,153.52 -25.57,202.46 -17.23,49.12 -42.8,87.64 -77.15,115.81l236.99 0 0 -479.96 -134.27 0zm-2132.51 481.01c38.16,0 74.1,-8.97 107.89,-27.13 33.76,-17.94 60.55,-45.06 80.71,-80.92 20.2,-36.1 30.39,-79.92 30.39,-131.71 0,-51.38 -10.19,-95.2 -30.39,-131.3 -20.16,-35.87 -46.95,-63 -80.53,-80.94 -33.54,-18.14 -69.52,-27.11 -108.07,-27.11 -38.81,0 -74.96,9.15 -108.73,27.34 -33.77,18.12 -60.76,45.25 -81.16,81.32 -20.36,36.3 -30.75,79.72 -30.75,130.69 0,51.2 10.39,94.8 30.75,131.12 20.4,36.07 47.38,63.18 81.16,81.3 33.77,18.16 69.93,27.34 108.73,27.34zm1080.16 -513.46l0 194.53 49.55 0c71.34,0 106.89,-32.63 106.89,-98.08 0,-64.2 -35.55,-96.45 -106.89,-96.45l-49.55 0zm-1080.16 879.02c-105.35,0 -199.06,-16.33 -281.16,-48.94 -82.16,-32.61 -150.48,-77.68 -205.45,-135.18 -54.74,-57.48 -95.52,-122.5 -122.31,-195.1 -26.79,-72.76 -40.17,-147.99 -40.17,-226.1 0,-78.06 13.38,-153.52 40.17,-226.1 26.79,-72.76 67.56,-137.8 121.91,-194.9 54.55,-57.09 122.68,-101.91 204.61,-134.75 81.75,-32.82 175.85,-49.12 282.4,-49.12 106.08,0 200.03,16.49 281.76,49.34 81.69,33.06 149.63,77.68 203.61,134.32 54.13,56.71 94.69,121.34 121.7,193.88 10.57,28.38 19.04,57.3 25.46,86.74l0 -429.72 583.5 0c84.36,0 155.69,12.03 214.42,36.3 58.54,24.05 104.72,55.66 138.3,94.61 33.56,38.93 57.55,80.73 71.92,125.75 14.2,45.09 21.4,90.56 21.4,136.42 0,103.38 -34.38,194.92 -103.31,274.83 -68.75,79.92 -183.03,119.89 -342.73,119.89l-135.86 0 0 353.9 -447.63 0 0 -430.82c-6.43,29.42 -14.9,58.27 -25.46,86.56 -27,72.4 -67.56,137.19 -121.91,194.3 -54.55,57.09 -122.68,101.93 -204.59,134.75 -81.96,32.82 -175.46,49.16 -280.56,49.16z"></path>
 </g>
</svg></svg><style>@media (prefers-color-scheme: light) { :root { filter: none; } }
@media (prefers-color-scheme: dark) { :root { filter: none; } }
</style></svg>