<svg width="48" height="48" viewBox="0 0 48 48" fill="none" xmlns="http://www.w3.org/2000/svg">
<g clip-path="url(#clip0_156_179)">
<rect width="48" height="48" fill="#CC0029"/>
<path fill-rule="evenodd" clip-rule="evenodd" d="M15.75 36H21V39.3552C21.0001 39.6815 21.0529 39.9828 21.2963 40.2C21.7681 40.6207 22.5293 40.5888 22.95 40.117C22.95 40.117 24.0072 38.8187 24.6 38.25C26.4074 36.4142 27.813 36 30 36H32.25C34.2939 36 36 34.7297 36 32.7V11.1C36 10.7634 35.7366 10.5 35.4 10.5H12.6C12.2634 10.5 12 10.7634 12 11.1V32.7C12 34.7297 13.7061 36 15.75 36ZM15 32.1V13.5H33V32.1C33 32.6449 32.6831 33 32.1 33H30C27.4322 33 25.5108 33.8095 23.55 35.55V33H15.9C15.3169 33 15 32.6449 15 32.1Z" fill="white"/>
</g>
<defs>
<clipPath id="clip0_156_179">
<rect width="48" height="48" rx="9" fill="white"/>
</clipPath>
</defs>
</svg>
