<?xml version="1.0" encoding="UTF-8" standalone="no"?> <svg xmlns="http://www.w3.org/2000/svg" width="336.000000pt" height="290.000000pt" viewBox="0 0 336.000000 290.000000" preserveAspectRatio="xMidYMid meet"> <g transform="translate(0.000000,290.000000) scale(0.100000,-0.100000)" fill="#000000" stroke="none"> <path d="M730 1310 l0 -570 155 0 155 0 0 445 0 445 160 0 160 0 0 -445 0 -445 155 0 155 0 0 570 0 570 -470 0 -470 0 0 -570z"></path> <path d="M1910 1470 l0 -410 -80 0 -80 0 0 -45 0 -45 80 0 c64 0 80 -3 80 -15 0 -12 -16 -15 -80 -15 l-80 0 0 -45 0 -45 80 0 80 0 0 -55 0 -55 155 0 155 0 0 55 0 55 85 0 85 0 0 45 0 45 -85 0 c-69 0 -85 3 -85 15 0 12 16 15 85 15 l85 0 0 45 0 45 -85 0 -85 0 0 30 0 30 88 0 c203 0 345 81 404 229 32 80 33 255 2 322 -30 64 -88 126 -147 156 -86 43 -161 53 -419 53 l-238 0 0 -410z m487 127 c24 -23 28 -36 28 -81 0 -90 -60 -146 -157 -146 l-48 0 0 131 0 131 75 -4 c66 -3 78 -7 102 -31z"></path> </g> </svg> 