<svg width="32" height="32" viewBox="0 0 32 32" fill="none" xmlns="http://www.w3.org/2000/svg">
<g clip-path="url(#clip0_206_8907)">
<path d="M32.5335 11.8152C31.673 10.899 30.665 9.93333 29.5587 8.96762L21.2489 12.7562L27.9115 7.63048C26.9773 6.91238 25.9693 6.24381 24.9121 5.62476L19.1592 11.5924L23.0436 4.65905C22.0111 4.16381 20.9293 3.76762 19.7984 3.49524L16.9711 11.0724L17.5857 3.09905C17.0449 3.04952 16.5286 3 15.9877 3C15.3731 3 14.7584 3.04952 14.1684 3.12381L14.783 11.1467L11.9312 3.56952C10.8248 3.86667 9.76768 4.28762 8.7351 4.78286L12.5458 11.5676L6.9158 5.74857C5.88322 6.36762 4.87523 7.03619 3.96558 7.75429L10.6036 12.8552L2.31839 9.11619C1.21206 10.0819 0.228658 11.0724 -0.631821 11.9638L9.30057 14.861L-2.45113 14.0438C-3.43453 15.2324 -4 16.0495 -4 16.0495C-4 16.0495 -3.45912 16.8419 -2.45113 18.0552L9.39889 17.2133L-0.582663 20.16C0.277816 21.0762 1.26122 22.0419 2.36755 23.0076L10.5544 19.2686L3.99016 24.2457C4.9244 24.9638 5.9078 25.6324 6.94038 26.2514L12.6933 20.3086L8.85803 27.2667C9.8906 27.7619 10.9723 28.1581 12.0787 28.4552L14.8076 21.0019L14.193 28.8762C14.783 28.9505 15.3977 29 16.0123 29C16.5532 29 17.094 28.9752 17.6103 28.901L16.9957 20.8533L19.8722 28.48C20.9785 28.1829 22.0602 27.7867 23.0928 27.2914L19.2329 20.4324L24.9367 26.3257C25.9939 25.7067 27.0018 25.0381 27.9361 24.32L21.1997 19.1448L29.6324 22.9581C30.7388 21.9924 31.7468 21.0019 32.6072 20.0857L22.5028 17.139L34.4511 17.981C35.4591 16.7676 36 15.9752 36 15.9752C36 15.9752 35.4591 15.1829 34.4511 13.9695L22.4044 14.8114L32.5335 11.8152Z" fill="#C38231"/>
</g>
<defs>
<clipPath id="clip0_206_8907">
<rect width="32" height="32" fill="white"/>
</clipPath>
</defs>
</svg>
