<?xml version="1.0" encoding="UTF-8" standalone="no"?>
<!DOCTYPE svg PUBLIC "-//W3C//DTD SVG 1.1//EN" "http://www.w3.org/Graphics/SVG/1.1/DTD/svg11.dtd">
<svg width="100%" height="100%" viewBox="0 0 434 522" version="1.1" xmlns="http://www.w3.org/2000/svg" xmlns:xlink="http://www.w3.org/1999/xlink" xml:space="preserve" xmlns:serif="http://www.serif.com/" style="fill-rule:evenodd;clip-rule:evenodd;stroke-linejoin:round;stroke-miterlimit:2;">
    <g transform="matrix(4.16667,0,0,4.16667,216.684,215.442)">
        <path d="M0,0.508C5.573,0.508 10.288,1.473 10.335,1.483L10.637,0.029C10.439,-0.012 5.733,-0.977 0,-0.977C-5.728,-0.977 -10.719,-0.014 -10.929,0.028L-10.644,1.485C-10.594,1.475 -5.586,0.508 0,0.508" style="fill:black;fill-rule:nonzero;"/>
    </g>
    <g transform="matrix(4.16667,0,0,4.16667,216.684,198.955)">
        <path d="M0,1.163C2.644,1.163 4.467,1.478 4.485,1.482L4.743,0.02C4.665,0.006 2.784,-0.322 0,-0.322C-2.774,-0.322 -4.957,0.003 -5.048,0.017L-4.827,1.485C-4.805,1.482 -2.657,1.163 0,1.163" style="fill:black;fill-rule:nonzero;"/>
    </g>
    <g transform="matrix(4.16667,0,0,4.16667,150.457,165.749)">
        <path d="M0,1.529L0.673,2.852C0.727,2.825 6.1,0.162 15.894,0.162C25.704,0.162 31.164,2.647 31.218,2.671L31.847,1.326C31.615,1.218 26.066,-1.323 15.894,-1.323C5.709,-1.323 0.228,1.413 0,1.529" style="fill:black;fill-rule:nonzero;"/>
    </g>
    <g transform="matrix(4.16667,0,0,4.16667,216.684,69.857)">
        <path d="M0,-1.327C8.083,-1.327 16.79,1.455 16.877,1.483L17.334,0.07C16.97,-0.047 8.322,-2.811 0,-2.811C-8.32,-2.811 -17.122,-0.049 -17.492,0.069L-17.043,1.484C-16.955,1.456 -8.085,-1.327 0,-1.327" style="fill:black;fill-rule:nonzero;"/>
    </g>
    <g transform="matrix(4.16667,0,0,4.16667,295.883,326.583)">
        <path d="M0,3.564L-0.132,2.085C-6.707,2.671 -11.801,-2.552 -11.852,-2.604C-12.11,-2.875 -12.53,-2.911 -12.831,-2.687C-13.132,-2.464 -13.219,-2.052 -13.035,-1.726L-13.015,-1.691C-12.323,-0.472 -11.911,0.912 -11.792,2.421C-11.645,4.284 -14.183,5.04 -14.209,5.047L-14.005,5.761L-13.803,6.475C-13.766,6.464 -12.884,6.211 -12.028,5.609C-10.803,4.749 -10.209,3.606 -10.312,2.304C-10.365,1.631 -10.47,0.979 -10.625,0.35C-8.342,1.974 -4.538,3.968 0,3.564" style="fill:black;fill-rule:nonzero;"/>
    </g>
    <g transform="matrix(4.16667,0,0,4.16667,228.22,318.447)">
        <path d="M0,-17.741C-0.279,-17.755 -0.546,-17.613 -0.686,-17.369C-0.826,-17.125 -0.816,-16.824 -0.661,-16.59C1.788,-12.894 -0.274,-8.621 -0.294,-8.58C-0.324,-8.52 -0.346,-8.456 -0.359,-8.39C-1.331,-3.393 -0.639,0.699 -0.139,2.694L1.301,2.333C0.834,0.47 0.189,-3.342 1.081,-8.014C1.391,-8.685 2.977,-12.467 1.226,-16.249C3.475,-16.3 8.404,-16.691 14.486,-18.868C15.524,-18.369 19.332,-16.457 21.927,-14.071L22.932,-15.163C19.741,-18.098 15.029,-20.257 14.831,-20.347C14.653,-20.428 14.452,-20.435 14.269,-20.368C6.225,-17.431 0.061,-17.738 0,-17.741" style="fill:black;fill-rule:nonzero;"/>
    </g>
    <g transform="matrix(4.16667,0,0,4.16667,242.598,263.512)">
        <path d="M0,1.514L1.061,2.553C1.081,2.532 2.502,1.112 4.694,0.213C4.758,2.04 6.26,3.508 8.102,3.508C9.967,3.508 11.486,2.002 11.513,0.143C13.83,1.037 15.364,2.537 15.385,2.558L16.435,1.508C16.292,1.365 12.878,-1.994 8.184,-1.994C3.485,-1.994 0.14,1.371 0,1.514M10.031,0.094C10.031,1.157 9.166,2.023 8.102,2.023C7.038,2.023 6.172,1.157 6.172,0.094C6.172,-0.031 6.184,-0.153 6.207,-0.274C6.83,-0.42 7.492,-0.51 8.184,-0.51C8.809,-0.51 9.41,-0.438 9.982,-0.316C10.011,-0.182 10.031,-0.046 10.031,0.094" style="fill:black;fill-rule:nonzero;"/>
    </g>
    <g transform="matrix(4.16667,0,0,4.16667,294.427,292.284)">
        <path d="M0,-2.295C-4.082,-0.61 -7.004,-2.055 -7.126,-2.117L-7.809,-0.799C-7.715,-0.75 -6.234,0 -3.919,0C-2.645,0 -1.119,-0.227 0.567,-0.923L0,-2.295Z" style="fill:black;fill-rule:nonzero;"/>
    </g>
    <g transform="matrix(4.16667,0,0,4.16667,377.28,292.462)">
        <path d="M0,-16.071C1.336,-16.952 2.267,-18.132 2.659,-18.874C3.458,-20.386 11.568,-36.017 12.432,-37.7C13.902,-40.563 14.697,-47.296 8.347,-54.376C1.446,-62.07 -14.302,-69.306 -18.852,-69.991C-25.169,-70.943 -27.233,-68.295 -27.898,-66.22C-31.934,-66.75 -35.218,-69.021 -35.253,-69.045L-36.106,-67.83C-35.955,-67.724 -32.55,-65.361 -28.197,-64.762C-28.371,-63.303 -28.188,-61.922 -27.689,-60.792C-33.482,-61.94 -38.058,-61.835 -38.543,-61.819C-39.028,-61.834 -43.604,-61.94 -49.397,-60.792C-48.898,-61.922 -48.715,-63.303 -48.889,-64.762C-44.536,-65.361 -41.131,-67.724 -40.98,-67.83L-41.833,-69.045C-41.868,-69.021 -45.152,-66.75 -49.188,-66.22C-49.853,-68.295 -51.918,-70.943 -58.234,-69.991C-62.784,-69.306 -78.532,-62.07 -85.433,-54.376C-91.783,-47.296 -90.989,-40.563 -89.519,-37.7C-88.651,-36.011 -80.539,-20.377 -79.745,-18.874C-79.353,-18.132 -78.422,-16.952 -77.086,-16.071C-76.65,-15.783 -76.212,-15.559 -75.775,-15.39C-75.364,-14.686 -74.068,-12.379 -72.832,-9.322L-76.321,-11.006C-76.638,-11.158 -77.018,-11.069 -77.232,-10.789L-79.967,-7.225C-80.202,-6.919 -80.162,-6.483 -79.877,-6.223C-79.836,-6.186 -75.755,-2.46 -74.901,-0.077C-73.998,2.44 -73.374,5.44 -73.278,6.21C-73.163,7.13 -72.514,10.024 -68.956,10.476C-68.824,12.077 -68.765,13.439 -68.786,14.495C-68.915,15.69 -70.764,34.338 -61.471,43.422C-55.013,49.734 -50.345,51.469 -47.007,51.938C-46.965,51.952 -46.921,51.968 -46.882,51.979C-45.923,52.261 -44.279,52.191 -43.498,52.136C-42.887,52.867 -41.269,54.485 -38.649,54.865C-38.614,54.869 -38.579,54.872 -38.543,54.872C-38.508,54.872 -38.472,54.869 -38.437,54.865C-35.818,54.485 -34.199,52.867 -33.588,52.136C-32.807,52.191 -31.163,52.261 -30.204,51.979C-30.165,51.968 -30.121,51.952 -30.079,51.938C-26.741,51.469 -22.072,49.734 -15.615,43.422C-6.322,34.338 -8.171,15.69 -8.3,14.495C-8.322,13.439 -8.262,12.077 -8.131,10.476C-4.572,10.024 -3.923,7.13 -3.808,6.21C-3.712,5.44 -3.088,2.439 -2.186,-0.077C-1.331,-2.46 2.749,-6.186 2.79,-6.223C3.076,-6.483 3.115,-6.919 2.88,-7.225L0.146,-10.789C-0.068,-11.069 -0.449,-11.158 -0.766,-11.006L-4.254,-9.322C-3.019,-12.379 -1.722,-14.686 -1.311,-15.39C-0.874,-15.559 -0.436,-15.783 0,-16.071M-10.221,27.902C-10.653,26.905 -11.309,26.08 -12.282,25.216C-12.454,25.063 -13.795,23.962 -16.577,24.076C-16.029,23.326 -15.562,22.442 -15.217,21.38C-14.193,18.237 -14.59,15.427 -14.744,14.608C-14.538,14.072 -13.976,12.59 -13.307,10.661C-12.602,11.982 -11.424,13.806 -9.726,15.235C-9.59,16.971 -9.309,22.197 -10.221,27.902M-17.448,43.122C-21.198,46.652 -24.227,48.523 -26.714,49.514C-26.167,48.831 -25.687,47.999 -25.368,46.996C-24.557,44.447 -24.564,41.707 -25.387,39.668C-25.9,38.396 -27.817,36.377 -29.846,34.238C-30.443,33.61 -31.059,32.96 -31.606,32.362C-31.836,32.11 -32.03,31.849 -32.197,31.585C-31.771,30.715 -30.939,29.31 -29.973,28.647C-29.22,29.21 -27.53,30.371 -25.722,30.921C-23.478,31.604 -20.351,33.023 -19.525,33.734C-18.442,34.667 -16.203,36.601 -17.448,43.122M-29.815,27.02C-29.952,27.003 -30.092,27.024 -30.217,27.081C-31.374,27.609 -32.311,28.827 -32.933,29.847C-33.272,28.472 -33.068,27.342 -33.065,27.325C-32.988,26.939 -33.226,26.561 -33.606,26.462C-34.853,26.138 -38.206,24.641 -38.24,24.626C-38.433,24.54 -38.653,24.54 -38.846,24.626C-38.88,24.641 -42.233,26.138 -43.48,26.462C-43.861,26.561 -44.098,26.939 -44.022,27.325C-44.018,27.343 -43.806,28.473 -44.15,29.853C-44.772,28.832 -45.71,27.61 -46.869,27.081C-46.995,27.024 -47.134,27.003 -47.271,27.02C-47.311,27.025 -51.301,27.514 -54.195,26.524C-56.789,25.636 -59.343,24.343 -60.458,20.921C-61.516,17.669 -60.855,14.743 -60.849,14.715C-60.814,14.568 -60.825,14.414 -60.88,14.274C-60.918,14.176 -64.734,4.338 -65.527,-1.322C-66.277,-6.672 -64.763,-11.201 -63.741,-13.053C-63.731,-13.071 -63.724,-13.085 -63.72,-13.092L-63.722,-13.094C-63.664,-13.206 -63.633,-13.33 -63.637,-13.456C-63.701,-15.694 -63.552,-18.359 -63.231,-19.113C-61.442,-19.841 -49.18,-24.665 -38.543,-24.665C-27.916,-24.665 -15.651,-19.843 -13.856,-19.114C-13.561,-18.409 -13.378,-15.954 -13.449,-13.456C-13.453,-13.33 -13.422,-13.206 -13.364,-13.093L-13.366,-13.092C-13.362,-13.086 -13.356,-13.074 -13.348,-13.058C-12.326,-11.211 -10.809,-6.678 -11.559,-1.322C-12.352,4.336 -16.168,14.176 -16.206,14.274C-16.261,14.414 -16.271,14.568 -16.237,14.714C-16.23,14.743 -15.57,17.669 -16.628,20.921C-17.743,24.343 -20.297,25.636 -22.891,26.524C-25.785,27.514 -29.775,27.025 -29.815,27.02M-51.718,46.996C-51.399,47.999 -50.919,48.831 -50.372,49.514C-52.859,48.523 -55.888,46.653 -59.639,43.122C-60.883,36.601 -58.645,34.667 -57.561,33.734C-56.736,33.023 -53.608,31.604 -51.365,30.921C-49.556,30.371 -47.866,29.21 -47.114,28.647C-46.15,29.309 -45.316,30.716 -44.889,31.586C-45.056,31.85 -45.25,32.11 -45.48,32.362C-46.027,32.96 -46.644,33.61 -47.24,34.238C-49.269,36.377 -51.186,38.396 -51.699,39.668C-52.522,41.707 -52.529,44.447 -51.718,46.996M-67.361,15.235C-65.662,13.806 -64.484,11.982 -63.779,10.661C-63.11,12.589 -62.548,14.072 -62.342,14.608C-62.496,15.427 -62.893,18.237 -61.869,21.38C-61.524,22.442 -61.057,23.326 -60.509,24.077C-63.291,23.962 -64.632,25.063 -64.804,25.216C-65.777,26.08 -66.433,26.905 -66.865,27.902C-67.777,22.197 -67.496,16.971 -67.361,15.235M-72.442,-44.609C-71.174,-46.875 -69.559,-48.937 -67.596,-50.786C-67.008,-51.339 -66.415,-51.846 -65.825,-52.313C-66.909,-50.53 -67.633,-48.388 -67.98,-45.891C-69.252,-36.737 -65.116,-25.306 -61.948,-21.21C-63.1,-20.778 -63.829,-20.474 -64.006,-20.4C-65.495,-19.862 -66.715,-19.822 -67.632,-20.282C-69.046,-20.993 -69.591,-22.804 -69.916,-23.886C-69.998,-24.159 -70.069,-24.395 -70.143,-24.582C-70.204,-24.733 -70.284,-24.927 -70.381,-25.161C-71.077,-26.846 -72.709,-30.792 -73.672,-35.142C-74.708,-39.818 -72.45,-44.555 -72.427,-44.602L-72.442,-44.609ZM-65.126,-13.618C-65.587,-12.817 -67.835,-9.219 -71.071,-9.115C-68.598,-12.61 -67.843,-16.766 -67.618,-18.692C-67.169,-18.555 -66.691,-18.479 -66.179,-18.479C-65.761,-18.479 -65.323,-18.526 -64.865,-18.617C-65.161,-16.981 -65.151,-14.678 -65.126,-13.618M-71.793,-10.718C-72.565,-12.534 -73.328,-14.034 -73.871,-15.036C-73.376,-15.046 -72.889,-15.134 -72.417,-15.308C-71.023,-15.823 -69.999,-16.739 -69.285,-17.612C-69.61,-15.789 -70.309,-13.124 -71.793,-10.718M-66.602,-9.501C-67.124,-7.327 -67.465,-4.449 -66.997,-1.116C-66.599,1.728 -65.5,5.49 -64.461,8.645C-64.749,9.329 -65.691,11.379 -67.311,13.134C-67.409,9.693 -68.038,4.43 -69.121,-1.947C-69.458,-3.938 -70,-5.876 -70.614,-7.656C-69.026,-7.812 -67.675,-8.583 -66.602,-9.501M-9.107,-45.891C-9.454,-48.388 -10.177,-50.53 -11.262,-52.313C-10.671,-51.846 -10.078,-51.339 -9.491,-50.786C-7.527,-48.936 -5.912,-46.874 -4.644,-44.609L-4.659,-44.601C-4.636,-44.554 -2.374,-39.833 -3.414,-35.142C-4.377,-30.793 -6.008,-26.848 -6.704,-25.163C-6.801,-24.928 -6.882,-24.733 -6.943,-24.582C-7.017,-24.395 -7.088,-24.159 -7.17,-23.886C-7.495,-22.804 -8.04,-20.993 -9.454,-20.282C-10.371,-19.822 -11.592,-19.862 -13.081,-20.4C-13.257,-20.474 -13.986,-20.778 -15.138,-21.21C-11.97,-25.306 -7.835,-36.737 -9.107,-45.891M-12.221,-18.617C-11.763,-18.526 -11.325,-18.479 -10.907,-18.479C-10.395,-18.479 -9.917,-18.555 -9.468,-18.692C-9.243,-16.766 -8.488,-12.61 -6.015,-9.115C-9.24,-9.219 -11.498,-12.819 -11.96,-13.619C-11.935,-14.679 -11.925,-16.981 -12.221,-18.617M-9.775,13.134C-11.395,11.379 -12.337,9.33 -12.625,8.645C-11.586,5.49 -10.487,1.728 -10.089,-1.116C-9.622,-4.449 -9.962,-7.327 -10.485,-9.5C-9.411,-8.583 -8.06,-7.812 -6.472,-7.656C-7.086,-5.876 -7.628,-3.938 -7.966,-1.947C-9.048,4.43 -9.677,9.693 -9.775,13.134M-7.799,-17.608C-7.085,-16.738 -6.061,-15.822 -4.669,-15.308C-4.197,-15.134 -3.71,-15.046 -3.215,-15.036C-3.758,-14.034 -4.521,-12.535 -5.293,-10.718C-6.773,-13.12 -7.472,-15.785 -7.799,-17.608M-26.616,-65.263C-25.891,-68.787 -22.114,-68.982 -19.073,-68.523C-14.681,-67.862 0.547,-60.849 7.242,-53.384C14.519,-45.27 11.254,-38.656 11.112,-38.379C10.248,-36.696 2.144,-21.077 1.346,-19.567C0.71,-18.361 -1.778,-15.823 -4.154,-16.701C-6.038,-17.397 -7.115,-19.092 -7.537,-19.898C-6.482,-21.018 -6.025,-22.537 -5.749,-23.459C-5.676,-23.698 -5.614,-23.905 -5.564,-24.03C-5.505,-24.177 -5.427,-24.367 -5.332,-24.595C-4.621,-26.316 -2.956,-30.345 -1.964,-34.821C-1.849,-35.342 -1.771,-35.861 -1.721,-36.374C-1.11,-33.041 -1.029,-29.411 -1.484,-25.492L-0.009,-25.321C0.988,-33.905 -0.682,-40.332 -3.229,-45.047C-3.28,-45.159 -3.314,-45.231 -3.324,-45.252L-3.337,-45.245C-4.886,-48.055 -6.744,-50.247 -8.522,-51.914C-13.526,-56.604 -18.823,-58.191 -19.367,-58.344C-21.489,-59.204 -23.618,-59.856 -25.647,-60.345C-26.642,-61.385 -27.023,-63.285 -26.616,-65.263M-38.569,-60.334L-38.517,-60.334C-38.398,-60.339 -26.615,-60.684 -16.759,-55.508C-13.311,-53.697 -11.231,-50.393 -10.577,-45.686C-9.26,-36.21 -13.984,-24.771 -16.616,-21.748C-21.43,-23.453 -30.338,-26.149 -38.543,-26.149C-46.748,-26.149 -55.656,-23.453 -60.47,-21.748C-63.102,-24.771 -67.826,-36.21 -66.509,-45.686C-65.855,-50.393 -63.775,-53.697 -60.328,-55.508C-50.471,-60.684 -38.688,-60.339 -38.569,-60.334M-78.432,-19.567C-79.225,-21.069 -87.331,-36.69 -88.198,-38.379C-88.34,-38.656 -91.605,-45.27 -84.328,-53.384C-77.633,-60.849 -62.405,-67.862 -58.013,-68.523C-54.973,-68.981 -51.196,-68.787 -50.47,-65.263C-50.063,-63.285 -50.444,-61.385 -51.439,-60.345C-53.468,-59.856 -55.598,-59.204 -57.719,-58.344C-58.266,-58.19 -63.561,-56.602 -68.564,-51.914C-70.342,-50.247 -72.201,-48.055 -73.749,-45.245L-73.762,-45.252C-73.772,-45.231 -73.806,-45.159 -73.857,-45.047C-76.404,-40.332 -78.074,-33.905 -77.077,-25.321L-75.602,-25.492C-76.057,-29.411 -75.976,-33.042 -75.365,-36.374C-75.315,-35.861 -75.237,-35.342 -75.122,-34.821C-74.13,-30.344 -72.464,-26.315 -71.753,-24.594C-71.659,-24.366 -71.581,-24.177 -71.522,-24.03C-71.472,-23.905 -71.41,-23.698 -71.338,-23.459C-71.061,-22.536 -70.603,-21.017 -69.548,-19.896C-69.965,-19.092 -71.035,-17.402 -72.932,-16.701C-75.309,-15.824 -77.796,-18.361 -78.432,-19.567M-71.805,6.026C-71.91,5.182 -72.549,2.084 -73.503,-0.578C-74.294,-2.784 -77.198,-5.721 -78.38,-6.854L-76.422,-9.406L-72.071,-7.307C-71.559,-5.843 -71.098,-4.271 -70.767,-2.661C-72.183,-4.75 -73.752,-6.41 -73.859,-6.524L-74.935,-5.5C-74.894,-5.457 -70.82,-1.148 -70.068,2.066L-69.983,2.046C-69.597,4.596 -69.298,6.925 -69.095,8.947C-71.16,8.537 -71.685,6.988 -71.805,6.026M-66.093,31.637C-65.959,28.974 -65.437,27.764 -63.818,26.325C-62.656,25.292 -59.986,25.561 -58.868,25.784C-57.578,26.81 -56.097,27.443 -54.676,27.929C-53.092,28.471 -51.275,28.621 -49.815,28.632C-50.422,28.969 -51.104,29.29 -51.796,29.501C-54.076,30.195 -57.44,31.671 -58.53,32.609C-60.274,34.111 -61.915,36.329 -61.409,41.312C-63.724,38.608 -65.185,35.156 -66.093,31.637M-42.541,50.95C-42.679,50.743 -42.91,50.622 -43.154,50.621L-43.157,50.621C-43.339,50.62 -43.528,50.621 -43.724,50.623C-44.576,50.628 -45.543,50.633 -46.655,50.492C-47.689,50.116 -49.552,48.908 -50.303,46.546C-51.354,43.241 -50.583,40.871 -50.322,40.223C-49.915,39.214 -47.921,37.113 -46.163,35.26C-45.562,34.627 -44.941,33.972 -44.384,33.364C-42.514,31.32 -42.409,28.871 -42.486,27.709C-41.53,27.385 -40.202,26.832 -39.285,26.439L-39.285,53.204C-41.404,52.572 -42.53,50.966 -42.541,50.95M-34.545,50.95C-34.557,50.968 -35.664,52.573 -37.801,53.205L-37.801,26.439C-36.885,26.832 -35.556,27.385 -34.6,27.709C-34.678,28.871 -34.572,31.32 -32.702,33.364C-32.145,33.972 -31.524,34.627 -30.923,35.26C-29.165,37.113 -27.171,39.214 -26.764,40.223C-26.503,40.871 -25.732,43.241 -26.783,46.546C-27.534,48.909 -29.398,50.117 -30.432,50.492C-31.544,50.633 -32.511,50.628 -33.362,50.623C-33.559,50.621 -33.749,50.619 -33.932,50.621L-33.932,50.627C-34.175,50.63 -34.407,50.744 -34.545,50.95M-15.663,41.296C-15.331,38.219 -15.729,35.044 -18.557,32.609C-19.646,31.671 -23.01,30.195 -25.29,29.501C-25.98,29.291 -26.662,28.969 -27.269,28.632C-25.809,28.621 -23.994,28.471 -22.41,27.929C-20.989,27.442 -19.508,26.81 -18.218,25.784C-17.099,25.562 -14.43,25.293 -13.268,26.325C-11.649,27.764 -11.127,28.975 -10.993,31.638C-11.899,35.149 -13.356,38.594 -15.663,41.296M-0.664,-9.406L1.293,-6.854C0.112,-5.721 -2.792,-2.784 -3.583,-0.578C-4.537,2.083 -5.176,5.182 -5.281,6.026C-5.401,6.988 -5.925,8.537 -7.991,8.947C-7.788,6.925 -7.489,4.596 -7.103,2.046L-7.019,2.066C-6.267,-1.143 -2.192,-5.457 -2.151,-5.5L-3.227,-6.524C-3.335,-6.41 -4.903,-4.75 -6.319,-2.661C-5.988,-4.271 -5.528,-5.843 -5.015,-7.307L-0.664,-9.406Z" style="fill:black;fill-rule:nonzero;"/>
    </g>
    <g transform="matrix(4.16667,0,0,4.16667,201.242,342.416)">
        <path d="M0,0.671C0.886,1.825 2.237,2.487 3.706,2.487C5.175,2.487 6.526,1.825 7.412,0.671C8.152,-0.292 9.107,-0.301 9.138,-0.301L9.18,-1.785C9.112,-1.787 7.45,-1.816 6.235,-0.233C5.632,0.552 4.71,1.003 3.706,1.003C2.702,1.003 1.781,0.552 1.177,-0.233C-0.037,-1.815 -1.698,-1.788 -1.768,-1.785L-1.735,-0.301C-1.687,-0.301 -0.737,-0.288 0,0.671" style="fill:black;fill-rule:nonzero;"/>
    </g>
    <g transform="matrix(4.16667,0,0,4.16667,187.599,318.067)">
        <path d="M0,7.653C0.856,8.255 1.738,8.508 1.776,8.519L2.181,7.091C2.156,7.084 -0.382,6.328 -0.235,4.465C-0.116,2.956 0.295,1.572 0.988,0.353L1.007,0.318C1.191,-0.008 1.104,-0.419 0.804,-0.643C0.503,-0.866 0.084,-0.831 -0.175,-0.561C-0.226,-0.508 -5.321,4.716 -11.896,4.129L-12.028,5.608C-7.489,6.011 -3.686,4.018 -1.403,2.394C-1.558,3.023 -1.662,3.675 -1.715,4.348C-1.818,5.65 -1.225,6.793 0,7.653" style="fill:black;fill-rule:nonzero;"/>
    </g>
    <g transform="matrix(4.16667,0,0,4.16667,200.039,312.152)">
        <path d="M0,-14.738C-1.751,-10.956 -0.165,-7.174 0.145,-6.504C1.035,-1.841 0.393,1.967 -0.071,3.828L1.37,4.187C1.867,2.195 2.556,-1.893 1.585,-6.879C1.572,-6.944 1.55,-7.008 1.521,-7.067C1.5,-7.11 -0.561,-11.383 1.887,-15.079C2.042,-15.313 2.052,-15.615 1.912,-15.859C1.772,-16.102 1.507,-16.244 1.226,-16.23C1.165,-16.226 -4.977,-15.912 -13.043,-18.858C-13.225,-18.925 -13.427,-18.917 -13.604,-18.836C-13.803,-18.746 -18.515,-16.587 -21.706,-13.653L-20.701,-12.56C-18.106,-14.946 -14.298,-16.858 -13.259,-17.357C-7.178,-15.18 -2.249,-14.789 0,-14.738" style="fill:black;fill-rule:nonzero;"/>
    </g>
    <g transform="matrix(4.16667,0,0,4.16667,157.012,255.203)">
        <path d="M0,5.502C1.842,5.502 3.344,4.034 3.408,2.208C5.6,3.106 7.021,4.526 7.041,4.547L8.102,3.508C7.962,3.365 4.616,0 -0.083,0C-4.777,0 -8.19,3.359 -8.333,3.502L-7.284,4.552C-7.262,4.531 -5.734,3.028 -3.411,2.134C-3.386,3.995 -1.867,5.502 0,5.502M1.894,1.721C1.917,1.841 1.929,1.963 1.929,2.088C1.929,3.151 1.064,4.017 0,4.017C-1.064,4.017 -1.929,3.151 -1.929,2.088C-1.929,1.948 -1.909,1.811 -1.88,1.677C-1.309,1.556 -0.708,1.484 -0.083,1.484C0.61,1.484 1.271,1.574 1.894,1.721" style="fill:black;fill-rule:nonzero;"/>
    </g>
    <g transform="matrix(4.16667,0,0,4.16667,171.479,286.051)">
        <path d="M0,0.697L-0.683,-0.621C-0.805,-0.559 -3.727,0.886 -7.809,-0.799L-8.376,0.573C-6.69,1.269 -5.164,1.496 -3.89,1.496C-1.576,1.496 -0.094,0.746 0,0.697" style="fill:black;fill-rule:nonzero;"/>
    </g>
    <g transform="matrix(4.16667,0,0,4.16667,299.111,391.577)">
        <path d="M0,-7.137C-0.02,-7.481 -0.288,-7.758 -0.631,-7.791C-0.973,-7.823 -1.289,-7.602 -1.374,-7.268C-1.614,-6.331 -1.985,-5.732 -2.477,-5.488C-3.409,-5.025 -4.959,-5.678 -6.457,-6.31C-7.064,-6.565 -7.691,-6.829 -8.271,-7.019C-14.263,-9.238 -18.51,-7.389 -19.783,-6.696C-21.054,-7.39 -25.298,-9.239 -31.269,-7.028C-31.874,-6.829 -32.501,-6.565 -33.108,-6.31C-34.607,-5.679 -36.156,-5.026 -37.088,-5.488C-37.58,-5.732 -37.951,-6.331 -38.191,-7.268C-38.276,-7.602 -38.592,-7.823 -38.934,-7.791C-39.277,-7.758 -39.545,-7.481 -39.565,-7.137C-39.568,-7.081 -39.838,-1.5 -34.567,0.422C-33.344,0.867 -32.031,1.056 -30.68,1.056C-26.936,1.056 -22.912,-0.398 -19.783,-1.882C-15.524,0.137 -9.609,2.102 -4.998,0.422C0.273,-1.5 0.003,-7.081 0,-7.137M-19.478,-3.285C-19.671,-3.378 -19.895,-3.378 -20.087,-3.285C-27.396,0.247 -31.736,-0.034 -34.088,-0.891C-36.071,-1.614 -37.095,-2.95 -37.622,-4.195C-36.132,-3.519 -34.319,-4.283 -32.565,-5.022C-31.958,-5.278 -31.384,-5.52 -30.809,-5.709C-27.482,-6.941 -24.77,-6.766 -23.081,-6.403C-21.246,-6.008 -20.182,-5.311 -20.171,-5.304C-19.937,-5.147 -19.629,-5.148 -19.394,-5.304C-19.384,-5.311 -18.319,-6.008 -16.484,-6.403C-14.796,-6.766 -12.084,-6.941 -8.731,-5.7C-8.181,-5.52 -7.607,-5.278 -7,-5.022C-5.246,-4.283 -3.433,-3.519 -1.944,-4.195C-2.47,-2.95 -3.495,-1.614 -5.477,-0.891C-7.829,-0.033 -12.168,0.247 -19.478,-3.285" style="fill:black;fill-rule:nonzero;"/>
    </g>
    <g transform="matrix(4.16667,0,0,4.16667,183.337,115.473)">
        <path d="M0,6.188C0.596,6.784 1.389,7.113 2.232,7.113C3.075,7.113 3.868,6.785 4.464,6.188C5.514,5.139 5.665,3.529 4.924,2.314L7.113,0.125L6.063,-0.925L3.875,1.264C3.385,0.963 2.822,0.799 2.232,0.799C1.389,0.799 0.596,1.128 0,1.724C-1.231,2.955 -1.231,4.958 0,6.188M1.05,2.774C1.366,2.458 1.786,2.284 2.232,2.284C2.679,2.284 3.099,2.458 3.414,2.774C4.066,3.426 4.066,4.486 3.414,5.138C3.099,5.454 2.679,5.628 2.232,5.628C1.786,5.628 1.366,5.454 1.05,5.138C0.398,4.486 0.398,3.426 1.05,2.774" style="fill:black;fill-rule:nonzero;"/>
    </g>
    <g transform="matrix(4.16667,0,0,4.16667,244.49,145.04)">
        <path d="M0,-14.535L-1.05,-15.585L-6.668,-9.966L-12.287,-15.585C-12.577,-15.875 -13.047,-15.875 -13.337,-15.585C-13.482,-15.44 -13.554,-15.25 -13.554,-15.06C-13.554,-14.87 -13.482,-14.68 -13.337,-14.535L-3.584,-4.782C-4.325,-3.567 -4.174,-1.957 -3.124,-0.908C-2.509,-0.292 -1.7,0.015 -0.892,0.015C-0.301,0.015 0.289,-0.151 0.804,-0.48C1.679,0.195 3.491,1.322 5.86,1.34L5.871,-0.145C4.047,-0.159 2.591,-1.011 1.838,-1.562C2.535,-2.769 2.371,-4.341 1.34,-5.372C0.291,-6.422 -1.319,-6.573 -2.534,-5.832L-5.619,-8.916L0,-14.535ZM0.29,-4.322C0.942,-3.67 0.942,-2.61 0.29,-1.958C-0.362,-1.306 -1.423,-1.306 -2.074,-1.958C-2.726,-2.61 -2.726,-3.67 -2.074,-4.322C-1.748,-4.648 -1.32,-4.811 -0.892,-4.811C-0.464,-4.811 -0.036,-4.648 0.29,-4.322" style="fill:black;fill-rule:nonzero;"/>
    </g>
</svg>
