<svg width="120" height="120" viewBox="0 0 120 120" fill="none" xmlns="http://www.w3.org/2000/svg">
<g clip-path="url(#clip0)">
<path d="M2.00899 159.512C-1.63938 159.512 -4.60667 156.694 -4.60667 151.14C-4.60667 145.585 -1.63938 142.765 2.00899 142.765C5.65647 142.765 8.62421 145.585 8.62421 151.14C8.62421 156.694 5.65647 159.512 2.00899 159.512ZM2.00899 137.531C-5.54881 137.531 -11.6974 143.636 -11.6974 151.14C-11.6974 158.642 -5.54881 164.746 2.00899 164.746C9.56635 164.746 15.7149 158.642 15.7149 151.14C15.7149 143.636 9.56635 137.531 2.00899 137.531ZM52.2012 159.512C48.5537 159.512 45.586 156.694 45.586 151.14C45.586 145.585 48.5537 142.765 52.2012 142.765C55.8487 142.765 58.8164 145.585 58.8164 151.14C58.8164 156.694 55.8487 159.512 52.2012 159.512ZM52.2012 137.531C44.6434 137.531 38.4953 143.636 38.4953 151.14C38.4953 158.642 44.6434 164.746 52.2012 164.746C59.759 164.746 65.9071 158.642 65.9071 151.14C65.9071 143.636 59.759 137.531 52.2012 137.531ZM111.089 148.813C111.805 144.8 114.41 142.765 117.508 142.765C120.605 142.765 123.211 144.8 123.927 148.813H111.089ZM117.508 137.531C109.95 137.531 103.801 143.636 103.801 151.14C103.801 158.642 109.841 164.746 117.838 164.746C123.209 164.746 126.601 162.767 129.074 159.545C129.42 159.093 129.394 158.474 128.957 158.097L126.259 155.762C125.864 155.411 125.272 155.515 124.879 155.928C122.919 157.983 120.596 159.742 117.508 159.512C114.55 159.291 112.026 157.648 111.19 153.966H129.593C130.164 153.966 130.599 153.521 130.676 152.938C130.754 152.353 130.795 151.744 130.795 151.14C130.795 143.636 125.065 137.531 117.508 137.531ZM38.5794 139.042C38.5794 138.476 38.1171 138.015 37.5452 138.015C37.5452 138.015 31.3456 138.134 27.1024 138.134C22.8584 138.134 16.6645 138.015 16.6645 138.015C16.0935 138.015 15.6304 138.476 15.6304 139.042V143.189C15.6304 143.756 16.0935 144.216 16.6645 144.216C16.6645 144.216 20.1249 144.15 23.6447 144.116V163.235C23.6447 163.803 24.1083 164.263 24.6802 164.263H29.5247C30.0962 164.263 30.5597 163.803 30.5597 163.235V144.116C34.0804 144.15 37.5452 144.216 37.5452 144.216C38.1171 144.216 38.5794 143.756 38.5794 143.189V139.042ZM157.94 138.024H153.096C152.524 138.024 152.061 138.483 152.061 139.051V151.86C152.061 156.85 147.744 160.067 144.717 158.861C142.881 158.13 141.188 156.147 141.188 153.013V139.051C141.188 138.483 140.725 138.024 140.153 138.024H135.309C134.737 138.024 134.274 138.483 134.274 139.051C134.274 139.051 134.272 147.709 134.272 153.974C134.272 160.24 138.35 164.746 144.971 164.746C149.171 164.746 151.591 162.18 152.083 161.223C152.083 161.223 152.108 162.628 152.121 163.235C152.134 163.843 152.584 164.263 153.156 164.263H157.94C158.512 164.263 158.975 163.803 158.975 163.235V139.051C158.975 138.483 158.512 138.024 157.94 138.024ZM-19.8196 151.125C-16.9179 149.046 -14.1835 145.418 -14.1835 139.042C-14.1835 138.479 -14.6471 138.015 -15.2185 138.015H-20.1687C-20.7111 138.015 -21.1575 138.449 -21.2037 139.05C-21.8989 148.011 -24.584 148.641 -29.9823 148.699V139.042C-29.9823 138.476 -30.445 138.015 -31.0169 138.015H-35.8615C-36.4329 138.015 -36.896 138.476 -36.896 139.042L-36.8965 163.235C-36.8965 163.803 -36.4329 164.263 -35.8615 164.263H-31.0169C-30.445 164.263 -29.9823 163.803 -29.9823 163.235V153.572C-23.423 153.418 -22.13 157.585 -20.933 163.273C-20.8225 163.799 -20.5975 164.263 -19.8966 164.263H-14.9592C-14.3873 164.263 -13.9242 163.802 -13.9242 163.235C-13.9242 157.478 -17.156 152.895 -19.8196 151.125ZM154.313 133.337C155.14 132.143 154.196 131.237 153.175 131.454C147.418 132.676 144.174 130.957 140.031 127.498C139.594 127.133 138.947 127.166 138.57 127.592L136.434 130.008C136.057 130.435 136.106 131.075 136.529 131.458C145.325 139.433 153.142 135.029 154.313 133.337ZM88.0738 159.47C88.0381 156.798 88.0126 153.885 88.0126 150.979C88.0126 148.19 88.0363 145.391 88.0689 142.808C91.366 143.172 93.9353 145.971 93.9353 151.14C93.9353 156.306 91.3682 159.103 88.0738 159.47ZM81.6346 159.47C78.3411 159.103 75.774 156.306 75.774 151.14C75.774 145.971 78.3442 143.173 81.6395 142.808C81.6734 145.391 81.6963 148.19 81.6963 150.979C81.6963 153.885 81.6712 156.798 81.6346 159.47ZM88.1552 137.557C88.2323 133.598 88.3115 130.923 88.3115 130.923C88.3115 130.356 87.8488 129.896 87.276 129.896H82.432C81.8605 129.896 81.3973 130.356 81.3973 130.923C81.3973 130.923 81.4766 133.598 81.5536 137.557C74.3833 137.987 68.6829 143.914 68.6829 151.14C68.6829 158.361 74.3806 164.287 81.5479 164.72C81.4726 168.503 81.3973 171.036 81.3973 171.036C81.3973 171.604 81.8614 172.063 82.4324 172.063H87.2769C87.8488 172.063 88.3124 171.604 88.3124 171.036H88.3111C88.3111 171.036 88.2358 168.503 88.1618 164.72C95.3282 164.287 101.026 158.361 101.026 151.14C101.026 143.914 95.3247 137.987 88.1552 137.557ZM27.9609 27.759C49.8124 52.1626 81.4022 46.5481 96.0252 38.3962C106.175 75.4831 89.1101 108.79 64.1135 108.79C28.9286 108.79 17.7555 64.6929 27.9609 27.759ZM63.5773 119.398C85.1395 119.398 105.589 102.182 111.196 72.2709C114.441 54.9635 112.707 36.7129 104.527 19.8567C103.197 17.1148 101.463 17.2782 98.7397 18.9029C92.0827 22.874 78.0602 30.7286 63.0019 28.4942C53.3414 27.0609 39.2239 22.877 28.3277 2.46543C27.4353 0.790474 25.1539 -1.85617 22.3649 1.95533C11.864 16.2948 3.96106 51.1324 13.9129 80.5067C22.0329 104.471 42.7195 119.398 63.5773 119.398Z" fill="#196FC1"/>
</g>
<defs>
<clipPath id="clip0">
<rect width="105" height="120" fill="white" transform="translate(9)"/>
</clipPath>
</defs>
</svg>
