<svg xmlns="http://www.w3.org/2000/svg" fill="none" viewBox="0 0 51.792 49.703539823008846" style="max-height: 500px" width="51.792" height="49.703539823008846">
<g clip-path="url(#clip0_3003_3332)">
<path fill="#1B3F6E" d="M70.0859 28.5328C69.7917 29.4692 69.4255 30.2617 67.6003 30.2617C65.7811 30.2617 65.4149 29.4692 65.1207 28.5328L63.1334 22.3195C63.0614 22.0794 62.9653 21.8633 62.8753 21.8633C62.7072 21.8633 62.7252 22.1574 62.7252 22.2835L62.8573 30.1176H58.6846V19.36C58.6846 17.0968 61.1882 17.0968 61.8486 17.0968C62.9353 17.0968 64.4783 17.2229 65.1387 19.2279L67.2161 25.4772C67.2521 25.6092 67.4562 26.0655 67.6003 26.0655C67.7504 26.0655 67.9485 25.6032 67.9906 25.4772L70.0679 19.2279C70.7283 17.2229 72.2773 17.0968 73.376 17.0968C76.2999 17.0968 76.5401 18.5676 76.5401 19.36V30.1176H72.3494L72.4995 22.2835C72.4995 21.9353 72.4094 21.8633 72.3313 21.8633C72.2593 21.8633 72.1873 21.9713 72.0732 22.3195L70.0859 28.5328Z" clip-rule="evenodd" fill-rule="evenodd"/>
<path fill="#1B3F6E" d="M82.7543 26.1255C83.3066 26.972 84.0451 27.062 85.0898 27.062C86.1765 27.062 86.8549 26.972 87.4253 26.1255C87.9056 25.4292 87.9056 24.7088 87.9056 23.6823C87.9056 22.5597 87.9236 21.9534 87.4253 21.239C86.8549 20.3925 86.1765 20.3025 85.0898 20.3025C84.0211 20.3025 83.3066 20.3925 82.7543 21.239C82.292 21.9173 82.274 22.6137 82.274 23.6823C82.274 24.6908 82.328 25.4772 82.7543 26.1255ZM90.7154 18.4175C92.1143 19.7022 92.1683 21.9473 92.1683 23.6762C92.1683 25.3691 92.1143 27.6263 90.7154 28.935C89.3525 30.2016 86.999 30.2617 85.0898 30.2617C83.1746 30.2617 80.827 30.2076 79.4642 28.935C78.0653 27.6263 78.0112 25.3691 78.0112 23.6762C78.0112 21.9473 78.0653 19.7022 79.4642 18.4175C80.8451 17.1509 83.1445 17.0908 85.0898 17.0908C87.035 17.0968 89.3345 17.1509 90.7154 18.4175Z" clip-rule="evenodd" fill-rule="evenodd"/>
<path fill="#1B3F6E" d="M98.8436 30.1115C96.8383 30.1115 95.4994 29.8354 94.4487 28.5327C93.6742 27.5782 93.272 26.3056 93.272 23.8443C93.272 21.6952 93.4761 20.0743 94.3947 18.9157C95.5715 17.4089 97.4447 17.2408 98.8976 17.2408H104.343V20.4405H100.903C99.54 20.4405 98.5314 20.4225 97.961 21.449C97.5947 22.0914 97.5407 23.1419 97.5407 23.7662C97.5407 25.201 97.7388 25.6812 97.8529 25.8974C98.4053 26.9119 99.6 26.9119 100.975 26.9119H104.541V30.1115H98.8436Z" clip-rule="evenodd" fill-rule="evenodd"/>
<path fill="#F28B00" d="M110.204 26.1255C110.756 26.972 111.495 27.062 112.54 27.062C113.626 27.062 114.305 26.972 114.875 26.1255C115.355 25.4292 115.355 24.7088 115.355 23.6823C115.355 22.5597 115.373 21.9534 114.875 21.239C114.305 20.3925 113.626 20.3025 112.54 20.3025C111.471 20.3025 110.756 20.3925 110.204 21.239C109.748 21.9173 109.724 22.6137 109.724 23.6823C109.73 24.6908 109.784 25.4772 110.204 26.1255ZM118.171 18.4175C119.57 19.7022 119.624 21.9473 119.624 23.6762C119.624 25.3691 119.57 27.6263 118.171 28.935C116.808 30.2016 114.461 30.2617 112.546 30.2617C110.63 30.2617 108.283 30.2076 106.92 28.935C105.521 27.6263 105.467 25.3691 105.467 23.6762C105.467 21.9473 105.521 19.7022 106.92 18.4175C108.301 17.1509 110.6 17.0908 112.546 17.0908C114.491 17.0968 116.79 17.1509 118.171 18.4175Z" clip-rule="evenodd" fill-rule="evenodd"/>
<path fill="#F28B00" d="M125.243 26.0714C125.243 26.9719 125.537 26.9179 126.126 26.9179H128.569C128.809 26.9179 129.266 26.9179 129.524 26.6777C129.764 26.4556 129.764 26.1074 129.764 25.8853C129.764 25.5912 129.764 25.351 129.488 25.1529C129.212 24.9308 128.809 24.9308 128.569 24.9308H125.237V26.0714H125.243ZM133.282 20.4465H126.036C125.267 20.4465 125.243 20.7406 125.243 21.2149V22.1334H131.187C132.178 22.1334 132.916 22.5416 133.3 22.9798C133.979 23.7722 134.033 25.1529 134.033 26.0114C134.033 27.116 133.943 28.3106 133.318 29.121C133.15 29.3431 132.49 30.1175 131.223 30.1175H122.896C121.827 30.1175 121.094 29.3611 121.094 28.3166V19.3059C121.094 17.3549 122.637 17.2468 123.1 17.2468H133.288V20.4465H133.282Z" clip-rule="evenodd" fill-rule="evenodd"/>
<path fill="#F28B00" d="M139.352 18.4175C139.886 17.1689 141.339 17.0908 142.132 17.0908C142.924 17.0908 144.377 17.1629 144.905 18.4175L149.853 30.1116H145.44L142.33 21.5992C142.294 21.5271 142.222 21.287 142.126 21.287C142.036 21.287 141.958 21.5271 141.922 21.5992L138.812 30.1116H134.399L139.352 18.4175Z" clip-rule="evenodd" fill-rule="evenodd"/>
<path fill="#1B3F6E" d="M152.369 30.1115C151.834 30.1115 151.3 30.0695 150.802 29.6673C150.213 29.1691 150.213 28.6528 150.213 28.0525V19.2279C150.213 18.7296 150.285 18.1953 150.766 17.7571C151.246 17.3189 151.87 17.2408 152.327 17.2408H161.573V20.3685H155.221C154.98 20.3685 154.722 20.4225 154.578 20.5546C154.374 20.7167 154.374 21.0108 154.374 21.1789V22.1514H161.399V24.9489H154.374V26.3476C154.374 26.6057 154.464 26.7498 154.56 26.8278C154.764 27.0139 155.095 26.9899 155.353 26.9899H161.639V30.1175H152.369V30.1115Z" clip-rule="evenodd" fill-rule="evenodd"/>
<path fill="#1B3F6E" d="M172.703 30.1116L172.89 22.5537C172.89 22.3135 172.89 22.0794 172.703 22.0794C172.595 22.0794 172.481 22.2835 172.229 22.7037L168.567 28.953C168.212 29.5593 167.576 30.2557 165.793 30.2557C163.253 30.2557 162.923 28.7069 162.923 27.1641V17.2409H167.15L166.97 24.6127V24.8108C166.97 24.9789 166.97 25.2551 167.192 25.2551C167.306 25.2551 167.396 25.087 167.558 24.7928L171.106 18.5976C171.917 17.1629 173.13 17.0908 173.88 17.0908C176.822 17.0908 176.93 19.2219 176.93 20.2725V30.1116H172.703Z" clip-rule="evenodd" fill-rule="evenodd"/>
<path fill="#1B3F6E" d="M185.913 23.2019C186.429 23.2019 186.939 23.2379 187.293 22.8718C187.492 22.6496 187.624 22.2834 187.624 21.7492C187.624 21.419 187.588 21.0108 187.257 20.7346C186.909 20.4405 186.429 20.4405 185.949 20.4405H183.649C182.989 20.4405 182.929 20.9147 182.929 21.1909V23.1959H185.913V23.2019ZM178.774 30.1115V19.6721C178.774 19.1378 178.846 18.4054 179.29 17.9072C179.566 17.595 180.119 17.2468 181.001 17.2468H188.116C189.149 17.2468 190.103 17.3789 190.818 18.1473C191.424 18.7896 191.772 19.8042 191.772 21.6591C191.772 22.5596 191.7 24.7687 190.614 25.7052C190.007 26.2215 189.053 26.4076 188.35 26.4076H182.923V30.1235H178.774V30.1115Z" clip-rule="evenodd" fill-rule="evenodd"/>
<path fill="#1B3F6E" d="M195.746 30.1115C195.086 30.1115 194.479 30.1476 193.909 29.6313C193.321 29.097 193.249 28.3466 193.249 27.7523V17.2408H197.403V25.7173C197.403 26.0114 197.385 26.4857 197.571 26.6898C197.769 26.9119 198.268 26.9119 198.418 26.9119H202.116V17.2408H206.271V26.9119H208V30.1115H195.746Z" clip-rule="evenodd" fill-rule="evenodd"/>
<path fill="#F28B00" d="M49.808 27.9505C49.808 27.9505 49.1656 27.4223 49.0155 27.3502C47.6706 26.6779 46.1637 26.6959 44.6807 26.6118C43.7861 26.5698 42.6454 26.4618 41.8169 26.0836C41.4567 25.9215 41.0424 25.5973 40.6401 25.5373C40.6401 25.5373 40.9463 26.2336 41.0424 26.4498C41.3186 27.1161 41.1385 28.0766 41.6848 28.5749C41.3906 28.743 40.8503 28.3167 40.6341 28.1546C40.2199 27.8485 39.7576 27.7164 39.2592 27.6624C40.2499 29.3253 40.6761 31.2703 40.6761 33.1973C40.6761 34.3919 40.7782 36.1568 41.2585 37.2134C41.5047 37.7656 41.8889 38.0238 42.3212 38.426C41.8349 38.486 41.0784 38.5941 40.6521 38.3359C39.7696 37.7837 39.3193 36.529 38.7789 35.6586C38.5448 35.2743 38.1185 34.668 37.8423 34.3199C37.2239 33.5334 36.5455 33.0472 35.6029 32.711C35.831 33.4674 35.9991 34.4699 35.9331 35.2563C35.8671 36.0127 35.4768 37.1413 35.4768 37.7717C35.5489 37.4775 34.282 35.1423 33.7897 35.2023C33.9038 36.0788 33.9398 37.2074 33.6756 38.0658C33.1413 39.8127 32.2167 41.5296 31.7844 43.2525C31.5443 44.225 31.5023 46.0379 31.6343 47.0285C31.6523 47.1545 28.1461 46.4822 28.1461 42.8143C28.1461 41.0133 29.2988 39.4825 29.3949 37.6816C29.3949 37.6816 29.0407 37.6636 28.7525 37.8077C26.9273 38.7201 25.9787 41.2595 24.5258 42.6282C24.5258 42.6282 24.6879 41.6737 24.7299 41.1094C24.8019 40.0468 25.0481 38.8222 25.6485 37.9157C25.8346 37.6456 26.0688 37.2194 26.1468 37.1653L26.2249 37.1113C26.2249 37.1113 25.3003 36.9792 24.916 37.0753C24.5318 37.1593 23.7993 37.4775 23.391 37.7476C22.9948 38.0238 22.5865 38.39 22.3284 38.6601C22.0702 38.9363 21.3557 39.6686 21.1156 39.9088C19.9088 41.1154 18.3658 41.9138 16.7268 42.3821C15.3399 42.7783 12.1638 43.4806 11.1432 41.8898C13.8569 41.5716 15.526 40.311 16.9849 38.0238C17.5853 37.0813 18.9002 36.2048 19.9208 35.7306C19.9208 35.7306 18.2097 35.7486 16.6547 36.2288C14.4033 36.9132 12.5781 37.2854 10.2246 36.2288C13.6708 35.5865 12.6141 34.0317 15.4059 33.2033C15.4059 33.2033 14.3792 32.621 13.4967 32.4529C10.891 31.9606 8.52548 32.4949 5.79973 32.3748C4.1967 32.1827 2.9479 31.6905 1.76514 30.5139C1.43492 30.1837 0.408263 28.749 0.258166 28.4788C0.10807 28.2027 0 27.8725 0 27.8725C0 27.8725 0.642413 28.2627 0.954614 28.4068C2.29347 29.0311 4.26274 29.2172 5.65564 28.749C6.5322 28.4608 7.20463 27.8485 8.00915 27.5603C8.49546 27.3862 9.78629 27.2062 10.2726 27.4523C9.60017 26.5818 9.05982 26.2517 8.10521 25.8074C6.33407 24.961 4.86313 25.2912 3.69838 23.4242C3.60832 23.2801 3.44021 22.9079 3.44021 22.9079C3.44021 22.9079 3.75241 23.034 3.84247 23.088C4.92917 23.7424 6.6883 22.6498 7.9371 22.6498C8.78965 22.6498 9.30598 23.118 9.85233 23.6703C9.85233 23.6703 9.51011 22.2176 9.04181 21.4071C8.12923 19.8343 7.12658 17.9553 6.81438 16.1604C6.3701 13.5671 7.17461 12.1863 8.62755 10.0492C8.62755 10.0492 8.62755 12.0483 8.75363 12.6366C9.0178 13.8312 10.0144 14.9838 11.3113 15.1159C11.4073 15.1279 11.1192 13.519 11.8456 10.7336L12.6982 7.28779C12.6982 7.28779 12.9203 6.47737 12.9503 5.70297C12.9924 4.92256 12.5481 4.31024 12.5481 4.31024C12.5481 4.31024 13.1965 4.26222 13.6888 4.64041C15.3639 5.91308 15.3279 8.12823 15.0517 9.95318C15.0517 9.95318 14.9496 11.1658 15.1477 11.478C15.3519 11.7841 15.6941 12.0783 15.6941 12.0783L16.8228 8.63849C16.8228 8.63849 17.7894 6.05715 18.4619 4.89255C19.1403 3.72794 22.4484 0.264137 22.7907 0C23.7333 1.13459 23.5051 2.65338 22.9828 3.90203C22.7366 4.48433 22.1182 5.5649 22.1783 6.21323C22.2383 6.86757 22.5805 7.27578 22.7186 7.47989C22.8567 7.684 23.7213 6.21323 25.2282 5.54088C26.7292 4.86853 27.996 4.6044 28.7285 4.35226C29.4669 4.10013 30.7037 3.73394 30.9679 3.56585C31.2381 3.39777 29.2088 7.07768 29.2208 7.5039C29.2328 7.93013 29.3709 8.10422 29.3709 8.10422C29.3709 8.10422 30.3735 7.1137 31.2921 6.79554C32.2107 6.47137 36.0352 5.75099 36.0352 5.75099C36.9958 5.5649 37.4341 5.01861 38.0224 4.29824C38.0224 4.29824 38.0465 5.3848 37.9024 5.80502C37.7643 6.23124 37.368 6.98764 36.9838 7.26378C36.5995 7.53992 35.5789 7.78005 35.0685 8.10422C34.228 8.6445 34.174 9.26282 34.174 10.1153C35.0685 9.47293 35.6389 9.07072 36.8157 9.0407C37.308 9.0347 38.6408 9.49094 38.857 9.63501C37.7883 9.67103 36.0172 10.7396 36.3414 10.8657C39.3133 12.3544 41.0304 10.7936 45.5213 11.3399C46.68 11.448 48.253 12.4505 49.2677 12.9908C48.1269 12.9908 45.5213 12.6666 44.5126 13.3329C44.2905 13.483 44.0383 13.7532 43.8522 14.0353C43.2158 14.9838 43.0056 15.464 41.6488 15.5901C40.9103 15.6561 39.9557 15.7402 39.2292 15.6081C40.454 16.7667 42.3572 16.5446 43.4319 18.1534C42.5854 18.5497 41.6067 18.5497 40.7302 18.9218C40.472 19.0299 40.2138 19.216 40.2138 19.216C41.3906 19.8883 41.979 20.8068 42.9696 21.6713C43.2818 21.9414 44.3265 22.7338 44.7888 22.9679C45.7794 23.4902 46.8721 23.9585 47.7607 24.6368C48.5352 25.2311 49.3097 25.8194 49.6459 26.7859C49.808 27.1521 49.808 27.5603 49.808 27.9505ZM24.9701 9.29884C18.0056 9.29884 12.3619 14.9418 12.3619 21.9054C12.3619 28.869 18.0056 34.512 24.9701 34.512C31.9345 34.512 37.5782 28.869 37.5782 21.9054C37.5782 14.9418 31.9285 9.29884 24.9701 9.29884Z"/>
<path fill="#1B3F6E" d="M31.6222 27.9323C33.1532 26.3235 34.0958 24.1383 34.0958 21.7371C34.0958 16.7725 30.0672 12.7444 25.102 12.7444C23.565 12.7444 22.1181 13.1286 20.8513 13.8069C20.9894 14.0831 21.0314 14.0231 21.7399 15.4518C21.4457 15.4458 18.2216 14.3052 16.5405 13.6869C16.4565 13.7649 20.0048 17.1147 23.6731 20.5424H23.9553L23.8412 20.6985L24.3756 21.1968V20.5424H25.5403V22.2894L25.6664 22.4094C25.6604 22.3794 25.6544 22.3434 25.6544 22.3134C25.6544 22.1813 25.7444 22.0192 25.8165 21.9112L26.7891 20.5484H28.17L26.9152 22.0432C26.7831 22.2053 26.7651 22.2833 26.7651 22.3134C26.7651 22.4334 26.8792 22.5595 26.9572 22.6375L28.3021 24.1023L29.6229 22.3314L28.2961 20.5484H29.689L30.3014 21.5149L30.9138 20.5484H32.3067L30.9798 22.3314L32.3487 24.1623H30.9738L30.3194 23.1478L29.665 24.1623H28.3741H28.2721H27.5636C29.8691 26.3114 31.6222 27.9323 31.6222 27.9323Z" clip-rule="evenodd" fill-rule="evenodd"/>
<path fill="#F28B00" d="M18.4557 15.6741C16.9187 17.2889 15.9761 19.468 15.9761 21.8693C15.9761 26.8339 20.0047 30.862 24.9699 30.862C26.5068 30.862 27.9538 30.4778 29.2206 29.7934C29.0825 29.5173 29.0405 29.5773 28.332 28.1486C28.6262 28.1546 31.8503 29.2952 33.5374 29.9135C33.6094 29.8474 30.7996 27.1761 27.5875 24.1625H26.9631L25.8704 22.7638C25.7924 22.6617 25.6843 22.4996 25.6603 22.3555L25.5462 22.2475V24.1625H24.3815V21.1609L23.8651 20.6807L22.9045 22.0374C22.8445 22.1274 22.7664 22.2175 22.7664 22.3075C22.7664 22.3676 22.7965 22.4456 22.9406 22.6377L24.1233 24.1685H22.7124L21.8358 22.7938C21.7098 22.6017 21.6257 22.4396 21.6257 22.2955C21.6257 22.1815 21.6917 22.0494 21.7938 21.8933L22.6223 20.5486H23.7271C20.8452 17.8772 18.4557 15.6741 18.4557 15.6741ZM20.3349 20.5486H21.4996V24.1625H20.3349V20.5486ZM18.894 22.6377C19.038 22.4456 19.0681 22.3616 19.0681 22.3075C19.0681 22.2235 18.99 22.1274 18.93 22.0374L17.8973 20.5486H19.2422L20.0527 21.8933C20.1307 22.0194 20.2208 22.1695 20.2208 22.2955C20.2208 22.4396 20.1367 22.6017 20.0107 22.7938L19.1341 24.1685H17.7172L18.894 22.6377Z" clip-rule="evenodd" fill-rule="evenodd"/>
</g>
<defs>
<clipPath id="clip0_3003_3332">
<rect fill="white" height="47" width="208"/>
</clipPath>
</defs>
</svg>