<svg width="16" height="16" viewBox="0 0 16 16" fill="none" xmlns="http://www.w3.org/2000/svg">
<path d="M7.13841 0H1.78296C1.35085 0 1 0.36092 1 0.80543V15.1946C1 15.6391 1.35009 16 1.78296 16H7.22195C11.5264 16 15.0144 12.4041 15 7.97305C14.9855 3.55139 11.4375 0.000781379 7.13917 0.000781379L7.13841 0ZM10.5566 11.3635C9.6597 12.308 8.41348 12.815 7.13006 12.815H4.50322C4.28678 12.815 4.11211 12.6345 4.11211 12.4127V3.58732C4.11211 3.36468 4.28754 3.185 4.50322 3.185H7.12095C9.74095 3.185 11.8795 5.33724 11.8878 7.9832C11.8916 9.25658 11.4193 10.455 10.5558 11.3635H10.5566Z" fill="#043474"/>
</svg>
