<svg width="128" height="128" viewBox="0 0 128 128" fill="none" xmlns="http://www.w3.org/2000/svg">
<path d="M10 104L58 55L30 53L58 52L26 18L61 49L63 22L64 49L111.5 8L67 53L99 54L67 55L99 90L63.5 59L62 96L61 59L10 104Z" fill="#234997"/>
<path d="M58.8623 66.6562L77.3623 86.1562L77.5 86.3008V86.5C77.5 91.3858 75.6928 95.1641 72.4326 97.707C69.1902 100.236 64.567 101.5 59 101.5C53.4328 101.5 48.5685 100.236 45.082 97.7178C41.5767 95.1861 39.5 91.4102 39.5 86.5V86.3008L39.6377 86.1562L58.1377 66.6562L58.5 66.2734L58.8623 66.6562ZM44 87C44.5 92 47 94 51 96C47.7998 89.0827 47.5 86 53 77L44 87Z" fill="#234997"/>
<path d="M97.1907 59.2065L106.928 69.7241L107 69.8021V69.9095C107 72.5448 106.049 74.5826 104.333 75.9542C102.626 77.3183 100.193 78 97.2632 78C94.3331 78 91.7729 77.3181 89.9379 75.96C88.093 74.5945 87 72.5579 87 69.9095V69.8021L87.0725 69.7241L96.8093 59.2065L97 59L97.1907 59.2065ZM89.3684 70.1792C89.6316 72.876 90.9474 73.9548 93.0526 75.0335C91.3683 71.3026 91.2105 69.6398 94.1053 64.7855L89.3684 70.1792Z" fill="#234997"/>
<path d="M75.3496 72.3701L101.813 98.3877L101.963 98.5342V98.7441C101.963 105.231 99.3908 110.222 94.7832 113.574C90.1972 116.91 83.6419 118.59 75.7139 118.59C67.7854 118.59 60.8815 116.911 55.9443 113.585C51.4509 110.558 48.6051 106.177 48.1113 100.534C50.1275 101.381 52.3795 101.95 54.7969 102.249C56.1379 106.912 59.439 109.166 64.2705 111.419C62.5393 107.929 61.4021 105.17 61.082 102.439C65.8876 102.157 70.0019 100.871 73.0479 98.4951C76.5782 95.7413 78.5 91.6572 78.5 86.5V85.9004L78.2236 85.6113L78.0879 85.4678L69.998 76.9404L74.6484 72.3701L74.999 72.0254L75.3496 72.3701ZM77.3623 86.1562L77.5 86.3008V86.5C77.5 91.3858 75.6928 95.1641 72.4326 97.707C69.5873 99.9263 65.6786 101.171 61.002 101.442C60.8227 97.2793 62.6017 92.9825 67.1318 86.0684L54.2578 99.4111C54.3258 100.045 54.4201 100.642 54.5391 101.207C52.1603 100.881 49.9735 100.284 48.0459 99.416C48.0388 99.1939 48.0352 98.9699 48.0352 98.7441V98.5342L48.1846 98.3877L50.7451 95.8691C50.8297 95.9122 50.914 95.957 51 96C50.9592 95.9118 50.9207 95.8233 50.8809 95.7363L69.2852 77.6426L77.3623 86.1562Z" fill="#234997"/>
</svg>
