<svg width="290" height="290" viewBox="0 0 290 290" fill="none" xmlns="http://www.w3.org/2000/svg">
<path d="M145 0C224.98 0 290 64.8723 290 145C290 224.98 225.128 290 145 290C65.0204 290 0 225.128 0 145C0 64.8723 64.8723 0 145 0Z" fill="#FFDE52"/>
<path d="M89.8667 172.728C89.2757 172.137 88.8325 171.399 88.3893 170.66C88.0938 169.921 87.946 169.035 87.946 168.148C87.946 167.262 88.0938 166.375 88.3893 165.637C88.6848 164.898 89.128 164.159 89.8667 163.568L173.046 80.0935C173.637 79.5025 174.376 79.0593 175.114 78.6161C175.853 78.3206 176.74 78.1729 177.626 78.1729C178.513 78.1729 179.399 78.3206 180.138 78.6161C180.876 78.9116 181.615 79.3548 182.206 80.0935L231.848 129.883C232.439 130.474 232.882 131.213 233.325 131.951C233.621 132.69 233.768 133.577 233.768 134.463C233.768 135.349 233.621 136.236 233.325 136.975C233.03 137.713 232.587 138.452 231.848 139.043L148.668 222.518C148.077 223.109 147.339 223.552 146.6 223.847C145.861 224.143 144.975 224.291 144.088 224.291C143.202 224.291 142.463 224.143 141.577 223.847C140.838 223.552 140.099 223.109 139.508 222.518L89.8667 172.728Z" fill="#F8DA5E"/>
<path d="M89.8667 172.728C89.2757 172.137 88.8325 171.399 88.3893 170.66C88.0938 169.921 87.946 169.035 87.946 168.148C87.946 167.262 88.0938 166.375 88.3893 165.637C88.6848 164.898 89.128 164.159 89.8667 163.568L173.046 80.0935C173.637 79.5025 174.376 79.0593 175.114 78.6161C175.853 78.3206 176.74 78.1729 177.626 78.1729C178.513 78.1729 179.399 78.3206 180.138 78.6161C180.876 78.9116 181.615 79.3548 182.206 80.0935L231.848 129.883C232.439 130.474 232.882 131.213 233.325 131.951C233.621 132.69 233.768 133.577 233.768 134.463C233.768 135.349 233.621 136.236 233.325 136.975C233.03 137.713 232.587 138.452 231.848 139.043L148.668 222.518C148.077 223.109 147.339 223.552 146.6 223.847C145.861 224.143 144.975 224.291 144.088 224.291C143.202 224.291 142.463 224.143 141.577 223.847C140.838 223.552 140.099 223.109 139.508 222.518L89.8667 172.728Z" fill="white"/>
<path d="M89.8667 172.728C89.2757 172.137 88.8325 171.399 88.3893 170.66C88.0938 169.921 87.946 169.035 87.946 168.148C87.946 167.262 88.0938 166.375 88.3893 165.637C88.6848 164.898 89.128 164.159 89.8667 163.568L173.046 80.0935C173.637 79.5025 174.376 79.0593 175.114 78.6161C175.853 78.3206 176.74 78.1729 177.626 78.1729C178.513 78.1729 179.399 78.3206 180.138 78.6161C180.876 78.9116 181.615 79.3548 182.206 80.0935L231.848 129.883C232.439 130.474 232.882 131.213 233.325 131.951C233.621 132.69 233.768 133.577 233.768 134.463C233.768 135.349 233.621 136.236 233.325 136.975C233.03 137.713 232.587 138.452 231.848 139.043L148.668 222.518C148.077 223.109 147.339 223.552 146.6 223.847C145.861 224.143 144.975 224.291 144.088 224.291C143.202 224.291 142.463 224.143 141.577 223.847C140.838 223.552 140.099 223.109 139.508 222.518L89.8667 172.728Z" fill="#F8DA5E"/>
<path d="M89.8667 172.728C89.2757 172.137 88.8325 171.399 88.3893 170.66C88.0938 169.921 87.946 169.035 87.946 168.148C87.946 167.262 88.0938 166.375 88.3893 165.637C88.6848 164.898 89.128 164.159 89.8667 163.568L173.046 80.0935C173.637 79.5025 174.376 79.0593 175.114 78.6161C175.853 78.3206 176.74 78.1729 177.626 78.1729C178.513 78.1729 179.399 78.3206 180.138 78.6161C180.876 78.9116 181.615 79.3548 182.206 80.0935L231.848 129.883C232.439 130.474 232.882 131.213 233.325 131.951C233.621 132.69 233.768 133.577 233.768 134.463C233.768 135.349 233.621 136.236 233.325 136.975C233.03 137.713 232.587 138.452 231.848 139.043L148.668 222.518C148.077 223.109 147.339 223.552 146.6 223.847C145.861 224.143 144.975 224.291 144.088 224.291C143.202 224.291 142.463 224.143 141.577 223.847C140.838 223.552 140.099 223.109 139.508 222.518L89.8667 172.728Z" fill="white"/>
<path fill-rule="evenodd" clip-rule="evenodd" d="M176.595 81.7549C175.99 82.1235 175.695 82.3274 175.488 82.534C175.488 82.5343 175.488 82.5338 175.488 82.534L92.1751 166.143L92.0234 166.264C91.8823 166.377 91.7411 166.553 91.5947 166.919C91.4923 167.175 91.3984 167.612 91.3984 168.148C91.3984 168.564 91.4549 168.921 91.5281 169.179C91.8971 169.785 92.1011 170.08 92.3079 170.287L92.3115 170.291L141.95 220.077C141.95 220.077 141.949 220.076 141.95 220.077C142.133 220.26 142.42 220.454 142.774 220.607C143.334 220.787 143.681 220.838 144.088 220.838C144.624 220.838 145.062 220.744 145.318 220.642C145.712 220.484 146.028 220.275 146.227 220.077C146.227 220.077 146.227 220.077 146.227 220.077L229.539 136.468L229.691 136.347C229.832 136.234 229.973 136.058 230.12 135.692C230.222 135.436 230.316 134.999 230.316 134.463C230.316 134.047 230.26 133.691 230.186 133.432C229.817 132.826 229.613 132.531 229.407 132.324L179.628 82.3975L179.51 82.2502C179.397 82.1091 179.222 81.9679 178.856 81.8215C178.6 81.7191 178.162 81.6252 177.626 81.6252C177.21 81.6252 176.854 81.6817 176.595 81.7549ZM173.832 75.4106C175.054 74.922 176.389 74.7205 177.626 74.7205C178.863 74.7205 180.198 74.922 181.42 75.4106C182.484 75.8364 183.723 76.538 184.765 77.7706L234.289 127.442C234.29 127.443 234.288 127.441 234.289 127.442C235.186 128.339 235.822 129.4 236.226 130.075C236.246 130.109 236.266 130.143 236.286 130.175L236.428 130.412L236.531 130.669C237.019 131.891 237.221 133.226 237.221 134.463C237.221 135.7 237.019 137.035 236.531 138.257C236.105 139.32 235.405 140.557 234.176 141.598L151.11 224.959C150.126 225.943 148.965 226.62 147.882 227.053C146.661 227.542 145.325 227.743 144.088 227.743C142.748 227.743 141.635 227.506 140.485 227.123L140.389 227.091L140.295 227.053C139.212 226.62 138.051 225.943 137.067 224.959L87.4255 175.17C87.4254 175.17 87.4255 175.17 87.4255 175.17C86.5274 174.271 85.8931 173.212 85.4889 172.536C85.4683 172.502 85.4483 172.469 85.4289 172.436L85.2865 172.199L85.1838 171.942C84.6952 170.721 84.4937 169.385 84.4937 168.148C84.4937 166.911 84.6952 165.576 85.1838 164.355C85.609 163.291 86.3094 162.054 87.5389 161.013L170.605 77.6523C171.503 76.7541 172.563 76.12 173.238 75.7157C173.272 75.6951 173.306 75.6751 173.338 75.6557L173.575 75.5134L173.832 75.4106Z" fill="#030608"/>
<path d="M147.582 223.208C147.005 223.784 146.283 224.217 145.56 224.649C144.838 224.937 143.972 225.081 143.105 225.081C142.238 225.081 141.516 224.937 140.65 224.649C139.928 224.361 139.205 223.928 138.628 223.208L57.3127 141.769C56.1572 140.616 55.4351 139.03 55.4351 137.3C55.4351 135.571 56.1572 133.985 57.3127 132.832L105.986 84.2569C106.564 83.6803 107.286 83.2479 108.008 82.8155C108.73 82.5272 109.597 82.3831 110.463 82.3831C111.33 82.3831 112.052 82.5272 112.919 82.8155C113.641 83.1038 114.363 83.5362 114.941 84.2569L196.256 165.696C197.411 166.849 198.133 168.435 198.133 170.164C198.133 171.894 197.411 173.479 196.256 174.633L147.582 223.208Z" fill="#F8DA5E"/>
<path d="M147.582 223.208C147.005 223.784 146.283 224.217 145.56 224.649C144.838 224.937 143.972 225.081 143.105 225.081C142.238 225.081 141.516 224.937 140.65 224.649C139.928 224.361 139.205 223.928 138.628 223.208L57.3127 141.769C56.1572 140.616 55.4351 139.03 55.4351 137.3C55.4351 135.571 56.1572 133.985 57.3127 132.832L105.986 84.2569C106.564 83.6803 107.286 83.2479 108.008 82.8155C108.73 82.5272 109.597 82.3831 110.463 82.3831C111.33 82.3831 112.052 82.5272 112.919 82.8155C113.641 83.1038 114.363 83.5362 114.941 84.2569L196.256 165.696C197.411 166.849 198.133 168.435 198.133 170.164C198.133 171.894 197.411 173.479 196.256 174.633L147.582 223.208Z" fill="white"/>
<path fill-rule="evenodd" clip-rule="evenodd" d="M109.484 85.9565C108.898 86.3131 108.619 86.5067 108.425 86.7005L59.7511 135.276C59.2002 135.825 58.8872 136.548 58.8872 137.3C58.8872 138.052 59.2002 138.775 59.7511 139.325L59.7555 139.329L141.203 220.901L141.321 221.048C141.412 221.161 141.553 221.281 141.846 221.408C142.385 221.58 142.717 221.629 143.105 221.629C143.501 221.629 143.839 221.576 144.084 221.508C144.67 221.151 144.949 220.958 145.143 220.764L193.817 172.189C194.368 171.639 194.681 170.916 194.681 170.164C194.681 169.412 194.368 168.689 193.817 168.14L193.813 168.135L112.365 86.563L112.247 86.4162C112.156 86.303 112.015 86.1834 111.722 86.0565C111.183 85.884 110.851 85.8354 110.463 85.8354C110.067 85.8354 109.729 85.8886 109.484 85.9565ZM106.728 79.6091C107.932 79.1284 109.247 78.9307 110.463 78.9307C111.783 78.9307 112.879 79.1639 114.008 79.5396L114.104 79.5716L114.199 79.6091C115.246 80.0272 116.468 80.7173 117.497 81.9315L198.694 163.252C198.695 163.253 198.694 163.252 198.694 163.252C200.453 165.008 201.586 167.458 201.586 170.164C201.586 172.872 200.454 175.32 198.694 177.076L150.021 225.651C149.136 226.535 148.092 227.158 147.433 227.552C147.399 227.572 147.366 227.592 147.334 227.611L147.097 227.753L146.84 227.855C145.636 228.336 144.321 228.534 143.105 228.534C141.785 228.534 140.689 228.301 139.56 227.925L139.464 227.893L139.369 227.855C138.322 227.437 137.1 226.747 136.071 225.533L54.8737 144.212C54.873 144.212 54.8744 144.213 54.8737 144.212C53.115 142.456 51.9824 140.007 51.9824 137.3C51.9824 134.593 53.1137 132.145 54.8737 130.388L103.547 81.8132C104.432 80.9298 105.476 80.3067 106.135 79.9127C106.169 79.8924 106.202 79.8726 106.234 79.8535L106.471 79.7115L106.728 79.6091Z" fill="#030608"/>
<circle cx="161.308" cy="188.256" r="4.60317" fill="black"/>
<rect x="188.629" y="85.3796" width="18.4127" height="50.6349" transform="rotate(45 188.629 85.3796)" fill="black"/>
</svg>
