<?xml version="1.0" encoding="utf-8"?> <svg xmlns="http://www.w3.org/2000/svg" xmlns:xlink="http://www.w3.org/1999/xlink" version="1.1" id="Слой_1" x="0px" y="0px" viewBox="0 0 500 500" style="enable-background:new 0 0 500 500;" xml:space="preserve"> <style type="text/css"> .st0{fill-rule:evenodd;clip-rule:evenodd;fill:#060606;} .st1{fill:#1D1D1B;} .st2{fill-rule:evenodd;clip-rule:evenodd;fill:#E20613;} </style> <g> <path class="st0" d="M223.53,25.6l-14.4,4.43c-3.56,1.1-5.96,3.8-5.25,5.99l141.33,435.67c0.71,2.18,2.82,3.51,6.37,2.42l3.52-1.08 c3.55-1.09,4.55-3.37,3.91-5.57L231.24,27.61C230.59,25.4,227.09,24.51,223.53,25.6z"></path> <g> <path class="st1" d="M223.53,25.6l-14.4,4.43c-3.56,1.1-5.96,3.8-5.25,5.99l141.33,435.67c0.71,2.18,2.82,3.51,6.37,2.42 l3.52-1.08c3.55-1.09,4.55-3.37,3.91-5.57L231.24,27.61C230.59,25.4,227.09,24.51,223.53,25.6z"></path> <path class="st1" d="M349.25,474.92c-2.5,0-3.92-1.46-4.45-3.11L203.46,36.15c-0.27-0.84-0.16-1.77,0.32-2.68 c0.87-1.68,2.83-3.12,5.22-3.86l14.4-4.42c2.4-0.74,4.82-0.64,6.49,0.26c0.91,0.49,1.52,1.2,1.77,2.05l127.76,439.84 c0.81,2.77-0.76,5.06-4.2,6.11l-3.51,1.08C350.8,474.8,349.98,474.92,349.25,474.92z M226.55,25.57c-0.93,0-1.92,0.15-2.89,0.45 l-14.4,4.42c-2.14,0.66-3.94,1.97-4.7,3.42c-0.37,0.71-0.46,1.4-0.26,2.01l141.33,435.66c0.73,2.27,2.86,3.04,5.82,2.13l3.51-1.08 c2.96-0.91,4.28-2.74,3.61-5.03L230.81,27.73c-0.18-0.61-0.64-1.14-1.34-1.52C228.68,25.79,227.66,25.57,226.55,25.57z"></path> </g> <path class="st0" d="M276.47,25.99l14.4,4.43c3.56,1.1,5.96,3.8,5.25,5.99L154.79,472.07c-0.71,2.18-2.82,3.51-6.37,2.42 l-3.51-1.08c-3.55-1.09-4.55-3.37-3.91-5.57L268.76,27.99C269.41,25.78,272.91,24.89,276.47,25.99z"></path> <g> <path class="st1" d="M276.47,25.99l14.4,4.43c3.56,1.1,5.96,3.8,5.25,5.99L154.79,472.07c-0.71,2.18-2.82,3.51-6.37,2.42 l-3.51-1.08c-3.55-1.09-4.55-3.37-3.91-5.57L268.76,27.99C269.41,25.78,272.91,24.89,276.47,25.99z"></path> <path class="st1" d="M150.75,475.31c-0.73,0-1.55-0.13-2.46-0.41l-3.51-1.08c-3.44-1.06-5.01-3.34-4.2-6.12L268.34,27.87 c0.25-0.85,0.86-1.55,1.77-2.04c1.66-0.9,4.09-1,6.49-0.26h0l14.4,4.43c2.4,0.74,4.35,2.18,5.22,3.86 c0.48,0.92,0.59,1.84,0.32,2.68L155.2,472.2C154.67,473.84,153.25,475.31,150.75,475.31z M273.45,25.96 c-1.11,0-2.14,0.21-2.92,0.64c-0.7,0.38-1.16,0.9-1.34,1.52L141.42,467.95c-0.66,2.29,0.65,4.12,3.61,5.03l3.51,1.08 c2.96,0.91,5.08,0.13,5.82-2.13L295.7,36.26c0.2-0.61,0.11-1.3-0.26-2c-0.76-1.45-2.56-2.77-4.7-3.43l-14.4-4.43h0 C275.37,26.11,274.38,25.96,273.45,25.96z"></path> </g> <path class="st2" d="M261.01,318.2c25.14,11.31,34.03,28.74,29.49,48.71c-4.54,19.96-27.11,34.8-48.71,29.49 c-21.6-5.31-34.8-27.11-29.5-48.71C217.61,326.09,232.84,305.52,261.01,318.2"></path> </g> </svg> 