<svg width="512" height="512" viewBox="0 0 512 512" fill="none" xmlns="http://www.w3.org/2000/svg">
	<rect width="512" height="512" rx="118.154" fill="#6339F5"/>
	<path d="M234.234 84.1486L88.0656 84.1486C85.3291 84.1486 83.1107 86.3669 83.1107 89.1034V122.549C83.1107 125.285 85.3291 127.504 88.0656 127.504L167.963 127.504L88.0656 196.871C88.0656 196.871 85.3416 199.62 84.3494 201.826C83.3376 204.076 83.1107 208.02 83.1107 208.02L83.1107 235.272C83.1107 238.008 85.3291 240.226 88.0656 240.226L234.234 240.226C236.97 240.226 239.189 238.008 239.189 235.272V201.826C239.189 199.09 236.97 196.871 234.234 196.871L154.337 196.871L234.234 127.504C234.234 127.504 236.932 125.569 237.95 123.787C239.174 121.646 239.189 117.594 239.189 117.594V89.1034C239.189 86.3669 236.97 84.1486 234.234 84.1486Z" fill="white"/>
	<path d="M271.528 272.588L271.528 418.756C271.528 421.493 273.747 423.711 276.483 423.711L309.928 423.711C312.665 423.711 314.883 421.493 314.883 418.756L314.883 338.859L384.251 418.756C384.251 418.756 387 421.48 389.206 422.472C391.456 423.484 395.4 423.711 395.4 423.711L422.651 423.711C425.388 423.711 427.606 421.493 427.606 418.756L427.606 272.588C427.606 269.852 425.388 267.633 422.651 267.633L389.206 267.633C386.47 267.633 384.251 269.852 384.251 272.588L384.251 352.485L314.883 272.588C314.883 272.588 312.949 269.89 311.167 268.872C309.025 267.648 304.974 267.633 304.974 267.633L276.483 267.633C273.747 267.633 271.528 269.852 271.528 272.588Z" fill="white"/>
	<path fill-rule="evenodd" clip-rule="evenodd" d="M395.449 85.8047C382.603 78.712 367.216 74.8307 349.956 74.8307C332.697 74.8307 317.309 78.712 304.463 85.8047C291.617 92.8975 281.313 103.202 274.22 116.048C267.128 128.893 263.246 144.281 263.246 161.541C263.246 178.8 267.128 194.188 274.22 207.034C281.313 219.88 291.617 230.184 304.463 237.277C317.309 244.369 332.697 248.251 349.956 248.251C367.216 248.251 382.603 244.369 395.449 237.277C408.295 230.184 418.6 219.88 425.692 207.034C432.785 194.188 436.666 178.8 436.666 161.541C436.666 144.281 432.785 128.893 425.692 116.048C418.6 103.202 408.295 92.8975 395.449 85.8047ZM326.806 123.471C333.229 120.026 341.024 118.186 349.956 118.186C358.888 118.186 366.683 120.026 373.106 123.471C379.529 126.917 384.58 131.968 388.026 138.391C391.471 144.814 393.311 152.608 393.311 161.541C393.311 170.473 391.471 178.268 388.026 184.691C384.58 191.114 379.529 196.165 373.106 199.61C366.683 203.056 358.888 204.896 349.956 204.896C341.024 204.896 333.229 203.056 326.806 199.61C320.383 196.165 315.332 191.114 311.886 184.691C308.441 178.268 306.601 170.473 306.601 161.541C306.601 152.608 308.441 144.814 311.886 138.391C315.332 131.968 320.383 126.917 326.806 123.471Z" fill="white"/>
	<path fill-rule="evenodd" clip-rule="evenodd" d="M161.539 263.247C178.798 263.247 194.186 267.128 207.032 274.221C219.878 281.313 230.182 291.618 237.275 304.464C244.367 317.31 248.249 332.697 248.249 349.957C248.249 367.216 244.367 382.604 237.275 395.45C230.182 408.296 219.878 418.6 207.032 425.693C194.186 432.785 178.798 436.667 161.539 436.667C144.279 436.667 128.892 432.785 116.046 425.693C103.2 418.6 92.8955 408.296 85.8028 395.45C78.71 382.604 74.8288 367.216 74.8288 349.957C74.8288 332.697 78.71 317.31 85.8028 304.464C92.8955 291.618 103.2 281.313 116.046 274.221C128.892 267.128 144.279 263.247 161.539 263.247ZM138.389 311.887C144.811 308.442 152.606 306.602 161.538 306.602C170.471 306.602 178.265 308.442 184.688 311.887C191.111 315.333 196.163 320.384 199.608 326.807C203.054 333.23 204.893 341.024 204.893 349.957C204.893 358.889 203.054 366.684 199.608 373.107C196.163 379.53 191.111 384.581 184.688 388.026C178.265 391.472 170.471 393.312 161.538 393.312C152.606 393.312 144.811 391.472 138.389 388.026C131.966 384.581 126.914 379.53 123.469 373.107C120.023 366.684 118.183 358.889 118.183 349.957C118.183 341.024 120.023 333.23 123.469 326.807C126.914 320.384 131.966 315.333 138.389 311.887Z" fill="white"/>
</svg>
