<svg width="180" height="180" viewBox="0 0 180 180" fill="none" xmlns="http://www.w3.org/2000/svg">
<rect width="180" height="180" rx="30" fill="black"/>
<path d="M126.59 45.9194H136.851C137.234 45.8936 137.541 45.7131 137.719 45.3263C137.923 44.9654 138 44.5012 138 43.9597C138 43.4182 137.923 42.9541 137.719 42.5931C137.515 42.2321 137.234 42.0258 136.851 42H112.73C112.347 42.0258 112.066 42.2321 111.888 42.6189C111.684 43.0314 111.581 43.4698 111.581 43.9339C111.581 44.4754 111.684 44.9396 111.888 45.3006C112.092 45.6616 112.347 45.8678 112.73 45.8936H122.736V99.0637L71.5326 42.0258H43.1486C42.7658 42.0516 42.485 42.2579 42.3063 42.6189C42.1021 42.9799 42 43.444 42 43.9855C42 44.527 42.1021 44.9911 42.3063 45.3521C42.485 45.7131 42.7658 45.8936 43.1486 45.9194H53.2821V134.081H43.1486C42.7658 134.106 42.485 134.287 42.3063 134.674C42.1021 135.035 42 135.499 42 136.04C42 136.582 42.1021 137.02 42.3063 137.407C42.5105 137.768 42.7658 137.974 43.1486 138H67.2699C67.6528 137.974 67.9591 137.794 68.1377 137.407C68.3419 137.046 68.4185 136.582 68.4185 136.04C68.4185 135.499 68.3419 135.06 68.1377 134.674C67.9335 134.313 67.6528 134.106 67.2699 134.081H57.1364V64.8461L122.736 137.974H126.59V45.9194Z" fill="white"/>
</svg>
