<?xml version="1.0" encoding="UTF-8"?> <svg xmlns="http://www.w3.org/2000/svg" width="90" height="90" viewBox="0 0 90 90" fill="none"><rect x="10.7" y="35.2" width="22" height="13" fill="white"></rect><path d="M58.1 29.9C69.3 29.4 83.8 27.3 85.3 12.2C81.1 19 73 25.4 62.4 24.5C68.4 24.1 76.3 15.6 71.5 10C69.7 20.3 55.6 23.2 44.4 23C41.4 22.9 32 21.9 29.8 22C20.3 22.4 14.1 26.3 10.5 32.4C8.7 35.4 8.7 38.9 7.3 42.5C5.9 45.9 3.1 49.4 2 53.2C2.9 53.3 9.7 52.9 10 53.3C10.3 53.7 9.4 57.6 9.3 58.5C8.8 62.4 6.5 68 9.7 69C11.1 69.4 15.3 68.6 16.5 69.4C17.8 70.3 18.2 71.8 17.9 73.3C17.5 75.5 17.1 77.6 17 79C18.6 79.6 41.3 79 41.3 79C40.6 73.8 40.2 68.5 40.6 63C40.9 59.5 42.3 57.2 43.8 54.8C47.3 55.9 51.1 57.7 54.2 56.6C50.4 55.5 47.1 51.7 46.5 50.2C46.6 50.1 63.3 55.1 67.5 49C66.4 49.3 54.4 49.6 49.8 43C59.5 47.4 76.9 47.5 81.5 38.4C75.4 41.3 61 42.2 53.1 34.9C65.2 38.2 80.1 40.5 87.5 26.7C85.6 28.2 84.6 28.7 82.9 29.6C77.9 32.5 66.1 32.1 58.1 29.9ZM19.2 45.1C16.7 45.2 12.4 42.7 12.4 42.7C12.4 42.7 14.2 41.5 16.1 40.7C16.1 40.9 16 41.2 16 41.4C16.1 43.2 17.5 42.5 19.2 42.5C20.9 42.4 22.2 43 22.2 41.2C22.2 41 22.2 40.7 22.1 40.5C24 41.2 25.8 42.2 25.8 42.2C25.8 42.2 21.6 45 19.2 45.1Z" fill="#D71920"></path><circle cx="19.2" cy="40.7" r="3.5" fill="black"></circle><path d="M12.7 38.7L14.2 36.2L17.2 34.7L24.7 37.2L23.2 39.7L22.0788 39.5878L18.2 39.2L16.7463 39.6845L15.2 40.2L12.7 38.7Z" fill="#D71920"></path><path d="M11.7 42.7C18.7 38.2 19.7 38.2 26.2 42.2" stroke="#D71920"></path></svg> 