<?xml version="1.0" encoding="utf-8"?>
<svg version="1.1" id="Слой_1" xmlns="http://www.w3.org/2000/svg" xmlns:xlink="http://www.w3.org/1999/xlink" x="0px" y="0px"
	 viewBox="0 0 833.6 1147.5" style="enable-background:new 0 0 833.6 1147.5;" xml:space="preserve">
<g>
	<g>
		<g>
			<path fill="#00A0DE" d="M740.1,1091.4H91c-21.4,0-38.7-17.4-38.7-38.7c0-21.4,17.4-38.7,38.7-38.7h649.1c21.4,0,38.7,17.3,38.7,38.7
				C778.8,1074,761.5,1091.4,740.1,1091.4z"/>
		</g>
	</g>
	<g>
		<path fill="#00A0DE" d="M779.1,115.3c0,10.5-8.5,19.1-19.1,19.1h-39.3c-10.5,0-19.1-8.5-19.1-19.1V75.9c0-10.5,8.6-19,19.1-19h39.3
			c10.5,0,19.1,8.5,19.1,19V115.3z"/>
	</g>
	<g>
		<path fill="#00A0DE" d="M129.2,115.4c0,10.5-8.5,18.9-18.9,18.9H71.2c-10.4,0-18.9-8.5-18.9-18.9V76.3c0-10.4,8.5-18.9,18.9-18.9
			h39.1c10.4,0,18.9,8.5,18.9,18.9V115.4z"/>
	</g>
	<g>
		<path fill="#00A0DE" d="M90.8,675.7c-21.3,0-38.5-17.3-38.5-38.6v-435c0-21.3,17.2-38.5,38.5-38.5c21.3,0,38.5,17.3,38.5,38.5v435
			C129.3,658.4,112,675.7,90.8,675.7z"/>
	</g>
	<g>
		<path fill="#00A0DE" d="M740.6,675.7c-21.3,0-38.6-17.3-38.6-38.6V202.1c0-21.3,17.3-38.5,38.6-38.5c21.3,0,38.5,17.3,38.5,38.5
			v435.1C779.1,658.4,761.9,675.7,740.6,675.7z"/>
	</g>
	<g>
		<path fill="#00A0DE" d="M632.9,134.3h-435c-21.3,0-38.5-17.3-38.5-38.5c0-21.3,17.2-38.6,38.5-38.6h435c21.3,0,38.6,17.3,38.6,38.6
			C671.5,117.1,654.2,134.3,632.9,134.3z"/>
	</g>
	<g>
		<path fill="#00A0DE" d="M779.1,724.2c0-10.5-8.5-18.9-18.9-18.9h-39.1c-10.4,0-18.9,8.5-18.9,18.9v39.1c0,10.4,8.5,18.9,18.9,18.9
			h39.1c10.4,0,18.9-8.5,18.9-18.9V724.2z"/>
	</g>
	<g>
		<path fill="#00A0DE" d="M129.7,723.8c0-10.5-8.6-19.1-19-19.1H71.3c-10.5,0-19.1,8.5-19.1,19.1v39.3c0,10.5,8.6,19.1,19.1,19.1h39.4
			c10.5,0,19-8.5,19-19.1V723.8z"/>
	</g>
	<g>
		<path fill="#00A0DE" d="M632.9,705.1h-435c-21.3,0-38.5,17.2-38.5,38.5c0,21.3,17.2,38.6,38.5,38.6h435c21.3,0,38.6-17.3,38.6-38.6
			C671.5,722.3,654.2,705.1,632.9,705.1z"/>
	</g>
	<g>
		<g>
			<path fill="#00A0DE" d="M635.4,673.6c-9.1,0-18.2-3.5-25.3-10.5L170.5,224.9c-14.3-14.2-14.5-37.5-0.6-52
				c13.9-14.5,36.8-14.8,51.1-0.6l439.5,438.2c14.2,14.2,14.5,37.5,0.5,52.1C654.1,669.9,644.7,673.6,635.4,673.6z"/>
		</g>
		<g>
			<path fill="#00A0DE" d="M195.8,673.6c-9.4,0-18.8-3.7-25.8-11.1c-14-14.6-13.7-37.9,0.6-52.1L610,172.3c14.3-14.2,37.2-14,51.1,0.6
				c13.9,14.5,13.7,37.8-0.6,52L221,663.1C214,670.1,204.9,673.6,195.8,673.6z"/>
		</g>
	</g>
</g>
</svg>
