<svg xmlns="http://www.w3.org/2000/svg" fill="none" viewBox="0 0 92 92">
  <style>
		.favicon-bg { fill: #fff }
		.favicon-text { fill: #000 }
	  @media (prefers-color-scheme: dark) {
      .favicon-bg { fill: #000 }
      .favicon-text { fill: #fff }
    }
	</style>

  <rect class="favicon-bg" width="92" height="92" fill="#fff" rx="46"/>
  <path class="favicon-text" fill="#000" fill-rule="evenodd" d="M32.544 42.175a4.798 4.798 0 0 0-4.782-4.803h-5.674v16.432h3.302v-5.979h1.644l2.455 5.98h3.552v-.158l-2.786-6.526a4.81 4.81 0 0 0 2.29-4.1v-.846Zm-7.154-2.023h2.372a2.022 2.022 0 0 1 2.014 2.023v.847a2.022 2.022 0 0 1-2.014 2.022H25.39v-4.892Zm9.838 1.788c0-3.1 2.308-5.062 5.31-5.062 2.9 0 5.3 1.937 5.3 4.96v7.007c0 3.023-2.4 4.96-5.3 4.96-3.002 0-5.31-1.961-5.31-5.062V41.94Zm7.013-.102c0-1.018-.663-1.805-1.705-1.805s-1.705.787-1.705 1.805v7.007c0 1.018.663 1.805 1.705 1.805s1.705-.787 1.705-1.805v-7.007Zm31.149.332c0-3.1 2.309-5.06 5.311-5.06C81.6 37.11 84 39.044 84 42.068v7.007c0 3.023-2.4 4.96-5.299 4.96-3.002 0-5.31-1.961-5.31-5.062V42.17Zm7.013-.102c0-1.017-.662-1.804-1.705-1.804-1.042 0-1.705.786-1.705 1.804v7.008c0 1.018.663 1.804 1.705 1.804 1.043 0 1.705-.786 1.705-1.804v-7.008Zm-65.498 8.956h-2.098V40.152h2.098a2.022 2.022 0 0 1 2.014 2.023c0 .56-.224 1.069-.587 1.434l-.003-.003a2.007 2.007 0 0 1-1.372.592h-.052v2.78h.052A2.022 2.022 0 0 1 16.919 49a2.03 2.03 0 0 1-.587 1.434l-.003-.002a2.005 2.005 0 0 1-1.424.592Zm3.365-5.436.017-.017v-.005c.865-.87 1.4-2.07 1.4-3.39a4.799 4.799 0 0 0-1.4-3.397 4.758 4.758 0 0 0-3.382-1.407h-5.4v16.432h5.4c1.32 0 2.516-.537 3.382-1.407v-.005c.865-.87 1.4-2.07 1.4-3.391a4.8 4.8 0 0 0-1.4-3.397l-.017-.016Zm46.79 1.872-1.304 1.649v4.696h-3.302V37.372h3.302v7.165l1.047-1.772 3.045-5.393h4.046l-4.686 7.223 4.763 9.21h-3.92L65.06 47.46Z" clip-rule="evenodd"/>
  <path class="favicon-text" fill="#000" d="M58.19 49.222a4.8 4.8 0 0 1-1.402 3.397c-1.016 1.02-2.351 1.416-3.752 1.416-1.43 0-2.724-.371-3.764-1.416a4.8 4.8 0 0 1-1.4-3.397h3.309c0 2.601 3.702 2.601 3.702 0-.041-.535-.223-.951-.517-1.242-.34-.341-.955-.699-1.853-1.063-.43-.164-.829-.335-1.195-.513a6.509 6.509 0 0 1-1.715-1.07h-.015a5.028 5.028 0 0 1-.365-.368l-.004-.005-.001-.002-.007-.007-.006-.006-.029-.034c-.708-.829-1.046-1.875-1.077-2.958a4.8 4.8 0 0 1 1.401-3.397c1.017-1.02 2.352-1.416 3.753-1.416 1.43 0 2.723.371 3.763 1.416a4.798 4.798 0 0 1 1.401 3.397h-3.309c0-2.601-3.702-2.601-3.702 0 .04.536.223.951.516 1.242.34.342.956.698 1.854 1.063l.207.08.002.002c1.432.555 2.264 1.127 2.705 1.5h.011c.056.052.111.104.164.157.175.166.247.266.247.266.709.829 1.046 1.875 1.077 2.958Z"/>
</svg>
