<?xml version="1.0" encoding="utf-8"?>
<!-- Generator: Adobe Illustrator 16.0.0, SVG Export Plug-In . SVG Version: 6.00 Build 0)  -->
<!DOCTYPE svg PUBLIC "-//W3C//DTD SVG 1.1//EN" "http://www.w3.org/Graphics/SVG/1.1/DTD/svg11.dtd">
<svg version="1.1" id="Layer_1" xmlns="http://www.w3.org/2000/svg" xmlns:xlink="http://www.w3.org/1999/xlink" x="0px" y="0px"
	 width="120px" height="120px" viewBox="0 0 120 120" enable-background="new 0 0 120 120" xml:space="preserve">
<g>
	<polygon fill="#8C3E97" points="96.086,6.454 84.082,7.087 84.082,118.611 95.77,118.611 	"/>
	<path fill="#8C3E97" d="M88.717,65.076v-0.003c-0.031-0.088-0.475-3.051-1.576-7.392c-0.293-1.158-0.641-2.408-1.047-3.728l0,0
		c-0.232-0.656-0.648-1.899-1.344-3.489c1.541,5.689,2.572,11.479,3.252,17.019c0.143-0.18,0.283-0.356,0.422-0.536
		c0.119-0.162,0.238-0.319,0.35-0.482c0.039-0.056,0.076-0.114,0.107-0.17c0.016-0.029,0.029-0.058,0.037-0.073
		c-0.141-1.77-0.244-6.378-1-12.527c-0.494-3.888-1.289-8.387-2.629-13.078c-1.334-4.686-3.23-9.555-5.76-14.107
		c-2.285-4.139-5.094-7.998-8.182-11.3c-0.758,0.753-1.357,1.666-1.74,2.756c-1.096-1.71-1.846-3.878-1.389-5.856
		c-0.385-0.354-0.771-0.697-1.158-1.031c-1.191,1.548-1.727,3.543-1.703,5.524c-3.801-2.97-8.1-5.263-12.813-6.374
		c-0.012-0.015-0.027-0.019-0.044-0.027c-3.436-1.542-5.794-5.068-7.048-8.529c-0.092-0.257-0.476-0.383-0.683-0.186
		c-0.113,0.108-0.226,0.219-0.333,0.336c-2.016,2.088-3.263,5.052-2.401,7.928C35.52,10.697,29.41,14.01,26.486,20.233
		c-3.984,8.469-0.73,19.346,8.59,22.595c4.101,1.426,8.763,1.13,12.316-1.564c3.385-2.568,5.935-6.979,5.122-11.354
		c-0.763-4.081-3.847-7.907-8.128-8.599c-4.366-0.705-8.339,1.71-9.709,5.919c-0.067,0.199,0.005,0.372,0.131,0.479l0.002,0.005
		c-0.034,1.151,0.425,2.202,1.321,2.791c1.539,1.007,3.792,0.285,5.031-1.61c1.242-1.896,1.011-4.251-0.527-5.255
		c-0.519-0.34-1.117-0.485-1.728-0.449c2.032-1.273,4.604-1.583,7.043-0.462c3.826,1.765,6.478,5.9,5.686,10.199
		c-1.605,8.673-11.59,12.465-18.86,7.799c-4.682-3.001-7.756-8.411-7.195-14.071c0.602-6.076,4.405-11.524,9.964-14.101
		c2.261-1.049,4.627-1.7,7.035-2.012c0.037,0,0.079-0.005,0.116-0.013c3.188-0.395,6.438-0.173,9.579,0.573
		c2.934,0.692,5.775,1.845,8.382,3.381c1.646,0.972,3.201,2.038,4.666,3.201c7.66,6.049,12.91,14.507,16.49,23.751
		c0.041,0.089,0.088,0.176,0.135,0.263c2.838,5.541,4.518,11.474,5.471,15.923C88.361,62.014,88.688,64.988,88.717,65.076
		C88.717,65.073,88.717,65.073,88.717,65.076z"/>
	<path fill="#8C3E97" d="M91.607,92.073c0.648-6.405-2.412-12.059-6.994-16.169l-0.451,0.752c1.354,1.235,2.57,2.622,3.621,4.175
		c3.447,5.069,3.904,11.697,1.293,17.216c-2.428,5.142-7.848,8.201-13.404,8.371c-8.635,0.259-15.247-8.128-12.162-16.392
		c1.529-4.096,5.932-6.28,10.119-5.821c2.672,0.293,4.719,1.878,5.805,4.018c-0.504-0.343-1.094-0.527-1.711-0.499
		c-1.838,0.067-3.248,1.969-3.156,4.231c0.088,2.267,1.652,4.038,3.486,3.971c1.072-0.046,2.006-0.711,2.57-1.716h0.002
		c0.16-0.029,0.313-0.141,0.357-0.346c0.992-4.313-1.176-8.428-5.281-10.069c-4.029-1.606-8.639,0.089-11.395,3.195
		c-2.945,3.334-3.029,8.431-1.445,12.371c1.664,4.141,5.508,6.792,9.758,7.678C82.283,109.039,90.668,101.383,91.607,92.073z"/>
	<rect x="38.757" y="42.471" fill="#8C3E97" width="3.203" height="16.47"/>
	<polygon fill="#8C3E97" points="31.815,66.629 49.327,66.629 42.495,58.94 38.436,58.728 	"/>
	<path fill="#8C3E97" d="M30.642,67.271c0,0.697,0.459,1.26,1.028,1.26h17.594c0.566,0,1.027-0.564,1.027-1.26l0,0
		c0-0.698-0.461-1.261-1.027-1.261H31.669C31.101,66.011,30.642,66.576,30.642,67.271L30.642,67.271z"/>
	<path fill="#8C3E97" d="M25.729,79.125c0,0.873,0.709,1.583,1.586,1.583h27.153c0.875,0,1.587-0.71,1.587-1.583l0,0
		c0-0.874-0.711-1.583-1.587-1.583H27.316C26.437,77.542,25.729,78.248,25.729,79.125L25.729,79.125z"/>
	<path fill="#8C3E97" d="M26.905,77.097c0,0.695,0.635,1.261,1.417,1.261h24.287c0.784,0,1.418-0.565,1.418-1.261l0,0
		c0-0.698-0.635-1.263-1.418-1.263H28.321C27.54,75.834,26.905,76.398,26.905,77.097L26.905,77.097z"/>
	<path fill="#8C3E97" d="M33.312,72.304c0,2.175,1.435,3.938,3.203,3.938h7.794c1.768,0,3.203-1.763,3.203-3.938v-2.487
		c0-2.174-1.435-3.935-3.203-3.935h-7.794c-1.768,0-3.203,1.761-3.203,3.935V72.304z"/>
	<path fill="#8C3E97" d="M30.107,76.241h20.184c0,0-2.981-4.597-2.884-5.553c0.639-6.3-14.842-6.407-14.096,1.069
		C33.405,72.712,30.107,76.241,30.107,76.241z"/>
	<polygon fill="#8C3E97" stroke="#8C3E97" points="38.632,113.865 44.081,113.865 48.227,80.245 33.756,80.245 	"/>
	<polygon fill="#8C3E97" points="44.028,114.151 46.284,114.577 53.386,80.084 49.779,80.084 	"/>
	<polygon fill="#8C3E97" points="38.711,114.256 36.278,114.684 28.611,80.191 32.505,80.191 	"/>
	<polygon fill="#8C3E97" points="51.581,84.174 57.884,84.174 54.893,79.793 51.581,80.328 	"/>
	<polygon fill="#8C3E97" points="30.217,84.144 23.914,84.144 26.905,79.766 30.217,80.298 	"/>
	<polygon fill="#FFFFFF" stroke="#8C3E97" stroke-width="0.5" points="56.606,84.017 52.931,84.131 44.616,115.543 47.281,115.482 	
		"/>
	<polygon fill="#FFFFFF" stroke="#8C3E97" stroke-width="0.5" points="25.266,83.708 29.237,83.82 37.691,114.863 35.348,115.172 	
		"/>
	<ellipse fill="#8C3E97" cx="41.373" cy="115.112" rx="6.458" ry="2.886"/>
</g>
</svg>
