<svg width="120" height="120" viewBox="0 0 120 120" fill="none" xmlns="http://www.w3.org/2000/svg">
<g clip-path="url(#clip0_608_2)">
<circle cx="59.9996" cy="60" r="60" fill="#E4281F"/>
<path d="M59.9996 0C93.1309 0 120 26.8687 120 60C120 93.1313 93.1309 120 59.9996 120C26.8683 120 -0.000396729 93.1313 -0.000396729 60C-0.000396729 26.8687 26.8683 0 59.9996 0ZM59.9996 2.21831C28.0942 2.21831 2.21791 28.0946 2.21791 60C2.21791 91.9054 28.0942 117.782 59.9996 117.782C91.905 117.782 117.781 91.9066 117.781 60C117.781 28.0934 91.905 2.21831 59.9996 2.21831ZM59.0516 102.775L58.8793 105.355L55.6812 105.144L55.5781 106.702L58.775 106.911L58.6251 109.145L55.3027 108.926L55.1996 110.483L58.5207 110.702L58.3578 113.14L52.3532 112.97L53.0468 102.605L59.0516 102.775ZM66.7039 102.066C67.4176 102.066 68.0996 102.198 68.7255 102.438L69.0617 105.164C68.5449 104.769 67.8957 104.537 67.188 104.537C65.5075 104.537 64.1445 105.868 64.1445 107.515C64.1445 109.161 65.5075 110.494 67.188 110.494C68.157 110.494 69.0195 110.048 69.5774 109.358L69.8903 111.893C68.989 112.516 67.8909 112.884 66.7039 112.884C63.6499 112.884 61.1739 110.46 61.1739 107.475C61.1739 104.49 63.6499 102.067 66.7039 102.067V102.066ZM45.1683 100.768C45.1659 100.774 43.7078 103.968 44.4476 104.609C45.1895 105.25 46.0988 105.58 46.9988 105.109L48.1017 101.419L48.1027 101.42L50.6259 102.175L47.6539 112.114L45.1321 111.307L46.346 107.299C44.9257 107.199 43.8102 107.014 42.6114 106.282C41.4124 105.55 41.0083 103.255 42.6828 99.7969L45.1683 100.768ZM77.8203 101.795L75.4953 102.605L78.105 109.985L75.8058 110.854L73.175 103.413V103.412L70.9849 104.174L70.1151 101.875L76.9495 99.4957L77.8203 101.795ZM38.5238 97.459L36.3431 108.34L33.9899 106.932L34.1739 104.643L31.1938 102.99L29.4031 104.279L27.2095 102.94H27.2104L35.6996 95.8383L38.5238 97.459ZM82.8934 96.0597C86.0234 94.2845 87.7789 97.1567 86.607 99.518C87.2363 99.1675 89.1184 99.4911 89.7265 100.895C90.8597 103.508 88.0156 104.926 85.605 106.409L83.464 107.639V107.638L78.3781 98.7948C79.9015 97.9184 81.3783 96.941 82.8934 96.0597ZM87.3605 102.186C86.5777 100.385 85.1549 101.75 84.0922 102.347C84.5081 103.102 84.8433 103.67 85.2594 104.424H85.2605C86.205 103.821 87.7214 103.212 87.3605 102.186ZM35.6915 99.4265C35.8555 98.652 35.4336 98.9226 35.1582 99.1652L32.436 101.491L34.953 102.979L35.6915 99.4265ZM28.1516 89.1435L24.8151 92.4047L30.5257 91.8538L30.5269 91.8526L32.5824 94.0056L25.9907 94.4108L25.2348 101.191L23.1781 99.0387L23.9938 93.2085L20.8038 96.3282L18.9112 94.3921L26.2578 87.2074L28.1516 89.1435ZM93.5526 101.149L93.5516 101.148L93.5517 101.148L93.5526 101.149ZM101.084 93.6772L99.1286 95.5969L96.9594 94.8387L94.6052 97.3043L95.4007 99.3621L93.5517 101.148L88.8265 91.1391L91.1095 88.8128L101.084 93.6772ZM84.9886 98.6367C84.3219 97.0851 82.9988 98.2793 82.0085 98.7832C82.3882 99.47 82.7669 100.159 83.1466 100.846C84.0079 100.248 85.3402 99.8648 84.9886 98.6367ZM92.2953 92.0542C91.5888 91.7004 91.7422 92.1772 91.9062 92.5042L93.4683 95.7222L93.4696 95.7234L95.546 93.6669L92.2953 92.0542ZM70.7913 48.5917H95.9667V70.0969H70.7913V95.2723H49.2863V70.0969H24.111V48.5917H49.2863V23.4164H70.7913V48.5917ZM64.3187 51.5045C64.3187 54.2759 64.3615 56.9257 64.3615 59.6984C64.3639 61.1159 63.7344 61.632 63.0313 62.0416H62.5411V68.4528H68.0398V66.0002H74.1492V68.3968H79.5927V61.9855H78.7599V51.5045H64.3187ZM28.4384 60.1462C28.2003 61.431 27.3105 61.541 26.3276 61.4838C26.8263 63.1376 27.3256 64.7916 27.8255 66.4455C31.1769 66.5483 33.6042 65.4887 33.9907 61.8743V55.6863H37.2124V66.0549H43.2659V51.5606H28.4384V60.1462ZM53.5655 51.5305C46.842 51.5305 44.8993 54.8345 44.8993 58.9186C44.8993 63.0028 46.7257 66.3081 53.5655 66.3081C60.4052 66.3081 62.2351 63.0004 62.2351 58.9186C62.2351 54.837 60.2838 51.5305 53.5655 51.5305ZM83.6794 51.4089C82.649 51.4089 81.6541 51.5104 80.7119 51.6978V55.5167C81.5018 55.0043 82.4869 54.7024 83.5555 54.7024C85.5684 54.7024 87.2868 55.2621 87.96 56.9484H82.994V60.2393H88.0502C87.4516 62.119 85.665 62.7387 83.5555 62.7387C82.4869 62.7387 81.5018 62.4317 80.7119 61.9207V65.8624C81.6541 66.0512 82.649 66.154 83.6794 66.154C89.5792 66.154 94.3646 64.4356 94.3646 58.7813C94.3646 53.1273 89.5792 51.4089 83.6794 51.4089ZM53.5668 54.9971C55.4408 54.9973 55.9868 56.7526 55.9868 58.9186C55.9868 61.0848 55.4751 62.8415 53.5668 62.8415C51.6584 62.8415 51.1479 61.0862 51.1479 58.9186C51.1479 56.7514 51.6895 54.9971 53.5668 54.9971ZM73.1498 55.5739V62.2649H68.4756L68.4751 62.2643C69.101 61.9075 69.4173 61.0142 69.5067 59.7391V55.5739H73.1498ZM95.9329 25.8809C98.2427 22.513 101.248 24.4677 102.959 26.8712L104.524 28.7824L104.523 28.7836L96.622 35.2418L94.9567 33.2064L97.6683 30.9961L93.036 31.0219L91.4083 29.0462L96.0406 28.9478C95.5004 27.7946 95.4044 26.6544 95.9329 25.8809ZM22.9402 23.877L20.7066 26.4223L26.6187 31.6489L24.841 33.6046L17.2203 26.8196L21.2305 22.3184L22.9402 23.877ZM101.067 28.111C100.566 27.3961 100.006 26.2559 98.7617 26.7304C97.2043 27.7265 98.3151 28.7284 99.0359 29.7104C99.712 29.1762 100.388 28.6418 101.067 28.111ZM29.7899 28.0265H29.7886L29.7895 28.0256L29.7899 28.0265ZM38.13 21.47L35.9679 23.1503L33.9008 22.1518L31.2783 24.3327L31.8323 26.4656L29.7895 28.0256L26.2414 17.5429L28.775 15.4957L38.13 21.47ZM89.7851 14.673L86.2497 19.9253L93.3594 17.0882L95.5261 18.5449L89.8122 27.0362L87.6418 25.5739L91.3309 20.0907H91.3298L84.0712 23.1644L81.8996 21.7031L87.6135 13.2118L89.7851 14.673ZM29.5824 18.8472C28.9203 18.4172 29.0222 18.9025 29.1464 19.254L30.33 22.63L32.6292 20.8242L29.5824 18.8472ZM38.647 9.99135C41.3 8.70114 44.8741 8.42697 45.2868 12.4909C45.4402 14.0132 43.659 15.5988 41.3669 16.2679L42.6313 19.384L40.1938 20.3731L36.3582 10.9184L36.3594 10.9196L38.647 9.99135ZM83.6681 10.8046L82.8417 13.1191L80.5472 12.2308L77.7547 19.5445L75.4402 18.7184L78.2551 11.3449L78.2563 11.3438L76.0917 10.5058L76.9178 8.19025L83.6681 10.8046ZM65.682 5.80541L65.2683 9.73825L69.2023 10.1591L69.5915 6.45579H69.5927L72.0371 6.7125L70.9696 16.8855L68.5251 16.6301L68.948 12.6035L65.0129 12.1829L64.6145 15.9798L62.1688 15.7231L63.2364 5.55009L65.682 5.80541ZM59.5683 15.573L56.8472 15.8906L55.6004 13.964L52.2278 14.4668L51.5949 16.5786L49.0379 16.8539L49.0367 16.8527L51.4462 6.04925L54.6733 5.61452L59.5683 15.573ZM42.3008 11.8218C41.2942 10.7344 40.4915 11.5946 39.7099 11.9825V11.9835C40.0474 12.7745 40.3872 13.5679 40.7246 14.3589C41.8286 13.8445 43.1903 13.446 42.3008 11.8218ZM53.6234 8.8992C53.2812 8.18676 53.1137 8.65784 53.041 9.0176L52.2992 12.5191L55.2031 12.1688L53.6234 8.8992Z" fill="#FCEEC9"/>
</g>
<defs>
<clipPath id="clip0_608_2">
<rect width="120" height="120" fill="white"/>
</clipPath>
</defs>
</svg>
