<svg xmlns="http://www.w3.org/2000/svg" fill-rule="evenodd" stroke-linejoin="round" stroke-miterlimit="2" clip-rule="evenodd" viewBox="0 0 600 596"><defs/><circle cx="298.9" cy="297.8" r="260.1" fill="#eb2316"/><path fill="#fff" fill-rule="nonzero" d="M298 595.8A300.4 300.4 0 010 294.3C1 131 136.8-1.3 301.8 0c164.9 1.4 296.4 136 295.1 302.6-1.2 161-137.2 294.4-299 293.2zm-53.8-351.5a840 840 0 0111.8-7.7 108.4 108.4 0 01162.5 56.6c11.2 32.1 8 63.9-4.5 94.8-31.4 78.5-125.3 113.8-196.3 74.3-30.9-17.2-49.2-44-59.6-78l59-15.1c2.5 4.2 4.5 8 6.9 11.5 13 19.6 30.1 32.2 54.3 32.8 37.4.7 70.6-32.4 73.3-72.4a58.3 58.3 0 00-47.5-63.6c-30.8-6.5-54 6.3-72.6 30-3.2 4-6 8.5-9.2 13l-53.2-23c.5-2.7.8-4.6 1.3-6.5 10.7-43 20.9-86.2 32.5-129 13.6-50.7 46-83.6 97.4-96.3a321 321 0 0144.4-7.1c15.7-1.7 31.5-1.9 48.3-2.8a259.9 259.9 0 00-220.8 469.5c122 68 277.8 26.4 349.8-93.5 69.5-115.8 34.6-257-49.8-326.6l-3.6 6a116 116 0 01-72.1 59.8 401.8 401.8 0 01-71.8 12.1c-21.3 2-42.8.4-65 .4l-15.5 60.8zM447.8 84.8C408 86.5 370 87 332 89.8c-23 1.8-45.2 8.7-64.3 23.2a94.6 94.6 0 00-30.5 41c12 0 22.4-.3 32.7 0 35.4.7 70.9 1 105.6-7.4 33.6-8.1 58.5-26.9 72.3-61.8z"/><path fill="#008f32" fill-rule="nonzero" d="M447.8 84.8c-13.8 35-38.7 53.7-72.1 61.8-34.8 8.5-70.2 8-105.7 7.4-10.3-.3-20.7 0-32.8 0a94.6 94.6 0 0130.6-41c19-14.5 41.2-21.3 64.3-23 37.9-3 76-3.5 115.7-5.2z"/></svg>