<?xml version="1.0" encoding="UTF-8"?>
<!DOCTYPE svg PUBLIC "-//W3C//DTD SVG 1.1//EN" "http://www.w3.org/Graphics/SVG/1.1/DTD/svg11.dtd">
<svg xmlns="http://www.w3.org/2000/svg" version="1.1" width="417px" height="417px" style="shape-rendering:geometricPrecision; text-rendering:geometricPrecision; image-rendering:optimizeQuality; fill-rule:evenodd; clip-rule:evenodd" xmlns:xlink="http://www.w3.org/1999/xlink">
<g><path style="opacity:0.989" fill="#e0331c" d="M 181.5,-0.5 C 199.167,-0.5 216.833,-0.5 234.5,-0.5C 311.979,12.4822 367.479,54.4822 401,125.5C 407.938,143.464 413.105,161.797 416.5,180.5C 416.5,198.833 416.5,217.167 416.5,235.5C 403.497,311.672 362.163,366.506 292.5,400C 273.662,407.674 254.329,413.174 234.5,416.5C 216.833,416.5 199.167,416.5 181.5,416.5C 113.771,405.4 61.9378,370.733 26,312.5C 12.2417,288.025 3.40833,262.025 -0.5,234.5C -0.5,216.833 -0.5,199.167 -0.5,181.5C 10.5825,111.812 46.5825,59.3118 107.5,24C 130.855,11.5033 155.522,3.33667 181.5,-0.5 Z"/></g>
<g><path style="opacity:1" fill="#f1c5b2" d="M 190.5,70.5 C 188.876,70.6399 187.71,69.9733 187,68.5C 186.502,65.5184 186.335,62.5184 186.5,59.5C 188.265,58.5386 190.265,58.2053 192.5,58.5C 192.5,59.5 192.5,60.5 192.5,61.5C 187.306,61.9417 187.306,62.9417 192.5,64.5C 191.311,65.4287 189.978,65.762 188.5,65.5C 188.5,66.5 188.5,67.5 188.5,68.5C 190.288,68.2148 191.955,68.5481 193.5,69.5C 192.675,70.3857 191.675,70.719 190.5,70.5 Z"/></g>
<g><path style="opacity:1" fill="#f1bfac" d="M 199.5,69.5 C 198.508,69.6716 197.842,69.3382 197.5,68.5C 198.685,67.1434 199.685,65.6434 200.5,64C 199.711,62.3745 198.711,60.8745 197.5,59.5C 199.718,58.8123 201.218,59.8123 202,62.5C 202.49,61.2068 202.657,59.8734 202.5,58.5C 203.5,58.5 204.5,58.5 205.5,58.5C 205.332,63.5324 206.332,63.6991 208.5,59C 209.332,58.3123 209.998,58.479 210.5,59.5C 209.289,60.8745 208.289,62.3745 207.5,64C 208.625,65.9626 209.959,67.796 211.5,69.5C 210.998,70.521 210.332,70.6877 209.5,70C 208.213,68.5905 207.046,67.0905 206,65.5C 205.51,66.7932 205.343,68.1266 205.5,69.5C 204.5,69.5 203.5,69.5 202.5,69.5C 201.911,65.7035 200.911,65.7035 199.5,69.5 Z"/></g>
<g><path style="opacity:1" fill="#e98872" d="M 164.5,63.5 C 165.919,62.5489 167.585,62.2155 169.5,62.5C 169.5,63.5 169.5,64.5 169.5,65.5C 168.167,65.5 166.833,65.5 165.5,65.5C 166.263,64.7321 167.263,64.2321 168.5,64C 167.207,63.51 165.873,63.3433 164.5,63.5 Z"/></g>
<g><path style="opacity:1" fill="#f1c6b4" d="M 175.5,60.5 C 180.565,60.574 182.898,63.2407 182.5,68.5C 181.315,71.5988 178.982,72.9321 175.5,72.5C 174.995,69.4788 174.328,66.4788 173.5,63.5C 173.942,62.2613 174.609,61.2613 175.5,60.5 Z"/></g>
<g><path style="opacity:1" fill="#e34d34" d="M 176.5,62.5 C 178.465,62.9483 178.798,63.9483 177.5,65.5C 176.614,64.675 176.281,63.675 176.5,62.5 Z"/></g>
<g><path style="opacity:1" fill="#f2d0be" d="M 223.5,67.5 C 223.541,71.2434 222.874,71.4101 221.5,68C 219.613,67.2204 217.946,67.3871 216.5,68.5C 215.86,70.332 214.86,70.6653 213.5,69.5C 214.954,65.564 217.12,62.2307 220,59.5C 222.062,61.7039 223.228,64.3705 223.5,67.5 Z"/></g>
<g><path style="opacity:1" fill="#e34e36" d="M 218.5,63.5 C 220.337,63.6395 220.67,64.3061 219.5,65.5C 218.702,65.0431 218.369,64.3764 218.5,63.5 Z"/></g>
<g><path style="opacity:1" fill="#f2d1c0" d="M 235.5,70.5 C 234.778,70.9175 234.278,71.5842 234,72.5C 233.781,71.062 233.281,69.7287 232.5,68.5C 231.893,68.6236 231.56,68.9569 231.5,69.5C 227.539,72.2058 226.872,71.5391 229.5,67.5C 228.515,65.9017 228.349,64.235 229,62.5C 231.381,61.565 233.881,61.2317 236.5,61.5C 236.037,64.4824 235.704,67.4824 235.5,70.5 Z"/></g>
<g><path style="opacity:1" fill="#e34f36" d="M 231.5,63.5 C 232.5,63.5 233.5,63.5 234.5,63.5C 234.5,64.5 234.5,65.5 234.5,66.5C 233.5,66.5 232.5,66.5 231.5,66.5C 231.5,65.5 231.5,64.5 231.5,63.5 Z"/></g>
<g><path style="opacity:1" fill="#e34f37" d="M 177.5,67.5 C 180.957,67.6672 181.29,68.6672 178.5,70.5C 177.614,69.675 177.281,68.675 177.5,67.5 Z"/></g>
<g><path style="opacity:1" fill="#e55f46" d="M 186.5,59.5 C 186.335,62.5184 186.502,65.5184 187,68.5C 187.71,69.9733 188.876,70.6399 190.5,70.5C 189.116,71.8009 187.616,71.8009 186,70.5C 185.19,66.6425 185.357,62.9758 186.5,59.5 Z"/></g>
<g><path style="opacity:1" fill="#ea8a74" d="M 259.5,69.5 C 260.302,68.1153 260.969,68.282 261.5,70C 261.43,70.7648 261.097,71.2648 260.5,71.5C 260.672,70.5084 260.338,69.8417 259.5,69.5 Z"/></g>
<g><path style="opacity:1" fill="#e87a63" d="M 197.5,68.5 C 197.842,69.3382 198.508,69.6716 199.5,69.5C 198.614,70.7759 197.614,70.7759 196.5,69.5C 196.624,68.8933 196.957,68.56 197.5,68.5 Z"/></g>
<g><path style="opacity:1" fill="#e86a51" d="M 216.5,68.5 C 217.946,67.3871 219.613,67.2204 221.5,68C 222.874,71.4101 223.541,71.2434 223.5,67.5C 224.434,68.5676 224.768,69.901 224.5,71.5C 223.167,71.5 221.833,71.5 220.5,71.5C 220.5,70.5 220.5,69.5 220.5,68.5C 219.167,68.5 217.833,68.5 216.5,68.5 Z"/></g>
<g><path style="opacity:1" fill="#e97f69" d="M 231.5,69.5 C 231.56,68.9569 231.893,68.6236 232.5,68.5C 233.281,69.7287 233.781,71.062 234,72.5C 234.278,71.5842 234.778,70.9175 235.5,70.5C 235.5,71.5 235.5,72.5 235.5,73.5C 234.5,73.5 233.5,73.5 232.5,73.5C 232.768,71.901 232.434,70.5676 231.5,69.5 Z"/></g>
<g><path style="opacity:1" fill="#f1ccbb" d="M 164.5,63.5 C 165.873,63.3433 167.207,63.51 168.5,64C 167.263,64.2321 166.263,64.7321 165.5,65.5C 163.623,66.6591 163.123,68.3258 164,70.5C 165.865,72.6732 168.031,73.0066 170.5,71.5C 171.521,72.0016 171.688,72.6683 171,73.5C 163.377,76.2143 160.377,73.5477 162,65.5C 162.708,64.6195 163.542,63.9528 164.5,63.5 Z"/></g>
<g><path style="opacity:1" fill="#f2cdbc" d="M 259.5,69.5 C 260.338,69.8417 260.672,70.5084 260.5,71.5C 260.75,72.9221 261.583,73.9221 263,74.5C 263.946,80.329 261.612,81.9957 256,79.5C 255.877,75.7008 257.044,72.3674 259.5,69.5 Z"/></g>
<g><path style="opacity:1" fill="#f2ccba" d="M 145.5,69.5 C 149.653,70.9708 152.987,73.6374 155.5,77.5C 153.328,77.6759 150.995,77.8425 148.5,78C 147.929,79.2051 147.262,80.3717 146.5,81.5C 145.509,77.5546 145.176,73.5546 145.5,69.5 Z"/></g>
<g><path style="opacity:1" fill="#e3543c" d="M 147.5,73.5 C 149.337,73.6395 149.67,74.3061 148.5,75.5C 147.702,75.0431 147.369,74.3764 147.5,73.5 Z"/></g>
<g><path style="opacity:1" fill="#f2cdbb" d="M 246.5,65.5 C 249.641,64.9082 251.974,65.9082 253.5,68.5C 253.019,71.0832 252.352,73.5832 251.5,76C 249.19,76.4966 246.857,76.6633 244.5,76.5C 244.751,72.7512 245.417,69.0845 246.5,65.5 Z"/></g>
<g><path style="opacity:1" fill="#e34a31" d="M 247.5,72.5 C 248.675,72.281 249.675,72.6143 250.5,73.5C 248.948,74.7979 247.948,74.4646 247.5,72.5 Z"/></g>
<g><path style="opacity:1" fill="#e86d55" d="M 248.5,67.5 C 249.5,67.5 250.5,67.5 251.5,67.5C 251.5,68.5 251.5,69.5 251.5,70.5C 250.5,70.5 249.5,70.5 248.5,70.5C 248.5,69.5 248.5,68.5 248.5,67.5 Z"/></g>
<g><path style="opacity:1" fill="#e24a32" d="M 258.5,75.5 C 259.5,75.5 260.5,75.5 261.5,75.5C 261.5,76.5 261.5,77.5 261.5,78.5C 260.5,78.5 259.5,78.5 258.5,78.5C 258.5,77.5 258.5,76.5 258.5,75.5 Z"/></g>
<g><path style="opacity:1" fill="#f1cbb9" d="M 274.5,75.5 C 277.483,76.6583 280.15,78.325 282.5,80.5C 280.735,83.7089 278.735,86.7089 276.5,89.5C 276.243,86.6236 277.243,83.957 279.5,81.5C 278.725,79.5247 277.391,78.6913 275.5,79C 274.167,81 272.833,83 271.5,85C 270.668,85.6877 270.002,85.521 269.5,84.5C 271.432,81.6339 273.099,78.6339 274.5,75.5 Z"/></g>
<g><path style="opacity:1" fill="#f1cab8" d="M 267.5,72.5 C 268.376,72.3691 269.043,72.7025 269.5,73.5C 268.211,77.0438 266.544,80.3771 264.5,83.5C 264.418,79.7167 265.418,76.0501 267.5,72.5 Z"/></g>
<g><path style="opacity:1" fill="#f2cbb9" d="M 124.5,79.5 C 125.497,79.4701 126.164,79.9701 126.5,81C 125.833,82 125.167,83 124.5,84C 125.615,86.6156 126.949,89.1156 128.5,91.5C 128.167,91.8333 127.833,92.1667 127.5,92.5C 124.633,89.9448 122.633,86.7781 121.5,83C 122.544,81.8261 123.544,80.6594 124.5,79.5 Z"/></g>
<g><path style="opacity:1" fill="#f1ccba" d="M 286.5,83.5 C 288.929,83.585 290.929,84.585 292.5,86.5C 290.883,86.6694 289.216,87.0028 287.5,87.5C 290.167,91.5 289.5,92.1667 285.5,89.5C 284.166,91.8183 284.832,93.485 287.5,94.5C 284.931,95.5032 282.931,94.6699 281.5,92C 283.045,89.073 284.712,86.2396 286.5,83.5 Z"/></g>
<g><path style="opacity:1" fill="#f2cebd" d="M 134.5,74.5 C 135.552,74.3505 136.552,74.5172 137.5,75C 138.999,78.8514 141.332,82.0181 144.5,84.5C 141.781,84.3146 139.115,85.1479 136.5,87C 135.381,91.2506 134.048,91.4173 132.5,87.5C 133.574,84.2571 133.24,81.0904 131.5,78C 132.071,76.4009 133.071,75.2342 134.5,74.5 Z"/></g>
<g><path style="opacity:1" fill="#e2452d" d="M 133.5,77.5 C 137.316,78.0897 138.983,80.4231 138.5,84.5C 135.24,83.5142 133.573,81.1808 133.5,77.5 Z"/></g>
<g><path style="opacity:1" fill="#f1ccba" d="M 295.5,89.5 C 296.675,89.281 297.675,89.6143 298.5,90.5C 297.5,91.8333 296.5,93.1667 295.5,94.5C 297.815,97.1888 299.815,96.8555 301.5,93.5C 301.833,94 302.167,94.5 302.5,95C 300.615,98.5728 297.949,100.906 294.5,102C 295.357,101.311 296.023,100.478 296.5,99.5C 295.065,98.0715 294.065,96.4048 293.5,94.5C 294.187,92.8228 294.854,91.1561 295.5,89.5 Z"/></g>
<g><path style="opacity:1" fill="#f2d3c2" d="M 114.5,86.5 C 115.552,86.3505 116.552,86.5172 117.5,87C 113.53,90.6245 114.196,92.1245 119.5,91.5C 118.833,92.5 118.167,93.5 117.5,94.5C 119.216,94.9972 120.883,95.3306 122.5,95.5C 121.167,96.5 119.833,97.5 118.5,98.5C 116.343,96.2082 114.176,93.8749 112,91.5C 111.833,91 111.667,90.5 111.5,90C 112.544,88.8261 113.544,87.6594 114.5,86.5 Z"/></g>
<g><path style="opacity:1" fill="#f1c9b6" d="M 105.5,93.5 C 106.675,93.281 107.675,93.6143 108.5,94.5C 102.998,97.7689 103.164,100.436 109,102.5C 111.163,102.505 112.663,101.505 113.5,99.5C 114.347,101.061 114.014,102.561 112.5,104C 108.543,106.385 105.376,105.552 103,101.5C 102.018,98.2253 102.851,95.5586 105.5,93.5 Z"/></g>
<g><path style="opacity:1" fill="#f1cbb9" d="M 307.5,105.5 C 306.833,107.833 306.167,110.167 305.5,112.5C 304.942,110.177 304.275,107.843 303.5,105.5C 302.522,105.977 301.689,106.643 301,107.5C 301.642,103.649 303.809,100.649 307.5,98.5C 308.594,99.868 308.26,101.035 306.5,102C 315.185,102.676 315.518,103.842 307.5,105.5 Z"/></g>
<g><path style="opacity:1" fill="#f1c8b6" d="M 95.5,102.5 C 96.552,102.351 97.552,102.517 98.5,103C 99.8049,105.148 101.638,106.648 104,107.5C 104.896,110.792 103.729,113.125 100.5,114.5C 97.5,112.167 94.8333,109.5 92.5,106.5C 93.5244,105.148 94.5244,103.815 95.5,102.5 Z"/></g>
<g><path style="opacity:1" fill="#e34d34" d="M 95.5,105.5 C 96.675,105.281 97.675,105.614 98.5,106.5C 96.9483,107.798 95.9483,107.465 95.5,105.5 Z"/></g>
<g><path style="opacity:1" fill="#e24930" d="M 99.5,108.5 C 101.465,108.948 101.798,109.948 100.5,111.5C 98.4807,110.867 98.1474,109.867 99.5,108.5 Z"/></g>
<g><path style="opacity:1" fill="#e65f47" d="M 307.5,105.5 C 306.99,108.388 307.656,110.721 309.5,112.5C 309.389,113.117 309.056,113.617 308.5,114C 310.058,114.21 311.391,114.71 312.5,115.5C 309.369,116.092 307.036,115.092 305.5,112.5C 306.167,110.167 306.833,107.833 307.5,105.5 Z"/></g>
<g><path style="opacity:1" fill="#f2d1c0" d="M 312.5,115.5 C 311.391,114.71 310.058,114.21 308.5,114C 309.056,113.617 309.389,113.117 309.5,112.5C 313.073,110.735 316.74,110.402 320.5,111.5C 318.961,114.746 317.294,117.912 315.5,121C 314.668,121.688 314.002,121.521 313.5,120.5C 315.009,118.38 314.676,116.713 312.5,115.5 Z"/></g>
<g><path style="opacity:1" fill="#e66049" d="M 314.5,113.5 C 316.337,113.639 316.67,114.306 315.5,115.5C 314.702,115.043 314.369,114.376 314.5,113.5 Z"/></g>
<g><path style="opacity:1" fill="#f3e9da" d="M 357.5,148.5 C 362.121,147.993 366.454,148.826 370.5,151C 371.574,151.739 372.241,152.739 372.5,154C 362.104,175.956 351.604,197.789 341,219.5C 342.554,224.605 341.054,228.605 336.5,231.5C 329.318,228.823 326.818,223.823 329,216.5C 338.206,193.716 347.706,171.05 357.5,148.5 Z"/></g>
<g><path style="opacity:1" fill="#f0b6a3" d="M 303.5,156.5 C 300.482,156.704 297.482,157.037 294.5,157.5C 295.946,156.06 297.779,155.393 300,155.5C 301.385,155.514 302.551,155.848 303.5,156.5 Z"/></g>
<g><path style="opacity:1" fill="#f3e8d9" d="M 160.5,188.5 C 158.843,191.089 158.509,193.756 159.5,196.5C 163.119,195.756 166.785,195.423 170.5,195.5C 170.67,196.822 170.337,197.989 169.5,199C 165.916,200.292 162.249,201.292 158.5,202C 157.286,204.351 156.452,206.851 156,209.5C 154.167,222.336 152.333,235.17 150.5,248C 151.102,253.824 151.602,259.658 152,265.5C 153.213,270.262 156.046,272.262 160.5,271.5C 162.138,268.696 163.971,266.029 166,263.5C 175.555,244.057 185.388,224.724 195.5,205.5C 196.924,203.485 197.59,201.152 197.5,198.5C 201.324,193.723 205.491,193.39 210,197.5C 209.709,202.144 209.709,206.811 210,211.5C 215.734,201.035 221.734,190.702 228,180.5C 233.45,174.374 239.45,169.041 246,164.5C 249.881,165.378 252.548,167.711 254,171.5C 255.271,176.754 255.771,182.087 255.5,187.5C 254.615,191.064 253.615,194.731 252.5,198.5C 252.482,200.373 252.982,200.706 254,199.5C 255.122,197.593 255.955,195.593 256.5,193.5C 263.499,182.393 271.833,172.226 281.5,163C 285.39,160.053 289.723,158.22 294.5,157.5C 297.482,157.037 300.482,156.704 303.5,156.5C 304.167,156.833 304.833,157.167 305.5,157.5C 304.338,164.793 303.338,172.126 302.5,179.5C 302.233,181.965 301.566,184.299 300.5,186.5C 299.076,188.515 298.41,190.848 298.5,193.5C 293.456,212.18 290.122,231.18 288.5,250.5C 288.246,255.225 290.246,258.058 294.5,259C 299.215,253.059 303.548,246.892 307.5,240.5C 308.478,240.977 309.311,241.643 310,242.5C 310.667,245.833 310.667,249.167 310,252.5C 305.868,256.997 301.368,261.164 296.5,265C 290.162,266.52 284.662,265.02 280,260.5C 277.461,256.086 275.461,251.419 274,246.5C 273.032,236.058 273.532,225.725 275.5,215.5C 276.924,213.485 277.59,211.152 277.5,208.5C 281.064,195.243 285.397,182.243 290.5,169.5C 291.782,168.292 291.782,166.958 290.5,165.5C 289.893,165.624 289.56,165.957 289.5,166.5C 288.317,167.504 286.984,168.338 285.5,169C 278.976,176.522 272.143,183.689 265,190.5C 258,203.167 251,215.833 244,228.5C 243.503,230.81 243.337,233.143 243.5,235.5C 237.366,238.515 233.532,236.515 232,229.5C 230.969,219.659 232.469,210.326 236.5,201.5C 237.924,199.485 238.59,197.152 238.5,194.5C 239.756,188.396 241.423,182.396 243.5,176.5C 243.167,175.833 242.833,175.167 242.5,174.5C 229.772,188.284 220.939,204.284 216,222.5C 213.062,228.598 208.895,233.598 203.5,237.5C 201.138,235.638 198.471,234.471 195.5,234C 194.748,233.329 194.414,232.496 194.5,231.5C 194.824,227.445 194.491,223.445 193.5,219.5C 192.702,219.957 192.369,220.624 192.5,221.5C 183.965,238.861 174.798,255.861 165,272.5C 153.994,287.948 144.994,286.615 138,268.5C 136.525,263.937 135.692,259.27 135.5,254.5C 135.453,244.484 135.787,234.484 136.5,224.5C 137.284,217.151 137.784,209.817 138,202.5C 129.695,200.173 121.362,197.84 113,195.5C 112.228,195.645 111.561,195.978 111,196.5C 104.05,212.4 96.0502,227.734 87,242.5C 84.1312,245.704 80.9646,248.537 77.5,251C 69.8375,251.559 64.3375,248.393 61,241.5C 60.5008,236.845 60.3342,232.179 60.5,227.5C 61.9238,225.485 62.5905,223.152 62.5,220.5C 64.0761,217.074 65.9094,213.74 68,210.5C 69.129,208.859 70.629,207.859 72.5,207.5C 74.7812,207.077 76.4479,207.744 77.5,209.5C 70.6015,218.328 68.1015,228.328 70,239.5C 72.3791,244.281 75.8791,245.448 80.5,243C 83.7191,239.448 86.5524,235.615 89,231.5C 95.3437,219.151 100.844,206.485 105.5,193.5C 100.156,193.184 94.8222,192.684 89.5,192C 88.5494,191.282 88.3828,190.449 89,189.5C 90.6477,188.283 92.481,187.45 94.5,187C 99.7503,186.807 104.917,186.307 110,185.5C 118.946,164.942 128.946,144.942 140,125.5C 142.593,123.451 145.093,121.285 147.5,119C 151.167,118.333 154.833,118.333 158.5,119C 160.004,120.491 160.837,122.324 161,124.5C 161.663,145.842 161.497,167.175 160.5,188.5 Z"/></g>
<g><path style="opacity:1" fill="#e13a22" d="M 145.5,149.5 C 144.028,153.919 143.362,158.586 143.5,163.5C 142.302,173.11 141.135,182.776 140,192.5C 136.985,193.536 134.152,193.202 131.5,191.5C 129.485,190.076 127.152,189.41 124.5,189.5C 122.063,189.244 119.729,188.577 117.5,187.5C 116.386,186.277 116.219,184.944 117,183.5C 123.922,170.656 130.589,157.656 137,144.5C 140.013,138.462 143.513,132.796 147.5,127.5C 147.833,128.333 148.167,129.167 148.5,130C 146.915,136.421 145.915,142.921 145.5,149.5 Z"/></g>
<g><path style="opacity:1" fill="#efb39f" d="M 145.5,149.5 C 145.638,154.414 144.972,159.081 143.5,163.5C 143.362,158.586 144.028,153.919 145.5,149.5 Z"/></g>
<g><path style="opacity:1" fill="#e65f47" d="M 305.5,157.5 C 306.634,159.966 306.801,162.633 306,165.5C 305.156,170.376 303.989,175.043 302.5,179.5C 303.338,172.126 304.338,164.793 305.5,157.5 Z"/></g>
<g><path style="opacity:1" fill="#eea591" d="M 289.5,166.5 C 289.56,165.957 289.893,165.624 290.5,165.5C 291.782,166.958 291.782,168.292 290.5,169.5C 290.737,168.209 290.404,167.209 289.5,166.5 Z"/></g>
<g><path style="opacity:1" fill="#e86c53" d="M 124.5,189.5 C 127.152,189.41 129.485,190.076 131.5,191.5C 128.848,191.59 126.515,190.924 124.5,189.5 Z"/></g>
<g><path style="opacity:1" fill="#e76e56" d="M 300.5,186.5 C 300.59,189.152 299.924,191.485 298.5,193.5C 298.41,190.848 299.076,188.515 300.5,186.5 Z"/></g>
<g><path style="opacity:1" fill="#e66148" d="M 255.5,187.5 C 255.205,189.735 255.539,191.735 256.5,193.5C 255.955,195.593 255.122,197.593 254,199.5C 252.982,200.706 252.482,200.373 252.5,198.5C 253.615,194.731 254.615,191.064 255.5,187.5 Z"/></g>
<g><path style="opacity:1" fill="#ed9c87" d="M 160.5,188.5 C 160.425,191.206 160.092,193.873 159.5,196.5C 158.509,193.756 158.843,191.089 160.5,188.5 Z"/></g>
<g><path style="opacity:1" fill="#eea590" d="M 238.5,194.5 C 238.59,197.152 237.924,199.485 236.5,201.5C 236.41,198.848 237.076,196.515 238.5,194.5 Z"/></g>
<g><path style="opacity:1" fill="#efb29e" d="M 197.5,198.5 C 197.59,201.152 196.924,203.485 195.5,205.5C 195.41,202.848 196.076,200.515 197.5,198.5 Z"/></g>
<g><path style="opacity:1" fill="#eda28e" d="M 72.5,207.5 C 74.2646,206.539 76.2646,206.205 78.5,206.5C 78.7373,207.791 78.404,208.791 77.5,209.5C 76.4479,207.744 74.7812,207.077 72.5,207.5 Z"/></g>
<g><path style="opacity:1" fill="#efac98" d="M 277.5,208.5 C 277.59,211.152 276.924,213.485 275.5,215.5C 275.41,212.848 276.076,210.515 277.5,208.5 Z"/></g>
<g><path style="opacity:1" fill="#ea937e" d="M 194.5,231.5 C 193.833,228.167 193.167,224.833 192.5,221.5C 192.369,220.624 192.702,219.957 193.5,219.5C 194.491,223.445 194.824,227.445 194.5,231.5 Z"/></g>
<g><path style="opacity:1" fill="#ed9f8a" d="M 62.5,220.5 C 62.5905,223.152 61.9238,225.485 60.5,227.5C 60.4095,224.848 61.0762,222.515 62.5,220.5 Z"/></g>
<g><path style="opacity:1" fill="#f3eada" d="M 322.5,245.5 C 323.924,243.485 324.59,241.152 324.5,238.5C 326.407,235.668 329.073,234.834 332.5,236C 334,237.5 335.5,239 337,240.5C 338.706,248.252 337.206,255.252 332.5,261.5C 328.475,263.299 325.308,262.299 323,258.5C 322.501,254.179 322.334,249.846 322.5,245.5 Z"/></g>
<g><path style="opacity:1" fill="#eead99" d="M 136.5,224.5 C 135.787,234.484 135.453,244.484 135.5,254.5C 134.835,251.016 134.501,247.349 134.5,243.5C 134.411,236.941 135.077,230.608 136.5,224.5 Z"/></g>
<g><path style="opacity:1" fill="#eea590" d="M 324.5,238.5 C 324.59,241.152 323.924,243.485 322.5,245.5C 322.41,242.848 323.076,240.515 324.5,238.5 Z"/></g>
<g><path style="opacity:1" fill="#f1c9b6" d="M 131.5,314.5 C 134.961,313.889 137.628,315.056 139.5,318C 136.646,317.336 133.812,317.502 131,318.5C 129.685,322.141 130.851,324.474 134.5,325.5C 130.552,326.573 128.552,324.907 128.5,320.5C 128.628,318.045 129.628,316.045 131.5,314.5 Z"/></g>
<g><path style="opacity:1" fill="#f1cab8" d="M 279.5,315.5 C 283.337,317.84 285.004,321.174 284.5,325.5C 283.501,322.826 281.834,322.159 279.5,323.5C 279.167,325.5 278.833,327.5 278.5,329.5C 276.287,326.457 274.287,323.29 272.5,320C 272.85,318.743 273.517,318.409 274.5,319C 275.39,322.292 277.057,322.959 279.5,321C 280.138,319.293 280.138,317.46 279.5,315.5 Z"/></g>
<g><path style="opacity:1" fill="#f2cebd" d="M 144.5,320.5 C 146.696,320.565 148.696,321.232 150.5,322.5C 149.224,323.645 147.891,323.645 146.5,322.5C 146.167,323 145.833,323.5 145.5,324C 146.509,325.168 147.509,326.335 148.5,327.5C 142.397,327.224 142.064,328.724 147.5,332C 144.551,332.847 142.218,332.014 140.5,329.5C 141.84,326.471 143.173,323.471 144.5,320.5 Z"/></g>
<g><path style="opacity:1" fill="#f2d0be" d="M 264.5,322.5 C 265.675,322.281 266.675,322.614 267.5,323.5C 263.187,325.974 263.52,327.474 268.5,328C 266.561,328.908 265.561,330.408 265.5,332.5C 267.599,331.769 269.599,331.769 271.5,332.5C 269.303,334.306 266.97,334.639 264.5,333.5C 262.905,330.32 261.905,326.987 261.5,323.5C 262.791,323.737 263.791,323.404 264.5,322.5 Z"/></g>
<g><path style="opacity:1" fill="#f2ccbb" d="M 249.5,327.5 C 251.604,327.201 253.604,327.534 255.5,328.5C 255.987,329.446 256.32,330.446 256.5,331.5C 255.714,333.571 254.381,335.238 252.5,336.5C 253.872,338.62 253.205,339.62 250.5,339.5C 250.232,336.26 249.566,333.094 248.5,330C 248.743,329.098 249.077,328.265 249.5,327.5 Z"/></g>
<g><path style="opacity:1" fill="#e65e44" d="M 250.5,329.5 C 253.166,329.066 254.333,330.066 254,332.5C 251.342,333.694 250.176,332.694 250.5,329.5 Z"/></g>
<g><path style="opacity:1" fill="#f3d0be" d="M 196.5,332.5 C 195.167,333.167 193.833,333.833 192.5,334.5C 191.71,335.609 191.21,336.942 191,338.5C 190.51,337.207 190.343,335.873 190.5,334.5C 190.5,333.5 190.5,332.5 190.5,331.5C 192.621,331.325 194.621,331.659 196.5,332.5 Z"/></g>
<g><path style="opacity:1" fill="#f1c6b3" d="M 155.5,324.5 C 158.578,325.202 161.578,326.202 164.5,327.5C 163.009,328.244 161.509,328.91 160,329.5C 159.867,332.414 158.7,334.747 156.5,336.5C 156.167,336.167 155.833,335.833 155.5,335.5C 157.739,331.679 157.739,328.012 155.5,324.5 Z"/></g>
<g><path style="opacity:1" fill="#f2ccbb" d="M 169.5,328.5 C 171.066,331.412 173.066,334.079 175.5,336.5C 175.471,338.029 174.804,339.196 173.5,340C 171.527,340.495 169.527,340.662 167.5,340.5C 167.332,336.342 167.998,332.342 169.5,328.5 Z"/></g>
<g><path style="opacity:1" fill="#e4573d" d="M 170.5,334.5 C 171.995,334.415 172.995,335.081 173.5,336.5C 172.68,338.111 171.346,338.778 169.5,338.5C 169.433,337.041 169.766,335.708 170.5,334.5 Z"/></g>
<g><path style="opacity:1" fill="#f3e3d3" d="M 199.5,333.5 C 199.5,334.5 199.5,335.5 199.5,336.5C 198.71,337.609 198.21,338.942 198,340.5C 197.833,339.333 197.667,338.167 197.5,337C 197.608,335.319 198.275,334.152 199.5,333.5 Z"/></g>
<g><path style="opacity:1" fill="#f1c8b5" d="M 223.5,341.5 C 223.217,340.711 222.717,340.044 222,339.5C 221.506,341.134 221.34,342.801 221.5,344.5C 221.44,345.043 221.107,345.376 220.5,345.5C 219.167,341.5 219.167,337.5 220.5,333.5C 221.281,334.729 221.781,336.062 222,337.5C 227.331,330.679 228.164,331.012 224.5,338.5C 225.833,340.167 227.167,341.833 228.5,343.5C 228.167,343.833 227.833,344.167 227.5,344.5C 226.148,343.476 224.815,342.476 223.5,341.5 Z"/></g>
<g><path style="opacity:1" fill="#f3e2d2" d="M 206.5,333.5 C 208.604,333.201 210.604,333.534 212.5,334.5C 211.311,335.429 209.978,335.762 208.5,335.5C 208.5,336.5 208.5,337.5 208.5,338.5C 209.5,338.5 210.5,338.5 211.5,338.5C 210.432,339.434 209.099,339.768 207.5,339.5C 207.263,340.791 207.596,341.791 208.5,342.5C 209.833,343.167 211.167,343.833 212.5,344.5C 210.5,344.5 208.5,344.5 206.5,344.5C 206.5,340.833 206.5,337.167 206.5,333.5 Z"/></g>
<g><path style="opacity:1" fill="#f2d0be" d="M 236.5,331.5 C 240.278,333.304 242.944,336.304 244.5,340.5C 244.167,340.833 243.833,341.167 243.5,341.5C 241.49,339.829 239.157,339.162 236.5,339.5C 235.672,344.208 235.006,344.375 234.5,340C 234.864,337.079 235.531,334.246 236.5,331.5 Z"/></g>
<g><path style="opacity:1" fill="#e4543d" d="M 237.5,334.5 C 239.332,335.14 239.665,336.14 238.5,337.5C 237.614,336.675 237.281,335.675 237.5,334.5 Z"/></g>
<g><path style="opacity:1" fill="#f0af9b" d="M 190.5,334.5 C 190.343,335.873 190.51,337.207 191,338.5C 191.21,336.942 191.71,335.609 192.5,334.5C 192.296,337.518 191.963,340.518 191.5,343.5C 190.5,343.5 189.5,343.5 188.5,343.5C 188.858,340.311 189.525,337.311 190.5,334.5 Z"/></g>
<g><path style="opacity:1" fill="#eca693" d="M 211.5,338.5 C 212.043,338.56 212.376,338.893 212.5,339.5C 210.668,340.057 209.335,341.057 208.5,342.5C 207.596,341.791 207.263,340.791 207.5,339.5C 209.099,339.768 210.432,339.434 211.5,338.5 Z"/></g>
<g><path style="opacity:1" fill="#e77761" d="M 223.5,341.5 C 222.833,342.5 222.167,343.5 221.5,344.5C 221.34,342.801 221.506,341.134 222,339.5C 222.717,340.044 223.217,340.711 223.5,341.5 Z"/></g>
<g><path style="opacity:1" fill="#efaf9a" d="M 196.5,332.5 C 197.791,332.263 198.791,332.596 199.5,333.5C 198.275,334.152 197.608,335.319 197.5,337C 197.667,338.167 197.833,339.333 198,340.5C 198.21,338.942 198.71,337.609 199.5,336.5C 199.72,339.4 199.054,342.067 197.5,344.5C 196.513,341.232 196.18,337.898 196.5,334.5C 195.167,334.5 193.833,334.5 192.5,334.5C 193.833,333.833 195.167,333.167 196.5,332.5 Z"/></g>
<g><path style="opacity:1" fill="#e98974" d="M 206.5,333.5 C 206.5,337.167 206.5,340.833 206.5,344.5C 208.5,344.5 210.5,344.5 212.5,344.5C 210.393,345.468 208.059,345.802 205.5,345.5C 205.183,341.298 205.517,337.298 206.5,333.5 Z"/></g>
</svg>
