<svg width="512" height="512" viewBox="0 0 512 512" fill="none" xmlns="http://www.w3.org/2000/svg">
<rect width="512" height="512" rx="256" fill="#8D191D"/>
<path d="M379.01 211.007C366.142 199.401 347.998 194.585 331.997 190.32C329.324 189.609 326.74 188.915 324.262 188.222C312.243 184.828 303.322 182.144 297.729 178.341C288.843 172.298 287.604 167.695 293.109 156.871L293.268 156.533C294.684 153.512 299.021 142.031 293.887 133.908C288.099 124.755 268.062 128.968 250.893 128.968H248.662C225.952 128.968 214.783 132.38 205.172 141.284C198.41 147.558 203.349 152.925 204.057 154.72C204.871 157.209 206.765 160.834 207.402 162.558C208.942 166.646 206.818 172.671 206.287 175.995C205.207 182.624 195.259 187.067 182.869 191.67C177.063 193.839 169.983 196.949 165.027 199.508C155.858 204.236 145.574 205.178 139.697 208.963L136.883 210.776C104.72 231.304 92.9495 256.63 101.906 286.062L102.03 286.435C102.03 286.435 101.764 287.502 101.641 287.928C100.543 291.927 97.9411 301.311 103.676 321.679C109.889 343.771 135.006 357.242 181.789 370.803C198.463 375.637 243.246 382 279.904 382C288.418 382 296.985 380.525 303.322 379.761C336.493 375.815 342.299 375.904 354.424 366.964C356.672 365.293 359.15 363.481 362.07 361.455C378.709 349.92 389.117 335.204 394.905 324.896L395.206 324.451L395.401 323.989C399.348 316.809 401.578 310.926 402.747 307.247C414.783 269.48 399.507 229.491 379.01 211.007Z" fill="white"/>
<path d="M284.547 385C246.817 385 197.833 377.993 180.678 373.185C132.544 359.649 108.212 343.79 101.814 321.739C95.9303 301.426 98.5886 292.059 99.7228 288.05C99.8469 287.642 100.113 286.56 100.113 286.56L99.9887 286.187C90.7732 256.81 102.895 231.53 136 211.04L138.907 209.231C144.95 205.452 152.96 201.088 162.406 196.369C167.51 193.832 174.528 190.284 180.5 188.138C193.243 183.543 202.44 179.232 203.539 172.597C204.089 169.28 205.152 166.867 203.575 162.787C202.919 161.066 202.139 159.062 201.306 156.578C200.58 154.786 195.086 147.193 202.05 140.931C211.922 132.043 227.624 127.2 250.999 127.2L252.647 127.183C270.298 127.183 291.636 125.196 297.591 134.332C302.872 142.457 298.423 153.899 296.97 156.915L296.793 157.252C291.104 168.038 292.398 172.651 301.543 178.682C307.285 182.479 316.482 185.157 328.852 188.546C331.404 189.238 334.063 189.929 336.81 190.639C353.273 194.897 371.935 199.704 385.191 211.289C406.298 229.721 422.018 269.654 409.612 307.334C408.407 311.006 406.103 316.896 402.045 324.045L401.832 324.506L401.513 324.95C395.559 335.239 384.854 349.928 367.717 361.441C364.722 363.463 362.17 365.273 359.848 366.941C347.372 375.864 341.683 379.944 307.55 383.882C301.046 384.61 293.302 385 284.547 385ZM214.793 174.602C212.205 194.347 183.513 214.819 166.642 225.268C165.649 225.889 164.001 227.13 162.264 228.443C160.244 229.969 157.94 231.707 156.664 232.453L153.191 234.457C136.248 244.126 115.141 256.171 108.992 288.192C108.885 288.547 106.085 299.493 112.04 320.071C118.951 343.896 147.874 352.66 184.506 363.747L186.278 364.279C196.503 367.366 237.566 374.799 278.592 374.799C291.671 374.799 303.652 374.037 314.214 372.529C356.924 366.426 385.475 330.36 390.774 321.029C405.146 287.234 375.851 242.813 349.197 223.689C340.726 217.604 332.521 212.619 324.581 207.794C308.649 198.108 293.621 188.954 287.205 175.666C285.628 172.899 284.937 164.171 284.777 162.911C284.494 160.481 292.522 150.582 292.522 150.582C292.522 150.582 279.443 153.598 274.552 153.598C267.676 153.58 262.022 153.012 256.262 150.706C250.485 148.382 245.027 148.488 238.842 148.488C236.112 148.488 223.689 153.686 220.57 153.686C216.618 153.686 208.306 151.859 208.306 151.859C208.306 151.859 215.342 169.564 214.793 174.602ZM323.979 198.498C325.981 199.74 328.073 201.017 330.235 202.312C337.944 207.013 346.663 212.3 355.312 218.527C373.299 231.441 401.726 263.675 404.792 293.248L405.058 283.225C406.227 254.06 391.5 230.466 378.527 219.13C364.261 206.676 344.324 201.212 326.726 196.405L318.503 194.879L323.979 198.498ZM195.121 189.486C185.09 194.968 175.343 199.775 167.085 203.891C156.115 209.373 145.818 214.5 140.147 218.012C117.108 232.275 105.429 247.851 104.455 265.627V274.727L107.113 266.336C118.402 243.629 138.233 232.151 152.712 223.76C155.122 222.376 157.391 221.063 159.376 219.822C175.201 210.029 187.483 201.301 196.805 191.703L203.557 185.53L195.121 189.486ZM238.204 141.978C245.966 141.978 252.399 142.084 258.62 144.568C265.549 147.353 271.149 145.703 276.43 145.703C276.962 145.703 277.511 145.686 278.043 145.668C283.927 145.402 299.558 142.723 289.811 136.656C280.489 130.855 262.944 133.356 250.024 132.576C248.199 132.469 220.942 131.635 210.912 140.896C207.81 143.77 216.299 144.887 219.932 144.887C222.271 144.887 224.877 144.461 227.659 143.61C231.221 142.51 234.677 141.978 238.204 141.978Z" fill="#132A3E"/>
<path d="M140.271 308.434C137.028 308.434 133.165 307.316 133.165 302.029C133.165 290.818 137.117 273.344 171.214 251.31C194.093 236.533 209.317 218.083 215.431 206.765C215.431 206.783 215.431 206.783 215.466 206.783C215.519 206.783 215.608 206.765 215.75 206.765C216.494 206.765 217.238 207.173 217.345 207.386C212.843 217.586 197.265 240.631 178.143 257.023C152.109 279.322 146.119 288.955 147.555 306.11C147.307 306.748 144.223 308.434 140.271 308.434Z" fill="#132A3E"/>
<path d="M309.748 312.248C306.505 312.248 303.439 311.166 301.932 309.48C301.064 308.522 300.71 307.44 300.834 306.145C301.791 296.53 301.17 280.191 296.332 265.822C294.844 261.404 292.327 256.136 289.403 250.015C284.193 239.087 277.706 225.498 273.258 209.018C273.223 208.858 273.187 208.628 273.276 208.521C273.4 208.344 273.825 208.184 274.375 208.184C275.172 208.184 275.81 208.521 275.863 208.84C276.927 214.127 288.269 238.449 301.791 261.227C313.983 281.77 315.827 299.049 315.242 309.924C315.153 311.254 312.796 312.248 309.748 312.248Z" fill="#132A3E"/>
<path d="M358.413 306.305C355.737 306.305 354.213 304.14 354.213 300.38C354.213 284.768 343.083 265.485 323.66 247.461C310.864 235.593 299.522 217.036 298.104 213.045C298.051 213.045 298.317 212.938 298.742 212.938C299.434 212.938 299.912 213.187 300.001 213.293C305.122 222.128 322.171 239.016 330.447 246.716C347.567 262.611 364.279 279.854 364.279 300.38C364.297 303.874 361.195 306.305 358.413 306.305Z" fill="#132A3E"/>
<path d="M248.288 300.805C246.834 300.805 245.948 300.344 245.665 299.422C238.93 277.3 250.06 237.562 254.26 222.607C254.845 220.496 255.305 218.899 255.518 217.977C255.695 217.267 256.635 217.214 256.918 217.214C257.592 217.214 258.052 217.462 258.123 217.569C253.179 244.551 250.308 265.91 258.088 293.319C258.354 294.241 258.07 295.27 257.255 296.353C255.43 298.747 251.318 300.805 248.288 300.805Z" fill="#132A3E"/>
<path d="M194.129 322.768C192.64 322.768 187.66 322.395 186.26 317.623C180.819 299.138 184.133 286.17 198.86 268.075C209.813 254.645 229.998 226.598 236.272 206.641C236.325 206.641 236.715 206.445 237.371 206.445C237.973 206.445 238.416 206.623 238.558 206.818C238.664 206.942 238.611 207.191 238.576 207.386C233.702 225.516 220.535 253.865 207.952 273.326C199.995 285.637 193.881 297.665 199.481 320.231C199.534 320.444 199.552 320.71 199.268 321.065C198.648 321.881 196.752 322.768 194.129 322.768Z" fill="#132A3E"/>
</svg>
