<svg xmlns="http://www.w3.org/2000/svg" version="1.1" xmlns:xlink="http://www.w3.org/1999/xlink" xmlns:svgjs="http://svgjs.com/svgjs" width="1000" height="1000"><rect width="1000" height="1000" rx="500" ry="500" fill="#ffffff"></rect><g transform="matrix(22.727272727272727,0,0,22.727272727272727,0,0)"><svg xmlns="http://www.w3.org/2000/svg" version="1.1" xmlns:xlink="http://www.w3.org/1999/xlink" xmlns:svgjs="http://svgjs.com/svgjs" width="44" height="44"><svg width="44" height="44" viewBox="0 0 44 44" fill="none" xmlns="http://www.w3.org/2000/svg">
<path fill-rule="evenodd" clip-rule="evenodd" d="M34.6626 4.00049C32.7472 8.91318 28.3866 9.93537 22.0701 9.93537C21.3922 9.93537 20.7207 9.92471 20.0727 9.91512C19.4459 9.90659 18.8533 9.897 18.2724 9.897C17.7565 9.897 17.2363 9.9034 16.7236 9.92578C17.6083 7.75349 19.0206 6.27723 21.0309 5.38188C23.8331 4.13479 27.4763 4.122 30.6911 4.11241C32.0917 4.10708 33.4325 4.10175 34.6626 4.00049Z" fill="#008F32"></path>
<path fill-rule="evenodd" clip-rule="evenodd" d="M36.6326 5.57568C33.7994 11.7472 27.4851 12.3654 22.0725 12.3654C20.884 12.3654 19.7456 12.3366 18.6915 12.3302L17.3282 17.6618C24.3098 11.97 33.5425 17.6128 32.5555 26.2017C31.8904 31.9863 27.7665 35.7692 23.4038 36.8564C18.651 38.0417 13.3855 36.268 11.0245 31.4246C10.774 30.913 10.3381 29.8876 10.1718 29.3397L15.1836 28.0521C15.2721 28.341 15.4224 28.6203 15.5801 28.875C18.9356 34.2865 25.7349 31.5802 26.5023 25.9662C27.2836 20.2551 19.2703 17.2131 15.6185 23.8877L11.1737 21.9936L11.097 21.9595L13.2405 13.3546C13.3727 12.7427 13.8182 11.0341 13.895 10.7538C16.3177 1.84506 24.1552 1.70436 30.4419 1.68091C27.8421 0.599031 24.992 0 22 0C9.84884 0 0 9.84884 0 22C0 34.1512 9.84884 44 22 44C34.1512 44 44 34.1512 44 22C44 15.4682 41.1519 9.60475 36.6326 5.57568Z" fill="#EB2316"></path>
</svg></svg></g></svg>