<?xml version="1.0" encoding="UTF-8"?>
<!DOCTYPE svg PUBLIC "-//W3C//DTD SVG 1.1//EN" "http://www.w3.org/Graphics/SVG/1.1/DTD/svg11.dtd">
<!-- Creator: CorelDRAW -->
<svg xmlns="http://www.w3.org/2000/svg" xml:space="preserve" width="186.243mm" height="186.243mm" version="1.1" style="shape-rendering:geometricPrecision; text-rendering:geometricPrecision; image-rendering:optimizeQuality; fill-rule:evenodd; clip-rule:evenodd"
viewBox="0 0 13802.88 13802.88"
 xmlns:xlink="http://www.w3.org/1999/xlink"
 xmlns:xodm="http://www.corel.com/coreldraw/odm/2003">
 <defs>
  <style type="text/css">
   <![CDATA[
    .str0 {stroke:#009846;stroke-width:14.82;stroke-miterlimit:22.9256}
    .fil1 {fill:#FEFEFE}
    .fil0 {fill:#33EF64}
   ]]>
  </style>
 </defs>
 <g id="Слой_x0020_1">
  <metadata id="CorelCorpID_0Corel-Layer"/>
  <rect class="fil0 str0" x="862.67" y="862.67" width="12077.55" height="12077.55" rx="2186.46" ry="2186.46"/>
  <path class="fil1 str0" d="M6930.1 12301.92c-2.19,12.66 -4.94,24.92 -7.56,37.27 -334.08,62.55 -678.5,95.63 -1030.73,95.63 -339.73,0 -672.34,-30.57 -995.3,-88.85 5.04,-14.54 10.66,-29.18 17.06,-44.05 993.31,-2301.48 -2391.52,-9135.96 1665.87,-10816.12 669.05,-214.42 1473.63,-238.7 2245.24,-59.82l8.83 2.51c747.01,271.59 1271.66,529.98 1495.26,705.47 87.97,69 136.45,132.93 142.18,188.5 8.14,80.39 -44.65,132.24 -163.23,149.62 -149.73,21.96 -453.58,-13.58 -932.33,-126.78l-1060.52 -146.29c-1165.84,-37.52 -1814.61,240.71 -2158.67,722.96 -1659.87,2325.87 1036.21,7872.94 773.91,9379.94zm3823.66 -12294.51l-7704.63 0c-1672.94,0 -3041.71,1368.77 -3041.71,3041.71l0 7704.63c0,1672.94 1368.77,3041.71 3041.71,3041.71l7704.63 0c1672.94,0 3041.71,-1368.77 3041.71,-3041.71l0 -7704.63c0,-1672.94 -1368.77,-3041.71 -3041.71,-3041.71zm-7704.63 855.26l7704.63 0c1202.55,0 2186.46,983.91 2186.46,2186.46l0 7704.63c0,1202.55 -983.91,2186.46 -2186.46,2186.46l-7704.63 0c-1202.55,0 -2186.46,-983.91 -2186.46,-2186.46l0 -7704.63c0,-1202.55 983.91,-2186.46 2186.46,-2186.46zm4755.16 5730.91l-1250.33 955.83 -27.73 -108.85c-22.32,-87.63 -36.86,-174.93 -44.17,-261.5 -47.94,-563.51 213.95,-1077.36 625.06,-1482.54 406.73,-400.9 961.02,-696.18 1504.17,-826.99 134.77,-32.45 269.46,-54.86 401.58,-66.32l2.6 -0.27c385.46,-20.91 659.09,20.85 821.68,124.6 179.79,114.68 228.95,293.79 148.82,536.33l-2.62 6.79c-377.73,842.99 -839.61,1388.12 -1329.91,1758.05 -490.45,369.85 -1007.61,563.04 -1497.6,703.47l-174.25 49.95 87.85 -152.9c139.37,-242.64 300.38,-510.68 461.32,-778.61 93.3,-155.37 186.64,-310.6 273.53,-457.06z"/>
 </g>
</svg>
