<svg width="64" height="71" viewBox="0 0 64 71" fill="none" xmlns="http://www.w3.org/2000/svg">
<path opacity="0.7" d="M63.3211 13.3228L62.9111 13.902C63.1571 12.247 62.8291 9.93002 62.4191 8.60602C61.845 10.7575 60.7789 12.6608 59.3028 14.4813L59.2208 13.4055C57.4987 16.1363 55.3665 18.3705 52.9883 19.4463C52.9883 19.0325 52.9063 18.536 52.7423 18.205C49.626 22.3425 42.0814 21.3495 42.9015 29.7073C44.6236 29.4591 45.4437 31.1968 43.9676 32.8518C43.3115 32.8518 42.6555 32.6036 42.0814 32.2726L42.4095 31.7761L41.0973 31.1141C41.4254 31.0313 41.7534 30.8658 42.0814 30.7003C40.1133 29.7073 40.7693 27.8041 38.4731 26.8111C38.0631 26.3973 37.7351 25.8181 37.4891 25.2388C37.407 24.8251 37.325 24.3286 37.243 23.8321C37.243 22.8391 37.243 22.2598 37.4891 21.846L37.6531 22.0943C38.2271 20.7703 38.9652 19.7773 39.9493 19.198C42.6555 19.2808 44.2136 19.1153 44.7056 17.4603C44.5416 17.543 44.4596 17.543 44.3776 17.543C44.2956 17.3775 44.2136 17.2948 44.1316 17.212C44.7876 16.9638 45.7717 17.3775 46.0177 17.3775C45.9357 16.55 45.6077 16.3018 45.4437 15.9708L46.3458 15.3088C48.6419 16.0535 50.6101 14.3158 52.0042 15.0605L52.4963 13.3228C50.4461 12.3298 49.216 13.6538 47.4939 13.6538C47.9859 12.578 48.0679 11.585 47.6579 10.592L45.8537 10.0128C43.6395 10.6748 43.7216 12.7435 44.5416 14.1503C44.0496 14.6468 43.5575 14.895 43.2295 15.0605L42.6555 15.1433C42.6555 15.1433 42.5735 14.3985 41.5894 14.1503V13.6538C42.8195 12.6608 42.9015 11.6678 42.6555 11.0885C42.4095 10.5093 41.7534 10.1783 41.1794 10.3438L40.3593 10.592L40.2773 10.4265C40.3593 10.3438 40.3593 10.261 40.3593 10.1783C40.3593 10.0128 40.2773 9.84727 40.1953 9.76452H40.2773L40.1953 9.43352L40.5233 9.51627V8.35777L40.1953 8.44052L40.2773 8.10952H39.1292L39.2112 8.44052L38.8832 8.35777V9.51627L39.2112 9.43352L38.8832 9.84727H39.0472C38.9652 9.93002 38.8832 10.0955 38.8832 10.261C38.8832 10.3438 38.8832 10.5093 38.9652 10.592L38.8832 10.7575L38.0631 10.5093C37.4891 10.3438 36.833 10.592 36.587 11.254C36.341 11.8333 36.423 12.7435 37.6531 13.8193V14.4813C37.325 14.4813 36.997 14.4813 36.751 14.4813C35.7669 13.902 34.9469 12.909 34.7008 11.6678C35.3569 11.585 35.8489 11.3368 36.259 10.923V9.18527C38.8832 7.19927 39.6212 4.55126 37.325 3.39276C36.0129 2.73076 34.3728 3.31001 33.5527 3.97201C33.3887 3.72376 33.1427 3.47551 32.8967 3.39276C32.8967 3.14451 32.8147 2.89626 32.5687 2.64801H32.7327L32.5687 2.06875L33.1427 2.23426V0.413751L32.5687 0.579251L32.7327 0H30.9285L31.0925 0.579251L30.5185 0.413751V2.23426L31.0925 2.06875L30.9285 2.64801H31.0925C30.9285 2.81351 30.7645 3.06176 30.7645 3.39276V3.47551C30.6005 3.55826 30.3545 3.80651 30.1905 3.97201C29.3704 3.31001 27.7303 2.73076 26.5002 3.39276C24.204 4.55126 24.9421 7.19927 27.5663 9.18527V10.923C27.9763 11.3368 28.5503 11.585 29.1244 11.6678C28.8784 12.8263 28.0583 13.8193 27.0742 14.4813C26.8282 14.4813 26.5002 14.4813 26.1721 14.4813V13.7365C27.4022 12.7435 27.4843 11.7505 27.2382 11.1713C26.9922 10.592 26.3362 10.261 25.7621 10.4265L24.942 10.6748L24.86 10.5093C24.9421 10.4265 24.942 10.3438 24.942 10.261C24.942 10.0955 24.86 9.93002 24.778 9.84727H24.86L24.778 9.51627L25.1061 9.59902V8.44052L24.778 8.52327L24.86 8.19227H23.712L23.794 8.52327L23.4659 8.44052V9.59902L23.794 9.51627V9.84727H23.958C23.876 9.93002 23.794 10.0955 23.794 10.261C23.794 10.3438 23.794 10.5093 23.876 10.592L23.794 10.7575L22.9739 10.5093C22.3998 10.3438 21.7438 10.592 21.4978 11.254C21.2518 11.8333 21.3338 12.7435 22.5639 13.8193V14.3158C21.5798 14.564 21.4978 15.3915 21.4978 15.3915H21.0877C20.7597 15.226 20.0217 14.7295 19.5296 14.233C20.3497 12.7435 20.3497 10.923 18.2175 10.261L16.3314 10.6748C15.9213 11.6678 16.0033 12.578 16.4954 13.6538C14.7732 13.6538 13.5431 12.3298 11.493 13.3228L11.985 15.0605C13.3791 14.3158 15.3473 16.0535 17.6435 15.3088L18.5455 15.9708C18.2175 16.3845 17.8895 16.7983 17.8075 17.543C18.3815 17.212 18.9556 17.1293 19.8576 17.2948C19.5296 17.2948 19.4476 17.4603 19.4476 17.543C19.5296 17.6258 19.6116 17.6258 19.6116 17.6258C19.5296 17.6258 19.2836 17.543 19.0376 17.543C19.5296 19.1153 21.1697 19.2808 23.876 19.198C24.86 19.6945 25.5161 20.6875 26.1721 22.0943L26.3362 21.846C26.5002 22.3425 26.5822 22.8391 26.5822 23.8321C26.5822 24.4113 26.5002 24.8251 26.3362 25.2388C26.0081 25.8181 25.6801 26.3973 25.3521 26.8111C23.0559 27.8041 23.712 29.7073 21.7438 30.6176C22.0718 30.8658 22.3178 31.0313 22.7279 31.0313L21.4158 31.6933L21.7438 32.1898C21.1697 32.5208 20.5957 32.7691 19.8576 32.7691C18.2995 31.1141 19.1196 29.4591 20.9237 29.6246C21.7438 21.2668 14.1992 22.3425 11.0829 18.1223C11.0009 18.4533 10.9189 18.9498 10.8369 19.3635C8.45873 18.2878 6.32656 16.0535 4.60442 13.3228L4.52241 14.3985C3.1283 12.578 2.06222 10.592 1.40616 8.52327C0.996131 9.84727 0.668104 12.1643 0.914124 13.8193L0.504091 13.24C-0.315974 16.3845 -0.233968 18.4533 1.48817 21.184C1.73419 22.9218 2.47225 24.6596 3.29232 25.9836C2.80028 25.9008 2.47225 25.8181 1.98021 25.8181C2.88228 27.5558 3.94837 29.2108 4.93245 30.2866L3.53833 30.7003C4.76843 32.6036 6.16255 33.8448 7.80268 34.9206C7.06462 35.0861 6.73659 35.3343 6.16255 35.7481C7.22863 36.9066 8.1307 37.4858 9.60682 37.8996C8.45873 38.3133 7.96669 38.8098 7.63866 39.7201C9.11478 40.2166 10.7549 40.5476 12.395 40.4648C11.411 41.0441 10.5089 41.7061 10.0169 42.6163L9.68883 42.4508C9.52481 42.3681 9.44281 42.3681 9.2788 42.3681C8.95077 42.3681 8.54074 42.6163 8.45873 42.9473C8.45873 43.0301 8.37672 43.1128 8.37672 43.1128V43.2783C8.29472 43.3611 8.1307 43.4438 8.0487 43.5266L7.63866 43.3611C7.47465 43.2783 7.31064 43.2783 7.14662 43.2783C6.73659 43.2783 6.32656 43.5266 6.16255 43.9403C5.91653 44.5196 6.16255 45.0988 6.65458 45.4298L6.98261 45.5953H7.06462C7.06462 45.7608 7.06462 45.8436 7.06462 46.0091L6.98261 46.1746C6.98261 46.2574 6.9006 46.2574 6.9006 46.3401C6.8186 46.5883 6.8186 46.8366 6.9006 47.0849C6.98261 47.3331 7.14662 47.4986 7.39264 47.6641L8.0487 47.9951L7.88468 47.9124L8.21271 48.0779L9.3608 48.6571L9.44281 48.7399C8.62274 49.7329 7.63866 50.3121 6.49057 50.3121C6.32656 50.3121 6.16255 50.3121 5.91653 50.3121L5.67051 50.1466H5.5885C5.09646 50.0639 4.60442 49.8984 4.11238 49.6501L3.53833 49.3191L3.70235 49.9811C4.03037 51.5534 5.42449 53.1256 7.55666 54.5324C9.60682 55.7736 11.821 56.5184 13.7071 56.5184C14.6912 56.5184 15.5113 56.2701 16.0853 55.8564L16.6594 55.4426L16.0033 55.2771C15.5113 55.1116 15.0193 54.8634 14.6912 54.6151L14.3632 54.5324L14.1172 54.2841C12.9691 53.2084 12.9691 51.6361 13.2971 50.4776H13.3791L14.5272 51.0569L14.8552 51.2224L14.9372 51.0569L17.3154 52.2154C17.2334 55.9391 16.0853 58.2561 13.9532 60.6559H13.8712C13.5431 60.7386 13.2971 61.0696 13.2151 61.4006C13.1331 61.4834 13.0511 61.5661 12.9691 61.6489C12.9691 61.6489 12.9691 61.6489 12.8871 61.6489C12.7231 61.4006 12.4771 61.2351 12.149 61.2351C12.067 61.2351 11.985 61.2351 11.903 61.3179L11.493 61.4834C11.247 61.5661 11.0829 61.7316 11.0009 61.8971C10.9189 62.0626 10.9189 62.2281 10.9189 62.4764C10.8369 62.4764 10.6729 62.5591 10.5909 62.5591C10.4269 62.2281 10.0989 61.9799 9.77083 61.9799C9.68883 61.9799 9.60682 61.9799 9.44281 62.0626L9.19679 62.1454C8.70475 62.3109 8.45873 62.7246 8.62274 63.2211C7.55666 63.5521 6.49057 63.9659 5.50649 64.2141C5.67051 66.7794 6.49057 68.9309 8.1307 70.9169C10.6729 69.6757 13.1331 68.4344 15.5113 67.2759C15.5933 67.3587 15.7573 67.4414 15.9213 67.4414C16.0033 67.4414 16.0853 67.4414 16.1673 67.3586L16.4954 67.2759C16.9054 67.1104 17.3974 66.6966 17.6435 66.2829C21.0877 64.6279 24.286 63.1384 27.0742 61.8971C27.1562 62.8901 27.2382 63.8004 27.5663 64.4624C28.2223 64.2141 28.7964 64.0486 29.3704 63.5521C29.3704 63.8831 29.5344 64.2141 29.6164 64.6279L28.3863 65.9519L29.2064 66.7794L30.4365 65.6209C30.6005 66.5311 31.5846 67.8551 32.1586 68.1861C32.5687 67.8551 33.6347 66.4484 33.8808 65.6209L35.1109 66.7794L35.9309 65.9519L34.7008 64.6279C34.8648 64.2969 34.9469 63.9659 34.9469 63.5521C35.5209 63.9659 36.0949 64.2141 36.751 64.4624C36.997 63.8004 37.161 62.9729 37.243 61.8971L37.5711 62.0626L37.7351 61.8971L43.6395 64.7934L44.1316 65.0416L44.2956 65.2899L44.3776 65.3726H44.4596L45.2797 65.7864L45.5257 65.8691C45.7717 66.2829 46.4278 67.3587 47.5759 67.2759C47.8219 67.2759 47.9859 67.1931 48.1499 67.1104L48.97 67.5241L49.298 67.6896L49.38 67.5241L52.4143 68.9309L52.3322 69.0964L52.6603 69.2619L53.8084 69.8411L54.1364 70.0066L54.2184 69.8411L55.1205 70.2549C54.8745 70.2549 55.0385 70.2549 55.1205 70.2549C55.4485 70.2549 55.8585 70.0067 55.9405 69.6757C55.9405 69.5929 56.0225 69.5101 56.0225 69.5101V69.3447C56.1045 69.2619 56.2686 69.2619 56.3506 69.0964H56.4326L56.9246 69.3447C57.0886 69.4274 57.2526 69.4274 57.4167 69.4274C57.8267 69.4274 58.2367 69.1791 58.4007 68.7654C58.6468 68.1861 58.4007 67.6069 57.9087 67.2759L57.4987 67.0276C57.4987 66.8621 57.4987 66.7794 57.4987 66.6139L57.5807 66.5311C57.6627 66.4484 57.6627 66.4484 57.6627 66.3656C57.7447 66.1174 57.7447 65.8691 57.6627 65.6209C57.5807 65.3726 57.3346 65.3726 57.1706 65.2899L56.1866 64.7934L56.2686 64.6279L55.9405 64.4624L54.7924 63.8831L54.4644 63.7176L54.5464 63.5521C54.7104 63.1384 54.3824 62.6419 54.1364 62.5591L53.7264 62.3936C53.3163 62.2281 52.8243 62.3936 52.6603 62.8074L52.5783 62.9729L52.2502 62.8074L52.3322 62.5591C52.4963 62.1454 52.3322 61.6489 51.8402 61.4006L51.4302 61.2351C51.1842 61.1524 50.8561 61.2351 50.6921 61.3179C48.2319 58.6699 46.9198 56.4356 46.7558 53.5394C50.6101 52.0499 54.9565 50.4776 59.5488 48.9881C59.0568 46.5884 58.1547 44.3541 56.9246 42.2853L55.7765 42.9473L54.7924 41.0441C54.3004 41.3751 53.8084 41.6233 53.2343 41.9543C52.7423 41.4578 52.0862 40.9613 51.4302 40.6303C53.0703 40.7131 54.7924 40.3821 56.1866 39.8856C55.7765 39.0581 55.2845 38.4788 54.2184 38.0651C55.6945 37.6513 56.6786 37.0721 57.6627 35.9136C57.0886 35.4998 56.7606 35.2516 56.0225 35.0861C57.6627 34.0103 58.9748 32.7691 60.2869 30.8658L58.8928 30.4521C59.8769 29.3763 60.9429 27.7213 61.845 25.9836C61.353 25.9836 61.0249 25.9836 60.5329 26.1491C61.435 24.9078 62.091 23.0873 62.337 21.3495C64.0592 18.4533 64.1412 16.4673 63.3211 13.3228ZM39.4572 49.5674C39.3752 49.6501 39.2112 49.6501 39.1292 49.7329L39.2112 49.1536L39.4572 49.5674ZM31.3386 11.9988H31.9126H32.4867C32.9787 13.902 34.1268 15.226 35.7669 16.3018C35.7669 16.3018 34.7008 17.874 32.8147 18.536C32.9787 18.7843 33.0607 18.7843 33.3067 18.9498C32.6507 19.529 31.9126 20.9358 31.9126 20.9358V21.0185V20.9358C31.9126 20.9358 31.1745 19.529 30.5185 18.9498C30.6825 18.7843 30.8465 18.7843 31.0105 18.536C29.1244 17.874 28.0583 16.3018 28.0583 16.3018C29.6984 15.226 30.9285 13.902 31.3386 11.9988ZM24.696 49.6501L24.368 49.5674L24.614 49.1536L24.696 49.6501ZM12.149 43.5266C12.8051 43.4438 13.4611 43.3611 14.0352 43.1956C13.7071 43.4438 13.3791 43.8576 13.2151 44.1886L12.067 43.6921L12.149 43.5266ZM18.4635 59.5801C19.6116 58.2561 20.6777 56.8494 21.3338 54.2014L24.368 55.6081L24.86 55.8564L25.0241 56.1046L25.1061 56.1874H25.1881L25.5981 56.4356L22.7279 57.8424C21.3338 58.3389 19.7756 59.0009 18.4635 59.5801ZM45.4437 59.6629L41.9174 58.0079L41.4254 57.7596L41.2614 57.5114L41.1794 57.4286H41.0973L39.3752 56.6011C40.3593 56.1874 41.5074 55.7736 42.6555 55.2771C43.3115 56.9321 44.2136 58.4216 45.4437 59.6629ZM50.2001 43.6093C50.0361 43.4438 49.872 43.2783 49.708 43.1128C49.9541 43.1956 50.2821 43.2783 50.6101 43.3611C50.4461 43.4438 50.3641 43.5266 50.2001 43.6093Z" fill="#131111"/>
<path d="M21.5797 15.6845C20.8416 15.6018 20.0216 15.6018 19.5295 15.7673C18.8735 15.9328 18.3814 16.2638 18.1354 17.0913C20.1856 16.512 20.3496 17.6705 22.2357 18.0843C21.6617 18.3325 20.1856 18.3325 19.3655 17.836C19.9396 18.7463 20.6776 18.9945 23.3838 18.9118C22.4818 18.167 22.9738 16.512 21.5797 15.6845Z" fill="#FFE000"/>
<path d="M19.7753 17.5877C20.2673 17.6705 20.1853 18.0015 21.0054 18.0015C20.8414 17.836 20.1033 17.2567 19.7753 17.5877Z" fill="#FFE000"/>
<path d="M42.0813 15.6845C42.8194 15.6018 43.6394 15.6018 44.1315 15.7673C44.7875 15.9328 45.2796 16.2638 45.5256 17.0913C43.4754 16.512 43.3114 17.6705 41.4253 18.0843C41.9993 18.3325 43.4754 18.3325 44.2955 17.836C43.7214 18.7463 42.9834 18.9945 40.2772 18.9118C41.1792 18.167 40.7692 16.512 42.0813 15.6845Z" fill="#FFE000"/>
<path d="M43.967 17.5877C43.475 17.6705 43.557 18.0015 42.7369 18.0015C42.901 17.836 43.639 17.2567 43.967 17.5877Z" fill="#FFE000"/>
<path d="M31.8303 54.1633L34.1265 58.8801L32.1583 59.7076L29.9441 54.9081L31.8303 54.1633Z" fill="#131111"/>
<path d="M29.6984 65.0035L28.7144 65.9965L29.0424 66.3275L29.9445 65.4172C29.9445 65.2517 29.7804 65.0862 29.6984 65.0035Z" fill="#131111"/>
<path d="M34.2089 65.0035C34.1269 65.169 34.0449 65.2517 33.8809 65.3345L34.783 66.2447L35.111 65.9137L34.2089 65.0035Z" fill="#131111"/>
<path d="M22.6458 13.7811V14.2776C23.8759 14.1949 24.8599 14.3604 26.008 14.4431V13.7811C24.9419 13.6156 23.7938 13.6156 22.6458 13.7811Z" fill="#FFE000"/>
<path d="M22.81 11.0503L22.482 10.8021C22.236 10.8021 21.99 10.9676 21.8259 11.2158C21.0879 12.1261 22.072 13.1191 22.564 13.5328H22.728C22.974 13.5328 23.3021 13.4501 23.5481 13.4501C23.5481 12.4571 23.3841 11.5468 22.81 11.0503Z" fill="#FFE000"/>
<path d="M26.1721 10.8021L25.8441 11.0503C25.27 11.5468 25.188 12.4571 25.106 13.4501C25.352 13.4501 25.6801 13.5328 25.9261 13.5328H26.0901C26.5821 13.1191 27.5662 12.1261 26.8282 11.2158C26.6641 10.8848 26.4181 10.8021 26.1721 10.8021Z" fill="#FFE000"/>
<path d="M24.3679 10.6367C24.5491 10.6367 24.6959 10.4885 24.6959 10.3057C24.6959 10.1229 24.5491 9.97467 24.3679 9.97467C24.1867 9.97467 24.0399 10.1229 24.0399 10.3057C24.0399 10.4885 24.1867 10.6367 24.3679 10.6367Z" fill="#FFE000"/>
<path d="M23.7939 13.3673C23.9579 13.3673 24.122 13.3673 24.368 13.3673C24.532 13.3673 24.696 13.3673 24.942 13.3673C24.942 12.2916 25.106 11.2986 25.7621 10.8021L24.942 11.0503L24.778 10.8021C24.696 10.8848 24.532 10.8848 24.45 10.8848C24.286 10.8848 24.204 10.8021 24.122 10.8021L23.9579 11.0503L23.1379 10.8021C23.6299 11.3813 23.7939 12.3743 23.7939 13.3673Z" fill="#FFE000"/>
<path d="M24.0396 9.64362H24.6137L24.5317 9.31262L24.9417 9.39537V8.81612L24.5317 8.89887L24.6137 8.56787H24.0396L24.2036 8.89887L23.7936 8.81612V9.39537L24.2036 9.31262L24.0396 9.64362Z" fill="#FFE000"/>
<path d="M40.5232 13.6984H40.4412C39.7851 13.6157 39.1291 13.6157 38.391 13.6984H38.309C38.145 13.6984 37.981 13.6984 37.817 13.7812V14.4432C38.8831 14.4432 39.8672 14.1949 41.0972 14.2777V13.7812C40.8512 13.6984 40.6872 13.6984 40.5232 13.6984Z" fill="#FFE000"/>
<path d="M41.9175 11.1332C41.7534 10.8849 41.5074 10.8022 41.2614 10.7194L40.9334 11.0504C40.3593 11.5469 40.2773 12.4572 40.1953 13.4502C40.4413 13.4502 40.7694 13.5329 41.0154 13.5329H41.1794C41.6714 13.1192 42.6555 12.1262 41.9175 11.1332Z" fill="#FFE000"/>
<path d="M37.8996 11.0503L37.5716 10.8021C37.3255 10.8021 37.0795 10.8848 36.8335 11.2158C36.0954 12.1261 37.0795 13.1191 37.5716 13.5328H37.7356C37.9816 13.5328 38.3096 13.4501 38.5556 13.4501C38.5556 12.4571 38.4736 11.5468 37.8996 11.0503Z" fill="#FFE000"/>
<path d="M39.3755 10.6367C39.5567 10.6367 39.7035 10.4885 39.7035 10.3057C39.7035 10.1229 39.5567 9.97467 39.3755 9.97467C39.1943 9.97467 39.0475 10.1229 39.0475 10.3057C39.0475 10.4885 39.1943 10.6367 39.3755 10.6367Z" fill="#FFE000"/>
<path d="M38.8831 11.1331L38.063 10.8848C38.7191 11.3813 38.8831 12.3743 38.8831 13.4501C39.0471 13.4501 39.2111 13.4501 39.4572 13.4501C39.6212 13.4501 39.7852 13.4501 40.0312 13.4501C40.0312 12.3743 40.1952 11.3813 40.8513 10.8848L40.0312 11.1331L39.8672 10.8848C39.7852 10.9676 39.6212 10.9676 39.5392 10.9676C39.3752 10.9676 39.2931 10.8848 39.2111 10.8848L38.8831 11.1331Z" fill="#FFE000"/>
<path d="M39.1292 9.64362H39.7032L39.5392 9.31262L39.9493 9.39537V8.81612L39.5392 8.89887L39.7032 8.56787H39.1292L39.2112 8.89887L38.8012 8.81612V9.39537L39.2112 9.31262L39.1292 9.64362Z" fill="#FFE000"/>
<path d="M27.1564 5.4234V5.9199L27.5664 6.0854V5.67165L27.1564 5.4234Z" fill="#FFE000"/>
<path d="M31.8304 8.15411C29.6162 8.15411 27.8121 8.73337 27.8121 9.39537V10.4711C28.4681 9.80912 30.1903 9.56087 31.8304 9.56087C33.4705 9.56087 35.1107 9.89187 35.8487 10.4711V9.39537C35.8487 8.73337 34.0446 8.15411 31.8304 8.15411Z" fill="#FFE000"/>
<path d="M33.8809 5.9199C34.2089 4.51314 35.357 3.76839 36.5051 3.52014C35.275 3.27189 33.8809 3.85114 33.3888 4.67864C33.1428 5.0924 32.9788 5.5889 32.8148 6.00265C33.1428 5.83715 33.5529 5.83715 33.8809 5.9199Z" fill="#FFE000"/>
<path d="M29.7806 5.91988C30.1906 5.83713 30.5186 5.83713 30.8467 6.00263C30.6827 5.50613 30.5186 5.00963 30.2726 4.59588C29.7806 3.85113 28.3865 3.18913 27.1564 3.43738C28.3045 3.76838 29.4526 4.51313 29.7806 5.91988Z" fill="#FFE000"/>
<path d="M27.9762 10.8021C28.2222 11.0503 28.6322 11.2986 29.2063 11.4641C29.2883 11.0503 29.2883 10.6366 29.3703 10.1401C28.7143 10.3056 28.2222 10.5538 27.9762 10.8021Z" fill="#FFE000"/>
<path d="M32.0768 9.80902C31.9948 9.80902 31.9128 9.80902 31.8308 9.80902C31.7487 9.80902 31.6667 9.80902 31.5847 9.80902C31.5847 10.471 31.5027 11.133 31.3387 11.7123C31.5027 11.7123 31.6667 11.7123 31.8308 11.7123C31.9948 11.7123 32.1588 11.7123 32.3228 11.7123C32.2408 11.133 32.1588 10.5538 32.0768 9.80902Z" fill="#FFE000"/>
<path d="M34.3728 10.1401C34.3728 10.6366 34.4548 11.0503 34.5368 11.4641C35.1108 11.2986 35.5209 11.0503 35.7669 10.8021C35.5209 10.5538 35.0288 10.3056 34.3728 10.1401Z" fill="#FFE000"/>
<path d="M31.8305 4.18213C32.2381 4.18213 32.5686 3.84869 32.5686 3.43738C32.5686 3.02606 32.2381 2.69263 31.8305 2.69263C31.4229 2.69263 31.0924 3.02606 31.0924 3.43738C31.0924 3.84869 31.4229 4.18213 31.8305 4.18213Z" fill="#FFE000"/>
<path d="M31.3387 2.36163H32.2407L31.9947 1.61688L32.7328 1.86513V0.954875L31.9947 1.20313L32.2407 0.458374H31.3387L31.6667 1.20313L30.8466 0.954875V1.86513L31.6667 1.61688L31.3387 2.36163Z" fill="#FFE000"/>
<path d="M36.1768 6.0854L36.5869 5.9199V5.4234L36.2588 5.67165L36.1768 6.0854Z" fill="#FFE000"/>
<path d="M37.8989 4.43037C37.7349 4.09937 37.4889 3.93387 37.1608 3.76837C35.9307 3.85112 34.5366 4.51312 34.2086 6.16813V6.33363L34.0446 6.25088C33.5525 6.08538 33.1425 6.16813 32.7325 6.41638C32.6505 6.74738 32.5685 6.99563 32.5685 7.16113C32.4865 7.49213 32.1584 7.65763 31.9124 7.65763C31.6664 7.65763 31.3384 7.40938 31.2564 7.16113C31.2564 7.07838 31.1743 6.83013 31.0923 6.49913C30.7643 6.25088 30.2723 6.25088 29.7802 6.33363L29.6162 6.41638V6.25088C29.2882 4.59587 27.9761 3.93387 26.664 3.85112C26.418 4.01662 26.1719 4.26487 25.9259 4.51312C24.7778 6.25088 26.992 8.31963 27.8121 8.98163C28.3861 8.23688 30.1903 7.90588 31.9124 7.90588C33.7165 7.90588 35.5207 8.31963 36.0127 8.98163C36.7508 8.23688 38.965 6.16813 37.8989 4.43037ZM26.992 6.16813L26.828 6.08538V5.83713V5.42338V4.92687L27.32 5.17512L27.7301 5.34062L27.8941 5.42338V5.67163V6.08538V6.58188L27.402 6.33363L26.992 6.16813ZM27.7301 8.15413C27.5661 8.15413 27.484 8.07138 27.484 7.90588C27.484 7.74038 27.5661 7.65763 27.7301 7.65763C27.8941 7.65763 27.9761 7.74038 27.9761 7.90588C27.9761 7.98863 27.8941 8.15413 27.7301 8.15413ZM28.9602 7.65763C28.7962 7.65763 28.7141 7.57488 28.7141 7.40938C28.7141 7.24388 28.7962 7.16113 28.9602 7.16113C29.1242 7.16113 29.2062 7.24388 29.2062 7.40938C29.2062 7.49213 29.0422 7.65763 28.9602 7.65763ZM30.1903 7.32663C30.0263 7.32663 29.9442 7.24388 29.9442 7.07838C29.9442 6.91288 30.0263 6.83013 30.1903 6.83013C30.3543 6.83013 30.4363 6.91288 30.4363 7.07838C30.4363 7.24388 30.3543 7.32663 30.1903 7.32663ZM33.5525 7.32663C33.3885 7.32663 33.3065 7.24388 33.3065 7.07838C33.3065 6.91288 33.3885 6.83013 33.5525 6.83013C33.7165 6.83013 33.7986 6.91288 33.7986 7.07838C33.7986 7.24388 33.6345 7.32663 33.5525 7.32663ZM34.7826 7.65763C34.6186 7.65763 34.5366 7.57488 34.5366 7.40938C34.5366 7.24388 34.6186 7.16113 34.7826 7.16113C34.9466 7.16113 35.0287 7.24388 35.0287 7.40938C35.0287 7.49213 34.9466 7.65763 34.7826 7.65763ZM36.0127 8.15413C35.8487 8.15413 35.7667 8.07138 35.7667 7.90588C35.7667 7.74038 35.8487 7.65763 36.0127 7.65763C36.1767 7.65763 36.2588 7.74038 36.2588 7.90588C36.2588 7.98863 36.1767 8.15413 36.0127 8.15413ZM35.8487 6.58188V6.08538V5.67163V5.42338L36.0127 5.34062L36.4228 5.17512L36.9148 4.92687V5.42338V5.83713V6.08538L36.7508 6.16813L36.3408 6.33363L35.8487 6.58188Z" fill="#FFE000"/>
<path d="M31.8304 7.32653C32.0569 7.32653 32.2405 7.14128 32.2405 6.91277C32.2405 6.68427 32.0569 6.49902 31.8304 6.49902C31.604 6.49902 31.4204 6.68427 31.4204 6.91277C31.4204 7.14128 31.604 7.32653 31.8304 7.32653Z" fill="#FFE000"/>
<path d="M31.3385 6.33363C31.5025 6.16813 31.6666 6.16813 31.8306 6.16813C31.9946 6.16813 32.2406 6.25088 32.3226 6.33363C32.4046 5.83713 32.6506 5.09237 33.0607 4.43037C33.0607 4.43037 33.0607 4.34762 33.1427 4.34762C33.1427 4.09937 32.9787 3.93387 32.7326 3.76837C32.5686 4.09937 32.2406 4.43037 31.7486 4.43037C31.3385 4.43037 30.9285 4.18212 30.7645 3.76837C30.6005 3.85112 30.4365 4.01662 30.4365 4.26487C30.4365 4.34762 30.5185 4.34762 30.5185 4.43037C31.0105 5.17512 31.2565 5.83713 31.3385 6.33363Z" fill="#FFE000"/>
<path d="M54.5467 41.6679C46.4281 46.0537 39.2935 50.1084 31.9949 53.7494L32.1589 53.9977V54.0804C39.5395 50.8532 47.3302 47.2949 55.3668 43.2402C55.2028 42.7437 54.8748 42.0817 54.5467 41.6679Z" fill="#D4D4D4"/>
<path d="M29.6983 55.0735L29.6163 54.908C27.9762 55.7355 26.2541 56.4802 24.6139 57.225C26.2541 56.563 27.9762 55.901 29.6983 55.0735Z" fill="#D4D4D4"/>
<path d="M56.5146 43.0746C48.806 46.9639 40.6054 50.7704 32.3227 54.4114L34.2088 58.3834C42.4095 54.9079 50.7742 51.5979 58.8108 48.8672C58.4828 46.7984 57.6627 44.8952 56.5146 43.0746Z" fill="#D4D4D4"/>
<path d="M15.2654 61.197L15.6755 62.4382C15.7575 62.6865 15.5115 62.9347 15.5115 63.2657C15.5935 64.4243 14.8554 65.2518 14.8554 65.2518L14.4454 65.5828L14.2814 65.0862L13.2153 61.9417C13.2153 62.0245 13.1333 62.0245 13.0513 62.0245L13.7073 63.9278C13.9533 64.7553 13.5433 65.9138 13.4613 65.9138L13.2973 66.2448L12.9693 66.162C12.9693 66.162 12.1492 65.5828 11.7392 64.507C11.6572 64.3415 11.4931 64.3415 11.4111 64.176L11.0011 62.852C10.9191 62.852 10.8371 62.9347 10.6731 62.9347L11.6572 65.9138L11.8212 66.4103H11.3291C11.2471 66.4103 10.3451 66.4103 9.60699 65.3345C9.52499 65.169 9.11496 65.2518 9.03295 65.0035L8.62292 63.6795C7.63884 64.0105 6.73676 64.3415 5.75269 64.6725C6.08071 66.9068 6.81877 68.8928 8.13088 70.465C10.4271 69.3065 12.8053 68.148 15.2654 66.9895C15.2654 66.9068 15.3475 66.7413 15.4295 66.5758L16.4135 64.9208C16.4135 64.9208 16.2495 64.4242 16.3315 63.845C17.0696 64.0105 17.6436 64.3415 17.8897 64.838C17.9717 65.0863 17.9717 65.5 17.8077 65.831C22.318 63.6795 26.9924 61.6107 31.6668 59.6247L29.8626 55.4045C25.0242 57.4732 20.1038 59.4592 15.2654 61.197Z" fill="#D4D4D4"/>
<path d="M14.281 54.9081C14.281 54.9081 14.199 54.9081 14.281 54.9081C13.4609 54.8253 12.7229 54.7426 11.9848 54.5771L12.0668 54.2461C12.6408 54.4116 13.2149 54.4943 13.8709 54.5771C12.7229 53.5013 12.5588 51.9291 12.9689 50.3568L9.77062 48.7845C8.78654 50.1913 7.47443 50.7705 5.91631 50.5223C7.31042 52.0118 8.86855 53.1703 10.7547 53.8323L10.6727 54.1633C8.62253 53.4186 6.90039 52.1773 5.42427 50.4395C4.93223 50.3568 4.44019 50.1086 3.94815 49.8603C4.76822 53.7496 12.8869 57.6388 15.7571 55.5701C15.1831 55.4046 14.691 55.1563 14.281 54.9081Z" fill="#E2E2E2"/>
<path d="M7.80282 43.8195L7.39278 43.654C6.98275 43.4885 6.57272 43.654 6.4087 43.985C6.24469 44.3987 6.4087 44.8125 6.73673 44.978L7.06476 45.1435C7.22877 44.8125 7.47479 44.647 7.80282 44.647C7.72081 44.3987 7.72081 44.0677 7.80282 43.8195Z" fill="#8C8C8C"/>
<path d="M57.7443 67.8171L57.3342 67.5688C57.1702 67.8171 56.9242 68.0654 56.5962 68.0654C56.7602 68.3136 56.7602 68.6446 56.5962 68.8929L57.0882 69.1411C57.4982 69.3066 57.9083 69.1411 58.0723 68.8101C58.2363 68.4791 58.0723 67.9826 57.7443 67.8171Z" fill="#8C8C8C"/>
<path d="M54.5855 64.2747L52.364 68.9813L53.5486 69.5506L55.7701 64.8441L54.5855 64.2747Z" fill="#8C8C8C"/>
<path d="M15.6775 45.509L13.456 50.2155L14.6405 50.7848L16.8621 46.0783L15.6775 45.509Z" fill="#8C8C8C"/>
<path d="M10.5276 43.0998L8.30609 47.8063L9.49066 48.3757L11.7122 43.6691L10.5276 43.0998Z" fill="#8C8C8C"/>
<path d="M19.8576 47.5431L25.188 55.9009L26.0081 56.3146C26.2541 56.2319 26.4181 56.1491 26.6641 55.9836L21.9078 48.5361L19.8576 47.5431Z" fill="#8C8C8C"/>
<path d="M29.4521 52.1772L30.6822 54.0805C31.0102 53.915 31.4203 53.7495 31.7483 53.584L31.5023 53.1703L29.4521 52.1772Z" fill="#8C8C8C"/>
<path d="M34.373 58.6318L34.537 58.9628L34.209 59.1283L33.963 59.2111L34.701 60.4523L36.6692 61.4453L34.783 58.4663C34.701 58.5491 34.537 58.6318 34.373 58.6318Z" fill="#8C8C8C"/>
<path d="M38.9651 56.7285L44.2956 65.0862L45.1156 65.5C44.8696 64.838 45.1156 64.3415 45.1977 64.2587L41.0153 57.7215L38.9651 56.7285Z" fill="#8C8C8C"/>
<path d="M50.2004 62.1072L49.8724 62.0245L48.3962 65.4172L48.2322 65.2517L47.5762 66.6585L48.7243 67.2377L49.3803 65.831C49.2983 65.5 49.0523 64.6725 49.3803 64.0105L50.2004 62.1072Z" fill="#8C8C8C"/>
<path d="M15.2654 50.1913L14.9373 50.7705L24.4501 55.3218L23.7121 54.246L15.2654 50.1913Z" fill="#DBDBDB"/>
<path d="M22.1538 51.7635L15.9213 48.7018L15.3473 49.8603L23.3839 53.7495L22.1538 51.7635Z" fill="#DBDBDB"/>
<path d="M20.514 49.1982L16.5777 47.295L16.0857 48.4535L21.8261 51.1842L20.514 49.1982Z" fill="#DBDBDB"/>
<path d="M19.6116 47.7087L19.5296 47.626L16.9874 46.3847L16.7414 46.964L20.1857 48.619L19.6116 47.7087Z" fill="#DBDBDB"/>
<path d="M7.14678 46.2193L7.06477 46.302C6.90076 46.633 7.06477 46.964 7.3928 47.1295L8.04885 47.4606L8.29487 46.8813L7.4748 46.4675C7.3928 46.3848 7.31079 46.302 7.14678 46.2193Z" fill="#DBDBDB"/>
<path d="M10.1525 47.7283L9.87036 48.3259L13.202 49.9271L13.4841 49.3295L10.1525 47.7283Z" fill="#DBDBDB"/>
<path d="M7.3925 45.3089C7.22849 45.6399 7.3925 45.9709 7.72052 46.1364L8.54059 46.5502L9.03263 45.3917L8.21256 44.9779C7.88454 44.8952 7.47451 44.9779 7.3925 45.3089Z" fill="#DBDBDB"/>
<path d="M10.815 46.3212L10.2861 47.4418L13.6177 49.043L14.1466 47.9224L10.815 46.3212Z" fill="#DBDBDB"/>
<path d="M8.1309 43.9023C7.96689 44.2333 8.1309 44.5643 8.45893 44.7298L9.19699 45.0608L9.68903 43.9023L8.95097 43.654C8.62294 43.4885 8.29492 43.5713 8.1309 43.9023Z" fill="#DBDBDB"/>
<path d="M11.4838 44.8058L10.9549 45.9264L14.2865 47.5276L14.8154 46.407L11.4838 44.8058Z" fill="#DBDBDB"/>
<path d="M8.70496 43.2402C8.86898 43.2402 8.95098 43.2402 9.115 43.323L9.85305 43.6539L10.0991 43.0747L9.44302 42.7437C9.11499 42.5782 8.78697 42.7437 8.62296 43.0747C8.70496 43.1574 8.70496 43.1574 8.70496 43.2402Z" fill="#DBDBDB"/>
<path d="M11.8992 43.9216L11.6171 44.5193L14.9487 46.1205L15.2308 45.5228L11.8992 43.9216Z" fill="#DBDBDB"/>
<path d="M36.4229 60.3695L36.997 61.2798L37.079 61.3625L43.5575 64.507L42.9015 63.4313L36.4229 60.3695Z" fill="#DBDBDB"/>
<path d="M49.4049 66.5753L49.1228 67.173L52.1583 68.6319L52.4404 68.0342L49.4049 66.5753Z" fill="#DBDBDB"/>
<path d="M29.7807 53.253L29.1246 52.3428L29.0426 52.1773L22.6461 49.1155L23.3021 50.1913L29.7807 53.253Z" fill="#DBDBDB"/>
<path d="M56.9245 65.5827L55.9404 65.0862L55.6944 65.6655L56.8425 66.2447C57.0065 66.3275 57.0885 66.4102 57.1705 66.493L57.2525 66.4103C57.4165 66.0792 57.2525 65.7482 56.9245 65.5827Z" fill="#DBDBDB"/>
<path d="M55.2844 69.3893L54.2183 68.8928L53.8903 69.472L54.7924 69.8858C55.1204 70.0513 55.4484 69.8858 55.6125 69.5548C55.6125 69.472 55.6125 69.472 55.6945 69.3893C55.5304 69.472 55.3664 69.472 55.2844 69.3893Z" fill="#DBDBDB"/>
<path d="M55.9408 67.9825L54.8747 67.486L54.3827 68.6445L55.4487 69.141C55.7768 69.3065 56.1048 69.141 56.2688 68.81C56.3508 68.479 56.2688 68.148 55.9408 67.9825Z" fill="#DBDBDB"/>
<path d="M56.6788 66.5757L55.5307 65.9965L55.0386 67.155L56.1867 67.7342C56.5148 67.8997 56.8428 67.7342 57.0068 67.4032C57.1708 67.0722 57.0068 66.7412 56.6788 66.5757Z" fill="#DBDBDB"/>
<path d="M26.5823 55.2389L27.4023 55.6527C27.8944 55.4044 28.3864 55.2389 28.8785 54.9907L25.3522 53.2529L26.5823 55.2389Z" fill="#DBDBDB"/>
<path d="M23.6298 50.6877L24.8599 52.6737L29.2063 54.7425C29.6163 54.577 29.9443 54.4115 30.3544 54.1632L30.1083 53.7495L23.6298 50.6877Z" fill="#DBDBDB"/>
<path d="M33.3067 59.542L33.9628 59.873L33.6348 59.3765L33.3067 59.542Z" fill="#DBDBDB"/>
<path d="M38.7196 56.8941C38.4736 56.9769 38.2275 57.0596 37.8995 57.1424L39.2936 57.8044L38.7196 56.8941Z" fill="#DBDBDB"/>
<path d="M39.6214 58.3835L37.4892 57.3905C36.9972 57.6388 36.5051 57.8043 35.9311 58.0525L40.8515 60.4523L39.6214 58.3835Z" fill="#DBDBDB"/>
<path d="M41.2613 60.9488L35.5208 58.218C35.3568 58.3008 35.2748 58.3008 35.1108 58.3835L36.0128 59.873L42.4094 62.9348L41.2613 60.9488Z" fill="#DBDBDB"/>
<path d="M47.6579 61.859L47.9859 61.2797L41.7534 58.3007L42.4094 59.3765L47.6579 61.859Z" fill="#DBDBDB"/>
<path d="M47.5759 62.2727L42.8195 59.873L44.0496 61.859L47.5759 63.514C47.5759 63.2657 47.6579 63.0175 47.6579 62.852C47.5759 62.6037 47.4119 62.521 47.5759 62.2727Z" fill="#DBDBDB"/>
<path d="M44.3775 62.4383L45.3616 64.0105C45.9356 63.514 46.7557 63.5968 46.7557 63.5968L46.5097 64.4243L46.7557 64.9208L47.8218 65.4173L48.0678 65.0035C47.9038 64.7553 47.7398 64.4243 47.6578 63.9278L44.3775 62.4383Z" fill="#DBDBDB"/>
<path d="M47.4119 66.2447L47.6579 65.7482L47.0019 65.4172L47.4119 66.2447Z" fill="#DBDBDB"/>
<path d="M52.3324 63.3485L52.0044 63.183L51.6764 63.845L52.0864 64.0105L52.3324 63.3485Z" fill="#DBDBDB"/>
<path d="M51.9224 64.2588L51.5943 64.0933L51.4303 64.4243C51.3483 64.5898 51.1843 64.4243 50.8563 65.0863L51.3483 65.3345L51.9224 64.2588Z" fill="#DBDBDB"/>
<path d="M53.2345 66.2448L53.7266 65.2518C53.6446 65.3345 53.3985 65.2518 53.3165 65.4173C53.1525 65.6655 52.8245 65.9965 52.7425 65.9965L53.2345 66.2448Z" fill="#DBDBDB"/>
<path d="M51.5121 66.4102H51.0201L51.1841 65.9137L51.2661 65.7482L50.774 65.4172C50.364 65.9137 49.7079 66.3275 49.7079 66.3275L52.6602 67.7342L53.1522 66.5757L52.4142 66.2447C51.9221 66.3275 51.5941 66.4102 51.5121 66.4102Z" fill="#DBDBDB"/>
<path d="M31.9946 61.0316C30.6824 61.0316 29.6164 62.1073 29.6164 63.4313C29.6164 64.7553 30.6824 65.8311 31.9946 65.8311C33.3067 65.8311 34.3727 64.7553 34.3727 63.4313C34.3727 62.1073 33.3067 61.0316 31.9946 61.0316ZM32.5686 62.5211C32.7326 62.5211 32.7326 62.3556 32.6506 62.2728C32.7326 62.1073 32.8146 62.2728 32.8146 62.3556C32.8146 62.3556 32.9786 62.3556 32.9786 62.4383C32.9786 62.5211 32.8966 62.5211 32.8966 62.6866C32.8966 62.6866 32.7326 62.6038 32.8146 62.6866C32.8146 62.6866 32.7326 62.6866 32.7326 62.6038C32.7326 62.5211 32.8146 62.5211 32.8146 62.4383C32.8146 62.3556 32.6506 62.3556 32.6506 62.3556C32.7326 62.4383 32.7326 62.6038 32.5686 62.5211C32.5686 62.6038 32.5686 62.5211 32.5686 62.5211ZM32.3226 63.3486H31.7485C31.9125 63.1831 31.7485 62.7693 31.4205 62.7693C31.3385 62.7693 31.3385 62.8521 31.3385 62.8521V62.7693C31.3385 62.6038 31.7485 62.6866 31.9125 62.6038C31.9125 62.6866 31.8305 62.7693 31.8305 62.7693C31.9125 62.8521 31.9946 63.0176 32.0766 63.2658C32.0766 63.0176 32.1586 62.8521 32.3226 62.7693C32.2406 62.7693 32.1586 62.6866 32.2406 62.6038C32.4046 62.6866 32.8146 62.6038 32.8146 62.7693V62.8521C32.8146 62.8521 32.8146 62.7693 32.7326 62.7693C32.3226 62.7693 32.0766 63.1831 32.3226 63.3486ZM32.5686 62.9348C32.4866 62.9348 32.4866 62.9348 32.4046 62.9348L32.4866 62.8521C32.4866 62.8521 32.5686 62.8521 32.5686 62.9348ZM32.0766 63.9278C32.0766 63.9278 32.1586 63.8451 32.1586 63.9278C32.1586 64.0106 32.0766 64.0106 32.0766 64.0106L31.9125 63.5141H31.9946C31.9946 63.5141 32.0766 63.4313 32.1586 63.5141V63.5968V63.5141C32.1586 63.5141 32.1586 63.5141 32.1586 63.5968V63.6796C32.2406 63.6796 32.2406 63.6796 32.2406 63.7623C32.2406 63.6796 32.1586 63.6796 32.1586 63.6796C32.0766 63.8451 32.0766 63.8451 32.0766 63.9278ZM31.8305 63.7623C31.8305 63.7623 31.8305 63.8451 31.8305 63.7623C31.8305 63.7623 31.7485 63.7623 31.8305 63.7623C31.7485 63.6796 31.7485 63.6796 31.7485 63.6796C31.7485 63.6796 31.8305 63.6796 31.8305 63.7623C31.8305 63.6796 31.9125 63.6796 31.9125 63.6796C31.8305 63.6796 31.7485 63.6796 31.7485 63.5968L31.8305 63.5141V63.4313L32.0766 64.0933C31.9946 64.0933 31.9125 64.0933 31.8305 64.0933C31.8305 64.0933 31.7485 64.0933 31.7485 64.0106C31.7485 64.0106 31.7485 64.0106 31.7485 63.9278C31.7485 63.9278 31.8305 63.8451 31.8305 63.7623ZM31.5845 62.9348C31.5845 62.9348 31.5025 62.9348 31.4205 62.9348C31.4205 62.8521 31.4205 62.8521 31.5025 62.8521C31.5025 62.8521 31.5845 62.8521 31.5845 62.9348ZM32.4046 62.1901V62.3556V62.1901ZM31.9946 61.9418L32.0766 62.0246L31.9946 62.1073L31.9125 62.0246L31.9946 61.9418ZM31.5025 62.1901V62.3556V62.1901ZM31.5025 62.3556H31.6665C31.7485 62.3556 31.7485 62.3556 31.7485 62.4383C31.8305 62.4383 31.9125 62.3556 31.9125 62.2728L31.8305 62.1901C31.7485 62.1073 31.8305 62.0246 31.9125 62.0246L31.9946 62.1901L32.0766 62.0246C32.1586 62.0246 32.2406 62.1073 32.1586 62.1901L32.0766 62.2728C32.0766 62.3556 32.1586 62.4383 32.2406 62.4383C32.2406 62.3556 32.2406 62.3556 32.3226 62.3556L32.4046 62.4383L32.4866 62.3556C32.5686 62.3556 32.5686 62.3556 32.5686 62.4383L32.4866 62.5211H32.3226C32.1586 62.5211 32.0766 62.4383 32.0766 62.3556H31.9125C31.9125 62.4383 31.8305 62.5211 31.6665 62.5211H31.5025C31.5025 62.5211 31.5025 62.4383 31.4205 62.4383C31.3385 62.4383 31.4205 62.3556 31.5025 62.3556ZM31.0925 62.3556C31.1745 62.2728 31.2565 62.1073 31.2565 62.2728C31.1745 62.3556 31.1745 62.5211 31.3385 62.5211C31.1745 62.5211 31.1745 62.4383 31.1745 62.3556C31.1745 62.3556 31.0105 62.3556 31.0105 62.4383C31.0105 62.5211 31.0925 62.5211 31.0925 62.6038C31.0925 62.6038 31.0925 62.6866 31.0105 62.6866C31.0105 62.6038 30.9285 62.6038 30.9285 62.6866C31.0105 62.5211 30.8465 62.5211 30.8465 62.4383C30.9285 62.3556 31.0925 62.4383 31.0925 62.3556ZM30.5184 63.1831C30.6004 63.1831 30.6824 63.1831 30.6004 63.1003C30.5184 63.0176 30.4364 62.8521 30.5184 62.7693C30.5184 62.7693 30.7645 62.8521 30.6824 62.7693C30.6004 62.6038 30.6004 62.4383 30.6824 62.3556C30.6824 62.4383 31.0105 62.8521 31.3385 63.1003C31.3385 63.1003 31.2565 63.1831 31.2565 63.2658C31.2565 63.3486 31.3385 63.4313 31.4205 63.4313C31.5025 63.4313 31.5025 63.4313 31.5845 63.4313V63.6796C31.5845 63.5968 31.4205 63.5141 31.3385 63.5141C31.3385 63.5968 31.2565 63.6796 31.2565 63.7623C31.1745 63.8451 31.0925 63.8451 31.0105 63.7623C31.0105 63.7623 31.0925 63.5968 31.0105 63.6796C30.9285 63.7623 30.8465 63.6796 30.7645 63.5968C30.8465 63.5968 30.8465 63.5141 30.7645 63.5141C30.6824 63.5141 30.5184 63.5141 30.5184 63.3486C30.5184 63.3486 30.6824 63.2658 30.6004 63.2658C30.6004 63.4313 30.5184 63.3486 30.5184 63.1831ZM32.8146 64.5071C32.7326 64.5071 32.6506 64.5071 32.6506 64.4243C32.5686 64.3416 32.4866 64.3416 32.3226 64.3416C32.4046 64.2588 32.2406 64.1761 32.1586 64.2588C32.0766 64.2588 32.0766 64.3416 32.0766 64.4243C32.2406 64.4243 32.4866 64.5898 32.4866 64.6726C32.4866 64.7553 32.4866 64.7553 32.4046 64.7553C32.4046 64.5898 32.3226 64.5898 32.3226 64.7553C32.3226 64.8381 32.2406 64.8381 32.2406 64.9208C32.2406 64.7553 32.1586 64.7553 32.1586 64.9208C32.1586 65.0036 32.0766 65.0036 32.0766 65.0036L31.9946 64.9208C31.9946 64.7553 31.9125 64.7553 31.9125 64.9208C31.8305 64.9208 31.8305 64.8381 31.8305 64.7553C31.8305 64.5898 31.7485 64.5898 31.7485 64.7553C31.6665 64.7553 31.6665 64.6726 31.6665 64.6726C31.7485 64.5898 31.9125 64.4243 32.0766 64.4243C32.0766 64.3416 31.9946 64.2588 31.9946 64.2588C31.9125 64.1761 31.8305 64.2588 31.8305 64.3416C31.7485 64.3416 31.5845 64.3416 31.5845 64.4243L31.6665 64.5071L31.5845 64.4243H31.5025C31.4205 64.4243 31.4205 64.3416 31.4205 64.3416V64.2588L31.0925 64.0106H31.0105C31.0105 64.0106 30.8465 64.0106 30.8465 63.9278H30.9285C30.9285 63.9278 30.8465 63.8451 30.9285 63.8451C31.0105 63.8451 31.0925 63.8451 31.0925 63.8451V63.7623C31.1745 63.7623 31.1745 63.9278 31.1745 63.9278C31.1745 63.9278 31.2565 63.9278 31.1745 64.0106L31.5025 64.3416H31.5845C31.6665 64.3416 31.8305 64.3416 31.8305 64.2588C31.6665 64.0106 31.8305 63.8451 31.9125 63.8451V64.0106C31.9125 64.0933 31.9946 64.0933 31.9946 64.0933H32.0766C32.1586 64.0933 32.2406 64.1761 32.2406 64.1761C32.2406 64.1761 32.3226 64.0933 32.4046 64.0933H32.4866C32.5686 64.0933 32.5686 64.0106 32.5686 64.0106V63.8451C32.7326 63.8451 32.8966 64.0106 32.6506 64.2588L32.8146 64.3416C32.8146 64.2588 32.8146 64.2588 32.8966 64.2588L32.9786 64.3416L33.0606 64.2588C33.1426 64.2588 33.1426 64.3416 33.1426 64.4243C32.9786 64.4243 32.8966 64.5071 32.8146 64.5071ZM32.7326 64.0933H32.8966H32.7326ZM33.4707 63.1831C33.4707 63.2658 33.3887 63.4313 33.3067 63.4313C33.1426 63.4313 33.3067 63.5141 33.3887 63.5141C33.3887 63.5968 33.3067 63.6796 33.1426 63.6796C33.0606 63.6796 33.0606 63.7623 33.1426 63.7623C33.0606 63.8451 32.9786 63.8451 32.8966 63.8451C32.8146 63.8451 32.8966 63.9278 32.8966 63.9278C32.8146 64.0106 32.7326 64.0106 32.6506 63.9278C32.5686 63.8451 32.5686 63.7623 32.5686 63.6796C32.4866 63.6796 32.4046 63.6796 32.3226 63.8451V63.5968C32.4046 63.5968 32.4866 63.5968 32.4866 63.5968C32.5686 63.5968 32.6506 63.5141 32.6506 63.4313C32.6506 63.3486 32.6506 63.3486 32.5686 63.2658C32.8966 63.1003 33.1426 62.6038 33.2247 62.5211C33.3067 62.6038 33.3067 62.7693 33.2247 62.9348C33.1426 63.0176 33.3887 62.9348 33.3887 62.9348C33.4707 63.0176 33.3887 63.1831 33.3067 63.2658C33.2247 63.1831 33.3887 63.1831 33.4707 63.1831Z" fill="#D0D2D3"/>
<path d="M17.8074 10.5538C17.1513 10.7193 16.9053 10.8021 16.4953 10.9676C15.7572 12.7881 17.1513 14.8568 18.7914 15.8498C19.1195 15.6843 19.7755 15.3533 20.5136 15.4361C18.6274 14.2776 17.0693 12.6226 17.8074 10.5538Z" fill="#1FC150"/>
<path d="M45.9359 10.5538C46.5919 10.7193 46.838 10.8021 47.248 10.9676C47.9041 12.7881 46.5919 14.8568 44.9518 15.8498C44.6238 15.6843 43.9677 15.3533 43.2297 15.4361C45.1978 14.2776 46.674 12.6226 45.9359 10.5538Z" fill="#1FC150"/>
<path d="M16.4951 14.1121C15.101 14.1121 13.2148 12.7053 11.7387 13.6156L12.0667 14.7741C13.6249 14.1121 15.019 15.7671 17.3152 15.1878C16.9871 14.7741 16.7411 14.4431 16.4951 14.1121Z" fill="#1FC150"/>
<path d="M18.2997 13.1191C18.4638 13.4501 18.7918 13.7811 19.1198 14.0293C19.9399 12.9536 19.6939 10.8021 18.1357 10.5538V10.6366C17.9717 10.9676 17.9717 11.2986 17.8897 11.5468C18.3817 11.9606 18.4638 12.5398 18.2997 13.1191Z" fill="#1FC150"/>
<path d="M47.2479 14.1122C47.0019 14.4432 46.7559 14.857 46.4279 15.1052C48.724 15.6845 50.1182 14.0294 51.6763 14.6915L52.0043 13.5329C50.5282 12.7054 48.642 14.1122 47.2479 14.1122Z" fill="#1FC150"/>
<path d="M45.4438 13.1191C45.2798 12.6226 45.3618 11.9606 45.8538 11.5468C45.8538 11.2986 45.7718 10.9676 45.6078 10.6366V10.5538C44.0497 10.8021 43.8856 12.9536 44.6237 14.0293C44.9517 13.6983 45.2798 13.4501 45.4438 13.1191Z" fill="#1FC150"/>
<path d="M27.7305 16.0982C29.8627 14.9397 31.1748 12.9536 31.2568 9.80914C30.6827 9.80914 30.1087 9.89189 29.6166 9.97464C29.6166 12.0434 28.9606 13.4502 27.7305 14.3604C28.0585 14.2777 28.3045 14.1949 28.5506 14.1122L29.3706 13.6984L28.9606 14.5259C28.6326 15.3534 28.2225 15.8499 27.7305 16.0982Z" fill="#1FC150"/>
<path d="M35.931 16.0982C35.5209 15.85 35.0289 15.3535 34.7009 14.6087L34.2908 13.7812L35.1109 14.195C35.3569 14.2777 35.603 14.3605 35.931 14.4432C34.7009 13.533 34.0448 12.1262 34.0448 10.0575C33.5528 9.97472 33.0607 9.89197 32.4047 9.89197C32.5687 12.9537 33.8808 15.0225 35.931 16.0982Z" fill="#1FC150"/>
<path d="M37.981 31.2415L37.6529 30.9932V30.083H36.8329L36.5868 29.6692C35.6848 27.9315 33.9626 26.8557 32.0765 26.8557H31.6664C29.7803 26.8557 27.9761 27.9315 27.1561 29.6692L26.9101 30.083H26.172V30.9932L25.844 31.2415C23.5478 32.9792 22.2357 35.6272 22.2357 38.4407C22.2357 41.2542 23.5478 43.9023 25.844 45.64L26.172 45.8883V46.7985H26.9101L27.1561 47.2123C28.0582 48.95 29.7803 50.0258 31.6664 50.0258H32.0765C33.9626 50.0258 35.7668 48.95 36.5868 47.2123L36.8329 46.7985H37.6529V45.8883L37.981 45.64C40.2771 43.9023 41.5892 41.2542 41.5892 38.4407C41.5892 35.6272 40.2771 33.062 37.981 31.2415ZM35.1107 46.302H28.5502V44.8953H29.0422V44.1505H29.3703V43.4885H29.9443V39.02H29.1242V36.703H29.9443V36.2892H29.6163V35.71H29.2883V34.4687H29.6163V33.8895H30.0263V33.4757C29.4523 32.8965 28.8782 31.8207 29.4523 31.076C30.0263 30.3312 31.1744 30.8277 31.1744 30.8277C31.1744 30.745 31.1744 30.4967 31.1744 30.414H31.0924L31.1744 30.2485L31.0104 30.3312V29.0072L31.1744 29.09L31.0924 28.9245H32.4045L32.3225 29.09L32.4865 29.0072V30.3312L32.3225 30.2485L32.4045 30.414H32.3225C32.3225 30.4967 32.3225 30.745 32.3225 30.8277C32.3225 30.8277 33.5526 30.3312 34.0446 31.076C34.6187 31.9035 34.0446 32.8965 33.5526 33.4757V33.8895H33.9626V34.4687H34.3727V35.71H34.0446V36.2892H33.7166V36.703H34.5367V39.02H33.7166V43.4885H34.2907V44.1505H34.6187V44.8953H35.1107V46.302Z" fill="#1FC150"/>
<path d="M30.2723 33.062H31.0923C31.0923 32.3172 30.9283 31.407 30.5183 30.9932L30.2723 30.745C30.0262 30.745 29.8622 30.8277 29.6982 31.076C29.2062 31.8207 29.8622 32.731 30.2723 33.062Z" fill="#FFE000"/>
<path d="M33.7162 34.055H29.9439V34.386H33.7162V34.055Z" fill="#FFE000"/>
<path d="M33.9621 34.6342H29.6157V35.2135H33.9621V34.6342Z" fill="#FFE000"/>
<path d="M33.3881 36.1238H30.3539V36.703H33.3881V36.1238Z" fill="#FFE000"/>
<path d="M33.3061 33.3102H30.3539V33.8067H33.3061V33.3102Z" fill="#FFE000"/>
<path d="M33.306 33.0621C33.716 32.6483 34.3721 31.8208 33.88 31.1588C33.716 30.9106 33.552 30.8278 33.306 30.8278L33.0599 31.0761C32.6499 31.4071 32.4859 32.4001 32.4859 33.1448H33.306V33.0621Z" fill="#FFE000"/>
<path d="M31.5846 29.9175H32.0766L31.9946 29.5865L32.2406 29.6693V29.2555L31.9946 29.3383L32.0766 29.0073H31.5846L31.6666 29.3383L31.3385 29.2555V29.6693L31.6666 29.5865L31.5846 29.9175Z" fill="#FFE000"/>
<path d="M31.8302 30.7449C32.0114 30.7449 32.1582 30.5968 32.1582 30.4139C32.1582 30.2311 32.0114 30.0829 31.8302 30.0829C31.649 30.0829 31.5022 30.2311 31.5022 30.4139C31.5022 30.5968 31.649 30.7449 31.8302 30.7449Z" fill="#FFE000"/>
<path d="M31.3381 33.0621H32.2401C32.2401 32.2346 32.4041 31.2416 32.8962 30.8278L32.2401 31.0761L32.1581 30.8278C32.0761 30.9106 31.9941 30.9106 31.8301 30.9106C31.7481 30.9106 31.5841 30.9106 31.5021 30.8278L31.4201 31.0761L30.764 30.8278C31.256 31.2416 31.3381 32.2346 31.3381 33.0621Z" fill="#FFE000"/>
<path d="M33.7162 35.5444H29.9439V35.8754H33.7162V35.5444Z" fill="#FFE000"/>
<path d="M33.8802 43.8196H29.6979V44.2333H33.8802V43.8196Z" fill="#FFE000"/>
<path d="M34.2903 44.3987H29.3699V44.8952H34.2903V44.3987Z" fill="#FFE000"/>
<path d="M34.7823 45.1435H28.8778V45.8882H34.7823V45.1435Z" fill="#FFE000"/>
<path d="M33.3881 43.5713V38.8545H30.3539V43.4885H33.3881V43.5713ZM32.65 39.351H32.8961V42.9093H32.65V39.351ZM31.748 39.351H31.994V42.9093H31.748V39.351ZM30.8459 39.351H31.0919V42.9093H30.8459V39.351Z" fill="#FFE000"/>
<path d="M30.9285 37.8614H31.0112V37.6959L30.9285 37.8614Z" fill="#FFE000"/>
<path d="M29.4518 36.9512V38.6062H34.1262V36.9512H29.4518ZM30.3539 38.1924C30.2719 38.1924 30.1899 38.1924 30.1079 38.1097V37.9442C30.1079 37.9442 30.1079 37.9442 30.1899 37.9442L30.2719 38.0269H30.3539C30.4359 38.0269 30.5179 38.0269 30.5179 37.9442C30.5179 37.8614 30.5179 37.8614 30.3539 37.8614H30.2719C30.3539 37.8614 30.3539 37.8614 30.3539 37.7787C30.3539 37.6959 30.2719 37.6959 30.2719 37.6959H30.1899V37.7787H30.1079V37.6132C30.1899 37.6132 30.2719 37.5304 30.3539 37.5304C30.5179 37.5304 30.5999 37.6132 30.5999 37.6959C30.5999 37.7787 30.5999 37.8614 30.5179 37.8614C30.5999 37.8614 30.5999 37.9442 30.5999 38.0269C30.5999 38.1097 30.4359 38.1924 30.3539 38.1924ZM31.42 38.1097H31.092C31.092 38.1097 31.092 38.1097 31.092 38.0269H31.174L31.092 37.9442H30.846V38.0269H30.928C30.928 38.0269 30.928 38.0269 30.928 38.1097H30.6819C30.6819 38.1097 30.6819 38.1097 30.6819 38.0269H30.7639L31.01 37.4477H31.092L31.42 38.1097ZM32.1581 38.1924H31.912L31.666 37.8614V38.0269H31.748C31.748 38.0269 31.748 38.0269 31.748 38.1097H31.42C31.42 38.1097 31.42 38.1097 31.42 38.0269H31.502V37.5304H31.42C31.42 37.5304 31.42 37.5304 31.42 37.4477H31.748C31.748 37.4477 31.748 37.4477 31.748 37.5304H31.666V37.7787L31.83 37.5304C31.83 37.5304 31.83 37.5304 31.83 37.4477H32.0761C32.0761 37.4477 32.0761 37.4477 32.0761 37.5304H31.994L31.83 37.6959L32.0761 38.0269L32.1581 38.1924C32.1581 38.1097 32.1581 38.1097 32.1581 38.1924ZM32.4861 38.1924C32.2401 38.1924 32.1581 38.0269 32.1581 37.8614C32.1581 37.6132 32.2401 37.5304 32.4861 37.5304C32.7321 37.5304 32.8141 37.6959 32.8141 37.8614C32.8141 38.0269 32.6501 38.1924 32.4861 38.1924ZM33.5522 38.1924H33.2241C33.2241 38.1924 33.2241 38.1924 33.2241 38.1097H33.3062V37.8614H33.0601V38.0269H33.1421C33.1421 38.0269 33.1421 38.0269 33.1421 38.1097H32.8141C32.8141 38.1097 32.8141 38.1097 32.8141 38.0269H32.8961V37.5304H32.8141C32.8141 37.5304 32.8141 37.5304 32.8141 37.4477H33.1421C33.1421 37.4477 33.1421 37.4477 33.1421 37.5304H33.0601V37.6959H33.3062V37.5304H33.2241C33.2241 37.5304 33.2241 37.5304 33.2241 37.4477H33.5522C33.5522 37.4477 33.5522 37.4477 33.5522 37.5304H33.4702V38.0269L33.5522 38.1924C33.5522 38.1097 33.5522 38.1097 33.5522 38.1924Z" fill="#FFE000"/>
<path d="M32.4866 37.5304C32.4046 37.5304 32.3226 37.6131 32.3226 37.7786C32.3226 37.9441 32.4046 38.0269 32.4866 38.0269C32.5687 38.0269 32.6507 37.8614 32.6507 37.7786C32.5687 37.6959 32.5687 37.5304 32.4866 37.5304Z" fill="#FFE000"/>
<path d="M50.2821 61.7762C50.3641 61.7762 50.3641 61.7762 50.2821 61.7762C50.2001 61.528 50.1181 61.4452 49.9541 61.2797C49.9541 61.3625 50.0361 61.528 49.9541 61.6107L50.2821 61.7762Z" fill="#FFEB57"/>
<path d="M27.3201 61.7763C27.3201 62.5211 27.4021 63.2658 27.5661 64.0106C28.1402 63.7623 28.7142 63.5141 29.2063 63.1003C29.2883 62.2728 29.7803 61.5281 30.5184 61.1143C30.6004 60.8661 30.6824 60.5351 30.7644 60.2868L27.3201 61.7763Z" fill="#FFEB57"/>
<path d="M31.7485 59.7903L31.1745 60.0386C31.0925 60.2868 31.0105 60.6178 30.9285 60.8661C31.2565 60.7833 31.5845 60.7006 31.9125 60.7006C32.2406 60.7006 32.5686 60.7833 32.8966 60.8661C32.8146 60.5351 32.7326 60.2041 32.6506 59.8731L31.9125 60.2041L31.7485 59.7903Z" fill="#FFEB57"/>
<path d="M33.3888 61.0315C34.1268 61.4453 34.6189 62.19 34.7009 63.0175C35.1929 63.4313 35.7669 63.7623 36.341 63.9278C36.505 63.1003 36.669 62.3555 36.587 61.6935L33.0607 59.9557C33.1427 60.3695 33.2247 60.7005 33.3888 61.0315Z" fill="#FFEB57"/>
<path d="M30.7646 65.9138C31.0106 66.493 31.4206 67.3205 31.9127 67.7343C32.4047 67.3205 32.8968 66.493 33.1428 65.9138C32.7327 66.3275 31.2566 66.3275 30.7646 65.9138Z" fill="#FFEB57"/>
<path d="M16.5774 64.176L16.9054 65.7482L16.4954 65.169L15.6753 66.5757C15.4293 66.9067 15.5933 67.155 15.9214 66.9895L16.2494 66.9067C16.5774 66.824 17.0695 66.4102 17.2335 65.9965L17.3975 65.7482C18.1355 64.507 16.5774 64.176 16.5774 64.176Z" fill="#FFEB57"/>
<path d="M10.1808 64.7552L10.9188 64.6725L10.2628 62.6865C10.1808 62.3555 9.85276 62.19 9.52473 62.2727L9.27871 62.3555C8.95068 62.4382 8.78667 62.7692 8.86868 63.1002L9.27871 64.4242C9.36072 64.5897 9.77075 64.507 9.85276 64.7552C10.4268 65.831 11.3289 65.831 11.3289 65.831L11.0829 65.0035L10.1808 64.7552Z" fill="#FFEB57"/>
<path d="M15.3475 62.3555L15.0194 61.2797C14.9374 60.9487 14.6094 60.7832 14.2814 60.866L14.0354 60.9487C13.7073 61.0315 13.5433 61.3625 13.6253 61.6935L14.1994 63.514L15.0194 62.7693L14.3634 63.9278L14.4454 64.0933L14.6914 64.9208C14.6914 64.9208 15.4295 63.9278 15.2655 63.1003C15.1014 62.852 15.4295 62.6865 15.3475 62.3555Z" fill="#FFEB57"/>
<path d="M12.6413 61.9418C12.5593 61.6936 12.2313 61.5281 11.9853 61.6108L11.5752 61.7763C11.3292 61.8591 11.1652 62.1901 11.2472 62.4383L11.7392 63.9278L12.8873 64.5071H12.1493C12.3133 65.2518 12.7233 65.5828 13.2154 65.9138C13.2154 65.9138 13.6254 64.9208 13.3794 64.1761L12.6413 61.9418Z" fill="#FFEB57"/>
<path d="M47.084 60.4523L48.068 60.9488C48.2321 60.7005 48.6421 60.3695 49.2161 60.535L49.4622 60.6178C49.4622 60.6178 49.4622 60.6178 49.5442 60.6178C47.74 58.4663 46.5919 56.3975 46.3459 53.7495L43.0656 55.0735C43.2297 55.57 43.4757 56.0665 43.7217 56.563L44.6238 55.4873L44.8698 55.7355L43.8857 56.894C44.0497 57.1423 44.2137 57.3905 44.3778 57.6388L45.1158 56.7285L45.3618 56.9768L44.5418 57.9698C44.7058 58.218 44.8698 58.4663 45.1158 58.6318L45.8539 57.8043L46.0999 58.0525L45.3618 58.9628C45.7719 59.542 46.3459 60.0385 47.084 60.4523Z" fill="#FFEB57"/>
<path d="M14.5273 60.5349C14.7733 60.5349 15.0193 60.7004 15.1833 60.8659L17.4795 59.9557C17.8895 59.7074 18.2175 59.3764 18.5456 59.0454L17.7255 58.0524L17.9715 57.8042L18.7916 58.7972C18.9556 58.5489 19.1196 58.3834 19.3656 58.1352L18.2996 57.0594L18.5456 56.8112L19.3656 57.8869C19.5297 57.6387 19.6937 57.3904 19.8577 57.1422L18.7916 55.8182L19.0376 55.5699L20.0217 56.7284C20.5137 55.7354 20.8418 54.8252 20.9238 53.9977L17.5615 52.4254C17.5615 55.5699 16.4954 58.1352 14.5273 60.5349Z" fill="#FFEB57"/>
<path d="M3.12814 16.4291V15.5189L3.70219 16.2636C4.19422 16.9256 4.68626 17.5049 5.1783 18.0014C4.85028 17.2566 4.60426 16.3464 4.52225 15.3534C3.04613 13.2019 1.81603 11.1331 1.406 9.56085C0.503929 13.8639 1.65202 16.7601 3.53817 19.0771C3.29215 18.2496 3.12814 17.4221 3.12814 16.4291Z" fill="#FFEB57"/>
<path d="M11.001 31.5725C10.9189 31.4897 10.9189 31.407 10.8369 31.3242L10.3449 30.5795L11.165 30.8277C11.739 30.9932 12.3951 31.076 13.1331 31.076C11.821 30.745 10.5089 30.083 9.60684 28.5935C7.31066 27.5177 5.01447 25.78 3.53836 23.7112C2.96431 23.2974 2.39026 22.8837 1.89822 22.3044C2.8823 26.6075 7.06464 30.3312 11.001 31.5725Z" fill="#FFEB57"/>
<path d="M12.2312 28.097C10.8371 27.5178 9.85305 26.5248 9.27901 25.5318C7.55687 24.6215 5.58871 23.132 4.35861 20.9805C3.62055 20.4012 2.9645 19.7392 2.22644 18.9117C2.39045 23.132 5.83473 26.3593 9.36101 28.097C9.27901 28.0143 9.27901 27.9315 9.197 27.766L8.86897 27.0213L9.60703 27.3523C10.5091 27.766 11.4112 27.9315 12.2312 28.097Z" fill="#FFEB57"/>
<path d="M9.52509 22.3045C9.44309 22.0563 9.44309 21.808 9.36108 21.5598L9.27907 20.815L9.85312 21.2288C10.5092 21.7253 11.1652 22.0563 11.8213 22.3873C11.2472 21.8908 10.7552 21.0633 10.6732 19.9048C7.80296 18.498 6.49085 16.7603 4.68671 14.6088C4.93273 18.4153 7.0649 20.5668 9.52509 22.3045Z" fill="#FFEB57"/>
<path d="M15.5933 37.7787C15.9213 37.2822 16.3313 36.8685 16.8234 36.6202C16.0853 36.703 15.3472 36.703 14.6092 36.703C12.231 36.703 10.0988 36.2065 8.29467 35.2962C7.72062 35.4617 7.22858 35.6272 6.73654 35.9582C8.37667 37.7787 11.7389 38.5235 15.5933 37.7787Z" fill="#FFEB57"/>
<path d="M18.1355 38.6063C17.9715 38.6063 17.7255 38.6063 17.4795 38.6063C16.9054 38.6063 16.3314 38.5236 15.6754 38.4408L15.1833 38.3581L15.3473 38.1098C14.4453 38.2753 13.5432 38.3581 12.6411 38.3581C11.821 38.3581 11.083 38.2753 10.3449 38.1926C9.19683 38.5236 8.37676 38.9373 8.04874 39.6821C11.739 40.7578 14.8553 40.1786 18.1355 38.6063Z" fill="#FFEB57"/>
<path d="M17.6433 36.1236H17.5613C16.5772 36.1236 15.3471 35.9581 13.871 35.6271L13.3789 35.5444L13.6249 35.1306C13.707 34.9651 13.871 34.7996 13.953 34.6341C10.3447 34.4686 7.39245 33.1446 5.09626 30.6621C4.68623 30.7449 4.3582 30.9104 4.11218 30.9104C7.22843 35.8754 12.3128 36.8684 17.6433 36.1236Z" fill="#FFEB57"/>
<path d="M14.2812 34.3032C14.4452 34.1377 14.6092 33.9722 14.7732 33.8895C13.2971 33.5585 12.149 32.8965 11.411 31.9862C9.77084 31.5725 7.9667 30.6622 6.40857 29.3382C5.26048 28.428 4.35841 27.435 3.53834 26.3592C3.12831 26.2765 2.71828 26.1937 2.47226 26.1937C4.93246 31.2415 8.70476 34.1377 14.2812 34.3032Z" fill="#FFEB57"/>
<path d="M12.723 22.5528C16.0032 24.0423 19.1195 24.787 19.5295 28.3453C18.1354 23.7113 14.0351 24.456 9.68874 21.477C9.85275 23.2148 11.0828 24.3733 12.969 25.118C15.3472 25.9455 17.7254 26.6903 18.6275 29.09C16.0853 25.3663 12.1489 26.442 9.03268 24.0423C9.44272 25.5318 10.8368 27.6833 13.7071 28.097C15.7572 28.5935 16.8233 28.9245 17.8894 30.4968C15.6752 28.1798 12.395 28.8418 9.44272 27.6005C11.2469 31.8208 15.5112 30.4968 17.9714 32.2345C15.8392 31.2415 12.887 31.738 11.0828 31.1588C11.9849 32.5655 13.461 33.3103 15.1012 33.6413C16.0032 33.062 16.9873 33.062 18.0534 32.9793C18.4634 32.9793 18.9555 32.8965 19.3655 32.8965C18.1354 31.5725 18.3814 29.2555 20.5136 29.3383C20.7596 21.7253 13.7891 22.2218 11.0828 18.9117C10.8368 20.9805 11.8209 22.0563 12.723 22.5528Z" fill="#FFEB57"/>
<path d="M25.188 16.0154C26.0081 16.3464 27.7302 16.5119 28.7143 14.4431C27.9762 14.8569 26.9921 14.8569 26.1721 14.7741C25.024 14.6914 23.8759 14.4431 22.6458 14.5259C22.3178 14.5259 21.7437 14.8569 21.6617 15.2706C23.7939 14.8569 24.3679 15.6844 25.188 16.0154Z" fill="#FFEB57"/>
<path d="M30.0264 20.7322C30.0264 21.3942 30.0264 22.0562 29.6983 22.5527L29.2883 23.2147L29.1243 22.47C29.0423 22.2217 28.9603 21.9735 28.8783 21.7252C28.7143 22.2217 28.5502 22.7182 28.2222 23.132L27.7302 23.8767L27.6482 22.9665C27.6482 22.801 27.6482 22.7182 27.5662 22.5527C27.4842 22.8837 27.3201 23.2147 27.0741 23.5457L26.9921 23.7112C26.9101 24.2905 26.8281 24.8697 26.7461 25.2007C27.4842 25.0352 28.3862 24.0422 28.7142 23.2147C28.8783 23.7112 29.2063 24.3732 29.5343 24.6215C30.1084 23.9595 30.2724 23.132 30.4364 22.139C30.7644 22.6355 31.1744 22.801 31.9125 22.8837C32.6506 22.801 33.0606 22.5527 33.3886 22.139C33.4706 23.132 33.7167 23.9595 34.2907 24.6215C34.5367 24.3732 34.9468 23.7112 35.1108 23.2147C35.4388 23.9595 36.3409 25.0352 37.0789 25.2007C36.9969 24.8697 36.9149 24.2905 36.8329 23.7112L36.7509 23.6285C36.5049 23.2975 36.3409 22.9665 36.2589 22.6355C36.2589 22.7182 36.2589 22.8837 36.1768 23.0492L36.0128 23.8767L35.5208 23.132C35.1928 22.7182 35.0288 22.2217 34.8647 21.7252C34.7827 21.9735 34.7007 22.2217 34.6187 22.47L34.4547 23.2147L34.0447 22.5527C33.7167 22.0562 33.7167 21.3942 33.7167 20.7322C33.3066 21.146 32.8146 21.477 32.4045 21.7252C32.3225 22.139 32.0765 22.5527 31.8305 22.8837C31.5845 22.5527 31.4205 22.0562 31.2565 21.7252C30.9284 21.477 30.4364 21.146 30.0264 20.7322Z" fill="#FFEB57"/>
<path d="M27.566 16.2637C26.1719 17.0084 25.0238 16.4292 24.3677 15.9327C23.5477 15.3534 22.7276 15.3534 21.9075 15.5189C23.4657 16.5119 22.8916 18.3324 23.9577 18.8289C24.4497 19.1599 25.5978 19.9047 26.0899 21.2287C26.3359 20.8149 26.5819 19.3254 25.2698 17.6704C25.5978 17.8359 26.0079 18.3324 26.0079 18.3324C26.8279 18.8289 27.484 19.4082 27.894 20.0702C28.058 19.0772 27.566 18.1669 26.7459 17.1739C28.058 18.7462 29.5341 18.8289 30.5182 18.4979C29.3701 18.4152 28.14 17.2567 27.566 16.2637ZM22.6456 15.7672C22.8916 15.7672 23.3837 15.6844 24.1217 16.0982C23.8757 16.3464 23.3016 16.7602 22.6456 15.7672Z" fill="#FFEB57"/>
<path d="M27.9761 18.7462C28.1402 19.16 28.2222 19.6565 28.1402 20.2357L27.9761 21.146L27.4841 20.4012C27.1561 19.9047 26.746 19.491 26.254 19.16C26.582 20.153 26.5 20.8977 26.336 21.3942C26.582 22.0562 26.746 22.801 26.746 23.463C27.2381 22.7182 27.4021 21.9735 27.4021 21.146C27.6481 21.7252 27.8121 22.3045 27.8941 22.9665C28.3862 22.2217 28.6322 21.477 28.7142 20.6495C29.0422 21.2287 29.2882 21.808 29.3703 22.3872C29.7803 21.808 29.6163 20.7322 29.5343 19.822C30.1083 20.484 31.0104 21.3115 31.5844 21.5597C31.2564 20.6495 30.6003 19.822 29.9443 19.16C29.8623 19.0772 28.7142 19.2427 27.9761 18.7462Z" fill="#FFEB57"/>
<path d="M25.3522 27.1039C23.302 28.1797 23.384 30.2484 22.3179 30.6622C22.564 30.7449 22.728 30.8277 22.974 30.8277C23.22 30.5794 23.384 30.2484 23.548 29.9174C24.2041 28.9244 24.9421 27.6832 26.9103 27.1867C26.9103 27.1039 26.8283 27.0212 26.8283 26.9384C26.5003 27.0212 26.2542 27.1039 26.0082 27.1039C25.9262 27.1039 25.8442 27.1039 25.7622 27.1039H25.3522Z" fill="#FFEB57"/>
<path d="M12.9692 25.5317C11.3291 24.8697 10.263 23.9594 9.77096 22.8009C8.13083 21.8079 6.73671 20.5667 5.67063 18.9944C4.85056 18.2497 4.19451 17.4222 3.45645 16.5119C3.45645 20.7322 6.16267 23.4629 9.0329 25.0352C8.95089 24.7869 8.78688 24.4559 8.70487 24.2077L8.45885 23.2147L9.19691 23.7939C10.427 24.7042 11.6571 25.1179 12.9692 25.5317Z" fill="#FFEB57"/>
<path d="M1.89818 18.9944V18.0014L2.55423 18.7461C3.12828 19.4909 3.70233 19.9874 4.27637 20.4839L3.29229 19.2426C2.22621 17.9186 1.48815 16.4291 1.07812 14.9396C0.914102 14.6086 0.750089 14.2776 0.586076 13.9466C-0.315997 18.3324 1.24213 20.4839 3.04627 22.6354C2.39022 21.5596 1.98019 20.3184 1.89818 18.9944Z" fill="#FFEB57"/>
<path d="M17.3154 44.647C16.9054 44.8953 16.4953 45.0608 16.0033 45.2263L17.0694 45.7228C17.0694 45.4745 17.2334 45.0608 17.3154 44.647Z" fill="#FFEB57"/>
<path d="M19.2019 47.0468L19.53 47.2123L19.776 47.0468L20.35 47.295C20.35 46.8813 20.35 46.302 20.35 45.8055C20.022 46.2193 19.612 46.7158 19.2019 47.0468Z" fill="#FFEB57"/>
<path d="M22.0717 48.1225L22.4817 48.288L22.7277 48.7018L23.3838 49.0328C23.2197 48.3708 23.1377 47.5433 23.1377 46.7985C22.8097 47.295 22.4817 47.7088 22.0717 48.1225Z" fill="#FFEB57"/>
<path d="M10.4268 42.6609L11.5749 43.2402C14.1171 43.1574 16.1673 42.0817 18.2174 40.7577V40.6749C18.2174 39.9302 18.7095 39.0199 19.1195 38.4407C16.9873 39.5992 15.1012 40.2612 13.215 40.5094C11.9029 41.1714 10.8369 41.8334 10.4268 42.6609Z" fill="#FFEB57"/>
<path d="M60.041 16.2636L60.615 15.5189V16.4291C60.615 17.4221 60.451 18.2496 60.205 19.0771C62.0911 16.7601 63.2392 13.8639 62.3372 9.56085C61.9271 11.1331 60.697 13.2019 59.2209 15.3534C59.1389 16.3464 58.8929 17.1739 58.5648 18.0014C59.0569 17.4221 59.5489 16.8429 60.041 16.2636Z" fill="#FFEB57"/>
<path d="M54.0544 28.6762C53.1523 30.1657 51.8402 30.745 50.5281 31.1587C51.2662 31.076 52.0042 31.076 52.4963 30.9105L53.3163 30.6622L52.8243 31.407C52.7423 31.4897 52.7423 31.5725 52.6603 31.6552C56.5966 30.414 60.7789 26.6902 61.681 22.47C61.107 22.9665 60.5329 23.463 60.0409 23.8767C58.6468 25.9455 56.3506 27.6005 54.0544 28.6762Z" fill="#FFEB57"/>
<path d="M54.3823 28.1797C57.9086 26.3591 61.3528 23.1319 61.5169 18.9944C60.8608 19.8219 60.1227 20.4839 59.3847 21.0631C58.1546 23.2146 56.1044 24.6214 54.4643 25.6144C53.8902 26.6902 52.9062 27.6004 51.5121 28.1797C52.4141 28.0142 53.2342 27.8487 54.1363 27.5177L54.8743 27.1867L54.5463 27.9314C54.4643 27.9314 54.4643 28.0969 54.3823 28.1797Z" fill="#FFEB57"/>
<path d="M51.8403 22.3872C52.4963 22.0562 53.1524 21.7252 53.8084 21.2287L54.3825 20.8149L54.3005 21.5597C54.3005 21.8079 54.2185 22.0562 54.1365 22.3044C56.6787 20.6494 58.7288 18.4152 58.8928 14.6914C57.1707 16.8429 55.8586 18.5807 52.9064 19.9874C52.9064 21.0632 52.4143 21.8907 51.8403 22.3872Z" fill="#FFEB57"/>
<path d="M49.1339 36.7031C48.4779 36.7031 47.7398 36.7031 46.9198 36.6203C47.3298 36.8686 47.7398 37.2823 48.1499 37.7788C52.0042 38.5236 55.3664 37.8616 57.0066 36.0411C56.5145 35.7101 56.0225 35.4618 55.4485 35.3791C53.6443 36.2066 51.5121 36.7031 49.1339 36.7031Z" fill="#FFEB57"/>
<path d="M53.3982 38.1926C52.6601 38.3581 51.9221 38.3581 51.102 38.3581C50.1999 38.3581 49.2979 38.2753 48.3958 38.1098L48.5598 38.3581L48.0678 38.4408C47.4117 38.6063 46.8377 38.6063 46.2636 38.6063C46.0176 38.6063 45.8536 38.6063 45.6076 38.6063C48.8058 40.1786 52.0041 40.7578 55.6124 39.6821C55.3664 38.9373 54.5463 38.5236 53.3982 38.1926Z" fill="#FFEB57"/>
<path d="M49.79 34.6342C49.872 34.7997 50.036 34.9652 50.118 35.1307L50.364 35.5444L49.872 35.6272C48.3959 35.9582 47.1658 36.1237 46.1817 36.1237H46.0997C51.3481 36.8684 56.5145 35.8754 59.6308 30.9932C59.3847 30.9104 58.9747 30.8277 58.6467 30.7449C56.2685 33.1447 53.3163 34.4687 49.79 34.6342Z" fill="#FFEB57"/>
<path d="M57.4167 29.4209C55.8586 30.6622 54.0544 31.5725 52.4143 32.069C51.5942 32.9792 50.4461 33.6412 49.052 33.9722C49.216 34.1377 49.3801 34.2205 49.5441 34.386C55.1205 34.1377 58.8928 31.2415 61.435 26.3592C61.189 26.3592 60.779 26.4419 60.3689 26.5247C59.4669 27.5177 58.5648 28.5107 57.4167 29.4209Z" fill="#FFEB57"/>
<path d="M44.2956 32.8964C44.7876 32.9792 45.1976 32.9792 45.6077 32.9792C46.6738 33.0619 47.6578 33.0619 48.5599 33.6412C50.2 33.3102 51.6762 32.5654 52.5782 31.1587C50.7741 31.7379 47.9039 31.2414 45.6897 32.2344C48.1499 30.4967 52.4142 31.8207 54.1364 27.7659C51.1841 29.0072 47.9039 28.3452 45.6897 30.6622C46.7558 29.0899 47.8218 28.7589 49.872 28.2624C52.8242 27.7659 54.1364 25.6972 54.5464 24.2077C51.4301 26.6074 47.4938 25.5317 44.9516 29.2554C45.9357 26.7729 48.2319 26.0282 50.6101 25.2834C52.4962 24.5387 53.7263 23.3802 53.8903 21.6424C49.544 24.6214 45.4437 23.8767 44.0495 28.5107C44.4596 24.9524 47.6578 24.1249 50.8561 22.7182C51.7582 22.1389 52.6602 21.0632 52.4962 19.0771C49.79 22.3044 42.8194 21.8907 43.0655 29.5037C45.3616 29.2554 45.6077 31.5724 44.2956 32.8964Z" fill="#FFEB57"/>
<path d="M38.5549 16.0154C39.375 15.6016 39.9491 14.8569 42.0812 15.2706C41.9992 14.8569 41.5072 14.5259 41.0971 14.5259C39.867 14.4431 38.719 14.6914 37.5709 14.7741C36.7508 14.8569 35.7667 14.8569 35.0287 14.4431C36.0127 16.5119 37.7349 16.3464 38.5549 16.0154Z" fill="#FFEB57"/>
<path d="M34.1268 19.822C34.0448 20.7322 33.8808 21.808 34.2908 22.3872C34.4548 21.808 34.7008 21.146 34.9468 20.6495C35.0288 21.477 35.2749 22.2217 35.7669 22.9665C35.8489 22.3045 36.0129 21.7252 36.2589 21.146C36.2589 21.9735 36.423 22.801 36.915 23.463C36.915 22.7182 36.997 22.0562 37.325 21.3942C37.161 20.8977 37.079 20.153 37.407 19.16C36.915 19.491 36.505 19.9875 36.1769 20.4012L35.6849 21.146L35.5209 20.2357C35.4389 19.7392 35.5209 19.2427 35.6849 18.7462C34.9468 19.16 33.7987 19.0772 33.6347 19.0772C32.9787 19.7392 32.4046 20.5667 31.9946 21.477C32.7327 21.2287 33.5527 20.484 34.1268 19.822Z" fill="#FFEB57"/>
<path d="M38.3912 27.104L38.0632 27.1867C37.9812 27.1867 37.8992 27.1867 37.8172 27.1867C37.5712 27.1867 37.2431 27.104 36.9971 27.0212C36.9971 27.104 36.9151 27.1867 36.9151 27.2695C38.8833 27.6832 39.6213 28.9245 40.2774 30.0002C40.4414 30.3312 40.6874 30.6622 40.8514 30.9105C41.0974 30.9105 41.2615 30.8277 41.5075 30.745C40.3594 30.2485 40.4414 28.1797 38.3912 27.104Z" fill="#FFEB57"/>
<path d="M54.7104 25.0352C57.5806 23.3802 60.2868 20.6494 60.2868 16.5119C59.5488 17.5049 58.8107 18.2497 58.0727 18.9944C57.0886 20.6494 55.6125 21.8907 54.0543 22.8837C53.5623 24.0422 52.4962 24.8697 50.9381 25.5317H50.8561C52.0862 25.2007 53.3983 24.7869 54.5464 23.8767L55.2844 23.2974L55.0384 24.2904C54.9564 24.4559 54.7924 24.7042 54.7104 25.0352Z" fill="#FFEB57"/>
<path d="M59.4669 20.4839C60.0409 19.9874 60.6149 19.4082 61.189 18.7462L61.845 18.0014V18.9944C61.763 20.3184 61.435 21.6424 60.779 22.801C62.5831 20.5667 64.1412 18.4979 63.2392 14.1122C63.0751 14.4432 62.9111 14.7742 62.7471 15.1052C62.3371 16.6774 61.599 18.0842 60.5329 19.4082L59.4669 20.4839Z" fill="#FFEB57"/>
<path d="M52.9063 42.1644C52.4143 41.5852 51.5122 41.0887 50.5281 40.5094C48.6419 40.2612 46.7558 39.5992 44.6236 38.4407C45.1157 39.0199 45.5257 39.9302 45.5257 40.6749V40.7577C47.3298 41.9162 49.134 42.8264 51.2662 43.0747C51.7582 42.7437 52.3322 42.4127 52.9063 42.1644Z" fill="#FFEB57"/>
<path d="M47.412 45.1435C47.084 44.978 46.7559 44.8125 46.4279 44.647C46.5099 44.978 46.5099 45.309 46.5919 45.5573C46.92 45.4745 47.166 45.309 47.412 45.1435Z" fill="#FFEB57"/>
<path d="M44.3777 46.8812C44.0497 46.5502 43.7216 46.2192 43.3936 45.8882C43.4756 46.4674 43.4756 46.9639 43.3936 47.3777C43.7216 47.2122 44.0497 47.0467 44.3777 46.8812Z" fill="#FFEB57"/>
<path d="M40.2772 49.0328C40.7692 48.7845 41.2612 48.4535 41.8353 48.2053C41.4253 47.7088 41.0152 47.295 40.6872 46.7985C40.6052 47.7088 40.5232 48.4535 40.2772 49.0328Z" fill="#FFEB57"/>
<path d="M49.7078 43.9023C49.4617 43.5713 49.2157 43.2403 48.8877 42.9093C47.5756 42.4956 46.4275 41.7508 45.1974 41.0061H45.1154C44.9514 41.0061 44.8694 41.0061 44.7054 41.0061C43.9673 41.0061 43.1472 40.7578 42.4912 40.3441C42.4912 40.5096 42.4092 40.5923 42.4092 40.7578C43.9673 42.5783 45.6074 44.1506 47.8216 44.9781C48.4777 44.5643 49.1337 44.2333 49.7078 43.9023Z" fill="#FFEB57"/>
<path d="M46.2637 45.8055C46.2637 45.3917 46.1817 44.978 46.0177 44.4815C44.6236 43.654 43.3935 42.4955 42.3274 41.1714C42.1634 41.6679 41.9994 42.1644 41.8354 42.661C42.4914 44.2332 43.3935 45.5572 44.7056 46.7157C45.1977 46.3847 45.7717 46.1365 46.2637 45.8055Z" fill="#FFEB57"/>
<path d="M42.9835 45.3918C42.4095 44.647 41.9994 43.8195 41.6714 42.992C41.2614 43.8195 40.7693 44.5643 40.1133 45.2263C40.6053 46.2193 41.2614 47.1295 42.0814 48.0398C42.4095 47.8743 42.7375 47.7088 43.0655 47.5433C43.1475 46.964 43.0655 46.2193 42.9835 45.3918Z" fill="#FFEB57"/>
<path d="M40.2774 46.302C40.1134 46.0538 39.9494 45.8055 39.8674 45.5573C39.5394 45.8883 39.2114 46.2193 38.8013 46.4675V47.7088V47.957C39.1294 48.3708 39.4574 48.7845 39.7854 49.1983C40.1954 48.5363 40.3595 47.5433 40.2774 46.302Z" fill="#FFEB57"/>
<path d="M37.5713 48.0398C37.3252 48.3708 37.1612 48.7845 36.8332 49.0328C37.0792 49.4465 37.4072 49.943 37.7353 50.3568C37.9813 50.1913 38.2273 50.1085 38.4733 49.943C38.6373 49.5293 38.8013 49.1155 38.8834 48.5363C38.7193 48.3708 38.5553 48.1225 38.4733 47.957H37.5713V48.0398Z" fill="#FFEB57"/>
<path d="M36.5869 49.281C36.0949 49.7775 35.5208 50.274 34.8648 50.605C35.1928 50.8533 35.5208 51.1015 35.8489 51.3498C36.2589 51.1015 36.7509 50.936 37.161 50.6878C37.161 50.4395 37.079 50.274 36.9969 50.0258C36.8329 49.7775 36.7509 49.5293 36.5869 49.281Z" fill="#FFEB57"/>
<path d="M35.3569 51.598C35.3569 51.5153 35.3569 51.4325 35.3569 51.4325C35.1108 51.267 34.7828 51.0188 34.5368 50.7705C33.9627 51.0188 33.3067 51.1843 32.5686 51.267C32.8147 51.7635 33.0607 52.1773 33.3887 52.591C34.0448 52.26 34.7008 51.929 35.3569 51.598Z" fill="#FFEB57"/>
<path d="M32.2404 51.267C32.1584 51.267 32.0764 51.267 32.0764 51.267H31.6663C31.5843 51.267 31.5023 51.267 31.5023 51.267C31.3383 51.6807 31.0103 52.0945 30.8463 52.5082L31.7484 52.922C31.8304 52.7565 31.9124 52.5082 31.9124 52.3427C31.9944 52.6737 32.0764 52.922 32.1584 53.253C32.4864 53.0875 32.8144 52.922 33.1425 52.7565C32.8144 52.26 32.4864 51.7635 32.2404 51.267Z" fill="#FFEB57"/>
<path d="M28.3865 51.5153L28.9606 51.7635L29.1246 51.6808L30.4367 52.3428C30.6827 52.0118 30.9287 51.598 31.0927 51.267C30.4367 51.1843 29.7806 51.0188 29.1246 50.7705C28.9605 50.936 28.6325 51.3498 28.3865 51.5153Z" fill="#FFEB57"/>
<path d="M28.8784 50.605C28.2223 50.274 27.6483 49.8603 27.1563 49.281C26.9922 49.5293 26.9102 49.7775 26.7462 49.943C26.7462 50.1085 26.5822 50.4395 26.5822 50.5223L28.1403 51.267C28.3044 51.1843 28.6324 50.7705 28.8784 50.605Z" fill="#FFEB57"/>
<path d="M26.1721 48.0397H25.3521C25.1881 48.2052 25.1061 48.4534 24.942 48.6189C24.942 49.0327 25.0241 49.6119 25.1061 49.8602L26.1721 50.3567C26.4182 50.0257 26.8282 49.3637 26.9922 49.0327C26.6642 48.7017 26.4182 48.3707 26.1721 48.0397Z" fill="#FFEB57"/>
<path d="M25.0242 47.7087V46.4674C24.6142 46.1364 24.2862 45.8054 23.9581 45.4744C23.7941 45.7227 23.6301 46.0537 23.4661 46.3019C23.3841 47.4604 23.4661 48.6189 23.7941 49.2809L23.9581 49.3637C24.2862 48.9499 24.6962 48.2879 24.9422 47.8742V47.7087H25.0242Z" fill="#FFEB57"/>
<path d="M22.1538 42.9092C21.7437 43.7367 21.3337 44.5642 20.7597 45.3917C20.6776 46.2192 20.5956 46.9639 20.6776 47.5432L21.7437 48.0397C22.5638 47.1294 23.2198 46.2192 23.7119 45.2262C23.0558 44.4814 22.5638 43.7367 22.1538 42.9092Z" fill="#FFEB57"/>
<path d="M21.4156 41.0887C20.2675 42.4127 19.0374 43.6539 17.6433 44.4814C17.4793 45.0607 17.3152 45.7227 17.3152 46.2192L18.9554 46.9639C20.3495 45.8054 21.3336 44.0677 21.9896 42.4954C21.7436 42.0817 21.5796 41.5852 21.4156 41.0887Z" fill="#FFEB57"/>
<path d="M21.334 40.6751C21.334 40.5923 21.252 40.4268 21.252 40.3441C20.5139 40.7578 19.7758 41.0888 18.9558 41.0888C18.7918 41.0888 18.7098 41.0888 18.5457 41.0888H18.4637C17.3156 41.8336 16.0855 42.4956 14.7734 42.9921C14.3634 43.4886 13.7894 44.0678 13.4613 44.4816L15.1015 45.3091C17.7257 44.3988 19.6938 42.6611 21.334 40.6751Z" fill="#FFEB57"/>
<path d="M49.7903 35.379C47.6581 32.0689 44.9519 34.386 41.6716 32.3172C41.4256 32.4827 41.0976 32.4827 40.6876 32.5655C41.5896 33.8067 42.1637 35.2135 42.4097 36.6202C43.4758 38.2752 45.69 38.5235 47.8221 38.1097C47.0841 36.8685 46.1 36.4547 44.9519 36.2065C43.6398 35.7927 42.5737 35.2962 42.2457 33.8895C43.3938 36.2892 46.8381 35.9582 49.7903 35.379Z" fill="#FFEB57"/>
<path d="M45.1153 40.675C45.1153 39.8475 44.4593 38.689 43.9672 38.358C43.3112 38.1097 42.9012 37.7787 42.5731 37.2822C42.6551 37.696 42.6551 38.1097 42.6551 38.4407C42.6551 38.9372 42.5731 39.5165 42.4911 40.013C43.3932 40.5095 44.2953 40.7577 45.1153 40.675Z" fill="#FFEB57"/>
<path d="M19.6933 38.358C19.2013 38.7718 18.6273 39.8475 18.5453 40.675C19.4473 40.7578 20.2674 40.5095 21.1695 39.9303C21.0875 39.4338 21.0875 38.9373 21.0875 38.4408C21.0875 38.027 21.0875 37.5305 21.1695 37.1168C20.8414 37.696 20.4314 38.027 19.6933 38.358Z" fill="#FFEB57"/>
<path d="M18.6278 36.2065C17.4797 36.4547 16.4957 36.9512 15.7576 38.1097C17.9718 38.5235 20.268 38.2752 21.3341 36.4547C21.5801 35.048 22.2361 33.724 23.0562 32.5655C22.6462 32.5655 22.3181 32.4827 22.0721 32.3172C18.8739 34.386 16.0856 32.0689 13.9535 35.379C16.9057 36.041 20.35 36.372 21.4161 33.8895C21.006 35.2962 19.9399 35.7927 18.6278 36.2065Z" fill="#FFEB57"/>
<path d="M38.8011 30.414C39.4571 30.9105 40.0312 31.5725 40.5232 32.1517C41.0152 32.1517 41.4253 32.069 41.8353 31.8207C39.6211 31.407 40.0312 28.1797 36.6689 27.5177L36.5869 27.6005C36.9149 27.9315 37.2429 28.3452 37.489 28.8417H38.473H38.8011V29.1727V30.414Z" fill="#FFEB57"/>
<path d="M23.3017 32.2345C23.7937 31.5725 24.3678 30.9933 25.0238 30.4968V29.2555V28.9245H25.3519H26.1719C26.418 28.428 26.746 28.0143 27.074 27.6833L26.992 27.6005C23.6297 28.3453 24.0398 31.4898 21.8256 31.9035C22.3176 32.1518 22.7277 32.2345 23.3017 32.2345Z" fill="#FFEB57"/>
<path d="M27.156 26.8557C27.238 27.0212 27.32 27.1867 27.4021 27.3522C27.7301 27.0212 28.0581 26.7729 28.4681 26.5247C28.3861 26.3592 28.3861 26.1109 28.3861 25.8627C27.9761 26.3592 27.5661 26.6902 27.156 26.8557Z" fill="#FFEB57"/>
<path d="M35.4389 25.9454C35.4389 26.1937 35.3569 26.4419 35.3569 26.6074C35.7669 26.8557 36.0949 27.1039 36.423 27.4349C36.505 27.2694 36.587 27.1039 36.669 26.9384C36.1769 26.6902 35.7669 26.3592 35.4389 25.9454Z" fill="#FFEB57"/>
<path d="M30.7646 25.6971C30.8466 25.6971 31.0106 25.6971 31.0926 25.6971C31.0926 25.6144 31.0106 25.4489 31.0106 25.3661C30.9286 25.4489 30.8466 25.6144 30.7646 25.6971Z" fill="#FFEB57"/>
<path d="M32.9788 25.6972C32.8968 25.6144 32.8148 25.4489 32.7328 25.2834C32.7328 25.4489 32.6508 25.5317 32.6508 25.6144C32.7328 25.6972 32.8968 25.6972 32.9788 25.6972Z" fill="#FFEB57"/>
<path d="M36.9148 25.5317C36.2587 25.3662 35.5207 24.7042 35.1107 24.0422C34.9466 24.3732 34.7006 24.7042 34.4546 24.9524L34.2086 25.2007L33.9626 24.9524C33.4705 24.3732 33.2245 23.6284 33.0605 22.8837C32.7325 23.5457 30.8463 23.5457 30.6003 22.8837C30.5183 23.5457 30.2723 24.2904 29.6982 24.9524L29.4522 25.2007L29.2062 24.9524C28.9602 24.7869 28.7961 24.4559 28.5501 24.0422C28.0581 24.7042 27.32 25.4489 26.746 25.5317L26.5 25.6144C26.3359 26.0282 26.0899 26.4419 25.7619 26.8557C26.664 27.0212 27.9761 26.1937 28.6321 24.9524C28.6321 25.6144 28.6321 26.0282 28.7141 26.4419C29.2062 26.1937 29.6982 25.9454 30.2723 25.8627C30.6003 25.4489 30.9283 24.8697 31.0103 24.1249C31.1743 24.9524 31.2563 25.3662 31.4204 25.6972C31.5024 25.6972 32.1584 25.6972 32.2404 25.6972C32.4044 25.3662 32.4864 24.8697 32.6505 24.1249C32.7325 24.8697 33.0605 25.4489 33.3885 25.8627C33.9626 26.0282 34.4546 26.1937 34.9466 26.4419C35.0286 26.1109 35.0286 25.6972 35.0286 24.9524C35.7667 26.1937 36.9968 27.0212 37.8989 26.8557C37.5708 26.4419 37.3248 26.0282 37.1608 25.6144L36.9148 25.5317Z" fill="#FFEB57"/>
<path d="M37.325 47.7087H38.473V46.302C40.8512 44.4815 42.4094 41.668 42.4094 38.4407C42.4094 35.2962 40.8512 32.3999 38.473 30.5794V29.1727H37.325C36.3409 27.2694 34.3727 25.9454 32.0765 25.9454H31.6665C29.3703 25.9454 27.4022 27.2694 26.4181 29.1727H25.352V30.5794C22.9738 32.3999 21.4157 35.2135 21.4157 38.4407C21.4157 41.5852 22.9738 44.4815 25.352 46.302V47.7087H26.4181C27.4022 49.612 29.3703 50.936 31.6665 50.936H32.0765C34.3727 50.936 36.3409 49.612 37.325 47.7087ZM32.0765 50.4395H31.6665C29.6163 50.4395 27.8122 49.281 26.8281 47.4605L26.6641 47.2122H25.762V46.1365L25.598 45.971C23.2198 44.1505 21.9077 41.4197 21.9077 38.5235C21.9077 35.6272 23.3018 32.8964 25.598 31.0759L25.762 30.9104V29.7519H26.6641L26.8281 29.5037C27.8122 27.6832 29.6163 26.5247 31.6665 26.5247H32.0765C34.1267 26.5247 35.9308 27.6832 36.9149 29.5037L37.0789 29.7519H37.981V30.8277L38.145 30.9932C40.5232 32.8137 41.8353 35.5445 41.8353 38.4407C41.8353 41.337 40.4412 44.0677 38.145 45.8882L37.981 46.0537V47.1295H37.0789L36.9149 47.3777C35.9308 49.281 34.1267 50.4395 32.0765 50.4395Z" fill="#FFEB57"/>
<path d="M37.0793 17.3395C36.2592 18.3325 35.7672 19.2428 35.9312 20.2358C36.3412 19.5738 36.9153 18.9945 37.8173 18.498C37.8173 18.498 38.2274 17.9188 38.5554 17.836C37.2433 19.491 37.4893 20.8978 37.7353 21.3943C38.2274 19.9875 39.3755 19.2428 39.8675 18.9945C40.9336 18.498 40.3595 16.5948 41.9177 15.6845C41.0156 15.519 40.1955 15.519 39.4575 16.0983C38.8014 16.5948 37.6533 17.174 36.2592 16.4293C35.6852 17.3395 34.4551 18.5808 33.389 18.7463C34.291 18.9118 35.7672 18.829 37.0793 17.3395ZM41.0976 15.7673C40.4415 16.6775 39.9495 16.2638 39.6215 16.0983C40.3595 15.7673 40.7696 15.85 41.0976 15.7673Z" fill="#FFEB57"/>
<path d="M46.4273 64.838L45.9352 65.3345L46.4273 63.7623C46.4273 63.7623 44.7871 63.9278 45.4432 65.3345L45.5252 65.5828C45.6892 65.9965 46.0993 66.4103 46.4273 66.5758L46.6733 66.7413C47.0013 66.9068 47.1653 66.7413 47.0013 66.3275L46.4273 64.838Z" fill="#FFEB57"/>
<path d="M53.8906 62.8521L53.6445 62.7693C53.3165 62.6038 52.9885 62.7693 52.8245 63.1003L51.9224 65.0036L52.6605 65.1691L51.7584 65.3346L51.4304 66.1621C51.4304 66.1621 52.3324 66.3276 52.9885 65.2518C53.1525 65.0036 53.4805 65.1691 53.5625 65.0036L54.1366 63.6796C54.3006 63.3486 54.2186 63.0176 53.8906 62.8521Z" fill="#FFEB57"/>
<path d="M49.708 61.7762C49.8721 61.4452 49.708 61.1142 49.38 60.9487L49.134 60.7832C48.806 60.6177 48.4779 60.7833 48.3139 61.1143L47.8219 62.1073C47.6579 62.4383 47.9859 62.6038 47.8219 62.9348C47.5759 63.7623 48.2319 64.7553 48.2319 64.7553L48.56 63.9278L48.642 63.7623L48.1499 62.6038L48.888 63.3485L49.708 61.7762Z" fill="#FFEB57"/>
<path d="M51.922 62.6038C52.004 62.3555 51.922 62.0245 51.676 61.9418L51.2659 61.7763C51.0199 61.6935 50.6919 61.7763 50.6099 62.0245L49.7078 64.0933C49.3798 64.838 49.7078 65.9138 49.7078 65.9138C50.1998 65.5828 50.6099 65.2518 50.8559 64.5898L50.1998 64.507L51.3479 64.0933L51.922 62.6038Z" fill="#FFEB57"/>
</svg>
