<svg width="294" height="234" viewBox="0 0 294 234" fill="none" xmlns="http://www.w3.org/2000/svg">
<path d="M232.397 23.9026C230.151 26.1038 230.151 30.0172 232.397 32.2184C234.642 34.4197 238.635 34.4197 240.88 32.2184C241.992 31.1289 242.553 29.62 242.564 28.1068C242.576 26.5628 242.015 25.0143 240.88 23.9026C238.635 21.7013 234.642 21.7013 232.397 23.9026Z" fill="#E0001A"/>
<path d="M292.031 20.2335H266.331L265.002 20.0531L260.093 28.0601C259.833 28.2642 259.649 28.4789 259.529 28.6931C259.301 29.4176 259.632 30.0874 260.343 30.2615L268.826 33.9303L292.78 23.1686C294.277 22.4348 293.778 20.2335 292.031 20.2335Z" fill="#E0001A"/>
<path d="M99.589 149.374C150.241 149.374 181.431 127.851 201.892 97.5221C203.163 95.5638 204.74 92.8717 206.064 90.5424C206.511 89.7566 206.929 89.0121 207.297 88.351L207.301 88.3445C206.615 88.1384 205.188 88.1747 204.479 88.87C171.792 122.867 140.261 126.768 115.808 126.768L80.43 127.079C79.6778 127.079 77.3524 127.699 77.1426 127.005C77.128 126.957 77.1236 126.902 77.1309 126.84L77.1304 126.82C77.154 126.502 78.6527 126.173 78.8696 125.89C107.814 86.7562 138.264 56.1874 161.719 36.3761L147.732 47.7925L99.09 87.4942C94.3491 91.6521 88.6102 94.0979 80.3761 94.0979H1.77768C-0.21847 94.0979 0.280567 96.0546 0.779605 97.0329C6.26902 113.665 21.2401 128.584 46.9406 128.584L28.4762 146.928C27.7276 147.662 27.7276 149.374 29.4743 149.374H99.589Z" fill="#E0001A"/>
<path d="M178.75 173.099C184.239 172.365 189.479 171.386 193.971 170.164L217.176 233.755H200.957L178.75 173.099Z" fill="#E0001A"/>
<path fill-rule="evenodd" clip-rule="evenodd" d="M142.32 154.021C141.572 154.266 141.322 154.999 141.572 156.222L170.017 234H186.236L160.036 162.581C176.363 162.581 217.193 154.948 239.383 123.692C261.341 88.9615 268.826 33.9303 268.826 33.9303L261.316 29.8142C260.527 29.6206 259.075 29.506 259.529 28.6931C259.621 28.3998 261.029 28.342 261.316 28.0601L266.331 20.2335C262.236 12.6414 248.231 0.666656 227.656 0.666656C215.429 0.666656 204.7 3.84625 194.969 9.96086C194.969 9.96086 180.996 19.255 160.535 36.6205C156.499 40.0296 152.212 43.7573 147.732 47.7925L161.719 36.3761C138.264 56.1874 107.814 86.7562 78.8696 125.89C78.6527 126.173 77.154 126.502 77.1304 126.82L77.1309 126.84C77.1375 126.895 77.1412 126.95 77.1426 127.005C77.3524 127.699 79.6778 127.079 80.43 127.079L115.808 126.768C140.261 126.768 171.792 122.867 204.479 88.87C205.188 88.1747 206.615 88.1384 207.301 88.3445C207.339 88.2752 205.41 89.5202 205.448 89.4508C204.7 89.2062 204.201 89.2062 203.452 89.94C170.765 123.937 139.076 128.34 114.624 128.34H77.4453C76.793 128.34 77.1608 127.713 77.1426 127.005C77.128 126.957 77.1236 126.902 77.1309 126.84L77.1304 126.82C77.0952 126.598 76.057 126.368 76.1978 126.138C100.161 93.7388 126.177 67.2071 147.732 47.7925L99.09 87.4942C94.3491 91.6521 88.6102 94.0979 80.3761 94.0979H1.77768C-0.21847 94.0979 0.280567 96.0546 0.779605 97.0329C6.26902 113.665 21.2401 128.584 46.9406 128.584L28.4762 146.928C27.7276 147.662 27.7276 149.374 29.4743 149.374H99.589C150.241 149.374 181.431 127.851 201.892 97.5221C203.163 95.5638 204.74 92.8717 206.064 90.5424C205.995 90.2216 205.808 89.9302 205.449 89.6953C205.411 89.6829 207.2 88.4517 207.297 88.351L207.301 88.3445C206.615 88.1384 205.188 88.1747 204.479 88.87C171.792 122.867 140.261 126.768 115.808 126.768L80.43 127.079C79.6778 127.079 77.3524 127.699 77.1426 127.005C77.1608 127.713 76.793 128.34 77.4453 128.34H114.624C139.076 128.34 170.765 123.937 203.452 89.94C204.201 89.2062 204.7 89.2062 205.448 89.4508C205.41 89.5202 207.339 88.2752 207.301 88.3445L207.297 88.351C206.929 89.0121 206.511 89.7566 206.064 90.5424C206.14 90.8893 206.077 91.2706 205.948 91.6519C200.736 103.815 186.855 129.195 163.399 144.141C155.687 148.495 153.482 149.74 142.32 154.021ZM222.665 23.9023C227.656 19.0106 235.89 19.0109 240.88 23.9026C245.871 28.7943 245.87 36.8653 240.88 41.7569C235.89 46.6486 227.656 46.6486 222.665 41.7569C217.675 36.8653 217.675 28.794 222.665 23.9023Z" fill="#E0001A"/>
<path fill-rule="evenodd" clip-rule="evenodd" d="M240.88 23.9026C238.635 21.7013 234.642 21.7013 232.397 23.9026C230.151 26.1038 230.151 30.0172 232.397 32.2184C234.642 34.4197 238.635 34.4197 240.88 32.2184C242.015 31.1067 242.576 29.6206 242.564 28.1068C242.576 26.5628 242.015 25.0143 240.88 23.9026Z" fill="#E0001A"/>
</svg>
