<?xml version="1.0" encoding="UTF-8"?> <svg xmlns="http://www.w3.org/2000/svg" xmlns:xlink="http://www.w3.org/1999/xlink" version="1.1" id="Слой_1" x="0px" y="0px" viewBox="0 0 412.5 412.5" style="enable-background:new 0 0 412.5 412.5;" xml:space="preserve"> <style type="text/css"> .st0{fill:#FB090B;} </style> <path class="st0" d="M206.2,0C92.3,0,0,92.3,0,206.2s92.3,206.2,206.2,206.2s206.2-92.3,206.2-206.2S319.9,0,206.2,0z M206.2,329.2 c-109,0-197.3-55-197.3-123S97.3,83.3,206.2,83.3s197.3,55,197.3,122.9S315.2,329.2,206.2,329.2z M254.9,206.2 c0,27-21.7,48.6-48.6,48.6s-48.6-21.7-48.6-48.6s21.7-48.6,48.6-48.6C232.9,157.6,254.9,179.3,254.9,206.2z"></path> </svg> 