<?xml version="1.0" encoding="UTF-8"?>
<!DOCTYPE svg PUBLIC "-//W3C//DTD SVG 1.1//EN" "http://www.w3.org/Graphics/SVG/1.1/DTD/svg11.dtd">
<!-- Creator: CorelDRAW 2019 -->
<svg xmlns="http://www.w3.org/2000/svg" xml:space="preserve" width="375px" height="375px" version="1.1" style="shape-rendering:geometricPrecision; text-rendering:geometricPrecision; image-rendering:optimizeQuality; fill-rule:evenodd; clip-rule:evenodd"
viewBox="0 0 375 375"
 xmlns:xlink="http://www.w3.org/1999/xlink"
 xmlns:xodm="http://www.corel.com/coreldraw/odm/2003">
 <defs>
  <style type="text/css">
   <![CDATA[
    .fil0 {fill:#27926D}
    .fil1 {fill:white}
   ]]>
  </style>
 </defs>
 <g id="Слой_x0020_1">
  <metadata id="CorelCorpID_0Corel-Layer"/>
  <g id="_2115605016">
   <path class="fil0" d="M-0.5 118.66c0,-55.62 0,-83.55 17.19,-100.97 17.18,-17.19 45.11,-17.19 100.97,-17.19l138.68 0c55.62,0 83.55,0 100.97,17.18 17.19,17.43 17.19,45.12 17.19,100.97l0 138.69c0,55.62 0,83.55 -17.19,100.97 -17.42,17.19 -45.11,17.19 -100.97,17.19l-138.68 0c-55.62,0 -83.55,0 -100.97,-17.19 -17.43,-17.18 -17.19,-45.11 -17.19,-100.97l0 -138.68z"/>
   <path class="fil1" d="M189.75 299.83c-75.91,0 -142.51,-49.89 -141.08,-103.12 -1.91,-38.91 19.82,-79.96 68.75,-101.69 18.14,-8.11 49.41,-15.03 79.72,-15.27 6.69,-0.24 10.99,-0.96 16.95,-2.15 3.82,-0.72 8.12,-1.67 14.32,-2.39 10.03,-1.43 23.64,-2.86 35.57,1.91 13.85,6.92 27.45,17.43 27.45,22.44 0,5.01 -9.07,14.08 -15.04,14.8 -10.26,1.19 -23.15,-0.72 -39.38,-3.34 -12.41,-1.91 -26.74,-4.3 -42.97,-5.49 -68.51,-0.96 -118.63,45.11 -117.2,89.99 1.67,57.05 73.04,81.87 117.2,81.87 122.7,0.72 118.88,-108.6 89.99,-113.86 -9.31,-1.67 -16.94,14.56 -25.06,32.47 -9.55,20.76 -20.05,43.92 -36.05,43.68 -14.8,-0.24 -26.49,-24.82 -36.28,-45.59 -6.92,-14.32 -12.65,-26.74 -17.9,-27.45 -9.55,-0.96 -16.71,21.24 -23.16,40.81 -4.29,13.13 -8.11,25.07 -11.93,27.69 -8.83,8.84 -31.99,-10.26 -28.88,-17.66 3.1,-7.16 6.2,-4.53 9.54,-1.43 2.63,2.39 5.73,5.25 9.08,2.15 1.19,-1.2 3.1,-6.45 5.49,-13.85 7.16,-20.77 19.57,-58 41.05,-59.67 15.28,-1.2 27.45,26.49 37.24,48.45 6.21,14.32 11.46,26.26 16,26.26 5.01,0 10.02,-10.98 15.99,-24.59 10.26,-22.43 23.39,-51.55 44.88,-47.98 55.13,9.31 59.43,153.01 -94.29,153.01zm70.89 -211.01c0,2.39 -3.82,2.62 -11.7,2.39 -5.96,-0.24 -9.78,-1.91 -8.83,-5.02 0.96,-3.1 6.21,-3.34 11.94,-2.15 2.38,0.48 8.59,2.15 8.59,4.78z"/>
  </g>
 </g>
</svg>
