<svg width="16" height="16" viewBox="0 0 16 16" fill="none" xmlns="http://www.w3.org/2000/svg">
<g clip-path="url(#clip0_5591_697)">
<g clip-path="url(#clip1_5591_697)">
<path d="M11.4489 15.1756C10.6119 15.3344 9.43414 15.486 8.03482 15.4704L8.03106 15.4628H7.75288C5.32198 15.4628 3.6071 14.9619 3.26003 14.8518C3.05452 14.4715 2.09555 12.675 1.39747 10.736L1.39718 10.7352C1.01306 9.67445 0.777684 8.48943 0.638163 7.54652C0.568692 7.07702 0.523585 6.67175 0.495676 6.37767C0.481727 6.23069 0.472104 6.11181 0.465895 6.02693C0.463425 5.99316 0.461506 5.96492 0.460075 5.94255C0.720578 5.61858 2.00619 4.04924 3.3972 3.07047C4.94931 1.98347 6.10996 1.33153 6.88358 0.951097C7.27041 0.760876 7.56042 0.638556 7.75421 0.56367C7.8511 0.526225 7.92393 0.500643 7.97276 0.48436C7.98363 0.480736 7.99331 0.477573 8.0018 0.474844C8.01028 0.47757 8.01994 0.48073 8.0308 0.484351C8.07962 0.500634 8.15243 0.526223 8.2493 0.563687C8.44305 0.638614 8.73304 0.761029 9.11984 0.951457C9.89348 1.33233 11.0542 1.98521 12.6065 3.07415L12.607 3.07446C13.3615 3.60238 14.0908 4.31005 14.6447 4.90509C14.9201 5.20088 15.1487 5.46518 15.3117 5.65988C15.3931 5.75719 15.4579 5.83683 15.5036 5.89399C15.519 5.9132 15.5322 5.92977 15.543 5.94353C15.5129 6.37613 15.3222 8.7629 14.6063 10.7465C13.9051 12.6853 12.9487 14.4819 12.7436 14.8624C12.7322 14.866 12.7194 14.87 12.7052 14.8744C12.6422 14.8937 12.5518 14.9203 12.4357 14.9517C12.2037 15.0143 11.8697 15.0958 11.4489 15.1756Z" stroke="#E00E1A" stroke-width="0.9"/>
<path fill-rule="evenodd" clip-rule="evenodd" d="M11.8116 7.145C11.99 5.92553 11.3896 5.05095 10.5547 4.615C9.83575 4.23963 8.97019 4.20221 8.28789 4.5416C8.50173 4.74352 8.6881 4.94824 8.8505 5.15141C9.66856 5.33588 10.4344 5.7464 10.9246 6.37321C11.3335 6.89619 11.4708 7.54908 11.5136 8.04058C11.5639 7.95001 11.6079 7.85445 11.6459 7.75741C11.7105 7.59252 11.7524 7.43793 11.7779 7.32446C11.7972 7.23885 11.8056 7.19138 11.8116 7.145ZM11.4471 9.12709C11.1093 10.0852 10.4989 10.7758 9.76432 11.1925C9.9158 11.2308 10.0751 11.2659 10.2424 11.2973C11.4811 11.3476 12.2136 10.6794 12.4926 9.86376C12.712 9.22236 12.6493 8.50066 12.3245 7.94201C12.1848 8.32288 11.9278 8.82689 11.4471 9.12709ZM9.79659 11.9199C9.3899 11.828 9.02798 11.7147 8.70691 11.589C7.71186 11.794 6.63197 11.5881 5.73605 10.9602C5.70952 11.284 5.71464 11.6662 5.81083 11.994C6.21001 12.8514 7.16174 13.242 8.08673 13.1518C8.90741 13.0717 9.58953 12.6304 9.79659 11.9199ZM5.0387 11.6503C5.01215 11.3685 5.02128 11.0974 5.04082 10.8744C5.05745 10.6846 5.08236 10.522 5.10324 10.4062C5.10402 10.4019 5.10479 10.3976 5.10556 10.3934C5.08067 10.3609 5.05334 10.3232 5.02451 10.2804C4.91364 10.1158 4.77988 9.87458 4.67742 9.55735C4.49996 9.00792 4.42261 8.24934 4.69476 7.2933C4.43438 7.35496 4.18853 7.49287 3.97491 7.65098C2.75674 9.17087 3.43307 11.0961 5.0387 11.6503ZM3.34743 7.31807C3.05892 6.07216 3.50608 4.9217 4.36651 4.25556C5.2255 3.59053 6.4561 3.43755 7.68343 4.08344C8.63654 3.45054 9.89567 3.48125 10.8787 3.99449C11.9055 4.53064 12.667 5.60993 12.5267 7.06189C13.3108 7.85317 13.5023 9.07488 13.1549 10.0903C12.8039 11.1163 11.9 11.9499 10.5004 11.9978C10.2412 13.1296 9.20066 13.7464 8.1547 13.8485C7.06798 13.9545 5.83776 13.5251 5.24749 12.4315C2.93961 11.9594 1.82578 9.35076 3.34743 7.31807ZM7.5065 4.78613C6.44829 4.16092 5.45167 4.30071 4.79503 4.80907C4.23067 5.24599 3.88516 5.9788 3.9736 6.8284C4.08819 6.76816 4.2197 6.70828 4.36052 6.66134C4.59848 6.58203 4.81082 6.56024 4.96823 6.55914C5.49702 5.52209 6.63295 5.06741 7.73998 5.04046C7.75847 5.04001 7.77698 5.03968 7.79551 5.03946C7.70495 4.95445 7.60874 4.86986 7.5065 4.78613ZM8.45462 5.78732C8.22547 5.75081 7.99092 5.73456 7.75702 5.74025C6.7255 5.76537 6 6 5.51363 7.0523C5.02727 8.1046 5.18655 8.85616 5.34354 9.34221C5.42307 9.58845 5.52538 9.771 5.60508 9.88932C6.00301 10.4801 6.78638 10.8216 7.46549 10.9295C7.40392 10.8859 7.34561 10.8425 7.29043 10.7996C7.00565 10.5782 6.80653 10.3706 6.67633 10.2144C6.61125 10.1363 6.56343 10.0711 6.53075 10.0233C6.50156 9.98075 6.48311 9.95334 6.43877 9.87717C6.4104 9.82844 6.37261 9.75933 6.33179 9.67312C6.25059 9.50166 6.15488 9.25725 6.09951 8.96717C5.9872 8.37879 6.04277 7.59606 6.71156 6.88792C6.72272 6.8761 6.73469 6.86508 6.74738 6.85493C7.14535 6.53655 7.55738 6.40992 7.95296 6.418C8.34063 6.42591 8.68585 6.56236 8.96356 6.72515C8.97035 6.72913 8.97711 6.73314 8.98383 6.73716C8.86705 6.45176 8.69842 6.126 8.45462 5.78732ZM9.46068 6.09778C9.53921 6.25306 9.60509 6.40248 9.66032 6.54356C9.79166 6.87906 9.86261 7.16678 9.90087 7.37358C9.93215 7.54269 9.95463 7.71563 9.97562 7.8863C9.99234 8.02227 10.0059 8.2118 9.99246 8.42587C9.96602 8.84721 9.83073 9.41322 9.35062 9.82209C8.88802 10.2161 8.22763 10.2744 7.73025 10.2549C7.9821 10.4494 8.32011 10.6627 8.76294 10.855C9.66603 10.5996 10.4542 9.91196 10.8143 8.81391C10.8149 8.80792 10.8156 8.80104 10.8163 8.79329C10.8196 8.75803 10.8239 8.70514 10.827 8.63831C10.8332 8.50419 10.8348 8.31631 10.8164 8.10338C10.7788 7.66845 10.6613 7.1729 10.3731 6.80443C10.1467 6.51482 9.82943 6.27564 9.46068 6.09778ZM7.00699 9.45863C7.03601 9.46487 7.06915 9.47166 7.10585 9.47868C7.25599 9.50737 7.46227 9.53907 7.6886 9.55208C8.07013 9.57399 8.44195 9.53851 8.71249 9.40748C8.68429 9.32401 8.64785 9.22337 8.60299 9.11324C8.47619 8.80201 8.29177 8.43936 8.05262 8.1695C7.8176 7.9043 7.52598 7.72723 7.2852 7.61569C7.2099 7.58081 7.14096 7.55298 7.08221 7.53132C6.73639 7.98719 6.7144 8.45507 6.78709 8.83592C6.82857 9.05322 6.90135 9.24032 6.96444 9.37353C6.97953 9.40541 6.99392 9.43389 7.00699 9.45863ZM7.84862 7.11997C8.08667 7.25716 8.34774 7.44709 8.57651 7.70523C8.87135 8.03793 9.08293 8.44966 9.2229 8.78082C9.26395 8.65081 9.28549 8.51508 9.29384 8.38203C9.30391 8.22144 9.29374 8.07653 9.28085 7.97174C9.27691 7.93966 9.27276 7.91172 9.26896 7.88869C9.23629 7.85069 9.18823 7.79731 9.12695 7.73604C8.99899 7.60808 8.82017 7.4525 8.60956 7.32904C8.39841 7.20527 8.1705 7.12258 7.93868 7.11785C7.90917 7.11725 7.87915 7.11789 7.84862 7.11997Z" fill="#E00E1A"/>
</g>
</g>
<defs>
<clipPath id="clip0_5591_697">
<rect width="16" height="16" fill="white"/>
</clipPath>
<clipPath id="clip1_5591_697">
<rect width="16" height="15.907" fill="white" transform="translate(0 0.00585938)"/>
</clipPath>
</defs>
</svg>
