<?xml version="1.0" encoding="UTF-8"?>
<!DOCTYPE svg PUBLIC "-//W3C//DTD SVG 1.1//EN" "http://www.w3.org/Graphics/SVG/1.1/DTD/svg11.dtd">
<!-- Creator: CorelDRAW -->
<svg xmlns="http://www.w3.org/2000/svg" xml:space="preserve" width="297mm" height="210mm" version="1.1" style="shape-rendering:geometricPrecision; text-rendering:geometricPrecision; image-rendering:optimizeQuality; fill-rule:evenodd; clip-rule:evenodd"
viewBox="0 0 29700 21000"
 xmlns:xlink="http://www.w3.org/1999/xlink"
 xmlns:xodm="http://www.corel.com/coreldraw/odm/2003">
 <defs>
  <style type="text/css">
   <![CDATA[
    .fil0 {fill:#362F79}
    .fil1 {fill:#FEFEFE;fill-rule:nonzero}
   ]]>
  </style>
 </defs>
 <g id="Слой_x0020_1">
  <metadata id="CorelCorpID_0Corel-Layer"/>
  <rect class="fil0" width="29700" height="21000"/>
  <path class="fil1" d="M4369.87 11439.27l-476.25 0 0 1418.16 -1042.45 0 0 -3704.16 1042.45 0 0 1439.33 502.71 0 883.71 -1439.33 1100.67 0 -1158.88 1788.58 1169.46 1915.58 -1180.04 0 -841.38 -1418.16zm5027.08 698.49l-1566.34 0 -291.04 719.67 -1068.91 0 1635.12 -3704.16 1031.87 0 1640.42 3704.16 -1090.08 0 -291.04 -719.67zm-306.92 -772.58l-476.25 -1185.33 -476.25 1185.33 952.5 0zm3915.83 1566.33c-388.05,0 -736.42,-82.02 -1045.1,-246.06 -308.68,-164.04 -551.22,-392.46 -727.61,-685.27 -176.38,-292.8 -264.58,-624.41 -264.58,-994.83 0,-370.42 88.2,-702.03 264.58,-994.83 176.39,-292.81 418.93,-521.23 727.61,-685.27 308.68,-164.04 657.05,-246.07 1045.1,-246.07 338.67,0 643.82,59.98 915.46,179.92 271.64,119.95 497.41,292.81 677.33,518.58l-666.75 603.25c-239.89,-289.27 -530.93,-433.91 -873.12,-433.91 -201.09,0 -380.12,44.09 -537.11,132.29 -156.98,88.19 -278.69,212.55 -365.12,373.06 -86.43,160.51 -129.65,344.84 -129.65,552.98 0,208.14 43.22,392.46 129.65,552.98 86.43,160.51 208.14,284.87 365.12,373.06 156.99,88.19 336.02,132.29 537.11,132.29 342.19,0 633.23,-144.64 873.12,-433.92l666.75 603.25c-179.92,225.78 -405.69,398.64 -677.33,518.59 -271.64,119.94 -576.79,179.91 -915.46,179.91zm5540.37 -3778.24l0 3704.16 -1037.17 0 0 -2873.37 -1407.58 0 0 2873.37 -1031.88 0 0 -3704.16 3476.63 0zm793.74 0l1031.88 0 0 2174.87 1529.29 -2174.87 984.25 0 0 3704.16 -1031.88 0 0 -2169.58 -1524 2169.58 -989.54 0 0 -3704.16zm4339.16 0l1031.88 0 0 2174.87 1529.29 -2174.87 984.25 0 0 3704.16 -1031.88 0 0 -2169.58 -1524 2169.58 -989.54 0 0 -3704.16zm1767.42 -222.25c-373.95,0 -648.23,-72.32 -822.85,-216.96 -174.63,-144.64 -261.94,-359.83 -261.94,-645.58l703.79 0c3.53,123.47 35.28,215.19 95.25,275.16 59.97,59.98 155.22,89.96 285.75,89.96 130.53,0 227.54,-29.98 291.04,-89.96 63.5,-59.97 97.01,-151.69 100.54,-275.16l703.79 0c0,285.75 -88.19,500.94 -264.58,645.58 -176.39,144.64 -453.32,216.96 -830.79,216.96z"/>
 </g>
</svg>
