<svg xmlns="http://www.w3.org/2000/svg" xml:space="preserve" width="120" height="120" version="1.1" style="shape-rendering:geometricPrecision; text-rendering:geometricPrecision; image-rendering:optimizeQuality; fill-rule:evenodd; clip-rule:evenodd">
   <path stroke="null" d="m18.79923,18.51406c-22.74814,22.76592 -22.74814,59.67887 0,82.44371c17.67259,17.68768 43.85364,21.56666 65.33358,11.77437l-7.62545,-13.95684l34.9659,12.48982l-92.67401,-92.75106l-0.00002,0z" id="svg_1" fill="#F58F1F" fill-rule="nonzero"/>
   <path stroke="null" d="m101.17398,100.96477c22.74869,-22.76755 22.74869,-59.67832 0,-82.44479c-17.67205,-17.6882 -43.85257,-21.56829 -65.33358,-11.7749l7.62545,13.95737l-34.96535,-12.48929l92.67348,92.75159l0,0.00002z" id="svg_2" fill="#004780" fill-rule="nonzero"/>
   <path stroke="null" d="m25.87194,68.00087l6.37771,0c2.72123,0 4.56752,-1.59038 4.94087,-3.70874c0.39921,-2.26168 -1.15347,-3.39197 -3.6899,-3.39197l-6.37663,0l-1.25205,7.10072zm18.02548,-21.23264l-0.77741,4.41451l-14.28277,0l-0.93473,5.29967l7.04791,0c5.21993,0 8.71857,3.00407 7.82102,8.09094c-0.89054,5.05239 -5.29806,7.84364 -10.70495,7.84364l-12.60404,0l4.5228,-25.64877l19.91218,0l0,0.00002z" id="svg_3" fill="white" fill-rule="nonzero"/>
   <path stroke="null" d="m64.70551,56.69576c-0.14169,-4.69951 -2.9949,-6.07816 -5.30506,-6.07816c-4.66233,0 -6.12342,3.00407 -6.84427,4.55835l-5.62993,0c0.96329,-3.78148 5.1806,-9.08062 13.27046,-9.08062c6.97464,0 11.68978,4.55835 10.10855,13.53284c-1.55969,8.83225 -7.59582,13.46064 -14.79243,13.46064c-6.78771,0 -9.94208,-3.88707 -10.07515,-9.47014l5.62885,0c0.11744,3.14629 2.03593,4.94733 5.13105,4.94733c4.29006,0 6.83889,-3.46307 7.95301,-7.4536l-7.83126,0l0.77904,-4.41666l7.60714,0l0,0.00002z" id="svg_4" fill="white" fill-rule="nonzero"/>
   <path stroke="null" d="m92.41553,55.17648c-0.17347,-1.55375 -0.53876,-4.55835 -5.20001,-4.55835c-2.7223,0 -7.14651,1.8366 -8.42443,9.07955c-0.8092,4.59445 0.48703,8.8689 5.26089,8.8689c3.13068,0 5.64879,-1.80105 6.87551,-4.94841l5.62993,0c-2.10273,5.58414 -6.62985,9.47121 -13.41648,9.47121c-7.19553,0 -11.526,-4.62839 -9.96847,-13.46064c1.58231,-8.97502 7.83126,-13.53231 14.8043,-13.53231c8.09039,0 10.43773,5.29914 10.06869,9.08008l-5.62993,0l0,-0.00002z" id="svg_5" fill="white" fill-rule="nonzero"/>
</svg>