<svg width="32" height="32" viewBox="0 0 32 32" fill="none" xmlns="http://www.w3.org/2000/svg">
<g clip-path="url(#clip0_1924_36)">
<path d="M29.1625 19.2746C30.8212 20.5795 30.8905 22.3129 30.6114 24.1582C30.3981 25.5662 30.0123 26.9066 29.2763 28.1333C27.3047 31.4151 23.1092 32.8142 19.1554 31.5217C18.1758 31.2017 17.3136 30.4266 16.3732 30.2969C15.4861 30.176 14.775 31.2817 13.8025 31.5324C12.8318 31.7813 11.8683 31.9857 10.8674 31.8417C8.71628 31.5306 7.60517 30.1351 7.76873 27.9662C7.86295 26.7111 9.33317 25.328 10.7785 25.1484C12.0994 24.9831 13.3367 25.2995 14.4727 25.9342C15.0078 26.2329 15.2212 26.1351 15.4807 25.6249C16.4087 23.7937 17.0878 21.8613 17.8558 19.9644C18.4798 18.4195 19.1607 16.8977 20.1047 15.52C21.3705 13.6711 23.0398 12.5155 25.3954 12.6062C25.9732 12.6293 26.3092 12.7893 26.2096 13.4453C26.1723 13.696 26.1669 13.9626 26.2096 14.2115C26.3429 14.9742 26.0425 15.264 25.2727 15.3564C23.831 15.5289 22.871 16.4764 22.0852 17.616C21.0932 19.0506 20.4905 20.672 19.8861 22.2915C19.2603 23.968 18.7252 25.6835 17.8558 27.2586C17.6816 27.5751 17.6834 27.7564 18.0425 27.9217C19.7758 28.72 21.5305 29.376 23.4967 29.0222C26.3234 28.512 28.5421 24.9564 27.7545 22.1813C27.4665 21.1662 26.6932 20.7004 25.7403 20.4746C25.2425 20.3573 24.7358 20.2684 24.2274 20.224C23.7509 20.1813 23.2745 20.1706 23.415 19.5022C23.5483 18.8622 23.3901 17.9857 24.4016 17.9182C25.2318 17.8631 26.0621 17.8489 26.8781 17.6551C28.4141 17.2924 29.2301 16.4942 29.4221 15.1502C29.6283 13.7013 29.0149 12.3964 27.6496 11.7315C25.3616 10.6204 23.1109 10.7591 21.0381 12.2773C20.1901 12.8995 19.4487 13.664 18.6647 14.3697C17.4043 15.504 16.0478 16.4426 14.2701 16.4853C13.7367 16.4977 13.8505 16.7893 13.9021 17.1253C14.3661 20.0604 13.0914 22.4569 10.3696 23.7866C7.56784 25.1555 4.38562 24.7129 2.48873 22.6293C0.922506 20.9209 0.488729 18.8089 0.577618 16.5706C0.709173 13.2266 2.06384 10.3217 3.88428 7.59286C4.09762 7.27286 4.31273 6.95464 4.52784 6.63819C5.39362 5.3653 5.38473 5.32264 4.04962 4.49241C3.20517 3.96619 2.28251 3.67286 1.30473 3.8773C0.686062 4.00708 0.474507 3.8133 0.282507 3.26575C-0.277493 1.66575 -0.0908267 1.30486 1.59806 1.10575C3.5714 0.872859 5.26384 1.55908 6.68606 2.87286C7.15184 3.30308 7.41317 3.26397 7.87539 2.92619C9.71895 1.57508 11.639 0.371525 13.9821 0.0817474C14.7803 -0.0178081 15.5767 -0.0355859 16.3732 0.0764141C19.4932 0.510192 20.9794 2.72175 20.2132 5.78841C19.0292 10.5369 13.7545 12.4035 9.84162 9.44886C9.15362 8.92975 8.51184 8.34486 7.85762 7.7813C7.62117 7.57864 7.43095 7.40264 7.1554 7.74753C4.79806 10.6844 3.00784 13.8346 3.40784 17.7973C3.49673 18.6702 3.80606 19.4773 4.29673 20.2044C5.37051 21.7955 7.02562 22.2773 8.84251 21.5395C10.4923 20.8711 11.4523 19.2569 11.1536 17.6586C10.9136 16.3769 10.5972 16.1955 9.39006 16.656C8.03006 17.1751 8.0034 17.168 7.66384 16.1902C7.26028 15.0311 7.54295 14.4177 8.69851 14.0835C9.66739 13.8026 10.6772 13.84 11.6567 13.9591C13.9163 14.2329 15.7918 13.5502 17.4274 11.984C18.7981 10.672 20.3501 9.59819 22.1687 8.96175C24.2096 8.24708 26.2452 8.20086 28.2647 9.01686C30.6505 9.98041 32.1954 12.3609 32.1189 14.9084C32.0621 16.7875 31.0861 18.0817 29.5145 18.9973C29.4061 19.056 29.3189 19.1484 29.1625 19.2746ZM13.511 8.11553C15.8203 8.15108 17.3136 6.78753 17.6016 4.97953C17.8132 3.65686 17.1696 2.81953 15.8274 2.65775C13.3581 2.36086 11.4185 3.41864 9.70295 5.04708C9.5554 5.18575 9.28517 5.34219 9.56606 5.58397C10.9154 6.75375 12.1883 8.07108 13.511 8.11553ZM11.6941 29.5217C12.439 29.5164 13.5589 28.9475 13.4256 28.6186C13.1732 27.9893 12.4763 27.9929 11.9287 27.8026C11.8985 27.792 11.8665 27.7884 11.8363 27.7849C11.2052 27.696 10.583 27.6711 10.4105 28.4729C10.2843 29.0613 10.8834 29.5271 11.6941 29.5217Z" fill="#9E8C79"/>
</g>
<defs>
<clipPath id="clip0_1924_36">
<rect width="32" height="32" fill="white"/>
</clipPath>
</defs>
</svg>
