<svg width="64" height="64" viewBox="0 0 64 48" fill="none" xmlns="http://www.w3.org/2000/svg">
<g clip-path="url(#clip0_117_100)">
<path fill-rule="evenodd" clip-rule="evenodd" d="M39.9724 4.6721L35.5685 17.9346L34.9384 19.832C34.7932 20.2692 35.1214 20.7196 35.5855 20.7196H37.5984H41.0981H44.9288H47.0594C47.6156 20.7196 47.9374 21.3454 47.611 21.7924L46.3608 23.5047L41.3787 30.3279L34.3631 39.9363L32.3917 42.6363C30.7599 44.8711 32.3687 48 35.1497 48H48.025C56.8661 48 64.0333 40.887 64.0333 32.1127V31.7746C64.0333 23.3004 57.2025 16.4094 48.7073 16.229C48.5192 16.2249 48.3655 16.074 48.3655 15.8873C48.3655 11.0411 46.1792 6.70164 42.7319 3.78756C41.7757 2.97928 40.3655 3.48821 39.9724 4.6721ZM36.5889 0.560979C37.8209 0.895256 38.2069 2.35678 37.4479 3.37631L17.0733 30.7458L15.8023 32.453C15.4701 32.8992 15.7911 33.5308 16.3503 33.5308H18.4891H26.07H28.0828C28.5488 33.5308 28.8772 33.9846 28.7284 34.4227L28.0856 36.3157L24.8998 45.699C24.433 47.0741 23.1341 48 21.6721 48H16.0083C7.16718 48 0 40.887 0 32.1127C0 23.3383 7.16716 16.2254 16.0083 16.2254C16.1964 16.2254 16.349 16.074 16.349 15.8873C16.349 7.11299 23.516 0 32.3573 0C33.822 0 35.2409 0.195258 36.5889 0.560979ZM41.5604 23.5047C42.1166 23.5047 42.4383 24.1304 42.112 24.5774L39.1064 28.6938L32.0908 38.3021L31.5054 39.1037C31.0475 39.7309 30.0591 39.2251 30.3083 38.4911L31.6905 34.4201L32.6353 31.6376C32.784 31.1995 32.4556 30.7458 31.9897 30.7458H29.0312H21.9125C21.3535 30.7458 21.0324 30.1143 21.3646 29.668L32.1138 15.2285C32.5738 14.6105 33.5511 15.112 33.3086 15.8419L31.9785 19.8479L31.0589 22.617C30.9137 23.0543 31.242 23.5047 31.706 23.5047H34.6436H41.0981H41.5604Z" fill="#4FAFDB"/>
</g>
<defs>
<clipPath id="clip0_117_100">
<rect width="64" height="48" fill="white"/>
</clipPath>
</defs>
</svg>
