<?xml version="1.0" encoding="UTF-8"?><svg id="a" xmlns="http://www.w3.org/2000/svg" xmlns:xlink="http://www.w3.org/1999/xlink" viewBox="0 0 32 32"><defs><style>.d{fill:url(#c);}.e{fill:url(#b);}</style><linearGradient id="b" x1="24.18" y1="16.41" x2="15.93" y2="30.7" gradientTransform="matrix(1, 0, 0, 1, 0, 0)" gradientUnits="userSpaceOnUse"><stop offset="0" stop-color="#c2c2c2"/><stop offset="1" stop-color="#303030"/></linearGradient><linearGradient id="c" x1="19.55" y1="3.55" x2="7.14" y2="25.04" xlink:href="#b"/></defs><polygon class="e" points="17.91 13.32 17.91 20.42 20.81 22.32 17.81 24.42 17.75 24.48 17.71 24.52 17.71 31.62 18.21 32.02 26.61 26.12 26.61 18.82 18.31 13.02 17.91 13.32"/><polygon class="d" points="13.61 .12 8.51 3.62 8.51 4.22 13.26 7.55 10.81 8.92 10.81 9.02 10.81 19.32 8.61 17.72 3.51 21.32 3.51 21.42 3.51 21.92 3.51 22.02 10.9 27.2 11.11 27.22 16.21 23.62 16.21 23.02 13.31 21.02 16.31 18.92 16.31 9.69 21.62 13.33 21.91 13.35 26.91 9.82 26.91 9.22 13.61 .12"/></svg>