<svg xmlns="http://www.w3.org/2000/svg" xmlns:xlink="http://www.w3.org/1999/xlink" id="Layer_1" x="0px" y="0px" viewBox="0 0 200 200" style="enable-background:new 0 0 200 200;" xml:space="preserve">
<style type="text/css">
	.st0{fill-rule:evenodd;clip-rule:evenodd;fill:#FFFFFF;}
	.st1{fill:#636969;}
	.st2{fill:#FFFFFF;}
	.st3{fill:#EC7D69;stroke:#636969;stroke-width:4.7033;stroke-linecap:round;stroke-linejoin:round;stroke-miterlimit:10;}
</style>
<g>
	<g>
		<path class="st0" d="M138.4,137.5c-0.7,0-1.4-0.4-1.8-1l-3.6-4.8c-0.5-0.6-0.7-1.4-0.6-2.2c0.7-5.8,1.2-13,0.8-14.6    c-1.3-2.5-2.3-9.6-2.9-13.7c0-0.3,0-0.6,0-1c0.5-3,1.3-5.8,2.4-8.7c4.6-12.3,13.1-14.2,21.4-16c2.5-0.6,5.1-1.1,7.6-2    c2.4-0.8,4.8-1.5,7.3-2.3c8.5-2.5,17.3-5.1,19.7-11.3c0.4-1,1.3-1.7,2.3-1.7c0.1,0,0.2,0,0.4,0c1.1,0.2,2,1.2,2.1,2.4    c0,0.2,1.3,13.1-9.4,23.3c0.8,0.8,1,2.2,0.5,3.3c-1.6,3.9-5.3,11.1-11.9,17.5c0,0,0.1,0.1,0.1,0.1c0.9,0.7,1.3,2,1,3.2    c-3.6,12.7-25.1,29.5-35.1,29.5L138.4,137.5z"></path>
		<g>
			<path class="st1" d="M191,61c0,0,2.4,21.5-24.4,29.5c-13.1,3.9-17.7,8-23.8,14.4c0,0.1-0.1,0.6,0,0.7c7.3-6.2,14.6-8.2,22.2-10.4     l2.9-0.9c5.5-1.7,10.5-4.5,14.6-8.3c-2.8,6.6-10.6,21-27.6,26c-4.6,1.4-8.9,2.3-12.7,3.1c0.1,0.2,0.2,0.4,0.3,0.6     c0.3,0,0.7-0.1,1.1-0.1c0.2,0,0.4,0,0.6,0c0.7,0,1.5,0,2.3,0c4.3,0,10.1-0.5,14.8-2.6c5.3-2.4,6.7-2.5,10.2-6     c-3.3,11.6-24.1,27.5-32.7,27.5c-0.1,0-0.2,0-0.2,0l-3.6-4.8c0,0,1.7-14.4,0.5-16.4c-1.2-2-2.6-12.7-2.6-12.7     c0.4-2.5,1.1-5.2,2.2-8.2c5.4-14.3,16.5-12.7,27.4-16.4C173.5,72.3,187.3,70.4,191,61 M191,55.3c-1.9,0-3.7,1.3-4.5,3.3     c-2,5-10.2,7.4-18.1,9.7c-2.4,0.7-5,1.5-7.4,2.3c-2.4,0.8-4.9,1.4-7.3,1.9c-8.4,1.9-18,4.1-23.2,17.7c-1.2,3.1-2,6.2-2.5,9.3     c-0.1,0.6-0.1,1.3,0,1.9c1.2,9.2,2.3,12.7,2.9,14.2c0.2,2.1-0.3,8.5-0.9,13.3c-0.2,1.6,0.2,3.2,1.1,4.4l3.6,4.8     c0.9,1.2,2.2,1.9,3.6,2c0.1,0,0.2,0,0.4,0c10.9,0,33.6-17.6,37.5-31.5c0.4-1.3,0.3-2.6-0.1-3.8c5.9-6.2,9.2-12.9,10.8-16.6     c0.5-1.2,0.6-2.6,0.3-3.8c2.9-3.2,4.9-6.5,6.1-9.3c3.3-7.7,2.7-14.2,2.6-15c-0.3-2.5-2-4.5-4.2-4.9     C191.5,55.4,191.2,55.3,191,55.3L191,55.3z"></path>
		</g>
	</g>
	<g>
		<path class="st0" d="M62.9,141.6c-10.9,0-35.5-21.5-38.2-33.4c-0.3-1.2,0.2-2.5,1.2-3.1c0,0,0.1-0.1,0.1-0.1    c-6.3-6.8-9.5-14.3-10.9-18.3c-0.4-1.2-0.1-2.5,0.7-3.2c-10-10.9-8.1-23.7-8.1-23.9c0.2-1.2,1.1-2.2,2.2-2.3c0.1,0,0.1,0,0.2,0    c1,0,2,0.7,2.3,1.8c2.1,6.4,10.7,9.6,19.1,12.7c2.4,0.9,4.8,1.8,7.1,2.8c2.4,1,5,1.8,7.5,2.5c8.1,2.4,16.5,4.9,20.4,17.5    c0.9,3,1.6,5.9,1.9,8.9c0,0.3,0,0.6,0,1c-0.7,4-2.1,10.8-3.5,13.3c-0.2,1.9,0.8,9,2,14.7l1.2,4.6c0.3,1.1,0,2.2-0.8,3    C66.2,141.1,64.7,141.6,62.9,141.6z"></path>
		<g>
			<path class="st1" d="M10.2,60.1c3.2,9.6,16.9,12.5,27.7,17.1c10.6,4.5,21.8,3.6,26.4,18.3c0.9,3,1.5,5.8,1.8,8.3     c0,0-1.9,10.6-3.3,12.5c-1.3,1.9,1.8,16.7,1.8,16.7l1.2,4.7c-0.7,0.7-1.7,1-2.9,1c-9.7,0-33.4-20.6-35.8-31.3     c3.3,3.7,4.7,3.9,9.9,6.7c5.4,2.9,12.6,3.6,17,3.7c0.7,0,1.2,0.1,1.7,0.2c0.1-0.2,0.2-0.4,0.3-0.5c-3.7-1-7.9-2.3-12.5-4     c-16.7-6.3-23.7-21.1-26.1-28c3.9,4.1,8.7,7.3,14.1,9.3l2.8,1.1c7.4,2.7,14.6,5.2,21.5,12c0.1-0.1,0-0.6,0-0.7     c-5.8-6.8-10.1-11.2-23-16C6.6,81.4,10.2,60.1,10.2,60.1 M10.2,54.5c-0.1,0-0.3,0-0.4,0c-2.2,0.2-4,2.1-4.4,4.6     c-1,5.8,0.1,15.9,7.4,24.8c-0.4,1.2-0.4,2.6,0.1,3.9c1.4,3.9,4.3,10.8,9.9,17.4c-0.5,1.2-0.6,2.5-0.3,3.8     c2,8.9,12.5,18.9,16.9,22.7c4.4,3.8,15.5,12.8,23.7,12.8c2.4,0,4.4-0.8,6-2.2c1.5-1.4,2.2-3.8,1.6-5.9l-1.2-4.6     c-1.1-5.2-1.9-11-2-13.1c0.8-1.7,2-5.3,3.5-13.6c0.1-0.6,0.1-1.3,0.1-1.9c-0.4-3.2-1-6.3-2-9.5c-4.4-14-13.8-16.8-22.1-19.3     c-2.4-0.7-4.9-1.5-7.2-2.5c-2.4-1-4.8-1.9-7.2-2.8c-7.8-2.9-15.9-5.9-17.5-11C14.1,55.9,12.2,54.5,10.2,54.5L10.2,54.5z"></path>
		</g>
	</g>
	<g>
		<g>
			<path class="st2" d="M139.3,47.3c2.7-0.4,4.2,2,3.4,5.1c-0.7,2.5-2.1,4.2-4.1,5.1c-4,1.9-8.1,2.4-12.2,2.4     c-11.6-0.1-23.2-0.1-34.8-0.2C83,59.6,74.5,59.5,66,59c-3.6-0.2-7.1-1.1-10.9-1.8c-0.6-1.7-1.5-3.1-1.6-4.7c-0.1-1.9,1-3.5,2.6-4     c1.5-0.5,3.1-0.7,4.6-0.6c17,1,33.9,2.1,50.9,3.2c7.5,0.5,14.9-1.6,22.4-2.7C135.8,48.1,137.6,47.5,139.3,47.3z"></path>
			<path class="st3" d="M134.6,65.6c0,2.7,0,5-0.1,7.3c-0.6,16.7-1.2,33.3-1.9,49.9c-0.6,15.8-0.8,4.3-1.5,20.1     c-0.2,4-1,28.1-4.2,31.2c-9.3,0.4-18.9,0.9-28.4,1.3c-9.5,0.3-18.9-4.4-28.9-5.4c-0.5-2.9-1-18.6-1.3-21.1     c-3.9-34.4-7.8-69.9-6.5-84.2C86.2,65,110.2,65.3,134.6,65.6z"></path>
			<path class="st2" d="M132.1,32.2c3.3-0.7,6.6-1,10.6-1.5c0.5,5.9-2.1,8.3-5.1,10.4c-0.9,0.6-2,0.8-3,1c-10,2.2-20,4.1-30.2,3.2     c-12.6-1.1-25.3-1.4-37.9-2.3c-3.3-0.2-6.6-1-9.8-1.8c-1.4-0.4-2.8-1.5-4-2.5c-1.4-1.2-1.5-3-0.9-4.8c0.7-2,2-2.8,3.7-2.6     c7.2,0.8,14.4,1.7,21.5,2.3c8,0.7,16,1.2,24,1.7C111.5,35.8,121.8,34.3,132.1,32.2z"></path>
		</g>
		<path class="st1" d="M137.1,146c0.4-14.8,0.8-2.3,1.2-17.1c0.5-16.5,0.7-33,1-49.6c0.1-3.6,0.5-7.1,0.7-10.6    c0.2-3.1,1.3-5.4,3.5-7.6c5.6-5.9,6-9.3,2.9-17.2c-0.2-0.5-0.2-1.1-0.3-2.1c0.7-1.5,1.5-3.4,2.3-5.3c1.6-4.2-3.6-8.7-6.6-11.3    c-2-1.7-33.6-4.7-38.6-4.9c-12.9-0.5-17.1,0.1-27.4,0.4c-5.6,0.1-24.4,3.9-26.6,7.5c-3.1,5.1-3.9,9.1-0.1,13.8    c0.5,0.6,0.8,1.4,1.2,2.1c-0.7,2-1.5,3.9-2.1,5.9c-1.3,4.4-1.2,7,2.4,9c4.5,2.6,4.6,6.8,5.1,11.6c1.8,15.7,2.3,25.9,3.5,40.9    c0.9,10.9,0.8,5.7,1.7,20c0.5,7.9,1.4,31.3,2.1,39.2c0.4,4.6,4,5.8,7.9,6.9c5.3,1.5,8.8,1.4,14.7,2.1c6.2,0.7,11.7,0.7,17.9,0.4    c9.1-0.4,23.1,1.2,28.8-7.4C136.1,168.7,136.9,151.2,137.1,146z M52.9,38.3c-1.4-1.2-1.5-2.9-0.9-4.8c0.7-1.9,2-2.7,3.7-2.5    c7.2,0.8,14.4,1.7,21.5,2.4c8,0.7,16,1.2,24,1.7c10.4,0.6,20.7-0.9,31-3c3.3-0.7,6.6-1,10.6-1.5c0.5,5.8-2,8.3-5.1,10.3    c-0.9,0.6-2,0.8-3,1c-10,2.1-20,4-30.2,3.1c-12.6-1.1-25.3-1.5-37.9-2.4c-3.3-0.2-6.6-1-9.9-1.8C55.4,40.4,54.1,39.3,52.9,38.3z     M55.2,56.7c-0.6-1.7-1.5-3.1-1.6-4.7c-0.1-1.9,1-3.5,2.6-4c1.5-0.5,3.1-0.6,4.6-0.6c16.9,1,33.9,2.2,50.9,3.3    c7.5,0.5,14.9-1.5,22.4-2.7c1.8-0.3,3.6-0.9,5.4-1.1c2.7-0.4,4.2,2,3.4,5.1c-0.7,2.5-2.1,4.1-4.1,5.1c-4,1.8-8.1,2.4-12.2,2.3    c-11.6-0.1-23.2-0.1-34.8-0.3c-8.5-0.1-17-0.3-25.5-0.7C62.6,58.3,59,57.4,55.2,56.7z M129.5,167c-9.9,4.6-19.8,6.7-30.7,7    c-9.5,0.2-19.7,0.5-30.1-5.3c-0.5-2.9,0.2-18.7-0.1-21.2c-4-34.1-5.6-62.4-6.7-83.3c24.5,0.3,48.4,0.7,72.8,1c0,2.7,0,5-0.1,7.3    c-0.6,16.5-1.2,33-1.8,49.5c-0.6,15.6-0.8,4.1-1.4,19.7C131.2,145.6,132.7,163.9,129.5,167z"></path>
	</g>
</g>
</svg>