<svg width="1024" height="1024" viewBox="0 0 1024 1024" fill="none" xmlns="http://www.w3.org/2000/svg">
    <rect width="1024" height="1024" rx="264" fill="#CBFAE3"/>
    <path fill-rule="evenodd" clip-rule="evenodd"
          d="M608.095 523.511C602.402 534.517 595.06 544.153 586.082 552.405C577.104 560.645 566.639 567.261 554.71 572.193C542.793 577.149 530.057 579.639 516.492 579.639C502.904 579.639 490.18 577.149 478.24 572.193C466.323 567.261 455.87 560.645 446.891 552.405C437.902 544.153 430.572 534.517 424.878 523.511C419.208 512.504 415.808 500.956 414.725 488.854H449.381C450.476 496.565 452.942 503.803 456.792 510.591C460.629 517.379 465.597 523.43 471.636 528.743C477.698 534.057 484.579 538.182 492.278 541.11C499.977 544.049 508.044 545.524 516.492 545.524C524.917 545.524 532.985 544.049 540.684 541.11C548.383 538.182 555.275 534.057 561.326 528.743C567.376 523.43 572.321 517.379 576.17 510.591C580.019 503.803 582.497 496.565 583.592 488.854H618.26C617.154 500.956 613.765 512.504 608.095 523.511ZM466.254 436.161C477.284 436.161 486.239 445.105 486.239 456.134C486.239 467.164 477.284 476.119 466.254 476.119C455.224 476.119 446.28 467.164 446.28 456.134C446.28 445.105 455.224 436.161 466.254 436.161ZM566.973 436.161C578.003 436.161 586.946 445.105 586.946 456.134C586.946 467.164 578.003 476.119 566.973 476.119C555.943 476.119 546.988 467.164 546.988 456.134C546.988 445.105 555.943 436.161 566.973 436.161ZM932 511.501C932 506.096 931.712 500.726 931.274 495.401H703.317L924.313 457.852C921.328 447.398 917.548 437.129 912.88 427.125L694.085 464.283L893.633 393.691C887.34 384.494 880.379 375.55 872.691 366.917L676.578 436.299L845.411 339.96C836.859 332.48 827.755 325.288 818.154 318.419L652.49 412.949L786.84 298.215C777.02 292.499 766.809 287.082 756.229 281.999L623.85 395.039L723.463 267.731C713.055 263.651 702.406 259.836 691.445 256.356L592.743 382.511L658.472 247.009C647.88 244.347 637.058 242.041 626.074 239.955L560.645 374.847L593.297 234.688C582.659 233.294 571.883 232.187 560.98 231.334L528.375 371.331V229.663C523.039 229.536 517.714 229.387 512.332 229.387C506.915 229.387 501.532 229.536 496.15 229.675V371.297L463.557 231.346C452.666 232.21 441.878 233.305 431.24 234.7L463.891 374.881L398.474 239.99C387.49 242.064 376.668 244.381 366.077 247.043L431.782 382.511L333.103 256.39C322.154 259.871 311.504 263.697 301.097 267.777L400.675 395.039L268.354 282.046C257.774 287.128 247.574 292.557 237.743 298.273L372.046 412.949L206.452 318.465C196.851 325.346 187.746 332.526 179.206 340.017L347.936 436.288L151.949 366.964C144.273 375.596 137.301 384.528 131.008 393.737L330.452 464.283L111.784 427.137C107.116 437.152 103.347 447.41 100.339 457.875L321.209 495.401H93.4124C92.963 500.726 92.6748 506.096 92.6748 511.501C92.6748 516.919 92.963 522.278 93.4124 527.602H321.255L100.339 565.129C103.347 575.593 107.116 585.862 111.784 595.866L330.452 558.732L131.008 629.278C137.301 638.475 144.273 647.419 151.949 656.051L347.936 586.727L179.206 682.997C187.758 690.488 196.851 697.669 206.452 704.549L372.046 610.065L237.743 724.741C247.574 730.458 257.774 735.875 268.354 740.969L400.675 627.976L301.097 755.226C311.504 759.317 322.154 763.132 333.103 766.624L431.782 640.492L366.077 775.971C376.668 778.622 387.49 780.939 398.474 783.025L463.891 648.133L431.252 788.303C441.878 789.709 452.666 790.804 463.557 791.657L496.15 651.706V793.34C501.532 793.478 506.915 793.616 512.332 793.616C517.714 793.616 523.039 793.478 528.375 793.34V651.672L560.98 791.669C571.883 790.816 582.659 789.721 593.297 788.326L560.645 648.168L626.074 783.048C637.046 780.973 647.88 778.657 658.472 776.006L592.743 640.492L691.445 766.659C702.406 763.178 713.055 759.363 723.463 755.272L623.85 627.976L756.229 741.015C766.809 735.921 777.02 730.516 786.84 724.799L652.49 610.065L818.154 704.595C827.755 697.726 836.859 690.535 845.411 683.055L676.578 586.715L872.691 656.086C880.379 647.465 887.34 638.521 893.633 629.324L694.085 558.732L912.88 595.889C917.548 585.885 921.328 575.616 924.313 565.152L703.27 527.602H931.274C931.712 522.278 932 516.919 932 511.501Z"
          fill="#07906B"/>
</svg>
