<svg width="120" height="120" viewBox="0 0 120 120" fill="none" xmlns="http://www.w3.org/2000/svg">
<g clip-path="url(#clip0_11821_59508)">
<path d="M51.5908 0.0384914H36.331C36.331 20.0321 41.3727 32.6555 42.6812 36.0423H0V51.3021H50.7441C54.0346 56.1706 57.787 60 57.787 60C57.787 60 54.0154 63.8294 50.7441 68.6979H0V83.9577H42.662C41.3534 87.3445 36.3117 99.9872 36.3117 120H51.5715C51.5715 91.501 62.5208 76.703 69.3714 69.6408C72.7967 71.9115 79.3393 75.6639 87.0751 78.2617C75.1636 86.4593 69.0443 101.911 69.0443 120H84.304C84.304 98.6209 92.2899 83.9577 119.981 83.9577L119.962 68.6979C76.626 68.6979 51.5908 43.0083 51.5908 0.0384914Z" fill="#FA4022"/>
<path d="M120 51.3598V36.0423C92.309 36.0423 84.3231 21.3791 84.3231 0L69.0633 0.0577293C69.0633 33.8294 87.4405 51.3598 120 51.3598Z" fill="#FA4022"/>
</g>
<defs>
<clipPath id="clip0_11821_59508">
<rect width="120" height="120" fill="white"/>
</clipPath>
</defs>
</svg>
