<?xml version="1.0" encoding="UTF-8"?>
<!DOCTYPE svg PUBLIC "-//W3C//DTD SVG 1.1//EN" "http://www.w3.org/Graphics/SVG/1.1/DTD/svg11.dtd">
<!-- Creator: CorelDRAW 2018 (64-Bit) -->
<svg xmlns="http://www.w3.org/2000/svg" xml:space="preserve" width="10.1598mm" height="10.1598mm" version="1.1" style="shape-rendering:geometricPrecision; text-rendering:geometricPrecision; image-rendering:optimizeQuality; fill-rule:evenodd; clip-rule:evenodd"
viewBox="0 0 1015.98 1015.98"
 xmlns:xlink="http://www.w3.org/1999/xlink">
 <defs>
  <style type="text/css">
   <![CDATA[
    .fil1 {fill:#BE282F;fill-rule:nonzero}
    .fil2 {fill:#FEFEFE;fill-rule:nonzero}
    .fil0 {fill:url(#id2)}
    .fil3 {fill:url(#id3);fill-rule:nonzero}
   ]]>
  </style>
   <mask id="id0">
  <linearGradient id="id1" gradientUnits="userSpaceOnUse" x1="211.85" y1="420.77" x2="727.69" y2="425">
   <stop offset="0" style="stop-opacity:1; stop-color:white"/>
   <stop offset="1" style="stop-opacity:0; stop-color:white"/>
  </linearGradient>
    <rect style="fill:url(#id1)" x="507.76" y="41.62" width="344.26" height="850.12"/>
   </mask>
  <radialGradient id="id2" gradientUnits="userSpaceOnUse" gradientTransform="matrix(1.44154 -0 -0 1.44149 -224 -224)" cx="507.98" cy="507.99" r="247.03" fx="507.98" fy="507.99">
   <stop offset="0" style="stop-opacity:1; stop-color:#727271"/>
   <stop offset="1" style="stop-opacity:1; stop-color:#2B2A29"/>
  </radialGradient>
  <linearGradient id="id3" gradientUnits="userSpaceOnUse" x1="625.24" y1="573.28" x2="390.71" y2="338.77">
   <stop offset="0" style="stop-opacity:1; stop-color:#D9DADA"/>
   <stop offset="0.501961" style="stop-opacity:1; stop-color:#FEFEFE"/>
   <stop offset="1" style="stop-opacity:1; stop-color:#D9DADA"/>
  </linearGradient>
 </defs>
 <g id="Слой_x0020_1">
  <metadata id="CorelCorpID_0Corel-Layer"/>
  <path class="fil0" d="M507.88 -0.01l0.26 0c62.83,0.04 124.99,14.77 187.18,29.51 60.93,14.46 121.84,28.93 182.1,28.93l10.24 0 1.32 10.2c48.32,364.61 37.2,574.26 -27.46,706.39 -65.41,133.99 -183.97,187.48 -350.15,239.82l-3.23 1.07 0 0.08 -0.14 -0.04 -0.12 0.04 0 -0.08 -3.27 -1.07c-166.16,-52.34 -284.72,-105.83 -350.15,-239.82 -64.66,-132.13 -75.78,-341.78 -27.45,-706.39l1.31 -10.2 10.26 0c60.24,0 121.15,-14.47 182.08,-28.93 62.19,-14.74 124.35,-29.47 187.22,-29.51zm0.02 23.92l0.22 0c56.33,0.04 112.08,13.26 167.83,26.54 54.62,13 109.24,26.02 163.26,26.02l9.19 0 1.17 9.17c43.33,327.92 33.36,516.45 -24.59,635.27 -58.65,120.51 -164.97,168.63 -313.96,215.7l-2.9 0.97 0 0.06 -0.12 -0.04 -0.1 0.04 0 -0.06 -2.94 -0.97c-148.99,-47.07 -255.29,-95.19 -313.96,-215.7 -57.95,-118.82 -67.92,-307.35 -24.59,-635.27l1.17 -9.17 9.19 0c54.02,0 108.62,-13.02 163.26,-26.02 55.75,-13.28 111.5,-26.5 167.87,-26.54z"/>
  <path class="fil1" d="M507.88 41.88l0.22 0c52.57,0.04 104.57,12.36 156.58,24.7 50.96,12.07 101.92,24.18 152.3,24.18l8.57 0 1.12 8.54c40.4,304.88 31.11,480.19 -22.97,590.68 -54.73,112.06 -153.89,156.79 -292.88,200.57l-2.72 0.86 0 0.08 -0.1 -0.04 -0.12 0.04 0 -0.08 -2.72 -0.86c-138.99,-43.78 -238.15,-88.51 -292.87,-200.57 -54.09,-110.49 -63.38,-285.8 -22.97,-590.68l1.11 -8.54 8.57 0c50.38,0 101.34,-12.11 152.3,-24.18 52.01,-12.34 104.01,-24.66 156.58,-24.7z"/>
  <path class="fil2" style="mask:url(#id0)" d="M508.01 41.87c52.64,0 104.71,12.36 156.8,24.71 50.95,12.07 101.91,24.18 152.3,24.18l8.56 0 1.13 8.54c40.39,304.87 31.1,480.19 -22.97,590.69 -54.73,112.05 -153.89,156.78 -292.89,200.55l-2.93 0.95c0,-245.85 0,-806.34 0,-849.62z"/>
  <path class="fil3" d="M300.18 429.17l142.29 0 0 -140.4 55.07 0 0 334.53 -55.07 0 0 -148.35 -142.29 0 0 148.35 -55.03 0 0 -334.53 55.03 0 0 140.4zm307.72 194.43l-5.34 0c-63.84,0 -84.13,-19.4 -84.13,-80.56l0 -169.1c0,-66.73 21.61,-85.47 89.47,-85.47l162.92 0 0 45.59 -162.92 0c-28.08,1.34 -34.29,9.64 -34.29,41.88l0 160.87c0,30.8 10.14,39.52 34.29,41.13l0 0.07 162.92 0 0 45.59 -162.92 0z"/>
 </g>
</svg>
