<?xml version="1.0" encoding="UTF-8"?> <svg xmlns="http://www.w3.org/2000/svg" width="180" height="180" viewBox="0 0 180 180" fill="none"><path d="M141.429 0H38.5714C17.269 0 0 17.269 0 38.5714V141.429C0 162.731 17.269 180 38.5714 180H141.429C162.731 180 180 162.731 180 141.429V38.5714C180 17.269 162.731 0 141.429 0Z" fill="#804AFF"></path><path fill-rule="evenodd" clip-rule="evenodd" d="M66.1469 87.8668V114.021C66.1469 114.049 66.1496 114.063 66.1502 114.066C66.151 114.07 66.1519 114.073 66.1533 114.076C66.1568 114.085 66.168 114.105 66.192 114.129C66.2159 114.153 66.2367 114.165 66.2451 114.168C66.2484 114.17 66.2511 114.17 66.2551 114.171C66.2582 114.172 66.2719 114.175 66.3008 114.175H113.07C113.099 114.175 113.113 114.172 113.116 114.171C113.12 114.17 113.122 114.17 113.126 114.168C113.134 114.165 113.155 114.153 113.179 114.129C113.203 114.105 113.214 114.085 113.217 114.076C113.219 114.073 113.22 114.07 113.22 114.066C113.221 114.063 113.224 114.049 113.224 114.021V87.8668H140.916V114.021C140.916 129.4 128.449 141.867 113.07 141.867H66.3008C50.9218 141.867 38.4546 129.4 38.4546 114.021V87.8668H66.1469Z" fill="white"></path><ellipse cx="66.8159" cy="52.6366" rx="15" ry="15" fill="white"></ellipse><ellipse cx="110.817" cy="59.6359" rx="15" ry="15" fill="white"></ellipse></svg> 