<?xml version="1.0" encoding="UTF-8"?> <svg xmlns="http://www.w3.org/2000/svg" id="_Слой_2" data-name="Слой 2" viewBox="0 0 80.39 82.8"> <defs> <style> .cls-1 { fill: #ea0029; } .cls-2 { fill: #fff; } .cls-3 { fill: #ffcd00; } </style> </defs> <g id="Final_goriz_logos" data-name="Final goriz logos"> <g> <g> <path class="cls-1" d="M73.73,41.4c2.37-3.19,3.21-7.44,1.89-11.51-1.32-4.07-4.51-7.01-8.31-8.2,.04-3.97-1.76-7.91-5.23-10.42-3.46-2.52-7.76-3.02-11.54-1.75-2.3-3.24-6.08-5.37-10.36-5.37s-8.06,2.13-10.36,5.37c-3.77-1.27-8.07-.77-11.54,1.75-3.46,2.51-5.27,6.45-5.23,10.42-3.8,1.19-6.98,4.13-8.3,8.2-1.32,4.07-.48,8.32,1.89,11.52-2.37,3.19-3.22,7.44-1.89,11.5,1.32,4.08,4.51,7.02,8.3,8.2-.04,3.98,1.77,7.91,5.23,10.43,3.47,2.52,7.77,3.02,11.54,1.75,2.3,3.25,6.08,5.37,10.36,5.37s8.06-2.12,10.36-5.37c3.77,1.27,8.07,.77,11.54-1.75,3.46-2.52,5.27-6.45,5.23-10.43,3.8-1.18,6.98-4.12,8.31-8.2,1.32-4.07,.48-8.32-1.89-11.51Z"></path> <path class="cls-3" d="M40.2,4.15c4.28,0,8.06,2.13,10.36,5.37,1.32-.45,2.7-.67,4.09-.67,2.58,0,5.19,.78,7.44,2.42,3.46,2.51,5.27,6.45,5.23,10.42,3.8,1.19,6.98,4.13,8.31,8.2,1.32,4.07,.48,8.32-1.89,11.51,2.37,3.19,3.22,7.44,1.89,11.51-1.32,4.08-4.51,7.02-8.31,8.2,.04,3.98-1.76,7.91-5.23,10.43-2.25,1.63-4.85,2.42-7.44,2.42-1.39,0-2.78-.23-4.1-.68-2.3,3.25-6.08,5.37-10.36,5.37s-8.06-2.12-10.36-5.37c-1.32,.45-2.71,.68-4.1,.68-2.59,0-5.19-.79-7.44-2.42-3.46-2.52-5.27-6.45-5.23-10.43-3.8-1.18-6.98-4.12-8.3-8.2-1.32-4.06-.48-8.31,1.89-11.5-2.37-3.19-3.22-7.44-1.89-11.52,1.32-4.07,4.51-7.01,8.3-8.2-.04-3.97,1.77-7.91,5.23-10.42,2.25-1.64,4.86-2.42,7.44-2.42,1.39,0,2.77,.23,4.09,.67,2.3-3.24,6.08-5.37,10.36-5.37m0-4.15c-4.47,0-8.73,1.79-11.86,4.89-.85-.13-1.72-.2-2.59-.2-3.57,0-6.99,1.11-9.88,3.21-3.61,2.62-6.01,6.57-6.72,10.92-3.92,2.02-6.94,5.52-8.32,9.78-1.38,4.25-1,8.86,.98,12.8-1.98,3.93-2.36,8.54-.98,12.79,1.38,4.26,4.4,7.76,8.32,9.78,.71,4.35,3.11,8.3,6.72,10.92,2.89,2.1,6.31,3.21,9.88,3.21,.87,0,1.74-.07,2.59-.2,3.13,3.1,7.39,4.89,11.86,4.89s8.73-1.79,11.86-4.89c.86,.13,1.72,.2,2.6,.2,3.57,0,6.98-1.11,9.88-3.21,3.61-2.63,6.01-6.58,6.72-10.92,3.92-2.02,6.94-5.52,8.32-9.78,1.38-4.25,1-8.86-.98-12.79,1.98-3.94,2.36-8.54,.98-12.79-1.39-4.26-4.41-7.76-8.32-9.78-.71-4.35-3.11-8.3-6.72-10.92-2.89-2.1-6.31-3.21-9.88-3.21-.87,0-1.74,.07-2.59,.2-3.13-3.1-7.39-4.89-11.86-4.89h0Z"></path> </g> <path class="cls-2" d="M55.82,52.61c-.49-.98-1.14-1.28-1.78-1.7-.78-.52-.87-1.15-.87-1.71,0-1.63,0-19.31,0-20.11,0-1.61-1.02-4.34-4.19-4.34-.07,0-.14,0-.21,.01H29.82c-.61,0-1.78,.06-2.4,.18-1.07,.22-1.71,.5-2.31,1.15-.31,.33-.56,.81-.69,1.14-.13,.34-.22,.85-.22,1.21,0,.27,.02,.82,.36,1.48,.5,.98,1.14,1.28,1.78,1.7,.78,.52,.87,1.15,.87,1.71,0,1.63,0,19.56,0,20.36,0,1.6,1.02,4.34,4.19,4.34s4.19-2.87,4.2-4.34v-21.7h9.19v20.85c0,1.9,.54,3.32,1.75,4.07,.41,.25,.99,.59,2.01,.75,.59,.09,1.58,.11,2.01,.11,.61,0,1.78-.06,2.4-.18,1.07-.22,1.71-.49,2.31-1.15,.31-.33,.56-.8,.69-1.14,.13-.34,.22-.85,.22-1.21,0-.27-.02-.82-.36-1.48Z"></path> </g> </g> </svg> 