<svg xmlns="http://www.w3.org/2000/svg" version="1.1" xmlns:xlink="http://www.w3.org/1999/xlink" width="16" height="16"><svg xmlns="http://www.w3.org/2000/svg" version="1.1" xmlns:xlink="http://www.w3.org/1999/xlink" width="16" height="16"><svg width="16" height="16" viewBox="0 0 16 16" fill="none" xmlns="http://www.w3.org/2000/svg">
<path fill-rule="evenodd" clip-rule="evenodd" d="M15.1271 9.36988C14.7554 7.18061 12.677 5.70686 10.4851 6.07814L11.1322 2.41255L8.78992 2C8.5886 2.44017 7.70694 4.45057 7.27881 6.72013C8.1518 7.31417 8.79154 8.24755 8.98209 9.36988C9.18559 10.5682 8.83469 11.7318 8.11671 12.6012C8.29291 12.8151 8.49404 13.0134 8.72333 13.1926C9.64035 13.9092 10.75 14.1894 11.8313 14.0062C14.0233 13.6349 15.4989 11.5592 15.1271 9.36988Z" fill="#001536"></path>
<path fill-rule="evenodd" clip-rule="evenodd" d="M7.23362 6.96962C7.24799 6.88611 7.26316 6.80299 7.27879 6.72013C6.44893 6.1554 5.40829 5.89721 4.34003 6.07814L4.98716 2.41255L2.64487 2C2.43621 2.45626 1.49639 4.59942 1.0886 6.96962C0.76169 8.86977 0.776832 10.9157 1.78466 12.3557C2.00124 12.6651 2.26353 12.9466 2.57826 13.1926C3.4953 13.9092 4.605 14.1894 5.68629 14.0062C6.67846 13.8381 7.52293 13.3202 8.11668 12.6012C8.05099 12.5214 7.98849 12.4397 7.92968 12.3557C6.92186 10.9157 6.90672 8.86977 7.23362 6.96962Z" fill="#0071EB"></path>
</svg></svg><style>@media (prefers-color-scheme: light) { :root { filter: none; } }
@media (prefers-color-scheme: dark) { :root { filter: none; } }
</style></svg>