<svg width="78" height="49" viewBox="0 0 78 49" fill="none" xmlns="http://www.w3.org/2000/svg">
 <title>heroleague.ru favicon</title>
<path class="path" d="M15.078 44.074v4.66h-.668v-4.127h-2.404l-.534 2.93c-.134.798-.668 1.197-1.336 1.197h-.4v-.665h.4c.4 0 .668-.133.802-.533l.667-3.462h3.473zM17.081 44.074v3.862l3.473-3.862h.667v4.66h-.668v-3.86l-3.472 3.86h-.668v-4.66h.668zM23.316 44.979h3.515v-.772h-4.274v4.66h.759V44.98zM30.436 44.074l2.004 4.66h-.757l-.347-.798h-3.124l-.356.798h-.759l2.004-4.66h1.335zm-2 3.329h2.668l-1.068-2.796h-.527l-1.074 2.796zM40.587 44.074v.666H36.98v4.128h-.668v-4.66h4.274v-.134zM45.661 44.074v.666H42.19v1.331h3.205v.666H42.19v1.465h3.606v.666h-4.274v-4.66h4.14v-.134zM49.535 44.074c1.068 0 1.87.666 1.87 1.731s-.802 1.731-1.87 1.731H47.53v1.198h-.801v-4.66h2.805zM47.53 46.91h2.137c.802 0 1.07-.306 1.07-1.105 0-.666-.402-1.065-1.07-1.065h-2.137v2.17zM55.01 49c-1.468 0-2.67-.932-2.67-2.53 0-1.464 1.201-2.53 2.67-2.53 1.47 0 2.672.933 2.672 2.53 0 1.465-1.202 2.53-2.671 2.53zm0-.666c1.069 0 2.004-.665 2.004-1.864 0-1.198-.801-1.864-2.003-1.864-1.069 0-2.004.666-2.004 1.864 0 1.199.935 1.864 2.004 1.864zM62.89 44.074v.666h-3.472v1.331h3.205v.666h-3.205v1.465h3.606v.666H58.75v-4.66h4.14v-.134zM67.03 44.207c.802 0 1.47.4 1.47 1.065 0 .4-.134.666-.401.932.534.133.801.666.801 1.199 0 .799-.668 1.464-1.603 1.464h-3.205v-4.66h2.938zm-2.27 1.864h2.404c.4 0 .668-.266.668-.666s-.36-.665-.802-.665h-2.27v1.331zm0 2.13h2.404c.668 0 .935-.399.935-.798 0-.533-.267-.8-.802-.8h-2.67v1.599h.133zM34.862 36.35l-1.87-.532-2.537-2.663 4.14 1.065 1.068.799v-1.997L27.516 24.1l3.74-.267-24.44-21.97 2.67 6.125L.672 0l9.616 16.111 4.14 3.595 1.202 2.93-2.938-2.663 6.143 10.253 7.346 1.864 5.209 4.66h3.605l.668 1.864V36.75l1.736-.533-2.537.133zM43.81 36.35l1.87-.532 2.404-2.663-4.14 1.065-.935.799v-1.997l8.147-8.921-3.873-.267 24.44-21.97-2.537 6.125L78 0l-9.75 16.111-4.006 3.595-1.336 2.93 3.072-2.663-6.277 10.253-7.212 1.864-5.209 4.66h-3.605l-.668 1.864V36.75l-1.87-.533 2.671.133z" fill="#000"/>
<path class="path" d="M34.862 36.35l-1.87-.532-2.537-2.663 4.14 1.065 1.068.799v-1.997L27.516 24.1l3.74-.267-24.44-21.97 2.67 6.125L.672 0l9.616 16.111 4.14 3.595 1.202 2.93-2.938-2.663 6.143 10.253 7.346 1.864 5.209 4.66h3.605l.668 1.864V36.75l1.736-.533-2.537.133zM43.81 36.35l1.87-.532 2.404-2.663-4.14 1.065-.935.799v-1.997l8.147-8.921-3.873-.267 24.44-21.97-2.537 6.125L78 0l-9.75 16.111-4.006 3.595-1.336 2.93 3.072-2.663-6.277 10.253-7.212 1.864-5.209 4.66h-3.605l-.668 1.864V36.75l-1.87-.533 2.671.133z" fill="#000"/>
  <style>
    .path {
      fill: #000;
    }
    @media (prefers-color-scheme: dark) {
      .path {
        fill: #fff;
      }
    }
  </style>
</svg>
