<svg width="40" height="41" viewBox="0 0 40 41" fill="none" xmlns="http://www.w3.org/2000/svg">
  <rect y="0.0322266" width="40" height="40" rx="10" fill="url(#paint0_radial_4281_6318)"/>
  <path d="M26.397 27.5892C26.397 27.5892 27.494 22.4257 23.7214 21.5499C24.562 21.5091 25.2591 21.3869 25.823 21.2138C28.4679 20.4092 28.6934 18.1992 28.7447 15.7142C28.7754 14.0644 28.6627 12.4756 28.6627 12.4756C28.2758 12.5242 27.8587 12.5681 27.4264 12.6136C25.957 12.7682 24.3111 12.9414 23.0755 13.382C21.3737 13.9829 20.2563 15.1235 20 17.2623C19.7335 15.1235 18.6263 13.9829 16.9245 13.382C15.6889 12.9414 14.0432 12.7682 12.5739 12.6136C12.1415 12.5681 11.7242 12.5242 11.3373 12.4756C11.3373 12.4756 11.2246 14.0644 11.2553 15.7142C11.3066 18.189 11.5424 20.4092 14.177 21.2138C14.7409 21.3869 15.438 21.499 16.2786 21.5499C12.506 22.4257 13.6029 27.5892 13.6029 27.5892L15.2931 27.4191C17.5621 27.189 19.1475 27.0282 19.9897 23.9839C20.8315 27.0265 22.4256 27.1888 24.6827 27.4187L24.7568 27.4263L26.397 27.5892Z" fill="white"/>
  <defs>
    <radialGradient id="paint0_radial_4281_6318" cx="0" cy="0" r="1" gradientUnits="userSpaceOnUse" gradientTransform="translate(36.4324 -0.848422) rotate(130.469) scale(54.2635)">
      <stop stop-color="#E789C0"/>
      <stop offset="0.463542" stop-color="#D9439A"/>
      <stop offset="0.713542" stop-color="#D01481"/>
      <stop offset="1" stop-color="#F0B1D5"/>
    </radialGradient>
  </defs>
</svg>
