<?xml version="1.0" encoding="UTF-8"?> <svg xmlns="http://www.w3.org/2000/svg" width="180" height="180" viewBox="0 0 180 180" fill="none"><path d="M97.8497 163.058C97.5421 161.46 97.2727 159.853 96.9794 158.251C96.7169 156.817 96.4395 155.386 96.1775 153.952C95.9309 152.602 95.6689 151.255 95.4627 149.898C95.2298 148.368 95.0442 146.83 94.8517 145.293C94.6482 143.67 94.426 142.048 94.2761 140.42C94.1121 138.637 94.0935 136.839 93.8801 135.064C93.6308 132.989 93.9114 130.992 94.4705 129.021C94.565 128.688 94.9467 128.441 95.1955 128.154C95.4495 128.435 95.7099 128.711 95.9523 129.002C95.9963 129.055 95.9496 129.177 95.9757 129.257C96.3626 130.43 96.6227 131.671 97.1703 132.759C99.0223 136.44 100.894 140.116 102.917 143.7C104.57 146.629 106.349 149.497 108.256 152.259C110.207 155.082 112.281 157.784 115.206 159.749C116.906 160.891 120.042 159.962 120.905 158.493C121.915 156.773 121.386 154.989 121.353 153.069C122.003 153.544 122.679 153.955 123.261 154.478C124.888 155.937 126.677 156.989 128.801 157.569C130.182 157.946 133.316 156.772 133.945 155.184C134.176 154.602 134.477 154.62 134.898 154.632C136.757 154.687 138.627 154.893 140.474 154.762C142.376 154.627 143.428 154.274 143.912 152.059C144.226 150.621 144.42 149.216 144.168 147.792C143.917 146.374 143.681 144.902 143.114 143.603C142.091 141.261 140.627 139.205 138.293 138.012C136.26 136.973 134.22 135.944 132.161 134.961C131.032 134.422 129.857 133.986 128.702 133.504C129.633 133.39 130.52 133.498 131.41 133.557C135.041 133.795 138.671 134.142 142.306 134.209C145.576 134.268 148.853 134.039 152.124 133.889C154.468 133.782 156.758 133.407 158.914 132.354C161.268 131.205 162.027 127.593 160.332 125.543C159.395 124.411 158.164 123.868 156.693 123.516C158.258 123.273 159.708 123.125 161.123 122.807C162.96 122.395 164.798 121.938 166.579 121.329C167.808 120.908 168.995 120.286 170.099 119.585C170.903 119.073 171.447 118.157 171.14 117.143C170.636 115.477 170.309 113.663 168.63 112.713C168.674 112.594 168.68 112.529 168.714 112.49C170.919 109.968 173.243 107.546 174.208 104.142C174.505 103.097 174.468 102.254 173.577 101.57C172.361 100.638 170.973 100.135 169.478 99.8777C167.779 99.5852 166.095 99.2068 164.4 98.891C163.275 98.6817 162.144 98.516 160.984 98.3255C161.215 97.5828 161.543 96.9244 161.612 96.2386C161.844 93.9401 161.341 92.6331 159.08 93.0005C157.001 93.3383 154.94 93.8271 152.895 94.3506C151.451 94.7203 150.049 95.2657 148.625 95.7199C147.255 96.1569 145.87 96.5466 144.51 97.0148C143.325 97.4225 142.167 97.9111 140.879 98.4098C141.383 95.927 141.089 93.5625 140.587 91.2643C139.988 88.5226 139.01 87.4508 135.941 87.4094C133.668 87.379 131.463 87.8658 129.354 88.7905C129.018 88.9376 128.503 88.9342 128.178 88.7731C127.084 88.2321 125.938 88.1921 124.939 88.7269C123.713 89.3836 122.457 90.1539 121.517 91.1702C118.498 94.4337 116.11 98.1937 113.82 102.021C112.943 103.486 112.085 105.031 110.914 106.226C108.751 108.434 106.364 110.409 103.921 112.616C103.972 112.247 103.967 112.101 104.014 111.976C104.835 109.789 105.658 107.601 106.492 105.419C107.837 101.9 109.412 98.4932 111.254 95.2204C112.31 93.3436 113.546 91.6013 115.28 90.314C117.166 88.9142 119.093 87.5722 120.985 86.1812C123.314 84.4699 125.656 82.7769 127.934 80.9976C130.277 79.1676 132.622 77.3281 134.416 74.8721C135.775 73.012 134.823 70.51 132.579 70.1406C131.569 69.9744 130.558 69.8113 129.569 69.6504C129.95 68.4036 130.37 67.0882 130.753 65.7617C130.981 64.9691 131.263 64.1681 131.325 63.3553C131.46 61.5828 131.667 59.7762 131.465 58.0293C131.311 56.6947 130.572 55.4316 130.097 54.1353C129.39 52.2075 128.686 50.2787 128.021 48.4608C125.376 47.9331 122.919 48.1272 120.644 49.2767C119.435 49.8879 118.661 49.6774 117.671 48.8327C116.349 47.7066 113.804 47.7477 112.763 49.8062C111.887 51.5367 110.947 53.2334 110.063 54.8948C110.063 54.8948 110.032 54.8247 110.03 54.7452C109.925 48.9167 109.842 43.0875 109.707 37.2595C109.665 35.4504 108.981 34.4691 107.02 34.6198C106.225 34.681 105.444 34.9447 104.658 35.123C103.673 35.3467 102.77 35.7181 102.201 36.6459C102.021 36.9389 101.86 37.2435 101.69 37.543C101.282 36.5335 101.164 35.7674 100.909 35.0523C100.143 32.8995 99.3485 30.7565 98.5186 28.6287C97.5786 26.2189 96.1361 24.1536 94.2341 22.444C93.1573 21.4759 91.9787 20.663 90.5004 20.492C87.8787 20.1888 86.0794 21.7134 84.4218 23.4614C82.9798 24.9817 81.9758 26.8075 81.0875 28.7197C80.0272 31.0019 79.1385 33.3319 78.6371 35.8139C78.5355 36.3162 78.3092 36.7921 78.1183 37.3446C77.615 36.7811 77.2656 36.1627 76.7428 35.8491C75.312 34.9912 73.7325 34.5429 72.0568 34.61C71.0569 34.65 70.1954 35.3374 70.1405 36.2799C70.0603 37.661 69.8546 39.0374 69.8277 40.4185C69.7387 44.9741 69.7058 49.5306 69.6522 54.0871C69.6487 54.3854 69.6517 54.6841 69.6517 54.8802C68.6749 53.0722 67.7409 51.182 66.6394 49.4004C66.2964 48.8457 65.5456 48.387 64.9017 48.2315C63.5036 47.8934 62.23 48.3819 61.2122 49.4244C60.7533 49.8943 60.3716 49.8042 59.8309 49.5805C58.7047 49.1145 57.5574 48.5698 56.3743 48.414C54.8582 48.2143 53.2978 48.3656 51.7128 48.3656C51.495 49.0085 51.3083 49.6295 51.0762 50.2324C50.2768 52.3115 49.4648 54.3857 48.6505 56.4589C48.2059 57.5915 48.0689 58.7557 48.0656 59.9816C48.0587 62.6526 48.6321 65.1796 49.557 67.6511C49.8091 68.3248 49.9648 69.0365 50.14 69.6448C49.0594 69.8147 48.0096 69.9637 46.9658 70.1471C45.426 70.4176 43.7278 72.8139 45.0056 74.3965C45.7882 75.366 46.4816 76.4375 47.381 77.276C48.9974 78.7833 50.6791 80.2335 52.441 81.5574C56.0097 84.2391 59.6796 86.7794 63.2455 89.465C64.5633 90.4574 65.8746 91.557 66.8838 92.857C68.0378 94.3436 68.9036 96.0789 69.7983 97.7601C70.6087 99.2829 71.3411 100.855 72.015 102.447C73.0583 104.911 74.0376 107.404 75.0116 109.897C75.3236 110.695 75.5334 111.535 75.8665 112.601C74.1037 111.072 72.5994 109.64 70.9665 108.384C68.8372 106.745 67.374 104.556 65.9372 102.343C64.6147 100.305 63.4561 98.1534 62.1061 96.1358C60.6787 94.0024 59.1482 91.9126 57.188 90.2624C55.5093 88.8491 53.6892 87.5835 51.3505 88.9201C51.1995 89.0064 50.9504 88.9824 50.7692 88.9294C50.2403 88.7748 49.7174 88.5939 49.202 88.3967C47.1846 87.6255 45.1022 87.237 42.9542 87.4001C41.0363 87.5455 40.1158 88.3245 39.488 89.9573C38.7738 91.8148 38.6255 93.8068 38.5865 95.792C38.57 96.6364 38.6499 97.4831 38.6872 98.3608C37.298 97.8316 35.9982 97.2895 34.668 96.8413C32.9146 96.2507 31.1375 95.734 29.371 95.1849C27.918 94.7332 26.4806 94.2165 25.0082 93.8465C23.5502 93.48 22.0673 93.1647 20.577 93.0019C18.7766 92.8049 18.1334 93.216 18.0703 95.1637C18.0368 96.2014 18.4015 97.2529 18.5929 98.3345C17.5886 98.5101 16.5212 98.771 15.4398 98.8713C12.5214 99.142 9.69263 99.7346 7.00552 100.977C5.53881 101.656 4.99012 102.756 5.40589 104.369C5.88509 106.229 7.09038 107.657 8.16934 109.143C9.06486 110.376 10.1037 111.499 11.0951 112.691C10.8098 112.912 10.5299 113.076 10.3152 113.305C9.22633 114.462 8.75811 115.938 8.54913 117.463C8.3547 118.884 9.43504 119.635 10.441 120.231C12.7897 121.622 15.431 122.169 18.048 122.727C19.6161 123.062 21.216 123.238 22.6415 123.461C21.8427 123.892 20.8983 124.286 20.0794 124.868C18.6703 125.867 18.5105 127.389 18.5075 129.035C18.5045 130.521 19.2281 131.742 20.6616 132.308C21.8396 132.773 23.0721 133.157 24.3142 133.373C26.4414 133.743 28.5932 134.17 30.7372 134.185C35.48 134.217 40.2254 134.027 44.9682 133.882C46.2032 133.845 47.4326 133.634 48.6656 133.514C49.4307 133.44 50.1977 133.387 50.9639 133.325C50.4397 133.735 49.8712 133.918 49.325 134.155C47.9332 134.759 46.5574 135.4 45.1646 136.001C43.0042 136.932 40.8998 137.953 39.1956 139.666C37.1524 141.72 36.0482 144.277 35.5457 147.105C35.2373 148.84 35.2947 150.576 35.8315 152.309C36.269 153.722 36.7509 154.505 38.1633 154.593C40.3174 154.728 42.4849 154.643 44.6464 154.636C45.1297 154.635 45.4977 154.583 45.7685 155.218C46.4649 156.85 49.4217 157.877 50.6217 157.632C52.6423 157.217 54.3395 156.198 55.9438 154.952C56.7335 154.339 57.517 153.717 58.306 153.098C58.4968 154.359 57.7477 155.419 58.2225 156.69C58.6778 157.91 58.7643 159.248 60.2805 159.649C60.4886 159.704 60.6754 159.867 60.8569 160.002C61.6508 160.592 62.5532 160.738 63.3842 160.277C64.5109 159.652 65.6604 158.984 66.6013 158.109C68.7438 156.117 70.5121 153.781 72.0518 151.262C73.8464 148.326 75.769 145.469 77.4735 142.479C79.3112 139.257 80.9466 135.913 82.6986 132.638C83.6029 130.948 84.7915 129.477 86.3559 128.393C87.2429 127.779 88.4595 127.72 88.9763 128.914C89.3819 129.852 89.8128 130.886 89.818 131.88C89.8468 137.305 89.7062 142.732 89.704 148.158C89.7021 153.06 89.8032 157.962 89.8592 162.864C89.8603 162.951 89.8611 163.039 89.8715 163.125L97.8497 163.058Z" fill="#2BA04C"></path></svg> 