<svg width="32" height="32" viewBox="0 0 32 32" fill="none" xmlns="http://www.w3.org/2000/svg">
<g clip-path="url(#clip0)">
<path fill-rule="evenodd" clip-rule="evenodd" d="M25.2965 3.50753C22.9918 1.88953 12.3818 0.335123 9.44725 1.98919C6.51681 3.64202 0.237628 9.91632 0.172425 14.5582C0.106321 19.1979 3.96561 27.6798 6.74273 28.6442C9.52108 29.6101 20.573 30.7747 22.5906 30.1638C24.6076 29.5503 31.5543 20.6527 31.8685 17.5931C32.1784 14.5365 27.5991 5.12433 25.2965 3.50753V3.50753Z" fill="#E74011"/>
<path fill-rule="evenodd" clip-rule="evenodd" d="M21.2983 21.8525C21.2737 21.8525 21.2462 21.8509 21.22 21.85L9.93679 20.8028C9.51733 20.7627 9.18937 20.424 9.1635 20.0049L8.49643 8.99383C8.47589 8.63423 8.68092 8.29997 9.01386 8.15725C9.3456 8.01583 9.73013 8.09875 9.97415 8.36405L12.8944 11.5204L15.7605 7.05965C15.9253 6.80139 16.2176 6.65248 16.5256 6.66854C16.8331 6.68778 17.1062 6.86903 17.2427 7.14459L19.6734 12.0825L23.7302 8.99587C24.0209 8.77642 24.4182 8.76331 24.7185 8.9655C25.0246 9.16724 25.1665 9.53956 25.0731 9.8905L22.1249 21.2145C22.026 21.5926 21.6837 21.8525 21.2983 21.8525V21.8525ZM10.8246 19.1701L20.6553 20.0828L22.799 11.8505L19.8825 14.0688C19.679 14.2233 19.4188 14.2791 19.1697 14.2204C18.9193 14.1606 18.7126 13.9961 18.6003 13.767L16.3796 9.25499L13.7333 13.3692C13.5919 13.5927 13.3537 13.7345 13.0891 13.7587C12.8276 13.7805 12.5696 13.6816 12.3905 13.4885L10.3444 11.278L10.8246 19.1701ZM21.5719 23.5894C21.5719 23.1186 21.1893 22.7365 20.717 22.7365H10.0595C9.58752 22.7365 9.20533 23.1186 9.20533 23.5894C9.20533 24.061 9.58752 24.4431 10.0595 24.4431H20.717C21.1893 24.4431 21.5719 24.061 21.5719 23.5894Z" fill="#FFE500"/>
</g>
<defs>
<clipPath id="clip0">
<rect width="32" height="32" fill="white"/>
</clipPath>
</defs>
</svg>
