<svg width="256" height="256" viewBox="0 0 256 256" fill="none" xmlns="http://www.w3.org/2000/svg">
<rect width="256" height="256" rx="40" fill="white"/>
<path d="M227.1 191.1C213.675 172.915 206.561 151.192 206.537 128.266C206.561 105.364 213.675 83.6404 227.1 65.4553C227.856 64.4175 229.062 62.2475 229.062 62.2475C233.529 54.2753 232.985 44.0624 226.863 36.5147C222.325 30.9247 215.66 28 208.948 28C203.866 28 198.714 29.6982 194.459 33.1419C175.716 48.308 151.939 56.6811 127.5 56.6811C103.061 56.6811 79.2837 48.308 60.5407 33.1419C50.6611 25.1461 36.149 26.6556 28.1365 36.5147C22.0149 44.0624 21.4713 54.2753 25.9384 62.2475C25.9384 62.2475 27.1438 64.4175 27.9002 65.4553C41.3251 83.6404 48.4394 105.364 48.463 128.266C48.463 151.192 41.3251 172.915 27.9002 191.1C27.1438 192.138 25.9384 194.308 25.9384 194.308C21.4713 202.28 22.0149 212.493 28.1365 220.041C32.6745 225.631 39.3397 228.556 46.0522 228.556C51.1338 228.556 56.2863 226.857 60.5407 223.414C79.2837 208.248 103.061 199.874 127.5 199.874C151.939 199.874 175.716 208.248 194.459 223.414C204.339 231.41 218.851 229.9 226.863 220.041C232.985 212.493 233.529 202.28 229.062 194.308C229.062 194.308 227.856 192.138 227.1 191.1ZM163.331 158.15C163.331 158.15 163.355 158.174 163.355 158.197C151.679 155.39 139.649 153.904 127.5 153.904C115.351 153.904 103.321 155.39 91.6686 158.197V158.15C93.5831 148.432 94.5522 138.455 94.5522 128.337C94.5522 118.218 93.5595 108.123 91.6214 98.3584C103.297 101.165 115.351 102.651 127.5 102.651C139.649 102.651 151.703 101.165 163.379 98.3584C161.441 108.123 160.448 118.147 160.448 128.337C160.448 138.526 161.417 148.432 163.331 158.15Z" fill="#9368FC"/>
</svg>
