<svg width="96" height="96" viewBox="0 0 96 96" fill="none" xmlns="http://www.w3.org/2000/svg">
<rect width="96" height="96" fill="#EFE5D8"/>
<path fill-rule="evenodd" clip-rule="evenodd" d="M47.8671 11.2C27.6445 11.2 11.1997 27.8557 11.1997 48.3376C11.1997 52.9517 11.9775 57.4532 13.5331 61.5046C17.9776 56.3278 24.0888 53.1768 30.9779 53.1768C35.978 53.1768 41.4225 54.9774 45.0893 58.241C43.3114 57.4532 41.0892 57.1156 38.5336 57.4532C41.867 57.1156 44.9781 58.241 47.2004 60.3792C48.0893 61.5046 48.756 62.7425 49.0893 64.093V64.2055C49.0893 64.4306 49.2004 64.6557 49.3116 64.9933C49.4227 65.4434 49.5338 65.781 49.5338 66.2312C49.6449 67.1315 49.756 68.1444 49.756 68.482V68.5945C49.5338 68.5945 49.3116 68.5945 48.9782 68.5945L44.4226 62.8551C44.7559 62.8551 45.0893 62.8551 45.5337 62.8551C45.9782 62.8551 46.3115 62.8551 46.756 62.9676C45.4226 61.9547 43.7559 61.2795 41.7559 61.2795C34.9779 61.2795 29.6445 68.2569 29.6445 75.1217C29.6445 77.2599 30.089 79.3982 30.9779 81.3113C34.089 82.9994 37.4224 84.1248 40.8669 84.8C40.6447 84.8 40.4225 84.6875 40.2003 84.6875C39.0891 83.5621 37.978 82.4367 37.3113 81.5364C37.3113 81.5364 37.3113 81.5364 37.4224 81.4239C37.978 81.1988 38.4225 80.8612 38.8669 80.5236C39.3114 80.0734 39.6447 79.6232 39.978 79.0606C40.6447 78.948 41.4225 78.7229 41.9781 78.3853C42.5336 78.0477 43.0892 77.5976 43.4226 77.0349C43.6448 77.0349 43.7559 76.9223 43.9781 76.9223C44.5337 76.8098 44.9781 76.5847 45.4226 76.3596C45.9782 76.022 46.5337 75.4593 47.0893 74.7841C47.8671 74.8966 48.5338 74.6716 49.2004 74.4465C49.4227 74.334 49.5338 74.2214 49.756 74.1089C49.9782 74.4465 50.0894 74.6716 50.5338 75.5719C50.8671 76.2471 51.3116 78.7229 51.6449 80.6361L52.5338 79.2856L61.7562 82.8869C61.534 82.9994 61.3118 82.9994 61.2007 83.1119C74.7565 77.7101 84.5345 64.2055 84.5345 48.3376C84.5345 27.8557 68.0897 11.2 47.8671 11.2ZM25.4222 55.7651C20.5332 57.2281 16.9776 60.0416 14.422 63.5303C14.5331 63.6428 14.5331 63.7554 14.5331 63.8679C14.6442 64.093 14.7553 64.3181 14.8664 64.4306C17.3109 60.7168 21.5332 57.1156 25.4222 55.7651ZM27.5334 68.9321C25.6444 72.1957 25.2 75.2343 25.7555 77.9352C26.0889 78.1603 26.3111 78.3853 26.6445 78.6104C25.9778 75.5719 26.2 72.0832 27.5334 68.9321ZM19.0887 71.2954C19.5332 71.9707 20.0888 72.6459 20.6443 73.2086C21.9777 64.2055 29.5334 58.6911 37.0891 57.5658C26.4222 58.9162 20.4221 64.6557 19.0887 71.2954ZM57.3117 38.4343L55.4228 38.7719L54.8672 40.0098L47.6449 39.7847L49.5338 43.8361C49.9782 43.9486 50.4227 44.1737 50.756 44.5113C51.2005 44.9615 51.5338 45.6367 51.5338 46.3119C51.5338 46.6496 51.4227 46.9872 51.3116 47.3248C51.3116 47.4373 51.2005 47.5499 51.2005 47.6624L53.5339 53.0642C53.7561 53.2893 55.645 52.9517 56.0895 52.9517C56.7561 52.8392 57.0895 52.5015 57.0895 51.9388L56.4228 49.6881L56.9784 48.3376C56.2006 48.1125 55.5339 47.8875 54.9783 47.5499C54.7561 47.2122 54.8672 46.9872 55.2006 46.8746L57.645 46.0869L56.9784 44.7364C56.8673 44.3988 56.9784 44.1737 57.3117 44.0612L59.2006 43.3859C59.9784 43.2734 58.4228 40.685 57.3117 38.4343ZM71.0898 38.4343C70.8675 38.6593 70.7564 38.997 70.7564 39.3346C70.7564 39.6722 70.7564 40.0098 70.8675 40.2349C71.0898 40.7976 71.4231 41.2477 71.9787 41.4728C71.6453 41.0226 71.4231 40.5725 71.312 40.1223C71.2009 39.6722 71.312 39.1095 71.5342 38.7719C71.7564 38.4343 72.2009 38.0966 72.5342 37.6465C72.7565 37.4214 72.8676 37.1963 72.9787 36.8587C73.0898 36.5211 73.0898 36.296 72.9787 35.9584C72.9787 36.5211 72.6453 36.8587 72.2009 37.1963C71.9787 37.6465 71.4231 37.8716 71.0898 38.4343ZM67.5341 41.1352C67.2008 40.5725 66.8674 40.0098 66.8674 39.4471C66.7563 38.8844 66.9786 38.3217 67.3119 37.8716C67.7564 37.4214 68.2008 37.0838 68.5341 36.5211C68.7564 36.296 68.8675 35.9584 68.8675 35.5083C68.8675 35.1707 68.6453 34.833 68.3119 34.7205C68.5342 34.9456 68.6453 35.2832 68.5341 35.5083C68.5341 35.7333 68.3119 35.9584 68.0897 36.1835C67.6452 36.6337 67.2008 36.9713 66.7563 37.4214C66.5341 37.6465 66.3119 37.9841 66.3119 38.3217C66.2008 38.6593 66.2008 38.997 66.3119 39.3346C66.5341 40.3474 66.9786 40.7976 67.5341 41.1352ZM70.5342 35.8459C70.4231 35.9584 70.312 36.1835 70.0897 36.296C69.9786 36.4086 69.7564 36.6337 69.6453 36.7462C69.3119 37.0838 68.8675 37.4214 68.6453 37.8716C68.3119 38.3217 68.2008 38.997 68.3119 39.5596C68.423 40.1223 68.6453 40.5725 68.8675 41.0226C69.2008 41.4728 69.5342 41.6979 69.9786 41.9229C69.5342 41.1352 69.2008 40.2349 69.2008 39.5596C69.2008 39.222 69.3119 38.8844 69.5342 38.5468C69.7564 38.2092 70.0897 37.9841 70.4231 37.6465C71.0898 37.0838 71.9787 36.1835 71.8675 34.9456C71.8675 34.608 71.7564 34.3829 71.5342 34.1578C71.312 33.9327 71.0898 33.8202 70.8675 33.7077C70.4231 33.4826 69.9786 33.37 69.6453 33.145C69.8675 33.5951 70.312 33.8202 70.5342 34.1578C70.8675 34.4954 70.9786 34.7205 70.9786 35.0581C70.9786 35.1707 70.7564 35.5083 70.5342 35.8459ZM78.8677 52.6141C79.201 52.0514 79.3121 51.3762 78.7566 51.8263L76.0899 55.0899C75.5343 55.5401 75.5343 54.7523 75.7565 54.4147L81.5344 48.2251C82.09 47.6624 81.2011 47.7749 80.7566 48.1125L74.9787 52.6141C74.5343 52.9517 74.4232 52.1639 74.6454 51.9388L81.2011 46.3119C81.3122 45.9743 80.7566 45.8618 79.9788 46.1994L68.9786 52.8392C68.423 53.0642 67.8675 52.9517 67.5341 52.7266C67.3119 52.6141 64.8674 48.5627 63.2007 48.3376C62.8674 48.3376 62.6451 48.4502 62.6451 48.7878C64.7563 50.4759 65.9785 53.6269 65.9785 58.5786C65.9785 58.9162 65.7563 59.2538 65.7563 59.3664L70.4231 61.167C70.4231 61.0544 70.5342 60.6043 70.8675 60.2667C72.2009 58.9162 75.8676 57.7908 76.4232 57.0031L78.8677 52.6141ZM54.9783 75.2343C55.4228 75.5719 56.0895 75.6844 56.7561 75.5719L64.2007 63.5303L63.0896 63.0801L54.9783 75.2343ZM67.3119 64.7682L61.2007 77.7101C61.3118 78.4979 62.4229 79.2856 63.5341 79.2856L68.6453 65.3309L67.3119 64.7682ZM64.6452 63.7554L57.3117 76.022C57.4228 77.0349 58.9784 77.9352 60.3118 77.485L66.7563 64.5431L64.6452 63.7554ZM54.4228 76.022C54.645 76.1346 54.7561 76.2471 54.9783 76.2471C55.4228 76.4722 55.9784 76.4722 56.5339 76.4722C56.7561 77.1474 57.3117 77.7101 57.8673 78.0477C58.534 78.3853 59.3117 78.4979 60.0895 78.3853C60.2007 78.3853 60.3118 78.3853 60.3118 78.3853C60.534 78.948 61.0896 79.3982 61.6451 79.7358C62.0896 79.9609 62.534 80.0734 63.0896 80.1859L62.3118 82.2116L52.7561 78.3853L54.4228 76.022ZM62.9785 43.1609C62.534 43.9486 63.0896 45.2991 63.4229 46.1994C69.5342 44.3988 72.8676 47.5499 76.6454 46.1994C76.8676 45.7492 76.9788 45.1866 76.9788 44.6239C76.9788 44.0612 76.8676 43.2734 76.6454 42.7107C71.0898 44.3988 69.2008 41.3603 62.9785 43.1609ZM63.6452 46.9872C64.7563 48.9003 67.2008 50.1382 69.9786 50.1382C72.5342 50.1382 74.8676 49.0129 76.0899 47.3248C71.8675 47.4373 68.5342 45.5242 63.6452 46.9872ZM69.0897 64.5431L70.0897 61.9547L65.2008 60.0416L63.6452 62.4049L69.0897 64.5431ZM31.6445 43.611C26.7556 30.1064 38.6447 18.8526 50.2005 22.4538C49.756 23.3541 49.4227 24.2544 49.3116 25.2673C46.8671 24.4795 44.4226 24.367 42.2003 24.9297C39.978 25.4924 37.8669 26.7303 36.2002 28.4184C34.5335 30.1064 33.4224 32.2447 32.9779 34.7205C32.5335 37.0838 32.6446 39.6722 33.6446 42.4856C32.9779 42.8233 32.3112 43.1609 31.6445 43.611ZM57.2006 16.9395C55.9784 16.1517 54.7561 15.589 53.3116 15.1388L52.7561 15.589L53.0894 15.0263C52.8672 15.0263 52.7561 14.9138 52.5338 14.9138L51.2005 16.8269L52.0894 14.9138C48.8671 14.126 45.4226 14.126 42.0892 14.5762L41.867 15.3639V14.6887C41.7559 14.6887 41.5336 14.6887 41.4225 14.8012L41.0892 18.7401L40.7558 14.9138C40.5336 14.9138 40.3114 15.0263 40.0892 15.0263L40.2003 16.8269L39.6447 15.1388C37.5336 15.7015 35.6446 16.4893 33.9779 17.3896L34.9779 20.0905L33.7557 17.6147C33.4224 17.8398 32.9779 18.0648 32.6446 18.2899L34.4224 21.3285L32.2001 18.515C31.4223 19.0777 30.7556 19.6404 30.2001 20.3156C29.6445 20.8783 29.0889 21.5535 28.6445 22.2288L30.089 23.5792L28.4223 22.7914C27.3111 24.5921 26.5333 26.5052 25.9778 28.6434L27.9778 29.5437H25.7555C25.4222 31.3444 25.3111 33.2575 25.4222 35.1707L26.7556 34.9456L25.5333 35.8459C25.5333 36.071 25.5333 36.296 25.5333 36.5211L26.2 35.9584L25.5333 36.8587C25.6444 37.6465 25.7555 38.5468 25.9778 39.4471C26.3111 40.7976 26.7556 42.3731 27.2 43.9486L28.7556 43.1609L27.3111 44.1737C27.3111 44.2862 27.4222 44.5113 27.4222 44.6239L28.2 43.9486L27.5334 44.8489C28.0889 47.3248 28.5334 49.8006 27.9778 51.4887C30.2001 49.6881 31.7557 46.6496 30.5334 42.9358C29.3112 38.997 29.3112 35.2832 30.4223 32.0196C31.2001 29.6563 32.5335 27.5181 34.2002 25.7174C35.8669 23.9168 37.8669 22.5664 40.2003 21.7786C43.4226 20.5407 47.0893 20.3156 50.756 21.5535C52.0894 19.0777 54.4228 17.3896 57.2006 16.9395ZM50.6449 27.293L45.7559 34.833C45.6448 34.833 45.5337 34.833 45.4226 34.833C44.6448 34.833 43.9781 35.1707 43.4226 35.7333C42.867 36.296 42.6448 36.9713 42.6448 37.759C42.6448 38.5468 42.9781 39.3346 43.4226 39.7847C43.6448 40.0098 43.867 40.2349 44.2003 40.3474L44.6448 44.0612L36.0891 44.8489C29.2001 32.8073 40.7558 21.8911 50.6449 27.293ZM44.6448 44.8489L45.0893 49.463L34.089 50.2508L35.6446 46.0869C35.6446 45.9743 35.7557 45.7492 35.8669 45.5242L44.6448 44.8489ZM45.7559 45.9743L46.2004 50.2508L44.4226 50.3633L44.6448 52.8392L43.5337 52.9517C43.4226 52.9517 43.3114 52.9517 43.2003 52.9517L41.4225 53.0642L38.0891 53.2893C40.3114 53.9645 42.3114 54.9774 44.2003 56.2153C44.7559 56.5529 45.2004 57.0031 45.7559 57.4532C46.5337 55.9902 48.3115 54.3021 49.6449 53.5144H49.756C49.8671 53.5144 49.9782 53.4018 50.2005 53.4018L48.3115 48.9003C47.8671 48.7878 47.5337 48.4502 47.3115 48.2251C46.8671 47.7749 46.6448 47.2122 46.6448 46.537C46.6448 46.4245 46.6448 46.1994 46.6448 46.0869L45.7559 45.9743ZM48.9782 44.7364L46.8671 40.1223C46.6448 40.2349 46.4226 40.3474 46.0893 40.4599L48.0893 45.074C47.756 45.4116 47.5337 45.8618 47.5337 46.3119C47.5337 47.0997 48.2004 47.8875 48.9782 47.8875L51.0894 53.0642C51.5338 52.9517 52.0894 52.9517 52.5338 53.0642L50.2005 47.5499C50.5338 47.2122 50.6449 46.8746 50.6449 46.4245C50.6449 45.4116 49.9782 44.7364 48.9782 44.7364ZM45.4226 35.9584C44.5337 35.9584 43.7559 36.7462 43.7559 37.6465C43.7559 38.5468 44.5337 39.3346 45.4226 39.3346C46.3115 39.3346 47.0893 38.5468 47.0893 37.6465C47.2004 36.6336 46.4226 35.9584 45.4226 35.9584ZM58.7562 36.9713L58.8673 30.219L52.7561 26.7303L46.8671 35.1707C47.0893 35.2832 47.3115 35.5083 47.5337 35.6208C48.0893 36.1835 48.3115 36.8587 48.3115 37.6465L58.7562 36.9713ZM49.9782 71.633C49.5338 73.096 47.756 73.9963 46.3115 73.3211C45.4226 75.1217 44.0892 75.7969 42.4225 75.6844C42.0892 77.0349 40.5336 77.7101 38.978 77.8226C38.3113 79.0606 37.5336 80.2985 35.8669 80.2985L35.2002 78.8355L35.0891 78.4979C36.2002 78.2728 37.0891 77.1474 37.7558 76.022C39.5336 75.9095 40.5336 75.4593 41.4225 73.8838C43.0892 73.8838 44.4226 73.096 45.3115 71.7456C46.9782 71.7456 47.9782 71.2954 48.756 69.945L49.9782 71.633ZM40.0892 63.3052L45.4226 70.7327C46.8671 70.9578 47.8671 70.3951 48.0893 68.9321L43.5337 62.8551C43.4226 62.8551 43.4226 62.8551 43.3114 62.8551C42.2003 62.8551 41.0892 62.9676 40.0892 63.3052ZM37.0891 64.5431L41.4225 72.9835C42.867 73.2086 43.9781 72.6459 44.3115 71.2954L39.0891 63.6428C38.4225 63.8679 37.7558 64.093 37.0891 64.5431ZM34.2002 66.7939L37.8669 74.7841C39.3114 75.1217 40.3114 74.6716 40.6447 73.2086L36.2002 65.1058C35.4224 65.556 34.7557 66.1187 34.2002 66.7939ZM31.7557 71.2954L33.8668 77.2599C35.3113 77.3725 36.4224 76.8098 36.8669 75.3468L33.5335 67.5817C32.6446 68.707 32.089 69.945 31.7557 71.2954Z" fill="#8D1833"/>
</svg>
