<svg width="168" height="156" viewBox="0 0 168 156" fill="none" xmlns="http://www.w3.org/2000/svg">
<path d="M82.9081 65.1411C101.52 65.1411 112.106 53.376 112.106 33.9376V32.0622C112.106 12.6239 101.52 0.858687 82.9081 0.858687H62.7084C59.6212 0.858687 57.8565 2.56438 57.8565 5.54811V60.4533C57.8565 63.4371 59.6212 65.1428 62.7084 65.1428H82.9081V65.1411ZM79.7331 20.297H82.9976C89.2613 20.297 90.055 25.8385 90.055 33.0007C90.055 40.163 89.2613 45.7044 82.9976 45.7044H79.7331V20.297ZM163.886 65.1411C167.061 65.1411 168.473 63.0094 166.973 60.1106L152.419 31.6345L166.091 5.88761C167.679 2.98876 166.444 0.857056 163.18 0.857056H147.567C145.892 0.857056 144.392 1.88047 143.598 3.49965L137.6 15.9471L131.601 3.49965C130.807 1.88047 129.308 0.857056 127.632 0.857056H112.02C108.755 0.857056 107.521 2.98876 109.108 5.88761L122.78 31.6345L108.226 60.1106C106.727 63.0094 108.139 65.1411 111.314 65.1411H127.192C128.956 65.1411 130.544 64.0328 131.25 62.3272L137.601 47.5782L143.953 62.3272C144.659 64.0328 146.246 65.1411 148.011 65.1411H163.889H163.886ZM25.4823 65.1411C44.0945 65.1411 54.6798 53.376 54.6798 33.9376V32.0622C54.6798 12.6239 44.0945 0.858687 25.4823 0.858687H5.28257C2.19545 0.858687 0.430664 2.56438 0.430664 5.54811V60.4533C0.430664 63.4371 2.19545 65.1428 5.28257 65.1428H25.4823V65.1411ZM22.6603 20.297H25.9247C32.1885 20.297 32.9822 25.8385 32.9822 33.0007C32.9822 40.163 32.1885 45.7044 25.9247 45.7044H22.6603V20.297Z" fill="#FF7D20"/>
<path d="M127.654 155.139C137.089 155.139 139.784 146.353 139.784 136.391C139.784 129.855 139.474 125.997 137.089 119.998C135.949 117.426 134.289 113.89 132.009 109.604C130.143 106.069 126.617 99.7466 126.099 95.4625C125.891 93.9618 125.788 91.606 125.788 88.6063C125.788 86.2488 125.685 82.928 127.965 82.928C129.935 82.928 130.038 86.4634 130.038 88.4999V97.1779H139.992V90.107C139.992 80.2493 137.4 71.5713 127.862 71.5713C117.803 71.5713 115.731 81.1062 115.731 90.3199C115.731 96.3194 116.042 101.034 118.531 106.392C119.568 108.856 121.123 112.176 123.197 116.462C125.479 120.64 127.034 123.748 127.863 125.784C129.834 130.498 129.937 133.284 129.937 138.106C129.937 140.463 129.937 143.678 127.656 143.678C125.374 143.678 125.374 140.57 125.374 138.214V128.465H115.316V136.715C115.316 146.573 118.116 155.143 127.654 155.143V155.139ZM155.235 155.139C164.67 155.139 167.366 146.353 167.366 136.391C167.366 129.855 167.055 125.997 164.67 119.998C163.531 117.426 161.87 113.89 159.591 109.604C157.724 106.069 154.198 99.7466 153.68 95.4625C153.472 93.9618 153.369 91.606 153.369 88.6063C153.369 86.2488 153.266 82.928 155.546 82.928C157.517 82.928 157.62 86.4634 157.62 88.4999V97.1779H167.574V90.107C167.574 80.2493 164.981 71.5713 155.443 71.5713C145.385 71.5713 143.312 81.1062 143.312 90.3199C143.312 96.3194 143.623 101.034 146.112 106.392C147.149 108.856 148.705 112.176 150.779 116.462C153.06 120.64 154.615 123.748 155.445 125.784C157.415 130.498 157.518 133.284 157.518 138.106C157.518 140.463 157.518 143.678 155.237 143.678C152.955 143.678 152.955 140.57 152.955 138.214V128.465H142.897V136.715C142.897 146.573 145.697 155.143 155.235 155.143V155.139ZM112.826 153.745V141.959H104.013V118.602H111.892V106.709H104.013V84.7463H112.619V72.9603H94.1618V153.743H112.825L112.826 153.745ZM71.6638 153.745L71.1453 118.818C71.0423 114.532 70.8346 107.568 70.4192 98.1394H70.5222L78.4021 153.745H88.2528V72.9621H78.9205L79.336 108.104C79.336 112.389 79.6467 119.246 80.0621 128.568H79.8544L72.493 72.9621H62.5393V153.745H71.6638ZM52.4808 153.745V84.7463H59.0131V72.9603H35.9949V84.7463H42.5271V153.745H52.4808ZM22.8274 72.9621H32.6781V153.745H22.8274V72.9621ZM10.2814 153.745V120.102H18.1613V108.531H10.2814V84.7463H18.9905V72.9603H0.430664V153.743H10.2814V153.745Z" fill="#13D8D8"/>
</svg>
