<svg width="24" height="28" viewBox="0 0 24 28" fill="none" xmlns="http://www.w3.org/2000/svg">
<path fill-rule="evenodd" clip-rule="evenodd" d="M14.4432 0.378526L14.3876 0.434567C14.151 0.64472 13.998 0.938934 13.9423 1.26117L13.1491 6.16474C12.4673 10.3678 12.2307 11.5587 12.0777 11.5587C11.9107 11.5587 11.855 10.9142 11.7854 7.6078C11.6741 3.2226 11.6324 2.97042 10.7696 2.56412C9.87904 2.14381 8.96064 2.73224 8.82148 3.82504C8.77974 4.14727 8.71016 5.75845 8.66842 7.42566C8.62667 9.07887 8.55709 10.9562 8.51535 11.6007L8.4736 12.2732C8.45969 12.5394 8.6545 12.7636 8.91889 12.7636C9.18328 12.7636 10.9088 12.9597 12.7595 13.1839C14.6102 13.408 16.1409 13.6042 16.1826 13.6042C16.4192 13.6042 16.6836 14.0805 16.6836 14.3047C16.6836 14.8931 16.3496 15.0052 14.5267 15.0052C13.1491 15.0052 12.7595 15.0472 12.5925 15.2294C12.4255 15.3975 12.4116 15.5236 12.509 15.7057C12.5925 15.8458 13.6362 16.7985 14.8329 17.8212C17.2263 19.8387 17.6437 20.245 17.6437 20.5392C17.6437 20.8054 17.2541 21.1697 16.9619 21.1697C16.8227 21.1697 15.96 20.5953 15.0138 19.8948C14.0814 19.1942 13.2883 18.6478 13.2465 18.6899C13.2048 18.7319 14.0258 19.6986 15.0694 20.8334C16.7393 22.6688 16.948 22.963 16.9202 23.3413C16.8784 23.7055 16.8088 23.7756 16.447 23.8176C16.0574 23.8596 15.8487 23.6775 14.1789 21.9402C13.177 20.8895 12.3142 20.0629 12.2725 20.1049C12.2307 20.1469 12.7873 21.0436 13.5248 22.1084C14.2623 23.1591 14.8607 24.0838 14.8607 24.1539C14.8607 24.4761 14.5406 24.8263 14.2484 24.8263C13.8588 24.8263 13.4135 24.35 11.8689 22.2765C11.2567 21.4499 10.6861 20.7774 10.5887 20.7774C10.4913 20.7774 10.7279 21.4499 11.1314 22.3045C11.7159 23.5794 11.8133 23.8737 11.6602 24.0558C11.5628 24.1679 11.368 24.2659 11.2149 24.2659C10.9227 24.2659 10.9366 24.2799 8.76582 20.9735C7.02642 18.2415 3.33888 13.1558 2.61529 12.4273C2.17 11.965 2.01693 11.8949 1.46032 11.8949C0.959373 11.8949 0.736729 11.979 0.47234 12.2312C0.0827128 12.6235 -0.0842701 13.1558 0.040967 13.6042C0.138374 14.0105 5.9132 23.8596 6.59505 24.7983C7.27689 25.723 8.52926 26.8298 9.37809 27.2501C11.8133 28.455 15.6121 28.1748 17.3794 26.6477C18.103 26.0172 18.9379 24.7703 19.3275 23.6915C19.4945 23.2572 20.0511 21.3238 20.5938 19.4044C21.1226 17.471 22.0966 14.3887 22.7506 12.5674C23.5716 10.2837 23.9195 9.13491 23.8639 8.89673C23.6969 8.21023 22.9594 7.83196 22.2636 8.07013C21.9714 8.1682 21.6513 8.68658 20.6216 10.7181C18.6039 14.697 18.5065 14.3467 20.0233 8.40638C20.7747 5.43621 21.1504 4.28737 21.0669 3.54483C21.0669 3.30666 20.8025 2.99844 20.5799 2.77427C20.0372 2.22787 19.3553 2.22787 18.757 2.76026C18.3813 3.09651 18.2143 3.55884 17.2959 6.72515C16.7253 8.68658 16.1966 10.5359 16.1131 10.8161C15.9739 11.3485 15.5704 11.5587 15.5704 11.0963C15.5704 10.9562 15.8487 8.84069 16.1966 6.36089C16.5444 3.89509 16.8227 1.7095 16.8227 1.49934C16.8227 0.210403 15.3895 -0.476097 14.4432 0.378526Z" fill="url(#paint0_linear_5_577)"/>
<defs>
<linearGradient id="paint0_linear_5_577" x1="2.77793" y1="-6.06666" x2="30.5096" y2="0.707114" gradientUnits="userSpaceOnUse">
<stop stop-color="#41B55C"/>
<stop offset="0.453125" stop-color="#4EDF70"/>
<stop offset="1" stop-color="#41B55C"/>
</linearGradient>
</defs>
</svg>
