<?xml version="1.0" encoding="utf-8"?>
<!-- Generator: Adobe Illustrator 23.1.0, SVG Export Plug-In . SVG Version: 6.00 Build 0)  -->
<svg version="1.1" id="Layer_1" xmlns="http://www.w3.org/2000/svg" xmlns:xlink="http://www.w3.org/1999/xlink" x="0px" y="0px"
	 viewBox="0 0 1000 1000" style="enable-background:new 0 0 1000 1000;" xml:space="preserve">
<style type="text/css">
	.st0{clip-path:url(#SVGID_2_);fill:#E53323;}
	.st1{clip-path:url(#SVGID_2_);fill:#1D1D1B;}
	.st2{clip-path:url(#SVGID_4_);}
	.st3{fill:#E42D24;}
	.st4{fill:#634F9A;}
	.st5{fill:#FEFEFE;}
</style>
<g>
	<defs>
		<rect id="SVGID_1_" x="-2020" width="999.6" height="999.6"/>
	</defs>
	<clipPath id="SVGID_2_">
		<use xlink:href="#SVGID_1_"  style="overflow:visible;"/>
	</clipPath>
	<path class="st0" d="M-1523,360.9c-67.6,0-124.1,47.5-138.1,110.9h-841v61.4h841c14,63.4,70.5,110.9,138.1,110.9
		c78.2,0,141.6-63.4,141.6-141.6C-1381.4,424.2-1444.8,360.9-1523,360.9z"/>
	<path class="st1" d="M-1523,5.2c-246.8,0-451.5,179.9-490.4,415.7h118.6c37.3-171.1,189.6-299.2,371.8-299.2
		c210.2,0,380.7,170.4,380.7,380.7s-170.4,380.7-380.7,380.7c-183.2,0-336.1-129.4-372.4-301.7h-118.4
		c37.8,237.1,243.2,418.2,490.9,418.2c274.6,0,497.2-222.6,497.2-497.2S-1248.4,5.2-1523,5.2z"/>
</g>
<g>
	<defs>
		<rect id="SVGID_3_" width="999.6" height="999.6"/>
	</defs>
	<clipPath id="SVGID_4_">
		<use xlink:href="#SVGID_3_"  style="overflow:visible;"/>
	</clipPath>
	<g class="st2">
		<title>Слой 1</title>
		<g id="Слой_2_1_">
			<g id="Слой_1-2_1_">
				<g id="Слой_1-3_1_">
					<g id="_1078896048_1_">
						<path class="st3" d="M1062.7,1944.3c23,261,121.3,387.7,603.1,451.7c865.3,118.8,2866.8,109.2,3709.1-43.5
							c483.9-83.6,476.3-209.1,442.9-514.4c-29.3-266.4-103.7-383.1-595.5-450.8c-531.1-74.4-1212.8-69.4-1783.7-66.5
							c-532.4,5-1445.3,28-1916.7,111.2C1034.2,1518.9,1039.2,1643.1,1062.7,1944.3z"/>
						<path class="st4" d="M871.5,168.1C778.9,61.2,643.2,1.5,501.8,5.4c-142-2.9-278.2,56.5-372.6,162.7
							C60.6,245.7,18,342.8,7.5,445.8v2.5h229.2c22.9-128.2,134.9-221.2,265.1-220c150.1,11.8,262.3,143,250.5,293.2
							c-10.5,133.8-116.7,240-250.5,250.5c-130.7,2-243.3-91.6-265.1-220.4H7.5c20.4,256.1,237.5,451.6,494.3,445
							c138.2,3.4,271.1-53,364.7-154.7c85.4-92,131.7-213.6,129.2-339.2C999,379.3,954.5,259.5,871.5,168.1z"/>
						<polygon class="st4" points="4129.4,18.4 4129.4,238.4 4426.3,238.4 4426.3,983.6 4685.2,983.6 4685.2,238.4 4980.9,238.4 
							4980.9,18.4 						"/>
						<path class="st4" d="M4036.6,654.5c-66.5,34.7-116.3,60.2-149.7,73.2c-43.1,15.3-88.5,23.1-134.2,23
							c-70.1,2.9-138.5-22.4-189.9-70.3c-49.9-46.5-77-112.5-74-180.7c-2-68,24.9-133.6,74-180.7c53.9-46.9,123.4-72,194.9-70.3
							c44.9-0.3,89.6,7.5,131.7,23c48.5,18,95,40.8,138.8,68.2l41.8,25.5V99.1l-13-7.9c-93.2-59.8-202.5-89.7-313.2-85.7
							c-143.4-5.9-282.5,49.5-382.7,152.2c-90.2,91.8-139.6,216-137.2,344.6c-3.4,125,41.6,246.5,125.5,339.2
							c97.6,103.1,234.5,159.5,376.4,155.2c57.7,0.6,115.2-7.1,170.6-23c58.1-18.5,114.2-43.1,167.3-73.2l11.3-7.5V632.7
							L4036.6,654.5z"/>
						<polygon class="st4" points="2899.9,18.4 2504.2,543.2 2504.2,18.4 2245.8,18.4 2245.8,983.6 2457,983.6 2869.3,434.5 
							2869.3,983.6 3127.8,983.6 3127.8,18.4 						"/>
						<path class="st4" d="M1308.2,489.3c0.1-39.5,11.8-78.2,33.5-111.2c17.8-29.1,49.6-46.6,83.6-46h65.2V652h-62.7
							c-33.8-0.3-65.3-17.6-83.6-46C1320.8,571.5,1308.3,530.9,1308.2,489.3z M1709.2,332h65.2c34.1-0.6,65.9,16.9,83.6,46
							c20.9,33.3,31.7,71.9,30.9,111.2c1.8,41.1-9,81.9-30.9,116.7c-17.9,28.9-49.6,46.4-83.6,46h-62.7L1709.2,332z M2035.8,220.4
							L2035.8,220.4c-65.7-63.7-154.4-98.3-245.9-95.8h-66.5V18.4H1475v106.2h-65.7c-92.2-1.9-181.4,32.5-248.4,95.8
							c-69.3,72.1-106.7,169-103.7,268.9c-4.5,100.9,33,199.2,103.7,271.4c72.1,67.1,168,102.6,266.4,98.7h47.7v125.5h248.4V859.4
							h48.5c98.4,3.9,194.3-31.6,266.4-98.7c69.9-72.5,106.6-170.8,101.2-271.4C2144.6,389,2106.9,291.3,2035.8,220.4z"/>
						<path class="st4" d="M501.8,344.6c-78.8-0.3-145.1,58.9-153.9,137.2H-689.2v38.5H347.9c8,78.6,74.9,138,153.9,136.8
							c84.8,0.7,154-67.5,154.7-152.2c0-0.8,0-1.7,0-2.5c0.9-86.1-68.2-156.7-154.3-157.7C502.1,344.6,502,344.6,501.8,344.6z"/>
						<polygon class="st4" points="6973.3,448.3 6973.3,18.4 6714.8,18.4 6714.8,383.1 6360.2,383.1 6360.2,18.4 6101.3,18.4 
							6101.3,448.3 						"/>
						<polygon class="st4" points="6101.3,553.7 6101.3,983.6 6360.2,983.6 6360.2,613.5 6714.8,613.5 6714.8,983.6 6973.3,983.6 
							6973.3,553.7 						"/>
						<path class="st4" d="M7675,481.8H5667.6c-10.9-85.2-88.8-145.5-174-134.7c-85.2,10.9-145.5,88.8-134.7,174
							c9.9,77.4,75.5,135.5,153.5,135.9c79.4,1.5,146.7-57.8,155.2-136.8H7675V481.8z"/>
						<path class="st4" d="M5777.2,553.3c-32.4,143.5-175.1,233.6-318.6,201.1C5315.1,722,5225,579.3,5257.5,435.8
							s175.1-233.6,318.6-201.1c104.7,23.7,185,107.9,203.6,213.6h225.4v-2.5c-9.3-104.1-52-202.3-121.7-280.2
							c-193.3-205-516.3-214.4-721.3-21.1c-7.2,6.8-14.3,13.8-21.1,21.1c-82.1,92-126.9,211.3-125.5,334.6
							c-1.6,126.4,45.1,248.6,130.5,341.7c193.7,201.8,514.3,208.3,716.1,14.5c4.9-4.7,9.8-9.6,14.5-14.5
							c74.3-77.6,119.9-178.2,129.2-285.2v-3.3H5777.2z"/>
						<path class="st5" d="M1971.9,1873.6l-125.5-195.7c-12.1-26.4-39.1-42.8-68.2-41.4c-18-1.2-35.7,5.3-48.5,18
							c-9.6,14.8-14.6,32.1-14.2,49.8v385.6c-0.3,17.4,5.1,34.5,15.5,48.5c12.2,13.9,30.1,21.4,48.5,20.5c41.8,0,64-23,64-69v-202.4
							l60.2,92.4c13.1,23.2,37.4,37.8,64,38.5c26.4,0.8,50.7-14.4,61.5-38.5l59-101.2v212.9c-2.8,35.2,23.5,66.1,58.7,68.9
							c2.6,0.2,5.2,0.3,7.8,0.1c18.9,1.7,37.7-4.9,51.4-18c11.7-14.4,17.7-32.5,16.7-51v-385.6c0.6-17.7-4.3-35.1-14.2-49.8
							c-12.6-13.3-30.3-20.4-48.5-19.7c-28.4,0.3-54.2,16.4-66.9,41.8L1971.9,1873.6z M2757.7,2106.5L2757.7,2106.5
							c4.5,20.1,17.7,37.1,36,46.4c16.9,9.7,37.5,10.7,55.2,2.5c17-7.9,29.3-23.4,33-41.8c5.1-18,3.3-37.2-5-53.9l-162.7-385.6
							c-9.6-27.2-36.5-44.4-65.2-41.8c-29.6-1.2-56.4,17.7-65.2,46L2423.5,2063c-7.4,17.8-10,37.3-7.5,56.5
							c1.8,17.1,13.9,31.4,30.5,36c18.7,8.8,40.8,6.9,57.7-5c16.4-13.1,28.1-31.1,33.5-51.4l23-67.8H2728L2757.7,2106.5z
							 M2643.9,1803.7L2643.9,1803.7l48.5,125.5h-97L2643.9,1803.7z M3067.6,2093.1L3067.6,2093.1c0.4,17.5,6.2,34.5,16.7,48.5
							c13.7,13.5,32.2,20.8,51.4,20.5c19.7,0.1,38.4-8.7,51-23.8c12.6-12.9,19.2-30.5,18-48.5v-96.2c16.4,3,33.1,4.6,49.8,5
							c54.1,1.5,107.1-15.6,150.1-48.5c42.5-33.3,65.2-85.9,60.2-139.7c2.9-50.3-17.6-99.1-55.6-132.2
							c-45.4-31.6-99.9-47.3-155.2-44.7c-42,0.3-83.9,3.7-125.5,10c-37.6,5-64.5,38.8-61.1,76.5L3067.6,2093.1z M3247,1884
							L3247,1884c-14,0.7-28-0.3-41.8-2.9v-125.5h44.7c19.2-1,38.2,4.4,53.9,15.5c11.6,12,18.1,28,18,44.7
							c0.6,20-6.8,39.4-20.5,53.9c-16.3,9.8-35.4,13.9-54.4,11.7L3247,1884z M3668.1,2093.1L3668.1,2093.1c-1,18,5.5,35.5,18,48.5
							c11.9,13.8,29.5,21.3,47.7,20.5c20.1,0.9,39.4-8,51.9-23.8c12.6-12.9,19.2-30.5,18-48.5v-160.6l158.9,198.2
							c13.2,16.1,31,27.8,51,33.5c37.7,3.9,71.4-23.4,75.3-61.1c0.2-1.8,0.3-3.6,0.3-5.4c-0.3-20.4-8-40.1-21.7-55.2L3937,1887.4
							l111.7-134.7c12.7-16,19.8-35.6,20.5-56c2.2-17.6-5.7-34.9-20.5-44.7c-15.2-12-35.2-16.2-53.9-11.3
							c-20.1,4.1-37.4,16.8-47.3,34.7l-144.7,193.2v-162.7c1.3-18.4-5.2-36.5-18-49.8c-13.3-13.6-32.1-20.2-51-18
							c-17.8-1.7-35.4,4.9-47.7,18c-12.6,13.4-19.1,31.4-18,49.8L3668.1,2093.1z M4271.6,2093.1L4271.6,2093.1
							c-0.7,16.5,5,32.7,15.9,45.2c12.8,14.1,31.2,21.6,50.2,20.5h245.9c18.8,1.3,37.2-5.2,51-18c11.2-11.1,17.7-26.1,18-41.8
							c-0.4-17-6.8-33.3-18-46c-15.1-10-32.9-14.9-51-14.2h-179.4v-83.6h134.7c17.9,1.3,35.7-4.2,49.8-15.5c11.6-12,18.1-28,18-44.7
							c-0.4-15.7-6.8-30.7-18-41.8c-13.8-11.9-31.5-18.3-49.8-18h-134.7v-73.2h176.1c17.8-0.1,34.9-6.5,48.5-18
							c11.9-10.6,18.5-25.9,18-41.8c1.6-16.9-5.1-33.6-18-44.7c-13-12.8-30.3-20.3-48.5-20.9h-240.9c-18.6-1.9-37,4.7-50.2,18
							c-12.4,13.5-18.8,31.5-17.6,49.8L4271.6,2093.1z M4864.2,1636.4L4864.2,1636.4c-17.6-1.3-35,4.2-48.5,15.5
							c-11.6,10.7-17.8,26.1-16.7,41.8c-1.1,17,5,33.7,16.7,46c13.6,11.5,30.7,17.8,48.5,18h101.2v331.6c-1.2,18,5.3,35.7,18,48.5
							c13.3,13.9,31.9,21.3,51,20.5c36.2,1.4,66.8-26.8,68.2-63c0.1-2,0.1-4,0-6v-327.5h101.2c17.8-0.1,34.9-6.5,48.5-18
							c12.6-11.9,19.2-28.7,18-46c1.2-16-5.5-31.6-18-41.8c-13.6-11.2-30.9-16.8-48.5-15.5L4864.2,1636.4z"/>
					</g>
				</g>
			</g>
		</g>
	</g>
</g>
</svg>
