<svg width="180" height="180" viewBox="0 0 180 180" fill="none" xmlns="http://www.w3.org/2000/svg">
<path fill-rule="evenodd" clip-rule="evenodd" d="M141.566 117.054C137.346 113.517 123.082 111.935 116.304 110.1C111.985 108.93 107.986 107.638 104.123 106.148C100.199 104.633 96.9152 101.656 92.9806 102.763C91.8345 106.836 95.9117 112.222 94.0741 120.749C91.9099 130.792 87.8487 144.639 96.4648 153.163C98.6801 155.354 104.766 160.364 108.646 160.894C108.138 158.328 107.49 158.854 106.013 156.641C101.184 149.403 103.575 138.654 102.5 127.862C102.146 124.313 100.226 120.32 101.354 116.899C108.065 116.218 117.385 124.437 120.295 127.883C122.335 130.297 124.145 133.956 125.304 137.779C127.285 144.312 127.066 145.766 124.199 148.991C116.88 149.303 117.995 142.88 116.68 136.455C115.741 131.864 111.139 125.841 106.43 129.48C104.628 131.905 107.744 141.581 108.48 146.066C109.615 152.983 109.698 156.494 113.68 160.756C119.137 166.597 133.446 171.268 144.395 169.533C151.621 160.996 149.952 124.083 141.566 117.054H141.566Z" fill="#805494"/>
<path fill-rule="evenodd" clip-rule="evenodd" d="M36.9607 58.4076C40.1801 60.598 43.3031 60.0526 47.0768 63.6534C49.8654 66.3144 52.0673 69.1398 54.4773 72.4138C57.7151 76.8122 61.2997 81.9356 65.2937 85.1855C66.79 86.4031 68.4419 87.0995 68.8185 89.5675C64.828 94.2572 50.1719 92.8189 44.3902 90.6526C39.6094 88.8613 25.6803 80.3978 32.3757 75.7021C38.0462 72.1062 43.1123 83.6685 49.5018 85.5653C52.2679 86.3864 55.5146 86.0448 56.7863 83.3254C58.1243 79.9835 55.3125 79.0053 53.2331 77.4035C47.4158 72.9223 40.9754 64.5091 35.0499 62.0426C25.332 57.9971 6.52003 66.5985 2.18481 71.371C1.74129 77.8607 10.3753 90.4605 13.4359 94.402C18.0649 100.364 23.8346 106.88 31.1454 110.836C40.5606 115.93 54.0876 104.825 70.0541 100.642C75.0906 99.3228 79.9238 99.0104 83.9838 97.284C83.906 90.7962 79.8495 94.6295 73.9926 85.1652C69.2618 77.5202 66.6154 64.4674 55.9093 59.1218C52.4011 57.3701 39.1327 55.289 36.9604 58.4082L36.9607 58.4076Z" fill="#805494"/>
<path fill-rule="evenodd" clip-rule="evenodd" d="M92.3581 92.8557C95.774 88.2193 94.5648 84.4522 100.185 79.2147C110.069 70.0037 124.649 60.4509 118.695 45.117C117.558 42.1886 117.007 38.9147 114.35 37.7989C111.005 43.2245 117.254 42.6477 105.072 58.6248C102.819 61.5789 101.05 63.9101 98.9819 67.1697C97.0755 70.175 95.3732 75.0171 93.4764 77.0572C87.544 75.6491 81.491 59.0055 85.7077 46.741C86.7284 43.772 90.9917 33.6656 95.6951 38.305C99.6903 42.2459 92.8089 50.1131 91.7626 53.547C89.0574 62.4264 96.8019 67.0106 99.527 61.3261C102.327 55.4844 101.35 55.5207 106.165 46.9846C113.885 33.2979 109.134 26.3971 101.224 17.4437C99.6945 15.7127 92.9773 8.61892 89.6977 8.67501C82.8191 8.79269 65.9733 31.5307 61.5347 43.4275C57.2675 54.8655 61.5586 58.3519 73.2646 69.8601C74.6858 71.2576 76.4626 73.5175 77.9494 75.3518L86.3653 87.9206C88.0299 91.1942 88.0776 93.2133 92.3584 92.8557H92.3581Z" fill="#805494"/>
<path fill-rule="evenodd" clip-rule="evenodd" d="M64.0343 123.28C61.4504 121.745 59.3787 123.778 57.5052 124.906C44.4256 132.784 25.6098 132.565 32.5274 161.772C34.4021 169.688 33.9181 170.695 43.4335 169.459C48.6464 168.782 54.0287 167.935 58.9217 166.575C98.3031 155.63 87.7152 144.451 86.9138 124.385C86.6493 117.758 87.2708 113.572 88.0391 107.324C89.1967 97.9133 81.4124 104.973 78.6018 106.48C67.8304 112.256 47.6195 106.013 37.0968 120.822C35.421 123.181 32.3942 129.097 32.7842 132.379C32.925 133.565 32.9355 133.254 33.2753 133.806C39.9063 128.086 34.7309 127.821 52.9178 122.402C57.1232 121.15 61.132 119.987 64.8564 118.463C68.0112 117.172 72.2977 114.162 75.1865 114.696C80.034 133.707 52.9652 151.955 49.0176 143.785C48.11 138.403 54.7545 136.51 59.1794 134.45C66.948 130.833 67.7347 125.367 64.0337 123.28L64.0343 123.28Z" fill="#805494"/>
<path fill-rule="evenodd" clip-rule="evenodd" d="M96.0236 98.4159C101.377 100.823 106.043 98.5206 113.338 102.235C122.049 106.67 133.727 114.784 145.526 111.301C150.006 109.979 155.686 105.211 157.149 102.036C149.658 102.016 152.638 106.288 134.448 100.533C130.586 99.3111 127.686 98.4761 123.777 97.5105C119.997 96.5767 115.625 96.4602 112.242 95.4327C112.929 90.1147 122.387 83.5795 128.352 81.3657C134.063 79.246 152.623 77.1998 150.761 85.5287C147.723 93.0342 123.73 79.5383 126.524 94.8773C128.416 95.6273 146.744 98.0381 150.466 98.3808C169.199 100.106 178.743 74.4816 177.763 71.3689C175.954 65.625 148.437 57.4677 137.374 56.8799C115.902 55.7391 122.381 67.0416 102.015 89.941C98.0635 94.3836 95.8697 94.0574 96.0236 98.4162V98.4159Z" fill="#805494"/>
</svg>
