<svg id="Layer_1" data-name="Layer 1" xmlns="http://www.w3.org/2000/svg" viewBox="0 0 114.9412 73.929"><defs><style>.cls-1{fill:#00963e;}.cls-1,.cls-10,.cls-11,.cls-13,.cls-2,.cls-3,.cls-4,.cls-5,.cls-7,.cls-8,.cls-9{fill-rule:evenodd;}.cls-2{fill:#c7d300;}.cls-3{fill:#e5006c;}.cls-4{fill:#e3000b;}.cls-12,.cls-5{fill:#ef7c00;}.cls-6{fill:#fc0;}.cls-7{fill:#c3db9a;}.cls-8{fill:#d8de60;}.cls-9{fill:#f5b4d2;}.cls-10{fill:#f6ac6e;}.cls-11{fill:#ffe162;}.cls-13{fill:#565449;}</style></defs><path class="cls-1" d="M269.15869,213.4831v4.7455h-7.0195v-4.7455Zm0,6.2708v4.7452h-7.0195v-4.7452Zm0,6.2705v4.7455h-7.0195v-4.7455Zm0,6.2708v3.5896q-3.50955.41835-7.0195.9768v-4.5664Z" transform="translate(-232.26349 -187.9075)"/><path class="cls-2" d="M272.25549,207.2123v4.7455h12.5932v-4.7455Zm0,6.2708v4.7455h12.5932v-4.7455Zm0,6.2708v4.7452h12.5932v-4.7452Zm0,6.2705v4.7455h12.5932v-4.7455Zm0,6.2708v3.2477q6.29685-.6378,12.5932-.8141v-2.4336Z" transform="translate(-232.26349 -187.9075)"/><path class="cls-3" d="M300.53909,187.9075h-12.5935v5.2385h12.5935v-5.2385Zm-12.5935,6.7638v4.7452h12.5935v-4.7452Zm0,6.2705v4.7452h12.5935v-4.7452Zm0,6.2705v4.7455h12.5935v-4.7455Zm0,6.2708v4.7455h12.5935v-4.7455Zm0,6.2708v4.7452h12.5935v-4.7452Zm0,6.2705v4.7455h12.5935v-4.7455Zm0,6.2708v2.3741q6.2967-.05955,12.5935.3551v-2.7292Z" transform="translate(-232.26349 -187.9075)"/><path class="cls-4" d="M312.10019,200.9418v4.7452h-8.4646v-4.7452Zm0,6.2705v4.7455h-8.4646v-4.7455Zm0,6.2708v4.7455h-8.4646v-4.7455Zm0,6.2708v4.7452h-8.4646v-4.7452Zm0,6.2705v4.7455h-8.4646v-4.7455Zm0,6.2708v3.9034q-4.2324-.57915-8.4646-.9386v-2.9648Z" transform="translate(-232.26349 -187.9075)"/><path class="cls-5" d="M315.19669,219.7542h6.4001v4.7449h-6.4001v-4.7449Zm6.4001,6.2702v4.7455h-6.4001v-4.7455Zm0,6.2708v5.482q-3.2001-.62685-6.4001-1.1265v-4.3555Z" transform="translate(-232.26349 -187.9075)"/><rect class="cls-6" x="19.1407" y="58.0122" width="7.0191" height="7.6385"/><path class="cls-7" d="M262.13919,256.242h7.0192V239.5159q-3.50955.2514-7.0192.5911Z" transform="translate(-232.26349 -187.9075)"/><path class="cls-8" d="M284.84869,248.6035h-12.5935V239.311q6.29685-.3801,12.5935-.4728Z" transform="translate(-232.26349 -187.9075)"/><path class="cls-9" d="M300.53909,261.8365h-12.5935v-23.027q6.2967-.0207,12.5935.2501Z" transform="translate(-232.26349 -187.9075)"/><path class="cls-10" d="M303.63559,255.3755h8.4646v-15.569q-4.2324-.36405-8.4646-.595Z" transform="translate(-232.26349 -187.9075)"/><path class="cls-11" d="M315.19669,249.2084h6.4001v-8.4169q-3.2001-.389-6.4001-.7013Z" transform="translate(-232.26349 -187.9075)"/><rect class="cls-12" x="90.8461" y="24.9092" width="4.9547" height="5.3921"/><path class="cls-13" d="M347.20469,244.8746c-38.3145-13.7807-76.6276-13.1973-114.9412-.7682v.4819a275.72706,275.72706,0,0,1,114.9412.5544Z" transform="translate(-232.26349 -187.9075)"/></svg>