<?xml version="1.0" encoding="UTF-8"?> <svg xmlns="http://www.w3.org/2000/svg" width="120" height="120" viewBox="0 0 120 120" fill="none"><path d="M56.0881 9.01555V0L11.4766 25.8549L19.145 30.3627L56.0881 9.01555Z" fill="#F9AC58"></path><path d="M63.9119 111.036V120L110.13 93.2641L102.461 88.7563L63.9119 111.036Z" fill="#8770E8"></path><path d="M106.14 81.8655L113.912 86.4769L113.86 31.8655L106.088 36.4251L106.14 81.8655Z" fill="#CE84C5"></path><path d="M101.01 30.4145L108.679 25.8549L63.9119 0.0517578V9.0155L101.01 30.4145Z" fill="#FC866B"></path><path d="M17.6424 88.8083L9.92223 93.3679L56.0881 119.948V110.985L17.6424 88.8083Z" fill="#41AEE5"></path><path d="M13.86 36.3211L6.08802 31.7097L6.13983 86.5803L13.9119 81.9688L13.86 36.3211Z" fill="#3CC6C2"></path><path d="M63.9119 90.2593L84.6891 78.2385L77.0207 73.679L63.9119 81.2437V90.2593Z" fill="#475370"></path><path d="M43.0829 73.731L35.4145 78.2905L56.0881 90.2077V81.2439L43.0829 73.731Z" fill="#475370"></path><path d="M75.5181 45.4922L83.2384 40.9326L63.9119 29.7927V38.7565L75.5181 45.4922Z" fill="#475370"></path><path d="M56.0881 38.7565V29.7927L36.8653 40.8808L44.5855 45.4404L56.0881 38.7565Z" fill="#475370"></path><path d="M39.6632 51.5548L31.8912 46.9434V71.3475L39.6632 66.7361V51.5548Z" fill="#475370"></path></svg> 