<svg width="124" height="124" viewBox="0 0 124 124" fill="none" xmlns="http://www.w3.org/2000/svg">
<g clip-path="url(#clip0_309_534)">
<circle cx="62" cy="62" r="62" fill="#F9F7E8"/>
<path d="M97.584 21.1702C96.7302 19.3689 95.5653 17.8293 93.8124 16.8504C91.0982 15.3336 88.3529 15.1913 85.6104 16.9329C85.5397 16.637 85.4832 16.415 85.4323 16.1902C85.3729 15.9369 85.3249 15.678 85.2542 15.4275C84.3042 12.0696 82.5513 9.38319 79.0992 8.19937C75.7573 7.05253 72.5794 8.50671 71.1912 11.7622C71.1432 11.8732 71.1064 11.9728 70.9594 11.9501C68.8813 7.47655 63.1052 6.12198 59.2827 10.5585C59.1017 10.217 58.9377 9.8812 58.7455 9.55963C55.9747 4.88693 49.5907 4.79871 46.6334 9.38889C46.41 9.73322 46.3478 10.1145 45.6947 9.78729C40.7837 7.33142 34.312 10.456 33.0652 15.8345C32.1011 19.9893 36.1582 23.2818 38.3353 24.6136C38.7028 24.8384 39.093 25.0718 39.5001 25.3108L1.47302 51.0021C0.559804 51.6196 0.0113092 52.6555 0.00848188 53.7625L0 74.6417V74.9262V76.0845L0.0254456 88.6939C0.0282729 90.8254 1.99607 92.4048 4.06282 91.9324L85.6415 73.307C87.1485 72.9627 88.2144 71.6167 88.2144 70.0629V43.2475C90.0295 43.1536 91.4742 42.7438 92.4214 41.9413C98.0986 37.1235 100.889 28.1508 97.584 21.1759V21.1702Z" fill="#F5B1C2"/>
<path d="M15.0001 51C15.0001 44.6824 17.9521 41 22.7091 41C27.7769 41 30.4513 45.3042 30.4513 50.3057C30.4513 51.2414 30.4512 51.3471 30.1373 51.3471L23.7142 51.5885C23.4033 51.5885 23.0894 51.3108 23.0894 50.8943V48.706C23.0894 48.22 22.8117 48.0449 22.534 48.0449C22.2563 48.0449 21.9786 48.2894 21.9786 48.6698V60.0702C21.9786 60.4174 22.2201 60.6619 22.534 60.6619C22.8811 60.6619 23.0894 60.3842 23.0894 60.037V56.5297C23.0894 56.3214 23.2282 56.0075 23.5059 56.0437L30.0679 56.2852C30.243 56.2852 30.3456 56.424 30.3456 56.5629C30.3456 64.9299 26.9076 67.8124 22.534 67.8124C17.7076 67.8124 15.0001 63.472 15.0001 58.5067V50.9939V51Z" fill="#00387C"/>
<path d="M32.5124 41.7303C32.5124 41.522 32.6513 41.3832 32.8595 41.3832H38.6911C38.8993 41.3832 39.002 41.4888 39.002 41.6609V50.7553C39.002 50.8942 39.1076 50.9998 39.2434 50.9998H39.9377C40.1127 50.9998 40.2486 50.861 40.2486 50.7553V41.6941C40.2486 41.519 40.3542 41.3802 40.5262 41.3802H46.394C46.6023 41.3802 46.7411 41.519 46.7411 41.6941V67.0396C46.7411 67.2146 46.6385 67.4199 46.4634 67.4199H40.5594C40.3844 67.4199 40.2486 67.2116 40.2486 67.0396V57.9783C40.2486 57.8395 40.1791 57.7007 40.0403 57.7007H39.2404C39.0653 57.7007 38.9989 57.8395 38.9989 57.9783V67.0728C38.9989 67.2478 38.8601 67.4199 38.688 67.4199H32.9591C32.7146 67.4199 32.5064 67.1784 32.5064 66.8977V41.7273L32.5124 41.7303Z" fill="#00387C"/>
<path d="M49.4353 41.8359C49.4353 41.6277 49.6435 41.3832 49.888 41.3832H62.2122C62.4204 41.3832 62.5593 41.5582 62.5593 41.7665V48.0146C62.5593 48.2228 62.3842 48.3617 62.1789 48.3617H56.3806C56.2418 48.3617 56.1392 48.4673 56.1392 48.6062V50.55C56.1392 50.6889 56.278 50.7945 56.3806 50.7945H59.1243C59.2632 50.7945 59.3658 50.8971 59.3658 51.036V57.3535C59.3658 57.5286 59.2269 57.6674 59.0881 57.6674H56.275C56.1361 57.6674 56.0335 57.7731 56.0335 57.9451V59.9946C56.0335 60.1334 56.1391 60.2361 56.2418 60.2361H62.2484C62.4899 60.2361 62.6287 60.4111 62.6287 60.5832V67.0395C62.6287 67.2478 62.4536 67.4199 62.2484 67.4199H49.8186C49.6103 67.4199 49.4383 67.2116 49.4383 66.9671V41.8329L49.4353 41.8359Z" fill="#00387C"/>
<path d="M65.017 41.8359C65.017 41.6277 65.2252 41.3832 65.4697 41.3832H77.7939C78.0021 41.3832 78.1409 41.5582 78.1409 41.7665V48.0146C78.1409 48.2228 77.9659 48.3617 77.7576 48.3617H71.9593C71.8204 48.3617 71.7148 48.4673 71.7148 48.6062V50.55C71.7148 50.6889 71.8536 50.7945 71.9593 50.7945H74.7C74.8388 50.7945 74.9414 50.8971 74.9414 51.036V57.3535C74.9414 57.5286 74.8026 57.6674 74.6638 57.6674H71.8506C71.7118 57.6674 71.6092 57.7731 71.6092 57.9451V59.9946C71.6092 60.1334 71.7118 60.2361 71.8174 60.2361H77.824C78.0655 60.2361 78.2074 60.4111 78.2074 60.5832V67.0395C78.2074 67.2478 78.0323 67.4199 77.824 67.4199H65.3943C65.186 67.4199 65.0109 67.2116 65.0109 66.9671V41.8329L65.017 41.8359Z" fill="#00387C"/>
<path d="M88.3557 49.6416C88.1474 49.6416 88.0085 49.5359 87.9391 49.2522C87.7308 48.401 87.3837 47.9784 86.8977 47.9784C86.5506 47.9784 86.3756 48.2622 86.3756 48.6153C86.3756 49.7472 88.0055 51.024 90.0912 52.4758C92.349 54.0333 94.0483 56.5839 94.0483 59.2038C94.0483 63.9488 91.2714 67.7399 86.7227 67.7399C81.4465 67.7399 79.0137 63.8431 79.0137 58.1776C79.0137 57.9995 79.1525 57.8244 79.4302 57.8244L84.2204 57.5769C84.4649 57.5769 84.6038 57.7188 84.637 58.0387C84.7758 59.4544 85.3644 60.9787 86.2005 60.9787C86.6865 60.9787 87.0004 60.6587 87.0004 59.8437C87.0004 58.9926 85.0565 57.4351 82.7293 55.5244C80.4022 53.6108 79.2582 50.9546 79.2582 48.5489C79.2582 44.9359 81.8963 41.0059 86.5507 41.0059C91.205 41.0059 94.0846 44.7246 94.0846 48.9383C94.0846 49.1858 93.9457 49.3971 93.668 49.3971L88.3557 49.6446V49.6416Z" fill="#00387C"/>
<path d="M96.1809 41.8359C96.1809 41.6277 96.3892 41.3832 96.6337 41.3832H108.958C109.166 41.3832 109.305 41.5582 109.305 41.7665V48.0146C109.305 48.2228 109.13 48.3617 108.925 48.3617H103.126C102.987 48.3617 102.885 48.4673 102.885 48.6062V50.55C102.885 50.6889 103.024 50.7945 103.126 50.7945H105.87C106.009 50.7945 106.111 50.8971 106.111 51.036V57.3535C106.111 57.5286 105.973 57.6674 105.834 57.6674H103.021C102.882 57.6674 102.779 57.7731 102.779 57.9451V59.9946C102.779 60.1334 102.885 60.2361 102.987 60.2361H108.994C109.236 60.2361 109.374 60.4111 109.374 60.5832V67.0395C109.374 67.2478 109.199 67.4199 108.994 67.4199H96.5643C96.356 67.4199 96.184 67.2116 96.184 66.9671V41.8329L96.1809 41.8359Z" fill="#00387C"/>
<path d="M15 71.6368C15 71.3953 15.1388 71.2203 15.3803 71.2203H21.8367C26.3492 71.2203 28.9178 74.5888 28.9178 77.4684C28.9178 79.5511 28.8816 82.7445 25.3773 83.8221V83.8915C27.5656 84.6884 29.0235 87.0155 29.0235 89.723C29.0235 91.4948 28.9873 97.257 21.8035 97.257H15.3471C15.1056 97.257 15 97.0819 15 96.8767V71.6368ZM21.2149 81.0089C21.2149 81.1478 21.3205 81.2504 21.4594 81.2504C21.9453 81.2504 22.4645 80.9395 22.4645 80.2423V77.2571C22.4645 76.6323 21.8759 76.3546 21.4594 76.3546C21.3205 76.3546 21.2149 76.424 21.2149 76.5628V81.0089ZM21.2149 91.8058C21.2149 91.9446 21.2843 92.0502 21.4594 92.0502C22.0147 92.0502 22.5007 91.6337 22.5007 91.0421V87.3959C22.5007 86.8073 21.9785 86.4602 21.4231 86.4602C21.2843 86.4602 21.2149 86.5628 21.2149 86.7379V91.8058Z" fill="#00387C"/>
<path d="M41.2798 71.2203C41.5212 71.2203 41.6963 71.4285 41.7325 71.67L46.4895 96.4933C46.559 96.8736 46.3839 97.257 46.0036 97.257H40.3803C40.172 97.257 39.9638 97.1181 39.9275 96.9099L39.2333 91.7031C39.2001 91.528 39.0583 91.4254 38.8862 91.4254H37.0118C36.8729 91.4254 36.7341 91.5643 36.6979 91.7726L36.0398 96.8767C36.0036 97.1181 35.7621 97.257 35.5871 97.257H29.8582C29.5473 97.257 29.3722 97.0155 29.4416 96.6684L34.093 71.6368C34.1292 71.4617 34.3013 71.2203 34.5095 71.2203H41.2798ZM38.2252 84.308C38.1558 83.8221 38.0863 83.5112 37.9837 83.5112C37.8811 83.5112 37.8086 83.7527 37.7422 84.308L37.2895 87.6072C37.2532 87.7822 37.3227 87.9543 37.4977 87.9543C38.6085 87.9543 38.7142 87.9543 38.6779 87.6404L38.2252 84.308Z" fill="#00387C"/>
<path d="M54.9425 90.0702C54.9063 89.8951 54.8369 89.8287 54.7675 89.8287C54.698 89.8287 54.6618 89.9313 54.6618 90.1064V96.8072C54.6618 97.0155 54.4536 97.26 54.2091 97.26H48.4107C48.2024 97.26 47.9942 97.0185 47.9942 96.7378V71.5674C47.9942 71.3923 48.133 71.2203 48.3081 71.2203H54.2091C54.4868 71.2203 54.6618 71.3591 54.6618 71.5674V77.6072C54.6618 77.7461 54.695 77.8487 54.7675 77.8487C54.8399 77.8487 54.9063 77.7793 54.9757 77.6072L56.331 71.5312C56.4004 71.3561 56.5392 71.2203 56.7113 71.2203H62.8205C62.9594 71.2203 63.062 71.3229 63.062 71.498C63.062 71.5674 63.062 71.6368 63.0288 71.7062L58.6189 83.1973C58.5495 83.3361 58.5163 83.5776 58.5163 83.647C58.5163 83.7164 58.5495 83.9247 58.5858 84.0304L63.1345 96.9099C63.2039 97.1181 63.1345 97.257 62.9262 97.257H56.5393C56.4004 97.257 56.2978 97.1513 56.2616 96.9793L54.9425 90.0702Z" fill="#00387C"/>
<path d="M64.8425 71.67C64.8425 71.4617 65.0508 71.2203 65.2953 71.2203H77.6194C77.8277 71.2203 77.9665 71.3953 77.9665 71.6006V77.8487C77.9665 78.057 77.7915 78.1958 77.5832 78.1958H71.7849C71.646 78.1958 71.5404 78.3014 71.5404 78.4403V80.3841C71.5404 80.523 71.6792 80.6286 71.7849 80.6286H74.5256C74.6644 80.6286 74.7671 80.7313 74.7671 80.8701V87.1876C74.7671 87.3627 74.6282 87.5015 74.4893 87.5015H71.6762C71.5374 87.5015 71.4347 87.6072 71.4347 87.7792V89.8287C71.4347 89.9675 71.5374 90.0702 71.643 90.0702H77.6496C77.8911 90.0702 78.0329 90.2452 78.0329 90.4173V96.8736C78.0329 97.0819 77.8579 97.254 77.6496 97.254H65.2199C65.0116 97.254 64.8365 97.0457 64.8365 96.8012V71.667L64.8425 71.67Z" fill="#00387C"/>
<path d="M94.2977 71.498C94.2645 71.3953 94.3339 71.2203 94.506 71.2203H100.823C100.999 71.2203 101.137 71.3229 101.207 71.5674L102.873 78.7542C102.906 78.9293 103.012 79.0319 103.048 79.0319C103.117 79.0319 103.223 78.9293 103.223 78.7542L104.82 71.673C104.889 71.4316 105.028 71.2233 105.236 71.2233H111.276C111.484 71.2233 111.623 71.4316 111.554 71.6398L107.005 86.2549C106.866 86.7409 106.694 87.7128 106.694 88.0931V96.8072C106.658 97.0517 106.486 97.26 106.208 97.26H99.438C99.2297 97.26 99.0577 97.0185 99.0215 96.8435V88.0237C99.0215 87.5015 98.952 87.085 98.7106 86.3213L94.3007 71.498H94.2977Z" fill="#00387C"/>
<path d="M96.2034 91.2715C96.1189 91.2081 96.0103 91.1809 95.9016 91.184C95.5635 91.193 94.649 91.1327 94.649 89.9374C94.649 89.1979 94.6671 88.5459 94.658 87.9663C94.6278 86.0014 94.2807 84.8695 91.7996 83.964C91.5128 83.8583 91.2019 83.7587 90.8548 83.6591V83.5897C94.1479 83.1037 94.492 79.6748 94.492 77.8034C94.492 73.5746 90.8548 71.2203 87.8032 71.2203H80.0761C79.8679 71.2203 79.6958 71.3923 79.6958 71.6368V96.7589C79.6958 97.0366 79.8678 97.2087 80.1123 97.2087H86.0375C86.2789 97.2087 86.454 97.0004 86.454 96.7922V85.7025C86.454 85.4611 86.4872 85.286 86.6955 85.286C87.0758 85.286 87.5618 85.8414 87.5618 86.9491V92.2857C87.5618 95.5425 89.6143 97.254 92.5391 97.254H95.8835C96.128 97.254 96.3392 97.1151 96.3392 96.8404V91.5703C96.3392 91.4435 96.297 91.3439 96.1974 91.2685L96.2034 91.2715ZM86.6985 82.3099C86.5265 82.3099 86.457 82.2405 86.457 81.999V78.8116C86.457 78.6033 86.5597 78.5006 86.7347 78.5006C87.0456 78.5006 87.5316 78.9504 87.5316 79.7472C87.5316 81.341 87.5316 82.3129 86.6985 82.3129V82.3099Z" fill="#00387C"/>
</g>
<defs>
<clipPath id="clip0_309_534">
<rect width="124" height="124" rx="62" fill="white"/>
</clipPath>
</defs>
</svg>
