<svg width="16" height="16" viewBox="0 0 16 16" fill="none" xmlns="http://www.w3.org/2000/svg">
  <rect width="16" height="16" rx="3" fill="#010101"/>
  <path d="M0 11.2971V12.186H16V10.4082H0V11.2971Z" fill="#FCE122"/>
  <path fill-rule="evenodd" clip-rule="evenodd" d="M9.92064 4.80105C9.9776 4.79933 10.0984 4.80618 10.1882 4.81474C10.2779 4.82501 10.4142 4.84725 10.4902 4.86779C10.5661 4.88662 10.6869 4.92769 10.7577 4.95679C10.8284 4.98588 10.9458 5.04921 11.0166 5.09542C11.0873 5.14163 11.1995 5.23063 11.2634 5.29224C11.3289 5.35385 11.4239 5.46681 11.4739 5.54211C11.5257 5.61742 11.5913 5.73038 11.6189 5.7937C11.6482 5.85874 11.6724 5.9135 11.6724 5.91864C11.6724 5.92377 11.4929 5.92719 10.8785 5.92719L10.8129 5.8382C10.7784 5.79028 10.7094 5.7184 10.6628 5.68245C10.6144 5.6448 10.5402 5.59688 10.4936 5.57463C10.4488 5.55238 10.3521 5.51644 10.2779 5.4959C10.1778 5.46852 10.0967 5.45996 9.94653 5.45996C9.81709 5.45996 9.70663 5.47023 9.62724 5.48906C9.55994 5.50446 9.45984 5.5404 9.40288 5.56779C9.34593 5.59517 9.25964 5.64994 9.21304 5.6893C9.16471 5.72866 9.0974 5.79712 9.06116 5.83991C9.02492 5.8827 8.96969 5.97169 8.9369 6.03844C8.90411 6.10348 8.86096 6.21986 8.84025 6.29516C8.81091 6.40127 8.80401 6.48 8.80401 6.65457C8.80401 6.82572 8.81264 6.90787 8.84025 7.01398C8.85924 7.08929 8.90929 7.21593 8.94898 7.29637C9.00248 7.4042 9.05253 7.47266 9.14228 7.56336C9.23547 7.65578 9.30106 7.70199 9.41151 7.75676C9.49263 7.79612 9.61689 7.83891 9.68765 7.85431C9.77912 7.87314 9.87577 7.87999 10.0156 7.87314C10.1709 7.86801 10.2434 7.85774 10.3487 7.8218C10.4211 7.79612 10.5264 7.7482 10.5799 7.71226C10.6351 7.67803 10.718 7.61128 10.7646 7.56336C10.8112 7.51544 10.8785 7.42645 10.982 7.25359L9.51506 7.24503V6.61178H11.8018L11.7898 6.76068C11.7828 6.84455 11.7656 6.97291 11.7501 7.04821C11.7345 7.12352 11.7017 7.24332 11.6776 7.31349C11.6534 7.38366 11.6085 7.49662 11.5775 7.56165C11.5464 7.62669 11.4791 7.74307 11.4273 7.81837C11.3773 7.89368 11.2858 8.00321 11.2237 8.06483C11.1615 8.12473 11.0683 8.20346 11.0166 8.23769C10.9648 8.27363 10.875 8.32497 10.8181 8.35235C10.7611 8.38145 10.6645 8.42081 10.6024 8.43964C10.5402 8.46018 10.4246 8.48756 10.3435 8.50296C10.2555 8.51837 10.1001 8.52864 9.95516 8.52864C9.81709 8.52864 9.64623 8.51837 9.55821 8.50296C9.47192 8.48756 9.35283 8.46018 9.2907 8.43964C9.22857 8.42081 9.10949 8.36947 9.02319 8.32497C8.9369 8.28218 8.81436 8.20346 8.74705 8.1504C8.67975 8.09906 8.5831 8.0015 8.52787 7.93647C8.47437 7.87143 8.39843 7.76361 8.36046 7.69857C8.32077 7.63353 8.26554 7.51715 8.2362 7.44185C8.20686 7.36654 8.16889 7.24674 8.14991 7.17657C8.13265 7.1064 8.11021 6.96264 8.09986 6.85995C8.08605 6.72303 8.08605 6.62205 8.09986 6.49198C8.11194 6.39272 8.13782 6.24382 8.15854 6.15824C8.18097 6.07267 8.22584 5.9426 8.25864 5.86729C8.2897 5.79199 8.36219 5.66192 8.41914 5.57634C8.47437 5.49077 8.57447 5.36754 8.64178 5.30251C8.70909 5.23576 8.81091 5.15019 8.86786 5.11082C8.92482 5.07317 9.00939 5.02183 9.05771 4.99786C9.10431 4.9739 9.18715 4.93967 9.23892 4.92085C9.2907 4.90031 9.3839 4.87293 9.44603 4.85752C9.50816 4.84212 9.61689 4.82329 9.68765 4.81645C9.75841 4.80789 9.86369 4.80105 9.92064 4.80105ZM1.16016 4.91743H2.03172L2.91536 7.52742L3.32612 6.31228C3.5522 5.64309 3.75068 5.05605 3.80073 4.91743H4.66366V8.49441L4.01646 8.48585L3.9992 6.22841L3.22256 8.49612L2.6047 8.48585L1.82461 6.20617L1.81598 8.49441L1.16879 8.48585L1.16016 4.91743ZM5.12964 4.91743H7.80473V5.51644H5.80273V6.33795H7.68392V6.95408H5.80273V7.87828H7.82199V8.49441H5.12964V4.91743ZM13.003 4.91743H13.6468L13.7365 5.13478C13.7866 5.2563 14.1145 6.05042 14.4666 6.90274C14.8186 7.75505 15.1103 8.46189 15.1155 8.47216C15.1207 8.48927 15.0396 8.49441 14.3716 8.49441L13.9747 7.46752H12.7148L12.3351 8.49441H11.9779C11.6983 8.49441 11.6206 8.48927 11.6258 8.47216C11.6292 8.46189 11.9416 7.65578 12.3179 6.68367L13.003 4.91743ZM13.167 6.22499C13.0772 6.47144 12.9823 6.72474 12.9582 6.78807L12.9133 6.90274C13.5553 6.90274 13.7417 6.8976 13.7417 6.89075C13.7417 6.88391 13.6865 6.73159 13.6192 6.55188C13.5519 6.37389 13.4587 6.12744 13.4138 6.0025L13.3309 5.7783L13.167 6.22499Z" fill="white"/>
</svg>
