<?xml version="1.0" encoding="UTF-8"?> <svg xmlns="http://www.w3.org/2000/svg" width="75" height="75" viewBox="0 0 75 75" fill="none"><path fill-rule="evenodd" clip-rule="evenodd" d="M37.1345 0C57.6343 0 74.2607 16.6264 74.2607 37.1345C74.2607 57.6343 57.6343 74.2607 37.1345 74.2607C16.6264 74.2607 0 57.6343 0 37.1345C0 16.6264 16.6264 0 37.1345 0Z" fill="#20F796"></path><path fill-rule="evenodd" clip-rule="evenodd" d="M37.1346 2.399C55.327 2.399 70.0792 17.1512 70.0792 35.3436C70.0792 46.0808 64.9397 55.6185 56.993 61.6326L46.9805 30.4873C40.4082 30.4873 33.8526 30.4873 27.2803 30.4873L17.2762 61.6326C9.32116 55.6185 4.18164 46.0808 4.18164 35.3436C4.18164 17.1512 18.9338 2.399 37.1346 2.399Z" fill="#1E203D"></path><path fill-rule="evenodd" clip-rule="evenodd" d="M36.935 11.0204C43.2573 11.0204 48.6801 14.8521 51.0124 20.3249C57.6097 21.9242 61.9329 24.6314 61.9329 27.6885C61.9329 32.6197 50.7375 36.6097 36.935 36.6097C23.124 36.6097 11.9287 32.6197 11.9287 27.6885C11.9287 24.6314 16.2602 21.9242 22.8492 20.3249C25.1815 14.8521 30.6126 11.0204 36.935 11.0204ZM36.935 21.5494C49.4381 21.5494 59.5755 24.6314 59.5755 28.4298C59.5755 32.2199 49.4381 35.302 36.935 35.302C24.4235 35.302 14.2861 32.2199 14.2861 28.4298C14.2861 24.6314 24.4235 21.5494 36.935 21.5494ZM42.9491 19.0337C44.7567 19.192 46.481 19.4252 48.1136 19.7085C46.1145 15.7601 42.0828 13.0112 37.3931 12.8446C39.8754 14.2107 41.8496 16.3932 42.9491 19.0337Z" fill="white"></path><path fill-rule="evenodd" clip-rule="evenodd" d="M36.9349 27.2137C43.6154 27.2137 49.0382 28.5714 49.0382 30.2541C49.0382 31.9284 43.6154 33.2861 36.9349 33.2861C30.246 33.2861 24.8232 31.9284 24.8232 30.2541C24.8232 28.5714 30.246 27.2137 36.9349 27.2137Z" fill="#20F796"></path><path fill-rule="evenodd" clip-rule="evenodd" d="M56.9931 61.6326C51.4704 65.8142 44.59 68.2882 37.1348 68.2882C29.6712 68.2882 22.7991 65.8142 17.2764 61.6326L27.2805 30.4873C33.8528 30.4873 40.4084 30.4873 46.9807 30.4873L56.9931 61.6326Z" fill="#20F796"></path><path d="M43.6653 38.7339C43.6653 39.1753 43.3154 39.5252 42.8739 39.5252C42.4408 39.5252 42.0826 39.1753 42.0826 38.7339V34.0775C42.0826 33.6443 42.4408 33.2861 42.8739 33.2861C43.3154 33.2861 43.6653 33.6443 43.6653 34.0775V38.7339ZM32.1784 38.7339C32.1784 39.1753 31.8202 39.5252 31.387 39.5252C30.9539 39.5252 30.5957 39.1753 30.5957 38.7339V34.0775C30.5957 33.6443 30.9539 33.2861 31.387 33.2861C31.8202 33.2861 32.1784 33.6443 32.1784 34.0775V38.7339ZM37.9177 37.1179C37.9177 37.5593 37.5678 37.9092 37.1346 37.9092C36.6932 37.9092 36.3433 37.5593 36.3433 37.1179V32.4615C36.3433 32.02 36.6932 31.6701 37.1346 31.6701C37.5678 31.6701 37.9177 32.02 37.9177 32.4615V37.1179Z" fill="#1E203D"></path><path fill-rule="evenodd" clip-rule="evenodd" d="M25.8311 46.6722L27.7469 45.2145L37.4262 41.1079L38.4008 42.8488L38.684 63.6235L32.2534 65.6393L25.8311 65.7809V46.6722Z" fill="white"></path><path fill-rule="evenodd" clip-rule="evenodd" d="M37.1347 40.5748L48.43 45.5643V65.7809L37.1347 68.2882L25.8311 65.7809V64.673L37.1347 61.2578V57.4511L25.8311 60.9996V59.8917L37.1347 56.1016V52.2699L25.8311 56.2266V55.1187L37.1347 50.9204V47.097L25.8311 51.4452V50.3457L37.1347 45.7476V41.9242L25.8311 46.6722V45.5643L37.1347 40.5748Z" fill="#1E203D"></path><path fill-rule="evenodd" clip-rule="evenodd" d="M39.3253 44.2316L40.3332 44.6481V45.656L39.3253 45.2561V44.2316ZM39.3086 59.4169L40.3165 59.7584V60.7497L39.3086 60.4498V59.4169ZM41.2828 60.0833L45.1145 61.3578V62.2074L41.2828 61.0496V60.0833ZM46.0808 61.6826L46.8221 61.9325V62.7239L46.0808 62.499V61.6826ZM39.3169 49.2878C39.6584 49.4211 39.9916 49.5544 40.3248 49.6876C40.3248 50.0208 40.3248 50.354 40.3248 50.6872C39.9916 50.5623 39.6584 50.4456 39.3169 50.3207C39.3169 49.9792 39.3169 49.6376 39.3169 49.2878ZM41.2994 50.0708C42.5739 50.5789 43.8484 51.0954 45.1228 51.6035C45.1228 51.8784 45.1228 52.1616 45.1228 52.4365C43.8484 51.97 42.5739 51.5119 41.2994 51.0454C41.2994 50.7205 41.2994 50.3957 41.2994 50.0708ZM46.0891 51.9867C46.339 52.0783 46.5889 52.1783 46.8305 52.2782C46.8305 52.5364 46.8305 52.803 46.8305 53.0612C46.5889 52.9696 46.339 52.878 46.0891 52.7947C46.0891 52.5198 46.0891 52.2532 46.0891 51.9867ZM39.3169 54.3523C39.6501 54.4773 39.9833 54.6022 40.3248 54.7189C40.3248 55.0521 40.3248 55.3853 40.3248 55.7184C39.9833 55.6102 39.6501 55.4935 39.3169 55.3853C39.3169 55.0437 39.3169 54.6939 39.3169 54.3523ZM41.2911 55.0771C42.5656 55.5435 43.84 56.01 45.1145 56.4848C45.1145 56.7597 45.1145 57.0429 45.1145 57.3178C43.84 56.893 42.5656 56.4681 41.2911 56.0433C41.2911 55.7184 41.2911 55.4019 41.2911 55.0771ZM46.0891 56.8347C46.3307 56.9263 46.5806 57.0179 46.8305 57.1012C46.8305 57.3678 46.8305 57.626 46.8305 57.8925C46.5806 57.8092 46.3307 57.7259 46.0891 57.6426C46.0891 57.3761 46.0891 57.1012 46.0891 56.8347ZM41.2994 45.0646L45.1312 46.7222V47.5552L41.2994 46.0391V45.0646ZM46.0974 47.1387L46.8388 47.4469V48.2299L46.0974 47.9384V47.1387Z" fill="#20F796"></path></svg> 