<svg width="120" height="120" viewBox="0 0 120 120" fill="none" xmlns="http://www.w3.org/2000/svg">
<mask id="mask0_20338_213650" style="mask-type:alpha" maskUnits="userSpaceOnUse" x="0" y="0" width="120" height="120">
<path d="M60 120C93.1372 120 120 93.137 120 60C120 26.8629 93.1372 0 60 0C26.8629 0 0 26.8629 0 60C0 93.137 26.8629 120 60 120Z" fill="white"/>
</mask>
<g mask="url(#mask0_20338_213650)">
<path d="M113.653 90.1742C130.255 60.7587 119.379 23.1785 89.3607 6.23639C59.3426 -10.7057 21.5493 -0.594033 4.94744 28.8216C-11.6544 58.237 -0.778142 95.8171 29.2402 112.759C59.2586 129.702 97.0516 119.59 113.653 90.1742Z" fill="url(#paint0_linear_20338_213650)"/>
</g>
<mask id="mask1_20338_213650" style="mask-type:alpha" maskUnits="userSpaceOnUse" x="0" y="0" width="120" height="120">
<path d="M60 120C93.1372 120 120 93.137 120 60C120 26.8629 93.1372 0 60 0C26.8629 0 0 26.8629 0 60C0 93.137 26.8629 120 60 120Z" fill="white"/>
</mask>
<g mask="url(#mask1_20338_213650)">
<path d="M115.066 84.1379C130.908 62.3894 122.831 29.5215 97.0272 10.726C71.223 -8.06966 37.4622 -5.67581 21.6207 16.0728C5.7791 37.8215 13.8554 70.689 39.6595 89.4848C65.4637 108.28 99.2245 105.887 115.066 84.1379Z" fill="url(#paint1_radial_20338_213650)"/>
</g>
<mask id="mask2_20338_213650" style="mask-type:alpha" maskUnits="userSpaceOnUse" x="0" y="0" width="120" height="120">
<path d="M60 120C93.1372 120 120 93.137 120 60C120 26.8629 93.1372 0 60 0C26.8629 0 0 26.8629 0 60C0 93.137 26.8629 120 60 120Z" fill="white"/>
</mask>
<g mask="url(#mask2_20338_213650)">
<path d="M115.473 56.1269C123.332 40.8884 110.582 18.6755 86.9971 6.51265C63.412 -5.65013 37.9219 -3.15681 30.0635 12.0816C22.2051 27.32 34.9543 49.5331 58.5394 61.696C82.1244 73.8588 107.615 71.3654 115.473 56.1269Z" fill="url(#paint2_radial_20338_213650)"/>
</g>
<defs>
<linearGradient id="paint0_linear_20338_213650" x1="92.8661" y1="197.381" x2="57.574" y2="-22.5213" gradientUnits="userSpaceOnUse">
<stop stop-color="#006DEF"/>
<stop offset="0.11" stop-color="#0570EF"/>
<stop offset="0.23" stop-color="#1277F0"/>
<stop offset="0.37" stop-color="#2884F2"/>
<stop offset="0.5" stop-color="#4896F4"/>
<stop offset="0.64" stop-color="#70ADF6"/>
<stop offset="0.78" stop-color="#A1C9F9"/>
<stop offset="0.92" stop-color="#DBEAFD"/>
<stop offset="1" stop-color="white"/>
</linearGradient>
<radialGradient id="paint1_radial_20338_213650" cx="0" cy="0" r="1" gradientUnits="userSpaceOnUse" gradientTransform="translate(143.138 78.9082) rotate(105.292) scale(92.2414 154.626)">
<stop offset="0.03" stop-color="#006DEF"/>
<stop offset="0.1" stop-color="#0671EF"/>
<stop offset="0.21" stop-color="#187BF0"/>
<stop offset="0.33" stop-color="#358BF2"/>
<stop offset="0.46" stop-color="#5EA3F4"/>
<stop offset="0.61" stop-color="#92C1F8"/>
<stop offset="0.76" stop-color="#D1E4FB"/>
<stop offset="0.83" stop-color="#F0F6FD"/>
</radialGradient>
<radialGradient id="paint2_radial_20338_213650" cx="0" cy="0" r="1" gradientUnits="userSpaceOnUse" gradientTransform="translate(149.754 21.4392) rotate(48.2923) scale(131.359 110.701)">
<stop offset="0.06" stop-color="#006DEF"/>
<stop offset="0.09" stop-color="#0F75F0"/>
<stop offset="0.25" stop-color="#529CF4"/>
<stop offset="0.4" stop-color="#8BBCF7"/>
<stop offset="0.54" stop-color="#B6D5FA"/>
<stop offset="0.67" stop-color="#D6E7FB"/>
<stop offset="0.77" stop-color="#E9F2FD"/>
<stop offset="0.84" stop-color="#F0F6FD"/>
</radialGradient>
</defs>
</svg>
