<?xml version="1.0" encoding="UTF-8"?>
<!-- Generator: Adobe Illustrator 27.6.1, SVG Export Plug-In . SVG Version: 6.00 Build 0)  -->
<svg xmlns="http://www.w3.org/2000/svg" xmlns:xlink="http://www.w3.org/1999/xlink" version="1.1" id="Warstwa_1" x="0px" y="0px" viewBox="0 0 127 125.1" style="enable-background:new 0 0 127 125.1;" xml:space="preserve">
<style type="text/css">
	.st0{fill:#D41736;}
</style>
<path class="st0" d="M106.7,59.4L106.7,59.4c7.6-14.8,6.5-30.7-3-40.2c-9.5-9.4-25.4-10.4-40.1-2.7l0,0l0,0  c-14.7-7.7-30.7-6.6-40.2,2.9c-9.4,9.5-10.4,25.5-2.6,40.2l0,0l0,0c-7.6,14.7-6.5,30.7,3,40.1c5.5,5.5,13.3,8.1,21.7,7.8  c6-0.2,12.3-1.9,18.5-5.2l0,0l0,0c6.9,3.6,14,5.2,20.6,5c7.5-0.3,14.4-2.9,19.4-8C113.3,90,114.3,74,106.7,59.4L106.7,59.4z   M99.7,61.3c-0.3,0.5-0.7,1-1.1,1.5c-0.2,0.3-0.5,0.7-0.7,1c-0.4,0.6-0.9,1.1-1.3,1.6c-0.2,0.3-0.4,0.5-0.7,0.8  c-0.7,0.8-1.4,1.6-2.2,2.3c-0.7,0.7-1.4,1.3-2.1,2c-0.1,0.1-0.2,0.2-0.3,0.3c-0.7,0.6-1.4,1.2-2.1,1.7c-0.1,0.1-0.1,0.1-0.2,0.1  c1.5-4.7,2.1-9.4,1.9-13.9c0.1-4.2-0.6-8.5-2-12.8c0.1,0,0.1,0.1,0.2,0.1c0.7,0.6,1.4,1.1,2.1,1.7c0.1,0.1,0.2,0.2,0.3,0.3  c0.7,0.6,1.4,1.3,2.1,2c0.8,0.7,1.5,1.5,2.2,2.3c0.2,0.3,0.4,0.5,0.7,0.8c0.5,0.5,0.9,1.1,1.3,1.6c0.3,0.3,0.5,0.7,0.7,1  c0.4,0.5,0.7,1,1.1,1.5c0.2,0.4,0.5,0.7,0.7,1.1c0.2,0.3,0.4,0.6,0.5,0.9c-0.2,0.3-0.3,0.6-0.5,0.9C100.1,60.6,99.9,61,99.7,61.3z   M75.2,87.1c-0.1,0.1-0.2,0.2-0.3,0.3c-0.6,0.7-1.3,1.4-1.9,2.1c-0.7,0.8-1.5,1.5-2.3,2.2c-0.3,0.2-0.5,0.4-0.8,0.7  c-0.5,0.5-1.1,0.9-1.6,1.3c-0.3,0.3-0.7,0.5-1,0.7c-0.5,0.4-1,0.7-1.5,1.1c-0.4,0.2-0.7,0.5-1.1,0.7c-0.3,0.2-0.6,0.4-0.9,0.5  c-0.3-0.2-0.6-0.3-0.9-0.5c-0.4-0.2-0.7-0.5-1.1-0.7c-0.5-0.3-1-0.7-1.5-1.1c-0.3-0.2-0.7-0.5-1-0.7c-0.6-0.4-1.1-0.9-1.6-1.3  c-0.3-0.2-0.5-0.4-0.8-0.7c-0.8-0.7-1.6-1.4-2.3-2.2c-0.7-0.7-1.3-1.4-2-2.1c-0.1-0.1-0.2-0.2-0.3-0.3c-0.6-0.7-1.2-1.4-1.7-2.1  c0-0.1-0.1-0.1-0.1-0.2c4.3,1.4,8.6,2,12.8,1.9c4.5,0.2,9.2-0.5,13.9-2C77,84.8,77,84.9,76.9,85C76.4,85.7,75.8,86.4,75.2,87.1z   M36.1,71c-0.1-0.1-0.2-0.2-0.3-0.3c-0.7-0.6-1.4-1.3-2.1-2c-0.8-0.7-1.5-1.5-2.2-2.3c-0.2-0.2-0.4-0.5-0.6-0.8  c-0.5-0.5-0.9-1.1-1.4-1.6c-0.2-0.3-0.5-0.6-0.7-1c-0.4-0.5-0.8-1-1.1-1.6c-0.2-0.3-0.5-0.7-0.7-1.1c-0.2-0.3-0.4-0.6-0.5-0.9  c0.2-0.3,0.3-0.6,0.5-0.9c0.2-0.4,0.5-0.7,0.7-1.1c0.4-0.5,0.7-1,1.1-1.6c0.2-0.3,0.5-0.7,0.7-1c0.4-0.6,0.9-1.1,1.3-1.6  c0.2-0.3,0.4-0.5,0.7-0.8c0.7-0.8,1.4-1.6,2.2-2.3c0.7-0.7,1.4-1.3,2.1-2c0.1-0.1,0.2-0.2,0.3-0.3c0.7-0.6,1.4-1.2,2.1-1.7  c0.1,0,0.1-0.1,0.2-0.1c-1.4,4.3-2,8.6-1.9,12.8c-0.2,4.5,0.5,9.2,2,13.9c-0.1-0.1-0.1-0.1-0.2-0.2C37.4,72.2,36.7,71.6,36.1,71z   M52.1,31.9c0.1-0.1,0.2-0.2,0.3-0.3c0.6-0.7,1.3-1.4,2-2.1c0.7-0.8,1.5-1.5,2.3-2.2c0.3-0.2,0.5-0.4,0.8-0.6  c0.5-0.5,1.1-0.9,1.6-1.4c0.3-0.2,0.6-0.5,1-0.7c0.5-0.4,1-0.8,1.6-1.1c0.3-0.2,0.7-0.5,1.1-0.7c0.3-0.2,0.6-0.4,0.9-0.5  c0.3,0.2,0.6,0.4,0.9,0.5c0.3,0.2,0.7,0.4,1,0.7c0.5,0.4,1.1,0.7,1.6,1.1c0.3,0.2,0.6,0.5,0.9,0.7c0.6,0.4,1.1,0.9,1.7,1.4  c0.3,0.2,0.5,0.4,0.8,0.6c0.8,0.7,1.6,1.4,2.3,2.2c0.7,0.7,1.3,1.4,2,2.1c0.1,0.1,0.2,0.2,0.3,0.3c0.6,0.7,1.2,1.4,1.7,2.1  c0.1,0.1,0.1,0.1,0.1,0.2c-4.5-1.4-9-2.1-13.3-1.9c-0.2,0-0.4,0-0.5,0c-4.2-0.1-8.5,0.6-12.8,2c0.1-0.1,0.1-0.1,0.1-0.2  C50.9,33.3,51.5,32.6,52.1,31.9z M85.9,58.8L85.9,58.8l0,0.2c0.3,6-1.1,12.3-4.2,18.4c-6.1,3.1-12.4,4.6-18.4,4.4l-0.2,0  c-5.7,0.1-11.7-1.4-17.5-4.3c-3.1-6.1-4.6-12.4-4.4-18.3l0-0.2c-0.1-5.7,1.4-11.7,4.3-17.4c5.7-2.9,11.7-4.5,17.4-4.4l0.1,0l0.1,0  c5.9-0.3,12.3,1.2,18.4,4.2C84.5,47.2,86,53.2,85.9,58.8z M100.2,22.7c7.3,7.3,8.6,19.6,3.4,31.5c-0.1-0.1-0.1-0.2-0.2-0.2  c-0.4-0.5-0.7-1-1.1-1.6c-0.1-0.1-0.1-0.2-0.2-0.3c-0.5-0.6-0.9-1.2-1.4-1.7c-0.1-0.1-0.3-0.3-0.4-0.4c-0.4-0.4-0.8-0.9-1.1-1.3  c-0.1-0.2-0.3-0.3-0.4-0.5c-0.5-0.6-1-1.1-1.6-1.6c-0.5-0.5-0.9-0.9-1.4-1.3c-0.1-0.1-0.3-0.2-0.4-0.4c-0.3-0.3-0.7-0.6-1-0.9  c-0.2-0.1-0.3-0.3-0.5-0.4c-0.3-0.3-0.6-0.5-1-0.8c-0.2-0.2-0.4-0.3-0.6-0.5c-0.3-0.2-0.6-0.5-0.9-0.7c-0.2-0.2-0.4-0.3-0.6-0.5  c-0.3-0.2-0.6-0.4-0.9-0.7c-0.2-0.2-0.4-0.3-0.7-0.4c-0.3-0.2-0.6-0.4-0.9-0.6c-0.2-0.1-0.5-0.3-0.7-0.4c-0.3-0.2-0.6-0.4-0.9-0.6  c-0.2-0.1-0.5-0.3-0.7-0.4c-0.2-0.1-0.4-0.2-0.6-0.3c-0.1-0.2-0.2-0.4-0.3-0.6c-0.1-0.2-0.3-0.5-0.4-0.7c-0.2-0.3-0.4-0.6-0.6-0.9  c-0.1-0.2-0.3-0.5-0.4-0.7c-0.2-0.3-0.4-0.6-0.6-0.9c-0.2-0.2-0.3-0.5-0.5-0.7c-0.2-0.3-0.4-0.6-0.6-0.9c-0.2-0.2-0.3-0.5-0.5-0.7  c-0.2-0.3-0.4-0.6-0.7-0.9c-0.2-0.2-0.3-0.4-0.5-0.7c-0.2-0.3-0.5-0.6-0.7-0.8c-0.2-0.2-0.3-0.4-0.5-0.6c-0.3-0.3-0.5-0.6-0.8-0.9  c-0.2-0.2-0.3-0.4-0.5-0.5c-0.4-0.5-0.9-0.9-1.3-1.4c-0.8-0.8-1.6-1.5-2.4-2.2c-0.2-0.2-0.4-0.4-0.6-0.6c-0.8-0.6-1.5-1.3-2.3-1.9  c-0.1-0.1-0.2-0.1-0.2-0.2c-0.7-0.5-1.4-1-2.1-1.5C80.5,14.3,92.8,15.5,100.2,22.7z M26.9,23c4.1-4.1,9.7-6.3,16-6.5  c4.9-0.2,10.3,0.9,15.5,3.2c-0.1,0.1-0.2,0.1-0.3,0.2c-0.5,0.4-1,0.7-1.5,1.1c-0.1,0.1-0.2,0.1-0.3,0.2c-0.6,0.4-1.2,0.9-1.7,1.4  c-0.2,0.1-0.3,0.3-0.5,0.4c-0.4,0.4-0.8,0.7-1.3,1.1c-0.2,0.1-0.3,0.3-0.5,0.4c-0.5,0.5-1.1,1-1.6,1.6c-0.5,0.5-0.9,0.9-1.3,1.4  c-0.1,0.2-0.3,0.3-0.4,0.5c-0.3,0.3-0.6,0.6-0.8,1c-0.2,0.2-0.3,0.4-0.5,0.6c-0.2,0.3-0.5,0.6-0.7,0.9c-0.2,0.2-0.3,0.4-0.5,0.7  c-0.2,0.3-0.4,0.6-0.7,0.9c-0.2,0.2-0.3,0.5-0.5,0.7c-0.2,0.3-0.4,0.6-0.6,0.9c-0.2,0.2-0.3,0.5-0.5,0.7c-0.2,0.3-0.4,0.6-0.6,0.9  c-0.2,0.2-0.3,0.5-0.5,0.7c-0.2,0.3-0.4,0.6-0.5,0.9c-0.1,0.2-0.3,0.5-0.4,0.8c-0.1,0.2-0.2,0.4-0.3,0.5c-0.2,0.1-0.4,0.2-0.6,0.3  c-0.2,0.1-0.5,0.3-0.7,0.4c-0.3,0.2-0.6,0.4-0.9,0.6c-0.2,0.1-0.5,0.3-0.7,0.4c-0.3,0.2-0.6,0.4-0.9,0.6c-0.2,0.2-0.4,0.3-0.7,0.5  c-0.3,0.2-0.6,0.4-0.9,0.6c-0.2,0.2-0.4,0.3-0.7,0.5c-0.3,0.2-0.6,0.5-0.9,0.7c-0.2,0.2-0.4,0.3-0.6,0.5c-0.3,0.2-0.6,0.5-0.9,0.7  c-0.2,0.2-0.4,0.3-0.6,0.5c-0.3,0.3-0.6,0.6-0.9,0.8c-0.2,0.2-0.3,0.3-0.5,0.5c-0.5,0.4-0.9,0.9-1.4,1.3c-0.5,0.5-1,1.1-1.6,1.6  c-0.1,0.2-0.3,0.3-0.4,0.5c-0.4,0.4-0.8,0.9-1.1,1.3c-0.1,0.2-0.3,0.3-0.4,0.5c-0.5,0.6-0.9,1.1-1.4,1.7c-0.1,0.1-0.1,0.2-0.2,0.3  c-0.4,0.5-0.7,1-1.1,1.5c-0.1,0.1-0.1,0.2-0.2,0.3C18.5,42.6,19.6,30.3,26.9,23z M27.2,96.2c-7.3-7.3-8.5-19.6-3.4-31.5  c0.1,0.1,0.1,0.2,0.2,0.2c0.4,0.5,0.7,1,1.1,1.5c0.1,0.1,0.1,0.2,0.2,0.2c0.4,0.6,0.9,1.2,1.4,1.7c0.1,0.1,0.3,0.3,0.4,0.4  c0.4,0.4,0.7,0.9,1.1,1.3c0.1,0.2,0.3,0.3,0.4,0.5c0.5,0.5,1,1.1,1.6,1.6c0.5,0.5,0.9,0.9,1.4,1.3c0.2,0.1,0.3,0.3,0.5,0.4  c0.3,0.3,0.6,0.6,0.9,0.8c0.2,0.2,0.4,0.3,0.6,0.5c0.3,0.2,0.6,0.5,0.9,0.7c0.2,0.2,0.4,0.3,0.7,0.5c0.3,0.2,0.6,0.4,0.9,0.7  c0.2,0.2,0.5,0.3,0.7,0.5c0.3,0.2,0.6,0.4,0.9,0.6c0.2,0.2,0.5,0.3,0.7,0.5c0.3,0.2,0.6,0.4,0.9,0.6c0.2,0.2,0.5,0.3,0.7,0.5  c0.3,0.2,0.6,0.4,0.9,0.5c0.2,0.1,0.5,0.3,0.7,0.4c0.2,0.1,0.4,0.2,0.5,0.3c0.1,0.2,0.2,0.4,0.3,0.6c0.1,0.2,0.3,0.5,0.4,0.7  c0.2,0.3,0.4,0.6,0.6,0.9c0.1,0.2,0.3,0.5,0.4,0.7c0.2,0.3,0.4,0.6,0.6,0.9c0.1,0.2,0.3,0.4,0.4,0.7c0.2,0.3,0.4,0.6,0.7,0.9  c0.2,0.2,0.3,0.4,0.5,0.6c0.2,0.3,0.5,0.6,0.7,0.9c0.2,0.2,0.3,0.4,0.5,0.6c0.3,0.3,0.5,0.6,0.8,1c0.1,0.2,0.3,0.3,0.4,0.5  c0.3,0.4,0.6,0.7,0.9,1c0.1,0.1,0.2,0.3,0.4,0.4c0.4,0.5,0.9,0.9,1.4,1.4c0.5,0.5,1.1,1,1.6,1.6c0.2,0.1,0.3,0.3,0.5,0.4  c0.4,0.4,0.9,0.8,1.3,1.1c0.2,0.1,0.3,0.3,0.5,0.4c0.6,0.5,1.2,0.9,1.7,1.4c0.1,0.1,0.2,0.1,0.3,0.2c0.5,0.4,1,0.7,1.5,1.1  c0.1,0.1,0.2,0.1,0.3,0.2C46.8,104.7,34.5,103.5,27.2,96.2z M100.4,95.9c-7.3,7.3-19.5,8.5-31.4,3.4c0.1-0.1,0.2-0.1,0.2-0.2  c0.5-0.4,1-0.7,1.5-1.1c0.1-0.1,0.2-0.1,0.3-0.2c0.6-0.4,1.2-0.9,1.7-1.4c0.2-0.1,0.3-0.3,0.5-0.4c0.4-0.4,0.9-0.7,1.3-1.1  c0.2-0.1,0.3-0.3,0.5-0.4c0.5-0.5,1.1-1,1.6-1.6c0.5-0.5,0.9-0.9,1.3-1.4c0.1-0.2,0.3-0.3,0.4-0.5c0.3-0.3,0.6-0.6,0.9-1  c0.2-0.2,0.3-0.4,0.5-0.6c0.2-0.3,0.5-0.6,0.7-0.9c0.2-0.2,0.3-0.4,0.5-0.7c0.2-0.3,0.4-0.6,0.7-0.9c0.2-0.2,0.3-0.5,0.5-0.7  c0.2-0.3,0.4-0.6,0.6-0.9c0.2-0.2,0.3-0.5,0.5-0.7c0.2-0.3,0.4-0.6,0.6-0.9c0.2-0.2,0.3-0.5,0.5-0.7c0.2-0.3,0.4-0.6,0.5-0.9  c0.1-0.2,0.3-0.5,0.4-0.8c0.1-0.2,0.2-0.4,0.3-0.5c0.2-0.1,0.4-0.2,0.6-0.3c0.2-0.1,0.5-0.3,0.7-0.4c0.3-0.2,0.6-0.4,0.9-0.6  c0.2-0.1,0.5-0.3,0.7-0.4c0.3-0.2,0.6-0.4,0.9-0.6c0.2-0.2,0.5-0.3,0.7-0.5c0.3-0.2,0.6-0.4,0.9-0.6c0.2-0.2,0.4-0.3,0.6-0.5  c0.3-0.2,0.6-0.5,0.9-0.7c0.2-0.2,0.4-0.3,0.6-0.5c0.3-0.3,0.6-0.5,0.9-0.8c0.2-0.2,0.4-0.3,0.6-0.5c0.3-0.3,0.6-0.6,1-0.9  c0.2-0.1,0.3-0.3,0.5-0.4c0.5-0.4,0.9-0.9,1.4-1.4c0.5-0.5,1-1.1,1.5-1.6c0.1-0.2,0.3-0.3,0.4-0.5c0.4-0.4,0.8-0.9,1.1-1.3  c0.1-0.2,0.3-0.3,0.4-0.5c0.5-0.6,0.9-1.2,1.4-1.7c0.1-0.1,0.1-0.2,0.2-0.2c0.4-0.5,0.7-1,1.1-1.6c0.1-0.1,0.1-0.2,0.2-0.2  C108.8,76.4,107.7,88.6,100.4,95.9z"></path>
<g>
</g>
<g>
</g>
<g>
</g>
<g>
</g>
<g>
</g>
<g>
</g>
<g>
</g>
<g>
</g>
<g>
</g>
<g>
</g>
<g>
</g>
<g>
</g>
<g>
</g>
<g>
</g>
<g>
</g>
</svg>
