<svg version="1.0" xmlns="http://www.w3.org/2000/svg" width="48.000000ptpx" height="48.000000ptpx" viewBox="0 0 48.000000 48.000000" preserveAspectRatio="xMidYMid meet" transform="rotate(0) scale(1, 1)">

<g transform="translate(0.000000,48.000000) scale(0.100000,-0.100000)" fill="#f33" stroke="none">
<path d="M167 466 c-55 -21 -103 -61 -134 -114 -23 -38 -28 -59 -28 -113 0&#10;-56 5 -73 30 -115 75 -121 214 -156 329 -83 116 73 147 215 73 326 -61 90&#10;-178 133 -270 99z m250 -152 c2 -6 -13 -15 -34 -20 -38 -9 -40 -12 -58 -96 -4&#10;-23 -11 -28 -34 -28 l-29 0 13 61 c15 73 22 81 77 89 50 9 61 7 65 -6z m-187&#10;-9 c40 -21 42 -70 5 -105 -21 -20 -39 -25 -95 -28 -39 -2 -70 0 -70 4 0 8 10&#10;55 25 122 5 19 12 22 56 22 27 0 63 -7 79 -15z m175 -110 c0 -13 -8 -21 -22&#10;-23 -17 -3 -23 2 -23 16 0 10 3 22 7 26 13 13 38 1 38 -19z"/>
<path d="M141 266 c-27 -28 -25 -60 5 -64 26 -4 56 30 52 60 -4 31 -29 34 -57&#10;4z"/>
</g>
</svg>