<svg xmlns="http://www.w3.org/2000/svg" version="1.1" xmlns:xlink="http://www.w3.org/1999/xlink" width="120" height="120" x="0" y="0" viewBox="0 0 512 512" style="enable-background:new 0 0 512 512" xml:space="preserve"><g><path fill="#f2f2f2" d="M322.7 512H189.3C85.2 512 0 426.8 0 322.7V189.3C0 85.2 85.2 0 189.3 0h133.5C426.8 0 512 85.2 512 189.3v133.5c0 104-85.2 189.2-189.3 189.2z" opacity="1" data-original="#ffd47d"></path><path fill="#2d2d2d" d="M210 235c-6.1 0-11-4.9-11-11 0-12.4-10.1-22.5-22.5-22.5S154 211.6 154 224c0 6.1-4.9 11-11 11s-11-4.9-11-11c0-24.5 20-44.5 44.5-44.5s44.5 20 44.5 44.5c0 6.1-4.9 11-11 11zM369 235c-6.1 0-11-4.9-11-11 0-12.4-10.1-22.5-22.5-22.5S313 211.6 313 224c0 6.1-4.9 11-11 11s-11-4.9-11-11c0-24.5 20-44.5 44.5-44.5s44.5 20 44.5 44.5c0 6.1-4.9 11-11 11z" opacity="1" data-original="#2d2d2d"></path><path fill="#d65c32" d="M466.2 433.2c-19.8 19.8-52.2 19.8-72 0l-37.8-37.8c-6.3-6.3-6.3-16.7 0-23.1l48.9-48.9c6.3-6.3 16.7-6.3 23.1 0l37.8 37.8c19.7 19.8 19.7 52.2 0 72z" opacity="1" data-original="#d65c32"></path><path fill="#ba4120" d="m436.8 331.9-11.6-11.6c-4.6-4.6-12.2-4.6-16.9 0l-55.1 55.1c-4.6 4.6-4.6 12.2 0 16.9l11.6 11.6z" opacity="1" data-original="#ba4120"></path><path fill="#ba4120" d="M435.5 411c-2.2 0-4.4-.8-6-2.5l-44.7-44.7c-3.3-3.3-3.3-8.7 0-12s8.7-3.3 12 0l44.7 44.7c3.3 3.3 3.3 8.7 0 12-1.7 1.7-3.8 2.5-6 2.5z" opacity="1" data-original="#ba4120"></path><path fill="#2d2d2d" d="M256.5 415C154 415 98.6 359.7 89.3 304.9c-1-6 3-11.7 9-12.7s11.7 3 12.7 9c7.8 45.7 55.8 91.9 145.5 91.9 64.8 0 134.9-28.4 145.5-91.8 1-6 6.7-10 12.7-9s10 6.7 9 12.7c-9.1 54.7-64.4 110-167.2 110z" opacity="1" data-original="#2d2d2d"></path></g></svg>