<?xml version="1.0" encoding="UTF-8"?> <svg xmlns="http://www.w3.org/2000/svg" width="60" height="44" viewBox="0 0 60 44" fill="none"><path d="M0 36.4303C0.766401 36.0432 1.82821 36.0144 2.62456 36.3171C2.75635 37.0985 2.83502 37.8873 2.86006 38.6785C3.27926 38.7125 3.70107 38.7029 4.11811 38.6497C4.14401 37.868 4.22302 37.0888 4.35464 36.3171C5.151 36.0144 6.21384 36.0432 6.97817 36.4303C6.54643 38.1871 6.53713 40.6527 6.97817 42.4096C6.59654 42.5673 6.18514 42.6478 5.7697 42.6458C5.05184 42.6458 4.59014 42.5465 4.35464 42.4572C4.22298 41.6948 4.14396 40.9249 4.11811 40.1524C3.77416 40.076 3.24326 40.0959 2.86006 40.1425C2.83508 40.9186 2.75641 41.6922 2.62456 42.4582C2.38803 42.5426 1.92633 42.6468 1.20848 42.6468C0.793042 42.6486 0.381665 42.5682 0 42.4106C0.431746 40.6537 0.431746 38.1871 0 36.4303Z" fill="#457B52"></path><path d="M12.0405 39.9814C11.8639 39.0087 11.7658 38.4042 11.677 37.5446C11.5592 37.5446 11.2741 37.5635 11.1956 37.5535C11.0924 38.423 10.9591 39.1595 10.7825 40.0002C11.2017 40.0275 11.6225 40.0212 12.0405 39.9814ZM10.4416 41.5119C10.3384 41.8901 10.265 42.1075 10.1318 42.4658C9.68031 42.6129 9.20184 42.6677 8.72705 42.6266C8.21061 42.5889 7.75304 42.4281 7.47829 42.1641C8.56902 40.2365 9.09992 37.9506 9.36537 36.2791C10.4861 36.024 12.9144 36.0617 13.7892 36.421C14.0567 38.0905 14.223 39.9248 15.5203 42.1601C15.3138 42.4708 14.8428 42.5939 14.2623 42.6326C13.6818 42.6713 13.0631 42.5938 12.7295 42.4152C12.5818 42.1418 12.4661 41.8535 12.3845 41.5556C11.7354 41.5774 11.0856 41.5615 10.4385 41.508L10.4416 41.5119Z" fill="#457B52"></path><path d="M20.4835 37.7618C19.9526 37.7708 19.6778 37.743 19.1469 37.7331C19.2647 39.5286 19.0096 40.6334 18.7142 41.3887H20.5134C20.3468 40.1856 20.3367 38.9673 20.4835 37.7618ZM16.7589 36.534C18.5479 35.9573 21.2303 35.9573 23.0203 36.534C22.8034 38.1112 22.7052 39.9346 22.8818 41.3887H23.7577C23.7278 41.9555 23.6297 42.7962 23.7371 43.9019C23.2072 44.0439 21.9977 44.024 21.5453 43.892C21.4897 43.4785 21.4831 43.0603 21.5257 42.6453H17.8693C17.8693 43.2309 17.9085 43.2786 17.8197 43.8453C17.3673 44.0052 15.9822 43.9297 15.6186 43.8543C15.6971 43.0324 15.756 42.3992 15.6475 41.3887H16.355C17.0533 40.01 17.2495 38.411 16.7589 36.534Z" fill="#457B52"></path><path d="M24.3463 36.3734C26.6754 35.7779 28.9467 36.024 29.8402 36.1838C30.0178 36.5719 29.8701 37.3839 29.7369 37.8186C29.0139 37.6767 27.8694 37.5635 27.1547 37.63C27.165 37.8474 27.1743 38.3 27.1846 38.5174C27.705 38.5588 28.2283 38.5524 28.7474 38.4985C28.954 38.7636 29.0128 39.774 28.7474 40.1145C28.2303 40.0385 27.7057 40.0225 27.1846 40.0668C27.1846 40.3973 27.1846 40.8132 27.1743 40.9601C27.6463 41.1021 29.3268 40.8559 29.7493 40.6862C29.9755 41.2252 30.0344 42.1413 29.8577 42.4619C28.5801 42.6038 26.8407 42.8401 24.3535 42.3954C24.7852 40.6395 24.7852 38.1273 24.3535 36.3695L24.3463 36.3734Z" fill="#457B52"></path><path d="M35.6852 39.7174H35.6655C35.0561 40.8787 34.0635 43.0426 31.4307 42.5959C30.7428 42.4827 30.3493 41.9011 30.2718 41.6797C31.7065 41.1696 32.9738 40.1591 33.387 39.2142C32.4729 38.6385 31.5102 37.4484 31.2644 36.3992C31.7809 36.0598 33.4562 35.9933 34.2918 36.3992C34.2329 37.4484 34.705 38.5541 35.6872 39.1784C35.6761 38.2541 35.5674 37.3333 35.3629 36.43C35.8093 36.2184 36.3004 36.1083 36.7981 36.1083C37.2958 36.1083 37.7869 36.2184 38.2333 36.43C38.0278 37.3345 37.9184 38.2567 37.9069 39.1824C38.8902 38.5601 39.3715 37.4543 39.3023 36.4032C40.1483 35.9972 41.8091 36.0637 42.3307 36.4032C42.0952 37.4524 41.1212 38.6425 40.2071 39.2181C40.6296 40.1631 41.8876 41.1735 43.3234 41.6837C43.2542 41.9011 42.8513 42.4867 42.1738 42.5999C39.5389 43.0445 38.5452 40.8807 37.9265 39.7214H37.9069C37.9179 40.627 38.0266 41.5292 38.2312 42.4133C37.8499 42.572 37.4383 42.6525 37.0228 42.6495H36.5734C36.1577 42.6515 35.7459 42.571 35.3639 42.4133C35.5686 41.5292 35.6773 40.627 35.6883 39.7214L35.6852 39.7174Z" fill="#457B52"></path><path d="M48.4395 37.7618C47.9086 37.7708 47.6328 37.743 47.1019 37.7331C47.2197 39.5286 46.9646 40.6334 46.6702 41.3887H48.4684C48.3016 40.1856 48.2918 38.9672 48.4395 37.7618ZM44.7139 36.534C46.5028 35.9573 49.1863 35.9573 50.9752 36.534C50.7594 38.1112 50.6602 39.9346 50.8379 41.3887H51.7117C51.6828 41.9555 51.5846 42.7962 51.6931 43.9019C51.1622 44.0439 49.9527 44.024 49.5003 43.892C49.4457 43.4784 49.4392 43.0603 49.4807 42.6453H45.8242C45.8242 43.2309 45.8635 43.2786 45.7757 43.8453C45.3233 44.0052 43.9372 43.9297 43.5736 43.8543C43.6521 43.0324 43.711 42.3992 43.6025 41.3887H44.3111C45.0083 40.01 45.2055 38.411 44.7139 36.534Z" fill="#457B52"></path><path d="M56.5161 39.9814C56.3395 39.0087 56.2413 38.4042 56.1535 37.5446C56.0348 37.5446 55.7497 37.5635 55.6712 37.5535C55.5731 38.423 55.4357 39.1595 55.258 40.0002C55.6772 40.0275 56.098 40.0212 56.5161 39.9814ZM54.9141 41.5119C54.8108 41.8901 54.7374 42.1075 54.6042 42.4658C54.1524 42.6128 53.6736 42.6676 53.1985 42.6266C52.682 42.5889 52.2255 42.4281 51.9497 42.1641C53.0415 40.2365 53.5713 37.9506 53.8378 36.2791C54.9575 36.024 57.3858 36.0617 58.2606 36.421C58.5354 38.0925 58.7027 39.9248 60 42.1641C59.7934 42.4747 59.3224 42.5978 58.7419 42.6365C58.1615 42.6752 57.5428 42.5978 57.2091 42.4192C57.0619 42.1457 56.9465 41.8574 56.8652 41.5596C56.2158 41.5814 55.5656 41.5655 54.9182 41.5119H54.9141Z" fill="#457B52"></path><path fill-rule="evenodd" clip-rule="evenodd" d="M36.5951 9.96667C33.8545 4.09553 30.0027 0 30.0027 0C30.0027 0 26.1498 4.09552 23.4092 9.96879C26.0513 11.4398 28.6298 13.8641 30.0017 17.8616C31.3745 13.8641 33.952 11.4376 36.5951 9.96667Z" fill="#F9ED46"></path><path fill-rule="evenodd" clip-rule="evenodd" d="M30.3288 18.8989C29.9183 20.3251 29.8445 22.2009 30.0025 23.838C31.2338 21.9655 34.0821 18.5538 38.2869 17.3853C40.339 16.8155 42.4589 16.8602 44.3499 17.1595C45.8808 12.7263 45.0999 8.34427 45.0999 8.34427H45.0794C44.5366 8.34427 33.292 8.46996 30.3288 18.8989Z" fill="#8ABE5C"></path><path d="M15.014 8.34435C15.014 8.34435 26.7481 8.21121 29.7893 18.899C30.1946 20.3252 30.1649 22.201 30.0068 23.8381C28.7756 21.9656 26.036 18.5539 21.8312 17.3854C19.7791 16.8155 17.6592 16.8603 15.7672 17.1596C14.2363 12.7264 15.0171 8.34435 15.0181 8.34435H15.014Z" fill="#8ABE5C"></path><path fill-rule="evenodd" clip-rule="evenodd" d="M28.2215 29.1435C28.6773 30.1416 29.2765 31.0621 29.9986 31.8735C30.7198 31.0624 31.3186 30.1427 31.7747 29.1456C31.7358 29.1094 31.6978 29.0721 31.6598 29.0391C30.9983 28.3964 30.4372 27.6508 29.9966 26.8289C29.5564 27.651 28.9952 28.3967 28.3333 29.0391L28.2215 29.1456V29.1435Z" fill="#52AC62"></path><path d="M35.6686 30.8609C32.5791 29.5923 31.1365 27.6942 30.4788 26.3819C32.4139 27.2287 37.3534 29.032 41.946 27.7559C42.1779 27.691 42.4037 27.6196 42.6263 27.5429C44.896 29.5401 46.1416 31.5607 46.1416 31.5607C46.1416 31.5607 40.7968 32.9677 35.6696 30.8609H35.6686ZM31.2237 24.4316C32.5217 23.8095 34.8601 23.3249 38.0429 24.6318C39.238 25.1309 40.3702 25.779 41.4145 26.5619C37.0815 27.6686 32.418 25.8546 30.7897 25.1186C30.9046 24.9269 31.0493 24.6925 31.2237 24.4316Z" fill="#52AC62"></path><path d="M24.3337 30.8605C27.4232 29.5919 28.8658 27.6917 29.5245 26.3815C27.5894 27.2283 22.6499 29.0316 18.0563 27.7556C17.8257 27.6909 17.5993 27.6199 17.377 27.5425C15.1074 29.5397 13.8617 31.5603 13.8617 31.5603C13.8617 31.5603 19.2065 32.9674 24.3337 30.8605ZM28.7776 24.4312C27.4806 23.8092 25.1433 23.3267 21.9625 24.6315C20.7671 25.1306 19.6346 25.7787 18.5898 26.5615C22.9229 27.6682 27.5863 25.8543 29.2157 25.1182C29.1008 24.9265 28.9551 24.6922 28.7806 24.4312H28.7776Z" fill="#52AC62"></path><path fill-rule="evenodd" clip-rule="evenodd" d="M9.67951 19.7339C9.67951 19.7339 12.5802 25.5635 18.2174 27.1304C23.8535 28.6983 30.092 25.407 30.092 25.407C30.092 25.407 27.1954 19.5763 21.5521 18.0095C20.4853 17.7199 19.3866 17.5767 18.2841 17.5834C13.7478 17.5834 9.67745 19.7307 9.67745 19.7307L9.67951 19.7339Z" fill="#698B55"></path><path d="M41.784 27.1304C36.1489 28.6973 29.9094 25.407 29.9094 25.407C29.9094 25.407 32.8101 19.5763 38.4472 18.0095C44.0844 16.4426 50.3229 19.734 50.3229 19.734C50.3229 19.734 47.4222 25.5636 41.784 27.1304Z" fill="#698B55"></path></svg> 