<svg width="80" height="81" fill="none" xmlns="http://www.w3.org/2000/svg"><circle cx="40" cy="40.104" r="40" fill="#fff"/><path d="M75 40.078a34.79 34.79 0 01-4.837 17.725s-12.195 4.301-30.169 4.301-30.168-4.3-30.168-4.3A34.78 34.78 0 015 40.077C5 20.764 20.67 5.104 39.994 5.104 59.331 5.104 75 20.764 75 40.078z" fill="#FF8300"/><path d="M56 44.231c0-.521-.44-.943-.985-.943H53.07V20.06c0-.522-.44-.943-.985-.943H34.103c-.533 0-1.055 0-1.541-.011a4.492 4.492 0 00-1.32.144c-.383.1-.696.288-.916.543-.22.256-.336.655-.336 1.187v2.496c0 .843-.012 1.753-.046 2.73-.035.975-.093 5.878-.186 6.888a38.386 38.386 0 01-.429 3.04 18.28 18.28 0 01-.764 2.861c-.325.899-.73 1.72-1.217 2.474-.382.577-.81 1.087-1.297 1.498a1.67 1.67 0 01-.846.377 1.931 1.931 0 00-.765.266c-.301.189-.44.588-.44 1.21v8.341c0 .521.44.943.985.943h5.793c.544 0 .984-.422.984-.943v-3.838h16.406v3.838c0 .521.44.943.985.943h5.85c.545 0 .985-.422.985-.943v-8.897c.012-.022.012-.022.012-.033zm-10.694-.943h-11.03c.58-.787 1.043-1.73 1.426-2.828.382-1.099.672-2.23.892-3.384.22-1.165.37-2.296.463-3.394.093-1.11.14-5.968.14-6.79v-1.674h8.12v18.07h-.01z" fill="#fff"/><path d="M11 60.104c6.432 9.071 17.013 15 29 15 11.976 0 22.569-5.929 29-15 0 0-14.362 4.915-29 4.915s-29-4.915-29-4.915z" fill="#74BB23"/><path d="M39.994 64.604c14.641 0 29.006-4.5 29.006-4.5s-12.186 9-29.213 9c-17.04 0-28.787-9-28.787-9s14.364 4.5 28.994 4.5z" fill="#91D400"/></svg>