<svg width="26" height="25" viewBox="0 0 26 25" fill="none" xmlns="http://www.w3.org/2000/svg">
<circle cx="12.5" cy="12.5" r="12.5" fill="white"/>
<path d="M9.9684 5.8171L12.6955 2.63101L15.4233 5.8171H14.1223L16.3884 8.69346H14.6682L17.2277 10.9503H13.0314V12.4991H12.318V10.9503H7.95403L10.5136 8.69346H8.83503L11.3528 5.8171H9.9684Z" fill="#007838"/>
<path fill-rule="evenodd" clip-rule="evenodd" d="M12.6361 14.7524C13.8728 14.7524 14.875 13.7623 14.875 12.5411C14.875 12.5269 14.875 12.5127 14.8744 12.4986H22.7835L23.854 13.6676L22.5609 14.5913L23.3618 15.9546L21.9025 16.5926L22.3993 18.0905L20.8374 18.4149L21.0076 19.982L19.4119 19.9787L19.2482 21.5465L17.6883 21.2155L17.1988 22.7156L15.7421 22.0714L14.9472 23.438L13.6582 22.5089L12.5931 23.6824L11.5279 22.5089L10.2389 23.438L9.44398 22.0714L7.98735 22.7156L7.49783 21.2155L5.93787 21.5465L5.77425 19.9787L4.17852 19.982L4.34876 18.4149L2.7868 18.0905L3.28361 16.5926L1.82433 15.9546L2.62517 14.5913L1.33216 13.6676L2.40261 12.4986H10.3978C10.3972 12.5127 10.3972 12.5269 10.3972 12.5411C10.3972 13.7623 11.3994 14.7524 12.6361 14.7524Z" fill="#101010"/>
<path fill-rule="evenodd" clip-rule="evenodd" d="M12.5926 24.3304C19.1716 24.3304 24.5047 19.0336 24.5047 12.4996C24.5047 5.96568 19.1716 0.668862 12.5926 0.668862C6.01359 0.668862 0.680555 5.96568 0.680555 12.4996C0.680555 19.0336 6.01359 24.3304 12.5926 24.3304ZM12.5926 24.9993C19.5432 24.9993 25.1783 19.403 25.1783 12.4996C25.1783 5.59628 19.5432 0 12.5926 0C5.64198 0 0.00688934 5.59628 0.00688934 12.4996C0.00688934 19.403 5.64198 24.9993 12.5926 24.9993Z" fill="#2E2E2C"/>
</svg>
