<svg width="80" height="80" viewBox="0 0 80 80" fill="none" xmlns="http://www.w3.org/2000/svg">
<path fill-rule="evenodd" clip-rule="evenodd" d="M10.7504 35.622C3.56853 41.7343 0.679625 48.226 0 51.1916L8.34085 57.6789C9.02048 54.7133 11.9094 48.2216 19.0913 42.1093C22.3849 39.3063 26.086 37.9135 30.0586 36.4186C34.7486 34.6537 39.8171 32.7464 45.0406 28.2079C56.3471 18.3842 59.1274 9.48733 59.1274 9.48733L50.7865 3C50.7865 3 48.0062 11.8969 36.6998 21.7206C31.4763 26.259 26.4077 28.1664 21.7178 29.9312L21.7178 29.9312C17.7451 31.4262 14.044 32.8189 10.7504 35.622ZM34.6609 54.343C27.4789 60.4553 24.59 66.947 23.9104 69.9126L32.2513 76.4C32.9309 73.4343 35.8198 66.9426 43.0017 60.8304C46.4594 57.8877 50.2568 56.3659 54.3947 54.7078C58.8517 52.9218 63.7035 50.9775 68.951 46.9289C75.4384 41.9238 79.7015 34.6951 79.7015 34.6951L71.3606 28.2077C71.3606 28.2077 70.2583 32.0588 60.6102 40.4416C55.3867 44.9801 50.3182 46.8874 45.6282 48.6523C41.6555 50.1472 37.9545 51.54 34.6609 54.343ZM11.6772 60.6449C12.3568 57.6793 15.2457 51.1876 22.4276 45.0753C25.7212 42.2722 29.4223 40.8795 33.3949 39.3845C38.0849 37.6197 43.1534 35.7123 48.3769 31.1739C62.4567 18.9406 65.4293 5.59526 65.4293 5.59526L73.7702 12.0826C73.7702 12.0826 70.0631 27.0961 56.7178 37.6612C51.4652 41.8195 46.5628 43.7586 42.0524 45.5427C37.9576 47.1623 34.1859 48.6542 30.7685 51.5626C23.5866 57.6749 20.6976 64.1666 20.018 67.1322L11.6772 60.6449Z" fill="url(#paint0_linear_4835_26995)"/>
<defs>
<linearGradient id="paint0_linear_4835_26995" x1="64.5075" y1="3" x2="3.46528" y2="3" gradientUnits="userSpaceOnUse">
<stop stop-color="#FEDA3B"/>
<stop offset="0.47" stop-color="#EF5541"/>
<stop offset="0.815" stop-color="#821EE0"/>
<stop offset="0.98" stop-color="#7F2A8A"/>
</linearGradient>
</defs>
</svg>
