<?xml version="1.0" encoding="UTF-8"?>
<!DOCTYPE svg PUBLIC "-//W3C//DTD SVG 1.1//EN" "http://www.w3.org/Graphics/SVG/1.1/DTD/svg11.dtd">
<!-- Creator: CorelDRAW 2019 (64-Bit) -->
<svg xmlns="http://www.w3.org/2000/svg" xml:space="preserve" width="42.3332mm" height="42.3332mm" version="1.1" style="shape-rendering:geometricPrecision; text-rendering:geometricPrecision; image-rendering:optimizeQuality; fill-rule:evenodd; clip-rule:evenodd"
viewBox="0 0 4233.32 4233.32"
 xmlns:xlink="http://www.w3.org/1999/xlink"
 xmlns:xodm="http://www.corel.com/coreldraw/odm/2003">
 <defs>
  <style type="text/css">
   <![CDATA[
    .fil1 {fill:red}
    .fil0 {fill:white}
   ]]>
  </style>
 </defs>
 <g id="Слой_x0020_1">
  <metadata id="CorelCorpID_0Corel-Layer"/>
  <g id="_1973007364000">
   <path class="fil0" d="M2116.66 0c1169,0 2116.67,947.66 2116.67,2116.66 0,1169 -947.67,2116.66 -2116.67,2116.66 -1169,0 -2116.66,-947.66 -2116.66,-2116.66 0,-1169 947.66,-2116.66 2116.66,-2116.66z"/>
   <g id="Кругляш.cdr">
    <path class="fil1" d="M2116.66 299.32c1003.68,0 1817.34,813.66 1817.34,1817.34 0,1003.68 -813.66,1817.34 -1817.34,1817.34 -1003.68,0 -1817.34,-813.66 -1817.34,-1817.34 0,-1003.68 813.66,-1817.34 1817.34,-1817.34z"/>
    <path id="УВ.cdr" class="fil0" d="M2011.32 2119.34c155.62,0 281.76,126.14 281.76,281.77 0,155.6 -126.14,281.76 -281.76,281.76 -155.6,0 -281.76,-126.16 -281.76,-281.76 0,-155.63 126.16,-281.77 281.76,-281.77zm-940.93 -14.38l-172.51 -227.46c-141.06,-179.72 -287.26,-343.11 -178.67,-511.64 46.75,-72.64 118.53,-120.82 204.87,-131.62 73.12,-9.16 151.78,9.48 223.46,55.66 77.32,49.82 196.24,227.55 255.8,311.8 33.72,-56.34 73.68,-110.26 111.7,-163.93 80.51,-115.24 154.64,-167.42 232.19,-192.52 102.76,-33.25 230.77,6.97 300.75,94.17 66.14,82.39 98.24,179.95 39.81,267.41l-726.29 1087.22c-111.82,155.75 -245.1,351.23 -464.71,296.76 -96.36,-26.9 -162.1,-96.58 -184.25,-193.26 -20.02,-96.64 27.97,-202.7 105.35,-316.21 86.87,-127.42 190.98,-280.25 252.5,-376.38zm147.76 -4.38l-346.09 526.2c-17.89,27.23 -89.57,152.05 46.84,234.89 55.7,33.84 167.29,31.46 251.75,-95.62l786.95 -1184.12c54.17,-84.27 3.98,-150.64 -51.16,-191.45 -66.42,-49.16 -156.37,-52.36 -229.22,42.01 -73.79,92.95 -195.54,276.48 -270.77,385.41 -85.14,-105.87 -288.35,-389.65 -371.36,-440.86 -19.19,-11.84 -68.78,-27.07 -94.06,-23.22 -102.22,15.57 -207.55,117.37 -88.55,273.18 116.73,152.75 243.21,323.75 365.67,473.58zm906.85 -161.4c-68.63,-91.27 -32.61,-216.65 19.21,-306.62 91.32,-158.56 257.06,-321.62 516.16,-375.68 252.88,-52.76 437.4,-19.89 556.05,55.45 118.92,75.51 183.65,203.27 160.65,343.92 -14.68,89.71 -64.84,177.84 -148.92,246.47 54.6,30.71 95.49,45.43 144.34,91.42 101.79,95.85 157.94,211.75 174.32,332.12 17.42,128.18 -10.54,261.03 -76.7,379.66 -79.05,141.81 -245.07,234.83 -404.99,265.87 -115.68,22.45 -272.05,18.4 -358,-74.11 -44.47,-47.84 -7.96,-158.96 40.73,-204.72 252.69,52.62 370.88,-47.28 403.58,-289.87 30.44,-225.75 -84.65,-353.1 -337.4,-358.47 -9.39,38.96 -20.77,101.88 -39.13,178.9 -66.86,263.4 -85.27,506.42 -299.95,672.38 -115.56,89.29 -286.94,118.58 -440.71,101.9 -125.8,-13.68 -301.53,-68.27 -354.38,-196.03 -31.1,-75.24 -6.64,-128.49 20.24,-197.24 56.53,71.37 215.45,212.51 440.34,136.94 71.83,-24.14 136.9,-73.13 179.8,-154.75 136.17,-259.23 156.28,-705.11 269.73,-1050.63 84.88,-47.69 191.83,-65.03 351.99,-42.69l-83.82 362.86c55.55,-13.12 112.75,-36.64 148.55,-70.59 83.46,-79.15 120.78,-268.2 6.54,-335.08 -108.42,-63.48 -325.98,-42.77 -436.51,11.89 -110.04,54.42 -181.99,163.88 -199.61,288.83 -12.05,85.54 3.62,188.89 12.93,275.86 -96.06,0 -201.39,-3.38 -265.04,-87.99z"/>
   </g>
  </g>
 </g>
</svg>
