<svg width="34" height="16" viewBox="0 0 34 16" fill="none" xmlns="http://www.w3.org/2000/svg">
			<path d="M6.05108 2.28271H3.12077L2.49919 4.56969H5.4295L6.05108 2.28271Z" fill="#FF262E"></path>
			<path d="M17.7416 13.7176L20.8495 2.28271H12.0586L11.437 4.56969H7.26351L6.64193 6.85667H14.1897L13.5681 9.14365H0.633301L0.0117188 11.4306H3.29722L2.67564 13.7176H6.93792L7.5595 11.4306H10.6378L10.0162 13.7176H17.7416Z" fill="#FF262E"></path>
			<path d="M21.3494 13.7176H17.7383L20.8462 2.28271H29.1931C33.0706 2.28271 34.1954 3.68349 33.9586 5.6846C33.7514 7.54277 32.5971 9.88692 27.802 9.88692H22.3853L21.3494 13.7176ZM28.0684 7.34266C29.4003 7.34266 29.9923 6.77091 30.0811 5.94188C30.1699 5.25579 29.7259 4.88415 28.69 4.88415H23.7469L23.0661 7.34266H28.0684Z" fill="black"></path>
		</svg>