<svg height="578" viewBox="0 0 578 578" width="578" xmlns="http://www.w3.org/2000/svg"><path d="m310.428 510.394c-31.978 0-65.661-4.909-101.05-14.727l6.396 47.382h-113.841c-3.4109-17.501-5.7559-48.449-7.0351-92.842-31.9777-16.648-63.529-36.497-94.654004-59.547l63.955404-96.684 28.78 21.13c-.4264-78.543-1.2791-141.718-2.5582-189.5263-1.2791-48.2351-3.6242-78.3288-7.0351-90.28085h109.364l5.116 37.13675c36.668-25.1847 73.123-37.777031 109.364-37.777031 30.272 0 55.215 4.908891 74.828 14.726631 20.039 9.8178 34.536 22.6236 43.49 38.4174 8.953 15.367 13.43 32.0145 13.43 49.9424 0 9.391-1.492 18.355-4.477 26.892 26.435-.853 50.525 4.056 72.27 14.727 21.745 10.672 38.8 27.106 51.164 49.302 12.791 21.77 19.187 48.236 19.187 79.396 0 33.722-9.167 65.95-27.501 96.684-17.907 30.734-46.901 56.132-86.979 76.195-40.079 19.635-90.817 29.453-152.214 29.453zm-106.166-130.619c40.505 16.647 78.239 24.971 113.201 24.971 31.551 0 57.133-5.122 76.746-15.367 19.613-10.244 33.47-22.41 41.571-36.496 8.528-14.087 12.792-26.892 12.792-38.418 0-17.501-4.051-30.093-12.152-37.777-7.675-7.683-17.268-11.525-28.78-11.525-6.396 0-12.791 1.067-19.187 3.201-20.039 51.224-52.443 76.835-97.212 76.835-20.039 0-35.815-5.976-47.327-17.928-11.085-12.379-16.628-27.319-16.628-44.82 0-19.209 6.822-36.71 20.465-52.504 13.644-15.794 33.257-26.038 58.839-30.734 5.97-8.537 8.954-17.501 8.954-26.892 0-6.403-2.984-11.739-8.954-16.007-5.969-4.269-13.43-6.403-22.384-6.403-29.419 0-55.854 15.794-79.305 47.381-.852 21.343-1.279 38.204-1.279 50.583z" fill="#0e0e2c"/></svg>