<svg xmlns="http://www.w3.org/2000/svg" width="48" height="48" fill="none"><mask id="a" width="40" height="40" x="4" y="4" maskUnits="userSpaceOnUse" style="mask-type:luminance"><path fill="#fff" d="M44 4H4v40h40z"/></mask><g mask="url(#a)"><mask id="b" width="40" height="40" x="4" y="4" maskUnits="userSpaceOnUse" style="mask-type:luminance"><path fill="#fff" d="M44 4H4v40h40z"/></mask><g fill="#0090FF" mask="url(#b)"><path d="M30.429 4h9.589C42.218 4 44 5.913 44 8.272V18.56l-25 5.747zM19 24.308l25 4.98v10.289c0 2.36-1.783 4.272-3.982 4.272h-9.59L19 24.309ZM4 29.289l15-4.98-1.429 19.54h-9.59C5.784 43.849 4 41.936 4 39.577zM4 8.272C4 5.912 5.783 4 7.982 4h9.59L19 24.307 4 18.56z"/></g></g></svg>