<?xml version="1.0" encoding="UTF-8"?> <svg xmlns="http://www.w3.org/2000/svg" width="180" height="180" viewBox="0 0 180 180" fill="none"><rect width="180" height="180" rx="13" fill="#250141"></rect><path fill-rule="evenodd" clip-rule="evenodd" d="M16.875 16.875L16.875 38.2352L66.2066 38.2352V41.8529L27.5503 41.8529C21.6543 41.8558 16.875 46.6364 16.875 52.533L16.875 88.1911H38.2353L38.2353 63.8376L41.8531 63.8376V65.022C41.8531 77.8179 52.2263 88.1911 65.0223 88.1911H88.1915V66.8308L63.8379 66.8308V63.2132H77.5113C83.4098 63.2132 88.1915 58.4315 88.1915 52.533V27.5551C88.1915 21.6567 83.4098 16.875 77.5113 16.875L16.875 16.875ZM102.489 16.875C96.5902 16.875 91.8085 21.6567 91.8085 27.5551L91.8085 77.511C91.8085 83.4094 96.5902 88.1911 102.489 88.1911L152.445 88.1911C158.343 88.1911 163.125 83.4094 163.125 77.511V27.5551C163.125 21.6567 158.343 16.875 152.445 16.875L102.489 16.875ZM113.169 38.2352L141.765 38.2352V66.8308L113.169 66.8308L113.169 38.2352ZM27.5552 91.8089C21.6567 91.8089 16.875 96.5906 16.875 102.489L16.875 152.445C16.875 158.343 21.6567 163.125 27.5552 163.125H77.5113C83.4098 163.125 88.1915 158.343 88.1915 152.445L88.1915 102.489C88.1915 96.5906 83.4098 91.8089 77.5113 91.8089L27.5552 91.8089ZM102.489 91.8089C96.5902 91.8089 91.8085 96.5906 91.8085 102.489L91.8085 163.125L113.169 163.125L113.169 113.169L163.125 113.169L163.125 91.8089L102.489 91.8089ZM38.2353 113.169L66.8311 113.169L66.8311 141.765H38.2353L38.2353 113.169ZM127.467 116.787C121.568 116.787 116.786 121.568 116.786 127.467L116.786 163.125H138.147L138.147 138.147L163.125 138.147V116.787L127.467 116.787Z" fill="#F4FFFA"></path></svg> 