<svg width="40" height="40" fill="none" xmlns="http://www.w3.org/2000/svg"><rect x="2" width="34" height="34" rx="17" fill="#FAE436"/><path d="M23.514 18.351a1.3 1.3 0 0 0 .393 2.57l-.393-2.57zM21.99 16.91v1.3-1.3zm1.916 4.011c.643-.098 1.046-.546 1.246-.873.226-.37.348-.815.348-1.28h-2.6c0 .018-.006-.012.034-.077a.606.606 0 0 1 .142-.155.925.925 0 0 1 .436-.185l.394 2.57zM25.5 18.77c0-1.852-1.71-3.16-3.51-3.16v2.6c.322 0 .57.114.724.248.16.138.186.263.186.312h2.6zm-3.51-3.16c-2.587 0-4.49 2.31-4.49 4.896h2.6c0-1.427 1.002-2.296 1.89-2.295v-2.6zm-4.49 4.896c0 3.166 2.692 5.886 6.208 5.886v-2.6c-2.158 0-3.609-1.633-3.609-3.286h-2.6zm6.208 5.886c4.07 0 7.191-3.528 7.191-7.622h-2.6c0 2.843-2.136 5.022-4.59 5.022v2.6zM30.9 18.77c0-4.641-3.87-8.614-8.91-8.614v2.6c3.64 0 6.31 2.844 6.31 6.014h2.6zm-8.91-8.614c-5.561 0-9.89 4.744-9.89 10.35h2.6c0-4.313 3.303-7.75 7.29-7.75v-2.6zm-9.89 10.35c0 6.03 4.985 11.341 11.61 11.341v-2.6c-5.18 0-9.01-4.139-9.01-8.741h-2.6zm11.61 11.341c7.041 0 12.59-5.953 12.59-13.077h-2.6c0 5.804-4.497 10.477-9.99 10.477v2.6zM36.3 18.77C36.3 11.16 30.066 4.7 21.99 4.7v2.6c6.642 0 11.71 5.298 11.71 11.469h2.6zM21.99 4.7C13.536 4.7 6.7 11.813 6.7 20.505h2.6C9.3 13.165 15.055 7.3 21.99 7.3V4.7zM6.7 20.505c0 8.992 7.357 16.795 17.01 16.795v-2.6c-8.195 0-14.41-6.617-14.41-14.195H6.7zM23.71 37.3c4.701 0 8.983-1.862 12.185-4.899l-1.79-1.886C31.36 33.12 27.71 34.7 23.71 34.7v2.6z" fill="#373421"/></svg>