<svg width="120" height="121" viewBox="0 0 120 121" fill="none" xmlns="http://www.w3.org/2000/svg">
<path fill-rule="evenodd" clip-rule="evenodd" d="M19.3153 16.137C34.4347 16.1468 48.9896 21.8809 60.0529 32.1862C71.1466 21.8622 85.7414 16.1271 100.896 16.137C89.8129 5.75189 75.1885 -0.0187576 60.0002 4.58082e-05C59.1222 4.58082e-05 58.2443 4.58082e-05 57.3839 4.58082e-05H57.0854C42.9095 0.693465 29.4443 6.41446 19.1046 16.137H19.3153Z" fill="white"/>
<path fill-rule="evenodd" clip-rule="evenodd" d="M79.2625 76.0317C82.6357 72.885 86.3662 70.1446 90.3776 67.8666C99.3951 62.7134 109.596 59.9906 119.983 59.965C120.002 51.7269 118.316 43.574 115.031 36.0191C111.746 28.4643 106.934 21.671 100.896 16.0667C85.7316 16.0759 71.1356 21.8365 60.0527 32.1861C66.1021 37.7883 70.9305 44.5784 74.2359 52.1318C77.5413 59.6852 79.2525 67.8394 79.2625 76.0844" fill="#94C22B"/>
<path fill-rule="evenodd" clip-rule="evenodd" d="M29.7455 67.8667C33.7556 70.1451 37.4809 72.8919 40.8429 76.0494C40.854 67.8046 42.5657 59.6507 45.871 52.0974C49.1763 44.5442 54.0042 37.7539 60.0528 32.1511C48.9575 21.8338 34.3608 16.1106 19.2099 16.1371H19.1045C13.0795 21.7377 8.27356 28.5201 4.98655 36.0609C1.69954 43.6017 0.00204169 51.739 0 59.9651C10.4353 59.9541 20.6913 62.6785 29.7455 67.8667" fill="#94C22B"/>
<path fill-rule="evenodd" clip-rule="evenodd" d="M79.2626 76.0318C73.3596 81.4925 68.6178 88.0868 65.3203 95.421C62.0227 102.755 60.2372 110.679 60.0703 118.718C60.0703 118.718 60.0703 118.718 60.0703 118.718C60.0703 119.07 60.0703 119.403 60.0703 119.772C60.05 111.55 58.3317 103.421 55.0231 95.8946C51.7145 88.3679 46.8869 81.6057 40.8429 76.0318V76.2074C40.8387 86.4122 43.4504 96.4477 48.4285 105.356C51.4791 110.825 55.3589 115.789 59.9299 120.071H60.0528H60.1757C64.7479 115.79 68.6279 110.826 71.677 105.356C76.6493 96.4453 79.2606 86.4114 79.2626 76.2074V76.0318Z" fill="#474530"/>
<path fill-rule="evenodd" clip-rule="evenodd" d="M0 59.965C0 59.965 0 59.965 0 60.0528C0.00396807 75.4087 5.89026 90.1797 16.4489 101.329C27.0076 112.479 41.4363 119.161 56.7692 120H56.9448H58.7007H59.965C55.3874 115.743 51.4958 110.803 48.4285 105.356C43.4577 96.4447 40.8465 86.4112 40.8429 76.2074V76.0318C37.4731 72.881 33.7421 70.1403 29.7279 67.8667C20.6817 62.6745 10.4303 59.9497 0 59.965" fill="#6B8C26"/>
<path fill-rule="evenodd" clip-rule="evenodd" d="M60.0528 32.1863C54.0008 37.7865 49.1707 44.5762 45.8652 52.1301C42.5596 59.684 40.8498 67.8391 40.8429 76.0846C46.8762 81.6575 51.6947 88.4154 54.997 95.9356C58.2994 103.456 60.0145 111.576 60.0352 119.79V119.79C60.0352 119.438 60.0352 119.105 60.0352 118.754C60.1999 110.705 61.9878 102.773 65.2917 95.4318C68.5955 88.0908 73.3475 81.4924 79.2626 76.0319C79.2526 67.7869 77.5414 59.6327 74.236 52.0793C70.9306 44.5259 66.1022 37.7358 60.0528 32.1337" fill="#6B8C26"/>
<path fill-rule="evenodd" clip-rule="evenodd" d="M120 59.965C109.608 59.9867 99.3998 62.7097 90.3775 67.8667C86.3661 70.1446 82.6356 72.885 79.2624 76.0317V76.2073C79.2666 86.4121 76.655 96.4476 71.6768 105.356C68.6334 110.83 64.7527 115.795 60.1755 120.07H61.7734H63.0728C78.4428 119.261 92.9162 112.584 103.508 101.417C114.1 90.25 120.003 75.4441 120 60.0528V59.965" fill="#6B8C26"/>
</svg>
