<svg version="1.1" viewBox="0 0 120 120" xmlns="http://www.w3.org/2000/svg">
 <style type="text/css">.st0{fill:#FFFFFF;}
	.st1{fill:#3AC1EF;}</style>
 <g transform="matrix(.25531 0 0 .25531 -9.476 -12.298)" fill="#3ac1ef">
  <path class="st1" d="m264.06 141.3c37.77 0 70.44 26.49 79.45 64.45l4.36 18.35 16.31-8.57c8.94-4.68 18.49-7.07 28.42-7.07 31.38 0 57.38 23.89 62.08 54.99h29.31c-4.86-47.7-43.98-85-91.39-85-8.91 0-17.6 1.3-26.01 3.89-16.83-42.57-56.94-71.06-102.53-71.06-60.91 0-110.51 51-110.93 113.85-54.34 7.37-96.43 55.55-96.43 113.71 0 50.2 32.48 95.33 78.55 109.63 9.6 3.34 19.52 5.05 29.45 5.05h76.21v0.01h27.05v-131.86h31.69c17.52 0 25.5 12.53 25.5 24.19 0 11.75-7.98 24.41-25.5 24.41h-28.53v13.98l56.81 68.38 0.76 0.91h35.43l-49.51-58.92c23.12-5.75 37.82-24.48 37.82-48.75 0-25.69-18.13-51.68-52.78-51.68h-58.75v129.33h-76.21c-6.79 0-13.6-1.19-20.67-3.62-34.33-10.67-58.3-44.02-58.3-81.05 0-46.69 36.75-84.68 81.29-84.7l18.15 0.07-2.2-16.99c-0.56-4.34-0.82-7.91-0.82-11.27 0-46.68 36.75-84.66 81.92-84.66z"/>
  <path class="st1" d="m460.07 294.4v110.34c0 14.98-16.44 23.07-31.91 23.07-15.56 0-32.11-8-32.11-22.85v-110.56h-27.5v110.34c0 32.7 30.71 50.34 59.61 50.34 29.19 0 59.39-18.75 59.39-50.12v-110.56z"/>
 </g>
</svg>
