<svg width="128" height="128" viewBox="0 0 128 128" fill="none" xmlns="http://www.w3.org/2000/svg">
<rect width="128" height="128" fill="#975532"/>
<g clip-path="url(#clip0)">
<path d="M108.364 53.0073L88.4112 59.3095L68.4581 65.6118L58.4815 68.7629L57.2447 69.1888C56.9149 69.2739 56.5027 69.3591 56.1729 69.4442C55.4308 69.5294 54.6063 69.6146 53.8643 69.5294C52.2977 69.4443 50.6487 69.1036 49.4119 68.5074C48.8347 68.2519 48.0927 67.7409 47.3506 67.3151L45.1245 65.8673L40.837 63.142L32.2621 57.7765L23.6872 52.4111L19.3173 49.6858L17.1736 48.3231C16.4316 47.8973 15.772 47.4715 15.2773 47.0457L10.66 43.8945C10.5776 44.0649 10.4951 44.2352 10.3302 44.4055C9.8355 45.5127 9.91795 46.3643 10.4951 47.4715C11.0723 48.4935 11.8968 49.0896 12.4739 49.5155C13.2984 50.1116 14.1229 50.5375 14.7825 50.9633L17.0087 52.2408L21.3786 54.7957L30.2009 59.9909L39.0231 65.1008L43.393 67.6558L45.6192 68.9333C46.3612 69.3591 47.0208 69.7849 48.0102 70.2959C49.8242 71.0624 51.7205 71.7437 53.6993 71.7437C54.6888 71.7437 55.6782 71.6586 56.6676 71.4882C57.1623 71.4031 57.657 71.2327 58.1517 71.0624L59.3885 70.6366L69.2826 67.2299L88.9883 60.4167L108.694 53.5183L113.641 51.8149C114.466 51.4743 116.692 50.8781 117.516 50.5375C118.011 50.3671 118.671 50.1116 118.918 50.0265C119.165 49.9413 119 49.771 118.588 49.771C118.176 49.8561 108.364 53.0073 108.364 53.0073Z" fill="#E4B857"/>
<path d="M108.364 61.2737L88.4112 67.5759L68.4581 73.8782L58.4816 77.0293L57.2448 77.4552C56.915 77.5403 56.5028 77.6255 56.1729 77.7107C55.3484 77.7958 54.5239 77.7958 53.7819 77.7958C52.2153 77.7107 50.5663 77.37 49.3295 76.7738C48.7524 76.5183 48.0103 76.0073 47.2683 75.5815L45.1245 74.2189L40.8371 71.4936L32.2622 66.1281L23.6873 60.7627L19.3999 58.0374L17.2561 56.6747C16.5141 56.2489 15.8545 55.8231 15.3598 55.3972L10.7425 52.2461C10.6601 52.4164 10.5776 52.5868 10.4127 52.7571C9.91802 53.8642 10.0005 54.7159 10.5776 55.8231C11.1548 56.845 11.9793 57.4412 12.5564 57.867C13.4634 58.5484 14.2055 58.889 14.9475 59.3149L17.1737 60.5923L21.5436 63.1473L30.3658 68.3424L39.1881 73.4524L43.558 76.0073L45.7841 77.2848C46.5262 77.7107 47.1858 78.1365 48.1752 78.6475C49.9891 79.414 51.8855 80.0953 53.8643 80.0953C54.8537 80.0953 55.8431 80.0101 56.8326 79.8398C57.3273 79.7546 57.822 79.5843 58.3167 79.414L59.5534 78.9881L69.4475 75.5815L89.1533 68.7683L108.859 61.8698L113.806 60.1665C114.631 59.8258 116.857 59.2297 117.681 58.889C118.176 58.7187 118.836 58.4632 119.083 58.378C119.33 58.2929 119.165 58.1225 118.753 58.1225C118.176 58.1225 108.364 61.2737 108.364 61.2737Z" fill="#E4B857"/>
<path d="M108.364 69.5432L88.4113 75.8455L68.4582 82.1477L58.4816 85.2989L57.2449 85.7247C56.9151 85.8099 56.5028 85.895 56.173 85.9802C55.4309 86.0654 54.6064 86.1505 53.8644 86.0654C52.2978 85.9802 50.6488 85.6395 49.412 85.0434C48.8349 84.7879 48.0928 84.2769 47.3508 83.8511L45.207 82.4884L40.9196 79.7631L32.3447 74.3976L23.7698 69.0322L19.4824 66.3069L17.3387 64.9442C16.5966 64.5184 15.937 64.0926 15.4423 63.6668L10.825 60.5156C10.7426 60.686 10.6601 60.8563 10.4952 61.0266C10.0005 62.1338 10.083 62.9854 10.6601 64.0926C11.0724 65.0294 11.8969 65.6256 12.4741 66.0514C13.381 66.7327 14.1231 67.0734 14.8651 67.4992L17.0913 68.7767L21.4612 71.3317L30.2834 76.5268L39.1057 81.6367L43.4756 84.1917L45.7017 85.4692C46.4438 85.895 47.1034 86.3209 48.0928 86.8319C49.9067 87.5983 51.8031 88.2797 53.7819 88.3648C54.7713 88.3648 55.7607 88.2797 56.7502 88.1093C57.2449 88.0242 57.7396 87.8538 58.2343 87.6835L59.471 87.2577L69.3651 83.8511L89.0709 77.0378L108.777 70.1394L113.724 68.436C114.548 68.0954 116.774 67.4992 117.599 67.1586C118.094 66.9882 118.753 66.7327 119.001 66.6476C119.248 66.5624 119.083 66.3921 118.671 66.3921C118.176 66.3921 108.364 69.5432 108.364 69.5432Z" fill="#E4B857"/>
<path d="M108.447 77.8784L88.4937 84.1806L68.5406 90.3977L58.5641 93.5489L57.3273 93.9747C56.9975 94.0599 56.5853 94.145 56.2554 94.2302C55.5134 94.3154 54.6889 94.4005 53.9468 94.3154C52.3803 94.2302 50.7312 93.8895 49.4945 93.2934C48.9173 93.0379 48.1753 92.5269 47.4332 92.1011L45.2895 90.7384L40.9196 88.0131L32.3447 82.6476L23.7698 77.2822L19.4824 74.5569L17.3387 73.1942C16.5966 72.7684 15.937 72.3426 15.4423 71.9168L10.825 68.7656C10.7426 68.936 10.6601 69.1063 10.4952 69.2766C10.0005 70.3838 10.083 71.2354 10.6601 72.3426C11.2373 73.3646 12.0618 73.9607 12.639 74.3866C13.5459 75.0679 14.288 75.4086 15.03 75.8344L17.2562 77.1119L21.6261 79.6668L30.4483 84.862L39.2706 89.9719L43.6405 92.5269L45.8666 93.8044C46.6087 94.2302 47.2683 94.656 48.2577 95.167C50.0716 95.9335 51.968 96.6148 53.9468 96.7C54.9362 96.7 55.9256 96.6148 56.9151 96.4445C57.4098 96.3593 57.9045 96.189 58.3992 96.0187L59.6359 95.5928L69.53 92.1862L89.2358 85.373L108.942 78.4745L113.889 76.7712C114.713 76.4305 116.939 75.8344 117.764 75.4937C118.258 75.3234 118.918 75.0679 119.165 74.9827C119.413 74.8976 119.248 74.7272 118.836 74.7272C118.341 74.7272 108.447 77.8784 108.447 77.8784Z" fill="#E4B857"/>
<path d="M108.364 86.1432L88.4111 92.4455L68.458 98.7478L58.4815 101.899L57.2447 102.325C56.9149 102.41 56.5027 102.495 56.1729 102.58C55.4308 102.665 54.6063 102.751 53.8642 102.665C52.2977 102.58 50.6487 102.24 49.4119 101.643C48.8347 101.388 48.0927 100.877 47.3506 100.451L45.2069 99.0884L40.9195 96.3631L32.3446 90.9977L23.6048 85.4619L19.3173 82.7366L17.1736 81.3739C16.4316 80.9481 15.772 80.5223 15.2773 80.0964L10.66 76.9453C10.5776 77.1156 10.4951 77.286 10.3302 77.4563C9.8355 78.6486 9.91795 79.5003 10.4951 80.6074C11.0723 81.6294 11.8968 82.2256 12.4739 82.6514C13.3809 83.3327 14.1229 83.6734 14.865 84.0992L17.0912 85.3767L21.4611 87.9317L30.2833 93.1268L39.1055 98.2368L43.4754 100.792L45.7016 102.069C46.4437 102.495 47.1033 102.921 48.0927 103.432C49.9066 104.198 51.803 104.88 53.7818 104.88C54.7712 104.88 55.7606 104.795 56.75 104.624C57.2447 104.539 57.7394 104.369 58.2341 104.198L59.4709 103.773L69.365 100.366L89.0707 93.5526L108.776 86.6542L113.724 84.9509C114.548 84.6102 116.774 84.0141 117.599 83.6734C118.093 83.5031 118.753 83.2476 119 83.1624C119.248 83.0773 119.083 82.9069 118.671 82.9069C118.176 82.9921 108.364 86.1432 108.364 86.1432Z" fill="#E4B857"/>
<path d="M108.364 94.3901L88.4111 100.692L68.458 106.995L58.4815 110.146L57.2447 110.572C56.9149 110.657 56.5027 110.742 56.1729 110.827C55.4308 110.912 54.6063 110.997 53.8642 110.912C52.2977 110.827 50.6487 110.486 49.4119 109.89C48.8347 109.635 48.0927 109.124 47.3506 108.698L45.2069 107.335L40.9195 104.61L32.3446 99.2445L23.7697 93.8791L19.4822 91.1538L17.1736 89.706C16.4316 89.2801 15.772 88.8543 15.2773 88.4285L10.66 85.2773C10.5776 85.4477 10.4951 85.618 10.3302 85.7883C9.8355 86.8955 9.91795 87.7471 10.4951 88.8543C11.0723 89.8763 11.8968 90.4725 12.4739 90.8983C13.3809 91.5796 14.1229 91.9203 14.865 92.3461L17.0912 93.6236L21.4611 96.1786L30.2833 101.374L39.1055 106.484L43.4754 109.039L45.7016 110.316C46.4437 110.742 47.1033 111.168 48.0927 111.679C49.9066 112.445 51.803 113.127 53.7818 113.127C54.7712 113.127 55.7606 113.041 56.75 112.871C57.2447 112.786 57.7394 112.616 58.2341 112.445L59.4709 112.019L69.365 108.613L89.0707 101.8L108.776 94.9011L113.724 93.1978C114.548 92.8571 116.774 92.2609 117.599 91.9203C118.093 91.7499 118.753 91.4944 119 91.4093C119.248 91.3241 119.083 91.1538 118.671 91.1538C118.176 91.2389 108.364 94.3901 108.364 94.3901Z" fill="#E4B857"/>
<path d="M118.34 39.727C118.01 39.0457 117.515 38.5347 116.938 38.194L115.207 37.172L108.446 33.1692L94.8412 25.1637L81.2368 17.1581L79.5054 16.1361C78.9282 15.7954 78.2686 15.5399 77.609 15.3696C76.2898 15.0289 74.9706 14.7734 73.6513 14.7734C72.3321 14.7734 71.0129 14.8586 69.6937 15.1993C68.4569 15.6251 67.2202 16.0509 65.9834 16.4768L36.1362 26.2708L21.2126 31.1253L13.792 33.6802C13.2149 33.8506 12.5553 34.1061 11.9781 34.5319C11.2361 35.0429 10.5765 35.7242 10.3291 36.5759C10.0818 37.4275 10.2467 38.3644 10.6589 39.1308C11.2361 40.1528 12.0606 40.749 12.6377 41.1748C13.5447 41.8561 14.2867 42.1968 15.0288 42.6226L17.255 43.9001L21.7073 46.4551L30.5296 51.6502L39.3518 56.7602L43.7217 59.3151L45.9479 60.5926C46.6899 61.0184 47.3495 61.4443 48.3389 61.8701C50.1529 62.7218 52.1317 63.3179 54.0281 63.4031C55.0175 63.4031 56.0069 63.3179 56.9963 63.1476C57.491 63.0624 57.9857 62.8921 58.4804 62.7218L59.4698 62.4663L69.3639 59.0596L89.0697 52.1612C89.0697 52.1612 116.278 42.793 116.361 42.7078C117.598 42.282 118.917 41.1748 118.34 39.727ZM117.515 41.5155C117.185 41.8561 116.691 42.1116 116.031 42.3671C113.228 43.2188 108.528 44.7518 108.528 44.7518L88.575 51.054L68.5394 57.2711L58.5629 60.4223L57.3261 60.8481C56.9138 60.9333 56.584 61.0184 56.2542 61.1036C55.5122 61.1888 54.6877 61.2739 53.9456 61.1888C52.379 61.1036 50.73 60.7629 49.4933 60.1668C48.9161 59.9113 48.174 59.4003 47.432 58.9745L45.2883 57.6118L41.0008 54.8865L32.4259 49.5211L23.851 44.0705L19.5636 41.3452L17.4199 39.9825C16.6778 39.5567 16.0182 39.1308 15.5235 38.705C14.5341 38.0237 13.4622 37.3424 12.4728 36.661C12.2255 36.4907 11.9781 36.4055 11.8957 36.15C11.8132 35.8945 11.8132 35.639 11.9781 35.4687C12.143 35.1281 13.4622 34.6171 14.2043 34.3616L21.6249 31.8066L36.3836 26.867L66.1483 17.0729C67.3851 16.6471 68.6218 16.2213 69.8586 15.7954C71.0954 15.4548 72.4146 15.3696 73.6513 15.3696C74.9706 15.3696 76.2073 15.5399 77.4441 15.9658C78.0212 16.1361 78.6809 16.3916 79.258 16.6471L80.907 17.5839L94.5114 25.5895L108.116 33.5951L114.877 37.5979C115.949 38.2792 117.268 38.7902 117.845 39.8973C118.175 40.4935 117.927 41.0897 117.515 41.5155Z" fill="#E4B857"/>
</g>
<defs>
<clipPath id="clip0">
<rect width="109" height="98.4516" fill="white" transform="translate(10 14.7734)"/>
</clipPath>
</defs>
</svg>
