<?xml version="1.0" encoding="UTF-8"?> <svg xmlns="http://www.w3.org/2000/svg" width="205" height="204" viewBox="0 0 205 204" fill="none"> <rect width="204" height="204" transform="translate(0.5)" fill="white"></rect> <path d="M158.261 52.057C159.148 52.962 159.838 54.0356 160.29 55.2125C160.743 56.3894 160.947 57.6447 160.891 58.902V141.274C160.928 142.515 160.715 143.751 160.264 144.909C159.813 146.068 159.132 147.127 158.261 148.023C156.389 149.749 153.923 150.708 151.36 150.708C148.798 150.708 146.332 149.749 144.46 148.023C143.562 147.141 142.858 146.087 142.389 144.927C141.92 143.766 141.696 142.523 141.732 141.274V82.2235L112.096 123.506C109.092 127.825 105.713 129.985 101.959 129.985C98.3298 129.985 95.0129 127.825 92.0089 123.506L62.9195 82.2235V141.274C62.9591 142.515 62.7479 143.75 62.2981 144.909C61.8483 146.067 61.1691 147.126 60.2999 148.023C59.3953 148.923 58.3096 149.627 57.1127 150.089C55.9157 150.55 54.6341 150.76 53.3502 150.703C52.0841 150.741 50.8236 150.522 49.6461 150.062C48.4687 149.601 47.3991 148.908 46.5029 148.025C45.6068 147.142 44.9031 146.088 44.435 144.927C43.9669 143.766 43.7443 142.523 43.7808 141.274V58.902C43.7262 57.6374 43.9397 56.3755 44.4076 55.1969C44.8755 54.0182 45.5875 52.9488 46.4982 52.057C47.4071 51.1984 48.4802 50.527 49.6549 50.0817C50.8296 49.6364 52.0825 49.4263 53.3404 49.4635C57.348 49.4635 60.7268 51.3757 63.4767 55.1999L102.331 110.549L141.185 55.1999C143.928 51.3692 147.301 49.4571 151.302 49.4635C152.577 49.4083 153.849 49.6097 155.042 50.0556C156.236 50.5015 157.324 51.1824 158.242 52.057" fill="#F45E20"></path> </svg> 