<svg fill="none" xmlns="http://www.w3.org/2000/svg" viewBox="0 0 64 64"><rect width="64" height="64" rx="32" fill="#fff"/><path d="M19.04 14 14 18.8v2.4h4.48v31.85l5.6 2.95V26l7.84-4.8H42V20l-21.84-6Zm-.56 2.4v2.45h-2.51zm3.36 0 8.96 2.4h-8.96zm2.24 4.8h4.48l-4.48 2.74zM47.37 25l-5.21 1.23.04 10.05-9.2 3.2V57l5.73-.94V41l3.49-1.5.06 15s3.49-2.62 5.09-4.09c0 0-.02-16.17 0-20.23l3.77 2.35v14.12L55 42.88V29.71Z" fill="#c8141e"/><path fill-rule="evenodd" clip-rule="evenodd" d="M32 59.73a27.73 27.73 0 1 0 0-55.46 27.73 27.73 0 0 0 0 55.46ZM32 64a32 32 0 1 0 0-64 32 32 0 0 0 0 64Z" fill="#c8141e"/></svg>