<svg xmlns="http://www.w3.org/2000/svg" version="1.1" xmlns:xlink="http://www.w3.org/1999/xlink" xmlns:svgjs="http://svgjs.dev/svgjs" width="76.6" height="76.6"><svg id="SvgjsSvg1010" data-name="Layer 1" xmlns="http://www.w3.org/2000/svg" viewBox="0 0 76.6 76.6"><defs><style>.cls-1{fill:#9e0a2f;}.cls-2{fill:#fffffa;}</style></defs><title>favikon</title><rect class="cls-1" width="76.6" height="76.6"></rect><path class="cls-2" d="M42.78,20.53h0a4.12,4.12,0,0,0-4.23-4h0a4.12,4.12,0,0,0-4.2,4V33.42h8.46Zm-.29,1.71c-1.26,5.5-2.85,7.38-3.21,7.75s-.93.32-1.17-.48c-.07-.24-.92-3.06-3.31-2.33,0,0-.22.08-.25-.1s.26-.32.26-.32c2-1.07,3.68.9,3.71.93.54.57,1.28-.2,1.5-1.08.18-.71.13-1.85-1.5-1.2-.23.08-2.19.72-1.54-1.09.16-.52.52-1.32.74-1.94.45-1.26.22-3.35-1.57-2.25a6.23,6.23,0,0,0-1.35,1.48c-.12.17-.32.09-.22-.15a5.24,5.24,0,0,1,2.05-2.52c1.06-.55,3.15.15,2,3-.43,1.09-.31,2.27.59,2.26a3.5,3.5,0,0,0,2.92-2.12C42.29,21.8,42.58,21.89,42.49,22.24Z"></path><path class="cls-2" d="M60.74,40.62c-.85-.34-2.36.75-2.71,2.09-.51,2,1.38,1.67,1.51,1.63.66-.2,1-.63.76-.78,0,0-.71-.34-.21-.77C60.87,42,61.45,40.91,60.74,40.62Z"></path><path class="cls-2" d="M47,40.27c-.33-.17-.65,1.38-.69,1.52C46.44,41.67,47.4,40.47,47,40.27Z"></path><path class="cls-2" d="M34.33,42.84,34,42.67c-.66-.33,1.08-1.43,0-1.67-.39,0-1,.19-1.67,1.18-.51.76-.82,2.49.41,2.53.86,0,1.34-.75,1.68-1.26S34.33,42.84,34.33,42.84Z"></path><path class="cls-2" d="M44.87,23.81h-.21V36.32H32.39V23.76h-.21l-.11,0C17.16,25.16,5.9,31.43,5.9,39c0,8.55,14.5,15.48,32.4,15.48S70.7,47.51,70.7,39C70.7,31.49,59.62,25.26,44.87,23.81Zm-30.5,9.87c.17-1,2.64-6.22,14.1-8.2a7.37,7.37,0,0,1,2.68-.06c.79.15.58.76,0,.81S20.52,27.45,17.65,34C16.73,35.79,14.08,35.35,14.37,33.68ZM16.66,48.1c-.64.84-3.27-.78-2.21-2C16.28,44,17.3,43.54,18.13,41c0,0-.94,1.52-2.21,1.52a2.6,2.6,0,0,1-2.1-1.68,5.88,5.88,0,0,1-.47-3.75c.19-1.87,3.15-1.3,3,0-.43,2.63.2,2.79.7,3s1.68-.43,2-1.74c.23-.78.39-1.18.39-1.18a.72.72,0,1,1,1.43.23C20.16,41.8,19.07,44.94,16.66,48.1Zm9-16.72c-.06.43-1.91,17.35-2,17.81-.18,1.34-3.15,1.64-2.81-1.12.14-1.2,2.43-16.67,2.46-16.92C23.64,29.45,25.93,29.6,25.7,31.38ZM29,48.23c-1.12.78-3.1-3-2.34-13.87.12-1.72,2.69-1.84,2.48.42C28,47.44,29.65,47.75,29,48.23Zm22-.48a4.42,4.42,0,0,1-1.82-4.16c0-.46-.86-.56-.66.27.41,1.63-.59,4.07-2,4.07a2.28,2.28,0,0,1-2.28-2.18c-1,1.68-1.63,2.18-2.56,2.18s-1.65-1.87.05-5.89c.13-.24,0-.42-.29,0a21.09,21.09,0,0,0-1.24,2.3c-.51,1.08-1.41,3.6-2.34,3.6-1.15,0-1.18-1.89-1.18-1.89s-.9,1.89-1.78,1.89c-1.27,0-1.07-1.82-1.07-1.82-2.2,3.58-4.53,1.17-4.28-1a6.6,6.6,0,0,1,3.74-5.4c1.22-.52,2.47-.46,2.43,1.44.1-.11.54-.86,1.07-.3.21.24,0,.64-.08,1-.19.67-1.57,3.56-.84,3.59.47,0,.35-1.09,1.33-1.18.77-.05.67,1.52,1.77-.16.75-1.12,2.56-4.74,4.39-4.74.85,0,.6,1.52.09,2.8-.36,1-.82,3.13-.42,3.07s.87-.8,2.25-4.19c.45-1.08,1.6-2.94,2.88-2.29,1.68,1-1.63,4-1.55,3.95-1.28,1.22-.56,2.46.18,2.46s1-.76.49-1.85c-.11-.27-.35-1.37,1.61-.92.61.15.57-.88,1.34-1s.85.68.73,1.11c-.5,2.15,0,3.13.82,5.07C52.16,48.22,51.28,47.93,51,47.75Zm3,.86c-.71.06-1.49-.15-1.76-1.65-.79-4.52,1.67-10.75,1.67-10.75S51.28,39.76,49.34,38c-1.38-1.29.2-4.19.26-4.46-.48.37-1,.42-1.16.07-.36-1,1.71-.92,2.05-1.49.74-1.37,1.38-2,2.27-2.18,1.32-.27,1.49,1.47.41,2s-1.32.61-1.77,1.11-1.79,3.23-.07,3.25c2,0,3.2-2.08,3.41-2.6.71-1.79.94-2.23,1.85-1.79.58.28-.21,1.76-.38,2.24A25.72,25.72,0,0,0,55,46.73C55.09,47.79,54.84,48.51,54,48.61Zm8-.6c-.77-.63-1.43-.91-1.57-2.36-3.08,3.89-5,1.31-4.81-.65s1.33-4.8,3.91-5.57c1.42-.41,2.39.1,2.5.93A4.07,4.07,0,0,1,61.46,43s.94-.23.87.59c-.3,1.86-.39,3,.27,4.11C63,48.33,62.23,48.2,62,48Z"></path><path class="cls-2" d="M62.86,25.33A51.44,51.44,0,0,0,46,20.72v-.54a7.55,7.55,0,0,0-12.82-4.81,7.11,7.11,0,0,0-2.13,4.79v.51a51.71,51.71,0,0,0-17.32,4.66c-7.13,3.51-11,8.37-11,13.7S6.61,49.21,13.74,52.72c6.6,3.26,15.32,5.05,24.56,5.05s18-1.79,24.56-5.05c7.12-3.51,11-8.37,11-13.69S70,28.84,62.86,25.33Zm-.5,26.38c-6.45,3.18-15,4.93-24.06,4.93s-17.61-1.75-24.06-4.93C7.52,48.4,3.81,43.9,3.81,39s3.71-9.38,10.43-12.69a51.44,51.44,0,0,1,17.95-4.65V20.16a6,6,0,0,1,1.8-4,6.29,6.29,0,0,1,4.57-1.82,6.19,6.19,0,0,1,6.32,5.84v1.56a51.31,51.31,0,0,1,17.48,4.6C69.08,29.65,72.78,34.15,72.78,39S69.08,48.4,62.36,51.71Z"></path></svg><style>@media (prefers-color-scheme: light) { :root { filter: none; } }
@media (prefers-color-scheme: dark) { :root { filter: none; } }
</style></svg>