<?xml version="1.0" encoding="utf-8"?>
<!-- Generator: Adobe Illustrator 19.2.0, SVG Export Plug-In . SVG Version: 6.00 Build 0)  -->
<svg width="60" height="60" version="1.1" id="Layer_1" xmlns="http://www.w3.org/2000/svg" xmlns:xlink="http://www.w3.org/1999/xlink"
	 viewBox="14 0 110 96" style="enable-background:new 0 0 380 96;" xml:space="preserve">
<style type="text/css">
	.st0{fill:#D91F26;}
	.st1{fill:#F6D432;}
	.st2{fill:#861619;}
</style>
<path class="st0" d="M100.2,66.7C91,51.9,85.4,34.6,84.6,16.1c-0.1-2.5-2.2-4.5-4.7-4.5H59.2c-2.7,0-4.8,2.2-4.7,4.9
	c1.3,25.7,12.4,48.9,29.7,65.7c1.8,1.8,4.7,1.8,6.6,0c3.3-3.2,6.3-6.6,9.1-10.2C101.1,70.5,101.2,68.4,100.2,66.7"/>
<path class="st1" d="M120.6,11.6L120.6,11.6l-4.8,0c0,0,0,0-0.1,0H95.3c-2.7,0-4.8,2.2-4.7,4.9c0.7,14.4,4.5,28,10.7,40.1
	c1.8,3.4,6.6,3.4,8.3,0c0.1-0.2,0.2-0.4,0.3-0.7c0.1-0.1,0.1-0.2,0.2-0.3C116.9,42.4,120.6,27.4,120.6,11.6L120.6,11.6L120.6,11.6z"
	/>
<path class="st2" d="M64.1,66.7c-9.2-14.8-14.8-32.1-15.6-50.6c-0.1-2.5-2.2-4.5-4.7-4.5H23c0,0,0,0-0.1,0h-4.7v0v0v0
	c0,18.2,4.9,35.3,13.6,49.9c0.2,0.3,0.4,0.6,0.5,0.9c0.1,0.2,0.3,0.4,0.4,0.6c0.3,0.5,0.6,1,0.9,1.5c0.1,0.1,0.2,0.3,0.3,0.4
	c1.2,1.9,2.5,3.7,3.8,5.5c3.1,4.2,6.6,8.2,10.4,11.9c0.2,0.2,0.5,0.4,0.7,0.5c1.8,1.1,4.2,0.9,5.8-0.6c3.3-3.2,6.3-6.6,9.1-10.2
	C65,70.5,65.1,68.4,64.1,66.7"/>
<polygon class="st2" points="304,32.1 295.1,53.6 286.7,30.5 277.9,53.6 269.5,32.1 264.3,32.1 277.9,66.3 286.6,43.5 294.9,66.3 
	309.2,32.1 "/>
<path class="st2" d="M323,31.4c-4.6,0-8.6,1.6-11.9,4.9c-3.3,3.3-5,7.1-5,11.7c0,5.2,1.8,9.3,5.5,12.5c3.3,2.9,7,4.3,11.2,4.3
	c4.7,0,8.7-1.6,12-4.9c3.3-3.2,5-7.2,5-11.8c0-4.6-1.6-8.5-4.9-11.8C331.5,33.1,327.6,31.4,323,31.4 M331.3,56.8
	c-2.3,2.3-5.2,3.5-8.6,3.5c-3.1,0-5.9-1.1-8.2-3.4c-2.4-2.3-3.6-5.2-3.6-8.8c0-3.4,1.2-6.2,3.5-8.6c2.3-2.3,5.1-3.5,8.5-3.5
	c3.4,0,6.2,1.2,8.5,3.5c2.3,2.3,3.4,5.2,3.4,8.6C334.8,51.5,333.7,54.4,331.3,56.8"/>
<polygon class="st2" points="351,46.6 365.6,32.1 359.1,32.1 346.5,44.9 346.5,32.1 341.7,32.1 341.7,64.3 346.5,64.3 346.5,50.9 
	347.5,49.9 359.1,64.3 365.6,64.3 "/>
<polygon class="st0" points="225.8,59.7 214.8,59.7 214.8,32.1 209.9,32.1 209.9,59.7 198.9,59.7 198.9,32.1 194,32.1 194,64.3 
	209.9,64.3 212.3,64.3 212.4,64.3 214.8,64.3 230.7,64.3 230.7,32.1 225.8,32.1 "/>
<polygon class="st0" points="238.8,54.4 238.8,32.1 234,32.1 234,66.2 257.5,41.7 257.5,64.3 262.3,64.3 262.3,29.9 "/>
<polygon class="st0" points="175.7,50.7 165,32.1 159.4,32.1 172.9,55.5 167.9,64.3 173.5,64.3 175.7,60.4 178.5,55.5 192.1,32.1 
	186.5,32.1 "/>
</svg>
