<svg width="152" height="152" viewBox="0 0 152 152" fill="none" xmlns="http://www.w3.org/2000/svg">
    <path d="M0 71.4681C0 47.3105 1.13925e-06 35.2258 6.21188 29.002C8.84596 26.3661 12.1251 24.462 15.7268 23.4862C24.2204 21.1835 34.7328 27.1693 55.7576 39.1291L57.5316 40.1406C65.2367 44.5259 69.0893 46.7155 73.2465 47.257C75.0742 47.495 76.9258 47.495 78.7535 47.257C82.9107 46.7155 86.7633 44.5259 94.4684 40.1406L96.2424 39.1291C117.267 27.1693 127.78 21.1894 136.273 23.4921C139.875 24.468 143.154 26.372 145.788 29.0079C152 35.2318 152 47.3105 152 71.4741V88.6759C152 104.854 152 112.947 148.112 118.76C146.427 121.277 144.265 123.437 141.744 125.115C135.921 129 127.815 129 111.605 129H40.4011C24.1905 129 16.0852 129 10.2616 125.115C7.74096 123.431 5.57875 121.271 3.89437 118.76C0.0059731 112.947 0.00597196 104.86 0.00597196 88.6759V71.4741L0 71.4681Z" fill="#22C3B1"/>
</svg>
