<svg width="75" height="54" viewBox="0 0 75 54" fill="none" xmlns="http://www.w3.org/2000/svg">
<path d="M74.3703 31.8297L73.122 15.023C73.0638 14.2586 72.7957 13.5251 72.3472 12.9034C71.8987 12.2816 71.2872 11.7959 70.5801 11.4996C69.8388 11.1703 69.0214 11.0501 68.2167 11.1521C67.4119 11.2542 66.6504 11.5745 66.0148 12.0784L51.2013 23.7913L49.4748 22.397L53.6878 18.5011C54.1523 18.0729 54.515 17.5461 54.7493 16.9595C54.9837 16.3728 55.0838 15.7412 55.0423 15.1108C55.0008 14.4804 54.8187 13.8674 54.5095 13.3165C54.2002 12.7657 53.7715 12.291 53.2549 11.9274L37.5204 0.788383C36.9394 0.375437 36.2642 0.11474 35.5564 0.030139C34.8487 -0.0544622 34.131 0.0397276 33.4691 0.3041C32.8072 0.568473 32.2221 0.994595 31.7674 1.54348C31.3126 2.09236 31.0028 2.74649 30.8661 3.44605L28.3192 16.1354H28.2639C27.8376 16.2498 27.4318 16.4298 27.0609 16.6689L26.0542 17.3333L26.1498 16.8703C26.2768 16.2552 26.2645 15.6195 26.1138 15.0099C25.9631 14.4002 25.6779 13.832 25.279 13.3469C24.8783 12.8571 24.3737 12.4626 23.8018 12.1918C23.2298 11.9211 22.6048 11.7809 21.972 11.7814H4.29455C3.45768 11.7769 2.63812 12.0197 1.93872 12.4793C1.23932 12.9389 0.691245 13.5948 0.36327 14.3647C0.0352938 15.1347 -0.0579696 15.9843 0.0951839 16.8071C0.248337 17.6298 0.641087 18.389 1.22414 18.9894L9.87161 27.8684L5.75425 30.5462C5.15593 30.935 4.66533 31.4684 4.32782 32.0971C3.99031 32.7257 3.81679 33.4294 3.82332 34.1429C3.82984 34.8564 4.01619 35.5568 4.36514 36.1792C4.71409 36.8016 5.21436 37.3259 5.81969 37.7037L30.2823 52.9702C30.9592 53.3955 31.7421 53.6218 32.5415 53.6234C33.341 53.6251 34.1248 53.4019 34.8034 52.9793C35.4821 52.5568 36.0283 51.952 36.3796 51.2339C36.731 50.5158 36.8734 49.7134 36.7905 48.9183L35.3459 35.5041L36.9617 33.9941L38.8643 47.2019C38.967 47.9059 39.2261 48.578 39.6226 49.1688C40.0192 49.7595 40.5431 50.2539 41.1558 50.6155C41.7685 50.9771 42.4545 51.1969 43.1633 51.2586C43.8721 51.3202 44.5858 51.2223 45.2518 50.9719L64.5198 43.759C65.2004 43.5045 65.8134 43.0971 66.3115 42.5681C66.8096 42.0391 67.1794 41.4027 67.3925 40.7081C67.6055 40.0135 67.6561 39.2791 67.5403 38.5619C67.4245 37.8446 67.1453 37.1635 66.7245 36.5712L66.6238 36.4303L70.0667 36.4001C70.6736 36.3917 71.2724 36.2603 71.827 36.0137C72.3816 35.7671 72.8804 35.4105 73.2931 34.9655C73.6805 34.5462 73.9763 34.0509 74.1618 33.511C74.3472 32.9711 74.4182 32.3985 74.3703 31.8297ZM50.9446 28.6133L54.4428 31.2156L49.2584 31.2458C49.1398 31.2468 49.0239 31.2104 48.9272 31.1417C48.8305 31.073 48.7579 30.9756 48.7198 30.8633C48.6793 30.7515 48.6756 30.6297 48.7091 30.5157C48.7426 30.4016 48.8116 30.3012 48.906 30.2291L50.9446 28.6133ZM28.4551 34.0041L30.4937 22.0698L31.3947 32.922L31.3645 32.9522L30.4333 33.8229L29.5927 34.6182C29.486 34.7178 29.35 34.7804 29.205 34.7967C29.0599 34.8131 28.9135 34.7822 28.7873 34.7088C28.6614 34.6411 28.5609 34.5343 28.501 34.4044C28.4411 34.2746 28.425 34.1288 28.4551 33.989V34.0041ZM7.21395 16.8602C7.09451 16.7395 7.01391 16.5859 6.98251 16.4191C6.95112 16.2522 6.97037 16.0798 7.03778 15.924C7.10291 15.7655 7.21388 15.63 7.35646 15.535C7.49904 15.4399 7.66674 15.3896 7.8381 15.3904H21.6096C21.7486 15.3769 21.8889 15.3968 22.0186 15.4485C22.1484 15.5002 22.2639 15.5822 22.3555 15.6876C22.4471 15.793 22.5122 15.9188 22.5453 16.0545C22.5784 16.1902 22.5786 16.3318 22.5459 16.4676L21.7606 20.1068L14.7692 24.6369L7.21395 16.8602ZM20.8898 24.9137L20.1348 28.0546C20.1011 28.2247 20.0213 28.3823 19.9041 28.5101C19.787 28.6379 19.6369 28.7311 19.4704 28.7794C19.3031 28.8269 19.126 28.8286 18.9578 28.7844C18.7896 28.7401 18.6363 28.6515 18.5141 28.5277L17.3463 27.2996L20.8898 24.9137ZM32.3258 46.9049C32.1616 47.006 31.9726 47.0595 31.7797 47.0595C31.5869 47.0595 31.3978 47.006 31.2336 46.9049L10.2592 33.7827C10.1048 33.6849 9.9776 33.5496 9.88958 33.3894C9.80157 33.2292 9.75555 33.0494 9.75584 32.8666C9.75402 32.6808 9.79921 32.4975 9.88722 32.3338C9.97522 32.1701 10.1032 32.0313 10.2592 31.9304L12.4538 30.5059L15.8363 33.984C16.3771 34.5404 17.0591 34.939 17.8093 35.1371C18.5595 35.3352 19.3494 35.3253 20.0944 35.1085C20.8394 34.8918 21.5113 34.4763 22.038 33.9066C22.5648 33.337 22.9265 32.6346 23.0844 31.875L25.0374 22.3114L27.3981 20.7762L24.5391 34.9706C24.3668 35.8545 24.4785 36.7704 24.8582 37.587C25.2379 38.4037 25.8662 39.0793 26.6532 39.5172C27.4402 39.9551 28.3455 40.1328 29.2397 40.025C30.1338 39.9171 30.9709 39.5293 31.6312 38.9168L32.0138 38.5594L32.8091 45.9183C32.8297 46.1095 32.7952 46.3026 32.7095 46.4747C32.6239 46.6469 32.4908 46.7909 32.3258 46.8898V46.9049ZM37.4801 16.6085C35.7486 17.6152 35.0489 19.1253 35.3057 21.2947C35.4768 22.7191 36.1362 28.3667 36.1362 28.3667L36.1009 28.4019C35.6731 28.8197 35.2553 29.2224 34.8325 29.62L34.7016 29.7408L33.6295 19.7595C33.5698 19.1775 33.3883 18.6146 33.097 18.1074C32.8056 17.6001 32.4108 17.1597 31.9383 16.8149L31.893 16.7847L33.9567 6.43088C33.975 6.24242 34.0422 6.06202 34.1517 5.90752C34.2612 5.75302 34.4091 5.62979 34.5808 5.55003C34.7694 5.49127 34.9699 5.48218 35.1631 5.52362C35.3562 5.56507 35.5353 5.65564 35.6832 5.7866L48.3373 14.8468C48.4672 14.9408 48.575 15.062 48.6533 15.202C48.7315 15.342 48.7783 15.4973 48.7903 15.6572C48.8046 15.8169 48.7826 15.9777 48.726 16.1276C48.6693 16.2775 48.5794 16.4127 48.4631 16.523L45.6746 19.2108L45.6192 19.2612L42.8558 17.0364C42.1129 16.4201 41.1979 16.0483 40.2357 15.9717C39.2735 15.8951 38.3111 16.1175 37.4801 16.6085ZM39.7301 24.9288L39.5992 25.0496L38.9952 20.8467C38.9786 20.7248 38.9884 20.6007 39.0239 20.4829C39.0593 20.3651 39.1196 20.2562 39.2007 20.1637C39.2818 20.0711 39.3818 19.997 39.494 19.9464C39.6061 19.8958 39.7278 19.8698 39.8509 19.8702C40.0469 19.8708 40.2369 19.9382 40.3894 20.0615L42.7803 21.9943L42.7048 22.0648L42.0102 22.7393L40.7217 23.9775L39.7301 24.9288ZM61.7816 38.2171C61.747 38.448 61.6513 38.6655 61.5044 38.8469C61.3575 39.0283 61.1647 39.1672 60.9461 39.249L44.3055 45.5257C44.1063 45.603 43.8921 45.6341 43.6792 45.6167C43.4662 45.5993 43.26 45.5339 43.0759 45.4254C42.8919 45.3169 42.7348 45.1681 42.6164 44.9902C42.4981 44.8123 42.4216 44.6099 42.3928 44.3982L40.4297 30.7626L46.5907 25.0899L48.1007 26.2929L44.7333 29.2828C42.9867 30.6619 42.6847 32.4186 43.1629 33.7626C43.7518 35.4387 45.3273 36.4756 47.3054 36.4756H60.7045L61.3387 36.9789C61.5174 37.1263 61.6532 37.319 61.732 37.5368C61.8108 37.7546 61.8297 37.9895 61.7867 38.2171H61.7816ZM68.3704 30.8431C68.2858 30.9336 68.1838 31.0062 68.0705 31.0563C67.9572 31.1065 67.8349 31.1333 67.711 31.1351L60.3118 31.1753L54.0704 26.1419L66.2312 16.5179C66.3414 16.4015 66.4805 16.3163 66.6344 16.2712C66.7883 16.2261 66.9514 16.2227 67.107 16.2612C67.4543 16.4022 67.4644 16.7142 67.4895 17.0062L68.6019 30.1787C68.6114 30.2991 68.5963 30.4201 68.5573 30.5343C68.5184 30.6486 68.4565 30.7537 68.3754 30.8431H68.3704Z" fill="#050F58"/>
</svg>
