<svg width="64" height="64" viewBox="0 0 64 64" fill="none" xmlns="http://www.w3.org/2000/svg">
<rect width="64" height="64" fill="#141414"/>
<path fill-rule="evenodd" clip-rule="evenodd" d="M13 4.83704H20.3552V27.269C23.4184 23.3015 27.505 21.3183 32.6119 21.3183C37.9241 21.3183 42.3164 23.1486 45.7901 26.8113C49.263 30.4732 51 34.9509 51 40.2409C51 45.5314 49.2632 50.008 45.7901 53.6701C42.3166 57.3325 37.9241 59.163 32.6119 59.163C27.505 59.163 23.4184 57.1791 20.3552 53.2115L15.4205 58.1156C15.1391 58.3954 14.7567 58.5526 14.3591 58.5526H13V4.83704ZM23.7635 48.4426C26.0364 50.7061 28.7824 51.8378 31.9991 51.8378C35.2169 51.8378 37.9619 50.7067 40.2353 48.4426C42.5073 46.1798 43.6455 43.445 43.6455 40.2409C43.6455 37.0362 42.5081 34.3013 40.2353 32.0379C37.9627 29.7748 35.2169 28.6428 31.9991 28.6428C28.7824 28.6428 26.0357 29.7753 23.7635 32.0379C21.49 34.3018 20.3552 37.0362 20.3552 40.2409C20.3552 43.445 21.4908 46.1792 23.7635 48.4426Z" fill="white"/>
</svg>
