<?xml version="1.0" encoding="UTF-8"?> <svg xmlns="http://www.w3.org/2000/svg" width="130" height="130" viewBox="0 0 130 130" fill="none"><rect width="130" height="130" rx="65" fill="#202020"></rect><path d="M30.7879 27.7902C30.3283 28.2511 30 29.5681 30 30.7534C30 33.2557 31.3789 34.2434 34.8589 34.2434H37.2227V47.7425V61.2416H34.6619C31.7072 61.2416 30 62.5586 30 64.8633C30 67.168 31.7072 68.485 34.6619 68.485H37.2227V82.6426V96.8001H34.3993C32.8234 96.8001 31.2476 97.1294 30.7879 97.5903C29.606 98.7756 29.8687 101.739 31.2476 102.99C32.3638 104.044 34.7276 104.109 58.2997 103.912L84.17 103.714L87.847 102.002C92.5089 99.8292 96.0546 96.2733 98.2214 91.598C99.6659 88.4373 99.9286 86.9886 99.9286 81.9841C99.9286 76.8478 99.6659 75.5967 98.1557 72.6993C97.2365 70.9214 95.2666 68.3533 93.8878 67.1021L91.3927 64.8633L93.8878 62.6244C95.2666 61.3733 97.1708 58.8052 98.1557 57.0272C100.454 52.5495 100.651 44.1208 98.484 39.4455C96.4485 34.9677 92.5746 31.0168 88.1096 28.8438L84.17 27H57.8401C38.2732 27 31.3789 27.1975 30.7879 27.7902ZM52.9812 47.7425V61.2416H49.0416H45.1019V47.7425V34.2434H49.0416H52.9812V47.7425ZM84.8266 35.4945C93.6908 39.643 95.6606 50.8374 88.7006 57.4223C85.3519 60.5831 82.1345 61.2416 70.6439 61.2416H60.2039V47.7425V34.2434H71.2349C80.493 34.2434 82.5941 34.441 84.8266 35.4945ZM52.9812 82.6426V96.8001H49.0416H45.1019V82.6426V68.485H49.0416H52.9812V82.6426ZM83.3821 69.2752C84.8923 69.7361 87.3217 71.3165 88.8319 72.7652C93.2968 77.0454 94.2161 82.9718 91.3927 88.7007C88.1753 95.1539 83.5791 96.8001 68.6084 96.8001H60.2039V82.6426V68.485H70.4469C76.6847 68.485 81.8062 68.8142 83.3821 69.2752Z" fill="#ECECEC"></path></svg> 