<?xml version="1.0" encoding="UTF-8"?> <svg xmlns="http://www.w3.org/2000/svg" width="121" height="121" viewBox="0 0 121 121" fill="none"><circle cx="60.5" cy="60.5" r="60.5" fill="#FAF4ED"></circle><path d="M56 54.1347H56.0107C56.0667 51.7067 58.0573 49.76 60.4987 49.76C62.6013 49.76 64.368 51.2 64.852 53.156C64.9533 53.5053 64.9973 53.8773 64.9973 54.2587V103.752C64.9973 106.239 62.984 108.251 60.4987 108.251C58.012 108.251 56 106.239 56 103.752V54.1347ZM52.6253 31.7627H62.748C67.5627 31.7627 71.9947 30.0733 75.4707 27.2627C75.9547 26.8813 76.4147 26.464 76.852 26.036C78.4173 24.5173 79.7453 22.74 80.7453 20.784C81.8587 18.6453 82.5907 16.272 82.872 13.764C82.952 13.0213 82.9947 12.2773 82.9947 11.5147C82.9947 9.97334 82.828 8.46667 82.4773 7.01467H78.496C78.496 10.7387 75.4707 13.764 71.7467 13.764H58.248C53.064 13.764 48.3387 15.7213 44.7507 18.928C44.548 19.1067 44.3347 19.2987 44.1427 19.4907C41.928 21.6373 40.2067 24.292 39.1613 27.2627C38.6547 28.6907 38.2933 30.1987 38.124 31.7627C38.0453 32.504 38 33.248 38 34.012V94.7533C38 99.94 39.9587 104.663 43.1653 108.251C43.6573 108.815 44.188 109.34 44.7507 109.837C47.8107 112.581 51.704 114.404 56 114.877C56.74 114.956 57.4853 115 58.248 115H62.748C63.5133 115 64.2547 114.956 64.9973 114.877C70.0813 114.315 74.6027 111.863 77.832 108.251C78.98 106.98 79.9587 105.563 80.7453 104.023C82.1853 101.241 82.9947 98.0933 82.9947 94.7533V63.2573C82.9947 62.3347 82.94 61.4347 82.8053 60.548C82.5 58.2067 81.7933 56.0013 80.7453 53.9893C80.2853 53.0773 79.7453 52.212 79.1373 51.3907C78.744 50.8173 78.304 50.276 77.832 49.76C77.3373 49.1973 76.8093 48.668 76.2467 48.1733C75.5827 47.576 74.8853 47.0253 74.1547 46.532C71.488 44.708 68.372 43.5053 64.9973 43.1333C64.2547 43.0533 63.5133 43.0107 62.748 43.0107H58.248C57.4853 43.0107 56.74 43.0533 56 43.1333C53.0413 43.4613 50.2853 44.428 47.856 45.8893C46.74 46.5427 45.708 47.3067 44.7507 48.1733V39.636C44.7507 35.2933 48.2827 31.7627 52.6253 31.7627Z" fill="#AF584D"></path></svg> 