<svg xmlns="http://www.w3.org/2000/svg" width="77" height="81"><svg xmlns="http://www.w3.org/2000/svg" xmlns:xlink="http://www.w3.org/1999/xlink" width="77" height="81"><svg xmlns="http://www.w3.org/2000/svg" width="77" height="81" fill="none" viewBox="0 0 77 81"><g id="path4"><path id="Vector" fill="#e54717" d="M34.285 82.267c-.127-.207-.053-.376.166-.376.22 0 .399.169.399.376s-.075.376-.166.376-.27-.17-.399-.376M17.823 77.09c-5.141-.09-6.303-.208-6.303-.643 0-.294.376-.798.836-1.12 1.301-.912.111-.732-3.682.555-2.125.722-3.934 1.103-4.912 1.035l-1.55-.106 3.785-3.293 3.783-3.293 10.371-.09c12.9-.112 16.19.006 17.145.62.438.283 2.559.574 5.08.7 4.537.225 5.636.451 5.656 1.163.007.236.249.742.539 1.124.492.65.575.599 1.287-.796.418-.82 1.213-2.029 1.766-2.686 1.232-1.464.99-1.824-.664-.988-1.147.58-6.3 1.415-6.679 1.082-.09-.079 2.301-2.638 5.314-5.686 5.009-5.068 5.521-5.713 5.974-7.519.273-1.086.655-1.975.85-1.975.647 0-.03-2.965-.93-4.073-2.22-2.733-13.329-14.384-13.881-14.559-.34-.108-.99-.59-1.442-1.073-.693-.738-.941-1.829-1.555-6.84-.402-3.28-.651-6.042-.554-6.14s6.44 6.16 14.095 13.902c14.792 14.964 14.99 15.166 18.052 18.487l1.982 2.15-1.439 1.357c-.792.746-1.615 1.472-1.829 1.613-.214.14-.573.594-.796 1.008s-1.155 1.144-2.07 1.621c-1.03.538-2.146 1.576-2.933 2.728-.698 1.023-1.505 1.86-1.793 1.86s-.803.585-1.144 1.301c-.341.715-.752 1.22-.912 1.121s-.428.048-.596.326c-.168.279-.85.902-1.514 1.385s-1.129 1.007-1.032 1.163-.853 1.2-2.11 2.32l-2.286 2.037-5.923.073-5.923.072-2.262-2.047c-1.665-1.506-2.404-1.955-2.8-1.698-.426.275-.146.7 1.343 2.035l1.881 1.687-6.397-.035c-3.518-.019-6.65.028-6.961.105-.31.076-3.4.09-6.867.03m41.486-5.502c0-.078.297-.374.659-.658.596-.468.61-.455.142.142-.492.627-.8.826-.8.516M22.88 69.45c.09-.271.387-.568.659-.658.282-.094.423.047.329.33-.09.27-.387.567-.659.658-.282.094-.423-.047-.33-.33m18.935-1.477c-.132-.213.02-.276.354-.148.652.25.771.52.23.52-.195 0-.458-.167-.584-.372m-12.066-8.384C19.228 48.686 9.768 38.533 8.507 36.791c-.59-.814-1.467-1.75-1.947-2.078s-2.106-1.827-3.612-3.332L.209 28.645l2.55-2.418c1.404-1.33 5.007-4.746 8.008-7.593 5.529-5.244 10.335-9.369 10.918-9.369.176 0 .43-.344.563-.764S23.35 6.937 24.4 5.96s2.125-1.987 2.389-2.246c.374-.366 5.979-.469 25.413-.465 13.713.003 24.775.143 24.58.31-.787.684-8.346 6.041-9.57 6.785-1.239.751-1.82.8-9.713.8-6.21.002-8.325-.11-8.128-.429.191-.309-.042-.348-.825-.138-.6.162-4.678.398-9.062.525l-7.972.232-2.732 2.932c-1.502 1.612-2.789 3.305-2.858 3.762-.157 1.03-1.86 3.654-2.371 3.654-.207 0 .062-.693.597-1.54s.893-1.62.796-1.718c-.196-.196-10.147 9.846-10.36 10.455-.2.567 1.454 2.186 2.013 1.971.265-.101.84.318 1.277.933.48.673 1.058 1.066 1.454.988 2.114-.416 3.626-.495 3.045-.16-.386.222-.549.645-.427 1.112.138.524.012.753-.41.753-1.04 0-.697.728 2.036 4.316 1.454 1.91 2.715 3.837 2.8 4.282.251 1.303 1.2 2.437 2.89 3.452 1.665 1 2.278 1.873 1.314 1.873-.78 0 2.138 5.858 3.2 6.427 1.172.627 1.178.229.021-1.38-2.07-2.878-1.597-2.545 2.805 1.979 4.352 4.471 4.503 4.585 6.432 4.833 2.241.287 2.559.733.753 1.055-2.49.444-10.261 1.746-10.464 1.754-.115.004-1.724-1.561-3.575-3.48m3.226-14.041c.003-1.225.18-2.48.394-2.791.273-.398.313.215.136 2.07-.317 3.31-.537 3.611-.53.72m32.01.496c-.887-2.06-.612-2.302.759-.667 1.253 1.495 1.312 1.73.51 2.038-.42.161-.774-.221-1.269-1.37m-56.287-.479c-.62-.284-.875-.518-.564-.52.31-.002.988.238 1.505.534 1.19.68.554.67-.94-.014m35.568.023c-.297-.358-.325-.573-.076-.573.455 0 .985.713.724.974-.095.095-.386-.085-.648-.4m11.797-9.004c.127-1.055.232-2.298.233-2.764.009-2.176 1.507.012 1.742 2.544.163 1.762.149 1.791-1.02 1.963l-1.186.174zm-21.608-7.431c-2.134-2.324-3.683-4.29-3.44-4.371.494-.165 5.65.58 6.149.888.177.109.32.62.32 1.136s.271 2.127.602 3.58c.33 1.452.521 2.719.425 2.815s-1.921-1.725-4.056-4.049m-.351-7.164c.003-.271.17-.747.37-1.057.297-.46.366-.41.371.26.003.453-.163.929-.37 1.057s-.374.01-.371-.26m-.382-7.1c0-.22.17-.294.376-.166.207.128.377.307.377.398s-.17.166-.377.166-.376-.18-.376-.398m-20.136-3.343c.82-.925 2.044-1.682 2.302-1.424.09.09-.56.637-1.444 1.216-1.386.907-1.504.936-.858.208m2.979-2.979c.767-.862.976-.974.976-.52 0 .157-.38.52-.846.806-.844.518-.844.517-.13-.286m11.513-7.203c0-.436 3.456-.446 6.208-.017 1.585.247 1.243.3-2.163.343-2.48.031-4.046-.095-4.046-.326m9.478-.948C37.774.195 43.75-.9 44.634-.883c1.427.028-.751.7-3.51 1.084-3.316.462-3.85.493-3.57.214"/></g></svg></svg><style>@media (prefers-color-scheme:light){:root{filter:none}}@media (prefers-color-scheme:dark){:root{filter:none}}</style></svg>