<?xml version="1.0" encoding="UTF-8"?>
<!DOCTYPE svg PUBLIC "-//W3C//DTD SVG 1.1//EN" "http://www.w3.org/Graphics/SVG/1.1/DTD/svg11.dtd">
<!-- Creator: CorelDRAW -->
<svg xmlns="http://www.w3.org/2000/svg" xml:space="preserve" width="12.7mm" height="12.7mm" version="1.1" style="shape-rendering:geometricPrecision; text-rendering:geometricPrecision; image-rendering:optimizeQuality; fill-rule:evenodd; clip-rule:evenodd"
viewBox="0 0 1270 1270"
 xmlns:xlink="http://www.w3.org/1999/xlink"
 xmlns:xodm="http://www.corel.com/coreldraw/odm/2003">
 <defs>
  <style type="text/css">
   <![CDATA[
    .fil1 {fill:#FEFEFE}
    .fil0 {fill:#6EB535}
    .fil2 {fill:#328A36}
   ]]>
  </style>
 </defs>
 <g id="Слой_x0020_1">
  <metadata id="CorelCorpID_0Corel-Layer"/>
  <g id="_2111595681744">
   <path class="fil0" d="M635 1132.92c-240.54,0 -435.53,-194.99 -435.53,-435.54 0,-240.53 194.99,-435.52 435.53,-435.52 240.54,0 435.53,194.99 435.53,435.52 0,240.55 -194.99,435.54 -435.53,435.54z"/>
   <path class="fil1" d="M374.22 521.23c34.9,-40.03 74.81,-0.01 100.39,41.55 19.54,31.78 37.72,76.49 39.81,114.14 1.2,21.44 -2.36,42.13 -13.11,60.09 -8.95,15 -23.71,26.2 -40.67,32.87 10.28,52.53 32.21,90.57 60.38,116.09 33.18,30.05 75.43,43.14 117.55,42.26 41.93,-0.88 82.25,-16.54 113.27,-46.2 27.41,-26.23 47.67,-63.61 55.57,-111.68 -47.8,-18.74 -63.14,-71.98 -46.54,-129.19 7.54,-28.31 21.01,-57.11 35.06,-79.39l1.87 -2.89c1.92,6.64 3.75,13.57 5.43,20.97 4.79,21.45 8.85,46.88 11.79,70 4.98,39.76 8.65,-12.16 8.58,-33.78 -0.1,-24.1 -2.59,-55.45 -6.83,-82.45 4.66,-5.25 9.5,-10.04 14.5,-14.13 2.67,11.37 5.08,23.08 7.27,35.29 4.73,26.17 8.26,51.64 10.52,80.34 1.05,13.23 1.78,27.65 2.8,41.37 2.86,38.22 9.42,19.06 12.33,-6.6 2.59,-23.08 3.04,-49.04 2.05,-75.43 -1.22,-30.19 -4.54,-60.9 -9.05,-88.55 6.03,-1.23 12.12,-0.98 18.13,1.12 8.17,45.03 13.1,95.38 14.65,154.93 0.42,17.43 3.04,27.64 6.53,23.28 4.14,-5.04 8.22,-32.39 9.34,-78.34 0.47,-20.09 0.5,-45 -0.21,-71.24 7.02,11.57 12.66,25.64 16.96,40.42 17.07,62.78 24.18,178.69 -55.81,199.01 -6.69,1.58 -13.65,2.35 -20.68,2.34 -9.47,56.73 -33.96,101.32 -67.17,133.08 -38.25,36.59 -87.94,55.9 -139.59,56.98 -51.55,1.08 -103.5,-15.16 -144.64,-52.42 -34.3,-31.06 -60.8,-76.42 -72.8,-138.09 -19.82,-0.27 -39.15,-6.51 -53.35,-19.69 -13.83,-12.82 -22.73,-29.4 -27.92,-47.82 -9.81,-34.87 -6.66,-84.03 1.57,-118.99 6.3,-26.65 16.96,-53.31 32.02,-69.25z"/>
   <path class="fil2" d="M443.22 212.25c26.75,-9.44 52.78,-16.59 80.34,-24.35l65.64 75.84 0 -125.4 12.78 -0.64c20.1,-0.82 40.13,-0.82 60.23,0l12.77 0.64 0 125.4 65.66 -75.85c27.56,7.76 53.59,14.91 80.34,24.36l-0.01 0 -91.07 105.38c-6.07,6.96 -12.55,13.34 -19.34,19.05 -23.86,20.04 -51.63,29.73 -80.63,29.39 -24.67,-0.29 -51.59,-7.88 -76.56,-29.42 -6.42,-5.53 -12.76,-11.86 -19,-19.02l-91.15 -105.38 0 0z"/>
  </g>
 </g>
</svg>
