<svg width="512" height="512" viewBox="0 0 512 512" fill="none" xmlns="http://www.w3.org/2000/svg">
<g clip-path="url(#clip0_7832_573)">
<rect width="512" height="512" fill="white"/>
<rect width="512" height="512" fill="#3A45FF"/>
<path d="M456.96 138.674L436.088 116.792H194.043L56.3572 373.313L78.2388 394.521H243.866L263.055 349.748H376.166L424.979 248.756L410.504 233.943L456.96 138.674ZM348.562 318.104H246.559C238.143 318.104 234.44 319.787 231.074 327.866L215.925 362.877H73.8625L200.44 127.228H419.256L377.849 212.398H281.907L271.471 237.31H387.612L348.562 318.104Z" fill="black"/>
<path d="M271.471 237.309H387.612L348.562 318.103H246.559C238.143 318.103 234.44 319.786 231.074 327.866L215.925 362.876H73.8624L200.439 127.228H419.256L377.849 212.398H281.907L271.471 237.309Z" fill="white"/>
</g>
<defs>
<clipPath id="clip0_7832_573">
<rect width="512" height="512" fill="white"/>
</clipPath>
</defs>
</svg>
