<?xml version="1.0" encoding="UTF-8"?>
<!DOCTYPE svg PUBLIC "-//W3C//DTD SVG 1.1//EN" "http://www.w3.org/Graphics/SVG/1.1/DTD/svg11.dtd">
<!-- Creator: CorelDRAW 2017 -->
<svg xmlns="http://www.w3.org/2000/svg" xml:space="preserve" width="85px" height="120px" version="1.1" style="shape-rendering:geometricPrecision; text-rendering:geometricPrecision; image-rendering:optimizeQuality; fill-rule:evenodd; clip-rule:evenodd"
viewBox="0 0 85 120"
 xmlns:xlink="http://www.w3.org/1999/xlink">
 <defs>
  <style type="text/css">
   <![CDATA[
    .fil0 {fill:#E091B7}
   ]]>
  </style>
 </defs>
 <g id="Слой_x0020_1">
  <metadata id="CorelCorpID_0Corel-Layer"/>
  <path class="fil0" d="M9 38c0,10 1,11 8,17 4,3 9,5 14,8 5,2 45,7 25,21 -9,7 -24,9 -36,9 -4,0 -2,-3 -6,-3 -8,0 -13,12 -1,16 29,10 65,-16 65,-28 0,-13 -12,-20 -25,-23 -53,-14 -15,-32 2,-32l7 0c8,0 1,13 6,13 16,0 18,-27 -7,-27l-1 0c-15,0 -24,0 -37,8 -9,5 -14,10 -14,22z"/>
 </g>
</svg>
