<svg viewBox="0 0 159 159" fill="none" xmlns="http://www.w3.org/2000/svg">
<path d="M0 76.3047C0 40.3467 0 22.3676 11.1838 11.1838C22.3676 0 40.3467 0 76.3047 0H82.6753C118.633 0 136.612 0 147.796 11.1838C158.98 22.3676 158.98 40.3467 158.98 76.3047V82.6753C158.98 118.633 158.98 136.612 147.796 147.796C136.612 158.98 118.633 158.98 82.6753 158.98H76.3047C40.3467 158.98 22.3676 158.98 11.1838 147.796C0 136.612 0 118.633 0 82.6753V76.3047Z" fill="#FF7700"/>
<path d="M79.4898 79.0655C87.276 79.0655 94.2835 75.951 99.38 70.8546C104.476 65.7582 107.591 58.6798 107.591 50.9644C107.591 43.1782 104.476 36.1706 99.38 31.0742C94.2835 25.9778 87.276 22.8633 79.4898 22.8633C71.7036 22.8633 64.696 25.9778 59.5996 31.0742C54.5032 36.1706 51.3887 43.1782 51.3887 50.9644C51.3887 58.7506 54.5032 65.7582 59.5996 70.8546C64.696 75.8802 71.7036 79.0655 79.4898 79.0655ZM70.5002 41.9041C72.8361 39.5682 76.0214 38.1525 79.4898 38.1525C83.029 38.1525 86.2142 39.5682 88.4793 41.9041C90.8151 44.2399 92.2308 47.4252 92.2308 50.8936C92.2308 54.362 90.8151 57.618 88.4793 59.8831C86.1434 62.219 82.9582 63.6346 79.4898 63.6346C75.9506 63.6346 72.7653 62.219 70.5002 59.8831C68.1644 57.5473 66.7487 54.362 66.7487 50.8936C66.7487 47.4252 68.1644 44.2399 70.5002 41.9041Z" fill="white"/>
<path d="M117.289 90.3898L109.008 79.1352C108.512 78.4981 107.663 78.4273 107.026 78.9228C99.2394 85.5765 89.6837 89.8235 79.42 89.8235C69.1564 89.8235 59.6006 85.5057 51.8144 78.9228C51.2482 78.4273 50.328 78.4981 49.8325 79.1352L41.6216 90.3898C41.1969 90.956 41.3385 91.7346 41.8339 92.1594C48.7707 97.822 56.8401 101.574 65.2633 103.556L47.8505 134.205C47.4258 135.054 48.0629 136.116 49.0539 136.116H66.1127C66.6082 136.116 67.1037 135.833 67.316 135.337L79.4908 108.156L91.6656 135.337C91.878 135.833 92.3734 136.116 92.8689 136.116H109.928C110.919 136.116 111.556 135.054 111.06 134.205L93.6475 103.556C102.071 101.574 110.069 97.822 117.006 92.1594C117.572 91.7346 117.643 90.956 117.289 90.3898Z" fill="white"/>
</svg>
