<svg width="150" height="150" viewBox="0 0 150 150" fill="none" xmlns="http://www.w3.org/2000/svg">
<path d="M150 0H0V150H150V0Z" fill="#2B5233"/>
<path d="M75 111.43C63.084 111.43 53.3863 101.718 53.3863 89.7772C53.3863 77.8416 63.084 68.1243 75 68.1243C86.916 68.1243 96.6136 77.8416 96.6136 89.7772C96.6136 101.718 86.916 111.43 75 111.43ZM74.9951 52.5471C54.5053 52.5471 37.8386 69.2481 37.8386 89.7723C37.8386 110.301 54.5053 126.997 74.9951 126.997C95.4849 126.997 112.156 110.301 112.156 89.7723C112.161 69.2481 95.4849 52.5471 74.9951 52.5471Z" fill="#C4D600"/>
<path d="M108.697 23.3804L108.76 23.0075H108.378C75.324 23.0075 71.9867 45.8922 71.9573 46.1278L71.9082 46.4959H72.2763C104.594 46.4959 108.657 23.616 108.697 23.3804Z" fill="#C4D600"/>
</svg>
