<svg width="283" height="326" viewBox="0 0 283 326" fill="none" xmlns="http://www.w3.org/2000/svg">
<path d="M82.0718 157.97L39.5004 182.506L0 250.881L161.133 157.97H82.0718Z" fill="#874691"/>
<path d="M203.704 92.9109L161.133 117.447L121.632 185.822L282.705 92.9109H203.704Z" fill="#DA1844"/>
<path d="M161.133 68.3752L121.632 0V140.178V185.822V326L161.133 257.625V68.3752Z" fill="#F9B229"/>
<path d="M121.632 0L161.133 68.3752L203.704 92.9109H282.705L121.632 0Z" fill="#F07F1A"/>
<path d="M121.632 140.178V326L161.133 257.625V208.493L121.632 140.178Z" fill="#72B22C"/>
<path d="M203.704 233.089L161.133 257.625L121.632 326L282.705 233.089H203.704Z" fill="#00743E"/>
<path d="M0 70.059V255.881L39.5004 187.506V138.434L0 70.059Z" fill="#5F5A94"/>
<path d="M121.632 140.178V140.238L0 70.059L39.5004 138.434L203.704 233.089H282.705L121.632 140.178Z" fill="#0D90CD"/>
</svg>
