<?xml version="1.0" encoding="UTF-8"?> <svg xmlns="http://www.w3.org/2000/svg" width="71" height="71" viewBox="0 0 71 71" fill="none"><rect width="71" height="71" fill="#5200A9"></rect><path d="M51.6255 18.1457C48.7005 18.2293 46.0596 19.4485 44.1295 21.3785C42.1296 23.3799 40.8921 26.1429 40.8921 29.1961V42.5598C40.8921 43.4442 41.6091 44.162 42.4943 44.162H61.3978C62.2822 44.162 63 43.4449 63 42.5598V29.375C63 23.1166 57.8816 17.9676 51.6255 18.1457ZM54.0008 37.9074C52.8661 37.9074 51.9464 36.9877 51.9464 35.853V34.5057C51.9464 33.371 52.8661 32.4513 54.0008 32.4513C55.1355 32.4513 56.0552 33.371 56.0552 34.5057V35.853C56.0552 36.9877 55.1355 37.9074 54.0008 37.9074ZM54.4538 29.1816H53.8035C52.9191 29.1816 52.2013 28.4645 52.2013 27.5793C52.2013 26.6949 52.9183 25.9771 53.8035 25.9771H54.4538C55.3382 25.9771 56.056 26.6942 56.056 27.5793C56.0552 28.4637 55.3382 29.1816 54.4538 29.1816Z" fill="white"></path><path d="M43.8705 29.1198C41.8652 27.1145 39.0922 25.8777 36.0306 25.8885C29.9257 25.9092 25.0361 30.98 25.0361 37.0856V50.2604C25.0361 51.1432 25.7516 51.8588 26.6345 51.8588H45.5034C46.3863 51.8588 47.1018 51.1432 47.1018 50.2604V36.9213C47.1018 33.875 45.8673 31.1159 43.8705 29.1198ZM36.0682 45.6287C35.0057 45.6287 34.1443 44.7674 34.1443 43.7049V35.6462C34.1443 34.5836 35.0057 33.7223 36.0682 33.7223C37.1307 33.7223 37.9921 34.5836 37.9921 35.6462V43.7056C37.9921 44.7674 37.1307 45.6287 36.0682 45.6287Z" fill="white"></path><path d="M21.2386 18H20.9898C14.9203 18 10 22.9203 10 28.9898V42.5508C10 43.4398 10.7209 44.1606 11.6099 44.1606H19.5051C20.3941 44.1606 21.115 43.4398 21.115 42.5508V35.606C21.115 34.717 21.8359 33.9961 22.7249 33.9961H30.62C31.5091 33.9961 32.23 33.2752 32.23 32.3862V28.9898C32.2284 22.9203 27.3081 18 21.2386 18ZM23.379 29.1418H22.7241C21.8351 29.1418 21.1142 28.421 21.1142 27.5319C21.1142 26.6429 21.8351 25.9221 22.7241 25.9221H23.379C24.268 25.9221 24.9889 26.6429 24.9889 27.5319C24.9881 28.421 24.268 29.1418 23.379 29.1418Z" fill="white"></path></svg> 