<svg width="32" height="32" viewBox="0 0 32 32" fill="none" xmlns="http://www.w3.org/2000/svg">
<rect width="32" height="32" rx="16" fill="#00CE62"/>
<path fill-rule="evenodd" clip-rule="evenodd" d="M26.2736 8.59348L26.2746 8.59438C27.3871 9.61779 28.0051 10.9809 28 12.443L28 12.4439V12.4447C28 13.898 27.3868 15.2616 26.2689 16.2899L14.8224 26.8248C14.5686 27.0584 14.1536 27.0584 13.8998 26.8249L5.73103 19.3102C4.61338 18.282 4 16.9185 4 15.4598C4 14.001 4.61338 12.6376 5.73103 11.6094C6.84838 10.5815 8.32646 10.0203 9.90438 10.0203C11.4145 10.0203 12.8361 10.5389 13.9382 11.4911L14.3689 11.8632L17.9279 8.58916C19.0452 7.56127 20.5233 7 22.1013 7C23.6786 7 25.162 7.56609 26.2736 8.59348ZM7.76698 17.3744L14.1666 23.135L23.3751 14.87L23.7885 14.4638C24.9146 13.4451 24.9147 11.7881 23.7887 10.7693C22.6674 9.75033 20.8434 9.75047 19.7223 10.7697L14.635 15.4253L12.3024 13.3658C11.1811 12.3468 9.11511 12.5664 7.994 13.5857C6.87357 14.6043 6.64655 16.3557 7.76698 17.3744Z" fill="white"/>
</svg>
