<?xml version="1.0"?>
<svg xmlns="http://www.w3.org/2000/svg" width="44" height="40" viewBox="0 0 44 40" fill="none">
    <path d="M6.74457 25.389C6.74457 30.2412 10.0503 33.3121 14.9803 33.3121C18.8237 33.3121 22.4086 31.1303 24.8695 26.4724C26.915 22.6025 28.6565 18.6423 30.3458 14.7751C32.2345 10.4511 36.6612 0 36.6612 0H44C40.8361 7.51548 37.2169 15.9789 33.8962 23.4C31.0914 29.6693 30.0858 31.4476 28.2659 33.7526C24.8406 38.0917 19.8032 40 14.5181 40C5.9481 40 0 34.0878 0 25.9895C0 22.7037 0.920277 19.0212 2.63978 14.953C4.82836 9.77258 6.78859 5.15304 9.00331 0H16.1248C14.5607 3.64009 13.0159 7.2884 11.4876 10.9435C10.5082 13.2868 9.62921 15.3141 8.71306 17.6834C7.27555 21.4001 6.74457 23.3357 6.74457 25.389Z" fill="url(#paint0_linear)"/>
    <path d="M6.74457 25.389C6.74457 30.2412 10.0503 33.3121 14.9803 33.3121C18.8237 33.3121 22.4086 31.1303 24.8695 26.4724C26.915 22.6025 28.6565 18.6423 30.3458 14.7751C32.2345 10.4511 36.6612 0 36.6612 0H44C40.8361 7.51548 37.2169 15.9789 33.8962 23.4C31.0914 29.6693 30.0858 31.4476 28.2659 33.7526C24.8406 38.0917 19.8032 40 14.5181 40C5.9481 40 0 34.0878 0 25.9895C0 22.7037 0.920277 19.0212 2.63978 14.953C4.82836 9.77258 6.78859 5.15304 9.00331 0H16.1248C14.5607 3.64009 13.0159 7.2884 11.4876 10.9435C10.5082 13.2868 9.62921 15.3141 8.71306 17.6834C7.27555 21.4001 6.74457 23.3357 6.74457 25.389Z" fill="url(#paint1_linear)"/>
    <defs>
        <linearGradient id="paint0_linear" x1="16.0258" y1="-2.80102e-06" x2="0.165694" y2="40.6108" gradientUnits="userSpaceOnUse">
            <stop stop-color="#003594" stop-opacity="0.2"/>
            <stop offset="1" stop-color="#003594"/>
        </linearGradient>
        <linearGradient id="paint1_linear" x1="11.1719" y1="35.8974" x2="-0.320007" y2="29.36" gradientUnits="userSpaceOnUse">
            <stop stop-color="#003594"/>
            <stop offset="1" stop-color="#003594" stop-opacity="0"/>
        </linearGradient>
    </defs>
</svg>
