<?xml version="1.0" encoding="utf-8"?>
<svg xmlns="http://www.w3.org/2000/svg" fill="none" baseProfile="tiny-ps" version="1.2" viewBox="0 0 40 40">
    <title>Testograf</title>
    <g fill-rule="evenodd">
        <path fill="#00EAF8"
              d="M20.0001 9.00005C13.9249 9.00005 9.00005 13.9249 9.00005 20c0 6.0752 4.92485 11 11.00005 11 6.0751 0 11-4.9248 11-11 0-6.0751-4.9249-10.99995-11-10.99995ZM5.00005 20c0-8.2842 6.71575-14.99995 15.00005-14.99995 8.2842 0 15 6.71575 15 14.99995 0 8.2843-6.7158 15-15 15-8.2843 0-15.00005-6.7157-15.00005-15Z"/>
        <path fill="#AEF5FA"
              d="M9.74172 28.2321c-.95658.5523-2.17976.2245-2.73205-.732-1.98912-3.4453-2.52815-7.5396-1.49851-11.3823 1.02965-3.8427 3.54363-7.11901 6.98894-9.10813 3.4452-1.98912 7.5395-2.52815 11.3822-1.49851 3.8427 1.02965 7.119 3.54363 9.1081 6.98884.5523.9566.2246 2.1798-.732 2.7321-.9566.5523-2.1798.2245-2.7321-.732-1.4587-2.5266-3.8613-4.3702-6.6792-5.12523-2.818-.75508-5.8205-.35979-8.347 1.09893-2.5266 1.4587-4.3702 3.8613-5.12523 6.6792-.75508 2.818-.35979 5.8205 1.09893 8.3471.5523.9565.2245 2.1797-.73208 2.732Z"/>
        <path fill="#DDFBFD"
              d="M7.74172 15.2321c-.95659-.5523-1.28434-1.7755-.73205-2.732a15.00049 15.00049 0 0 1 5.21883-5.32983 15.00044 15.00044 0 0 1 7.1408-2.15695c1.1036-.04645 2.0358.81053 2.0823 1.91413.0464 1.10359-.8105 2.03588-1.9141 2.08233a11.00056 11.00056 0 0 0-5.2366 1.58172 10.99895 10.99895 0 0 0-3.8271 3.9086c-.55232.9565-1.7755 1.2843-2.73208.732Z"/>
    </g>
</svg>
