<svg width="256" height="256" viewBox="0 0 256 256" fill="none" xmlns="http://www.w3.org/2000/svg">
<path d="M0 112C0 72.7963 0 53.1945 7.62954 38.2207C14.3407 25.0493 25.0493 14.3407 38.2207 7.62954C53.1945 0 72.7963 0 112 0H144C183.204 0 202.806 0 217.779 7.62954C230.951 14.3407 241.659 25.0493 248.37 38.2207C256 53.1945 256 72.7963 256 112V144C256 183.204 256 202.806 248.37 217.779C241.659 230.951 230.951 241.659 217.779 248.37C202.806 256 183.204 256 144 256H112C72.7963 256 53.1945 256 38.2207 248.37C25.0493 241.659 14.3407 230.951 7.62954 217.779C0 202.806 0 183.204 0 144V112Z" fill="url(#paint0_linear_216_1167)"/>
<path d="M94.4049 184.535H64.0645C63.9184 184.535 63.8271 184.377 63.9062 184.258L78.8923 156.568C78.9592 156.45 78.8649 156.291 78.734 156.291H48.3266C48.1806 156.291 48.0892 156.157 48.1532 156.027L63.1118 128.057L87.5297 83.0227C87.5297 83.0227 87.624 82.9284 87.6879 82.9284H153.655C153.722 82.9284 153.786 82.8888 153.814 82.8371L189.985 16.0997C190.064 15.9415 190.302 15.9811 190.329 16.1515L208.706 111.969C208.706 111.969 208.706 112.064 208.693 112.088L178.685 167.348C178.685 167.348 178.645 167.4 178.618 167.415L65.1266 239.969C64.9684 240.075 64.7675 239.89 64.8618 239.716L94.5783 184.812C94.6453 184.693 94.551 184.535 94.4201 184.535H94.4079H94.4049Z" fill="black"/>
<path d="M187.51 33.0728L202.536 111.427C202.536 111.427 202.536 111.518 202.524 111.546L184.187 145.331C184.187 145.331 184.147 145.383 184.12 145.398L96.1849 201.563C96.0267 201.669 95.8258 201.484 95.9201 201.31L122.989 151.294C123.056 151.175 122.961 151.017 122.831 151.017H88.3419C88.1958 151.017 88.1045 150.871 88.1836 150.74L103.194 123.062C103.261 122.944 103.167 122.785 103.036 122.785H72.6436C72.4976 122.785 72.4063 122.639 72.4854 122.508L90.6367 89.0271C90.6367 89.0271 90.728 88.9358 90.7949 88.9358H156.762C156.829 88.9358 156.896 88.8962 156.921 88.8414L187.182 33.0363C187.261 32.878 187.501 32.9176 187.526 33.088L187.514 33.0758L187.51 33.0728Z" fill="white"/>
<mask id="mask0_216_1167" style="mask-type:luminance" maskUnits="userSpaceOnUse" x="131" y="104" width="44" height="33">
<path d="M141.888 104.68L132.042 122.841C132.042 122.841 132.042 122.862 132.054 122.862H138.47C138.47 122.862 138.488 122.874 138.482 122.883L131.33 136.168C131.33 136.168 131.33 136.189 131.342 136.189H164.48C164.48 136.189 164.492 136.186 164.495 136.18L174.727 108.235C174.727 108.235 174.727 108.217 174.715 108.214L141.9 104.668C141.9 104.668 141.888 104.668 141.885 104.677L141.888 104.68Z" fill="white"/>
</mask>
<g mask="url(#mask0_216_1167)">
<path d="M133.083 133.298L136.133 127.689L154.634 122.022L138.653 111.355L140.774 107.435C140.774 107.435 140.786 107.422 140.792 107.428L164.912 123.519L133.083 133.295V133.298Z" fill="black"/>
</g>
<mask id="mask1_216_1167" style="mask-type:luminance" maskUnits="userSpaceOnUse" x="170" y="107" width="20" height="27">
<path d="M184.282 107.492H189.353L175.341 133.343H170.267L184.282 107.492Z" fill="white"/>
</mask>
<g mask="url(#mask1_216_1167)">
<path d="M173.256 140.076L168.646 135.681L187.962 97.2969L193.261 100.346L173.256 140.076Z" fill="black"/>
</g>
<defs>
<linearGradient id="paint0_linear_216_1167" x1="0.00543827" y1="78.322" x2="255.995" y2="177.66" gradientUnits="userSpaceOnUse">
<stop stop-color="#2C3BFA"/>
<stop offset="0.06" stop-color="#3239F3"/>
<stop offset="0.14" stop-color="#4336E0"/>
<stop offset="0.23" stop-color="#5F31C0"/>
<stop offset="0.34" stop-color="#852995"/>
<stop offset="0.46" stop-color="#B7205D"/>
<stop offset="0.59" stop-color="#F31519"/>
<stop offset="0.61" stop-color="#FF130D"/>
<stop offset="0.86" stop-color="#F45804"/>
<stop offset="1" stop-color="#EF7900"/>
</linearGradient>
</defs>
</svg>
