<?xml version="1.0" encoding="UTF-8"?> <svg xmlns="http://www.w3.org/2000/svg" width="308" height="308" viewBox="0 0 308 308" fill="none"><g clip-path="url(#clip0_4000_6699)"><rect width="308" height="308" rx="154" fill="#FEFFF9"></rect><rect x="-825.438" y="-628.32" width="1638.56" height="1392.16" fill="#FEFFF9"></rect><path fill-rule="evenodd" clip-rule="evenodd" d="M127.8 177.035C125.839 179.482 123.923 181.93 122.053 184.445C116.795 191.308 111.963 198.484 107.583 205.934C105.487 209.396 103.678 213.023 102.174 216.779C101.753 217.907 101.002 218.883 100.017 219.58C99.0322 220.277 97.8596 220.662 96.6519 220.686H96.4491C95.499 220.711 94.5564 220.513 93.6972 220.109C92.838 219.704 92.0864 219.104 91.5029 218.356C90.9194 217.609 90.5205 216.735 90.3382 215.806C90.156 214.877 90.1956 213.918 90.4539 213.007C92.1382 207.829 94.3431 202.833 97.0351 198.097C98.7931 194.841 101.002 191.54 103.053 188.464C105.397 185.006 107.786 181.578 110.22 178.18C105.712 178.629 101.362 179.235 97.0351 180.111C86.37 181.942 75.9187 184.846 65.842 188.778C60.5206 190.809 55.8051 194.155 52.1386 198.501C46.9998 205.237 46.6167 213.793 55.3616 217.363C65.9546 221.674 79.2523 223.47 90.6116 224.301C106.137 225.342 121.723 225.057 137.199 223.448C163.884 220.821 197.917 213.927 221.199 199.646C202.447 179.28 153.764 176.361 127.8 177.035ZM208.104 90.4053C208.726 91.3494 209.034 92.4642 208.986 93.5923C208.937 94.7204 208.534 95.8049 207.834 96.6925C206.054 99.3723 203.958 101.83 201.591 104.013C198.129 107.42 194.496 110.65 190.705 113.691C172.944 129.79 155.094 145.958 139.047 163.809C168.685 165.448 209.276 172.903 231.319 192.281C237.519 187.302 241.919 180.443 243.85 172.746C246.284 161.047 234.362 154.782 225.121 151.279C212.387 146.541 196.61 144.543 183.019 143.802C179.638 143.645 174.387 142.792 173.215 138.974C173.043 138.246 173.033 137.489 173.184 136.756C173.335 136.023 173.644 135.331 174.09 134.729C174.536 134.126 175.108 133.628 175.766 133.268C176.424 132.907 177.154 132.694 177.903 132.642C194.605 130.447 211.163 127.268 227.487 123.121C235.646 120.988 265.803 112.837 267.155 102.688C267.651 98.197 252.978 95.0084 250.161 94.4246C236.286 91.8676 222.214 90.5228 208.104 90.4053ZM227.825 209.257C217.778 214.97 207.006 219.312 195.798 222.168C172.435 228.616 148.539 232.967 124.397 235.169C107.122 236.869 89.6997 236.348 72.5584 233.62C62.0329 231.711 49.727 228.119 41.2976 221.247C34.9869 216.105 31.0201 209.01 32.5753 200.769C35.3249 186.016 50.2679 177.439 63.205 172.656C80.9878 166.077 102.174 163.674 121.151 163.427C134.476 145.641 149.058 128.825 164.786 113.107C171.277 106.775 184.439 94.3348 196.069 90.2481C181.446 90.2055 166.83 90.8949 152.277 92.3139C144.997 93.0324 137.694 93.9531 130.505 95.3452C125.327 96.2094 120.251 97.6014 115.359 99.4993C104.247 103.721 93.6318 108.706 82.7908 113.511C73.768 117.823 64.2979 121.136 54.5502 123.391C50.2679 124.267 44.3628 125.142 40.0805 123.862C38.5812 123.536 37.2379 122.712 36.2713 121.524C35.3046 120.337 34.7722 118.857 34.7615 117.328C34.8967 110.592 43.6416 106.483 48.848 103.856C57.4312 99.7556 66.3707 96.4411 75.556 93.9531C86.6047 90.8101 97.8054 88.2245 109.116 86.2063C133.995 81.7214 159.17 79.0572 184.439 78.2349C201.749 77.6511 278.019 76.1018 281.94 100.847C281.951 100.906 281.951 100.967 281.94 101.026C283.766 122.65 243.106 133.316 217.368 138.099C225.715 139.769 233.86 142.321 241.664 145.711C251.626 150.202 262.422 157.903 260.348 170.276C258.365 182.02 248.764 193.651 239.455 201.285C240.568 202.892 241.569 204.573 242.453 206.315C244.143 209.818 245.451 216.667 240.582 218.328C235.714 219.99 230.755 213.568 227.893 209.257H227.825Z" fill="#AA7639"></path></g><defs><clipPath id="clip0_4000_6699"><rect width="308" height="308" rx="154" fill="white"></rect></clipPath></defs></svg> 