<?xml version="1.0" encoding="UTF-8"?> <svg xmlns="http://www.w3.org/2000/svg" width="180" height="181" viewBox="0 0 180 181" fill="none"><circle cx="90" cy="90" r="90" fill="white"></circle><mask id="mask0_1829_40" style="mask-type:alpha" maskUnits="userSpaceOnUse" x="0" y="0" width="180" height="181"><path d="M90 180.159C139.706 180.159 180 139.865 180 90.1589C180 40.4533 139.706 0.158936 90 0.158936C40.2944 0.158936 0 40.4533 0 90.1589C0 139.865 40.2944 180.159 90 180.159Z" fill="#29B981"></path></mask><g mask="url(#mask0_1829_40)"><path d="M122.577 136.562C123.484 136.562 124.302 137.108 124.651 137.945L136.793 167.052C123.158 175.367 107.139 180.159 90 180.159C72.6279 180.159 56.4059 175.236 42.6514 166.711L54.6523 137.945C55.0015 137.108 55.8196 136.562 56.7266 136.562H122.577ZM16.874 142.633C23.7893 152.253 32.5549 160.453 42.6514 166.711L40.7061 171.377C40.3568 172.214 39.5386 172.758 38.6318 172.759H7.44336C5.83193 172.759 4.74352 171.112 5.375 169.63L16.874 142.633ZM173.718 169.651C174.33 171.131 173.243 172.758 171.642 172.759H140.672C139.765 172.759 138.947 172.214 138.598 171.377L136.793 167.052C146.939 160.864 155.764 152.726 162.747 143.157L173.718 169.651ZM103.908 1.22827C147.01 7.91456 180 45.1835 180 90.1589C180 109.973 173.596 128.29 162.747 143.157L104.175 1.69897C104.105 1.52927 104.014 1.37201 103.908 1.22827ZM77.3203 1.04468C77.1529 1.22818 77.014 1.44074 76.9131 1.67749L16.874 142.633C6.25508 127.86 2.0196e-06 109.74 0 90.1589C0 44.7571 33.6186 7.20685 77.3203 1.04468ZM87.9434 52.448C88.6892 50.5445 91.3821 50.5445 92.1279 52.448L113.147 106.09C113.725 107.564 112.638 109.157 111.055 109.157H69.0166C67.4335 109.157 66.3463 107.564 66.9238 106.09L87.9434 52.448ZM102.098 0.311279C102.823 0.311279 103.491 0.660518 103.908 1.22827C101.064 0.786997 98.1751 0.479555 95.249 0.311279H102.098ZM84.752 0.311279C82.2459 0.455374 79.7672 0.699649 77.3203 1.04468C77.7387 0.585955 78.3371 0.311337 78.9805 0.311279H84.752ZM90 0.158936C91.762 0.158936 93.5121 0.211389 95.249 0.311279H84.752C86.4886 0.211423 88.2383 0.158937 90 0.158936Z" fill="#29B981"></path></g></svg> 