<svg width="32" height="32" viewBox="0 0 32 32" fill="none" xmlns="http://www.w3.org/2000/svg">
<g clip-path="url(#clip0_2461_4561)">
<path d="M0 0H32V22L22 32H0V0Z" fill="#111111"/>
<mask id="mask0_2461_4561" style="mask-type:alpha" maskUnits="userSpaceOnUse" x="0" y="2" width="16" height="18">
<rect y="2.29297" width="15.2615" height="17.6462" fill="#C4C4C4"/>
</mask>
<g mask="url(#mask0_2461_4561)">
<path d="M4.6409 17.7469C5.13784 17.7469 5.54443 17.3465 5.54443 16.8572V12.9199H12.2758C12.7727 12.9199 13.1793 12.5195 13.1793 12.0301V11.1403C13.1793 10.651 12.7727 10.2506 12.2758 10.2506H5.52184V6.95839H13.7892C14.2861 6.95839 14.6927 6.58024 14.6927 6.06862V5.17884C14.6927 4.68946 14.2861 4.28906 13.7892 4.28906H2.83383C2.33689 4.28906 1.9303 4.66722 1.9303 5.1566V16.8349C1.9303 17.3243 2.3143 17.7247 2.83383 17.7247H4.6409V17.7469ZM32.6956 15.8117C31.0467 15.8117 30.2335 14.8774 30.2335 12.6085C30.2335 10.3395 31.0241 9.42752 32.6956 9.42752C34.3446 9.42752 35.1577 10.3395 35.1577 12.6085C35.1577 14.8774 34.3446 15.8117 32.6956 15.8117ZM32.6956 7.29206C29.0137 7.29206 26.9582 9.07161 26.9582 12.6085C26.9582 16.1453 29.0137 17.9471 32.6956 17.9471C36.3775 17.9471 38.4331 16.1453 38.4331 12.6085C38.4331 9.07161 36.3775 7.29206 32.6956 7.29206ZM46.8133 17.7469C47.1522 17.6802 47.4006 17.4578 47.4006 17.1686V16.1676C47.4006 15.8339 47.1522 15.5892 46.8133 15.5892H46.4519C46.0227 15.5892 45.6613 15.7005 45.1418 15.7005C44.1479 15.7005 43.4703 15.0109 43.4703 13.6985V10.2951H46.1131C46.4519 10.2951 46.7004 10.0504 46.7004 9.7167V8.60448C46.7004 8.27081 46.4519 8.02613 46.1131 8.02613H43.4703V4.88966C43.4703 4.556 43.2218 4.31131 42.883 4.31131H40.7597C40.4208 4.31131 40.1724 4.556 40.1724 4.88966V13.7207C40.1724 16.5902 41.5277 17.9471 44.2608 17.9471C45.1644 17.9471 46.226 17.8582 46.8133 17.7469ZM52.2345 9.93915C53.0251 9.69446 53.8157 9.56099 54.2901 9.56099C56.052 9.56099 56.6844 10.4953 56.6844 12.6307C56.6844 14.7439 56.052 15.6782 54.2223 15.6782C53.4317 15.6782 52.6637 15.5892 52.2119 15.478V9.93915H52.2345ZM48.9592 16.8794C49.9757 17.4578 52.2119 17.9249 54.0642 17.9249C58.0623 17.9249 60.0953 16.1231 60.0953 12.6085C60.0953 9.07161 58.0397 7.26982 54.9903 7.26982C53.8157 7.26982 53.0477 7.49226 52.2571 7.75919V4.86742C52.2571 4.53375 52.0086 4.28906 51.6698 4.28906H49.5465C49.2077 4.28906 48.9592 4.53375 48.9592 4.86742V16.8794ZM66.0812 15.8117C65.0647 15.8117 64.5452 15.3223 64.5452 14.6327C64.5452 14.0099 65.0647 13.4983 65.9908 13.4983H68.9047V14.9441C68.2271 15.389 67.2558 15.8117 66.0812 15.8117ZM66.9621 9.42752C68.2722 9.42752 68.9047 9.89466 68.9047 11.385H65.7424C63.1899 11.385 61.2473 12.475 61.2473 14.6327C61.2473 16.7904 63.1899 17.9249 65.7424 17.9249C67.2332 17.9249 68.3174 17.48 69.1984 16.8794V17.1686C69.1984 17.5022 69.4468 17.7469 69.7857 17.7469H71.6153C71.9541 17.7469 72.2026 17.5022 72.2026 17.1686V11.385C72.2026 8.44877 70.0116 7.29206 67.2106 7.29206C64.0482 7.29206 62.0379 7.98164 62.0379 9.98364C62.0379 10.3173 62.2863 10.562 62.6252 10.562H64.0482C64.5452 10.562 64.884 10.3618 65.1325 10.0726C65.4261 9.64997 66.1489 9.42752 66.9621 9.42752ZM77.2398 17.7469C77.5786 17.7469 77.8271 17.5022 77.8271 17.1686V4.88966C77.8271 4.556 77.5786 4.31131 77.2398 4.31131H75.1165C74.7777 4.31131 74.5292 4.556 74.5292 4.88966V17.1686C74.5292 17.5022 74.7777 17.7469 75.1165 17.7469H77.2398ZM82.8643 17.7469C83.2031 17.7469 83.4516 17.5022 83.4516 17.1686V4.88966C83.4516 4.556 83.2031 4.31131 82.8643 4.31131H80.741C80.4022 4.31131 80.1537 4.556 80.1537 4.88966V17.1686C80.1537 17.5022 80.4022 17.7469 80.741 17.7469H82.8643Z" fill="#CCFF00"/>
</g>
<mask id="mask1_2461_4561" style="mask-type:alpha" maskUnits="userSpaceOnUse" x="14" y="3" width="17" height="17">
<rect x="14.7846" y="3.00781" width="16.2154" height="16.4539" fill="#C4C4C4"/>
</mask>
<g mask="url(#mask1_2461_4561)">
<path d="M16.0898 8.11522C16.0898 13.0757 26.3901 11.83 26.3901 14.0545C26.3901 14.7218 25.8932 15.1222 24.7186 15.1222H21.3981C20.4268 15.1222 19.6814 14.8108 19.3651 14.1657C19.0489 13.5429 18.6197 13.2759 18.0776 13.2759H16.9482C16.6997 13.2759 15.9769 13.4539 15.9769 14.3214C15.9769 16.3679 18.5971 17.7693 21.0592 17.7693H23.9505C28.6263 17.7693 29.9816 16.1677 29.9816 13.8543C29.9816 8.84928 19.6814 10.1395 19.6814 7.91502C19.6814 7.24768 20.1783 6.84728 21.3529 6.84728H24.2216C25.1929 6.84728 25.9383 7.1587 26.2546 7.80379C26.5708 8.42664 27 8.69357 27.5421 8.69357H28.6715C28.92 8.69357 29.6428 8.51561 29.6428 7.64808C29.6428 5.60159 27.0226 4.2002 24.5604 4.2002H22.1435C17.4451 4.2002 16.0898 5.80179 16.0898 8.11522ZM38.3393 17.7026C38.6781 17.6358 38.9266 17.4134 38.9266 17.1242V16.1232C38.9266 15.7895 38.6781 15.5449 38.3393 15.5449H37.9779C37.5487 15.5449 37.1873 15.6561 36.6678 15.6561C35.6739 15.6561 34.9962 14.9665 34.9962 13.6541V10.2284H37.6617C38.0005 10.2284 38.249 9.98375 38.249 9.65008V8.53786C38.249 8.20419 38.0005 7.9595 37.6617 7.9595H35.0188V4.84528C35.0188 4.51162 34.7704 4.26693 34.4315 4.26693H32.3082C31.9694 4.26693 31.7209 4.51162 31.7209 4.84528V13.6763C31.7209 16.5459 33.0762 17.9028 35.8094 17.9028C36.6904 17.8805 37.752 17.8138 38.3393 17.7026ZM45.4321 15.7673C43.7831 15.7673 42.9699 14.833 42.9699 12.5641C42.9699 10.2952 43.7605 9.38315 45.4321 9.38315C47.081 9.38315 47.8942 10.2952 47.8942 12.5641C47.8942 14.8108 47.1036 15.7673 45.4321 15.7673ZM45.4321 7.24768C41.7502 7.24768 39.6946 9.02724 39.6946 12.5641C39.6946 16.101 41.7502 17.9028 45.4321 17.9028C49.114 17.9028 51.1695 16.101 51.1695 12.5641C51.1921 9.02724 49.114 7.24768 45.4321 7.24768ZM61.0406 7.82604C61.0406 7.49237 60.7921 7.24768 60.4533 7.24768C58.3074 7.24768 57.3135 7.82604 56.2293 8.60459V8.00399C56.2293 7.67033 55.9808 7.42564 55.642 7.42564H53.5187C53.1799 7.42564 52.9314 7.67033 52.9314 8.00399V17.102C52.9314 17.4356 53.1799 17.6803 53.5187 17.6803H55.642C55.9808 17.6803 56.2293 17.4356 56.2293 17.102V11.1405C56.9295 10.3174 57.6975 9.7613 58.6914 9.7613C59.1883 9.7613 59.7079 9.82804 60.1596 9.82804H60.4759C60.8147 9.82804 61.0632 9.58335 61.0632 9.24968V7.82604H61.0406ZM72.1315 13.5429C72.4703 13.5429 72.7188 13.2982 72.7188 12.9645V12.4306C72.7188 9.04948 70.6406 7.22544 67.162 7.22544C63.706 7.22544 61.6053 9.09397 61.6053 12.5641C61.6053 16.0342 63.6834 17.8805 67.162 17.8805C70.2792 17.8805 72.3573 17.1909 72.3573 15.1889C72.3573 14.8553 72.1089 14.6106 71.7701 14.6106H70.347C69.8501 14.6106 69.5112 14.8108 69.2628 15.1C68.9239 15.5004 68.2011 15.7228 67.3879 15.7228C65.7841 15.7228 65.0839 15.0555 64.9484 13.5206H72.1315V13.5429ZM67.162 9.38315C68.6077 9.38315 69.3079 10.1395 69.3531 11.5853H64.9258C65.0161 10.1395 65.7616 9.38315 67.162 9.38315ZM74.3451 16.5236C74.3451 17.3244 74.8195 17.7915 75.6327 17.7915H76.2877C77.1009 17.7915 77.5753 17.3244 77.5753 16.5236V15.923C77.5753 15.1222 77.1009 14.6551 76.2877 14.6551H75.6327C74.8195 14.6551 74.3451 15.1222 74.3451 15.923V16.5236ZM87.853 7.82604C87.853 7.49237 87.6045 7.24768 87.2657 7.24768C85.1198 7.24768 84.1259 7.82604 83.0416 8.60459V8.00399C83.0416 7.67033 82.7932 7.42564 82.4543 7.42564H80.331C79.9922 7.42564 79.7437 7.67033 79.7437 8.00399V17.102C79.7437 17.4356 79.9922 17.6803 80.331 17.6803H82.4543C82.7932 17.6803 83.0416 17.4356 83.0416 17.102V11.1405C83.7419 10.3174 84.5099 9.7613 85.5038 9.7613C86.0007 9.7613 86.5202 9.82804 86.972 9.82804H87.2882C87.6271 9.82804 87.8755 9.58335 87.8755 9.24968V7.82604H87.853ZM92.5061 8.00399C92.5061 7.67033 92.2577 7.42564 91.9189 7.42564H89.7955C89.4567 7.42564 89.2083 7.67033 89.2083 8.00399V13.3649C89.2083 16.5459 90.9927 17.8583 93.5226 17.8583C94.9909 17.8583 95.9622 17.2354 96.8431 16.5014V17.102C96.8431 17.4356 97.0916 17.6803 97.4304 17.6803H99.5537C99.8925 17.6803 100.141 17.4356 100.141 17.102V8.00399C100.141 7.67033 99.8925 7.42564 99.5537 7.42564H97.4304C97.0916 7.42564 96.8431 7.67033 96.8431 8.00399V14.2769C96.1429 14.9665 95.2393 15.6116 94.2906 15.6116C93.229 15.6116 92.4836 14.9665 92.4836 13.3649V8.00399H92.5061Z" fill="white"/>
</g>
</g>
<defs>
<clipPath id="clip0_2461_4561">
<rect width="32" height="32" fill="white"/>
</clipPath>
</defs>
</svg>
