<svg width="24" height="24" viewBox="0 0 24 24" fill="none" xmlns="http://www.w3.org/2000/svg">
<rect width="24" height="24" fill="white"/>
<path d="M7.54805 12.4986C7.72736 12.1992 7.86811 11.9651 8.01078 11.7291C8.67211 10.6218 9.34115 9.51835 9.99091 8.40531C10.122 8.18078 10.2608 8.0714 10.5327 8.08292C11.007 8.10402 11.4852 8.08867 12 8.08867V15.7667H10.014C9.96391 15.3407 9.99669 14.9147 9.99091 14.4925C9.98512 14.0626 9.99862 13.6328 9.98705 13.2048C9.97548 12.7845 10.0353 12.3604 9.93114 11.8672C9.80967 12.0572 9.72483 12.18 9.64771 12.3086C9.15798 13.1242 8.66247 13.9379 8.18238 14.7592C8.06863 14.9531 7.9433 15.0548 7.71001 15.0356C7.48057 15.0164 7.25113 15.0317 7.0159 15.0317C6.3835 14.0089 5.76459 13.0052 5.14375 12.0016C5.1129 12.0054 5.08205 12.0093 5.0512 12.015C5.02036 13.2509 5.05699 14.4886 5.03 15.759H3.0865C2.9901 15.4366 2.9631 8.75074 3.06336 8.09251C3.60129 8.09251 4.15272 8.07332 4.69836 8.10786C4.81984 8.11553 4.95866 8.29785 5.03964 8.43026C5.77616 9.61622 6.50304 10.8099 7.23377 12.0016C7.32054 12.1436 7.41308 12.2818 7.5519 12.4986H7.54805Z" fill="#181818"/>
<path d="M20.7763 8.00615C19.8913 9.28999 19.0738 10.476 18.2274 11.7041C19.1298 13.0206 20.036 14.3409 21 15.7475C20.4466 15.7475 19.9916 15.7533 19.5366 15.7475C19.1548 15.7418 18.7152 15.8301 18.4067 15.6708C18.1156 15.5211 17.9614 15.1047 17.7512 14.8034C17.462 14.3889 17.1766 13.9705 16.8604 13.5157C16.766 13.627 16.683 13.7076 16.6175 13.8016C16.2261 14.3716 15.8366 14.9415 15.4529 15.5173C15.3508 15.6689 15.2428 15.7571 15.0442 15.7533C14.4272 15.7418 13.8102 15.7495 13.1932 15.7495C13.0853 15.7495 12.9792 15.7495 12.7903 15.7495C12.9773 15.3484 13.2376 15.0548 13.4516 14.7362C13.6733 14.4042 13.9086 14.0818 14.138 13.7537C14.3578 13.4389 14.5795 13.1242 14.7993 12.8095C15.0268 12.4833 15.2543 12.1589 15.5011 11.8039C14.6586 10.5623 13.8237 9.33413 12.96 8.06181C13.0853 8.03686 13.1643 8.00808 13.2453 8.00808C13.8777 8.00424 14.5101 8.01767 15.1406 8.0004C15.3951 7.99272 15.5301 8.09635 15.6573 8.29785C15.9407 8.75458 16.2454 9.19596 16.5442 9.64309C16.6271 9.76783 16.7178 9.88873 16.8411 10.0634C17.059 9.73712 17.248 9.44735 17.4427 9.16142C17.7011 8.78337 17.9652 8.40915 18.2274 8.0311C18.6882 8.02151 19.151 8.00999 19.6118 8.00615C19.9627 8.00232 20.3136 8.00615 20.7725 8.00615H20.7763Z" fill="#181818"/>
</svg>
