<svg xmlns="http://www.w3.org/2000/svg" version="1.1" xmlns:xlink="http://www.w3.org/1999/xlink" xmlns:svgjs="http://svgjs.dev/svgjs" width="128" height="128"><svg width="128" height="128" viewBox="0 0 128 128" fill="none" xmlns="http://www.w3.org/2000/svg">
<path fill-rule="evenodd" clip-rule="evenodd" d="M51.6355 14.0568C54.7185 13.7293 60.3338 13.5627 64 13.5627C67.658 13.5627 74.4007 13.7289 77.4897 14.0567C88.0862 15.6114 95.1833 20.7166 99.5449 28.0709C103.873 35.368 105.496 44.788 105.496 54.9429V69.708H108.772C112.491 69.708 115.505 72.7224 115.505 76.4408V104.46C115.505 109.55 111.111 112.437 107.528 112.437H93.1559C90.3611 112.437 88.327 111.303 87.0239 109.576C85.754 107.893 85.243 105.739 85.243 103.736V100.387L42.9189 100.384V103.736C42.9189 105.758 42.3582 107.914 41.0451 109.592C39.7027 111.307 37.6355 112.437 34.8442 112.437H20.4721C16.8892 112.437 12.4951 109.55 12.4951 104.46V76.4408C12.4951 72.7224 15.5095 69.708 19.2279 69.708H22.62V54.9429C22.62 44.7638 24.5081 35.3402 29.0977 28.0458C33.7155 20.7065 41.0566 15.6102 51.6355 14.0568ZM56.6125 47.7255C54.9575 49.1356 53.9857 51.3981 53.9857 54.9429V70.8928C53.9857 71.5125 54.4881 72.0149 55.1078 72.0149H74.13C74.7497 72.0149 75.2521 71.5125 75.2521 70.8928V54.9429C75.2521 51.3983 74.2798 49.1355 72.6243 47.7251C70.9312 46.2828 68.3098 45.5447 64.6176 45.5449C60.9257 45.5452 58.305 46.2834 56.6125 47.7255Z" fill="#FF3E80"></path>
</svg><style>@media (prefers-color-scheme: light) { :root { filter: none; } }
@media (prefers-color-scheme: dark) { :root { filter: none; } }
</style></svg>