<?xml version="1.0" encoding="utf-8"?>
<!-- Generator: Adobe Illustrator 26.3.1, SVG Export Plug-In . SVG Version: 6.00 Build 0)  -->
<svg version="1.1" id="Слой_1" xmlns="http://www.w3.org/2000/svg" xmlns:xlink="http://www.w3.org/1999/xlink" x="0px" y="0px"
	 viewBox="0 0 713.91 400.85" style="enable-background:new 0 0 713.91 400.85;" xml:space="preserve">
<style type="text/css">
	.st0{fill:#DB2F3F;}
	.st1{fill:#C11734;}
	.st2{fill:#FFFFFF;}
	.st3{fill:none;}
	.st4{fill:#1D1D1B;}
</style>
<g>
	<path class="st0" d="M245.43,72.65l-70.93,58.05h-0.01l-89.37,73.15H75.6c-39.02,0-70.64-31.62-70.64-70.63S36.58,62.59,75.6,62.59
		c10.38,0,20.25,2.24,29.12,6.26c3.85-35.36,33.82-62.88,70.2-62.88C212.59,5.97,243.38,35.47,245.43,72.65z"/>
</g>
<g>
	<path class="st0" d="M352.4,133.22c0,39-31.62,70.63-70.63,70.63h-25.4l-3.5-42.04l-7.44-89.16c10.61-6.39,23.05-10.06,36.34-10.06
		C320.78,62.59,352.4,94.21,352.4,133.22z"/>
</g>
<g>
	<polygon class="st1" points="256.37,203.85 85.12,203.85 174.49,130.7 174.51,130.7 220.88,131.77 252.87,161.81 	"/>
</g>
<g>
	<polygon class="st2" points="252.87,161.81 220.88,131.77 174.51,130.7 245.43,72.65 	"/>
</g>
<g>
	<path class="st0" d="M42.05,262.2h28.89l43.42,94.12l43.42-94.12h28.88L124.11,396.1h-19.32L42.05,262.2z"/>
	<path class="st0" d="M202.54,396.1V262.2h56.43c10.33,0,19.54,1.53,27.64,4.59c8.1,3.06,14.95,7.46,20.56,13.2
		c5.61,5.74,9.91,12.75,12.91,21.04c2.99,8.29,4.49,17.66,4.49,28.12s-1.5,19.83-4.49,28.12c-3,8.29-7.3,15.31-12.91,21.04
		c-5.61,5.74-12.47,10.14-20.56,13.2c-8.1,3.06-17.31,4.59-27.64,4.59H202.54z M258.78,371.23c26.52,0,39.79-14.03,39.79-42.08
		s-13.14-42.09-39.41-42.09h-29.84v84.17H258.78z"/>
	<path class="st0" d="M372.03,355.36c0.38,1.28,1.18,2.78,2.39,4.5c1.21,1.72,3.03,3.41,5.45,5.07c2.42,1.66,5.52,3.06,9.28,4.21
		c3.76,1.15,8.51,1.72,14.25,1.72c2.29,0,5.04-0.1,8.22-0.29c3.19-0.19,6.22-0.7,9.09-1.53c2.87-0.83,5.39-2.1,7.55-3.83
		c2.17-1.72,3.32-4.17,3.44-7.37c0.13-3.06-1.02-5.61-3.44-7.65c-1.53-1.4-4.37-2.87-8.51-4.4c-4.15-1.53-10.55-2.93-19.23-4.21
		c-2.29-0.38-5.23-0.86-8.8-1.43c-3.57-0.57-7.36-1.46-11.38-2.68c-4.02-1.21-8.03-2.84-12.05-4.88c-4.02-2.04-7.59-4.59-10.71-7.65
		c-3.13-3.06-5.58-6.72-7.37-11c-1.79-4.27-2.49-9.34-2.1-15.21c0.38-5.74,1.94-10.93,4.69-15.59c2.74-4.65,6.41-8.61,11-11.86
		c4.59-3.25,10.07-5.74,16.45-7.46c6.38-1.72,13.45-2.58,21.23-2.58c8.03,0,15.24,0.99,21.61,2.96c6.38,1.98,11.83,4.78,16.36,8.42
		c4.53,3.63,8.07,8,10.62,13.11c2.55,5.1,4.02,10.78,4.4,17.02h-27.74c-0.38-3.32-1.43-5.96-3.16-7.94
		c-1.72-1.97-3.83-3.5-6.31-4.59c-2.49-1.08-5.2-1.85-8.13-2.3c-2.94-0.44-5.74-0.67-8.42-0.67c-2.17,0-4.62,0.13-7.36,0.38
		c-2.75,0.26-5.33,0.8-7.75,1.63c-2.42,0.83-4.47,2.04-6.12,3.63c-1.66,1.59-2.62,3.67-2.87,6.22c0,0.89,0.06,2.04,0.19,3.44
		c0.12,1.41,1.02,2.87,2.68,4.4c1.65,1.53,4.4,3,8.22,4.4c3.83,1.41,9.44,2.62,16.83,3.63c19.39,2.55,33.48,7.24,42.28,14.06
		c8.8,6.82,13.07,16.42,12.81,28.79c-0.13,4.85-1.34,9.63-3.63,14.35c-2.29,4.72-5.74,8.93-10.33,12.63
		c-4.59,3.7-10.39,6.66-17.41,8.89c-7.01,2.23-15.3,3.35-24.87,3.35c-6.63,0-13.42-0.73-20.38-2.2c-6.95-1.47-13.33-3.86-19.13-7.17
		c-5.81-3.32-10.68-7.62-14.64-12.91c-3.95-5.29-6.19-11.76-6.69-19.42H372.03z"/>
	<path class="st4" d="M507.66,254.16v83.02l46.3-45.34h34.24l-43.04,41.7l41.7,62.55h-29.46l-30.03-45.34l-19.7,18.94v26.4h-24.1
		V254.16H507.66z"/>
	<path class="st4" d="M601.97,344.07c0-8.16,1.21-15.49,3.63-22c2.42-6.51,5.86-12.05,10.33-16.64c4.46-4.59,9.88-8.1,16.26-10.52
		c6.38-2.42,13.58-3.63,21.62-3.63c11.86,0,22,2.68,30.41,8.04l1.34-7.46h20.47V396.1h-20.47l-1.34-7.27
		c-8.67,5.36-18.81,8.04-30.41,8.04c-8.03,0-15.24-1.25-21.62-3.73c-6.38-2.49-11.8-6-16.26-10.52
		c-4.47-4.53-7.91-10.04-10.33-16.55C603.18,359.57,601.97,352.24,601.97,344.07z M654.76,373.15c18.75,0,28.12-9.69,28.12-29.08
		c0-19.51-9.37-29.27-28.12-29.27c-18.75,0-28.12,9.75-28.12,29.27C626.64,363.46,636.02,373.15,654.76,373.15z"/>
</g>
</svg>
