<?xml version="1.0" encoding="UTF-8"?>
<svg xmlns="http://www.w3.org/2000/svg"
     xml:space="preserve"
     version="1.1"
     style="shape-rendering:geometricPrecision; text-rendering:geometricPrecision; image-rendering:optimizeQuality; fill-rule:evenodd; clip-rule:evenodd"
     viewBox="0 0 1000 1000"
        xmlns:xlink="http://www.w3.org/1999/xlink">
<defs>
<style type="text/css">
 .fil1 {fill:#FEFEFE;fill-rule:nonzero}
</style>
</defs>

<g id="Tele2_Logo_White" transform="translate(0, 200) scale(0.18)">
<path class="fil1" d="M2715.53 1989.71l297.86 0 0 -1319.04 -297.86 41.77 0 1277.27zm-2114.48 -761.48l588.88 -64.65 0 -236.45 -588.88 82.95 0 218.15zm187.64 761.48l215.73 0 0 -770.25 -215.73 22.23 0 748.03zm750.36 -864.5l328.02 -35.97 0 -257.18 -328.02 46.11 0 247.05zm-269.65 864.5l227.28 0 0 -1105.45 -227.28 31.73 0 1073.71zm269.65 0l328.02 0 0 -257.71 -328.02 9.94 0 247.78zm2387.43 -893.84c-14.42,-199.61 46.78,-246.92 108.4,-272.92l0 -331.89c-294.56,62.87 -439.23,279.35 -422.46,632.82l314.07 -28.01zm299.37 -221.24c34.86,71.78 -1.04,179.89 -85.93,280.13 -130.94,154.5 -479.27,470.65 -479.27,470.65l499.98 -16.42c305.41,-298.39 415.16,-479.57 434.79,-705.51 10.28,-119.51 -33.1,-234.91 -119.3,-316.02 -94.11,-88.98 -232.02,-125.46 -383.06,-103.99l0 326.04c61.09,-3.34 110.62,19.44 132.78,65.13zm-2271.88 1115.09l258.53 0 0 -1206.13 -258.53 36.5 0 1169.63zm1399.5 -836.52l-284.58 24.25 0 299.39 284.58 -15.48 0 -308.17zm1259.51 836.52l0 -341.02 -1013.9 30.68 0.36 310.34 1013.54 0zm-2858.67 -699.25l-215.26 18.6 0 251.39 215.26 -11.63 0 -258.36zm1314.57 -334.11l434.27 -47.53 0 -306.97 -434.27 61.01 0 293.49zm0 1033.37l434.27 0 0 -307.41 -434.27 13.17 0 294.25zm-808.09 0l375.8 0 0 -281.13 -375.8 11.47 0 269.66z"/>
</g>
        </svg>
