<svg xmlns="http://www.w3.org/2000/svg" fill="none" viewBox="0 0 512 512"><rect width="512" height="512" fill="#FFCD17" rx="102"/><path fill="#212121" fill-rule="evenodd" d="m339.26 107.623-28.5 14.475c-3.098 1.206-6.196.603-8.055-2.412l-32.837-62.122c-1.239-3.015-.619-6.03 2.479-7.84l28.5-14.475c3.097-1.206 6.195-.603 8.054 2.413l32.837 62.12c1.239 3.016 0 6.635-2.478 7.841Zm88.596 209.884c-3.718 86.849-76.826 157.414-166.044 159.827-6.815 0-13.63 0-20.446-.603-1.239 0-1.858-1.81-1.239-2.413l24.163-41.615c3.718-6.031 6.196-12.062 6.816-19.3l4.956-36.187c.62-7.237 4.337-14.475 11.152-16.887l11.772-3.016c6.815-2.412 12.391 0 15.489 6.031 2.478 4.221 8.671 16.278 11.15 21.106l.002.002v.001c1.859 3.016 1.239 6.635-.619 8.444a3121.334 3121.334 0 0 1-8.273 9.161l-.001.002c-4.585 5.064-8.61 9.51-13.411 14.962-4.957 5.428-9.294 13.872-.62 21.109 8.055 7.237 16.109-.603 21.066-5.428 6.195-6.031 16.108-17.49 22.304-24.728 5.576-6.031 8.674-10.253 9.293-18.093 0-3.016 0-6.032-1.239-9.65-1.157-3.381-5.695-14.395-11.528-28.553v-.001c-6.654-16.152-14.995-36.397-21.928-54.074-11.152-28.949-16.728-58.502-13.011-89.261l6.196-55.487c0-.603.619-1.206 1.858-1.206 67.533 25.331 115.24 90.467 112.142 165.857ZM235.794 423.056c3.097-6.031 5.576-15.078 6.195-21.712 0 0 3.718-42.218 4.337-56.09 0-9.65-8.674-31.362-13.011-41.615-7.485-16.517-20.196-21.687-39.104-29.377h-.001c-4.566-1.857-9.494-3.861-14.797-6.207-14.25-6.031-48.946-18.697-48.946-18.697-6.815-2.412-9.293-9.047-6.815-15.681 2.478-6.634 11.152-9.047 17.348-6.634 10.448 3.608 20.345 7.396 32.485 12.041l.002.001c10.177 3.894 21.93 8.391 36.904 13.892 20.634 7.68 30.568 2.629 44.359-4.383l.87-.442c1.045-.573 2.098-1.125 3.147-1.676h.001c8.897-4.67 17.559-9.216 19.776-24.861.589-4.879 2.441-18.632 4.421-33.335l.001-.007c2.181-16.196 4.516-33.543 5.491-41.445 0-.603-.62-1.206-1.239-1.206-9.914-1.81-19.827-2.413-30.359-2.413C161.446 142.606 84 217.996 84 310.273c0 76.596 53.283 141.733 125.772 161.033 1.239 0 2.478 0 2.478-1.206l23.544-47.044Zm-41.511-217.725c-1.858-17.491 11.772-33.172 29.739-34.981 17.968-1.81 34.077 11.459 35.935 28.95 1.859 17.49-11.771 33.171-29.739 34.98-17.967 1.207-34.076-11.459-35.935-28.949Z" clip-rule="evenodd"/></svg>