<?xml version="1.0" encoding="utf-8"?>
<!-- Generator: Adobe Illustrator 26.0.3, SVG Export Plug-In . SVG Version: 6.00 Build 0)  -->
<svg version="1.1" id="Слой_1" xmlns="http://www.w3.org/2000/svg" xmlns:xlink="http://www.w3.org/1999/xlink" x="0px" y="0px"
	 viewBox="0 0 120 120" style="enable-background:new 0 0 120 120;" xml:space="preserve">
<style type="text/css">
	.st0{fill-rule:evenodd;clip-rule:evenodd;fill:#868686;}
</style>
<path class="st0" d="M73.88,60.25c0,7.54-6.12,13.66-13.66,13.66c-7.54,0-13.66-6.11-13.66-13.66c0-7.54,6.12-13.66,13.66-13.66
	C67.76,46.59,73.88,52.71,73.88,60.25L73.88,60.25z"/>
<path class="st0" d="M0,60.92C0.34,91.31,23.03,116.2,52.21,120c-0.82-0.55-1.6-1.2-2.35-1.94c-2.93-2.93-4.42-6.51-4.47-10.74
	c-0.04-4.06,1.35-7.55,4.19-10.45c1.66-1.7,3.52-2.91,5.6-3.63c-15.9-2.32-28.19-15.98-28.38-32.61
	c-0.2-18.41,14.49-33.5,32.82-33.7c15.14-0.17,28.02,9.86,32.17,23.73l28.02,4.81C117.35,24.14,91.08-0.34,59.33,0.01
	C26.19,0.38-0.37,27.65,0,60.92L0,60.92z M64.92,93.22c2.01,0.7,3.84,1.87,5.49,3.5c2.93,2.9,4.42,6.43,4.47,10.61
	c0.04,4.11-1.36,7.64-4.2,10.58c-0.74,0.77-1.53,1.44-2.35,2.01c29.47-4.11,52.01-29.68,51.66-60.38L92.32,67.9
	C89.25,81.04,78.43,91.2,64.92,93.22L64.92,93.22L64.92,93.22z"/>
</svg>
