<svg xmlns="http://www.w3.org/2000/svg" width="32" height="32" fill="none" viewBox="0 0 32 32">
  <g clip-path="url(#a)">
    <path fill="#7D71FF" d="M22.4 0H9.6C6.24 0 4.56 0 3.276.654A6 6 0 0 0 .654 3.276C0 4.56 0 6.24 0 9.6v12.8c0 3.36 0 5.04.654 6.324a6 6 0 0 0 2.622 2.622C4.56 32 6.24 32 9.6 32h12.8c3.36 0 5.04 0 6.324-.654a6 6 0 0 0 2.622-2.622C32 27.44 32 25.76 32 22.4V9.6c0-3.36 0-5.04-.654-6.324A6 6 0 0 0 28.724.654C27.44 0 25.76 0 22.4 0Z"/>
    <path fill="#0D0B68" d="M13 11H7a2 2 0 0 0-2 2v6a2 2 0 0 0 2 2h6a2 2 0 0 0 2-2v-6a2 2 0 0 0-2-2Z"/>
    <path fill="#EDEFFF" d="M18.064 12.823c.218-.655.328-.983.53-1.226.18-.214.41-.38.669-.481.294-.116.64-.116 1.33-.116h4.37c1.25 0 1.874 0 2.284.261.359.23.617.587.72 1 .119.471-.079 1.064-.474 2.249l-1.555 4.667c-.219.655-.328.983-.53 1.226-.18.214-.41.38-.67.481-.293.116-.639.116-1.33.116h-4.37c-1.25 0-1.874 0-2.284-.262a1.667 1.667 0 0 1-.72-.999c-.118-.471.08-1.064.474-2.249l1.556-4.667Z"/>
  </g>
  <defs>
    <clipPath id="a">
      <path fill="#fff" d="M0 0h32v32H0z"/>
    </clipPath>
  </defs>
</svg>
