<svg width="180" height="180" viewBox="0 0 180 180" fill="none" xmlns="http://www.w3.org/2000/svg">
<rect width="180" height="180" rx="30" fill="#009035"/>
<path fill-rule="evenodd" clip-rule="evenodd" d="M154 94.7172V66H149.115L138.983 82.5803C138.062 84.1289 137.26 85.9536 137.26 85.9536H137.18C137.18 85.9536 137.26 83.9316 137.26 82.1069V66H132.256V94.7172H136.901L147.273 77.698C148.234 76.11 148.996 74.3247 148.996 74.3247H149.076C149.076 74.3247 148.996 76.2678 148.996 78.0531V94.7123H154V94.7172ZM129.049 94.7172L124.643 84.8391C123.398 82.0625 121.521 80.08 118.837 79.0443L128.725 66H122.203L113.111 78.9309H113.031V66H107.385V94.7172H113.031V81.3129C115.794 81.3129 117.876 83.1376 118.882 85.5196L122.726 94.7222H129.049V94.7172ZM97.446 86.1903C97.446 89.2036 95.4842 90.9494 91.8394 90.9494C90.5996 90.9494 89.3598 90.7078 88.6378 90.4711V81.7863C89.3199 81.6285 90.4801 81.4658 91.5207 81.4658C95.4045 81.4707 97.446 83.256 97.446 86.1903ZM103.058 86.3087C103.058 80.874 99.2535 77.3034 92.0834 77.3034C90.7589 77.3034 89.3996 77.4612 88.6378 77.6634V70.6802H99.9705V66H83.2303V93.6471C85.2718 94.52 88.6378 95.1956 91.9241 95.1956C99.4526 95.1956 103.058 91.6251 103.058 86.3087ZM79.3067 66H73.3366C72.6943 71.9082 70.9366 77.264 68.7707 81.9047H68.691C66.1317 77.1851 64.0852 71.8687 63.3234 66H57.3583C58.1998 73.3384 61.6056 80.44 65.8877 86.5898L61.1624 94.7222H67.5309L72.2163 86.2347C75.5026 80.2822 78.5847 72.9389 79.3067 66ZM46.9866 90.3132H34.1701C37.4962 86.7427 39.0149 79.5227 39.6572 73.7723L40.0157 70.5963H44.9003L46.9866 90.3132ZM54.5152 90.91L52.4737 90.0371L49.7899 66H35.2904L34.4091 73.22C33.6473 79.6065 32.0041 87.1027 27 90.91L27.3187 100.507H31.2025L31.3618 94.7172H50.1833L50.3426 100.507H54.2264L54.5152 90.91Z" fill="white"/>
<path fill-rule="evenodd" clip-rule="evenodd" d="M31.3098 113.741V107.513H27V113.741H28.2042V108.51H30.1026V113.741H31.3098ZM36.628 109.405C36.628 108.19 35.7797 107.408 34.2432 107.408C33.5432 107.408 32.9263 107.537 32.4547 107.743V113.738H33.6352V111.321C33.7716 111.347 34.003 111.362 34.2077 111.362C35.8064 111.365 36.628 110.53 36.628 109.405ZM35.4475 109.396C35.4475 110.049 34.9937 110.446 34.1483 110.446C33.9526 110.446 33.7568 110.431 33.6352 110.404V108.435C33.7805 108.381 34.0208 108.339 34.2581 108.339C35.0382 108.339 35.4475 108.683 35.4475 109.396ZM42.1005 110.628C42.1005 108.811 41.3293 107.408 39.7068 107.408C38.0814 107.408 37.3132 108.811 37.3132 110.625C37.3132 112.44 38.0814 113.842 39.7068 113.842C41.3293 113.845 42.1005 112.443 42.1005 110.628ZM40.8933 110.628C40.8933 111.908 40.4899 112.771 39.7039 112.771C38.9178 112.771 38.5174 111.911 38.5174 110.628C38.5174 109.345 38.9178 108.486 39.7039 108.486C40.4928 108.486 40.8933 109.345 40.8933 110.628ZM48.6319 112.914L48.1958 112.723L47.6234 107.513H44.5268L44.3399 109.08C44.1768 110.464 43.8268 112.09 42.759 112.917L42.8272 115H43.6577L43.6903 113.744H47.7094L47.742 115H48.5725L48.6319 112.914ZM47.0272 112.786H44.2895C44.9984 112.013 45.3246 110.446 45.4611 109.199L45.5382 108.51H46.5823L47.0272 112.786ZM53.9264 107.513H52.6509C52.5145 108.796 52.1378 109.957 51.678 110.963H51.6603C51.1145 109.939 50.6785 108.787 50.5153 107.513H49.2429C49.4238 109.103 50.1505 110.643 51.0641 111.977L50.0556 113.741H51.4141L52.4166 111.9C53.1136 110.61 53.7721 109.017 53.9264 107.513ZM59.3899 113.741L58.4497 111.598C58.1857 110.995 57.7823 110.566 57.2098 110.342L59.3217 107.513H57.9276L55.9878 110.318H55.97V107.513H54.7628V113.741H55.97V110.834C56.5603 110.834 57.0052 111.228 57.2187 111.747L58.0404 113.744H59.3899V113.741ZM63.5781 108.527V107.513H59.7637V108.527H61.0717V113.741H62.276V108.527H63.5781ZM70.4357 107.513H69.2315V113.741H70.4357V107.513ZM68.5819 111.84C68.5819 110.697 67.7692 109.861 66.2061 109.861C65.9836 109.861 65.7285 109.894 65.5921 109.93V107.513H64.4205V113.508C64.8921 113.714 65.4972 113.842 66.2001 113.842C67.7366 113.845 68.5819 113.051 68.5819 111.84ZM67.3925 111.84C67.3925 112.553 66.9832 112.914 66.2031 112.914C65.9628 112.914 65.7345 112.872 65.5891 112.819V110.849C65.7078 110.816 65.948 110.78 66.1467 110.78C66.9565 110.78 67.3925 111.168 67.3925 111.84ZM78.3197 110.628C78.3197 108.811 77.5514 107.411 75.926 107.411C74.3006 107.411 73.5324 108.814 73.5324 110.628C73.5324 112.443 74.3006 113.845 75.926 113.845C77.5514 113.845 78.3197 112.443 78.3197 110.628ZM77.1154 110.628C77.1154 111.908 76.712 112.771 75.926 112.771C75.14 112.771 74.7396 111.911 74.7396 110.628C74.7396 109.345 75.143 108.486 75.926 108.486C76.712 108.486 77.1154 109.345 77.1154 110.628ZM82.7926 108.527V107.513H78.9781V108.527H80.2862V113.741H81.4934V108.527H82.7926ZM89.8638 113.741V107.513H85.554V113.741H86.7583V108.51H88.6566V113.741H89.8638ZM95.182 109.405C95.182 108.19 94.3337 107.408 92.7973 107.408C92.0943 107.408 91.4803 107.537 91.0087 107.743V113.738H92.1892V111.321C92.3256 111.344 92.557 111.362 92.7617 111.362C94.3604 111.365 95.182 110.53 95.182 109.405ZM94.0015 109.396C94.0015 110.049 93.5477 110.446 92.7023 110.446C92.5066 110.446 92.3078 110.431 92.1892 110.404V108.435C92.3345 108.381 92.5748 108.339 92.8121 108.339C93.5922 108.337 94.0015 108.683 94.0015 109.396ZM100.654 110.625C100.654 108.811 99.8833 107.408 98.2608 107.408C96.6354 107.408 95.8672 108.811 95.8672 110.625C95.8672 112.443 96.6354 113.842 98.2608 113.842C99.8833 113.842 100.654 112.443 100.654 110.625ZM99.4473 110.625C99.4473 111.908 99.0439 112.768 98.2579 112.768C97.4718 112.768 97.0714 111.908 97.0714 110.625C97.0714 109.345 97.4718 108.483 98.2579 108.483C99.0469 108.486 99.4473 109.345 99.4473 110.625ZM106.263 113.741V107.513H105.219L103.057 111.109C102.861 111.443 102.689 111.84 102.689 111.84H102.671C102.671 111.84 102.689 111.401 102.689 111.004V107.513H101.621V113.741H102.612L104.825 110.049C105.03 109.706 105.193 109.318 105.193 109.318H105.21C105.21 109.318 105.193 109.739 105.193 110.127V113.741H106.263ZM111.273 111.95C111.273 111.073 110.615 110.607 109.983 110.401V110.387C110.546 110.163 111.06 109.647 111.06 109.017C111.06 108.044 110.366 107.408 108.983 107.408C108.334 107.408 107.717 107.537 107.171 107.755L107.521 108.683C107.907 108.519 108.384 108.405 108.82 108.405C109.496 108.405 109.846 108.671 109.846 109.112C109.846 109.655 109.17 110.049 108.093 110.085V110.971H108.239C109.274 110.971 110.042 111.297 110.042 111.944C110.042 112.475 109.606 112.831 108.829 112.831C108.28 112.831 107.827 112.726 107.444 112.571L107.058 113.499C107.58 113.714 108.185 113.842 108.847 113.842C110.377 113.842 111.273 113.096 111.273 111.95ZM116.541 112.046C116.541 111.159 115.909 110.67 115.411 110.506V110.488C115.906 110.351 116.378 109.826 116.378 109.112C116.378 108.122 115.642 107.408 114.07 107.408C113.361 107.408 112.667 107.546 112.205 107.743V113.508C112.632 113.696 113.385 113.842 114.085 113.842C115.705 113.842 116.541 113.165 116.541 112.046ZM115.233 109.226C115.233 109.533 115.114 109.793 114.933 109.939C114.752 110.085 114.53 110.145 114.112 110.145H113.349V108.432C113.513 108.372 113.794 108.328 114.067 108.328C114.865 108.331 115.233 108.665 115.233 109.226ZM115.355 111.968C115.355 112.613 114.927 112.923 114.079 112.923C113.824 112.923 113.521 112.881 113.352 112.819V111.004H114.13C114.548 111.004 114.761 111.073 114.969 111.201C115.215 111.359 115.355 111.622 115.355 111.968ZM122.082 110.625C122.082 108.811 121.31 107.408 119.688 107.408C118.063 107.408 117.294 108.811 117.294 110.625C117.294 112.443 118.063 113.842 119.688 113.842C121.313 113.842 122.082 112.443 122.082 110.625ZM120.877 110.625C120.877 111.908 120.474 112.768 119.688 112.768C118.902 112.768 118.499 111.908 118.499 110.625C118.499 109.345 118.902 108.483 119.688 108.483C120.474 108.483 120.877 109.345 120.877 110.625ZM128.616 112.914L128.18 112.723L127.608 107.51H124.511L124.324 109.077C124.161 110.461 123.811 112.088 122.743 112.914L122.811 114.997H123.642L123.674 113.741H127.694L127.726 114.997H128.557L128.616 112.914ZM127.005 112.786H124.271C124.98 112.013 125.306 110.446 125.442 109.199L125.519 108.513H126.563L127.005 112.786ZM134.18 113.741V107.513H133.136L130.974 111.109C130.778 111.443 130.606 111.84 130.606 111.84H130.588C130.588 111.84 130.606 111.401 130.606 111.004V107.513H129.538V113.741H130.529L132.742 110.049C132.947 109.706 133.11 109.318 133.11 109.318H133.125C133.125 109.318 133.11 109.739 133.11 110.127V113.741H134.18ZM138.834 108.527V107.513H135.02V108.527H136.328V113.741H137.535V108.527H138.834ZM142.963 113.741V112.726H140.851V111.085H142.758V110.085H140.851V108.527H142.963V107.513H139.671V113.741H142.963ZM148.854 113.741L148.169 107.513H144.971L144.722 109.93C144.586 111.288 144.354 112.305 143.441 112.845L143.8 113.905C145.289 113.269 145.725 111.753 145.894 110.058L146.048 108.51H147.083L147.623 113.741H148.854ZM154 113.741V107.743C153.514 107.531 152.828 107.408 152.128 107.408C150.565 107.408 149.761 108.116 149.761 109.285C149.761 110.181 150.319 110.655 150.957 110.834V110.852C150.633 111.031 150.417 111.359 150.248 111.765L149.417 113.744H150.684L151.461 111.834C151.615 111.455 151.879 111.213 152.306 111.213H152.819V113.744H154V113.741ZM152.822 110.351H152.122C151.36 110.351 150.942 110.04 150.942 109.354C150.942 108.701 151.301 108.331 152.105 108.331C152.378 108.331 152.662 108.372 152.822 108.435V110.351Z" fill="white"/>
</svg>
