<svg width="120" height="120" fill="none" xmlns="http://www.w3.org/2000/svg"><rect width="120" height="120" rx="22.5" fill="#000"/><path fill-rule="evenodd" clip-rule="evenodd" d="M34.266 30.718a2.534 2.534 0 00-3.534 0 2.417 2.417 0 000 3.465l21.356 20.942a6.887 6.887 0 010 9.835L30.732 85.902a2.417 2.417 0 000 3.465 2.534 2.534 0 003.534 0l21.548-21.13a6.887 6.887 0 019.644 0L85.735 88.12a2.534 2.534 0 003.533 0 2.417 2.417 0 000-3.465L69.184 64.96a6.887 6.887 0 010-9.835L89.268 35.43a2.417 2.417 0 000-3.465 2.534 2.534 0 00-3.533 0L65.458 51.849a6.887 6.887 0 01-9.644 0L34.266 30.718z" fill="#fff"/></svg>