<?xml version="1.0" encoding="UTF-8"?> <svg xmlns="http://www.w3.org/2000/svg" id="Слой_1" x="0" y="0" viewBox="0 0 545.9 202.4" xml:space="preserve"> <style> .st0{fill:#212228} </style> <path class="st0" d="M71.9 159.8c0 .8-.2 1.5-.5 2.1-.4.6-.8 1.2-1.4 1.6-.6.4-1.2.8-1.9 1-.7.2-1.4.3-2.1.3v-.2c.5-.1 1.1-.2 1.5-.3.5-.2.9-.4 1.2-.7.3-.3.6-.7.8-1.2.2-.4.3-1 .3-1.6 0-.6-.1-1.1-.3-1.6-.2-.5-.4-1-.8-1.4-.3-.4-.7-.7-1.2-1-.5-.3-1-.4-1.6-.4h-.8l-.1.3V168.8c0 .3.1.5.2.7.1.2.2.4.4.5.2.1.4.2.7.3.3.1.7.1 1.2.2v.1H60.4v-.1c.4-.1.7-.1 1-.2.3-.1.5-.2.7-.3.2-.1.3-.3.4-.5.1-.2.2-.5.2-.9v-1.3-1.9-1.9-1.4-1-1.1-1.1-.9c0-.4-.1-.7-.2-.9-.1-.2-.2-.4-.4-.5-.2-.1-.4-.2-.7-.3-.3-.1-.6-.1-1-.2v-.2h3.3l2.9-.1c.6 0 1.2.1 1.8.2.6.1 1.2.3 1.7.6s1 .7 1.3 1.2c.3.5.5 1.2.5 2z"></path> <path class="st0" d="M84.5 170.1c-.1.2-.1.3-.2.4-.1.1-.2.1-.4.1-.7 0-1.5 0-2.2-.1h-5c-.9 0-1.8 0-2.6.1v-.2c.4-.1.7-.1 1-.2.3-.1.5-.2.7-.3.2-.1.3-.3.4-.5.1-.2.1-.5.2-.9v-1.3-1.9-1.9-1.4-1.1-1.1-1.1-1c0-.4-.1-.7-.2-.9-.1-.2-.2-.4-.4-.5-.2-.1-.4-.2-.7-.3-.3-.1-.6-.1-1-.2v-.2c.3 0 .7 0 1.1.1H82.8c.3 0 .5 0 .7-.1.2 0 .3-.1.5-.2.1-.1.2-.2.3-.4l.1.1c-.1.3-.1.6-.2 1 0 .3 0 .6-.1.7v2H84c-.1-.8-.3-1.4-.7-1.8-.4-.4-1-.6-1.8-.7H78.6v5.8h3.6c.3 0 .5 0 .7-.1.2-.1.3-.1.4-.2.1-.1.2-.2.3-.4.1-.1.1-.3.2-.5h.1c0 .1-.1.3-.1.5s0 .3-.1.5 0 .3-.1.5V164.6h-.2c0-.2 0-.4-.1-.6 0-.2-.1-.4-.2-.6-.1-.2-.3-.3-.4-.4-.2-.1-.5-.2-.8-.2l-3.3-.1v4.6c0 .4 0 .7.1.9.1.3.2.5.4.7.2.2.4.3.7.4.3.1.7.1 1.2.1h1.1c.1 0 .2 0 .4-.1.3 0 .6-.1.8-.2.3-.1.5-.2.7-.4.2-.2.4-.4.6-.8.2-.3.4-.7.6-1.2l.2.1-.9 3.3z"></path> <path class="st0" d="M100.5 170.3c-.3.2-.7.3-1.1.3-.4.1-.8.1-1.2.2-.4 0-.8.1-1.1.1h-.6c-1.2 0-2.4-.2-3.5-.5s-2.1-.8-2.9-1.5c-.8-.7-1.5-1.5-2-2.5s-.7-2.1-.7-3.4c0-1.2.3-2.3.8-3.2.5-.9 1.2-1.7 2.1-2.4.8-.6 1.8-1.1 2.8-1.5 1-.3 2.1-.5 3.1-.5h.7c.3 0 .7 0 1.1.1.4.1.8.1 1.3.2.4.1.9.2 1.3.4l.6 3.3h-.2c-.1-.5-.3-.9-.6-1.4-.3-.4-.7-.8-1.1-1.1-.4-.3-.9-.5-1.5-.7-.6-.2-1.1-.3-1.8-.3-.9 0-1.7.2-2.4.5s-1.3.8-1.8 1.4c-.5.6-.9 1.3-1.2 2.1-.3.8-.4 1.6-.4 2.5 0 1.2.2 2.3.6 3.2.4.9.9 1.8 1.5 2.4.6.7 1.3 1.2 2.1 1.5.8.3 1.5.5 2.3.5.5 0 1-.1 1.5-.2s.9-.4 1.3-.6c.4-.3.8-.6 1.1-1.1.3-.4.6-.9.8-1.5l.1.2-1 3.5z"></path> <path class="st0" d="M116.2 158.9h-.2c.1-.8-.1-1.4-.4-1.7-.3-.3-.9-.4-1.7-.5h-3.3V168.7c0 .3.1.5.2.7.1.2.2.4.4.5.2.1.4.2.7.3.3.1.7.1 1.2.2v.1H106v-.1c.4-.1.7-.1 1-.2.3-.1.5-.2.7-.3.2-.1.3-.3.4-.5.1-.2.2-.5.2-.9v-1.3-7-1.2-2.4H105c-.4 0-.7 0-1 .1-.3.1-.5.2-.6.3-.2.2-.3.4-.5.6-.1.2-.3.5-.5.9l-.1-.1s0-.2.1-.6l.3-1.2c.1-.5.3-1 .4-1.7l.1-.1c.1.2.3.4.4.5l.6.3c.2.1.4.1.7.1h.6l4.1.1 4.7-.1c.5 0 .9 0 1.1-.1.3 0 .5-.1.7-.2.2-.1.3-.1.4-.2.1-.1.2-.2.2-.3l.2.1-.7 3.9z"></path> <path class="st0" d="M134.3 163c0 1.1-.2 2.2-.6 3.2-.4 1-1 1.8-1.7 2.5s-1.6 1.3-2.6 1.7c-1 .4-2.1.6-3.3.6-1.2 0-2.3-.2-3.3-.6-1-.4-1.8-1-2.5-1.7s-1.2-1.5-1.6-2.5c-.4-.9-.6-1.9-.6-2.9s.2-1.9.5-2.9c.4-.9.9-1.8 1.6-2.5s1.6-1.3 2.6-1.8c1-.4 2.2-.7 3.5-.7 1.2 0 2.2.2 3.2.5 1 .4 1.8.9 2.5 1.5.7.7 1.3 1.4 1.7 2.4.4 1 .6 2.1.6 3.2zm-7.7 7.3c.6 0 1.2-.1 1.7-.4.6-.3 1.1-.7 1.5-1.2.4-.6.8-1.3 1.1-2.1.3-.9.4-1.9.4-3.1 0-1-.1-2-.4-2.9-.3-.9-.7-1.7-1.2-2.3-.5-.7-1.1-1.2-1.8-1.6-.7-.4-1.5-.6-2.3-.6-.7 0-1.4.2-2 .5-.6.3-1.1.7-1.6 1.3-.4.6-.8 1.3-1 2.1-.2.8-.4 1.8-.4 2.8 0 1.1.1 2 .4 2.9.3.9.7 1.7 1.2 2.4s1.1 1.2 1.8 1.6c1 .4 1.8.6 2.6.6z"></path> <path class="st0" d="M148.4 159.8c0 .8-.2 1.5-.5 2.1-.4.6-.8 1.2-1.4 1.6-.6.4-1.2.8-1.9 1-.7.2-1.4.3-2.1.3v-.2c.5-.1 1.1-.2 1.5-.3.5-.2.9-.4 1.2-.7.3-.3.6-.7.8-1.2.2-.4.3-1 .3-1.6 0-.6-.1-1.1-.3-1.6-.2-.5-.4-1-.8-1.4-.3-.4-.7-.7-1.2-1-.5-.3-1-.4-1.6-.4h-.8l-.1.3V168.8c0 .3.1.5.2.7.1.2.2.4.4.5.2.1.4.2.7.3.3.1.7.1 1.2.2v.1H136.9v-.1c.4-.1.7-.1 1-.2.3-.1.5-.2.7-.3.2-.1.3-.3.4-.5.1-.2.2-.5.2-.9v-1.3-1.9-1.9-1.4-1-1.1-1.1-.9c0-.4-.1-.7-.2-.9-.1-.2-.2-.4-.4-.5-.2-.1-.4-.2-.7-.3-.3-.1-.6-.1-1-.2v-.2h3.3l2.9-.1c.6 0 1.2.1 1.8.2.6.1 1.2.3 1.7.6s1 .7 1.3 1.2c.3.5.5 1.2.5 2z"></path> <path class="st0" d="M164.9 170.6c-.3 0-.6 0-.9-.1-.3 0-.6 0-.9-.1H161c-.3 0-.7 0-1 .1-.3 0-.6 0-.9.1h-.7v-.1c.7-.1 1.2-.3 1.4-.6.2-.3.2-.7 0-1.4-.1-.3-.3-.7-.4-1.1-.1-.4-.3-.8-.4-1.2-.1-.4-.3-.9-.5-1.3h-4.8l-.6 1.5c-.1.4-.3.7-.4 1.1-.1.3-.2.6-.2.7-.1.2-.1.4-.2.6-.1.2-.1.4-.1.5 0 .2 0 .4.1.5.1.1.2.3.4.3.1.1.3.2.5.2s.4.1.5.1v.1l-2.7-.1h-.4c-.2 0-.5 0-.8.1-.3 0-.6 0-.9.1h-.7v-.1c.4-.1.8-.2 1.1-.3.3-.1.6-.3.8-.5.2-.2.4-.4.6-.7.2-.3.3-.7.5-1.1.1-.2.2-.5.4-1s.4-1 .7-1.7c.3-.6.6-1.3.9-2.1.3-.7.6-1.5.9-2.2.7-1.7 1.5-3.7 2.4-5.8h.2l5.4 12.8c.3.7.7 1.3 1.1 1.7.5.5 1.1.7 1.8.8v.2zm-8.8-11.7v-.1c0-.1 0-.1-.1-.1 0 0-.1 0-.1.1l-2 5.4 2.1.1 2.3-.1-2.2-5.3z"></path> <path class="st0" d="M182.7 170.6H176.4v-.1c.4-.1.7-.1 1-.2.3-.1.5-.2.7-.3.2-.1.3-.3.4-.5.1-.2.2-.5.2-.9v-.9-1.4-1.6-1.5h-7.9v5.5c0 .3.1.5.2.7.1.2.2.4.4.5.2.1.4.2.7.3.3.1.7.1 1.2.2v.1H166.2v-.1c.4-.1.7-.1 1-.2.3-.1.5-.2.7-.3.2-.1.3-.3.4-.5.1-.2.2-.5.2-.9v-1.3-1.9-1.9-1.4-.9-.8-1-1.6c0-.4-.1-.7-.2-.9-.1-.2-.3-.4-.5-.5-.2-.1-.5-.2-.8-.3-.3-.1-.6-.1-1-.2v-.1h1.8c.3 0 .7 0 1 .1h4.2v.1c-.4 0-.8.1-1.1.2-.3.1-.5.2-.7.3-.2.1-.3.3-.4.5-.1.2-.1.5-.2.8v4.7H178.5v-1.3-1-.8-.8-.8c0-.4-.1-.7-.2-.9-.1-.2-.3-.4-.5-.5-.2-.1-.4-.2-.7-.3-.3-.1-.6-.1-1-.2v-.1h1.8c.3 0 .7 0 1 .1h4.2v.1c-.4 0-.8.1-1.1.2-.3.1-.5.2-.7.3-.2.1-.3.3-.4.5-.1.2-.1.5-.2.8V168.6c0 .3.1.5.2.7.1.2.2.4.4.5.2.1.4.2.7.3.3.1.7.1 1.2.2v.1c0 .2-.2.2-.5.2z"></path> <path class="st0" d="M193.4 157.9c0-.3-.1-.5-.2-.7-.1-.2-.2-.4-.4-.6-.2-.2-.4-.3-.7-.4-.3-.1-.7-.2-1.2-.2v-.1h6.7v.1c-.3 0-.6.1-.8.2l-.6.3c-.2.1-.3.3-.4.5-.1.2-.2.5-.2.9V161.2c.1.7.2 1.3.3 1.8.2.5.5.8 1 1.1.2.1.5.2.9.2s.8.1 1.3.1h1.4c.5 0 .9-.1 1.2-.1v-6.4c0-.3 0-.6-.1-.8-.1-.2-.2-.4-.4-.5-.2-.1-.4-.2-.7-.3-.3-.1-.7-.1-1.1-.2v-.1H206.2v.1c-.4.1-.7.1-1 .2-.3.1-.5.2-.7.3-.2.1-.3.3-.4.5-.1.2-.2.5-.2.9V168.6c0 .4.1.7.2.9.1.2.3.4.4.5.2.1.4.2.7.3.3.1.6.1 1 .2v.1H199.1v-.1c.5 0 .9-.1 1.2-.2.3-.1.6-.2.7-.3.2-.1.3-.3.4-.5.1-.2.1-.4.2-.7v-1-3.2c-.3.1-.7.1-1.1.1-.4 0-.8.1-1.3.1h-1.3c-.4 0-.8 0-1.1-.1-.5-.1-1-.2-1.5-.4-.4-.2-.8-.4-1.1-.7-.3-.3-.5-.7-.7-1.2-.2-.5-.3-1-.3-1.7v-.5-.7-.8c.3-.3.3-.5.2-.8z"></path> <path class="st0" d="M219.5 170.1c-.1.2-.1.3-.2.4-.1.1-.2.1-.4.1-.7 0-1.5 0-2.2-.1h-5c-.9 0-1.8 0-2.6.1v-.2c.4-.1.7-.1 1-.2.3-.1.5-.2.7-.3.2-.1.3-.3.4-.5.1-.2.1-.5.2-.9v-1.3-1.9-1.9-1.4-1.1-1.1-1.1-1c0-.4-.1-.7-.2-.9-.1-.2-.2-.4-.4-.5-.2-.1-.4-.2-.7-.3-.3-.1-.6-.1-1-.2v-.2c.3 0 .7 0 1.1.1H217.8c.3 0 .5 0 .7-.1.2 0 .3-.1.5-.2.1-.1.2-.2.3-.4l.1.1c-.1.3-.1.6-.2 1 0 .3 0 .6-.1.7v2h-.2c-.1-.8-.3-1.4-.7-1.8-.4-.4-1-.6-1.8-.7H213.5v5.8h3.6c.3 0 .5 0 .7-.1.2-.1.3-.1.4-.2.1-.1.2-.2.3-.4.1-.1.1-.3.2-.5h.1c0 .1-.1.3-.1.5s0 .3-.1.5 0 .3-.1.5V164.6h-.2c0-.2 0-.4-.1-.6 0-.2-.1-.4-.2-.6-.1-.2-.3-.3-.4-.4-.2-.1-.5-.2-.8-.2l-3.3-.1v4.6c0 .4 0 .7.1.9.1.3.2.5.4.7.2.2.4.3.7.4.3.1.7.1 1.2.1h1.1c.1 0 .2 0 .4-.1.3 0 .6-.1.8-.2.3-.1.5-.2.7-.4.2-.2.4-.4.6-.8.2-.3.4-.7.6-1.2l.2.1-.8 3.3z"></path> <path class="st0" d="M234.2 159.8c0 .8-.2 1.5-.5 2.1-.4.6-.8 1.2-1.4 1.6-.6.4-1.2.8-1.9 1-.7.2-1.4.3-2.1.3v-.2c.5-.1 1.1-.2 1.5-.3.5-.2.9-.4 1.2-.7.3-.3.6-.7.8-1.2.2-.4.3-1 .3-1.6 0-.6-.1-1.1-.3-1.6-.2-.5-.4-1-.8-1.4-.3-.4-.7-.7-1.2-1-.5-.3-1-.4-1.6-.4h-.8l-.1.3V168.8c0 .3.1.5.2.7.1.2.2.4.4.5.2.1.4.2.7.3.3.1.7.1 1.2.2v.1H222.7v-.1c.4-.1.7-.1 1-.2.3-.1.5-.2.7-.3.2-.1.3-.3.4-.5.1-.2.2-.5.2-.9v-1.3-1.9-1.9-1.4-1-1.1-1.1-.9c0-.4-.1-.7-.2-.9-.1-.2-.2-.4-.4-.5-.2-.1-.4-.2-.7-.3-.3-.1-.6-.1-1-.2v-.2h3.3l2.9-.1c.6 0 1.2.1 1.8.2.6.1 1.2.3 1.7.6s1 .7 1.3 1.2c.3.5.5 1.2.5 2z"></path> <path class="st0" d="M253 170.6H246.7v-.1c.4-.1.7-.1 1-.2.3-.1.5-.2.7-.3.2-.1.3-.3.4-.5.1-.2.2-.5.2-.9v-.9-1.4-1.6-1.5h-7.9v5.5c0 .3.1.5.2.7.1.2.2.4.4.5.2.1.4.2.7.3.3.1.7.1 1.2.2v.1H236.5v-.1c.4-.1.7-.1 1-.2.3-.1.5-.2.7-.3.2-.1.3-.3.4-.5.1-.2.2-.5.2-.9v-1.3-1.9-1.9-1.4-.9-.8-1-1.6c0-.4-.1-.7-.2-.9-.1-.2-.3-.4-.5-.5-.2-.1-.5-.2-.8-.3-.3-.1-.6-.1-1-.2v-.1h1.8c.3 0 .7 0 1 .1h4.2v.1c-.4 0-.8.1-1.1.2-.3.1-.5.2-.7.3-.2.1-.3.3-.4.5-.1.2-.1.5-.2.8v4.7H248.8v-1.3-1-.8-.8-.8c0-.4-.1-.7-.2-.9-.1-.2-.3-.4-.5-.5-.2-.1-.4-.2-.7-.3-.3-.1-.6-.1-1-.2v-.1h1.8c.3 0 .7 0 1 .1h4.2v.1c-.4 0-.8.1-1.1.2-.3.1-.5.2-.7.3-.2.1-.3.3-.4.5-.1.2-.1.5-.2.8V168.6c0 .3.1.5.2.7.1.2.2.4.4.5.2.1.4.2.7.3.3.1.7.1 1.2.2v.1c0 .2-.2.2-.5.2z"></path> <path class="st0" d="M272.4 163c0 1.1-.2 2.2-.6 3.2-.4 1-1 1.8-1.7 2.5s-1.6 1.3-2.6 1.7c-1 .4-2.1.6-3.3.6-1.2 0-2.3-.2-3.3-.6-1-.4-1.8-1-2.5-1.7s-1.2-1.5-1.6-2.5c-.4-.9-.6-1.9-.6-2.9s.2-1.9.5-2.9c.4-.9.9-1.8 1.6-2.5s1.6-1.3 2.6-1.8c1-.4 2.2-.7 3.5-.7 1.2 0 2.2.2 3.2.5 1 .4 1.8.9 2.5 1.5.7.7 1.3 1.4 1.7 2.4.4 1 .6 2.1.6 3.2zm-7.7 7.3c.6 0 1.2-.1 1.7-.4.6-.3 1.1-.7 1.5-1.2.4-.6.8-1.3 1.1-2.1.3-.9.4-1.9.4-3.1 0-1-.1-2-.4-2.9-.3-.9-.7-1.7-1.2-2.3-.5-.7-1.1-1.2-1.8-1.6s-1.5-.6-2.3-.6c-.7 0-1.4.2-2 .5-.6.3-1.1.7-1.6 1.3-.4.6-.8 1.3-1 2.1-.2.8-.4 1.8-.4 2.8 0 1.1.1 2 .4 2.9.3.9.7 1.7 1.2 2.4s1.1 1.2 1.8 1.6c1 .4 1.8.6 2.6.6z"></path> <path class="st0" d="M294 170.6c-.3 0-.7 0-1-.1h-3.5c-.6 0-1.1.1-1.7.1v-.1c.4-.1.7-.1 1-.2.3-.1.5-.2.7-.3.2-.1.3-.3.4-.5.1-.2.1-.5.2-.9 0-.2 0-.6-.1-1.1 0-.5-.1-1.1-.2-1.8-.1-.6-.1-1.3-.2-1.9-.1-.6-.1-1.2-.2-1.6 0-.2 0-.4-.1-.7 0-.3-.1-.6-.1-.8 0-.3-.1-.5-.1-.8v-.5h-.1c-.4.8-.7 1.5-.9 2-.2.5-.4.9-.6 1.3-.2.4-.3.7-.5 1.1-.2.4-.4.8-.6 1.4-.3.6-.6 1.3-1 2.1-.4.9-1 2-1.7 3.3h-.1c-.8-1.8-1.6-3.5-2.5-5.2-.8-1.7-1.7-3.5-2.4-5.2h-.1l-.3 2c-.1.6-.2 1.2-.3 1.9-.1.7-.2 1.3-.3 2-.1.5-.2 1-.2 1.5-.1.5-.1.8-.1 1.1 0 .2 0 .5.1.7.1.2.2.4.4.6.2.2.4.3.7.4.3.1.7.2 1.2.2v.2c-.3 0-.8-.1-1.4-.1H275c-.5 0-.9.1-1.2.1v-.1c.4-.1.7-.1 1-.2.3-.1.5-.3.8-.5.2-.2.4-.5.6-.8.1-.3.3-.8.4-1.3l1.5-8.6-.3-.6c-.1-.2-.1-.3-.2-.5s-.1-.3-.2-.4c-.2-.5-.6-.9-.9-1.1-.4-.2-.8-.4-1.3-.5v-.1h3.2c.3 0 .6 0 .9-.1.4.9.8 1.9 1.3 2.9.4 1 .8 2 1.3 3 .4 1 .9 2 1.3 3s.8 1.9 1.2 2.9c.5-.9.9-1.9 1.4-2.8.5-1 .9-2 1.4-3 .5-1 .9-2 1.4-3 .5-1 .9-2 1.4-2.9h2.8c.3 0 .6 0 .8-.1v.1c-.4 0-.8.1-1 .2-.3.1-.5.2-.7.3-.2.1-.3.3-.4.5-.1.2-.1.5-.1.8v.6c.1.7.1 1.4.2 2.1.1.8.2 1.5.3 2.2.1.7.2 1.4.2 2 .1.6.1 1.1.2 1.4 0 .4.1.8.1 1.1 0 .3.1.6.1.9 0 .3.1.5.1.6.1.3.1.5.2.7.1.2.2.4.4.5.2.1.4.2.7.3.3.1.7.1 1.2.2v.2c-.5-.1-.8-.1-1.1-.1z"></path> <path class="st0" d="M312.6 163c0 1.1-.2 2.2-.6 3.2-.4 1-1 1.8-1.7 2.5s-1.6 1.3-2.6 1.7c-1 .4-2.1.6-3.3.6-1.2 0-2.3-.2-3.3-.6-1-.4-1.8-1-2.5-1.7s-1.2-1.5-1.6-2.5c-.4-.9-.6-1.9-.6-2.9s.2-1.9.5-2.9c.4-.9.9-1.8 1.6-2.5s1.6-1.3 2.6-1.8c1-.4 2.2-.7 3.5-.7 1.2 0 2.2.2 3.2.5 1 .4 1.8.9 2.5 1.5.7.7 1.3 1.4 1.7 2.4.4 1 .6 2.1.6 3.2zm-7.7 7.3c.6 0 1.2-.1 1.7-.4.6-.3 1.1-.7 1.5-1.2.4-.6.8-1.3 1.1-2.1.3-.9.4-1.9.4-3.1 0-1-.1-2-.4-2.9-.3-.9-.7-1.7-1.2-2.3-.5-.7-1.1-1.2-1.8-1.6s-1.5-.6-2.3-.6c-.7 0-1.4.2-2 .5-.6.3-1.1.7-1.6 1.3-.4.6-.8 1.3-1 2.1-.2.8-.4 1.8-.4 2.8 0 1.1.1 2 .4 2.9.3.9.7 1.7 1.2 2.4s1.1 1.2 1.8 1.6c1 .4 1.8.6 2.6.6z"></path> <path class="st0" d="M326.7 159.8c0 .8-.2 1.5-.5 2.1-.4.6-.8 1.2-1.4 1.6-.6.4-1.2.8-1.9 1-.7.2-1.4.3-2.1.3v-.2c.5-.1 1.1-.2 1.5-.3.5-.2.9-.4 1.2-.7.3-.3.6-.7.8-1.2.2-.4.3-1 .3-1.6 0-.6-.1-1.1-.3-1.6-.2-.5-.4-1-.8-1.4-.3-.4-.7-.7-1.2-1-.5-.3-1-.4-1.6-.4h-.8l-.1.3V168.8c0 .3.1.5.2.7.1.2.2.4.4.5.2.1.4.2.7.3.3.1.7.1 1.2.2v.1H315.2v-.1c.4-.1.7-.1 1-.2.3-.1.5-.2.7-.3.2-.1.3-.3.4-.5.1-.2.2-.5.2-.9v-1.3-1.9-1.9-1.4-1-1.1-1.1-.9c0-.4-.1-.7-.2-.9-.1-.2-.2-.4-.4-.5-.2-.1-.4-.2-.7-.3-.3-.1-.6-.1-1-.2v-.2h3.3l2.9-.1c.6 0 1.2.1 1.8.2.6.1 1.2.3 1.7.6s1 .7 1.3 1.2c.4.5.5 1.2.5 2z"></path> <path class="st0" d="M341.8 170.3c-.3.2-.7.3-1.1.3-.4.1-.8.1-1.2.2-.4 0-.8.1-1.1.1h-.6c-1.2 0-2.4-.2-3.5-.5s-2.1-.8-2.9-1.5c-.8-.7-1.5-1.5-2-2.5s-.7-2.1-.7-3.4c0-1.2.3-2.3.8-3.2.5-.9 1.2-1.7 2.1-2.4.8-.6 1.8-1.1 2.8-1.5 1-.3 2.1-.5 3.1-.5h.7c.3 0 .7 0 1.1.1.4.1.8.1 1.3.2.4.1.9.2 1.3.4l.6 3.3h-.2c-.1-.5-.3-.9-.6-1.4-.3-.4-.7-.8-1.1-1.1-.4-.3-.9-.5-1.5-.7-.6-.2-1.1-.3-1.8-.3-.9 0-1.7.2-2.4.5s-1.3.8-1.8 1.4c-.5.6-.9 1.3-1.2 2.1-.3.8-.4 1.6-.4 2.5 0 1.2.2 2.3.6 3.2.4.9.9 1.8 1.5 2.4.6.7 1.3 1.2 2.1 1.5.8.3 1.5.5 2.3.5.5 0 1-.1 1.5-.2s.9-.4 1.3-.6c.4-.3.8-.6 1.1-1.1.3-.4.6-.9.8-1.5l.1.2-1 3.5z"></path> <path class="st0" d="M352 170.6H344.9v-.1c.4-.1.7-.1 1-.2.3-.1.5-.2.7-.3.2-.1.3-.3.4-.5.1-.2.2-.5.2-.9v-1.3-1.9-1.9-1.4-1.1-1.1-1.1-1c0-.4-.1-.7-.2-.9-.1-.2-.3-.4-.5-.5-.2-.1-.4-.2-.7-.3-.3-.1-.6-.1-1-.2v-.1h1.8c.3 0 .7 0 1 .1h4.2v.1c-.4 0-.8.1-1.1.2-.3.1-.5.2-.7.3-.2.1-.3.3-.4.5-.1.2-.1.5-.2.8V168.7c0 .3.1.5.2.7.1.2.2.4.4.5.2.1.4.2.7.3.3.1.7.1 1.2.2v.2zm9.6.3c-.9.1-1.6.1-2.4 0-.7-.1-1.4-.3-2-.5-.6-.3-1.2-.6-1.7-.9-.5-.4-1-.8-1.4-1.2-.3-.3-.6-.6-1-1.1l-1.2-1.5c-.4-.5-.8-1.1-1.2-1.6-.4-.5-.7-1-1-1.3.1-.1.3-.3.5-.6l.8-.8c.3-.3.6-.6.9-1 .3-.3.6-.7.9-1l.8-.8.5-.5c.1-.1.3-.3.5-.6.2-.2.3-.4.4-.7.1-.2 0-.4-.1-.6-.1-.2-.5-.3-1-.3v-.2l3.3.1 2.3-.1v.2h-.7c-.1 0-.3 0-.4.1-.1 0-.3.1-.3.1-.3.1-.7.3-1.1.6-.4.3-.9.6-1.3 1.1l-.8.8c-.4.4-.8.7-1.2 1.1l-1.2 1.2-.8.8c.2.3.5.7.9 1.2s.7 1 1.1 1.5l1.2 1.5c.4.5.7.9 1 1.2l1.3 1.3c.4.4.9.8 1.3 1.1.5.3.9.6 1.4.8.5.2.9.3 1.4.3l.3.3z"></path> <path class="st0" d="M378.5 163c0 1.1-.2 2.2-.6 3.2-.4 1-1 1.8-1.7 2.5s-1.6 1.3-2.6 1.7c-1 .4-2.1.6-3.3.6-1.2 0-2.3-.2-3.3-.6-1-.4-1.8-1-2.5-1.7s-1.2-1.5-1.6-2.5c-.4-.9-.6-1.9-.6-2.9s.2-1.9.5-2.9c.4-.9.9-1.8 1.6-2.5s1.6-1.3 2.6-1.8c1-.4 2.2-.7 3.5-.7 1.2 0 2.2.2 3.2.5 1 .4 1.8.9 2.5 1.5.7.7 1.3 1.4 1.7 2.4.4 1 .6 2.1.6 3.2zm-7.7 7.3c.6 0 1.2-.1 1.7-.4.6-.3 1.1-.7 1.5-1.2s.8-1.3 1.1-2.1c.3-.9.4-1.9.4-3.1 0-1-.1-2-.4-2.9-.3-.9-.7-1.7-1.2-2.3-.5-.7-1.1-1.2-1.8-1.6s-1.5-.6-2.3-.6c-.7 0-1.4.2-2 .5-.6.3-1.1.7-1.6 1.3-.4.6-.8 1.3-1 2.1-.2.8-.4 1.8-.4 2.8 0 1.1.1 2 .4 2.9.3.9.7 1.7 1.2 2.4s1.1 1.2 1.8 1.6c1 .4 1.8.6 2.6.6z"></path> <path class="st0" d="M398.9 170.6H391.8v-.1c.4-.1.7-.1 1-.2.3-.1.5-.2.7-.3.2-.1.3-.3.4-.5.1-.2.2-.5.2-.9v-1.3-1.9-1.9-3.9c-1.8 1.6-3.3 3.2-4.8 4.7-1.4 1.5-2.8 2.8-4.1 4.1v.5c0 .3.1.5.2.7.1.2.2.4.4.5.2.1.4.2.8.3.3.1.7.1 1.2.2v.1H380.7v-.1c.4-.1.7-.1 1-.2.3-.1.5-.2.7-.3.2-.1.3-.3.4-.5.1-.2.2-.5.2-.9v-1.3-1.9-1.9-1.4-1.1-1.1-1.1-1c0-.4-.1-.7-.2-.9-.1-.2-.3-.4-.5-.5-.2-.1-.4-.2-.7-.3-.3-.1-.6-.1-1-.2v-.1h1.8c.3 0 .7 0 1 .1h4.2v.1c-.4 0-.8.1-1.1.2-.3.1-.5.2-.7.3-.2.1-.3.3-.4.5-.1.2-.1.5-.2.8V167.1c1.5-1.4 3-2.9 4.5-4.4 1.5-1.5 2.9-3 4.4-4.5v-.3c0-.4-.1-.7-.2-.9-.1-.2-.3-.4-.5-.5-.2-.1-.4-.2-.7-.3-.3-.1-.6-.1-1-.2v-.1h1.8c.3 0 .7 0 1 .1h4.2v.1c-.4 0-.8.1-1.1.2-.3.1-.5.2-.7.3-.2.1-.3.3-.4.5-.1.2-.1.5-.2.8V168.8c0 .3.1.5.2.7.1.2.2.4.4.5.2.1.4.2.7.3.3.1.7.1 1.2.2v.1zm-9-17.3c.2 0 .4 0 .7-.1.2-.1.5-.2.7-.3.2-.1.5-.3.7-.6.2-.2.4-.6.5-.9h.3c0 .3-.1.6-.2.9-.1.4-.3.7-.6 1.1-.2.3-.5.6-.9.9-.3.2-.7.4-1.2.4-.4 0-.8-.1-1.2-.4-.3-.2-.6-.5-.9-.9-.2-.3-.4-.7-.6-1.1-.1-.4-.2-.7-.2-.9h.3c.1.4.3.7.4.9l.6.6c.2.1.5.3.7.3.5.1.7.1.9.1z"></path> <path class="st0" d="M413.6 170.6H406.5v-.1c.4-.1.7-.1 1-.2.3-.1.5-.2.7-.3.2-.1.3-.3.4-.5.1-.2.2-.5.2-.9v-1.3-1.9-1.9-1.4-1.1-1.1-1.1-1c0-.4-.1-.7-.2-.9-.1-.2-.3-.4-.5-.5-.2-.1-.4-.2-.7-.3-.3-.1-.6-.1-1-.2v-.1h1.8c.3 0 .7 0 1 .1h4.2v.1c-.4 0-.8.1-1.1.2-.3.1-.5.2-.7.3-.2.1-.3.3-.4.5-.1.2-.1.5-.2.8V168.7c0 .3.1.5.2.7.1.2.2.4.4.5.2.1.4.2.7.3.3.1.7.1 1.2.2v.2zm9.7.3c-.9.1-1.6.1-2.4 0-.7-.1-1.4-.3-2-.5-.6-.3-1.2-.6-1.7-.9-.5-.4-1-.8-1.4-1.2-.3-.3-.6-.6-1-1.1l-1.2-1.5c-.4-.5-.8-1.1-1.2-1.6-.4-.5-.7-1-1-1.3.1-.1.3-.3.5-.6l.8-.8c.3-.3.6-.6.9-1 .3-.3.6-.7.9-1l.8-.8.5-.5c.1-.1.3-.3.5-.6.2-.2.3-.4.4-.7.1-.2 0-.4-.1-.6-.1-.2-.5-.3-1-.3v-.2l3.3.1 2.3-.1v.2h-.7c-.1 0-.3 0-.4.1-.1 0-.3.1-.3.1-.3.1-.7.3-1.1.6-.4.3-.9.6-1.3 1.1l-.8.8c-.4.4-.8.7-1.2 1.1l-1.2 1.2-.8.8c.2.3.5.7.9 1.2s.7 1 1.1 1.5l1.2 1.5c.4.5.7.9 1 1.2l1.3 1.3c.4.4.9.8 1.3 1.1.5.3.9.6 1.4.8.5.2.9.3 1.4.3l.3.3z"></path> <path class="st0" d="M433.9 158.7c.2-.5.3-.9.4-1.2.1-.3.1-.5.1-.6 0-.2 0-.3-.1-.4l-.3-.3c-.1-.1-.3-.1-.4-.2s-.3-.1-.5-.1v-.1l2.4.1c.6 0 1.1 0 1.7-.1.6 0 1-.1 1.4-.1v.1c-.8.1-1.4.3-1.9.6s-.9.8-1.2 1.5l-4.2 9.7c-.4.8-.7 1.5-1 2-.3.5-.7.9-1 1.2-.3.3-.7.5-1.1.5-.4.1-.7.1-1.1.1-.4 0-.8-.1-1.1-.2-.3-.1-.5-.3-.7-.5-.2-.2-.3-.4-.4-.7-.1-.3-.1-.5-.1-.8 0-.1 0-.2.1-.4s.1-.3.2-.5.2-.3.4-.4c.2-.1.4-.2.7-.2.2 0 .4 0 .6.1.1.1.3.1.4.2.1.1.1.2.2.3 0 .1.1.2.1.3 0 .1 0 .2-.1.4-.1.1-.1.3-.2.4-.1.2-.1.4 0 .7.1.2.3.3.6.3s.6-.1.8-.4c.3-.2.5-.5.8-.9.2-.3.4-.7.6-1 .2-.4.3-.7.4-.9-.2-.3-.3-.8-.6-1.3-.2-.5-.5-1.1-.8-1.7-.3-.6-.6-1.3-.9-2-.3-.7-.6-1.4-1-2.1-.3-.7-.6-1.3-.9-1.9-.3-.6-.6-1.1-.8-1.5-.2-.4-.6-.6-1-.8-.4-.1-.9-.2-1.4-.3v-.2c.2 0 .5 0 .8.1.3 0 .6 0 .9.1h4c.3 0 .7 0 1-.1v.2c-.2 0-.3.1-.5.1s-.3.1-.5.1c-.1.1-.3.1-.4.2-.1.1-.1.2-.1.4v.2c.1.5.3 1.1.6 1.8s.5 1.3.8 2l.9 2.1c.3.7.6 1.3.9 1.9l2.5-5.8z"></path> <path class="st0" d="M452.9 170.6c-.3 0-.6 0-.9-.1h-4c-.3 0-.7 0-1 .1v-.2c.1 0 .3-.1.5-.1s.3-.1.5-.1c.1-.1.3-.1.3-.3.1-.1.1-.3.1-.5s-.1-.4-.2-.6c-.1-.3-.3-.5-.5-.9-.2-.3-.4-.6-.6-1-.2-.4-.4-.7-.7-1.1-.2-.4-.4-.7-.6-1-.2-.3-.3-.5-.4-.6-.1.1-.2.3-.4.6s-.4.6-.7 1c-.3.4-.5.7-.8 1.1-.3.4-.5.7-.6 1-.2.3-.3.5-.4.7-.1.2-.2.4-.2.5-.1.2-.1.4 0 .6.1.1.2.3.3.4.1.1.3.2.5.2.2.1.4.1.5.1v.1c-.4 0-.8 0-1.2-.1-.3 0-.7-.1-1.2-.1h-3.5v-.1c.8-.1 1.4-.3 2-.6.5-.4 1-.8 1.4-1.3.1-.1.2-.3.4-.5s.3-.5.5-.7c.2-.3.4-.5.6-.8l.6-.9c.5-.7 1-1.4 1.6-2.2-.3-.5-.7-1.1-1-1.6-.3-.5-.6-.9-.9-1.5-.3-.5-.6-1-.8-1.4-.1-.1-.2-.3-.3-.5-.1-.2-.3-.4-.4-.6-.1-.2-.3-.4-.4-.6-.1-.2-.2-.3-.3-.4-.3-.3-.7-.6-1-.7-.4-.1-.8-.2-1.3-.3v-.2c.2 0 .5 0 .8.1.3 0 .6 0 .9.1h4c.3 0 .7 0 1-.1v.2c-.2 0-.3.1-.5.1s-.3.1-.5.1c-.1.1-.3.1-.3.3-.1.1-.1.3-.1.5s.1.4.2.6c.1.3.3.5.5.9.2.3.4.6.5.9.2.3.4.6.5.9.2.3.3.6.5.8l.3.6c.1-.1.2-.2.3-.5.2-.2.3-.5.5-.8.2-.3.4-.6.6-1 .2-.3.4-.7.6-.9l.6-1.2c.1-.2.1-.4 0-.6-.1-.1-.2-.3-.3-.4-.1-.1-.3-.2-.5-.2-.2-.1-.4-.1-.5-.1v-.1h1.2c.3.1.7.1 1.2.1.6 0 1.1 0 1.7-.1.6 0 1-.1 1.4-.1v.1c-.4 0-.7.1-1 .3-.3.1-.6.3-.8.5-.2.2-.5.4-.7.7-.2.3-.4.5-.6.8-.2.3-.5.7-.8 1.1-.3.5-.7 1-1 1.4-.4.5-.8 1.1-1.2 1.8.4.6.8 1.3 1.1 1.9.3.5.6 1.1 1 1.6.3.6.6 1.1.9 1.5.1.1.2.3.3.5.1.2.3.4.4.6.1.2.3.4.4.6.1.2.2.3.3.4.3.3.7.6 1 .7.4.1.8.2 1.3.3v.2c-.1.2-.4.2-.7.1z"></path> <path class="st0" d="M471 170.6H464.7v-.1c.4-.1.7-.1 1-.2.3-.1.5-.2.7-.3.2-.1.3-.3.4-.5.1-.2.2-.5.2-.9v-.9-1.4-1.6-1.5h-7.9v5.5c0 .3.1.5.2.7.1.2.2.4.4.5.2.1.4.2.7.3.3.1.7.1 1.2.2v.1H454.5v-.1c.4-.1.7-.1 1-.2.3-.1.5-.2.7-.3.2-.1.3-.3.4-.5.1-.2.2-.5.2-.9v-1.3-1.9-1.9-1.4-.9-.8-1-1.6c0-.4-.1-.7-.2-.9-.1-.2-.3-.4-.5-.5-.2-.1-.5-.2-.8-.3-.3-.1-.6-.1-1-.2v-.1h1.8c.3 0 .7 0 1 .1h4.2v.1c-.4 0-.8.1-1.1.2-.3.1-.5.2-.7.3-.2.1-.3.3-.4.5-.1.2-.1.5-.2.8v4.7H466.8v-1.3-1-.8-.8-.8c0-.4-.1-.7-.2-.9-.1-.2-.3-.4-.5-.5-.2-.1-.4-.2-.7-.3-.3-.1-.6-.1-1-.2v-.1h1.8c.3 0 .7 0 1 .1h4.2v.1c-.4 0-.8.1-1.1.2-.3.1-.5.2-.7.3-.2.1-.3.3-.4.5-.1.2-.1.5-.2.8V168.6c0 .3.1.5.2.7.1.2.2.4.4.5.2.1.4.2.7.3.3.1.7.1 1.2.2v.1c0 .2-.2.2-.5.2z"></path> <path class="st0" d="M491.4 170.6H485.1v-.1c.4-.1.7-.1 1-.2.3-.1.5-.2.7-.3.2-.1.3-.3.4-.5.1-.2.2-.5.2-.9v-1.3-1.9-1.9-3.9c-1.8 1.6-3.3 3.2-4.8 4.7-1.4 1.5-2.8 2.8-4.1 4.1v.5c0 .3.1.5.2.7.1.2.2.4.4.5.2.1.4.2.8.3.3.1.7.1 1.2.2v.1H474v-.1c.4-.1.7-.1 1-.2.3-.1.5-.2.7-.3.2-.1.3-.3.4-.5.1-.2.2-.5.2-.9v-1.3-1.9-1.9-1.4-1.1-1.1-1.1-1c0-.4-.1-.7-.2-.9-.1-.2-.3-.4-.5-.5-.2-.1-.4-.2-.7-.3-.3-.1-.6-.1-1-.2v-.1h1.8c.3 0 .7 0 1 .1h4.2v.1c-.4 0-.8.1-1.1.2-.3.1-.5.2-.7.3-.2.1-.3.3-.4.5-.1.2-.1.5-.2.8V167.1c1.5-1.4 3-2.9 4.5-4.4 1.5-1.5 2.9-3 4.4-4.5v-.3c0-.4-.1-.7-.2-.9-.1-.2-.3-.4-.5-.5-.2-.1-.4-.2-.7-.3-.3-.1-.6-.1-1-.2v-.1h1.8c.3 0 .7 0 1 .1h4.2v.1c-.4 0-.8.1-1.1.2-.3.1-.5.2-.7.3-.2.1-.3.3-.4.5-.1.2-.1.5-.2.8V168.8c0 .3.1.5.2.7.1.2.2.4.4.5.2.1.4.2.7.3.3.1.7.1 1.2.2v.1h-.7z"></path> <path class="st0" d="M204 113.4c0-.1-.1-.1-.1-.1-.1 0-.1 0-.1.1-.1 2-.9 3.8-2.1 5.3-1.2 1.5-2.8 2.7-4.5 3.6-.8.5-1.7.8-2.6 1.2-.9.3-1.8.6-2.8.8-1.9.4-3.8.6-5.7.5-1.9 0-3.8-.3-5.7-.8-1.8-.5-3.6-1.2-5.2-2.1-1.6-1-3-2.2-4.1-3.6-1.1-1.4-1.7-3.1-1.8-4.9 0-.6-.5-1-1.1-1-.6 0-1 .5-1 1.1 0 .9-.1 1.8-.4 2.6-.3.9-.7 1.7-1.2 2.4-1 1.5-2.5 2.8-4.1 3.8-1.6 1-3.4 1.8-5.3 2.3-.9.3-1.9.4-2.9.6-1 .1-1.9.2-2.9.2s-2 0-2.9-.2c-1-.1-1.9-.3-2.9-.5-1.9-.5-3.7-1.2-5.4-2.2-.8-.5-1.6-1.1-2.3-1.7-.7-.6-1.4-1.4-1.9-2.1-.8-1.2-1.4-2.6-1.6-4 0-.4.1-.9.1-1.3s-.3-.7-.7-.7h-.1c-.4 0-.7.3-.6.7 0 .3 0 .5.1.8-.2 1.6-.9 3-1.8 4.3-1.1 1.5-2.6 2.6-4.3 3.5-3.3 1.8-7.2 2.6-10.9 2.6-1.9 0-3.8-.3-5.6-.7-1.8-.5-3.6-1.2-5.2-2.1-1.6-.9-3-2.1-4-3.6-1.1-1.4-1.6-3.1-1.7-4.8 0-.7-.6-1.3-1.3-1.3-.7 0-1.3.6-1.3 1.3 0 .9-.2 1.8-.5 2.7-.3.9-.8 1.7-1.4 2.4-.6.8-1.3 1.4-2.1 2.1-.8.6-1.6 1.2-2.5 1.6-1.8 1-3.7 1.6-5.7 2-2 .4-4.1.6-6.1.5-2.1-.1-4.1-.5-6-1.2-1.9-.7-3.7-1.8-5.1-3.3-1.5-1.4-2.6-3.2-3.4-5.1-.8-1.9-1.2-4-1.3-6.1 0-.2-.1-.3-.3-.3-.2 0-.3.1-.3.3 0 1.2.1 2.4.3 3.6v.7c0 .1 0 .1.1.1.1.7.3 1.4.6 2 .7 2.1 1.8 4.1 3.3 5.7.8.8 1.6 1.6 2.5 2.2.9.7 1.9 1.2 2.9 1.6 1 .4 2.1.8 3.2 1.1 1.1.3 2.2.4 3.3.5 2.2.2 4.5.1 6.7-.2 2.2-.4 4.4-1 6.4-2 1-.5 2-1.1 2.9-1.8.9-.7 1.8-1.5 2.5-2.4.4-.5.8-1.1 1.1-1.7.3.5.5.9.9 1.3 1.3 1.8 3 3.2 4.9 4.2 3.7 2.1 8 3 12.1 2.9 2.1 0 4.2-.3 6.2-.8s4-1.3 5.8-2.4c1.8-1.1 3.4-2.5 4.7-4.3.5-.7.9-1.5 1.3-2.4.4.8.8 1.5 1.3 2.2.6.8 1.4 1.6 2.2 2.2.8.7 1.6 1.2 2.5 1.7 1.8 1 3.7 1.7 5.7 2.2 2 .5 4 .7 6 .7s4.1-.2 6-.6c2-.4 3.9-1.1 5.8-2.1 1.8-1 3.5-2.3 4.8-4 .4-.5.8-1.1 1.1-1.7.3.7.7 1.3 1.1 1.8 1.3 1.8 3 3.2 4.8 4.2 1.8 1 3.8 1.8 5.8 2.3 2 .5 4.1.7 6.2.6 2.1 0 4.1-.3 6.1-.9 2-.5 3.9-1.3 5.7-2.4 1.8-1.1 3.3-2.5 4.5-4.2.6-.9 1-1.8 1.3-2.8-.1-.7 0-1.7 0-2.7z"></path> <path class="st0" d="M461.3 125.5c-1.4-.1-2.7-.3-4-.7-1.3-.4-2.5-.9-3.7-1.6-1.1-.7-2.1-1.6-2.8-2.6-.7-1-1.1-2.2-1.1-3.5 0-.4-.3-.7-.7-.7-.4 0-.7.3-.7.7 0 1.2-.5 2.4-1.2 3.4-.8 1-1.7 1.8-2.9 2.5-2.2 1.3-4.9 2-7.5 2.1-2.7.1-5.4-.4-7.8-1.7-1.2-.7-2.2-1.5-3-2.6-.6-.9-1.1-1.9-1.2-2.9v-.8c0-.2-.1-.3-.3-.3h-.1c-.2 0-.3.1-.3.3v.6c-.1 1.1-.6 2.1-1.3 3-.8 1-1.9 1.8-3 2.5-2.3 1.2-5 1.7-7.7 1.7-2.6-.1-5.3-.7-7.5-2-1.1-.7-2.1-1.5-2.8-2.5-.7-1-1.1-2.1-1.1-3.3 0-.5-.4-.9-.9-.9s-.9.4-.9.9c0 1-.3 2.1-.9 3-.6.9-1.4 1.7-2.3 2.4-1.9 1.3-4.1 2.1-6.4 2.4-.8.1-1.7.2-2.5.1-6.9-.3-11.2-5.5-12-6.6-1-1.4-1.6-3-1.6-4.7 0-.7-.6-1.3-1.3-1.3-.7 0-1.3.6-1.3 1.3 0 1.7-.6 3.3-1.6 4.7-1 1.4-2.4 2.6-3.9 3.5-3.1 1.9-6.9 2.8-10.6 2.9-1.7 0-3.5-.1-5.2-.4-6.1-1.4-9.1-4.7-10.2-6.2-1.1-1.5-1.9-3.3-2-5.1 0-.2-.2-.5-.4-.5-.3 0-.6.2-.6.4-.2 1.2-.5 2.3-.9 3.5-.4 1.1-.9 2.3-1.5 3.3v.1h.1c.8-.9 1.5-2 2-3.1.2-.4.3-.7.5-1.1.3 1.2.8 2.4 1.6 3.4 1 1.4 2.3 2.6 3.7 3.5.4.3.9.6 1.3.9 1 .6 2 1.1 3.1 1.6.8.3 1.6.6 2.4.8 2 .5 4 .8 6 .9 4 0 8.2-.7 11.8-2.8 1.8-1 3.5-2.4 4.8-4.1.3-.4.6-.8.8-1.3.3.5.5.9.8 1.3 1.3 1.8 3 3.1 4.8 4.2 2.1 1.2 5.8 3.2 12.3 2.1 2.4-.2 4.8-1 6.9-2.3 1.1-.7 2.1-1.7 2.8-2.8.1-.2.2-.3.3-.5l.6.9c.9 1.2 2.1 2.2 3.4 2.9 2.6 1.4 5.5 2 8.4 2 2.9 0 5.7-.8 8.2-2.3 1.2-.8 2.3-1.7 3.1-2.9.4-.6.8-1.3 1-2 .2.7.6 1.3 1 1.9.8 1.1 2 2.1 3.2 2.8 2.4 1.4 5.2 2.2 8.1 2.3 2.8.1 5.8-.4 8.3-1.9 1.3-.7 2.4-1.7 3.3-2.9.3-.4.5-.8.8-1.3.2.4.5.8.8 1.2.9 1.2 2.1 2.1 3.4 2.8 1.3.7 2.6 1.1 4 1.4 1.4.3 2.8.3 4.2.2 0-.1 0-.1-.1-.2.1 0 .1 0 0 0z"></path> <path class="st0" d="M216.8 118.4c0 1.4-.3 2.8-.9 4.1-.6 1.4-1.4 2.5-2.4 3.5-.5.5-1.2 1-1.9 1.4-.7.4-1.5.6-2.3.6-.8 0-1.5-.3-2-.8s-.9-1.1-1.2-1.9c-.3-.7-.4-1.5-.5-2.3-.1-.8-.1-1.5-.1-2.1 0-2.9.3-5.8.9-8.7.6-2.9 1.3-5.7 2.1-8.5.3-.9.5-1.8.8-2.7l.9-2.7c.1-.3.2-.5.3-.8.1-.2.2-.4.4-.6.1-.2.3-.3.5-.4.2-.1.5-.3.7-.4l.6-.3c.2-.1.4-.1.7-.1.3 0 .5.1.6.2.1.2.2.4.2.6 0 .2 0 .5-.1.9-.1.3-.2.7-.3 1l-.3.9c-.1.3-.2.6-.3.8-.8 2.2-1.6 4.4-2.3 6.7-.7 2.3-1.2 4.6-1.6 6.9-.2 1.2-.4 2.3-.6 3.5-.2 1.2-.3 2.3-.3 3.5v1.3c0 .6.1 1.2.2 1.9.1.6.3 1.2.5 1.6.2.5.6.7 1.1.7.3 0 .6-.1.9-.3.3-.2.5-.4.7-.6.4-.3.7-.8 1-1.3.3-.5.6-1.1.9-1.7.3-.6.5-1.2.6-1.8.2-.6.2-1.2.2-1.6 0-1.2-.3-2-1-2.5s-1.6-.7-2.7-.7c-.2 0-.4-.1-.6-.4-.2-.2-.3-.5-.3-.7 0-.4.2-.6.5-.8.3-.2.6-.2.9-.3h2.2c.7 0 1.4-.1 2.2-.2.7-.1 1.4-.2 2.2-.2h.1c.2 0 .4 0 .6.2.2.2.3.3.3.6s-.1.4-.4.6c-.2.2-.5.3-.9.4-.3.1-.7.2-1 .2-.3 0-.6.1-.8.1.7 1.3 1 2.2 1 3.2z"></path> <path class="st0" d="M222.5 142c-.4-.2-.7-.5-.9-.9-.2-.4-.4-.8-.5-1.3-.1-.5-.2-1-.2-1.4 0-1.2.3-2.4 1-3.6.6-1.2 1.4-2.3 2.4-3.4s2-2 3.1-2.9c1.1-.9 2.1-1.6 3.1-2.3v-1-1.1c0-1.9 0-3.7-.1-5.6-.3.5-.8 1.2-1.5 2s-1.4 1.7-2.3 2.5c-.8.8-1.7 1.5-2.5 2.1-.8.6-1.6.9-2.2.9-.4 0-.7-.1-1-.3-.3-.2-.5-.4-.6-.7l-.3-.9c0-.4-.1-.7-.1-1 0-1.1.1-2.2.4-3.3.3-1.1.6-2.2.9-3.2.1-.2.1-.5.2-.7.1-.2.2-.5.3-.7.1-.3.3-.5.5-.7s.5-.3.8-.3c.4 0 .8.1 1.1.4.3.3.5.6.5 1.1 0 .3-.1.7-.3 1.1-.2.4-.4.8-.5 1.1-.1.3-.3.7-.5 1.2s-.4 1-.5 1.6c-.2.6-.3 1.1-.4 1.6-.1.5-.2.9-.2 1.3v.5c0 .2.1.3.3.3.1 0 .3-.1.6-.3.2-.2.5-.4.7-.6.3-.2.5-.4.7-.7l.5-.5c1-1 1.9-2.1 2.7-3.2s1.7-2.2 2.6-3.4c.2-.2.4-.4.6-.7.2-.2.5-.4.7-.4.2 0 .5.1.7.3.1.1.3.3.3.7.1.4.1.8.2 1.2 0 .4.1.9.1 1.3v.9c0 1.6 0 3.3-.1 5-.1 1.7-.2 3.4-.5 5.1-.3 1.7-.6 3.3-1.1 4.9-.5 1.6-1.2 3.1-2.1 4.5-.3.5-.6.9-1 1.4-.4.4-.8.8-1.3 1.2-.5.3-1 .6-1.5.8-.5.2-1.1.3-1.7.3-.2.2-.7 0-1.1-.2zm5.2-12c-.9.8-1.7 1.6-2.5 2.5-.8.9-1.4 1.9-1.9 2.9s-.8 2.1-.8 3.1c0 .2 0 .5.1.7 0 .3.1.5.2.8.1.2.3.4.4.6.2.2.4.2.7.2.3 0 .6-.1.9-.2.3-.1.5-.3.8-.5s.5-.5.7-.7c.2-.3.4-.5.6-.7.5-.6.9-1.4 1.3-2.3.4-.9.7-1.9 1-2.9.3-1 .5-2 .7-3 .2-1 .3-1.9.4-2.7-.8.7-1.7 1.4-2.6 2.2z"></path> <path class="st0" d="M268.1 116.3c-.1 0-.3.4-.7 1.1-.4.7-.8 1.6-1.3 2.6s-1.1 2.1-1.8 3.3c-.7 1.2-1.3 2.3-2 3.3s-1.4 1.9-2.1 2.6c-.7.7-1.4 1-2 1-.5 0-.9-.2-1.2-.5-.3-.3-.6-.7-.7-1.1-.3-.8-.6-1.7-.7-2.7-.2-1-.3-2.1-.4-3.2-.1-1.1-.1-2.2-.1-3.2v-2.9-.2c0-.1 0-.1-.1-.1 0 0-.1 0-.1.1s0 .2-.1.2c-.2.8-.5 1.7-.8 2.7-.3 1-.7 2-1.1 3.1-.4 1-.9 2.1-1.4 3.1-.5 1-1.1 1.9-1.8 2.7-.7.8-1.5 1.4-2.3 1.9-.8.5-1.8.7-2.8.7h-.5c-.2 0-.4-.1-.5-.1-.2-.1-.3-.2-.4-.3-.1-.1-.2-.3-.2-.5s.1-.4.2-.5c.1-.1.3-.2.5-.2.3 0 .5 0 .8.1.3.1.5.1.8.1 1 0 1.9-.4 2.7-1.3.9-.9 1.7-2 2.4-3.4s1.4-2.9 2-4.6c.6-1.7 1.1-3.4 1.5-5 .4-1.6.7-3.1.9-4.5.2-1.4.3-2.5.3-3.2 0-.5 0-1-.1-1.5 0-.5-.2-1-.3-1.5v-.2c0-.2.1-.4.3-.6.2-.2.5-.4.8-.5.3-.2.6-.3.9-.4.3-.1.6-.1.7-.1.4 0 .7.1 1 .2.2.1.4.4.5.8.1.4.2.9.3 1.4 0 .5.1 1 .1 1.5v1.1c0 2.4 0 4.8-.1 7.2-.1 2.4-.1 4.7-.1 7.2v2.7c0 .6.1 1.1.2 1.5.1.4.2.7.4.7.1 0 .2-.1.4-.2l.4-.4c.1-.2.3-.3.4-.5.1-.2.2-.3.3-.4.5-.8 1-1.7 1.5-2.6.5-.9.9-1.7 1.4-2.6.7-1.3 1.3-2.6 2-3.9.6-1.3 1.2-2.6 1.9-3.9.3-.6.6-1.3.9-1.9.3-.6.5-1.3.7-1.9 0-.2.1-.5.1-.7 0-.3.1-.5.2-.8.1-.3.2-.5.3-.7.1-.2.3-.4.5-.5.3-.1.6-.2.9-.2.4 0 .7.2.7.5.1.4.1.7.1 1 0 .6 0 1.1-.1 1.6s-.2 1.1-.3 1.6c-.3 1.6-.5 3.2-.6 4.9-.2 1.6-.2 3.3-.2 4.9 0 .3 0 .6.1 1.1 0 .5.1 1 .2 1.5s.3.9.5 1.3.5.5.9.5c.5 0 1-.2 1.4-.5.4-.3.8-.7 1.2-1.2.4-.5.7-1 1-1.5.3-.5.6-.9.8-1.3.1-.1.2-.3.3-.4.1-.1.3-.2.5-.2.1 0 .2 0 .4.1.1.1.2.2.2.4s0 .3-.1.5c-.1.1-.1.3-.2.4-.2.5-.6 1.1-1 1.7-.4.7-1 1.3-1.5 1.9-.6.6-1.2 1.1-1.8 1.5-.6.4-1.2.6-1.8.6-.6 0-1.2-.2-1.6-.6-.4-.4-.8-.9-1.1-1.5-.3-.6-.5-1.3-.7-2.1-.2-.8-.3-1.5-.3-2.3-.1-.8-.1-1.5-.1-2.1v-1.7h-.4z"></path> <path class="st0" d="M281.1 118.1c-.4-.4-.9-.6-1.5-.8-.2.5-.4 1.1-.6 1.7-.2.6-.5 1.2-.8 1.7-.3.6-.6 1.1-.9 1.7-.3.5-.7 1-1.1 1.4-.1.1-.3.2-.4.4-.2.1-.4.2-.5.2-.3 0-.5-.2-.5-.5 0-.1 0-.3.1-.4.1-.1.1-.3.2-.4.7-1 1.4-2.1 2-3.1.6-1.1 1-2.2 1.1-3.5-.3-.4-.6-.9-.7-1.4-.1-.5-.2-1.1-.2-1.6 0-.3 0-.7.1-1.1.1-.5.2-.9.4-1.3s.4-.8.7-1.1c.3-.3.6-.5.9-.5.3 0 .5.1.6.3.1.2.3.5.4.8.1.3.2.6.2.9v.8c0 .6 0 1.2-.1 1.7.3.4.7.8 1.2 1.1.5.3 1 .6 1.4.9.5.3.9.7 1.2 1.2s.5 1.1.5 1.9c0 .4-.1.9-.2 1.4-.2.8-.4 1.7-.5 2.5-.1.8-.2 1.7-.2 2.6 0 .2 0 .5.1.9s.3.5.6.5c.4 0 .9-.2 1.4-.6.5-.4 1.1-.9 1.6-1.5s1-1.1 1.5-1.7c.5-.6.8-1 1-1.4.1-.2.3-.4.4-.6.2-.2.3-.3.6-.3.2 0 .4.1.4.2.1.2.1.3.1.5 0 .1 0 .3-.1.4-.1.1-.1.2-.2.4-.3.5-.7 1-1.3 1.7-.6.7-1.2 1.4-1.9 2-.7.7-1.4 1.2-2.1 1.7-.7.5-1.4.7-1.9.7-.6 0-1.1-.2-1.4-.6-.3-.4-.6-.8-.8-1.3-.2-.5-.3-1.1-.3-1.6s-.1-1.1-.1-1.5c0-.7 0-1.3.1-2s.1-1.3.1-2c0-.5-.2-1-.6-1.4z"></path> <path class="st0" d="M293.4 123.9c0 .4.1.7.1 1.1.1.4.2.7.4.9.2.3.4.4.7.4.5 0 1-.2 1.6-.7.6-.4 1.1-1 1.7-1.6.5-.6 1-1.3 1.5-1.9.4-.7.8-1.2 1-1.6.1-.2.3-.4.4-.6.2-.2.4-.3.6-.3s.4.1.4.3c0 .2.1.4.1.5 0 .1 0 .3-.1.4-.1.2-.2.3-.3.5-.1.2-.2.4-.3.5-.1.2-.2.3-.3.4-.3.5-.8 1.1-1.3 1.7-.5.7-1.1 1.3-1.8 1.9s-1.3 1.1-2 1.5c-.7.4-1.3.6-2 .6s-1.3-.2-1.7-.7c-.4-.4-.8-1-1-1.6-.2-.6-.4-1.3-.5-2-.1-.7-.1-1.3-.1-1.9 0-.7.1-1.4.2-2.3.2-.8.3-1.6.5-2.2.2-.7.5-1.2.9-1.7.4-.4 1-.7 1.7-.7.6 0 .8.3.8.8 0 .2 0 .5-.1.9-.1.3-.2.7-.3 1-.1.4-.2.7-.4 1.1-.1.4-.2.7-.3.9-.2 1-.3 2.1-.3 3.2.2.5.2.8.2 1.2zm2.3-13.9c.2.3.3.6.3 1 0 .5-.2.9-.5 1.3s-.8.6-1.2.6c-.4 0-.7-.1-.9-.4-.2-.3-.3-.6-.3-1 0-.5.2-.9.5-1.3s.7-.6 1.2-.6c.4-.1.7.1.9.4z"></path> <path class="st0" d="M302.2 142c-.4-.2-.7-.5-.9-.9-.2-.4-.4-.8-.5-1.3-.1-.5-.2-1-.2-1.4 0-1.2.3-2.4 1-3.6.6-1.2 1.4-2.3 2.4-3.4s2-2 3.1-2.9c1.1-.9 2.1-1.6 3.1-2.3v-1-1.1c0-1.9 0-3.7-.1-5.6-.3.5-.8 1.2-1.5 2s-1.4 1.7-2.3 2.5c-.8.8-1.7 1.5-2.5 2.1-.8.6-1.6.9-2.2.9-.4 0-.7-.1-1-.3-.3-.2-.5-.4-.6-.7l-.3-.9c0-.4-.1-.7-.1-1 0-1.1.1-2.2.4-3.3.3-1.1.6-2.2.9-3.2.1-.2.1-.5.2-.7.1-.2.2-.5.3-.7.1-.3.3-.5.5-.7.2-.2.5-.3.8-.3.4 0 .8.1 1.1.4.3.3.5.6.5 1.1 0 .3-.1.7-.3 1.1-.2.4-.4.8-.5 1.1-.1.3-.3.7-.5 1.2s-.4 1-.5 1.6c-.2.6-.3 1.1-.4 1.6-.1.5-.2.9-.2 1.3v.5c0 .2.1.3.3.3.1 0 .3-.1.6-.3.2-.2.5-.4.7-.6.3-.2.5-.4.7-.7s.4-.4.5-.5c1-1 1.9-2.1 2.7-3.2s1.7-2.2 2.6-3.4c.2-.2.4-.4.6-.7.2-.2.5-.4.7-.4.2 0 .5.1.7.3.1.1.3.3.3.7.1.4.1.8.2 1.2 0 .4.1.9.1 1.3v.9c0 1.6 0 3.3-.1 5-.1 1.7-.2 3.4-.5 5.1-.3 1.7-.6 3.3-1.1 4.9-.5 1.6-1.2 3.1-2.1 4.5-.3.5-.6.9-1 1.4-.4.4-.8.8-1.3 1.2-.5.3-1 .6-1.5.8-.5.2-1.1.3-1.7.3-.3.2-.7 0-1.1-.2zm5.2-12c-.9.8-1.7 1.6-2.5 2.5s-1.4 1.9-1.9 2.9-.8 2.1-.8 3.1c0 .2 0 .5.1.7 0 .3.1.5.2.8.1.2.3.4.4.6.2.2.4.2.7.2.3 0 .6-.1.9-.2.3-.1.5-.3.8-.5s.5-.5.7-.7c.2-.3.4-.5.6-.7.5-.6.9-1.4 1.3-2.3.4-.9.7-1.9 1-2.9.3-1 .5-2 .7-3 .2-1 .3-1.9.4-2.7-.9.7-1.7 1.4-2.6 2.2z"></path> <path class="st0" d="M331.6 123.9c.7-1.4-.5-1.1-1.6-.2-.3.3-.5.6-.8.9-.5.5-1 1-1.6 1.4-.5.4-1 .6-1.5.6-.3 0-.5-.2-.7-.5-.2-.3-.3-.7-.3-1.1-.1-.4-.1-.8-.1-1.2v-.9c0-.6 0-1.3.1-2s.2-1.4.4-2c.1-.3.2-.6.4-1.1.2-.4.3-.8.3-1.1 0-.2-.1-.4-.3-.5-.2-.1-.4-.1-.6-.1-.3 0-.6.1-.8.3-.2.2-.3.5-.5.7-.1.2-.3.6-.5 1.1s-.5 1-.8 1.6c-.3.6-.6 1.2-1 1.8-.4.6-.7 1.2-1.1 1.7s-.7.9-1.1 1.2c-.3.3-.6.5-.9.5-.2 0-.4-.1-.4-.3 0-.2-.1-.4-.1-.5 0-1.4.3-2.7.8-3.9.6-1.2 1.3-2.3 2.3-3.3.5-.6 1.1-1 1.7-1.5.6-.4 1.2-.8 1.9-1.2.1 0 .2-.1.3-.2.1-.1.1-.2.1-.3 0-.3-.1-.5-.4-.8-.3-.2-.5-.4-.8-.4-1.1 0-2.1.4-3.1 1.1-1 .7-1.9 1.6-2.6 2.7-.8 1.1-1.4 2.2-1.8 3.4-.5 1.2-.7 2.3-.7 3.2 0 .3 0 .7.1 1.2l.3 1.2c.2.4.4.7.7 1 .3.3.7.4 1.1.4.5 0 1-.2 1.5-.5s1-.8 1.4-1.3c.5-.5.9-1 1.3-1.6.4-.5.7-1 .9-1.4v1.6c0 .6.2 1.3.4 1.9.2.6.5 1.1.8 1.5.4.4.8.6 1.5.6.6 0 1.3-.2 1.9-.5.6-.4 1.2-.8 1.8-1.3.6-.5 1.1-1.1 1.6-1.7.2.2.4 0 .5-.2z"></path> <path class="st0" d="M491.9 107.1c-2.1 0-4.1.1-6.2.2-.9-.9-1.7-1.8-2.6-2.7l-2.8-2.8-.1-.1c-.2-.2-.5-.3-.7-.3l-2.8.2c-.3 0-.6 0-.9.1-1.1-.9-5.2-4.6-6.3-5.6l-.6-.2c-.1 0-.1 0-.2-.1h-5.8c0-.5.1-1 .1-1.5 0-.8.1-1.6.1-2.4 0-.2-.1-.4-.3-.5l-.1-.1c-1.3-.7-2.7-1.3-4-1.9-1.3-.6-2.7-1.2-4.1-1.8-.1-.1-.3-.1-.4-.1-.7 0-1.2.5-1.3 1.2v.1c0 1.3-.1 2.7-.1 4v2.6h-1.6c-1 0-2 .1-3 .2h-.2c-.4 0-.8.3-.9.7-.7 2-1.3 4.1-1.9 6.1-.3 1-.7 2-1 3-.2.5-.4 1-.6 1.6l-6 .3h-.2c-.7 0-1.2.6-1.1 1.3.1 1.2.2 2.4.3 3.5.1.6.1 1.2.2 1.8l.2 1.8v.1c0 .1 0 .2.1.2l.7.8c.2.3.5.5.7.8.5.5.9 1.1 1.4 1.6 0 0 .1.1.2 0 .1 0 .1-.1.1-.2-.3-.7-.6-1.3-.9-1.9-.2-.3-.3-.6-.5-1l-.4-.7.2-1.6c.1-.6.1-1.2.2-1.8.1-.7.1-1.4.2-2.2 4.1.2 8.3.4 12.4.3 2.3 0 12-.3 13-.2 3.4.1 6.9.2 10.3.2 3.4 0 13.9-.3 15.2-.3-.3.4-.5.9-.8 1.3-.7 1-1.6 1.9-2.6 2.7-1 .9-2 1.8-3 2.8-.9 1-1.7 2.2-2.2 3.5v.2c.1.1.2.1.2 0l.7-.7.7-.7.7-.6.8-.6c1.1-.8 2.2-1.4 3.3-2.2 1.1-.8 2.3-1.7 3.2-2.8 1-1.1 1.7-2.4 2.3-3.7.1-.2.1-.3.1-.5 0-.8-.6-1.4-1.4-1.4zm-46.8-1.4c.4-1 .9-1.9 1.3-2.9.8-1.7 1.6-3.3 2.4-5 .8 0 1.5.1 2.3.1 1 0 2 .1 3 .1.8 0 1.4-.6 1.4-1.4v-4c0-.7 0-1.5-.1-2.2.8.3 1.6.5 2.5.8l3.9 1.2c.1.6.2 1.2.3 1.9.1.5.2 1 .3 1.4h-1c-.4.2-.9.4-1.3.7-.1.1 0 .2 0 .3.7.5 3.3.6 4 .7.7 0 2.7.1 3.1.1h1.3c.5.3 2.3 2 2.3 2s1.8 1.5 2.8 2.2l.1.1c-.9.1-1.7.2-2.6.2-.9.1-1.9.2-2.8.3-.1 0-.1.1-.1.1 0 .1 0 .2.1.2.9.1 1.9.2 2.8.3.9.1 1.9.2 2.8.3.9.1 1.9.2 2.8.2l2.2.1c.7.9 1.5 1.8 2.2 2.8.1.1.2.3.4.4-2.3-.1-4.7-.1-7 0-3.4 0-6.9.2-10.3.2-1 0-2 .1-3.1.1-1-.1-2.1-.1-3.1-.1-2.3-.1-4.5-.2-6.8-.2h-6.5c.1-.2.2-.6.4-1z"></path> <path class="st0" d="M463.5 102.9v.2c0 .1 0 .2.1.3 0 .1 0 .2.1.2 0 .1 0 .1.1.2l.1.2s0 .1.1.1c0 .1.1.1.1.2.1.1.2-.1.3-.2 0-.1.1-.1.1-.2v-.2l.1-.2c0-.1.1-.3.1-.3 0-.1.1-.1.1 0 .1.1.2.6.3.8 0 .1.1.1.1.1s.1-.1.1-.2c0 0 0-.1.1-.2v-.2c0-.1 0-.2.1-.3v-.2-.2-.3-.4c0-.1 0-.2-.1-.3v-.1-.1c0-.1 0-.1-.1-.2 0-.1-.1-.1-.1-.2 0 0-.1 0-.1.1-.1.2-.2.7-.3.8 0 .1-.1 0-.1 0 0-.1-.1-.2-.1-.3l-.1-.2v-.2c0-.1-.1-.2-.1-.2-.1-.1-.2-.2-.3-.2 0 0-.1.1-.1.2 0 0 0 .1-.1.1l-.1.2s0 .1-.1.2c0 .1 0 .1-.1.2 0 .1 0 .2-.1.3v.7z"></path> <path class="st0" d="M458.8 102.9v.2c0 .1 0 .2.1.3 0 .1 0 .2.1.2 0 .1 0 .1.1.2l.1.2s0 .1.1.1c0 .1.1.1.1.2.1.1.2-.1.3-.2 0-.1.1-.1.1-.2v-.2l.1-.2c0-.1.1-.3.1-.3 0-.1.1-.1.1 0 .1.1.2.6.3.8 0 .1.1.1.1.1s.1-.1.1-.2c0 0 0-.1.1-.2v-.2c0-.1 0-.2.1-.3v-.2-.2-.3-.4c0-.1 0-.2-.1-.3v-.1-.1c0-.1 0-.1-.1-.2 0-.1-.1-.1-.1-.2 0 0-.1 0-.1.1-.1.2-.2.7-.3.8 0 .1-.1 0-.1 0 0-.1-.1-.2-.1-.3l-.1-.2v-.2c0-.1-.1-.2-.1-.2-.1-.1-.2-.2-.3-.2 0 0-.1.1-.1.2 0 0 0 .1-.1.1l-.1.2s0 .1-.1.2c0 .1 0 .1-.1.2 0 .1 0 .2-.1.3v.7z"></path> <path class="st0" d="M454.1 102.9v.2c0 .1 0 .2.1.3 0 .1 0 .2.1.2 0 .1 0 .1.1.2l.1.2s0 .1.1.1c0 .1.1.1.1.2.1.1.2-.1.3-.2 0-.1.1-.1.1-.2v-.2l.1-.2c0-.1.1-.3.1-.3 0-.1.1-.1.1 0 .1.1.2.6.3.8 0 .1.1.1.1.1s.1-.1.1-.2c0 0 0-.1.1-.2v-.2c0-.1 0-.2.1-.3v-.2-.2-.3-.4c0-.1 0-.2-.1-.3v-.1-.1c0-.1 0-.1-.1-.2 0-.1-.1-.1-.1-.2 0 0-.1 0-.1.1-.1.2-.2.7-.3.8 0 .1-.1 0-.1 0 0-.1-.1-.2-.1-.3l-.1-.2v-.2c0-.1-.1-.2-.1-.2-.1-.1-.2-.2-.3-.2 0 0-.1.1-.1.2 0 0 0 .1-.1.1l-.1.2s0 .1-.1.2c0 .1 0 .1-.1.2 0 .1 0 .2-.1.3v.7z"></path> <path class="st0" d="M449.4 102.9v.2c0 .1 0 .2.1.3 0 .1 0 .2.1.2 0 .1 0 .1.1.2l.1.2s0 .1.1.1c0 .1.1.1.1.2.1.1.2-.1.3-.2 0-.1.1-.1.1-.2v-.2l.1-.2c0-.1.1-.3.1-.3 0-.1.1-.1.1 0 .1.1.2.6.3.8 0 .1.1.1.1.1s.1-.1.1-.2c0 0 0-.1.1-.2v-.2c0-.1 0-.2.1-.3v-.2-.2-.3-.4c0-.1 0-.2-.1-.3v-.1-.1c0-.1 0-.1-.1-.2 0-.1-.1-.1-.1-.2 0 0-.1 0-.1.1-.1.2-.2.7-.3.8 0 .1-.1 0-.1 0 0-.1-.1-.2-.1-.3l-.1-.2v-.2c0-.1-.1-.2-.1-.2-.1-.1-.2-.2-.3-.2 0 0-.1.1-.1.2 0 0 0 .1-.1.1l-.1.2s0 .1-.1.2c0 .1 0 .1-.1.2 0 .1 0 .2-.1.3v.7z"></path> <path class="st0" d="M461.3 77.1c-.6-.8-1.3-1.5-2.1-2-.2-.9-.5-1.8-1-2.6-.3-.5-.7-.9-1.1-1.3-.4-.4-.9-.7-1.4-1-.3-.1-.5-.3-.8-.4-.3-.1-.6-.2-.8-.3l-.4-.1c-.1 0-.3 0-.4-.1h-.9c-.8 0-1.5.2-2.2.4-.5-.8-1.2-1.5-2-2.1-.6-.4-1.2-.7-1.8-.9-.6-.2-1.3-.3-2-.3-1.3 0-2.6.4-3.7 1.1-.9.6-1.7 1.4-2.2 2.3-.7-.4-1.5-.8-2.3-1-1-.3-2.1-.3-3.1-.2-2.1.2-4.2 1.4-5.5 3.3-.6.9-1.1 2-1.3 3.1 0 .3-.1.5-.1.8V77.5c0 .3.1.6.1.8.4 2.3 1.9 4.3 3.8 5.5 1 .6 2.1 1 3.3 1.2.3.1.6.1.9.1h.8c.6 0 1.2-.1 1.7-.3 1.1-.3 2.2-.9 3.1-1.6.2-.1.3-.3.5-.4 1.1 1.5 2.7 2.5 4.4 2.8 1.1.2 2.2.1 3.3-.3.8-.3 1.5-.7 2.1-1.2.2.3.4.5.6.8.4.4.9.8 1.4 1.1h.2c.1-.1.1-.2 0-.2-.4-.4-.7-.8-1-1.3-.3-.5-.4-1-.6-1.5 0-.1 0-.1-.1-.2-.2-.2-.5-.3-.7-.1l-.1.1c-.7.5-1.5.8-2.3.9-.4.1-.8.1-1.2 0-.4 0-.8-.1-1.1-.2-1.5-.5-2.6-1.7-3-3V80.2c0-.1-.1-.1-.1-.2-.1-.1-.2-.3-.3-.4-.5-.4-1.1-.6-1.7-.4-.3.1-.6.2-.8.4l-.3.3-.2.2c-1.9 2.5-9.1 4.7-10.6-1.5-1.1-4.6 1.8-6.9 4.3-7.9.3-.1.5-.2.8-.3.5-.1.9-.2 1.4-.2h1.1c.8.1 1.7.4 2.4.9h.1c.3.1.6 0 .7-.3.4-1 1.1-1.9 2.1-2.5.9-.6 2.1-.8 3.2-.7.5.1 1.1.2 1.5.4.5.2.9.5 1.3.9.7.7 1.2 1.7 1.4 2.6 0 .1 0 .1.1.2.2.5.8.8 1.4.6l.2-.1c.7-.3 1.5-.4 2.2-.3.7.1 1.4.2 2.1.6l.2.1.2.2c.2.1.3.2.4.3.3.2.5.5.7.8.4.6.7 1.3.8 2v.2c.1.4.3.7.7.9.8.3 1.5.8 2 1.4.6.6 1 1.4 1.2 2.3.2.9.2 1.8-.1 2.7-.2.9-.7 1.8-1.4 2.5 0 0-.1.1 0 .2 0 .1.1.1.2.1 1-.5 1.8-1.3 2.3-2.3.6-1 .8-2.2.8-3.4-.2-1.2-.6-2.4-1.3-3.4zm-21.9 4.4l.1.2c-.1-.1-.1-.1-.1-.2 0 .1 0 .1 0 0z"></path> <g> <path class="st0" d="M58.2 44.7c-.1-.7-.2-1.4-.4-2-.2-.6-.5-1-1-1.4-.4-.4-1.1-.7-1.8-1-.8-.3-1.8-.5-3.1-.6v-.4c.6 0 1.2.1 2 .1s1.6.1 2.4.1c.8 0 1.7 0 2.5.1h4.4c.7 0 1.5 0 2.2-.1.7 0 1.5 0 2.2-.1.7 0 1.4-.1 1.9-.1v.3c-.8.1-1.5.3-2.1.4-.6.2-1.2.4-1.6.8-.5.3-.8.8-1.1 1.4-.3.6-.4 1.4-.4 2.3 0 .5-.1 1.2-.1 2.1v2.6c0 .9 0 1.7.1 2.4 0 .7 0 1.3.1 1.6.2 1.9.5 3.4.9 4.7.4 1.2 1.3 2.2 2.7 2.9.5.3 1.3.5 2.4.6 1 .1 2.2.2 3.4.2 1.2 0 2.4 0 3.6-.1 1.2-.1 2.2-.2 3.1-.3v-2l-.1-5.7-.1-8.9c0-.9-.1-1.6-.3-2.1-.2-.6-.5-1-1-1.4-.5-.4-1.1-.6-1.9-.8-.8-.2-1.7-.4-2.8-.5v-.4c.6 0 1.2.1 2 .1.7 0 1.5.1 2.4.1.8 0 1.6 0 2.4.1h4.4c.8 0 1.6 0 2.5-.1.8 0 1.7 0 2.5-.1.8 0 1.5-.1 2.1-.1v.3c-1 .1-1.9.3-2.6.5-.8.2-1.4.4-1.9.8-.5.3-.9.8-1.2 1.4-.3.6-.4 1.3-.5 2.3 0 .7-.1 1.6-.1 2.5V69.5c0 1.6 0 2.7.1 3.5 0 1 .2 1.7.5 2.3.3.6.7 1 1.2 1.4.5.3 1.1.6 1.9.8.8.2 1.6.3 2.6.5v.3c-.6 0-1.3-.1-2.1-.1s-1.6 0-2.5-.1c-.8 0-1.7-.1-2.5-.1H81c-.9 0-1.7 0-2.6.1-.9 0-1.7 0-2.5.1-.8 0-1.5.1-2.1.1v-.4c1.3-.1 2.3-.3 3.2-.5.8-.2 1.5-.5 2-.8.5-.3.8-.8 1-1.3.2-.5.4-1.2.4-1.9.1-.6.1-1.5.1-2.7v-8.4c-.8.1-1.8.3-2.8.4s-2.2.2-3.3.2c-1.2.1-2.3.1-3.4.1s-2.1-.1-2.9-.2c-1.4-.2-2.7-.6-3.8-1.1s-2.1-1.1-2.9-1.9c-.8-.8-1.4-1.8-1.9-3-.4-1.2-.7-2.7-.8-4.5V51v-1.9c0-.7 0-1.4-.1-2.1-.2-1-.3-1.6-.4-2.3z"></path> <path class="st0" d="M126.5 76.7c-.1.5-.3.9-.5 1.1-.2.2-.5.3-1 .3-1.9 0-3.9-.1-5.9-.2-2-.1-4.3-.1-7-.1-1.7 0-3.7 0-6.1.1-2.3.1-4.6.1-6.9.2v-.4c1-.1 1.9-.3 2.6-.5.7-.2 1.3-.4 1.8-.8.5-.3.8-.8 1.1-1.4.2-.6.4-1.3.4-2.3 0-.7.1-1.9.1-3.5v-4.9-5-3.7-2.8-2.9V47c0-.9 0-1.8-.1-2.5 0-1-.2-1.7-.4-2.3-.3-.6-.6-1-1.1-1.4-.5-.3-1.1-.6-1.8-.8-.7-.2-1.6-.3-2.6-.5v-.4c.8.1 1.7.1 2.9.2 1.1 0 2.3.1 3.5.1 1.2 0 2.4.1 3.5.1h2.9l8-.1h2.3c.7 0 1.2 0 1.7-.1s.9-.2 1.2-.5c.3-.2.6-.5.9-1l.4.3c-.2.8-.3 1.7-.4 2.5-.1.9-.1 1.5-.2 1.9 0 .4-.1.8-.1 1.3s-.1 1-.1 1.5 0 1-.1 1.4v1.1h-.5c-.2-2-.8-3.5-1.8-4.7-1-1.1-2.6-1.7-4.8-1.8l-2.8-.1h-4.7v15.3h2.1c1 0 2 0 3.1-.1 1.2 0 2.6 0 4.1-.1.7 0 1.3-.1 1.7-.2.4-.2.8-.4 1.1-.6.3-.3.5-.6.7-1 .2-.4.4-.8.5-1.3.1 0 .1 0 .2.1l.1.1c-.1.4-.1.8-.2 1.2-.1.4-.1.9-.2 1.4-.1.5-.1.9-.1 1.3s-.1.7-.1 1v4.9l-.5-.1c0-.5-.1-1-.2-1.5s-.3-1-.5-1.5c-.3-.4-.7-.8-1.2-1.1-.5-.3-1.2-.5-2.1-.5l-8.7-.2v4.6l.1 7.3c0 1 .1 1.8.3 2.5.2.7.5 1.3.9 1.7.4.4 1.1.8 1.8 1 .8.2 1.8.3 3.1.2h1.2c.3 0 .6 0 .8-.1.2 0 .5 0 .7-.1.2 0 .6-.1 1.1-.1.8-.1 1.5-.3 2.2-.5.7-.2 1.3-.6 1.8-1.1.6-.5 1.1-1.2 1.6-2s1-1.9 1.4-3.2l.4.2-1.6 8zm-17.7-45.9c.8 0 1.4.3 2 .8.6.5.8 1.2.8 1.9 0 .8-.3 1.4-.8 2-.5.5-1.2.8-2 .8s-1.5-.3-2-.8-.8-1.2-.8-2c0-.7.3-1.4.8-1.9.6-.5 1.2-.8 2-.8zm11.9 2.8c0 .7-.3 1.4-.8 2-.5.6-1.2.8-2 .8-.7 0-1.4-.3-2-.8-.6-.6-.8-1.2-.8-2s.3-1.4.8-2c.6-.5 1.2-.8 2-.8s1.4.3 2 .8c.5.5.8 1.2.8 2z"></path> <path class="st0" d="M164.7 49.6c0 2-.5 3.8-1.4 5.5-1 1.6-2.2 3-3.7 4.2-1.5 1.1-3.2 2-5.1 2.6-1.9.6-3.7.8-5.6.7v-.5c1.4-.1 2.8-.4 4-.9 1.2-.5 2.3-1.1 3.2-2 .9-.8 1.6-1.8 2.1-3s.7-2.5.7-4.1c0-1.5-.2-2.9-.7-4.2-.5-1.4-1.1-2.5-2-3.6-.9-1-1.9-1.9-3.2-2.5-1.2-.7-2.6-1-4.2-1.1-.8-.1-1.6-.1-2.2 0l-.4.7v12.1l-.1 5.7.1 7.9v3.5c0 1.2 0 2.1.1 2.7.1.7.2 1.4.4 1.9s.6.9 1 1.3c.5.3 1.1.6 2 .8.8.2 1.9.4 3.2.5v.4c-.6 0-1.3-.1-2.1-.1s-1.7-.1-2.5-.1c-.9 0-1.8 0-2.6-.1h-4.5c-.8 0-1.7 0-2.5.1-.8 0-1.7.1-2.5.1s-1.5 0-2.1.1v-.3c1-.1 1.9-.3 2.6-.5.8-.2 1.4-.4 1.9-.8.5-.3.9-.8 1.2-1.4.3-.6.4-1.3.5-2.3 0-.7.1-1.9.1-3.5v-5-5.1-3.7-2.7V50v-2.9c0-.9 0-1.7-.1-2.5 0-1-.2-1.7-.4-2.3-.3-.6-.6-1-1.1-1.4-.5-.4-1.1-.6-1.9-.8-.7-.2-1.6-.3-2.6-.5v-.4c.4 0 1 .1 1.6.1.6 0 1.3 0 2.1.1.8 0 1.6 0 2.4.1h2.5l7.7-.2c1.5 0 3.1.1 4.7.4 1.6.3 3.2.8 4.5 1.6 1.4.8 2.5 1.8 3.4 3.2 1.1 1.2 1.5 3 1.5 5.1z"></path> <path class="st0" d="M213.9 77.9c-.8 0-1.7-.1-2.5-.1-.9 0-1.8 0-2.6-.1h-4.5c-.8 0-1.7 0-2.5.1-.8 0-1.7.1-2.5.1s-1.5 0-2.1.1v-.3c1-.1 1.9-.3 2.6-.5.8-.2 1.4-.4 1.9-.8.5-.3.9-.8 1.2-1.4.3-.6.4-1.3.5-2.3 0-.5.1-1.4.1-2.5v-3.7-4.2-3.9h-20.8V72c0 .5 0 .9.1 1.2.1.7.2 1.4.4 1.9s.6.9 1 1.3c.5.3 1.1.6 2 .8.8.2 1.9.4 3.2.5v.4c-.6 0-1.3-.1-2.1-.1s-1.7-.1-2.5-.1c-.9 0-1.8 0-2.6-.1h-4.5c-.8 0-1.7 0-2.5.1-.8 0-1.7.1-2.5.1s-1.5 0-2.1.1v-.3c1-.1 1.9-.3 2.6-.5.8-.2 1.4-.4 1.9-.8.5-.3.9-.8 1.2-1.4.3-.6.4-1.3.5-2.3 0-.7.1-1.9.1-3.4v-5-5-3.7-2.2-2.1-2.7-4.1c0-1-.1-1.7-.4-2.3-.3-.6-.7-1-1.2-1.4-.5-.3-1.2-.6-2-.8-.8-.2-1.7-.3-2.7-.5v-.3h2.1c.8 0 1.7.1 2.5.1.9.1 1.7.1 2.5.1s1.5.1 2.1.1h2.3c.8 0 1.6 0 2.5-.1.8 0 1.6-.1 2.3-.1.7 0 1.4-.1 1.9-.1v.4c-1.1.1-2 .3-2.8.5-.7.2-1.4.5-1.8.8-.5.4-.8.8-1 1.4-.2.6-.4 1.3-.4 2.1v1c0 .4 0 .9-.1 1.5 0 .6 0 1.3-.1 2.2v7.5l9.9.1 10.9-.1v-3.3-2.6-2.2-2c0-.6 0-1.3-.1-2.1 0-1-.2-1.7-.5-2.3-.3-.6-.7-1-1.2-1.4-.5-.3-1.2-.6-1.9-.8-.8-.2-1.7-.3-2.6-.5v-.3h2.1c.8 0 1.7.1 2.5.1.9.1 1.7.1 2.5.1s1.5.1 2.1.1h2.3c.8 0 1.6 0 2.5-.1.8 0 1.6-.1 2.3-.1.7 0 1.4-.1 1.9-.1v.4c-1.1.1-2 .3-2.8.5-.7.2-1.4.5-1.8.8-.5.4-.8.8-1.1 1.4-.2.6-.4 1.3-.4 2.1 0 .6-.1 1.3-.1 2.2v12.6l.1 7.8v3.5c0 1.2 0 2.1.1 2.7.1.7.2 1.4.4 1.9s.6.9 1 1.3c.5.3 1.1.6 2 .8.8.2 1.9.4 3.2.5v.4c-.5-.1-1.2-.1-2-.2z"></path> <path class="st0" d="M264.8 58.1c0 3-.5 5.8-1.6 8.3-1.1 2.6-2.6 4.8-4.5 6.7-1.9 1.9-4.2 3.3-6.8 4.4-2.6 1.1-5.5 1.6-8.6 1.6-3.2 0-6.1-.6-8.7-1.7-2.6-1.1-4.8-2.6-6.6-4.4-1.8-1.9-3.2-4-4.2-6.5s-1.5-5-1.5-7.7c0-2.6.5-5.1 1.4-7.5.9-2.4 2.3-4.6 4.1-6.5 1.8-1.9 4.1-3.5 6.7-4.6 2.7-1.2 5.7-1.8 9.2-1.8 3 0 5.8.5 8.4 1.4 2.6.9 4.8 2.2 6.7 4 1.9 1.7 3.3 3.8 4.4 6.2 1.1 2.3 1.6 5.1 1.6 8.1zm-20.1 19.1c1.5 0 3.1-.3 4.6-1 1.5-.7 2.9-1.8 4-3.2 1.2-1.4 2.1-3.3 2.9-5.6.7-2.3 1.1-5 1.1-8.1 0-2.7-.4-5.2-1.1-7.5-.7-2.3-1.7-4.3-3-6.1-1.3-1.7-2.9-3.1-4.7-4.1-1.8-1-3.8-1.5-6-1.5-1.9 0-3.6.4-5.1 1.2-1.6.8-2.9 2-4.1 3.5-1.2 1.5-2.1 3.3-2.7 5.5s-1 4.6-1 7.3c0 2.8.4 5.3 1.1 7.7.7 2.4 1.7 4.4 3.1 6.2 1.3 1.8 2.9 3.2 4.7 4.2 1.9 1 4 1.5 6.2 1.5z"></path> <path class="st0" d="M298.7 76.7c-.1.5-.3.9-.5 1.1-.2.2-.5.3-1 .3-1.9 0-3.9-.1-5.9-.2-2-.1-4.3-.1-7-.1-1.7 0-3.7 0-6.1.1-2.3.1-4.6.1-6.9.2v-.4c1-.1 1.9-.3 2.6-.5.7-.2 1.3-.4 1.8-.8.5-.3.8-.8 1.1-1.4.2-.6.4-1.3.4-2.3 0-.7.1-1.9.1-3.5v-4.9-5-3.7-2.8-2.9V47c0-.9 0-1.8-.1-2.5 0-1-.2-1.7-.4-2.3-.2-.6-.6-1-1.1-1.4-.5-.3-1.1-.6-1.8-.8-.7-.2-1.6-.3-2.6-.5v-.4c.8.1 1.7.1 2.9.2 1.1 0 2.3.1 3.5.1 1.2 0 2.4.1 3.5.1h2.9l8-.1h2.3c.7 0 1.2 0 1.7-.1s.9-.2 1.2-.5.6-.5.9-1l.4.3c-.2.8-.3 1.7-.4 2.5-.1.9-.1 1.5-.2 1.9 0 .4-.1.8-.1 1.3s-.1 1-.1 1.5 0 1-.1 1.4v1.1h-.5c-.2-2-.8-3.5-1.8-4.7-1-1.1-2.6-1.7-4.8-1.8l-2.8-.1h-4.7v15.3h2.1c1 0 2 0 3.1-.1 1.2 0 2.6 0 4.1-.1.7 0 1.3-.1 1.7-.2.4-.2.8-.4 1.1-.6.3-.3.5-.6.7-1 .2-.4.4-.8.5-1.3.1 0 .1 0 .2.1l.1.1c-.1.4-.1.8-.2 1.2-.1.4-.1.9-.2 1.4-.1.5-.1.9-.1 1.3s-.1.7-.1 1v4.9l-.5-.1c0-.5-.1-1-.2-1.5s-.3-1-.5-1.5c-.3-.4-.7-.8-1.2-1.1-.5-.3-1.2-.5-2.1-.5l-8.7-.2v4.6l.1 7.3c0 1 .1 1.8.3 2.5.2.7.5 1.3.9 1.7.4.4 1.1.8 1.8 1 .8.2 1.8.3 3.1.2h1.2c.3 0 .6 0 .8-.1.2 0 .5 0 .7-.1.2 0 .6-.1 1.1-.1.8-.1 1.5-.3 2.2-.5.7-.2 1.3-.6 1.8-1.1.6-.5 1.1-1.2 1.6-2s1-1.9 1.4-3.2l.4.2-1.6 8z"></path> <path class="st0" d="M373.1 77.9c-.9-.1-1.7-.1-2.5-.1s-1.7-.1-2.5-.1h-2.2c-1.7 0-3.2 0-4.7.1s-2.9.2-4.4.3v-.4c1-.1 1.9-.3 2.6-.5.7-.2 1.3-.4 1.8-.8.5-.3.8-.8 1-1.4.2-.6.4-1.3.4-2.3 0-.5 0-1.5-.1-2.9s-.3-3-.5-4.6c-.2-1.7-.4-3.4-.6-5-.2-1.7-.3-3-.5-4.1 0-.5-.1-1.1-.2-1.8s-.2-1.5-.3-2.2c-.1-.7-.2-1.4-.2-2-.1-.6-.1-1-.1-1.2h-.2c-1 2.1-1.8 3.9-2.4 5.1-.6 1.3-1.1 2.4-1.5 3.4-.4 1-.8 1.9-1.3 2.8-.4.9-1 2.1-1.7 3.6-.7 1.4-1.6 3.3-2.7 5.5s-2.6 5.2-4.3 8.7h-.4c-2.1-4.6-4.2-9.2-6.4-13.7s-4.3-9.1-6.4-13.7h-.2L332 56c-.2 1.5-.5 3.1-.7 4.9-.3 1.8-.5 3.5-.8 5.1-.2 1.3-.4 2.6-.6 3.8-.2 1.2-.3 2.2-.3 2.8 0 .6 0 1.2.2 1.8.2.6.5 1 .9 1.5.5.4 1.1.8 1.9 1.1.8.3 1.9.5 3.2.6v.4c-.8-.1-2-.1-3.6-.2s-3.2-.1-4.8-.1c-1.6 0-3 0-4.2.1-1.2.1-2.3.1-3.1.2v-.4c.9-.1 1.8-.4 2.5-.6.7-.3 1.4-.7 2-1.3.6-.6 1.1-1.3 1.4-2.2.4-.9.7-2 1-3.4l3.9-22.4c-.3-.6-.5-1.1-.7-1.7-.2-.4-.4-.9-.5-1.3-.2-.4-.3-.8-.4-1-.6-1.4-1.5-2.3-2.4-3-1-.6-2.1-1-3.5-1.2v-.4c.4 0 .8.1 1.3.1s1.1 0 1.6.1H331.9c.9 0 1.6-.1 2.3-.1 1.1 2.4 2.2 4.9 3.3 7.5l3.3 7.8 3.3 7.8c1.1 2.6 2.2 5.1 3.3 7.5 1.2-2.4 2.4-4.9 3.7-7.4 1.2-2.6 2.5-5.2 3.7-7.8 1.2-2.6 2.5-5.2 3.7-7.8 1.2-2.6 2.5-5.2 3.7-7.7.3 0 .6.1 1 .1s.8 0 1.3.1c.4 0 .9 0 1.3.1h1c1 0 1.8 0 2.6-.1.8 0 1.5-.1 2.1-.2v.4c-1.1.1-2 .3-2.7.5-.7.2-1.3.5-1.7.8-.4.4-.8.8-1 1.4-.2.6-.3 1.3-.4 2.1v.8c0 .4 0 .7.1.9.2 1.7.4 3.6.6 5.6.2 2 .5 4 .7 5.9.2 1.9.4 3.7.6 5.2.2 1.6.3 2.8.5 3.7.1 1 .2 2 .3 2.9.1.8.2 1.5.2 2.3.1.7.2 1.2.2 1.5.1.7.3 1.4.5 1.9s.5.9 1 1.3c.5.3 1.1.6 1.9.8.8.2 1.8.4 3.1.5v.4c-.7 0-1.5 0-2.3-.1z"></path> <path class="st0" d="M421.9 58.1c0 3-.5 5.8-1.6 8.3-1.1 2.6-2.6 4.8-4.5 6.7-1.9 1.9-4.2 3.3-6.8 4.4-2.6 1.1-5.5 1.6-8.6 1.6-3.2 0-6.1-.6-8.7-1.7-2.6-1.1-4.8-2.6-6.6-4.4-1.8-1.9-3.2-4-4.2-6.5s-1.5-5-1.5-7.7c0-2.6.5-5.1 1.4-7.5.9-2.4 2.3-4.6 4.1-6.5 1.8-1.9 4.1-3.5 6.7-4.6 2.7-1.2 5.7-1.8 9.2-1.8 3 0 5.8.5 8.4 1.4 2.6.9 4.8 2.2 6.7 4 1.9 1.7 3.3 3.8 4.4 6.2 1.1 2.3 1.6 5.1 1.6 8.1zm-20 19.1c1.5 0 3.1-.3 4.6-1 1.5-.7 2.9-1.8 4-3.2 1.2-1.4 2.1-3.3 2.9-5.6.7-2.3 1.1-5 1.1-8.1 0-2.7-.4-5.2-1.1-7.5-.7-2.3-1.7-4.3-3-6.1-1.3-1.7-2.9-3.1-4.7-4.1-1.8-1-3.8-1.5-6-1.5-1.9 0-3.6.4-5.1 1.2-1.6.8-2.9 2-4.1 3.5-1.2 1.5-2.1 3.3-2.7 5.5s-1 4.6-1 7.3c0 2.8.4 5.3 1.1 7.7.7 2.4 1.7 4.4 3.1 6.2 1.3 1.8 2.9 3.2 4.7 4.2 1.9 1 3.9 1.5 6.2 1.5z"></path> <path class="st0" d="M459 49.6c0 2-.5 3.8-1.4 5.5-1 1.6-2.2 3-3.7 4.2-1.5 1.1-3.2 2-5.1 2.6-1.9.6-3.7.8-5.6.7v-.5c1.4-.1 2.8-.4 4-.9 1.2-.5 2.3-1.1 3.2-2 .9-.8 1.6-1.8 2.1-3s.7-2.5.7-4.1c0-1.5-.2-2.9-.7-4.2-.5-1.4-1.1-2.5-2-3.6-.9-1-1.9-1.9-3.2-2.5-1.2-.7-2.6-1-4.2-1.1-.8-.1-1.6-.1-2.2 0l-.4.7v12.1l-.1 5.7.1 7.9v3.5c0 1.2 0 2.1.1 2.7.1.7.2 1.4.4 1.9s.6.9 1 1.3c.5.3 1.1.6 2 .8.8.2 1.9.4 3.2.5v.4c-.6 0-1.3-.1-2.1-.1s-1.7-.1-2.5-.1c-.9 0-1.8 0-2.6-.1h-4.5c-.8 0-1.7 0-2.5.1-.8 0-1.7.1-2.5.1s-1.5 0-2.1.1v-.3c1-.1 1.9-.3 2.6-.5.8-.2 1.4-.4 1.9-.8.5-.3.9-.8 1.2-1.4.3-.6.4-1.3.5-2.3 0-.7.1-1.9.1-3.5v-5-5.1-3.7-2.7V50v-2.9c0-.9 0-1.7-.1-2.5 0-1-.2-1.7-.4-2.3-.2-.6-.6-1-1.1-1.4-.5-.4-1.1-.6-1.9-.8-.7-.2-1.6-.3-2.6-.5v-.4c.4 0 1 .1 1.6.1.6 0 1.3 0 2.1.1.8 0 1.6 0 2.4.1h2.5l7.7-.2c1.5 0 3.1.1 4.7.4 1.6.3 3.2.8 4.5 1.6 1.4.8 2.5 1.8 3.4 3.2 1 1.2 1.5 3 1.5 5.1z"></path> <path class="st0" d="M492.1 76.7c-.1.5-.3.9-.5 1.1-.2.2-.5.3-1 .3-1.9 0-3.9-.1-5.9-.2-2-.1-4.3-.1-7-.1-1.7 0-3.7 0-6.1.1-2.3.1-4.6.1-6.9.2v-.4c1-.1 1.9-.3 2.6-.5.7-.2 1.3-.4 1.8-.8.5-.3.8-.8 1.1-1.4.2-.6.4-1.3.4-2.3 0-.7.1-1.9.1-3.5v-4.9-5-3.7-2.8-2.9V47c0-.9 0-1.8-.1-2.5 0-1-.2-1.7-.4-2.3-.2-.6-.6-1-1.1-1.4-.5-.3-1.1-.6-1.8-.8-.7-.2-1.6-.3-2.6-.5v-.4c.8.1 1.7.1 2.9.2 1.1 0 2.3.1 3.5.1 1.2 0 2.4.1 3.5.1h2.9l8-.1h2.3c.7 0 1.2 0 1.7-.1s.9-.2 1.2-.5c.3-.2.6-.5.9-1l.4.3c-.2.8-.3 1.7-.4 2.5-.1.9-.1 1.5-.2 1.9 0 .4-.1.8-.1 1.3s-.1 1-.1 1.5 0 1-.1 1.4v1.1h-.5c-.2-2-.8-3.5-1.8-4.7-1-1.1-2.6-1.7-4.8-1.8l-2.8-.1h-4.7v15.3h2.1c1 0 2 0 3.1-.1 1.2 0 2.6 0 4.1-.1.7 0 1.3-.1 1.7-.2.4-.2.8-.4 1.1-.6.3-.3.5-.6.7-1 .2-.4.4-.8.5-1.3.1 0 .1 0 .2.1l.1.1c-.1.4-.1.8-.2 1.2-.1.4-.1.9-.2 1.4-.1.5-.1.9-.1 1.3s-.1.7-.1 1v4.9l-.5-.1c0-.5-.1-1-.2-1.5s-.3-1-.5-1.5c-.3-.4-.7-.8-1.2-1.1-.5-.3-1.2-.5-2.1-.5l-8.7-.2v4.6l.1 7.3c0 1 .1 1.8.3 2.5.2.7.5 1.3.9 1.7.4.4 1.1.8 1.8 1 .8.2 1.8.3 3.1.2h1.2c.3 0 .6 0 .8-.1.2 0 .5 0 .7-.1.2 0 .6-.1 1.1-.1.8-.1 1.5-.3 2.2-.5.7-.2 1.3-.6 1.8-1.1.6-.5 1.1-1.2 1.6-2s1-1.9 1.4-3.2l.4.2-1.6 8z"></path> </g> </svg> 