<?xml version="1.0" encoding="UTF-8"?> <svg xmlns="http://www.w3.org/2000/svg" width="105" height="110" viewBox="0 0 105 110" fill="none"> <g clip-path="url(#clip0_281_28)"> <path fill-rule="evenodd" clip-rule="evenodd" d="M29.1884 105.502C29.8469 105.281 30.2816 105.131 30.4862 105.048V102.986H30.0834C29.7606 102.993 29.4249 103.008 29.0733 103.028C29.1085 102.842 29.1244 102.698 29.1244 102.593C29.118 102.462 29.0989 102.305 29.0733 102.12C29.4984 102.155 29.8405 102.171 30.093 102.171H30.483V101.17C30.4766 100.854 30.4606 100.406 30.4319 99.831C30.6716 99.8534 30.8378 99.863 30.9273 99.863C31.0296 99.863 31.1959 99.8534 31.4228 99.831C31.3877 100.272 31.3717 100.646 31.3717 100.956V102.174H31.6913C31.9375 102.168 32.238 102.152 32.5864 102.123C32.5512 102.321 32.5353 102.475 32.5353 102.577C32.5416 102.612 32.5608 102.762 32.5864 103.031L31.3685 102.989V104.703C31.4036 104.68 31.4324 104.668 31.4612 104.661C31.8064 104.489 32.1517 104.31 32.5033 104.124C32.5161 104.469 32.548 104.767 32.596 105.022C32.5832 105.029 32.3499 105.128 31.8959 105.323L31.3685 105.55V108.404C31.3685 108.798 31.3173 109.057 31.215 109.188C31.1319 109.29 30.9785 109.383 30.7515 109.466C30.5661 109.526 30.2113 109.59 29.6902 109.651C29.6551 109.268 29.5368 108.909 29.329 108.577C29.6871 108.625 29.9428 108.651 30.093 108.651C30.2305 108.644 30.3296 108.625 30.3903 108.599C30.451 108.558 30.483 108.472 30.483 108.34V105.885C30.0994 106.077 29.8149 106.224 29.6263 106.33L29.182 106.598C29.0637 106.247 28.9358 105.917 28.792 105.607C28.9103 105.566 29.0381 105.531 29.182 105.505M33.3983 109.226C32.9924 109.239 32.5608 109.258 32.0973 109.277C32.1261 109.05 32.1389 108.893 32.1389 108.804C32.1325 108.702 32.1197 108.535 32.0973 108.309C32.5992 108.344 33.0467 108.36 33.4367 108.36H35.262C35.4122 107.947 35.5305 107.586 35.6136 107.276L35.9045 106.09C36.0771 105.272 36.2018 104.549 36.2849 103.926C36.2913 103.782 36.3041 103.645 36.3265 103.514C36.6781 103.657 37.0169 103.782 37.3462 103.884C37.2982 104.009 37.2599 104.137 37.2343 104.265C37.2119 104.341 37.1992 104.389 37.1928 104.409C37.1864 104.45 37.1736 104.505 37.1512 104.575L36.1411 108.36L37.7074 108.35C37.9344 108.344 38.1933 108.331 38.481 108.309C38.4522 108.529 38.4394 108.689 38.4394 108.794C38.4458 108.913 38.4586 109.073 38.481 109.28C37.9248 109.245 37.4453 109.229 37.0489 109.229H33.3983V109.226ZM34.0792 102.823C33.7819 102.836 33.3888 102.855 32.8933 102.874C32.922 102.682 32.9348 102.535 32.9348 102.43C32.9284 102.321 32.9157 102.161 32.8933 101.957L33.5006 101.998L37.6339 102.008L38.3659 101.957C38.3372 102.171 38.3244 102.321 38.3244 102.411C38.3308 102.513 38.3435 102.67 38.3659 102.874C37.8768 102.839 37.4581 102.823 37.1096 102.823H34.0792ZM33.3472 103.865C33.6637 103.788 33.9578 103.712 34.2327 103.629C34.255 103.747 34.3158 103.999 34.4181 104.393L34.6259 105.259L35.0063 106.774C35.035 106.899 35.067 107.027 35.1086 107.155C34.7633 107.202 34.45 107.26 34.1591 107.33L34.0984 106.928C33.9961 106.349 33.9002 105.844 33.8107 105.412C33.7084 105.019 33.5933 104.636 33.4719 104.258L33.3472 103.865ZM34.7505 100.39C34.7026 100.282 34.6578 100.173 34.6163 100.071C34.9327 100.036 35.246 99.9845 35.5561 99.9173L36.1027 101.599C35.7255 101.647 35.3931 101.701 35.1022 101.765C35.0798 101.669 35.067 101.58 35.0606 101.496C35.0318 101.372 34.9839 101.177 34.9168 100.908L34.7505 100.394V100.39Z" fill="#404041"></path> <path fill-rule="evenodd" clip-rule="evenodd" d="M43.4807 101.439C43.2889 101.445 42.6144 101.471 41.4604 101.512C41.4796 101.292 41.4924 101.119 41.4924 100.998C41.4924 100.867 41.4828 100.707 41.4604 100.512C42.3747 100.553 42.8414 100.573 42.8638 100.573L49.2155 100.582C49.3593 100.576 50.0083 100.55 51.1654 100.512C51.1303 100.726 51.1143 100.892 51.1143 101.017C51.1207 101.135 51.1367 101.298 51.1654 101.512L49.6694 101.452L46.6997 101.442L46.3609 102.638H49.1132C49.4233 102.631 49.7973 102.615 50.2384 102.587C50.2033 103.076 50.1873 103.472 50.1873 103.782L50.1969 108.433L50.248 109.68C50.0274 109.651 49.874 109.638 49.7845 109.638C49.6726 109.645 49.4968 109.661 49.2475 109.68L49.2698 108.916H43.2378C43.2378 109.168 43.2474 109.411 43.2697 109.638C43.0428 109.61 42.8798 109.597 42.7743 109.597C42.656 109.603 42.5058 109.619 42.3203 109.638L42.3523 109.194C42.3715 108.753 42.3843 106.947 42.3843 103.772C42.3779 103.443 42.3587 103.047 42.3331 102.587C42.7455 102.622 43.0843 102.638 43.3529 102.638H45.4562L45.7344 101.442H43.4871L43.4807 101.439ZM44.51 103.469H43.2314V108.088H44.51V103.469ZM47.0769 103.469H45.3444V104.469H47.0769V103.469ZM47.0769 105.211H45.3444V106.221H47.0769V105.211ZM47.0769 106.995H45.3444V108.088H47.0769V106.995ZM49.2634 103.469H47.9432V108.088H49.2634V103.469Z" fill="#404041"></path> <path fill-rule="evenodd" clip-rule="evenodd" d="M55.3017 109.542C55.0971 109.507 54.9469 109.491 54.8574 109.491C54.7263 109.498 54.5697 109.514 54.3843 109.542C54.4194 109.143 54.4354 108.769 54.4354 108.417V102.26C54.429 102.008 54.4099 101.723 54.3843 101.417C54.64 101.452 54.8606 101.468 55.0556 101.468H55.3656C55.4679 101.043 55.551 100.633 55.6118 100.24L55.6438 99.9013C55.9315 100.026 56.2543 100.122 56.6123 100.189C56.51 100.397 56.4461 100.541 56.4269 100.624C56.3854 100.672 56.3214 100.854 56.2319 101.17C56.184 101.266 56.1488 101.365 56.1296 101.471H56.769C57.0247 101.464 57.306 101.449 57.6161 101.42C57.5809 101.755 57.5649 102.037 57.5649 102.264V103.657C57.5713 103.945 57.5873 104.239 57.6161 104.533C57.2453 104.498 56.9448 104.482 56.7178 104.482H55.2729V105.4H56.7274C56.9768 105.393 57.2676 105.377 57.6033 105.348C57.5681 105.69 57.5521 105.981 57.5521 106.215V108.392C57.5649 108.695 57.5841 109.021 57.6033 109.373C57.3891 109.344 57.2421 109.331 57.159 109.331C57.0343 109.338 56.8809 109.354 56.6954 109.383C56.7146 109.226 56.7274 108.935 56.7274 108.516H55.2729C55.2729 108.75 55.2825 109.092 55.3049 109.549M56.737 102.228H55.2729V103.766H56.737V102.228ZM56.7274 106.148H55.2729V107.778H56.7274V106.148ZM58.4792 101.468L57.7375 101.519C57.7567 101.292 57.7695 101.138 57.7695 101.055C57.7695 100.953 57.7599 100.809 57.7375 100.624C58.1627 100.665 58.4888 100.685 58.7157 100.685H62.4782C62.7946 100.685 63.1686 100.662 63.6034 100.624C63.5842 100.832 63.5714 100.975 63.5714 101.055C63.5842 101.158 63.597 101.314 63.6034 101.519L62.8937 101.477C62.7275 101.465 62.5932 101.458 62.491 101.458H60.9949V102.788L62.6252 102.778C62.7627 102.772 62.9161 102.759 63.0887 102.737L63.0568 103.274C63.044 103.453 63.0376 103.584 63.0376 103.667V107.119C63.0376 107.49 62.9864 107.73 62.8841 107.842C62.7051 108.021 62.2416 108.181 61.4936 108.328C61.452 108.114 61.4105 107.947 61.3689 107.823C61.2922 107.666 61.1899 107.468 61.0589 107.234C61.3338 107.282 61.5256 107.311 61.6375 107.318C61.727 107.324 61.8037 107.327 61.8644 107.327C62.0019 107.321 62.0914 107.292 62.1329 107.244C62.1681 107.196 62.1841 107.068 62.1841 106.864V103.542H60.9981V108.73C61.0045 108.826 61.0301 109.255 61.0716 110.019C60.8575 109.996 60.6976 109.987 60.5858 109.987C60.4771 110 60.3076 110.009 60.0807 110.019L60.1318 109.347C60.151 109.092 60.1638 107.158 60.1638 103.542H59.1441V107.234C59.1569 107.57 59.176 107.934 59.1952 108.328C59.0162 108.309 58.866 108.296 58.7413 108.296C58.6166 108.309 58.4632 108.321 58.2778 108.328C58.2842 108.251 58.2906 108.184 58.3002 108.12C58.3193 107.743 58.3321 106.253 58.3321 103.654C58.3257 103.462 58.3066 103.156 58.281 102.737C58.6038 102.772 58.8883 102.788 59.1377 102.788H60.1702V101.458L58.4888 101.468H58.4792Z" fill="#404041"></path> <path fill-rule="evenodd" clip-rule="evenodd" d="M66.0361 104.533L66.2407 104.287C66.6339 103.814 67.0175 103.194 67.3947 102.43C67.7783 101.624 68.0756 100.883 68.2802 100.202L68.3729 99.863C68.7309 100.048 69.0634 100.202 69.3734 100.327C69.2711 100.47 69.1624 100.665 69.0538 100.915C69.041 100.937 68.8556 101.321 68.4975 102.069V107.906C68.5039 108.133 68.5295 108.724 68.5679 109.68C68.3217 109.651 68.1523 109.638 68.0628 109.638C67.9445 109.645 67.7751 109.661 67.5481 109.68L67.6089 108.73C67.6313 108.372 67.6408 106.678 67.6408 103.648C67.5386 103.792 67.4554 103.936 67.3947 104.079C67.1677 104.492 66.9791 104.824 66.8289 105.08C66.7809 105.157 66.7362 105.227 66.6946 105.297C66.522 105.016 66.3047 104.76 66.0361 104.533ZM69.9137 107.513C69.626 107.525 69.2711 107.548 68.8524 107.573C68.8875 107.375 68.9035 107.222 68.9035 107.119C68.8971 107.001 68.8811 106.851 68.8524 106.665L69.1401 106.697C69.4022 106.72 70.9558 106.729 73.8008 106.729C73.7944 106.586 73.788 106.461 73.7816 106.359C73.7752 106.317 73.7688 106.256 73.7592 106.173C73.9798 106.215 74.1428 106.234 74.2547 106.234C74.3442 106.234 74.5072 106.215 74.7406 106.173C74.7118 106.352 74.699 106.461 74.699 106.502V106.729H75.4119C75.6197 106.723 75.869 106.707 76.1631 106.678C76.1279 106.876 76.1119 107.033 76.1119 107.142C76.1183 107.238 76.1375 107.378 76.1631 107.564C75.9361 107.529 75.6868 107.513 75.4119 107.513H74.7022V108.625C74.6958 108.989 74.6287 109.242 74.5072 109.389C74.3154 109.562 73.9702 109.709 73.4779 109.833L72.8801 109.926C72.8737 109.721 72.845 109.546 72.797 109.402C72.7427 109.258 72.6404 109.05 72.4869 108.782C72.781 108.836 73.0272 108.865 73.219 108.865C73.6122 108.858 73.8072 108.676 73.8072 108.318V107.513H69.92H69.9137ZM70.2941 101.874C69.9904 101.874 69.6515 101.896 69.2743 101.934C69.2807 101.851 69.2967 101.746 69.3159 101.615C69.3095 101.49 69.2967 101.305 69.2743 101.059L69.5844 101.09C69.8593 101.11 70.6297 101.122 71.8956 101.122V100.649C71.8892 100.493 71.8636 100.253 71.822 99.9365C72.0618 99.9653 72.2248 99.9781 72.3079 99.9781C72.3751 99.9717 72.5381 99.9589 72.7938 99.9365C72.7523 100.288 72.7331 100.525 72.7331 100.649V101.122H73.9286C73.8104 100.902 73.6985 100.729 73.5898 100.608C73.5227 100.553 73.4619 100.502 73.414 100.454C73.6601 100.33 73.9095 100.192 74.1556 100.042L74.8173 100.784C74.5839 100.867 74.3698 100.979 74.178 101.126L75.2297 101.116C75.4087 101.103 75.6324 101.084 75.901 101.065C75.8818 101.285 75.869 101.436 75.869 101.519C75.8818 101.596 75.8914 101.736 75.901 101.941C75.4534 101.899 75.0954 101.88 74.8301 101.88H72.7363V102.487H74.3762C74.6575 102.481 74.9548 102.465 75.2616 102.436C75.2201 102.692 75.2009 102.925 75.2009 103.136V105.23C75.2009 105.505 75.2201 105.78 75.2616 106.055C75.057 106.02 74.9068 106.004 74.8173 106.004C74.715 106.01 74.5584 106.029 74.3538 106.055C74.3666 105.863 74.3762 105.694 74.3762 105.55H72.7363V105.879C72.7427 106.017 72.7587 106.18 72.7874 106.365C72.5797 106.323 72.4262 106.304 72.3239 106.304C72.1865 106.304 72.0234 106.327 71.838 106.365C71.8796 106.167 71.8988 106.004 71.8988 105.879V105.55H70.3932L70.4155 106.323C70.2173 106.301 70.0639 106.291 69.9616 106.291C69.8593 106.304 69.7123 106.317 69.5301 106.323C69.5652 106.042 69.5812 105.799 69.5812 105.591V103.136C69.5748 102.957 69.5556 102.724 69.5301 102.436C69.8593 102.471 70.147 102.487 70.3963 102.487H71.902V101.88H70.3036L70.2941 101.874ZM71.8924 103.143H70.3868V103.741H71.8924V103.143ZM71.8924 104.348H70.3868V104.926H71.8924V104.348ZM70.3963 108.091C70.6105 108.002 70.7767 107.925 70.9014 107.864C71.0037 107.803 71.1284 107.72 71.2722 107.618L72.0778 108.721C71.7485 108.83 71.448 108.999 71.1795 109.226C71.1316 109.143 71.0964 109.073 71.0772 109.009C71.0165 108.906 70.8503 108.67 70.5818 108.296C70.521 108.219 70.4571 108.152 70.3963 108.091ZM74.3666 103.143H72.7267V103.741H74.3666V103.143ZM74.3666 104.348H72.7267V104.926H74.3666V104.348Z" fill="#404041"></path> <path d="M76.879 40.4822C75.0985 39.8205 73.9253 39.4849 71.4991 38.8903C70.4602 38.6346 69.9391 39.0629 71.2082 39.4337C72.9727 39.9484 77.7517 41.2239 78.1705 43.1738C79.1422 47.7162 61.4169 49.273 51.1109 49.2762C40.8017 49.2762 23.2138 47.7162 24.1824 43.1738C24.598 41.2239 29.2107 39.9516 30.9753 39.4337C32.2443 39.0629 31.7233 38.6346 30.6844 38.8903C28.2581 39.4849 27.1233 39.7854 24.8921 40.5622C22.3699 41.4412 19.8989 42.819 19.8989 44.3981C19.8989 45.8782 22.5425 47.144 22.5425 47.144C22.5905 47.8697 22.664 48.5857 22.7631 49.2986C24.176 59.3232 28.5714 67.334 37.2886 71.2531V72.1385C37.2886 73.7816 43.3718 75.1114 50.8744 75.1114C58.3769 75.1114 64.4601 73.7784 64.4601 72.1385V71.3458C73.1453 67.5066 77.5887 59.6461 79.2381 50.1936C79.4235 49.126 79.5482 48.0423 79.6121 46.9394C79.6121 46.9394 81.853 45.9197 81.853 44.4045C81.853 42.8094 79.4843 41.454 76.879 40.4886" fill="#DA0E16"></path> <path fill-rule="evenodd" clip-rule="evenodd" d="M58.7029 22.2134C58.7029 22.2134 57.6864 28.8752 51.3379 36.2563C55.4392 31.6403 59.0833 26.3019 58.7029 22.2134Z" fill="#EDBD51"></path> <path fill-rule="evenodd" clip-rule="evenodd" d="M49.3623 38.3916C50.072 37.6756 50.7273 36.9627 51.3378 36.2563C50.6857 36.9883 50.024 37.7044 49.3623 38.3916Z" fill="#EDBD51"></path> <path fill-rule="evenodd" clip-rule="evenodd" d="M33.6444 60.0968C33.6444 60.0968 34.0056 60.9375 34.5043 60.912C34.7664 60.8224 34.8783 60.6498 34.9103 60.458L34.9198 60.4676C35.0125 59.889 34.7888 59.2849 34.5714 58.8629C34.4787 58.572 34.3508 58.3962 34.2166 58.2875C34.1686 58.2492 34.1207 58.2204 34.0727 58.198C33.6795 57.9806 33.475 58.0733 33.3695 58.2268C33.2896 58.2939 33.2544 58.4218 33.2544 58.5848C33.2544 58.9812 33.4526 59.5917 33.6444 60.0968Z" fill="white"></path> <path d="M2.03946 92.6578H0V79.9447H5.79231C7.62398 79.9447 8.67248 80.1749 9.39492 80.6896C10.2133 81.3001 10.7119 82.3294 10.7119 83.4738C10.7119 84.6182 10.3092 85.4941 9.58672 86.0855C9.16796 86.4467 8.80674 86.6193 8.06192 86.8111C9.75934 87.5559 10.2548 88.3743 10.4051 90.7366C10.469 91.7403 10.5841 92.3818 10.7503 92.661H8.6533C8.57658 92.4883 8.5574 92.45 8.49986 92.1271C8.44232 91.4974 8.42314 91.2704 8.38478 90.8325C8.13545 88.1633 7.07096 87.2874 4.05973 87.2874H2.03946V92.6642V92.6578ZM5.66125 85.6635C6.844 85.6635 7.47374 85.5484 7.85414 85.2448C8.33044 84.8644 8.5574 84.3305 8.5574 83.6049C8.5574 82.7834 8.25372 82.1184 7.7007 81.8116C7.35866 81.639 6.82482 81.5622 5.66125 81.5622H2.03946V85.6603H5.66125V85.6635Z" fill="#404041"></path> <path d="M19.0231 86.9965C19.0231 85.0913 18.7738 84.842 16.9262 84.842H12.5627V83.3747H17.3289C18.988 83.3747 19.7488 83.6049 20.2826 84.2314C20.7397 84.7653 20.874 85.3758 20.874 86.7855V92.6578H16.1654C14.3561 92.6578 13.8222 92.5427 13.1733 92.0472C12.5627 91.5517 12.2207 90.7909 12.2207 89.8735C12.2207 88.7675 12.6778 87.8149 13.4418 87.3769C13.8989 87.1116 14.5862 86.9965 15.7274 86.9965H19.0263H19.0231ZM15.9352 88.4638C14.6214 88.4638 14.1227 88.8442 14.1227 89.8351C14.1227 90.8261 14.6182 91.1873 15.9352 91.1873H19.0231V88.4606H15.9352V88.4638Z" fill="#404041"></path> <path d="M31.5828 83.3747C33.8684 83.3747 34.252 83.4515 34.9552 84.0428C35.6425 84.615 35.8695 85.3407 35.8695 86.923V92.661H34.0218V86.923C34.0218 85.379 33.488 84.8452 31.9248 84.8452H30.4959V92.661H28.6483V84.8452H25.2183V92.661H23.3706V83.3779H31.586L31.5828 83.3747Z" fill="#404041"></path> <path d="M45.2486 88.6172H39.6832C39.6832 89.5506 39.875 90.1037 40.3289 90.58C40.7477 91.0179 41.3774 91.1905 42.5794 91.1905H45.2486V92.6578H42.0839C40.4632 92.6578 39.6992 92.4468 38.9959 91.7819C38.1776 90.9987 37.7173 89.7424 37.7173 88.1793C37.7173 86.1974 38.4429 84.7493 39.8335 83.9661C40.5399 83.5474 41.3774 83.3747 42.5794 83.3747H45.2486V84.842H42.8479C40.7893 84.842 40.0093 85.4142 39.6832 87.15H45.2486V88.6172Z" fill="#404041"></path> <path d="M51.7091 83.3747C54.4166 83.3747 55.4651 84.4232 55.4651 87.1308V92.6578H53.6174V87.3194C53.6174 85.4717 53.0644 84.842 51.4246 84.842H49.27V92.6578H47.4224V83.3747H51.7123H51.7091Z" fill="#404041"></path> <path d="M62.5741 91.0371H68.0627C69.0153 91.0371 69.53 90.9412 69.9296 90.695C70.4634 90.3722 70.7287 89.8383 70.7287 89.0935C70.7287 88.1217 70.3291 87.4536 69.5843 87.2235C69.2231 87.1276 68.7468 87.0892 67.6791 87.0892H66.6306C65.0483 87.0892 64.0765 86.8974 63.4084 86.4403C62.5709 85.8873 62.1138 84.9347 62.1138 83.7711C62.1138 82.3422 62.801 81.1211 63.9422 80.4722C64.6487 80.0918 65.5246 79.9384 67.0494 79.9384H72.2727V81.559H67.0494C65.9242 81.559 65.4287 81.6549 64.9907 81.9203C64.5528 82.2239 64.2651 82.7961 64.2651 83.4834C64.2651 84.7589 65.0483 85.2544 67.0494 85.2544H67.8134C70.0414 85.2544 70.9397 85.427 71.6461 85.9992C72.4293 86.6481 72.8832 87.7541 72.8832 89.0104C72.8832 90.4969 72.2151 91.6412 71.0356 92.2134C70.31 92.5555 69.5875 92.6514 67.8166 92.6514H62.5741V91.0307V91.0371Z" fill="#404041"></path> <path d="M76.7351 83.3747H78.8896C80.5679 83.3747 81.4821 83.6049 82.1694 84.2123C82.8566 84.8228 83.1028 85.6795 83.1028 87.4153V92.6578H81.2551V87.265C81.2551 85.3407 80.7788 84.8452 78.8928 84.8452H76.7383V92.661H74.8906V79.9479H76.7383V83.3779L76.7351 83.3747Z" fill="#404041"></path> <path d="M85.6157 79.9447H87.4634V81.8691H85.6157V79.9447ZM87.4634 92.6578H85.6157V83.3747H87.4634V92.6578Z" fill="#404041"></path> <path d="M89.1416 84.842V83.3747H90.7815V82.956C90.7815 80.8398 91.6765 79.9447 93.7927 79.9447H95.6979V81.412H94.0389C92.8945 81.412 92.6291 81.6773 92.6291 82.8601V83.3747H95.5445V84.842H92.6291V92.6578H90.7815V84.842H89.1416Z" fill="#404041"></path> <path d="M103.152 83.3747H105V92.6578H100.959C98.9198 92.6578 98.1558 92.3733 97.5068 91.3823C97.1264 90.7909 96.9922 90.1612 96.9922 88.8666V83.3779H98.8398V88.7898C98.8398 89.7424 98.8974 90.1228 99.1084 90.4681C99.3961 90.9827 100.003 91.1937 101.109 91.1937H103.149V83.3779L103.152 83.3747Z" fill="#404041"></path> <path fill-rule="evenodd" clip-rule="evenodd" d="M80.5331 4.42094L67.3023 12.518L82.579 1.95633C82.2433 -0.402785 80.1719 0.0319575 80.1719 0.0319575L59.3202 15.1968L45.6163 23.8405L29.0513 33.1108L29.7737 34.073L37.9539 29.5018L32.4205 33.472L32.9 34.5557L45.9231 26.1357L62.4402 17.5336L62.4338 17.5272L82.3776 7.18284C82.8539 4.49127 80.5331 4.42094 80.5331 4.42094Z" fill="#DA0E16"></path> <path fill-rule="evenodd" clip-rule="evenodd" d="M61.9059 18.8506C60.4866 17.3705 57.6512 14.305 52.5014 14.5511C44.2189 14.9475 45.9675 25.3014 45.9675 25.3014C46.3287 28.6706 48.9276 28.0825 49.7171 28.4309C48.6303 27.766 47.553 24.6333 47.7192 22.2134C48.0453 17.4632 51.2867 17.7286 52.4663 18.6492C53.2271 19.2406 53.8632 20.9635 53.486 23.7222C52.3288 32.2285 45.8332 38.4811 40.0249 41.7865C35.0829 44.5995 30.6108 45.0854 30.6108 45.0854L32.2891 45.6256C38.0238 44.4493 45.1524 40.1626 48.3905 36.8221C56.5899 28.3606 56.0177 20.5256 56.0177 20.5256C56.4653 38.8136 35.815 46.2649 35.815 46.2649L38.6632 46.4408C43.1129 43.9634 46.6644 41.1184 49.3719 38.3916C50.0304 37.7012 50.6953 36.9883 51.3474 36.2563C57.696 28.8752 58.7125 22.2134 58.7125 22.2134C59.0929 26.3019 55.4487 31.6403 51.3474 36.2563C50.7401 36.9627 50.0848 37.6788 49.3719 38.3916C45.0181 42.934 40.7889 46.4216 40.7889 46.4216L44.5418 46.1275C56.3118 36.9372 59.8952 24.1058 59.8952 24.1058C58.6613 37.065 47.3005 45.7183 47.3005 45.7183L50.7752 45.047C55.0396 44.1232 62.1968 26.775 62.1968 26.775C61.8516 39.3506 53.2814 44.4365 53.2814 44.4365L56.5803 43.503C61.7909 37.6468 64.0125 29.8342 64.0125 29.8342C64.1692 36.0549 58.0092 43.0651 58.0092 43.0651L60.2725 42.2979C70.3802 29.8246 63.7887 20.8037 61.9123 18.8474" fill="#EDBD51"></path> <path fill-rule="evenodd" clip-rule="evenodd" d="M80.5331 4.42094L67.3023 12.518L82.579 1.95633C82.2433 -0.402785 80.1719 0.0319575 80.1719 0.0319575L59.3202 15.1968L45.6163 23.8405L29.0513 33.1108L29.7737 34.073L37.9539 29.5018L32.4205 33.472L32.9 34.5557L45.9231 26.1357L62.4402 17.5336L62.4338 17.5272L82.3776 7.18284C82.8539 4.49127 80.5331 4.42094 80.5331 4.42094Z" fill="#DA0E16"></path> <mask id="mask0_281_28" style="mask-type:luminance" maskUnits="userSpaceOnUse" x="29" y="13" width="38" height="35"> <path d="M45.6481 25.3366C45.6417 25.3046 45.5522 24.7452 45.5106 23.8981L45.6129 23.8405L48.0296 22.3157C47.9848 23.1021 48.0775 24.0163 48.2789 24.905L45.9198 26.1325L45.8047 26.206C45.7312 25.9375 45.6737 25.6498 45.6417 25.3366M29.959 47.0833H66.3847V13.899H29.9654V47.0801L29.959 47.0833Z" fill="white"></path> </mask> <g mask="url(#mask0_281_28)"> <path fill-rule="evenodd" clip-rule="evenodd" d="M61.9064 18.8506C60.4871 17.3705 57.6517 14.305 52.5019 14.5511C44.2194 14.9475 45.968 25.3014 45.968 25.3014C46.3292 28.6706 48.9281 28.0825 49.7176 28.4309C48.6308 27.766 47.5535 24.6333 47.7197 22.2134C48.0458 17.4632 51.2872 17.7286 52.4667 18.6492C53.2275 19.2406 53.8637 20.9635 53.4865 23.7222C52.3293 32.2285 45.8337 38.4811 40.0254 41.7865C35.0834 44.5995 30.6113 45.0854 30.6113 45.0854L32.2896 45.6256C38.0243 44.4493 45.1528 40.1626 48.391 36.8221C56.5904 28.3606 56.0182 20.5256 56.0182 20.5256C56.4657 38.8136 35.8155 46.2649 35.8155 46.2649L38.6637 46.4408C43.1134 43.9634 46.6648 41.1184 49.3724 38.3916C50.0309 37.7012 50.6958 36.9883 51.3479 36.2563C57.6964 28.8752 58.713 22.2134 58.713 22.2134C59.0934 26.3019 55.4492 31.6403 51.3479 36.2563C50.7406 36.9627 50.0853 37.6788 49.3724 38.3916C45.0186 42.934 40.7894 46.4216 40.7894 46.4216L44.5423 46.1275C56.3123 36.9372 59.8957 24.1058 59.8957 24.1058C58.6618 37.065 47.301 45.7183 47.301 45.7183L50.7757 45.047C55.04 44.1232 62.1973 26.775 62.1973 26.775C61.8521 39.3506 53.2819 44.4365 53.2819 44.4365L56.5808 43.503C61.7913 37.6468 64.013 29.8342 64.013 29.8342C64.1696 36.0549 58.0097 43.0651 58.0097 43.0651L60.2729 42.2979C70.3807 29.8246 63.7892 20.8037 61.9128 18.8474" fill="#EDBD51"></path> </g> <path fill-rule="evenodd" clip-rule="evenodd" d="M44.5965 67.0687H50.392V66.0042H44.5965V63.383H50.392V62.1778H44.5965V58.7926H43.3945V70.6809H44.5965V67.0687Z" fill="white"></path> <path fill-rule="evenodd" clip-rule="evenodd" d="M34.9459 62.229C35.777 64.0287 38.3599 66.8034 39.5458 68.0309C39.549 68.0341 40.297 68.7981 41.0035 68.5743C41.4638 68.3409 40.9108 67.7496 40.9108 67.7496C40.3866 67.2829 37.5128 63.6099 36.2437 61.9796C35.6875 61.2668 35.3295 61.3019 35.2719 61.3115C35.2687 61.3115 35.2655 61.3115 35.2623 61.3115C34.834 61.5545 34.8468 61.9381 34.9459 62.2322" fill="white"></path> <path d="M52.4982 60.4229H51.52V71.5855H52.4982V60.4229Z" fill="white"></path> </g> <defs> <clipPath id="clip0_281_28"> <rect width="105" height="110.009" fill="white"></rect> </clipPath> </defs> </svg> 