<svg width="120" height="120" xmlns="http://www.w3.org/2000/svg">
<path d="M33.4066 50.2211H30.6099L30.6284 62.8445H33.351C34.8019 62.8445 40.7596 62.6958 40.7596 56.4182C40.7596 51.9191 37.3023 50.2211 33.4066 50.2211Z" fill="#D60000"/>
<path d="M34.7278 83.8154C36.4935 83.8154 39.142 83.7286 41.2782 82.4892C42.2448 81.8942 43.0345 81.0494 43.5645 80.0432C44.0945 79.037 44.3454 77.9063 44.291 76.7694C44.3199 75.5833 43.9911 74.4161 43.3477 73.4209C42.7043 72.4256 41.7764 71.6487 40.6855 71.192C38.6296 70.2314 36.2033 70.2314 34.1413 70.2314H30.6099V83.8154H34.7278Z" fill="#D60000"/>
<path d="M75.282 43.3601C75.5419 43.5344 75.8475 43.6274 76.1601 43.6274H76.1354C76.3459 43.6342 76.5556 43.5979 76.7518 43.5209C76.9479 43.4439 77.1265 43.3277 77.2766 43.1793C77.4266 43.031 77.5452 42.8536 77.6249 42.6579C77.7047 42.4623 77.744 42.2524 77.7406 42.041C77.7406 41.7272 77.6479 41.4205 77.4742 41.1596C77.3006 40.8987 77.0537 40.6954 76.7649 40.5753C76.4761 40.4552 76.1584 40.4238 75.8518 40.485C75.5452 40.5462 75.2636 40.6973 75.0425 40.9192C74.8215 41.141 74.671 41.4237 74.61 41.7315C74.549 42.0392 74.5803 42.3582 74.6999 42.6481C74.8195 42.938 75.0221 43.1857 75.282 43.3601Z" fill="#D60000"/>
<path fill-rule="evenodd" clip-rule="evenodd" d="M84.6923 43.646C85.7918 43.6618 86.856 43.2562 87.6681 42.5119C88.5426 41.5508 89.0326 40.2993 89.044 38.9977C89.0554 37.6961 88.5873 36.4361 87.7298 35.4597C87.3319 35.0742 86.8619 34.7717 86.3469 34.5696C85.8319 34.3675 85.2822 34.2699 84.7293 34.2823C84.1738 34.2619 83.622 34.381 83.1239 34.6288C82.6258 34.8766 82.1973 35.2453 81.877 35.7014V34.5673H79.4075V48.0149H81.877V42.2269C82.1922 42.6792 82.6145 43.0458 83.106 43.2935C83.5975 43.5413 84.1426 43.6624 84.6923 43.646ZM86.495 38.9672C86.4982 38.272 86.2275 37.6038 85.7418 37.1081H85.7171C85.2577 36.7072 84.6713 36.4832 84.0626 36.476C83.7706 36.4638 83.479 36.5095 83.2046 36.6105C82.9303 36.7115 82.6784 36.8659 82.4635 37.0647C82.191 37.2954 81.9747 37.5857 81.8313 37.9134C81.6879 38.241 81.6212 38.5973 81.6363 38.9548C81.6257 39.3127 81.6926 39.6687 81.8322 39.9982C81.9718 40.3277 82.1809 40.6229 82.445 40.8635C82.9065 41.2499 83.4901 41.4584 84.091 41.4516C84.6919 41.4448 85.2706 41.2231 85.7233 40.8264C85.9688 40.5837 86.1635 40.2942 86.2961 39.9749C86.4286 39.6557 86.4962 39.3131 86.495 38.9672Z" fill="#D60000"/>
<path d="M89.6807 48.0149H92.4774L99.5403 34.5673H96.7497L94.3172 39.5621L91.6069 34.5673H88.73L92.9034 42.041L89.6807 48.0149Z" fill="#D60000"/>
<path fill-rule="evenodd" clip-rule="evenodd" d="M29.8812 0H90.1188C106.622 0 120 13.4287 120 29.9938V90.0062C120 106.571 106.622 120 90.1188 120H29.8812C13.3783 120 0 106.571 0 90.0062V29.9938C0 13.4287 13.3783 0 29.8812 0ZM59.1081 91.6423V59.6716H68.0663V79.3845L82.7784 59.6716H91.7674V91.6423H82.7908V71.9294L68.0786 91.6423H59.1081ZM44.2169 65.3605C46.6234 65.689 48.8645 66.7737 50.6191 68.4591C53.5517 71.2663 54.1691 75.0899 54.1691 77.6865C54.2093 79.5561 53.8524 81.4128 53.1222 83.1331C52.3919 84.8534 51.305 86.3979 49.9338 87.6638C46.2543 90.911 41.7659 91.6485 37.4998 91.6485H21.0467V42.4004H33.1843C35.9131 42.4004 41.2041 42.4004 45.1738 45.4989C48.0447 47.7113 49.7363 51.5535 49.7363 55.6869C49.7363 62.0327 45.5443 64.6231 44.2169 65.3605ZM78.969 27.2362C81.4269 25.5877 84.3167 24.7078 87.2729 24.7078C91.2371 24.7078 95.0388 26.2885 97.8419 29.1021C100.645 31.9157 102.22 35.7318 102.22 39.7109C102.22 42.6782 101.343 45.5789 99.7007 48.0461C98.0583 50.5134 95.724 52.4364 92.9928 53.5719C90.2616 54.7075 87.2563 55.0046 84.357 54.4257C81.4576 53.8468 78.7943 52.4179 76.704 50.3197C74.6136 48.2214 73.1901 45.5481 72.6134 42.6378C72.0366 39.7275 72.3327 36.7109 73.4639 33.9695C74.5952 31.228 76.511 28.8848 78.969 27.2362Z" fill="#D60000"/>
<path fill-rule="evenodd" clip-rule="evenodd" d="M87.2729 24.7078C84.3167 24.7078 81.4269 25.5877 78.969 27.2362C76.511 28.8848 74.5952 31.228 73.4639 33.9695C72.3327 36.7109 72.0366 39.7275 72.6134 42.6378C73.1901 45.5481 74.6136 48.2214 76.704 50.3197C78.7943 52.4179 81.4576 53.8468 84.357 54.4257C87.2563 55.0046 90.2616 54.7075 92.9928 53.5719C95.724 52.4364 98.0583 50.5134 99.7007 48.0461C101.343 45.5789 102.22 42.6782 102.22 39.7109C102.22 35.7318 100.645 31.9157 97.8419 29.1021C95.0388 26.2885 91.2371 24.7078 87.2729 24.7078ZM75.282 43.3601C75.5419 43.5344 75.8475 43.6274 76.1601 43.6274H76.1354C76.3459 43.6342 76.5556 43.5979 76.7518 43.5209C76.9479 43.4439 77.1265 43.3277 77.2766 43.1793C77.4266 43.031 77.5452 42.8536 77.6249 42.6579C77.7047 42.4623 77.744 42.2524 77.7406 42.041C77.7406 41.7272 77.6479 41.4205 77.4742 41.1596C77.3006 40.8987 77.0537 40.6954 76.7649 40.5753C76.4761 40.4552 76.1584 40.4238 75.8518 40.485C75.5452 40.5462 75.2636 40.6973 75.0425 40.9192C74.8215 41.141 74.671 41.4237 74.61 41.7315C74.549 42.0392 74.5803 42.3582 74.6999 42.6481C74.8195 42.938 75.0221 43.1857 75.282 43.3601ZM84.6923 43.646C85.7918 43.6618 86.856 43.2562 87.6681 42.5119C88.5426 41.5508 89.0326 40.2993 89.044 38.9977C89.0554 37.6961 88.5873 36.4361 87.7298 35.4597C87.3319 35.0742 86.8619 34.7717 86.3469 34.5696C85.8319 34.3675 85.2822 34.2699 84.7293 34.2823C84.1738 34.2619 83.622 34.381 83.1239 34.6288C82.6258 34.8766 82.1973 35.2453 81.877 35.7014V34.5673H79.4075V48.0149H81.877V42.2269C82.1922 42.6792 82.6145 43.0458 83.106 43.2935C83.5975 43.5413 84.1426 43.6624 84.6923 43.646ZM89.6807 48.0149H92.4774L99.5403 34.5673H96.7497L94.3172 39.5621L91.6069 34.5673H88.73L92.9034 42.041L89.6807 48.0149Z" fill="white"/>
<path d="M85.7418 37.1081C86.2275 37.6038 86.4982 38.272 86.495 38.9672C86.4962 39.3131 86.4286 39.6557 86.2961 39.9749C86.1635 40.2942 85.9688 40.5837 85.7233 40.8264C85.2706 41.2231 84.6919 41.4448 84.091 41.4516C83.4901 41.4584 82.9065 41.2499 82.445 40.8635C82.1809 40.6229 81.9718 40.3277 81.8322 39.9982C81.6926 39.6687 81.6257 39.3127 81.6363 38.9548C81.6212 38.5973 81.6879 38.241 81.8313 37.9134C81.9747 37.5857 82.191 37.2954 82.4635 37.0647C82.6784 36.8659 82.9303 36.7115 83.2046 36.6105C83.479 36.5095 83.7706 36.4638 84.0626 36.476C84.6713 36.4832 85.2577 36.7072 85.7171 37.1081H85.7418Z" fill="white"/>
<path fill-rule="evenodd" clip-rule="evenodd" d="M50.6191 68.4591C48.8645 66.7737 46.6234 65.689 44.2169 65.3605C45.5443 64.6231 49.7363 62.0327 49.7363 55.6869C49.7363 51.5535 48.0447 47.7113 45.1738 45.4989C41.2041 42.4004 35.9131 42.4004 33.1843 42.4004H21.0467V91.6485H37.4998C41.7659 91.6485 46.2543 90.911 49.9338 87.6638C51.305 86.3979 52.3919 84.8534 53.1222 83.1331C53.8524 81.4128 54.2093 79.5561 54.1691 77.6865C54.1691 75.0899 53.5517 71.2663 50.6191 68.4591ZM33.4066 50.2211H30.6099L30.6284 62.8445H33.351C34.8019 62.8445 40.7596 62.6958 40.7596 56.4182C40.7596 51.9191 37.3023 50.2211 33.4066 50.2211ZM34.7278 83.8154C36.4935 83.8154 39.142 83.7286 41.2782 82.4892C42.2448 81.8942 43.0345 81.0494 43.5645 80.0432C44.0945 79.037 44.3454 77.9063 44.291 76.7694C44.3199 75.5833 43.9911 74.4161 43.3477 73.4209C42.7043 72.4256 41.7764 71.6487 40.6855 71.192C38.6296 70.2314 36.2033 70.2314 34.1413 70.2314H30.6099V83.8154H34.7278Z" fill="white"/>
<path d="M59.1081 59.6716V91.6423H68.0786L82.7908 71.9294V91.6423H91.7674V59.6716H82.7784L68.0663 79.3845V59.6716H59.1081Z" fill="white"/>
</svg>
