<svg width="144" height="144" viewBox="0 0 144 144" fill="none" xmlns="http://www.w3.org/2000/svg"><g clip-path="url(#clip0_3199_1517)"><rect width="144" height="144" fill="#FC3131"/><rect width="144" height="144" fill="white"/><path fill-rule="evenodd" clip-rule="evenodd" d="M83.6322 63.3969C83.6322 54.7746 77.8268 49.0581 70.9591 49.0581C64.0929 49.0581 58.3854 54.7746 58.3854 63.5899C58.3854 72.2121 64.0929 77.9272 70.9591 77.9272C77.8268 77.9272 83.6322 72.3101 83.6322 63.3969V63.3969ZM43.875 42.8623L58.5795 37.5301V44.9889C62.1593 40.145 67.0919 36.5625 74.733 36.5625C86.8238 36.5625 98.3322 46.0559 98.3322 63.5899C98.3322 80.9324 87.0179 90.4258 74.733 90.4258C66.8978 90.4258 62.0615 86.8419 58.5795 82.6762L58.452 106.262H43.875V42.8623Z" fill="#FC3131"/><path fill-rule="evenodd" clip-rule="evenodd" d="M104.513 98.0427C104.513 102.582 101.05 106.263 96.7782 106.263C92.5065 106.263 89.0437 102.582 89.0437 98.0427C89.0437 93.503 92.5065 89.8226 96.7782 89.8226C101.05 89.8226 104.513 93.503 104.513 98.0427" fill="#1B1F23"/></g><defs><clipPath id="clip0_3199_1517"><rect width="144" height="144" fill="white"/></clipPath></defs></svg>
