<?xml version="1.0" encoding="utf-8"?>
<!-- Generator: Adobe Illustrator 20.1.0, SVG Export Plug-In . SVG Version: 6.00 Build 0)  -->
<svg version="1.1" id="Vordergrund" xmlns="http://www.w3.org/2000/svg" xmlns:xlink="http://www.w3.org/1999/xlink" x="0px"
	 y="0px" viewBox="0 0 48 48" style="enable-background:new 0 0 48 48;" xml:space="preserve">
<style type="text/css">
	.st0{fill:#C8102E;}
</style>
<path class="st0" d="M24,4C12.9,4,4,13.1,4,24s9.1,20,20,20s20-9.1,20-20S35.1,4,24,4z M24,7.5c5.1,0,9.5,2.3,12.4,5.7h-5.7l0.6-1
	c0.7-1.3-1.6-2.3-2.3-1l-1,2.2H11.6C14.7,9.7,19.2,7.5,24,7.5z M7.6,24c0-3.1,0.9-6.1,2.3-8.5h15.5l2.3,5.3H12.2
	c-1,0-1.8,0.7-1.8,1.8V28c0,1.2,0.9,1.6,1.8,2v-7.6h2.2c-0.6,0.7-0.9,1.6-0.9,3.1c0,1.8,0.9,3.1,2.2,3.8l-1.9,3.5l7.4,7.4
	C13.3,38.7,7.6,32.2,7.6,24z M25,40.4l-7.4-7.6l2.8-5.4h2.2l-2.5,5.1l7.7,7.7C26.8,40.2,25.9,40.4,25,40.4z M30.1,39.3l-6.7-6.9
	l2.6-5.3h4.5l-1.2,3.1l1.9,1.2l1.9-4.2H35l-1.3,3.1l1.9,1.2l1.9-4.2c0.6-1.3-0.1-2.6-1.9-2.6h-2.5v-9.1h4.5c1.5,2.5,2.3,5.4,2.3,8.5
	C40.5,30.9,36.3,36.8,30.1,39.3z"/>
</svg>
