<svg xmlns="http://www.w3.org/2000/svg" width="32" height="32" fill="none"><path fill="#fff" d="M0 0h32v32H0z"/><ellipse cx="15.8" cy="12.9" fill="#131313" rx="8.8" ry="8.9"/><path fill="#fff" fill-rule="evenodd" d="M15.6 9.3c1.8.1 3.7.4 5.4 1.4 1 .6 1.6 1.5 1.6 2.7 0 2-1.3 2.9-3 2.7a17.2 17.2 0 0 1-2.3-.5 7.6 7.6 0 0 0-3.7 0l-1.8.5c-1.2.1-2.4-.3-2.8-1.5a3.2 3.2 0 0 1 1.3-3.9c1.6-1 3.4-1.3 5.3-1.4z" clip-rule="evenodd"/><path fill="#000" fill-rule="evenodd" d="M20.4 13c0 .7-.5 1.2-1 1.2-.6 0-1-.5-1-1.1 0-.7.4-1.2 1-1.3.5 0 1 .5 1 1.2zm-7.5 0c0 .7-.4 1.2-1 1.2-.5 0-1-.5-1-1.1 0-.7.4-1.2 1-1.3.6 0 1 .5 1 1.2z" clip-rule="evenodd"/><path fill="#74A352" fill-rule="evenodd" d="M15.4 27.9c-3-1.8-4.8-3.8-6.1-5.8-.4-.7.4-1.4 1-1a9.9 9.9 0 0 0 10.9 0c.6-.4 1.4.3 1 1-1.2 2-3.2 4-6 5.8a.7.7 0 0 1-.8 0z" clip-rule="evenodd"/></svg>