<svg width="121" height="121" xmlns="http://www.w3.org/2000/svg">
 <g>
  <title>background</title>
  <rect x="-1" y="-1" width="123" height="123" id="canvas_background" fill="none"/>
 </g>

 <g>
  <title>Layer 1</title>
  <ellipse fill="#000000" stroke-width="1.5" stroke-opacity="null" cx="60.500002" cy="60.499998" id="svg_16" rx="59.999834" ry="59.422915" stroke="#000"/>
  <g id="svg_18" stroke="null">
   <path d="m45.904312,98.89313l-1.74873,-0.65926c-0.77442,-0.28989 -1.299,-0.05299 -1.57382,0.79173l-1.09919,3.24411c-0.27481,0.81745 -0.04995,1.37152 0.74945,1.66218l1.74873,0.65927c0.77442,0.28989 1.299,0.05299 1.57382,-0.79174l0.59959,-1.74089c0.04995,-0.10521 0,-0.2369 -0.12496,-0.2634l-1.64875,-0.63355c-0.12496,-0.05221 -0.22486,0 -0.24984,0.13248l-0.22486,0.65926c-0.04996,0.10521 0,0.23768 0.12495,0.2634l0.69949,0.26417l-0.22486,0.63277c-0.07493,0.23768 -0.27481,0.34288 -0.4996,0.26417l-1.07422,-0.42236c-0.22486,-0.07871 -0.32477,-0.28989 -0.24984,-0.52757l0.94933,-2.76953c0.07493,-0.23768 0.27475,-0.34288 0.49961,-0.26417l1.07421,0.42236c0.22487,0.07949 0.32477,0.28989 0.24984,0.52757l-0.09998,0.28989c-0.04995,0.10598 0,0.23768 0.12496,0.26417l0.74945,0.28989c0.0999,0.05299 0.22478,0 0.24976,-0.1317l0.17491,-0.50107c0.27482,-0.81745 0.04995,-1.37151 -0.74944,-1.66218l-0.00001,0z" fill="#C7A67D" id="svg_1" stroke="null"/>
   <path d="m50.625852,100.31763l-0.92436,-0.21118c-0.14986,-0.02571 -0.24976,0.0265 -0.32476,0.13248l-2.77292,4.93278c-0.07493,0.10521 -0.02498,0.21041 0.07493,0.2369l0.84935,0.21118c0.14993,0.0265 0.24984,-0.02649 0.32477,-0.13169l0.4747,-0.92344l1.6987,0.39587l0.04996,1.05513c0.02497,0.1317 0.07493,0.23768 0.22486,0.2634l0.84935,0.21118c0.09991,0.02649 0.17491,-0.05299 0.14994,-0.18469l-0.49968,-5.72374c0.04995,-0.10598 -0.02498,-0.21118 -0.17484,-0.26418zm-1.74873,3.21839l0.8993,-1.6879l0.07501,0.02572l0.12488,1.92558l-1.09919,-0.2634z" fill="#C7A67D" id="svg_2" stroke="null"/>
   <path d="m56.121802,101.10937l-1.54884,-0.15819c-0.82445,-0.07948 -1.2741,0.28989 -1.34903,1.16034l-0.04995,0.58055c-0.07501,0.71226 0.17483,1.02864 0.74944,1.34502l1.67373,0.89695c0.19988,0.1052 0.24984,0.18468 0.24984,0.39587l-0.02498,0.23689c-0.02498,0.26418 -0.19988,0.39587 -0.42467,0.36938l-0.99929,-0.10521c-0.22486,-0.02649 -0.37472,-0.21118 -0.34975,-0.44886l0.02498,-0.28988c0,-0.1317 -0.04995,-0.21119 -0.17483,-0.23768l-0.79948,-0.07871c-0.12488,0 -0.19981,0.05299 -0.22479,0.18469l-0.04995,0.55406c-0.07493,0.87045 0.27474,1.34502 1.09919,1.42451l1.6987,0.18468c0.82445,0.07871 1.27411,-0.29066 1.34904,-1.16111l0.04995,-0.58056c0.07493,-0.71147 -0.17484,-1.02863 -0.74945,-1.34502l-1.67372,-0.89694c-0.19989,-0.1052 -0.24984,-0.18468 -0.24984,-0.39587l0.02497,-0.26339c0.02498,-0.26417 0.19982,-0.39587 0.42468,-0.36938l0.82438,0.07949c0.24984,0.02572 0.37472,0.2104 0.34974,0.44808l-0.02497,0.28989c0,0.13248 0.04995,0.21118 0.17491,0.23768l0.79939,0.07949c0.12489,0 0.19982,-0.05299 0.22487,-0.18469l0.04995,-0.55406c0.0999,-0.84395 -0.24984,-1.31931 -1.07422,-1.39802z" fill="#C7A67D" id="svg_3" stroke="null"/>
   <path d="m62.167322,101.29406l-3.74723,0.05221c-0.12488,0 -0.19988,0.07949 -0.19988,0.21118l0,0.71226c0,0.13169 0.075,0.21118 0.19988,0.21118l1.27403,-0.0265l0.05003,4.53692c0,0.13247 0.07493,0.21118 0.19981,0.21118l0.7994,0c0.12495,0 0.19988,-0.07871 0.19988,-0.21118l-0.04995,-4.53692l1.27403,-0.02649c0.12488,0 0.19988,-0.07871 0.19988,-0.21118l0,-0.71226c0,-0.1052 -0.09998,-0.2104 -0.19988,-0.2104z" fill="#C7A67D" id="svg_4" stroke="null"/>
   <path d="m67.188652,104.67064c0,0 0.74944,-0.18469 0.59951,-1.3193l-0.17484,-1.42451c-0.0999,-0.87045 -0.54963,-1.23982 -1.37401,-1.13384l-2.72296,0.3686c-0.12496,0.02649 -0.19989,0.10598 -0.17491,0.23767l0.67452,5.40736c0.02497,0.13248 0.0999,0.18469 0.22486,0.18469l0.7994,-0.1052c0.12488,-0.0265 0.17483,-0.1052 0.17483,-0.23768l-0.19981,-1.63491l1.02426,-0.13248l0.89931,1.53049c0.07493,0.1052 0.14993,0.18469 0.32476,0.15819l0.84936,-0.10598c0.075,0 0.17491,-0.1052 0.09998,-0.2369l-1.02426,-1.5562zm-0.94934,-0.92343l-1.37393,0.18468l-0.22486,-1.74089l1.374,-0.18469c0.22479,-0.02649 0.42468,0.10521 0.44966,0.36938l0.12488,0.92265c0.02498,0.23768 -0.12488,0.42237 -0.34975,0.44886l0,0.00001z" fill="#C7A67D" id="svg_5" stroke="null"/>
   <path d="m73.084302,100.44933c-0.19989,-0.84395 -0.69949,-1.16033 -1.49889,-0.92266l-1.89859,0.52757c-0.79947,0.21118 -1.09919,0.73875 -0.8744,1.5827l0.82437,3.32359c0.19989,0.84395 0.6995,1.16033 1.49897,0.92344l1.89859,-0.52757c0.7994,-0.21118 1.09919,-0.73875 0.87433,-1.5827l-0.82438,-3.32437zm-0.67451,3.90415l-1.1991,0.31716c-0.22486,0.05221 -0.42468,-0.05299 -0.4747,-0.29067l-0.69942,-2.84901c-0.05003,-0.2369 0.04995,-0.44808 0.27474,-0.50107l1.19917,-0.31639c0.22479,-0.05298 0.42468,0.05299 0.47463,0.28989l0.69949,2.84902c0.07493,0.23768 -0.04995,0.44886 -0.27481,0.50107z" fill="#C7A67D" id="svg_6" stroke="null"/>
   <path d="m79.129822,100.74c-0.29972,-0.81823 -1.0992,-0.63355 -1.0992,-0.63355l-0.02497,-0.0787c0,0 0.42467,-0.31639 0.17491,-0.97643l-0.19989,-0.50107c-0.29979,-0.81746 -0.82437,-1.05513 -1.5988,-0.73875l-2.29829,0.94993c-0.09998,0.05299 -0.14993,0.15819 -0.09998,0.26417l1.89867,5.06449c0.04995,0.1052 0.14986,0.15819 0.24976,0.1052l2.54813,-1.08163c0.77442,-0.31638 0.99929,-0.87044 0.69949,-1.6879l-0.24984,-0.68576l0.00001,0zm-3.32256,-0.23768l-0.39969,-1.05513l1.02426,-0.42159c0.22486,-0.10598 0.42467,0 0.52458,0.2369l0.09998,0.26417c0.0999,0.2369 0,0.44809 -0.22486,0.55407l-1.02427,0.42158zm2.17341,1.76739l-1.299,0.55406l-0.47471,-1.29281l1.29908,-0.55406c0.22486,-0.1052 0.42468,0 0.52458,0.23768l0.19989,0.50107c0.04995,0.23767 -0.02498,0.44886 -0.24984,0.55406z" fill="#C7A67D" id="svg_7" stroke="null"/>
   <path d="m81.328202,95.49083c-0.09991,-0.07948 -0.19982,-0.13247 -0.34975,-0.05299l-0.84935,0.47458c-0.14986,0.07948 -0.17484,0.18468 -0.14986,0.31638l1.02419,5.64504c0.02497,0.13248 0.09998,0.18469 0.19988,0.13248l0.77443,-0.44886c0.14986,-0.07871 0.1749,-0.21119 0.14993,-0.31639l-0.22486,-1.02864l1.52386,-0.89694l0.69949,0.73875c0.09991,0.07871 0.19982,0.1317 0.34975,0.05221l0.77442,-0.44808c0.07493,-0.05299 0.09991,-0.15819 0,-0.23768l-3.92213,-3.92986zm0.37472,3.58699l-0.3997,-1.87259l0.075,-0.05299l1.29901,1.3458l-0.97431,0.57978z" fill="#C7A67D" id="svg_8" stroke="null"/>
   <path d="m90.021972,95.91242l-1.59895,-0.89694c0,0 0.57483,-0.52757 -0.075,-1.45023l-0.7994,-1.16111c-0.4996,-0.71225 -1.04924,-0.81761 -1.72368,-0.28989l-2.22336,1.6879c-0.09998,0.07949 -0.12495,0.18469 -0.05002,0.29067l3.02283,4.43093c0.07493,0.10598 0.17483,0.13248 0.27474,0.05299l0.64954,-0.50107c0.09991,-0.07948 0.12488,-0.18468 0.04995,-0.28989l-0.8993,-1.3193l0.84935,-0.63277l1.49918,0.87045c0.12452,0.0787 0.22472,0.1052 0.34923,0l0.69994,-0.52757c0.07441,-0.07949 0.09946,-0.21118 -0.02505,-0.26417zm-2.84807,-1.23982l-1.12417,0.87044l-0.97423,-1.4245l1.12417,-0.87045c0.19981,-0.15819 0.42467,-0.1052 0.54955,0.10598l0.52466,0.73875c0.12488,0.2104 0.07493,0.42158 -0.09998,0.57978z" fill="#C7A67D" id="svg_9" stroke="null"/>
   <path d="m68.862372,28.17275c-2.07342,0.42205 -6.81993,7.1749 -7.0448,12.68801c-0.02497,0.63308 0.24984,1.23982 0.6995,1.63545c0.72446,0.63308 1.94854,1.42451 3.17269,1.26624c1.97351,-0.26378 4.2718,-5.8824 4.2718,-5.8824c0,0 -0.94925,2.45314 -0.04995,3.45552c0.89938,1.00237 3.32255,1.18706 3.74723,0.73859c0.44972,-0.42205 7.54447,-12.18678 7.54447,-12.18678l0.52459,4.85361c0,0 -4.62156,5.75047 -4.89637,8.81035c0,0 0.64953,0.73867 1.22407,0.23745c0,0 1.47391,-4.45798 4.09704,-7.14856c0,0 2.27332,4.27328 5.7707,2.717c1.09956,-0.92328 2.74772,-3.58753 3.22294,-5.14381c0.12452,-0.71225 -1.07421,-0.42205 -1.07421,-0.42205c0,0 -1.49934,3.19181 -2.44845,3.35008c-0.67451,0.10552 -1.49896,-5.19656 -1.49896,-5.19656c0,0 3.7971,-5.06472 6.69483,-6.80569c0,0 0.8495,0.2902 1.07422,0c0.22545,-0.29012 -0.599,-1.71455 -1.4986,-1.66179c-0.8996,0.05275 -6.09554,5.302 -6.77006,6.48906c0,0 -0.17483,-2.74334 0.12489,-3.48193c0,0 0.37472,-0.42206 0.49967,-0.7386c0.14986,-0.31654 -3.3725,-1.52994 -5.12123,0.94962l-0.04995,1.5827c0,0 -6.09554,9.94466 -7.44457,11.79115c0,0 0.82445,-7.57062 3.64732,-10.76243c0,0 0.27481,-0.05268 0.59958,-0.23737c0.29979,-0.18469 0,-0.92328 0,-0.92328c0,0 -1.27403,-1.18699 -3.22264,-1.23974c0,0 -1.09919,0.9232 -1.79869,2.00475c-0.02497,0.02634 -1.79868,-1.18706 -3.99706,-0.73859zm3.62235,1.31891c-0.64947,3.19182 -6.84492,13.08373 -6.84492,13.08373c0,0 0.12488,-3.77214 2.12338,-8.07185c2.02355,-4.29962 4.72154,-5.01188 4.72154,-5.01188z" fill="#C7A67D" id="svg_10" stroke="null"/>
   <path d="m96.167392,42.0214c-12.61583,-0.34288 -18.56144,5.51311 -18.56144,5.51311c0,0 8.26894,-3.27091 17.26251,-2.55866c8.99305,0.71218 20.25977,1.47719 21.13432,-7.38601c-0.02505,0 -7.21963,4.77452 -19.83539,4.43156z" fill="#C7A67D" id="svg_11" stroke="null"/>
   <path d="m93.094312,46.26835c-0.04936,-0.39564 -1.6489,-0.60666 -1.6489,-0.60666c-4.92105,-0.60674 -11.5162,1.87282 -11.5162,1.87282c6.59515,-1.952 13.1651,-1.26616 13.1651,-1.26616z" fill="#C7A67D" id="svg_12" stroke="null"/>
   <path d="m102.138192,48.77433c-1.22451,0.63308 -7.26973,15.35226 -8.44415,15.37859c-1.17441,0.02642 3.2978,-11.39543 4.07214,-12.13402c0.77435,-0.73859 0.49954,-0.94962 0,-1.18706c-0.49953,-0.23745 -2.59786,-1.13431 -3.49746,0.05275c-0.8996,1.18707 -1.79846,4.24695 -1.79846,4.24695c0,0 -2.09833,3.29733 -2.82331,3.40284c-0.7493,0.10552 0.97475,-4.11509 1.57374,-4.77451c0.42512,-0.47481 1.12432,-0.47481 0.22472,-1.02879c-0.89886,-0.52757 -2.74742,-1.89924 -4.19658,0.05275c-1.44887,1.952 -5.34602,8.62575 -5.34602,8.62575c0,0 2.32326,-6.19894 2.94782,-6.72651c0.59959,-0.52756 0.02498,-0.79135 -0.62456,-1.02871c-0.64954,-0.21103 -2.54813,-0.94962 -3.07271,0.07909c-0.52466,1.00238 -2.69799,6.64742 -2.69799,6.64742c0,0 -4.34681,8.41472 -7.61941,8.04542c0,0 -1.44893,-0.2902 -0.02497,-4.35246c0,0 1.09919,0.63308 2.52315,0.10551c1.42389,-0.52756 5.67079,-5.35483 4.14692,-7.72888c-1.52386,-2.40047 -4.04701,-2.11027 -6.69505,0.8441c-2.64811,2.95438 -4.34681,7.09581 -5.62091,9.25883c-0.94926,1.60912 -1.84864,3.00713 -2.24834,3.61387c-0.14986,0.23737 -0.42467,0.31654 -0.67451,0.21103c-0.47463,-0.21103 -1.17412,-0.84411 -1.09919,-2.71701c0,0 4.19695,-1.52994 5.54591,-8.65208c0,0 -1.12417,-1.66188 -3.07271,-1.60912c-1.94855,0.05276 -6.79496,9.76005 -6.79496,9.76005c0,0 6.49516,-14.37629 6.6451,-16.85586c0.0999,-1.95199 -4.4717,-0.71225 -6.91992,0.26379c-2.74801,-7.30683 11.06684,-30.62539 11.06684,-30.62539c0.82438,-0.31655 1.92357,-0.1319 1.92357,-0.1319l0.12496,-0.31654c-1.44894,-1.87287 -3.92214,-2.08389 -5.17119,-2.03114c-0.52466,0.02638 -0.99929,0.23741 -1.37401,0.63308c-6.57017,7.0167 -15.01395,23.10755 -15.01395,23.10755c0.82437,-6.77927 5.94561,-16.30188 7.96915,-19.46736c0.19982,-0.29012 0.47463,-0.50115 0.77443,-0.63304c0.42467,-0.21103 0.57453,-0.76497 0.34974,-1.21341c-0.97431,-1.87287 -2.74801,-3.16542 -4.74651,-3.4292c-13.63994,-1.87287 -25.43133,7.91356 -23.45773,13.47943c1.57382,4.43155 6.62012,0.52756 6.62012,0.52756l-0.04995,-0.42205c0,0 -2.97281,-1.23982 -0.42468,-5.24932c4.34674,-6.80567 14.53925,-5.9088 14.53925,-5.9088c-12.51578,15.40499 -16.6627,30.15059 -16.6627,30.15059c-2.57311,-1.29258 -1.47392,-4.7481 -1.47392,-4.7481l-0.69949,0.23736c0,0 -2.29829,2.50598 -0.49968,5.75048c0.19989,0.34295 0.39978,0.60674 0.64954,0.87052c-3.82215,0.68584 -7.71931,3.29733 -9.84274,5.14381c-3.89712,3.37642 -9.29315,10.2612 -4.37178,14.50815c0.17488,0.15827 0.52462,-0.07917 0.39971,-0.2902c-0.84937,-1.23974 -1.39897,-5.64496 5.52096,-11.10531c8.01904,-6.33079 13.16532,-3.48194 13.14027,-1.08147c-0.02498,2.16302 -2.34824,6.8847 -8.39376,8.70484c0,0 2.14836,-4.74809 1.94855,-5.61862c-0.19989,-0.87044 -1.97352,-3.08622 -3.32255,-2.11026c-1.34903,0.97604 -9.64291,20.81261 -8.86848,23.89891c0.77442,3.08622 2.79793,2.84886 3.1227,2.58507c0.32476,-0.26378 0.57457,-2.63783 0.57457,-2.63783c0,0 7.41954,3.64021 12.71561,-3.21815c5.29614,-6.85844 4.04702,-13.42668 -0.44965,-13.66405c0,0 10.14256,-5.90882 5.49595,-12.31879c-0.72446,-0.97596 -1.52386,-1.68821 -2.39819,-2.16302c4.99628,-13.90141 13.81478,-26.87962 13.81478,-26.87962c-5.59586,10.07652 -6.47019,18.30663 -6.47019,18.30663c0.89931,3.05989 4.04702,3.1654 4.04702,3.1654c3.54734,-9.39068 10.46726,-19.46728 10.46726,-19.46728c-8.41881,16.40739 -4.17191,24.76936 -3.79718,25.42886c-0.19989,0.65941 0,1.37167 0.82437,1.71455l3.39748,-0.58033l-3.87211,10.0766c0,0 -5.0463,9.54903 -5.8457,9.89191c-0.7994,0.31654 2.09848,-9.81282 3.57239,-10.81519c0,0 1.32398,-0.58033 0.54956,-1.02872c-1.07422,-0.65949 -2.29829,-1.23982 -3.09769,-1.26616c0,0 -1.17419,1.18699 -1.6738,2.18936c0,0 -1.07421,-1.79372 -4.09697,-0.89686c0,0 -2.69799,1.42443 -4.72153,6.09343c-1.22408,2.84886 -1.5988,5.17023 -1.69878,6.5419c-0.07493,0.9232 0.37472,1.79373 1.14922,2.24212c0.62449,0.3693 1.47391,0.71225 2.42317,0.6595c1.99857,-0.10552 4.27188,-6.14619 4.27188,-6.14619c0,0 -0.99928,3.27091 0.07493,4.0095c1.07422,0.71226 3.07271,0.94962 3.84713,-0.1846c0.7745,-1.13431 3.3476,-5.46035 3.3476,-5.46035c0,0 -1.374,2.95437 -0.14993,3.9304c1.1991,0.97596 2.69806,1.13423 2.82294,0.7386c0.12489,-0.39572 0.94926,-4.19419 2.19839,-5.75055c0,0 0.74944,4.40521 4.49667,4.27328c0.37472,0 0.72447,-0.21095 0.94933,-0.5539l3.64732,-5.48669c0,0 0.34974,4.29962 3.84713,4.11501c3.49746,-0.18468 6.47026,-5.46035 6.47026,-5.46035c0,0 -0.72446,1.97842 0.57454,2.55874c1.29908,0.60666 2.54813,0.9232 2.89787,0.58032c0.34975,-0.31654 0.3997,-2.50598 2.54813,-6.38363c2.14843,-3.87765 3.22265,-5.72413 3.22265,-5.72413c0,0 -0.92436,2.63791 0,3.11272c0.92428,0.50115 2.77269,1.26616 3.39748,0.76493c0.62478,-0.50115 1.67394,-1.66179 1.67394,-1.66179c0,0 -1.77415,4.69534 -1.12431,5.40751c0.64983,0.71225 2.32304,2.32137 3.67207,1.58278c1.32398,-0.73867 3.69713,-5.11747 3.69713,-5.11747c0,0 -1.64816,5.48677 -2.92278,11.02621c-16.96227,1.47719 -52.06139,7.51786 -59.50589,12.71443c-12.11607,8.46779 -0.29979,16.09061 -0.29979,16.09061c0,0 -3.49746,-8.73102 10.84198,-14.21779c13.39018,-5.11739 36.29828,-8.86311 48.13925,-10.57774c-0.12451,0.71225 -0.22471,1.42443 -0.32418,2.05751c0,0 -1.39913,12.26603 2.24789,11.84398c3.64777,-0.44847 9.1183,-15.1149 8.11924,-17.75273c-0.17461,-0.44847 -1.92371,-0.58032 -4.74629,-0.47481c1.3984,-5.98791 3.79733,-15.37867 6.02017,-19.5992c0,0 1.02411,0.36929 1.09926,-0.2902c0.10021,-0.65942 -2.92277,-2.98071 -4.14655,-2.34763l-0.00001,-0.00001zm-26.33093,9.17973c-1.79868,5.40752 -4.62155,5.22291 -4.62155,5.22291c1.299,-3.35009 4.62155,-5.22291 4.62155,-5.22291zm-42.61861,14.16519c-3.07271,7.80798 -11.01687,8.23012 -11.01687,8.23012l4.27186,-10.57782c3.92214,-2.55866 8.6436,-2.45315 6.74501,2.3477zm8.54369,2.92804c0,0 -0.92428,-1.08155 1.2741,-6.14619c2.49817,-5.72413 4.6466,-5.40759 4.6466,-5.40759c-2.49817,5.24932 -4.49674,9.86556 -5.9207,11.55378zm16.88764,-8.62575c1.17412,-2.95445 4.64653,-7.01671 4.64653,-7.01671c-1.9985,7.01671 -4.64653,7.01671 -4.64653,7.01671zm42.81828,7.91349c0,0 -2.14843,8.04543 -4.74629,11.18449c0,0 0.94896,-7.41235 1.32398,-9.12698c0,0 0.12525,-0.63308 0.34997,-1.68821c1.94802,-0.23737 3.07234,-0.3693 3.07234,-0.3693z" fill="#C7A67D" id="svg_13" stroke="null"/>
   <path d="m37.285622,92.64182c0,0 5.92063,-5.67153 19.68554,-9.49635c0,-0.02642 -15.53854,3.37642 -19.68554,9.49635z" fill="#C7A67D" id="svg_14" stroke="null"/>
  </g>
 </g>
</svg>