<?xml version="1.0" encoding="utf-8"?>
<!-- Generator: Adobe Illustrator 25.4.0, SVG Export Plug-In . SVG Version: 6.00 Build 0)  -->
<svg version="1.1" id="Слой_1" xmlns="http://www.w3.org/2000/svg" xmlns:xlink="http://www.w3.org/1999/xlink" x="0px" y="0px"
     viewBox="0 0 16 16" style="enable-background:new 0 0 16 16;" xml:space="preserve">
<style type="text/css">
	.st0{fill:#E8E100;}
	.st1{fill-rule:evenodd;clip-rule:evenodd;fill:#1E1E1C;}
</style>
    <path class="st0" d="M12.8,16H3.2C1.43,16,0,14.57,0,12.8V3.2C0,1.43,1.43,0,3.2,0h9.61C14.57,0,16,1.43,16,3.2v9.61
	C16,14.57,14.57,16,12.8,16z"/>
    <g>
	<path class="st1" d="M11.83,9.87c-0.61,1.43-1.93,2.47-3.78,2.47c-2.26,0-3.9-1.52-4.17-3.61h10.08c0.22-2.14-0.42-3.72-1.49-4.9
		C11.34,2.6,9.88,1.95,8.04,1.95C4.57,1.95,2,4.66,2,8c0,3.44,2.52,6.05,6.04,6.05c2.85,0,5.1-1.91,5.72-4.18H11.83L11.83,9.87z
		 M8.07,3.66L8.07,3.66c2.19,0,3.74,1.46,4.05,3.37H3.91C4.28,5.03,5.88,3.66,8.07,3.66z"/>
</g>
</svg>
