<svg width="120" height="120" fill="none" xmlns="http://www.w3.org/2000/svg"><path fill-rule="evenodd" clip-rule="evenodd" d="M17.433 104.544c14.99 0 26.329-19.522 36.496-40.835 4.886-10.335 9.447-21.164 14.011-30.342C72.948 23.191 78.088 16 84.371 16c5.334 0 10.35 4.306 15.337 11.05C110.057 41.047 119 64.755 119 80.308c0 13.028-6.706 24.236-20.449 24.236H17.433Z" fill="#64CDFF"/><path fill-rule="evenodd" clip-rule="evenodd" d="M53.927 63.707C43.626 42.941 38.965 27.706 29.849 27.706c-5.654 0-12.03 5.938-17.804 15.668C5.863 53.694 1 68.263 1 83.934c0 12.375 6.053 20.607 16.431 20.607 14.996 0 26.334-19.522 36.496-40.835" fill="#2855AF"/></svg>