<?xml version="1.0" encoding="UTF-8"?>
<!DOCTYPE svg PUBLIC "-//W3C//DTD SVG 1.1//EN" "http://www.w3.org/Graphics/SVG/1.1/DTD/svg11.dtd">
<!-- Creator: CorelDRAW -->
<svg xmlns="http://www.w3.org/2000/svg" xml:space="preserve" width="110.669mm" height="94.9695mm" version="1.1" style="shape-rendering:geometricPrecision; text-rendering:geometricPrecision; image-rendering:optimizeQuality; fill-rule:evenodd; clip-rule:evenodd"
viewBox="0 0 2201.25 1888.98"
 xmlns:xlink="http://www.w3.org/1999/xlink"
 xmlns:xodm="http://www.corel.com/coreldraw/odm/2003">
 <defs>
  <style type="text/css">
   <![CDATA[
    .fil0 {fill:black;fill-rule:nonzero}
    .fil1 {fill:#00D219;fill-rule:nonzero}
   ]]>
  </style>
 </defs>
 <g id="Слой_x0020_1">
  <metadata id="CorelCorpID_0Corel-Layer"/>
  <g id="_1863007347376">
   <g id="_1863009322416">
    <path class="fil0" d="M453.85 1699.39c332.56,36.82 784.39,-27.15 881.23,-325.13 26.85,-82.59 24.6,-151.83 -14.99,-211.46 -306.33,149.87 -663.52,362.73 -866.24,536.6zm-453.84 -186.34c22.38,-463.18 139.38,-1030.03 508.57,-1343.6 187.48,-159.22 359.29,-194.82 486.52,-153.75 165.37,53.39 233.94,218.64 217.85,381.17 -13.36,134.88 -85.33,290.51 -233.25,431.62 152.5,8.46 271.45,48.18 359.02,107.07 179.58,120.75 231.49,297.03 167.37,494.31 -156.22,480.64 -907.85,523.52 -1313.26,400.59l33.82 -167.94c126.79,-163.02 545.61,-426.28 928.7,-619.62 -144.22,-53.01 -325.49,-40.45 -474.54,-13.33l-57.36 -167.86c274.91,-143.94 395.91,-332.78 410.72,-482.43 7.41,-74.83 -13.37,-166.53 -93.98,-192.55 -72.57,-23.43 -181.7,6.33 -315.5,119.96 -322.94,274.29 -424.03,801.88 -444.82,1206.37l-179.87 0 0.01 -0.01z"/>
    <path class="fil1" d="M1505.42 984.12c54.07,-205.76 131.71,-299.82 253.07,-352.12 120.99,-50.59 275.1,-43.53 442.76,36.89 -35.67,169.82 -124.31,324.88 -261.53,366.62 -122.92,33.9 -260.8,35.7 -434.28,-51.39l-0.01 0z"/>
   </g>
  </g>
 </g>
</svg>
