


<svg clip-rule="evenodd" fill-rule="evenodd" height="34" image-rendering="optimizeQuality" shape-rendering="geometricPrecision" text-rendering="geometricPrecision" viewBox="0 0 34 34" width="34" xmlns="http://www.w3.org/2000/svg"><path d="m8.34 27.03 4.74-4.74 2.08-2.07c.44-.45 1.03-.72 1.66-.76.76-.06 1.5.22 2.04.76l2.08 2.07 4.73 4.74c1.59 1.59 1.59 4.19 0 5.78-1.59 1.58-4.19 1.58-5.77 0l-2.89-2.89-2.89 2.89c-1.59 1.58-4.19 1.58-5.78 0-1.59-1.59-1.59-4.19 0-5.78z" fill="#f00"/><path d="m8.33 6.97 4.74 4.74 2.08 2.07c.21.22.48.4.75.53.63.29 1.37.31 2.03.07.06-.06.64-.32.92-.6l2.08-2.07 4.74-4.74c1.58-1.59 1.58-4.19 0-5.78-1.59-1.58-4.19-1.58-5.78 0l-2.89 2.89-2.89-2.89c-1.59-1.58-4.19-1.58-5.78 0-1.58 1.59-1.58 4.19 0 5.78z" fill="#f00"/><g fill="#155ea4"><path d="m27.03 25.52-4.74-4.73-2.08-2.08c-.26-.26-.46-.58-.59-.92-.2-.52-.22-1.08-.08-1.61.12-.44.35-.85.67-1.17l2.08-2.08 4.74-4.73c1.59-1.59 4.19-1.59 5.78 0s1.59 4.18 0 5.77l-2.89 2.89 2.89 2.89c1.59 1.59 1.59 4.19 0 5.77-1.59 1.59-4.19 1.59-5.78 0z"/><path d="m6.97 25.52 4.74-4.73 2.08-2.08c.46-.47.72-1.08.76-1.72.03-.74-.24-1.46-.76-1.98l-2.08-2.08-4.74-4.73c-1.59-1.59-4.19-1.59-5.78 0s-1.59 4.18 0 5.77l2.89 2.89-2.89 2.89c-1.59 1.59-1.59 4.19 0 5.77 1.59 1.59 4.19 1.59 5.78 0z"/></g></svg>