<?xml version="1.0" encoding="UTF-8"?> <svg xmlns="http://www.w3.org/2000/svg" width="32" height="32" viewBox="0 0 32 32" fill="none"><g clip-path="url(#clip0_414_7663)"><rect width="32" height="32" rx="5" fill="#2A2A2A"></rect><path d="M8.36006 16.5565C8.33326 16.5559 8.57533 16.5199 8.71231 16.5086C8.8465 16.4973 8.98628 16.4917 9.12886 16.4917C9.27143 16.4917 9.41401 16.4973 9.55379 16.5086C9.69357 16.5199 9.81378 16.5368 9.90604 16.5565C9.91442 16.5931 9.91722 16.6269 9.91722 16.6635V16.9C9.91722 16.9367 9.91442 16.9705 9.90604 17.0071C9.93399 17.4436 9.9955 17.7252 10.0933 17.8491C10.1884 17.973 10.3505 18.0378 10.577 18.0378C10.8677 18.0378 11.0494 17.9477 11.1193 17.7703C11.1892 17.5928 11.2256 17.3422 11.2256 17.0183C11.2256 16.962 11.2256 16.9057 11.2312 16.8522C11.234 16.7987 11.2395 16.7508 11.2479 16.7085C11.22 16.3734 11.1165 16.1707 10.9404 16.1031C10.7643 16.0355 10.5295 16.0017 10.2387 16.0017C10.0961 16.0017 10.0067 15.9679 9.96754 15.9003C9.9284 15.8327 9.90883 15.7426 9.90883 15.6271C9.90883 15.5764 9.90883 15.5257 9.91442 15.4722C9.91722 15.4187 9.92002 15.3624 9.92002 15.3061C9.92002 15.1765 9.92281 15.0526 9.9312 14.9372C9.93958 14.8189 9.95356 14.7175 9.97313 14.6302C10.0095 14.6246 10.0458 14.6189 10.085 14.6133C10.1241 14.6105 10.1688 14.6077 10.2191 14.6077C10.2695 14.6077 10.3142 14.6077 10.3533 14.6133C10.3925 14.6161 10.4288 14.6217 10.4652 14.6302C10.672 14.6077 10.837 14.5457 10.9656 14.4387C11.0942 14.3317 11.1669 14.1402 11.1892 13.8642C11.1669 13.6079 11.1165 13.4277 11.0355 13.3206C10.9544 13.2136 10.8034 13.1601 10.5826 13.1601C10.3617 13.1601 10.2108 13.2136 10.1297 13.3206C10.0486 13.4277 9.9955 13.6107 9.97593 13.867C9.99829 14.0163 9.96474 14.112 9.87529 14.1514C9.78583 14.1909 9.674 14.2106 9.53981 14.2106C9.48949 14.2106 9.43917 14.2106 9.38605 14.2049C9.33294 14.1993 9.27982 14.1993 9.23229 14.1993C8.92757 14.1993 8.67876 14.1768 8.48587 14.1345C8.4635 14.0641 8.44953 13.9825 8.44393 13.8923C8.43555 13.8022 8.43275 13.7121 8.43275 13.6192V13.3291C8.43275 12.8081 8.56414 12.411 8.82693 12.1378C9.08972 11.8675 9.55099 11.7295 10.2108 11.7295H10.3925C10.4568 11.7295 10.5211 11.7323 10.5854 11.7408C10.6553 11.7323 10.7279 11.7295 10.8034 11.7295H11.0103C11.6701 11.7295 12.1285 11.859 12.3829 12.1153C12.6373 12.3716 12.7659 12.7771 12.7659 13.3263V13.5093C12.7659 13.5741 12.7632 13.6389 12.7548 13.7037C12.7967 14.0754 12.7408 14.3852 12.5842 14.6358C12.4277 14.8865 12.2292 15.0667 11.9888 15.1822C12.3019 15.3455 12.5311 15.5426 12.6821 15.7708C12.8302 15.9989 12.9057 16.3199 12.9057 16.7339C12.9057 16.8043 12.9057 16.8775 12.9001 16.9479C12.8973 17.0183 12.8917 17.0944 12.8834 17.1732C12.8917 17.2605 12.8945 17.345 12.9001 17.4295C12.9029 17.514 12.9057 17.5985 12.9057 17.6773C12.9057 18.2913 12.7687 18.7447 12.4948 19.0319C12.2208 19.322 11.726 19.4656 11.0103 19.4656H10.7978C10.7279 19.4656 10.6553 19.4628 10.5854 19.4544C10.5211 19.46 10.4596 19.4656 10.3981 19.4656H10.2219C9.5482 19.4656 9.05897 19.3107 8.75704 19.0038C8.45512 18.6968 8.30415 18.2575 8.30415 17.683V17.5224C8.30415 17.4717 8.30695 17.4182 8.31533 17.3619C8.30695 17.3056 8.30415 17.2521 8.29856 17.2014C8.29577 17.1507 8.29297 17.1028 8.29297 17.0521C8.29297 16.9592 8.29856 16.8691 8.30975 16.779C8.32093 16.6888 8.3405 16.6156 8.36845 16.5593L8.36006 16.5565Z" fill="#FF7A0F"></path><path d="M15.2293 19.2176C15.2293 19.2239 15.0168 19.2542 14.8715 19.2655C14.7261 19.2768 14.5779 19.2824 14.4298 19.2824C14.2816 19.2824 14.1334 19.2768 13.988 19.2655C13.8427 19.2542 13.7225 19.2373 13.6302 19.2176C13.5883 19.0318 13.5659 18.7896 13.5659 18.4882C13.5659 18.1869 13.5883 17.9334 13.6302 17.7476C13.5659 17.1533 13.5352 16.5986 13.5352 16.086C13.5352 15.0778 13.6666 14.216 13.9293 13.5007C14.1921 12.7854 14.5947 12.1799 15.1315 11.6871C15.316 11.6448 15.5564 11.6223 15.8555 11.6223C16.1546 11.6223 16.4062 11.6448 16.5908 11.6871C17.1303 12.1884 17.5329 12.7995 17.7985 13.5204C18.064 14.2442 18.1982 15.1116 18.1982 16.1282C18.1982 16.6295 18.1675 17.1674 18.1032 17.7476C18.1255 17.8405 18.1395 17.9503 18.1507 18.0799C18.1619 18.2094 18.1675 18.3446 18.1675 18.4882C18.1675 18.6319 18.1619 18.7642 18.1507 18.8909C18.1395 19.0177 18.1228 19.1247 18.1032 19.2176C18.0109 19.2402 17.8907 19.2542 17.7453 19.2655C17.6 19.2768 17.4518 19.2824 17.3036 19.2824C17.1555 19.2824 17.0073 19.2768 16.8619 19.2655C16.7166 19.2542 16.5963 19.2373 16.5041 19.2176C16.4817 19.1247 16.4678 19.0149 16.4622 18.8853C16.4538 18.7558 16.451 18.6234 16.451 18.4882C16.451 18.353 16.4538 18.2207 16.4622 18.0968C16.4705 17.9729 16.4845 17.863 16.5041 17.7701C16.4258 17.7926 16.3308 17.8067 16.2161 17.8123C16.1015 17.8208 15.9841 17.8236 15.8639 17.8236C15.7437 17.8236 15.6263 17.8208 15.5117 17.8123C15.397 17.8067 15.302 17.7898 15.2237 17.7701C15.2461 17.863 15.26 17.9729 15.2656 18.0968C15.2712 18.2207 15.2768 18.353 15.2768 18.4882C15.2768 18.6234 15.274 18.7558 15.2656 18.8853C15.2573 19.0149 15.2237 19.2176 15.2237 19.2176H15.2293ZM15.2293 16.5141C15.3076 16.4915 15.4026 16.4775 15.5172 16.4718C15.6319 16.4662 15.7493 16.4606 15.8695 16.4606C15.9897 16.4606 16.1071 16.4634 16.2217 16.4718C16.3364 16.4803 16.4314 16.4944 16.5097 16.5141C16.409 15.8354 16.3084 15.2102 16.205 14.6413C16.1015 14.0724 15.9897 13.4726 15.8695 12.8445C15.7493 13.4726 15.6375 14.0724 15.534 14.6413C15.4306 15.2102 15.3299 15.8325 15.2293 16.5141Z" fill="#FF7A0F"></path><path d="M19.4119 19.2145C19.3056 18.7442 19.2274 18.1753 19.177 17.5107C19.1267 16.8461 19.1016 16.1618 19.1016 15.4549C19.1016 14.748 19.1267 14.0637 19.177 13.3991C19.2274 12.7344 19.3056 12.1656 19.4119 11.6952C19.5545 11.6671 19.725 11.6446 19.9291 11.6248C20.1331 11.6051 20.34 11.5967 20.5525 11.5967C20.765 11.5967 20.9746 11.6051 21.1815 11.6248C21.3884 11.6446 21.5617 11.6671 21.7043 11.6952C21.8049 11.6868 21.8972 11.684 21.9866 11.6783C22.0761 11.6727 22.16 11.6727 22.2382 11.6727C22.8421 11.6727 23.2614 11.7825 23.4991 11.9994C23.7367 12.2162 23.8569 12.6077 23.8569 13.1738V13.3568C23.8569 13.4216 23.8541 13.4892 23.8457 13.5596C23.8876 13.9313 23.8317 14.2411 23.6752 14.4917C23.5186 14.7424 23.3201 14.9226 23.0797 15.0381C23.3928 15.2014 23.6165 15.3957 23.7563 15.621C23.896 15.8463 23.9631 16.1589 23.9631 16.5588V16.7841C23.9631 16.863 23.9547 16.9447 23.9408 17.0291C23.9492 17.1164 23.9519 17.1981 23.9575 17.277C23.9603 17.3558 23.9631 17.4319 23.9631 17.5023C23.9631 18.1162 23.8345 18.5583 23.5801 18.8259C23.3257 19.0934 22.8617 19.2286 22.1963 19.2286H21.9978C21.9307 19.2286 21.858 19.2258 21.7798 19.2173C21.6316 19.2455 21.4527 19.268 21.2486 19.2877C21.0417 19.3046 20.8265 19.3159 20.6 19.3159C20.3736 19.3159 20.1555 19.3075 19.9514 19.2877C19.7446 19.2708 19.5684 19.2455 19.4175 19.2173L19.4119 19.2145ZM20.9774 13.0667C20.9998 13.1597 21.0138 13.2695 21.0194 13.3934C21.0249 13.5173 21.0305 13.6497 21.0305 13.7849C21.0305 13.9201 21.0277 14.0524 21.0194 14.1763C21.011 14.3002 20.997 14.4101 20.9774 14.503C21.0976 14.4748 21.2178 14.4748 21.3408 14.503C21.6875 14.4748 21.9167 14.3847 22.0286 14.2355C22.1376 14.0862 22.2047 13.9088 22.2243 13.7088C22.2019 13.3934 22.1124 13.2132 21.9531 13.1625C21.7937 13.1118 21.5757 13.0865 21.2989 13.0865H21.1228C21.0697 13.0865 21.0221 13.0808 20.9802 13.0639L20.9774 13.0667ZM20.9774 15.759C21.0054 15.8886 21.0277 16.0407 21.0417 16.2209C21.0557 16.4011 21.0641 16.587 21.0641 16.7785C21.0641 16.97 21.0557 17.1587 21.0417 17.3417C21.0277 17.5248 21.0054 17.6797 20.9774 17.8092C21.12 17.7811 21.257 17.7811 21.394 17.8092C21.7406 17.7811 21.9755 17.705 22.0957 17.5839C22.2159 17.4628 22.2914 17.2375 22.3193 16.908C22.2914 16.6152 22.2159 16.3561 22.0957 16.1308C21.9755 15.9055 21.7798 15.7816 21.5114 15.7619C21.4834 15.7703 21.4443 15.7731 21.394 15.7787C21.3436 15.7816 21.2933 15.7844 21.2458 15.7844C21.1983 15.7844 21.1452 15.7844 21.0976 15.7787C21.0473 15.7759 21.0082 15.7703 20.9802 15.7619L20.9774 15.759Z" fill="#FF7A0F"></path><path d="M13.8672 3.27344C13.9595 3.25091 14.0797 3.23682 14.2251 3.22556C14.3704 3.21429 14.5186 3.20866 14.6668 3.20866C14.8149 3.20866 14.9631 3.21429 15.1085 3.22556C15.2538 3.23682 15.3741 3.25372 15.4663 3.27344C15.5446 3.61701 15.6005 4.03099 15.6368 4.5182C15.6732 5.0054 15.69 5.50387 15.69 6.01924C15.69 6.5346 15.6732 7.03589 15.6368 7.52591C15.6005 8.01593 15.5446 8.43273 15.4663 8.7763C15.6089 8.48342 15.7459 8.17364 15.8773 7.84977C16.0087 7.52309 16.1317 7.16262 16.2491 6.76553C16.3665 6.36845 16.4727 5.93193 16.5678 5.45036C16.6628 4.97161 16.7439 4.43934 16.8082 3.85076C16.7998 3.81415 16.797 3.76909 16.7914 3.71558C16.7886 3.66207 16.7858 3.61138 16.7858 3.56069C16.7858 3.40298 16.8278 3.30441 16.9088 3.25935C16.9899 3.21711 17.1017 3.19458 17.2443 3.19458C17.3002 3.19458 17.3589 3.19458 17.4204 3.20021C17.4819 3.20585 17.5434 3.20585 17.6077 3.20585C17.7559 3.20585 17.9041 3.21148 18.0495 3.22274C18.1948 3.23401 18.315 3.25091 18.4073 3.27062C18.5135 3.74374 18.5918 4.3098 18.6421 4.97724C18.6924 5.64468 18.7176 6.32902 18.7176 7.03589C18.7176 7.74276 18.6924 8.42991 18.6421 9.09454C18.5918 9.75916 18.5135 10.328 18.4073 10.8012C18.315 10.8237 18.1948 10.8378 18.0495 10.849C17.9041 10.8603 17.7559 10.8659 17.6077 10.8659C17.4596 10.8659 17.3114 10.8603 17.166 10.849C17.0207 10.8378 16.9005 10.8209 16.8082 10.8012C16.7719 10.6434 16.7439 10.4407 16.7243 10.19C16.702 9.9394 16.6936 9.68312 16.6936 9.4184C16.6936 9.19592 16.702 8.9847 16.7215 8.77912C16.7383 8.57635 16.7691 8.40456 16.811 8.26938C16.7048 8.61859 16.5985 8.92275 16.4923 9.18184C16.3861 9.44093 16.2742 9.66622 16.1624 9.86336C16.0478 10.0605 15.9276 10.2323 15.7962 10.3844C15.6648 10.5336 15.5222 10.6744 15.3657 10.804C15.1728 10.8462 14.9268 10.8687 14.6192 10.8687C14.3117 10.8687 14.0657 10.8462 13.8728 10.804C13.7666 10.3308 13.6883 9.76479 13.638 9.09735C13.5877 8.42991 13.5625 7.74557 13.5625 7.0387C13.5625 6.33184 13.5877 5.64468 13.638 4.98006C13.6883 4.31543 13.8672 3.27344 13.8728 3.27344H13.8672Z" fill="#B78C58"></path><path d="M19.4275 10.9194C19.3213 10.449 19.243 9.88017 19.1927 9.21555C19.1423 8.55092 19.1172 7.86659 19.1172 7.15972C19.1172 6.45285 19.1423 5.76851 19.1927 5.10389C19.243 4.43926 19.3213 3.87039 19.4275 3.40008C19.5701 3.37192 19.7406 3.34939 19.9447 3.32968C20.1488 3.30996 20.3556 3.30151 20.5681 3.30151C20.7806 3.30151 20.9902 3.30996 21.1971 3.32968C21.404 3.34939 21.5773 3.37192 21.7199 3.40008C21.8205 3.39163 21.9128 3.38882 22.0023 3.38318C22.0917 3.37755 22.1756 3.37755 22.2539 3.37755C22.8577 3.37755 23.2771 3.48738 23.5147 3.70423C23.7523 3.92108 23.8725 4.31253 23.8725 4.87859V5.06164C23.8725 5.12642 23.8697 5.194 23.8613 5.26441C23.9033 5.63615 23.8474 5.94593 23.6908 6.19657C23.5343 6.44721 23.3358 6.62745 23.0953 6.74292C23.4085 6.90626 23.6321 7.10058 23.7719 7.32587C23.9117 7.55117 23.9788 7.86377 23.9788 8.26367V8.48897C23.9788 8.56782 23.9704 8.64949 23.9564 8.73398C23.9648 8.82128 23.9676 8.90295 23.9732 8.98181C23.976 9.06066 23.9788 9.13669 23.9788 9.2071C23.9788 9.82103 23.8502 10.2632 23.5958 10.5307C23.3414 10.7983 22.8773 10.9334 22.2119 10.9334H22.0134C21.9463 10.9334 21.8737 10.9306 21.7954 10.9222C21.6472 10.9503 21.4683 10.9729 21.2642 10.9926C21.0573 11.0095 20.8421 11.0207 20.6156 11.0207C20.3892 11.0207 20.1711 11.0123 19.9671 10.9926C19.7602 10.9757 19.5841 10.9503 19.4331 10.9222L19.4275 10.9194ZM20.993 4.77157C21.0154 4.86451 21.0294 4.97434 21.035 5.09825C21.0406 5.22217 21.0462 5.35453 21.0462 5.48971C21.0462 5.62488 21.0434 5.75725 21.035 5.88116C21.0266 6.00507 21.0126 6.1149 20.993 6.20784C21.1133 6.17968 21.2335 6.17968 21.3565 6.20784C21.7031 6.17968 21.9324 6.08956 22.0442 5.9403C22.1532 5.79104 22.2203 5.61362 22.2399 5.41367C22.2175 5.09825 22.1281 4.91802 21.9687 4.86732C21.8094 4.81663 21.5913 4.79129 21.3145 4.79129H21.1384C21.0853 4.79129 21.0378 4.78565 20.9958 4.76876L20.993 4.77157ZM20.993 7.46387C21.021 7.59341 21.0434 7.74549 21.0573 7.92573C21.0713 8.10596 21.0797 8.29183 21.0797 8.48334C21.0797 8.67484 21.0713 8.86352 21.0573 9.04658C21.0434 9.22963 21.021 9.38452 20.993 9.51407C21.1356 9.48591 21.2726 9.48591 21.4096 9.51407C21.7562 9.48591 21.9911 9.40987 22.1113 9.28877C22.2315 9.16767 22.307 8.94237 22.3349 8.61288C22.307 8.31999 22.2315 8.0609 22.1113 7.83561C21.9911 7.61031 21.7954 7.4864 21.527 7.46668C21.499 7.47513 21.4599 7.47795 21.4096 7.48358C21.3593 7.4864 21.3089 7.48921 21.2614 7.48921C21.2139 7.48921 21.1608 7.48921 21.1133 7.48358C21.0629 7.48076 21.0238 7.47513 20.9958 7.46668L20.993 7.46387Z" fill="#B78C58"></path><path d="M8.31031 10.7136C8.2645 10.7136 8.1258 9.67441 8.07548 9.00697C8.02516 8.33953 8 7.65519 8 6.94832C8 6.24146 8.02516 5.5543 8.07548 4.88967C8.1258 4.22505 8.20408 3.65618 8.31031 3.18305C8.58708 3.11828 8.92535 3.07322 9.32232 3.04224C9.7193 3.01408 10.1247 3 10.5356 3C10.9466 3 11.3491 3.01408 11.7433 3.04224C12.1375 3.07041 12.473 3.11828 12.7497 3.18305C12.856 3.65618 12.9343 4.22223 12.9846 4.88967C13.0349 5.55712 13.0601 6.24146 13.0601 6.94832C13.0601 7.65519 13.0349 8.34235 12.9846 9.00697C12.9343 9.67159 12.856 10.2405 12.7497 10.7136C12.6491 10.7361 12.5289 10.7502 12.3891 10.7615C12.2465 10.7727 12.1012 10.7784 11.953 10.7784C11.6259 10.7784 11.3603 10.7558 11.1534 10.7136C11.0696 10.3278 11.0053 9.86028 10.9606 9.31394C10.9186 8.76759 10.8963 8.20435 10.8963 7.62421C10.8963 7.04407 10.9186 6.48083 10.9606 5.93449C11.0025 5.38814 11.0668 4.92065 11.1534 4.53483C11.0836 4.54891 10.9913 4.56018 10.8767 4.56581C10.7621 4.57426 10.6502 4.57708 10.5356 4.57708C10.421 4.57708 10.3092 4.57426 10.1946 4.56581C10.0799 4.56018 9.98488 4.54891 9.90661 4.53483C9.99047 4.92065 10.0548 5.38814 10.0995 5.93449C10.1414 6.48083 10.1638 7.04407 10.1638 7.62421C10.1638 8.20435 10.1414 8.76759 10.0995 9.31394C10.0576 9.86028 9.99327 10.3278 9.90661 10.7136C9.81435 10.7361 9.69414 10.7502 9.54877 10.7615C9.4034 10.7727 9.25523 10.7784 9.10706 10.7784C8.9589 10.7784 8.81073 10.7727 8.66536 10.7615C8.51998 10.7502 8.39977 10.7333 8.30752 10.7136H8.31031Z" fill="#B78C58"></path><path d="M11.9466 25.3913C11.9103 25.2279 11.8824 25.028 11.8628 24.7914C11.8404 24.5549 11.832 24.3127 11.832 24.062C11.832 23.8114 11.8432 23.5692 11.8628 23.3326C11.8851 23.0961 11.9131 22.8961 11.9466 22.7328C11.9383 22.6398 11.9355 22.5497 11.9299 22.4652C11.9271 22.3807 11.9243 22.2963 11.9243 22.2174C11.9243 21.4796 12.0697 20.9557 12.3604 20.646C12.6511 20.3362 13.1264 20.1785 13.7862 20.1785C13.8505 20.1785 13.9148 20.1785 13.9846 20.1841C14.0545 20.1897 14.1244 20.1925 14.2027 20.201C14.281 20.1925 14.3537 20.1897 14.4208 20.1841C14.4879 20.1785 14.555 20.1785 14.6193 20.1785C15.279 20.1785 15.7571 20.3334 16.0506 20.646C16.3441 20.9586 16.4923 21.4824 16.4923 22.2174C16.4923 22.2963 16.4923 22.3779 16.4867 22.4652C16.4839 22.5497 16.4783 22.6398 16.4699 22.7328C16.5063 22.8961 16.5314 23.0961 16.551 23.3326C16.5678 23.5692 16.5762 23.8114 16.5762 24.062C16.5762 24.3127 16.5678 24.5549 16.551 24.7914C16.5342 25.028 16.5063 25.2279 16.4699 25.3913C16.4783 25.4842 16.4811 25.5715 16.4867 25.6532C16.4895 25.7348 16.4923 25.8165 16.4923 25.8954C16.4923 26.6388 16.3441 27.1655 16.0506 27.4781C15.7571 27.7879 15.279 27.9456 14.6193 27.9456C14.555 27.9456 14.4907 27.9456 14.4208 27.9399C14.3537 27.9371 14.281 27.9315 14.2027 27.923C14.1244 27.9287 14.0517 27.9343 13.9846 27.9399C13.9176 27.9427 13.8505 27.9456 13.7862 27.9456C13.132 27.9456 12.6595 27.7907 12.366 27.4781C12.0725 27.1683 11.9243 26.6388 11.9243 25.8954C11.9243 25.8165 11.9243 25.7377 11.9299 25.6532C11.9327 25.5715 11.9383 25.4842 11.9466 25.3913ZM13.5653 22.2794C13.6156 22.5018 13.6492 22.7694 13.6715 23.0848C13.6939 23.4002 13.7023 23.7241 13.7023 24.062C13.7023 24.4 13.6911 24.7238 13.6715 25.0392C13.6492 25.3547 13.6156 25.6222 13.5653 25.8447C13.5793 26.0869 13.638 26.2587 13.7414 26.36C13.8449 26.4614 13.9986 26.5093 14.2055 26.5093C14.4264 26.5093 14.5801 26.453 14.6696 26.3431C14.759 26.2333 14.8121 26.0446 14.8345 25.7799C14.7842 25.5659 14.7479 25.304 14.7227 24.997C14.6975 24.69 14.6863 24.3746 14.6863 24.0536C14.6863 23.7325 14.6975 23.4199 14.7227 23.1158C14.7479 22.8116 14.7842 22.5525 14.8345 22.3385C14.8121 22.0822 14.7562 21.8964 14.664 21.7865C14.5717 21.6767 14.418 21.6204 14.2055 21.6204C13.993 21.6204 13.8365 21.6711 13.7358 21.7753C13.6352 21.8795 13.5793 22.0484 13.5653 22.285V22.2794Z" fill="#FF7A0F"></path><path d="M22.288 24.8226C22.1957 24.9606 22.0671 25.1154 21.9022 25.2872C21.7372 25.459 21.5639 25.628 21.3822 25.7942C21.2005 25.9603 21.0215 26.1152 20.837 26.2588C20.6553 26.4025 20.4904 26.5179 20.3394 26.6024C20.4009 26.6418 20.4708 26.6982 20.5463 26.7742C20.6218 26.8502 20.6945 26.9235 20.7644 27.0023C20.8342 27.0812 20.9013 27.16 20.9684 27.2417C21.0355 27.3262 21.0858 27.3994 21.1194 27.4642C21.0747 27.5318 21.0132 27.605 20.9349 27.6866C20.8566 27.7683 20.7699 27.85 20.6805 27.9317C20.591 28.0133 20.5016 28.0922 20.4149 28.1626C20.3282 28.233 20.25 28.2893 20.1773 28.3259C20.0543 28.2386 19.9145 28.1203 19.7607 27.9739C19.607 27.8275 19.4532 27.6697 19.3022 27.5008C19.1513 27.3318 19.0087 27.1628 18.8773 26.9939C18.7459 26.8221 18.6397 26.67 18.5642 26.5404C18.5838 26.5151 18.6089 26.4841 18.6425 26.4475C18.676 26.4137 18.7096 26.3799 18.7431 26.3489C18.7767 26.318 18.813 26.287 18.8494 26.2588C18.8885 26.2278 18.9193 26.2053 18.9472 26.1884C18.5111 25.7913 18.1337 25.414 17.8122 25.0591C17.4571 24.6649 17.1692 24.2875 16.9483 23.927C16.7275 23.5665 16.5737 23.2061 16.4871 22.8512C16.4004 22.4964 16.3808 22.1415 16.4256 21.7867C16.4703 21.4318 16.5765 21.0601 16.7499 20.6743C16.8225 20.5729 16.9204 20.4574 17.0434 20.3279C17.1664 20.1984 17.295 20.0716 17.432 19.9449C17.569 19.8182 17.7087 19.6999 17.8485 19.5901C17.9883 19.4802 18.1141 19.3901 18.2259 19.3225C18.5167 19.5281 18.8382 19.8013 19.1932 20.1364C19.5483 20.4715 19.9005 20.8348 20.25 21.2234C20.5994 21.6121 20.9265 22.0007 21.2256 22.3922C21.5248 22.7836 21.7652 23.1328 21.9413 23.4454C21.9665 23.4145 21.9972 23.3807 22.0364 23.3412C22.0755 23.3018 22.1146 23.2624 22.1566 23.223C22.1985 23.1835 22.2404 23.1469 22.2824 23.1159C22.3215 23.085 22.3579 23.0568 22.3914 23.0343C22.5144 23.1216 22.657 23.2399 22.8135 23.3891C22.9729 23.5356 23.1266 23.6933 23.2776 23.8622C23.6019 24.2227 23.8423 24.5409 24.0017 24.8254C23.9569 24.893 23.8954 24.9662 23.8172 25.0479C23.7389 25.1295 23.6522 25.2112 23.5628 25.2929C23.4733 25.3745 23.3838 25.4534 23.2972 25.5238C23.2105 25.5942 23.1322 25.6505 23.0595 25.6871C22.998 25.6477 22.9282 25.5914 22.8527 25.5153C22.7772 25.4421 22.7045 25.3661 22.6346 25.2872C22.5647 25.2084 22.4976 25.1295 22.4305 25.0479C22.3634 24.9634 22.3131 24.8902 22.2796 24.8254L22.288 24.8226ZM20.8762 24.4255C20.6525 24.265 20.4009 24.0509 20.1214 23.7918C19.8418 23.5299 19.5678 23.2511 19.2967 22.947C19.0255 22.6428 18.7711 22.3415 18.539 22.0345C18.307 21.7275 18.1197 21.4544 17.9827 21.215C18.0079 21.4741 18.0526 21.7247 18.1169 21.9697C18.1812 22.2148 18.2902 22.4879 18.4384 22.7893C18.5866 23.0906 18.7879 23.4342 19.0395 23.8256C19.2911 24.2143 19.6182 24.6761 20.0207 25.2084C20.0599 25.1464 20.1158 25.076 20.1913 25C20.2667 24.9239 20.3394 24.8507 20.4177 24.7803C20.496 24.7099 20.5742 24.6423 20.6553 24.5747C20.7392 24.5071 20.8119 24.4565 20.8762 24.4227V24.4255Z" fill="#FF7A0F"></path></g><defs><clipPath id="clip0_414_7663"><rect width="32" height="32" fill="white"></rect></clipPath></defs></svg> 