<svg width="39" height="32" viewBox="0 0 39 32" fill="none" xmlns="http://www.w3.org/2000/svg">
    <g clip-path="url(#clip0_13801_57204)">
        <path d="M21.3226 31.8769C17.632 31.6554 14.176 30.1354 11.2631 27.44C9.40553 25.7231 7.70839 22.9354 6.97399 20.4123C6.83205 19.9262 6.54199 18.6708 6.54199 18.5539C6.54199 18.5477 6.94931 18.5231 7.44919 18.5108C8.15891 18.4862 8.45513 18.4492 8.78839 18.3446C9.02291 18.2646 9.23273 18.2277 9.25742 18.2585C9.28211 18.2831 9.34999 18.5416 9.40553 18.8308C9.73879 20.4431 10.7632 22.64 11.8432 24.0492C12.7072 25.1754 13.6083 26.0062 14.9043 26.8616C15.3795 27.1754 16.1077 27.6062 16.5212 27.8154C17.3605 28.2339 18.8108 28.7385 19.2119 28.7569H19.4288L19.4403 16.8616H14.5031V10.3385H20.4894H26.4757V19.3846C26.4757 27.4216 26.488 28.4308 26.5683 28.4308C26.6176 28.4308 26.9015 28.3323 27.1978 28.2154C27.7285 28.0062 28.0556 27.76 28.3333 27.3723L28.4567 27.2062L27.8766 26.6031C27.5619 26.2708 27.1731 25.8585 27.0188 25.6923L26.7287 25.3785L27.5927 24.4677C28.0618 23.9631 28.4506 23.5323 28.4506 23.5077C28.4506 23.4892 28.0618 23.0646 27.5804 22.5662L26.7102 21.6616L27.5804 20.7569C28.0618 20.2585 28.4506 19.8339 28.4506 19.8154C28.4506 19.7969 28.0618 19.3662 27.5927 18.8616L26.7349 17.9446L27.2903 17.3416C27.5989 17.0092 27.8704 16.72 27.8951 16.7077C27.926 16.6892 28.0618 16.5416 28.1975 16.3754L28.4506 16.08L27.5866 15.1631L26.7287 14.2462L26.9632 14C27.0867 13.8646 27.4755 13.4523 27.8211 13.0831C28.1728 12.7139 28.4506 12.3939 28.4382 12.3631C28.4259 12.3385 28.1482 12.0246 27.8211 11.6677L27.2163 11.0277L27.7408 10.5662L28.2592 10.1046L28.8332 10.6954C29.1479 11.0216 29.6416 11.5323 29.9255 11.8277L30.4378 12.3692L29.5614 13.2923C29.08 13.7969 28.6974 14.24 28.7098 14.2708C28.7159 14.3016 29.0368 14.6462 29.4071 15.0277C29.7836 15.4154 30.1662 15.8216 30.265 15.9262L30.4439 16.1169L29.654 16.9169C29.222 17.3539 28.827 17.7723 28.7776 17.8462C28.6912 17.9692 28.7283 18.0185 29.5614 18.8923L30.4378 19.8154L29.5799 20.7139C29.1109 21.2062 28.7283 21.6308 28.7283 21.6616C28.7283 21.6862 29.1109 22.1169 29.5799 22.6092L30.4316 23.5139L29.5676 24.4246C29.0862 24.9292 28.6974 25.36 28.6974 25.3846C28.6974 25.4769 29.8947 26.6462 29.9934 26.6462C30.1415 26.6462 31.0611 25.8892 31.6782 25.2616C33.6654 23.2369 34.9984 20.6031 35.3872 17.9077C35.776 15.2492 35.3749 12.6646 34.1962 10.2462C31.5486 4.80617 25.6179 1.86463 19.6871 3.05233C16.5829 3.67386 13.5466 5.58771 11.7013 8.08617C11.2446 8.70156 10.9175 9.2554 10.4485 10.2031C10.2263 10.6462 10.035 11.0154 10.0165 11.0154C10.0042 11.0154 9.80668 10.9231 9.57833 10.8062C9.04142 10.5354 8.52302 10.3692 7.93673 10.2769C7.67753 10.2339 7.46771 10.1662 7.46771 10.1292C7.46771 10 8.44896 8.08617 8.79456 7.53848C10.2819 5.19386 12.3246 3.29233 14.7808 1.95694C16.3607 1.0954 17.8666 0.57848 19.7797 0.240019C20.7116 0.0738651 22.8654 0.0123267 23.896 0.116942C28.6666 0.615404 33.0236 3.28002 35.6896 7.32309C36.3006 8.25233 37.1523 10 37.4485 10.9416C37.9978 12.6646 38.2199 14.1169 38.2199 15.9692C38.2199 17.36 38.115 18.3139 37.825 19.6246C37.5904 20.6954 37.4115 21.2492 36.9548 22.2708C35.2021 26.2339 32.0238 29.2677 27.9445 30.8616C25.9079 31.6554 23.5875 32.0062 21.3226 31.8769Z" fill="#29A355"/>
        <path d="M21.1429 12.0002C20.5117 12.0002 20 12.5119 20 13.1431C20 13.4587 20.2558 13.7145 20.5714 13.7145H21.7143C22.0299 13.7145 22.2857 13.4587 22.2857 13.1431C22.2857 12.5119 21.774 12.0002 21.1429 12.0002Z" fill="white"/>
        <path d="M6.66523 17.4033C5.05449 17.2433 3.54866 16.5048 2.28352 15.2494C1.59849 14.5725 0.635749 13.3048 0.290149 12.6402L0.191406 12.4494L0.697463 12.6156C1.23438 12.8002 2.20946 12.9848 2.60443 12.9848C2.74021 12.9848 3.26478 12.9048 3.77701 12.8002C5.35689 12.4863 5.96169 12.5663 7.46135 13.2925C7.98592 13.551 8.37472 13.7048 8.40558 13.674C8.4426 13.6371 8.313 13.4833 8.10318 13.2925C7.04169 12.3448 6.00489 11.9325 4.87552 12.0186C4.61632 12.0371 4.35095 12.074 4.28923 12.0925C4.22135 12.111 4.44352 11.9879 4.78912 11.8156C5.59758 11.4156 6.20238 11.2617 6.96763 11.2617C8.43026 11.2617 9.50409 11.7848 10.7013 13.071C11.3432 13.7602 11.6641 14.0186 12.0529 14.1602C12.1763 14.2033 12.2812 14.2586 12.2812 14.2833C12.2812 14.3386 11.3802 14.7386 10.9852 14.8556C10.1089 15.114 8.75735 15.2125 7.91186 15.0771C7.69586 15.0402 7.30706 14.9417 7.04786 14.8617C6.78866 14.7817 6.56032 14.7263 6.5418 14.7448C6.43689 14.8556 7.69586 15.551 8.39323 15.7602C9.01038 15.9448 9.81266 15.9448 10.6088 15.7602C10.9235 15.6863 11.1951 15.6371 11.2074 15.6433C11.2506 15.6925 10.4421 16.3079 9.9546 16.5971C8.7882 17.2986 7.86866 17.5202 6.66523 17.4033Z" fill="#FF0000"/>
    </g>
    <defs>
        <clipPath id="clip0_13801_57204">
            <rect width="138.857" height="32" fill="white"/>
        </clipPath>
    </defs>
</svg>
