<svg width="22" height="22" viewBox="0 0 22 22" fill="none" xmlns="http://www.w3.org/2000/svg">
<g clip-path="url(#clip0_283_192)">
<path d="M2.93333 4.80008C0.8 6.26675 0 8.13341 0 12.0001C0 19.2001 2.4 20.0001 2.93333 13.0667C3.2 8.40008 3.86667 7.33341 6 7.33341C8.13333 7.33341 8.8 8.40008 9.06667 12.9334C9.33333 16.1334 10 18.6667 10.6667 18.6667C11.3333 18.6667 12 16.1334 12.2667 12.9334C12.5333 8.40008 13.2 7.33341 15.3333 7.33341C17.4667 7.33341 18.1333 8.40008 18.4 13.0667C18.9333 20.0001 21.3333 19.2001 21.3333 12.0001C21.3333 5.73341 17.4667 2.13341 12.8 4.00008C11.2 4.53341 8.93333 4.53341 7.86667 3.86675C6.53333 3.20008 4.66667 3.46675 2.93333 4.80008Z" fill="#600B50"/>
</g>
<defs>
<clipPath id="clip0_283_192">
<rect width="21.3333" height="21.3333" fill="white"/>
</clipPath>
</defs>
</svg>
