<svg width="150" height="150" viewBox="0 0 150 150" fill="none" xmlns="http://www.w3.org/2000/svg">
<rect width="150" height="150" rx="20" fill="#2B323C"/>
<path d="M34.1139 75.1771V68.6229H44.0812C45.7865 68.6229 47.2272 68.3571 48.4032 67.8257C49.6381 67.2943 50.579 66.5562 51.2258 65.6114C51.8727 64.6076 52.1961 63.3971 52.1961 61.98C52.1961 59.8543 51.461 58.26 49.9909 57.1971C48.5796 56.1343 46.6097 55.6029 44.0812 55.6029H37.9068V94.3971H45.4924C47.433 94.3971 49.1677 94.161 50.6966 93.6886C52.2255 93.1571 53.431 92.3305 54.313 91.2086C55.2539 90.0276 55.7243 88.4333 55.7243 86.4257C55.7243 85.1267 55.4597 84.0048 54.9305 83.06C54.4012 82.1152 53.6662 81.3476 52.7253 80.7571C51.7845 80.1667 50.6966 79.7533 49.4617 79.5171C48.2856 79.2219 46.9625 79.0743 45.4924 79.0743H34.1139V70.9257H47.1684C50.1673 70.9257 53.0781 71.2505 55.9007 71.9C58.7233 72.5495 61.2813 73.6124 63.5746 75.0886C65.868 76.5057 67.6909 78.3362 69.0434 80.58C70.4546 82.7648 71.1603 85.4219 71.1603 88.5514C71.1603 92.6848 70.1606 96.021 68.1613 98.56C66.2208 101.099 63.457 102.989 59.87 104.229C56.2829 105.41 52.0491 106 47.1684 106H23V44H45.6689C49.9615 44 53.725 44.5905 56.9592 45.7714C60.2522 46.8933 62.8396 48.6352 64.7213 50.9971C66.6618 53.3 67.6321 56.2229 67.6321 59.7657C67.6321 63.0133 66.6618 65.7886 64.7213 68.0914C62.8396 70.3943 60.2522 72.1657 56.9592 73.4057C53.725 74.5867 49.9615 75.1771 45.6689 75.1771H34.1139Z" fill="white"/>
<path d="M81.5741 44H96.4808V106H81.5741V44ZM90.9239 56.3114V44H103.008C108.242 44 112.622 44.8267 116.151 46.48C119.738 48.0743 122.443 50.3771 124.266 53.3886C126.089 56.4 127 60.0314 127 64.2829C127 68.4162 126.089 72.0181 124.266 75.0886C122.443 78.1 119.738 80.4324 116.151 82.0857C112.622 83.68 108.242 84.4771 103.008 84.4771H90.9239V72.1657H103.008C106.007 72.1657 108.359 71.4867 110.065 70.1286C111.77 68.7705 112.622 66.8219 112.622 64.2829C112.622 61.6848 111.77 59.7067 110.065 58.3486C108.359 56.9905 106.007 56.3114 103.008 56.3114H90.9239Z" fill="white"/>
</svg>
