<?xml version="1.0" encoding="utf-8"?>
<!-- Generator: Adobe Illustrator 23.0.3, SVG Export Plug-In . SVG Version: 6.00 Build 0)  -->
<svg version="1.1" id="Logo_x5F_Gray_xA0_Изображение_1_"
	 xmlns="http://www.w3.org/2000/svg" xmlns:xlink="http://www.w3.org/1999/xlink" x="0px" y="0px" viewBox="0 0 120 120"
	 style="enable-background:new 0 0 120 120;" xml:space="preserve">
<style type="text/css">
	.st0{fill:#6BC0C4;}
	.st1{fill:#BC5556;}
	.st2{fill:#15ACB6;}
	.st3{fill:#AA2025;}
	.st4{fill:#0A898D;}
	.st5{fill:#FFFFFF;}
</style>
<path class="st0" d="M24.02,19.68c0.24-0.13,0.5-0.23,0.72-0.38c1.14-0.77,2.25-1.57,3.4-2.32c1.11-0.71,2.26-1.36,3.39-2.04
	c0.07-0.04,0.15-0.08,0.22-0.12c1.22-0.76,2.42-1.57,3.67-2.28c1.08-0.62,2.21-1.14,3.33-1.68c1.27-0.61,2.54-1.21,3.83-1.78
	c0.92-0.41,1.88-0.76,2.82-1.13C46.2,7.62,47,7.3,47.81,7c0.27-0.1,0.57-0.14,0.85-0.25c0.4-0.16,0.81-0.31,1.16-0.55
	c0.44-0.31,0.87-0.31,1.13,0.13c0.67,1.12,1.33,2.25,2.01,3.37c1.38,2.28,2.76,4.56,4.16,6.83c0.78,1.27,1.61,2.52,2.42,3.78
	c0.48,0.74,1.09,1.42,1.43,2.22c0.81,1.87,2.1,3.45,3.06,5.22c0.54,0.99,1.28,1.88,1.86,2.85c0.8,1.35,1.54,2.73,2.31,4.1
	c0.08,0.14,0.21,0.25,0.32,0.37c0.13,0.13,0.3,0.24,0.41,0.39c0.27,0.42,0.52,0.85,0.78,1.27c0.62,1,1.26,1.99,1.87,2.99
	c0.78,1.28,1.53,2.58,2.32,3.86c0.65,1.05,1.34,2.08,1.99,3.14c0.73,1.18,1.41,2.38,2.15,3.55c0.47,0.76,1.02,1.47,1.49,2.23
	c0.49,0.78,0.91,1.6,1.4,2.39c0.67,1.07,1.37,2.11,2.05,3.17c0.3,0.47,0.56,0.97,0.86,1.45c0.66,1.07,1.34,2.12,1.99,3.19
	c0.12,0.2,0.19,0.42,0.29,0.63c0.17,0.37-0.01,0.52-0.34,0.66c-1.51,0.63-3.01,1.3-4.52,1.94c-1.94,0.82-3.89,1.63-5.83,2.45
	c-0.75,0.32-1.49,0.68-2.23,1.02c-0.83,0.38-1.67,0.74-2.5,1.13c-0.78,0.37-1.54,0.76-2.32,1.13c-0.78,0.37-1.56,0.74-2.34,1.11
	c-1.5,0.71-3.02,1.39-4.49,2.16c-1.46,0.76-2.86,1.61-4.3,2.41c-0.27,0.15-0.6,0.21-0.88,0.36c-0.63,0.37-1.46,0.35-1.91,1.13
	c-0.16,0.28-0.76,0.29-1.12,0.49c-1.51,0.83-3.02,1.67-4.5,2.55c-1.39,0.83-2.74,1.71-4.11,2.57c-0.93,0.58-1.85,1.16-2.77,1.76
	c-0.54,0.36-1.04,0.77-1.58,1.12c-0.42,0.27-0.91,0.45-1.31,0.75c-2.62,1.9-5.24,3.81-7.83,5.75c-0.84,0.62-1.59,1.36-2.39,2.02
	c-0.84,0.7-1.69,1.37-2.54,2.06c-0.03,0.03-0.07,0.05-0.1,0.07c-0.73,0.71-1.45,1.43-2.18,2.14c-0.49,0.46-1.02,0.88-1.49,1.35
	c-1.36,1.36-2.69,2.73-4.04,4.1c-0.04,0.04-0.11,0.05-0.32-0.01c0.25-0.44,0.46-0.91,0.75-1.33c0.54-0.77,1.23-1.46,1.69-2.27
	c1.11-1.94,2.6-3.6,3.91-5.39c0.77-1.05,1.66-2.01,2.52-3c0.8-0.92,1.59-1.85,2.44-2.72c0.65-0.67,1.39-1.25,2.09-1.87
	c0.06-0.06,0.14-0.1,0.2-0.16c0.61-0.68,1.2-1.4,1.84-2.05c0.56-0.57,1.2-1.06,1.8-1.58c1.21-1.05,2.39-2.14,3.64-3.15
	c1.22-1,2.51-1.92,3.76-2.89c1.01-0.78,1.98-1.6,3-2.36c0.42-0.31,0.91-0.52,1.35-0.81c2.01-1.31,3.97-2.67,6.01-3.92
	c1.99-1.22,4.03-2.36,6.08-3.48c1.71-0.94,3.45-1.81,5.19-2.69c1.01-0.51,2.04-0.98,3.05-1.47c1.41-0.68,2.8-1.39,4.22-2.05
	c0.64-0.3,1.33-0.5,1.99-0.78c0.25-0.11,0.47-0.31,0.59-0.4c-1-1.81-1.94-3.53-2.89-5.25c-0.69-1.25-1.38-2.5-2.06-3.76
	c-0.74-1.37-1.44-2.75-2.18-4.11c-0.57-1.05-1.19-2.07-1.77-3.12c-0.39-0.7-0.72-1.43-1.1-2.13c-0.32-0.61-0.67-1.2-0.99-1.8
	c-0.67-1.24-1.32-2.48-1.98-3.71c-0.74-1.37-1.51-2.73-2.25-4.11c-0.42-0.8-0.78-1.63-1.19-2.43c-0.18-0.35-0.45-0.65-0.66-1
	c-0.66-1.11-1.33-2.22-1.96-3.35c-0.35-0.63-0.62-1.31-0.95-1.96c-0.32-0.65-0.65-1.3-1-1.94c-0.86-1.57-1.73-3.14-2.61-4.69
	c-0.58-1.02-1.2-2.03-1.79-3.04c-0.3-0.52-0.57-1.07-0.88-1.58c-0.25-0.42-0.64-0.51-1.1-0.42c-2.56,0.53-5.15,0.95-7.68,1.6
	c-1.83,0.47-3.58,1.23-5.37,1.86c-0.75,0.26-1.52,0.49-2.26,0.79c-1.54,0.63-3.07,1.28-4.59,1.95c-0.62,0.27-1.2,0.62-1.81,0.9
	c-0.27,0.12-0.59,0.13-0.89,0.19C24.2,19.94,24.11,19.81,24.02,19.68z"/>
<path class="st1" d="M27.7,61.32c-0.16,0.22-0.34,0.42-0.46,0.66c-1.35,2.65-2.91,5.15-4.92,7.35c-1.03,1.14-2.22,2.14-3.64,2.68
	c-2.69,1.03-4.62,0.08-5.22-2.88c-0.6-2.94-0.17-5.89,0.75-8.75c0.52-1.6,0.97-3.23,1.59-4.79c0.51-1.29,1.22-2.5,1.86-3.73
	c0.46-0.87,0.92-1.75,1.47-2.56c0.81-1.2,1.64-2.42,2.59-3.51c1.26-1.44,2.56-2.87,4.01-4.13c1.26-1.09,2.71-1.99,4.53-1.83
	c0.93,0.08,1.63,0.45,2.01,1.38c0.13,0.33,0.48,0.58,0.72,0.86c0.15-0.33,0.4-0.65,0.42-0.99c0.07-1.11,0.55-1.77,1.64-2.12
	c1.64-0.53,3.23-1.21,4.86-1.79c0.31-0.11,0.79-0.16,0.99,0.01c0.17,0.15,0.14,0.65,0.06,0.96c-0.61,2.37-1.24,4.73-1.88,7.09
	c-0.54,1.97-1.11,3.93-1.65,5.91c-0.33,1.2-0.61,2.42-0.92,3.62c-0.37,1.45-0.79,2.89-1.12,4.35c-0.22,0.96-0.4,1.95-0.44,2.94
	c-0.06,1.3,0.88,1.88,2.16,1.57c1.24-0.3,2.14-1.11,3.05-1.86c1.78-1.45,3.27-3.19,4.57-5.07c1.21-1.75,2.18-3.64,3.02-5.62
	c1.43-3.38,2.18-6.87,2.13-10.53c-0.03-2.04-0.46-4.01-1.27-5.9c-1.85-4.34-5.18-6.59-9.83-6.9c-2.27-0.15-4.51,0.16-6.7,0.83
	c-2.34,0.72-4.6,1.61-6.78,2.76c-2.22,1.16-4.27,2.54-6.18,4.14c-1.52,1.27-3.01,2.6-4.35,4.06c-1.22,1.33-2.29,2.82-3.26,4.35
	c-1.17,1.83-2.24,3.73-3.21,5.67c-0.65,1.31-1.13,2.71-1.56,4.11c-0.77,2.48-1.44,4.99-1.65,7.6c-0.24,2.97-0.23,5.92,0.41,8.84
	c0.62,2.81,1.84,5.34,3.95,7.35c1.5,1.42,3.24,2.44,5.21,3.15c3.47,1.24,6.98,1.04,10.45,0.32c3.16-0.66,6.19-1.81,9.02-3.42
	c3.45-1.98,6.56-4.4,9.34-7.26c2.04-2.1,3.89-4.35,5.38-6.87c0.96-1.63,1.71-3.39,2.53-5.1c0.28-0.59,0.47-1.22,0.72-1.82
	c0.22-0.53,0.99-0.96,1.56-0.9c0.45,0.04,0.64,0.46,0.44,0.9c-0.5,1.11-0.98,2.23-1.5,3.33c-0.6,1.26-1.18,2.53-1.89,3.73
	c-2,3.37-4.38,6.48-7.22,9.18c-1.62,1.54-3.38,2.94-5.19,4.25c-1.5,1.08-3.12,2.02-4.76,2.87c-1.35,0.71-2.83,1.16-4.22,1.8
	c-2.12,0.98-4.39,1.41-6.65,1.79c-2.67,0.46-5.39,0.57-8.05-0.16c-1.02-0.28-2.07-0.51-3.02-0.95c-2.7-1.23-5.04-2.92-6.79-5.41
	c-1.06-1.51-1.76-3.16-2.42-4.85c-0.11-0.29-0.55-1.63-0.67-2c-0.14-0.43-0.06-0.15-0.31-1.34c-0.56-2.73-0.52-5.63-0.02-8.37
	c0.22-1.2,1.85-7.07,2.3-8.13c0.76-1.78,1.58-3.54,2.52-5.23c0.94-1.69,2.01-3.31,3.11-4.91c0.74-1.07,1.57-2.1,2.45-3.06
	c1.13-1.23,2.3-2.42,3.54-3.54c1.06-0.96,2.21-1.83,3.37-2.67c1.24-0.9,2.51-1.8,3.84-2.56c1.25-0.71,2.6-1.25,3.92-1.85
	c0.86-0.39,1.72-0.8,2.61-1.11c3.18-1.12,6.43-1.93,9.83-1.88c2.85,0.04,5.47,0.8,7.76,2.52c1.51,1.14,2.62,2.61,3.54,4.3
	c1.33,2.42,1.57,5.05,1.65,7.67c0.09,3-0.31,5.99-1.23,8.88c-0.36,1.11-0.67,2.27-1.22,3.29c-1.23,2.29-2.32,4.67-4.06,6.65
	c-0.85,0.97-1.67,1.97-2.54,2.91c-1.35,1.44-2.95,2.56-4.64,3.58c-1.59,0.96-3.29,1.61-5.05,2.14c-0.42,0.13-0.86,0.23-1.3,0.27
	c-2.29,0.23-4-1.33-3.97-3.63c0.01-0.57,0.1-1.14,0.14-1.71c0.02-0.26,0-0.53,0-0.8C27.86,61.39,27.78,61.35,27.7,61.32z M31.6,45.7
	c-0.21-0.88-0.3-1.89-0.69-2.77c-0.46-1.03-1.29-1.11-2.19-0.41c-1.27,0.99-2.05,2.36-2.74,3.75c-0.68,1.37-1.22,2.8-1.77,4.23
	c-0.61,1.57-1.25,3.14-1.71,4.75c-0.54,1.91-0.93,3.86-1.32,5.8c-0.21,1.05-0.41,2.11,0.15,3.16c0.43,0.82,1.02,1.07,1.83,0.61
	c0.27-0.15,0.55-0.35,0.73-0.59c1.06-1.46,2.17-2.91,3.12-4.44c0.69-1.12,1.2-2.36,1.71-3.58c0.62-1.47,1.3-2.93,1.71-4.46
	C30.94,49.81,31.2,47.81,31.6,45.7z"/>
<path class="st2" d="M28.59,101.69c0.32-0.31,0.62-0.64,0.96-0.93c0.46-0.38,0.95-0.74,1.44-1.09c1.93-1.37,3.84-2.74,5.79-4.08
	c2.05-1.4,4.12-2.75,6.19-4.11c1.08-0.71,2.16-1.43,3.28-2.08c1.1-0.64,2.26-1.18,3.38-1.78c0.28-0.15,0.53-0.34,0.8-0.5
	c1.08-0.64,2.16-1.3,3.26-1.89c0.68-0.36,1.42-0.6,2.13-0.92c0.77-0.36,1.53-0.76,2.3-1.12c0.87-0.4,1.76-0.77,2.63-1.17
	c0.72-0.33,1.43-0.7,2.14-1.05c0.19-0.09,0.37-0.2,0.57-0.28c0.62-0.25,1.24-0.49,1.86-0.73c1.11-0.45,2.22-0.9,3.33-1.34
	c1.68-0.67,3.35-1.36,5.05-1.99c1.07-0.39,2.17-0.68,3.26-1.01c1.49-0.45,2.97-0.92,4.47-1.35c1.09-0.31,2.2-0.55,3.29-0.86
	c0.73-0.2,1.43-0.5,2.16-0.7c0.96-0.25,1.93-0.42,2.89-0.65c1.19-0.29,2.36-0.64,3.55-0.92c0.96-0.22,1.95-0.36,2.92-0.56
	c0.74-0.16,1.47-0.35,2.19-0.58c0.39-0.12,0.33-0.43,0.13-0.72c-0.76-1.08-1.54-2.14-2.25-3.25c-1.06-1.66-2.05-3.37-3.11-5.03
	c-0.75-1.17-1.58-2.28-2.33-3.45c-0.64-1.01-1.21-2.06-1.83-3.08c-0.46-0.76-0.94-1.5-1.42-2.24c-0.95-1.48-1.9-2.95-2.85-4.43
	c-1.29-2-2.58-3.99-3.86-6c-0.43-0.67-0.77-1.39-1.19-2.07c-0.71-1.13-1.48-2.22-2.2-3.35c-1.39-2.18-2.75-4.37-4.13-6.55
	c-0.94-1.49-1.88-2.99-2.84-4.47c-0.43-0.66-1.04-1.23-1.33-1.94c-0.52-1.24-1.4-2.23-2.08-3.35c-1.16-1.9-2.44-3.73-3.66-5.6
	c-0.25-0.39-0.58-0.37-0.94-0.26c-0.59,0.17-1.16,0.38-1.76,0.53c-0.2,0.05-0.56,0.06-0.64-0.05c-0.4-0.55-0.73-1.16-1.09-1.74
	c-0.13-0.2-0.3-0.39-0.4-0.6c-0.15-0.31-0.38-0.66-0.32-0.95c0.04-0.22,0.46-0.5,0.73-0.53c1.71-0.15,3.25-0.86,4.86-1.33
	c1-0.29,1.34-0.22,1.92,0.6c0.54,0.77,1.15,1.5,1.66,2.28c0.81,1.24,1.55,2.52,2.36,3.76c0.8,1.21,1.65,2.38,2.47,3.58
	c0.76,1.11,1.5,2.24,2.26,3.34c0.47,0.68,1,1.33,1.47,2.01c0.53,0.75,1.02,1.52,1.53,2.29c0.34,0.51,0.65,1.03,1,1.53
	c0.53,0.75,1.08,1.48,1.61,2.24c0.98,1.41,1.97,2.83,2.92,4.26c0.76,1.13,1.45,2.3,2.21,3.43c0.81,1.2,1.67,2.36,2.48,3.56
	c1.02,1.49,1.99,3.01,3.02,4.5c0.61,0.89,1.3,1.74,1.91,2.63c0.48,0.71,0.86,1.48,1.34,2.19c0.77,1.13,1.61,2.21,2.38,3.34
	c0.84,1.23,1.64,2.49,2.47,3.73c0.42,0.62,0.9,1.2,1.32,1.82c0.56,0.83,1.08,1.68,1.63,2.51c0.29,0.43,0.64,0.83,0.93,1.26
	c1.21,1.75,2.41,3.5,3.61,5.25c0.33,0.48,0.68,0.95,1.01,1.44c0.32,0.48,0.17,0.87-0.4,0.98c-1.45,0.29-2.92,0.48-4.34,0.87
	c-2.35,0.65-4.79,0.92-7.09,1.8c-0.84,0.32-1.75,0.42-2.63,0.66c-1.81,0.48-3.63,0.96-5.43,1.49c-1.77,0.52-3.54,1.05-5.29,1.64
	c-1.67,0.56-3.31,1.22-4.98,1.8c-0.95,0.33-1.94,0.56-2.89,0.91c-1.72,0.63-3.42,1.31-5.12,1.96c-0.12,0.05-0.23,0.1-0.35,0.14
	c-0.73,0.24-1.47,0.47-2.19,0.73c-1.09,0.39-2.19,0.77-3.26,1.21c-1.42,0.57-2.82,1.19-4.24,1.79c-1.12,0.47-2.25,0.92-3.36,1.42
	c-1.3,0.58-2.58,1.22-3.87,1.81c-1.32,0.6-2.66,1.17-3.99,1.76c-0.4,0.18-0.79,0.4-1.18,0.6c-1.96,0.96-3.94,1.91-5.89,2.89
	c-1.24,0.62-2.45,1.31-3.69,1.94c-1.16,0.59-2.36,1.11-3.52,1.7c-0.48,0.25-0.9,0.63-1.37,0.9c-1.01,0.59-2.03,1.16-3.05,1.72
	c-0.16,0.09-0.38,0.08-0.57,0.12C28.68,101.84,28.64,101.76,28.59,101.69z"/>
<path class="st3" d="M18.35,112.36c0.19-0.09,0.38-0.2,0.57-0.28c0.91-0.37,1.82-0.75,2.75-1.1c0.7-0.27,1.43-0.49,2.14-0.74
	c2.11-0.73,4.22-1.47,6.34-2.2c2.35-0.8,4.69-1.62,7.05-2.38c1.36-0.44,2.76-0.78,4.14-1.17c1.7-0.49,3.39-1.02,5.1-1.47
	c2.59-0.68,5.19-1.32,7.79-1.97c1.72-0.43,3.43-0.86,5.16-1.25c1.42-0.32,2.85-0.57,4.27-0.85c2.55-0.5,5.09-1.03,7.64-1.5
	c2.61-0.48,5.23-0.96,7.86-1.36c3.59-0.54,7.19-1.03,10.79-1.5c1.8-0.24,3.61-0.37,5.41-0.58c2.56-0.29,5.12-0.6,7.68-0.89
	c1.13-0.13,2.27-0.2,3.41-0.32c0.62-0.07,1.02,0.14,1.35,0.7c1.28,2.19,2.59,4.35,3.89,6.53c0.55,0.92,1.14,1.83,1.66,2.77
	c0.55,1.02,0.34,1.32-0.81,1.32c-4.21,0.01-8.42-0.06-12.63,0.05c-7.17,0.18-14.33,0.46-21.49,0.71c-2.18,0.08-4.36,0.13-6.53,0.29
	c-3.96,0.3-7.92,0.66-11.87,1.01c-3.52,0.31-7.04,0.6-10.54,1c-2.75,0.32-5.48,0.77-8.21,1.22c-2.96,0.48-5.91,1.02-8.86,1.54
	c-1.54,0.27-3.08,0.52-4.6,0.86c-1.58,0.35-3.15,0.78-4.73,1.17c-0.39,0.1-0.79,0.14-1.18,0.23c-0.39,0.09-0.78,0.19-1.14,0.34
	c-0.73,0.3-1.45,0.34-2.18,0.15C18.49,112.59,18.42,112.48,18.35,112.36z"/>
<path class="st4" d="M107.99,76c0.25,0.19,0.66,0.4,0.91,0.72c0.92,1.21,1.78,2.45,2.66,3.69c1.28,1.78,2.54,3.58,3.83,5.35
	c0.56,0.76,1.19,1.47,1.76,2.22c0.61,0.8,1.19,1.62,1.76,2.45c0.1,0.15,0.14,0.45,0.05,0.58c-0.11,0.16-0.38,0.29-0.58,0.28
	c-6.24-0.34-12.47-0.17-18.7,0.15c-3.29,0.17-6.59,0.41-9.87,0.74c-3.15,0.32-6.29,0.8-9.43,1.21c-1.84,0.24-3.68,0.46-5.51,0.77
	c-2.23,0.37-4.44,0.83-6.66,1.26c-1.92,0.37-3.86,0.7-5.77,1.12c-2.53,0.56-5.04,1.19-7.56,1.82c-2.1,0.53-4.2,1.08-6.29,1.66
	c-1.87,0.52-3.72,1.09-5.57,1.65c-2,0.61-4,1.21-5.97,1.88c-1.75,0.59-3.48,1.26-5.22,1.89c-1.7,0.61-3.41,1.22-5.11,1.84
	c-0.63,0.23-1.25,0.49-1.87,0.75c-0.77,0.33-1.52,0.69-2.29,1.03c-0.1,0.04-0.21,0.1-0.3,0.09c-0.25-0.04-0.5-0.11-0.75-0.17
	c0.17-0.18,0.32-0.39,0.52-0.54c0.24-0.19,0.52-0.34,0.78-0.52c0.12-0.08,0.22-0.2,0.36-0.26c0.71-0.28,1.44-0.53,2.14-0.84
	c0.57-0.25,1.1-0.6,1.66-0.87c2.26-1.09,4.53-2.16,6.79-3.24c1.38-0.66,2.75-1.38,4.15-1.99c1.43-0.62,2.9-1.13,4.35-1.7
	c0.45-0.18,0.88-0.42,1.33-0.59c1.95-0.75,3.89-1.5,5.85-2.23c1.79-0.67,3.58-1.35,5.39-1.97c1.65-0.56,3.33-1.04,5-1.56
	c2.16-0.66,4.31-1.35,6.48-1.96c1.42-0.4,2.87-0.69,4.31-1.02c2.45-0.57,4.89-1.17,7.35-1.67c2.19-0.45,4.41-0.81,6.62-1.14
	c3.36-0.5,6.73-0.99,10.1-1.41c2.32-0.29,4.66-0.47,7-0.68c0.9-0.08,1.03-0.39,0.58-1.19c-0.7-1.24-1.33-2.53-2.01-3.79
	c-0.22-0.4-0.5-0.78-0.78-1.15c-0.41-0.54-0.31-0.89,0.35-1.04c0.6-0.14,1.2-0.23,1.8-0.35c1.7-0.32,3.39-0.64,5.09-0.97
	C107.08,76.24,107.44,76.14,107.99,76z"/>
<path class="st5" d="M31.6,45.7c-0.4,2.11-0.66,4.1-1.17,6.03c-0.41,1.53-1.09,3-1.71,4.46c-0.52,1.22-1.02,2.46-1.71,3.58
	c-0.95,1.54-2.05,2.98-3.12,4.44c-0.18,0.25-0.46,0.44-0.73,0.59c-0.81,0.46-1.4,0.21-1.83-0.61c-0.56-1.05-0.36-2.11-0.15-3.16
	c0.39-1.94,0.78-3.89,1.32-5.8c0.46-1.62,1.1-3.18,1.71-4.75c0.55-1.42,1.09-2.86,1.77-4.23c0.69-1.39,1.47-2.76,2.74-3.75
	c0.9-0.7,1.73-0.62,2.19,0.41C31.3,43.81,31.39,44.82,31.6,45.7z"/>
</svg>
