<?xml version="1.0" encoding="UTF-8"?> <svg xmlns="http://www.w3.org/2000/svg" width="58" height="58" viewBox="0 0 58 58" fill="none"><rect width="58" height="58" rx="15" fill="#00CD9B"></rect><path d="M39.3086 19.9135C40.0245 19.9135 40.7881 20.0089 41.5517 20.1998C44.2243 20.8202 47.2787 23.9701 47.8991 26.6427C48.5195 29.4107 47.8991 32.0833 46.2287 34.2309C44.5583 36.3308 42.0289 37.524 39.3563 37.524C38.4018 37.524 37.4473 37.3808 36.5405 37.0467C34.1066 36.2354 31.5771 35.8059 29.0477 35.8059C26.5183 35.8059 23.9889 36.2354 21.5549 37.0467C20.6481 37.3331 19.6936 37.524 18.7391 37.524C16.0665 37.524 13.5371 36.3308 11.8667 34.2309C10.1486 32.0833 9.57592 29.4107 10.1963 26.6427C10.8168 23.9701 13.8712 20.8679 16.5438 20.1998C17.3074 20.0089 18.0232 19.9135 18.7868 19.9135C19.7891 19.9135 20.7913 20.1043 21.7458 20.4384C24.0843 21.2975 26.566 21.727 29.0954 21.727C31.6249 21.727 34.0588 21.2975 36.4451 20.4384C37.3041 20.1043 38.3064 19.9135 39.3086 19.9135ZM39.3086 16C37.8291 16 36.3496 16.2386 35.0133 16.7159C33.0566 17.4317 31.0044 17.7658 29 17.7658C26.9478 17.7658 24.8957 17.4317 22.9867 16.7159C21.6504 16.2386 20.2186 16 18.6914 16C17.6892 16 16.5915 16.1432 15.5415 16.3818C11.4372 17.384 7.2374 21.6316 6.33062 25.7359C4.46935 34.04 10.7213 41.3897 18.6914 41.3897C20.1231 41.3897 21.4595 41.1511 22.748 40.7216C24.8002 40.0534 26.9001 39.6716 29 39.6716C31.0999 39.6716 33.1998 40.0057 35.252 40.7216C36.5405 41.1511 37.8768 41.3897 39.3086 41.3897C47.2787 41.3897 53.5307 34.04 51.6694 25.7359C50.7626 21.6316 46.5628 17.3363 42.4584 16.3818C41.4085 16.1432 40.3585 16 39.3086 16Z" fill="#F8F8F8"></path><path d="M27.043 24.5427V32.9423H31.0041V24.5427H27.043Z" fill="#F8F8F8"></path></svg> 