<svg width="120" height="120" viewBox="0 0 120 120" fill="none" xmlns="http://www.w3.org/2000/svg">
<path fill-rule="evenodd" clip-rule="evenodd" d="M110.271 41.662C115.575 56.0509 118.299 67.5178 119.704 75.5562C121.14 83.8135 117.259 92.0157 110.006 95.9822C103.069 99.7846 92.7117 104.765 78.4055 109.99C64.1135 115.201 52.9732 118.054 45.2225 119.62C37.108 121.258 28.8203 117.497 24.5521 110.27C20.3915 103.23 15.0304 92.7327 9.72669 78.3438C4.42245 63.9402 1.69727 52.4836 0.296137 44.4437C-1.14009 36.1864 2.73682 27.9858 9.99222 24.0133C16.9226 20.2185 27.2755 15.2394 41.567 10.0145C55.878 4.8025 67.0167 1.9445 74.7821 0.378011C82.8879 -1.25671 91.1831 2.5114 95.4438 9.73096C99.6028 16.7673 104.97 27.2672 110.271 41.662Z" fill="#0073E6"/>
<path fill-rule="evenodd" clip-rule="evenodd" d="M40.0641 52.9138C41.8721 52.2557 42.8044 50.2565 42.1463 48.4485C41.4882 46.6404 39.489 45.7082 37.681 46.3663C35.8729 47.0243 34.9407 49.0235 35.5988 50.8316C36.2568 52.6396 38.256 53.5719 40.0641 52.9138ZM42.5796 59.8251C48.2046 57.7777 51.1049 51.558 49.0576 45.933C47.0102 40.3079 40.7905 37.4076 35.1655 39.455C29.5404 41.5023 26.6401 47.722 28.6875 53.3471C30.7348 58.9721 36.9545 61.8724 42.5796 59.8251Z" fill="white"/>
<path fill-rule="evenodd" clip-rule="evenodd" d="M60.5987 42.5562C59.9406 40.7482 60.8729 38.749 62.6809 38.0909L76.8672 32.9275C78.6753 32.2695 80.6745 33.2017 81.3326 35.0097C81.9906 36.8178 81.0584 38.817 79.2503 39.4751L65.064 44.6385C63.256 45.2965 61.2568 44.3643 60.5987 42.5562Z" fill="white"/>
<path fill-rule="evenodd" clip-rule="evenodd" d="M92.7598 62.5327C94.3251 63.6515 94.6871 65.8275 93.5682 67.3928C93.3145 67.7479 93.0448 68.1331 92.7571 68.5442C89.2045 73.6195 82.8909 82.6395 69.6273 87.467C56.3082 92.3148 46.1662 89.2297 40.4782 87.4995C40.0212 87.3605 39.5929 87.2302 39.194 87.1135C37.3474 86.5732 36.2884 84.6381 36.8287 82.7915C37.3691 80.9448 39.3041 79.8859 41.1508 80.4262C41.5654 80.5475 41.9975 80.6781 42.4471 80.814C47.9744 82.4843 56.1538 84.9561 67.2442 80.9195C78.3907 76.8625 83.5893 69.4669 87.0858 64.4927C87.3674 64.0921 87.6379 63.7073 87.8996 63.3411C89.0185 61.7758 91.1944 61.4138 92.7598 62.5327Z" fill="white"/>
</svg>
