<svg width="46" height="50" viewBox="0 0 46 50" fill="none" xmlns="http://www.w3.org/2000/svg">
<path fill-rule="evenodd" clip-rule="evenodd" d="M5.11241 8.25486C3.50817 9.37991 2.20554 10.8684 1.31562 12.5932C0.425698 14.3181 -0.0250997 16.2282 0.00167598 18.1607V31.7413C-0.0349687 33.9074 0.529918 36.0426 1.63597 37.9187C2.74203 39.7947 4.34768 41.3412 6.28136 42.3927L16.7475 48.3043C18.6413 49.414 20.8068 50 23.0136 50C25.2204 50 27.3859 49.414 29.2797 48.3043L39.7458 42.3927C41.6725 41.3354 43.271 39.787 44.3718 37.9117C45.4727 36.0364 46.0347 33.9042 45.9983 31.7413V18.1607C46.0251 16.2282 45.5743 14.3181 44.6844 12.5932C43.7945 10.8684 42.4918 9.37991 40.8876 8.25486V30.4365C40.9303 32.1222 40.5054 33.7876 39.658 35.2554C38.8106 36.7232 37.5726 37.9383 36.0759 38.7712L27.9204 43.378C26.4453 44.2412 24.7591 44.697 23.0408 44.697C21.3225 44.697 19.6362 44.2412 18.1611 43.378L10.0057 38.7712C8.50805 37.953 7.2632 36.7545 6.40211 35.3018C5.54102 33.8492 5.0955 32.1961 5.11241 30.5164V8.25486ZM20.4446 0.266287C21.2768 0.0987592 22.1233 0.0095901 22.9728 0C23.8134 0.00812866 24.6511 0.097322 25.4738 0.266287V26.5487C25.4764 26.789 25.4152 27.0259 25.296 27.236C25.1768 27.4461 25.0039 27.6222 24.7942 27.747L23.6252 28.4127C23.4136 28.5294 23.1749 28.5906 22.932 28.5906C22.6892 28.5906 22.4505 28.5294 22.2388 28.4127L21.0699 27.747C20.8551 27.6255 20.6768 27.4509 20.5527 27.2405C20.4286 27.0302 20.3632 26.7916 20.3631 26.5487V0.266287H20.4446ZM10.2231 5.37898L15.3339 2.47646V27.8801C15.3243 28.6005 15.5138 29.31 15.8823 29.9335C16.2508 30.5569 16.7846 31.0712 17.4271 31.4217L20.934 33.3923C21.5634 33.7578 22.2818 33.9508 23.0136 33.9508C23.7454 33.9508 24.4637 33.7578 25.0932 33.3923L28.5729 31.4217C29.2104 31.0677 29.7387 30.552 30.1022 29.9287C30.4658 29.3055 30.6512 28.5978 30.6389 27.8801V2.47646L35.7497 5.37898V29.1849C35.7711 30.3867 35.4587 31.5716 34.8458 32.6128C34.2329 33.6541 33.3425 34.5126 32.27 35.0965L26.4525 38.3984C25.4002 39.0128 24.1979 39.3372 22.9728 39.3372C21.7478 39.3372 20.5455 39.0128 19.4932 38.3984L13.7028 35.0965C12.6272 34.5139 11.733 33.6564 11.1154 32.6154C10.4979 31.5744 10.1801 30.3888 10.196 29.1849L10.2231 5.37898Z" fill="url(#paint0_linear_203_1883)"/>
<defs>
<linearGradient id="paint0_linear_203_1883" x1="82.29" y1="83.1078" x2="-33.8119" y2="-35.4463" gradientUnits="userSpaceOnUse">
<stop stop-color="#4CA4B1"/>
<stop offset="1" stop-color="#6FBCA1"/>
</linearGradient>
</defs>
</svg>
