<?xml version="1.0" encoding="utf-8"?>
<!-- Generator: Adobe Illustrator 21.0.0, SVG Export Plug-In . SVG Version: 6.00 Build 0)  -->
<svg version="1.1" id="Слой_1" xmlns="http://www.w3.org/2000/svg" xmlns:xlink="http://www.w3.org/1999/xlink" x="0px" y="0px"
	 viewBox="0 0 280 280" style="enable-background:new 0 0 280 280;" xml:space="preserve">
<style type="text/css">
	.st0{fill:#3BD9CC;}
</style>
<path class="st0" d="M263.5,17c0,0.7,0,1.4,0,2c0,0.9,0,1.7,0,2.6c0,0.5,0,0.9,0,1.4c0,0.7,0,1.4,0,2c0,0.7,0,1.4,0,2
	c0,0.2,0,0.4,0,0.6c0,0.7,0,1.3,0,2c0,0.5,0,0.9,0,1.4c0,0.7,0,1.4,0,2c0,0.7,0,1.3,0,2c0,0.2,0,0.4,0,0.6c0,0.5,0,1,0,1.4
	c0,0.9,0,1.7,0,2.6c0,0.5,0,0.9,0,1.4c0,0.1,0,0.3,0,0.4c0,0.6,0,1.1,0,1.6c0,0.7,0,1.3,0,2c0,0.2,0,0.4,0,0.6c0,0.5,0,1,0,1.4
	c0,0.8,0,1.6,0,2.4c0,0.1,0,0.1,0,0.2c0,0.5,0,0.9,0,1.4c0,0.7,0,1.4,0,2c0,0.7,0,1.3,0,2c0,0.2,0,0.4,0,0.6c0,0.5,0,1,0,1.4
	c0,0.8,0,1.6,0,2.4c0,0.1,0,0.1,0,0.2c0,0.5,0,0.9,0,1.4c0,0.7,0,1.4,0,2c0,0.7,0,1.3,0,2c0,0.2,0,0.4,0,0.6c0,0.5,0,1,0,1.4
	c0,0.8,0,1.6,0,2.4c0,0.1,0,0.1,0,0.2c0,0.5,0,0.9,0,1.4c0,0.7,0,1.4,0,2c0,0.7,0,1.3,0,2c0,0.2,0,0.4,0,0.6c0,0.5,0,1,0,1.4
	c0,0.8,0,1.6,0,2.4c0,0.1,0,0.1,0,0.2c0,0.5,0,0.9,0,1.4c0,0.7,0,1.4,0,2c0,0.7,0,1.3,0,2c0,0.2,0,0.4,0,0.6c0,0.5,0,1,0,1.4
	c0,0.8,0,1.6,0,2.4c0,0.1,0,0.1,0,0.2c0,0.5,0,0.9,0,1.4c0,0.7,0,1.4,0,2c0,0.7,0,1.3,0,2c0,0.2,0,0.4,0,0.6c0,0.5,0,1,0,1.4
	c0,0.8,0,1.6,0,2.4c0,0.1,0,0.1,0,0.2c0,0.5,0,0.9,0,1.4c0,0.7,0,1.4,0,2c0,0.4,0,0.8,0,1.2c0,0.3,0,0.5,0,0.8c0,0.1,0,0.2,0,0.3
	c0,0.1,0,0.2,0,0.3c0,0.5,0,0.9,0,1.4c0,0,0,0.1,0,0.1c0,0.4,0,0.9,0,1.3c0,0.3,0,0.7,0,1c0,0.1,0,0.1,0,0.2c0,0.2,0,0.4,0,0.6
	c0,0.3,0,0.5,0,0.8c0,0.7,0,1.3,0,2c0,0.9,0,1.7,0,2.6c0,1.3,0,2.5,0,3.8c0,3.3,0,6.7,0,10c0,1.1,0,2.2,0,3.3c0,0.8,0,1.7,0,2.6
	c0,0.6,0,1.2,0,1.8c0,1.8,0,3.5,0,5.3c0,0.6,0,1.2,0,1.8c0,0.8,0,1.7,0,2.6c0,0.6,0,1.1,0,1.6c0,0.6,0,1.2,0,1.8c0,0.8,0,1.7,0,2.6
	c0,6.6,0,13.1,0,19.6c0,0.6,0,1.2,0,1.8c0,0.4,0,0.7,0,1.1c0,0.6,0,1.2,0,1.8c0,0.4,0,0.9,0,1.3c0,0.6,0,1.2,0,1.8
	c0,2.2,0,4.4,0,6.6c0,2,0,4,0,6c0,6.6,0,13.1,0,19.6c0,0.6,0,1.2,0,1.8c0,0.8,0,1.7,0,2.6c0,0.6,0,1.1,0,1.6c0,0.6,0,1.2,0,1.8
	c0,0.8,0,1.7,0,2.6c0,9.8,0,19.6,0,29.4c0,0.9,0,1.7,0,2.6c0,0.6,0,1.3,0,2c0,0.5,0,0.9,0,1.4c0,0.9,0,1.7,0,2.6c0,0.6,0,1.3,0,2
	c-0.1,1.6-0.2,3.1-0.8,4.6c-2.4,7.4-8.3,12-16.1,12c-4.7,0-9.4,0-14.1,0c-2.4,0-4.8,0-7.2,0c-15.7,0-31.3,0-47,0
	c-0.6,0-1.3,0-1.9-0.1c-0.9-0.1-1.4-0.7-1.5-1.6c-0.1-1.4,0-2.9-0.1-4.3c-0.5-15.8-11.2-29.3-26.1-32.8
	c-21.7-5.2-38.9,9.6-42.2,26.4c-0.7,3.5-0.6,7-0.8,10.5c-0.1,1.2-0.6,1.8-1.7,1.9c-1.3,0.1-2.6,0.1-3.8,0.1c-21,0-41.9,0-62.9,0
	c-0.8,0-1.6,0-2.4,0c-9.9,0.4-17.7-9.2-17.6-17.8c0.1-9.6,0.1-19.2,0.1-28.8c0-5.4,0-10.8,0-16.1c0-0.8,0-1.7,0-2.6
	c0-0.6,0-1.2,0-1.8c0-5.5,0-10.9,0-16.3c0-5.5,0-11,0-16.5c0-4.2,0-8.3,0-12.5c0-0.5,0-0.9,0-1.3c0-6.3,0-12.7,0-19
	c0-0.8,0-1.7,0-2.6c0-0.6,0-1.2,0-1.8c0-1.8,0-3.5,0-5.3c0-0.6,0-1.2,0-1.8c0-0.8,0-1.7,0-2.6c0-6.3,0-12.7,0-19c0-0.5,0-0.9,0-1.3
	c0-4.2,0-8.3,0-12.5c0-5.5,0-11,0-16.5c0-5.5,0-10.9,0-16.3c0-0.6,0-1.2,0-1.8c0-0.8,0-1.7,0-2.6c0-5.4,0-10.7,0-16.1
	c0-9.6,0-19.2-0.1-28.8C17.2,9.2,25-0.4,34.9,0c0.8,0,1.6,0,2.4,0c16.6,0,33.1,0,49.6,0c0.3,0,0.7,0,1,0s0.7,0,1,0s0.7,0,1,0
	s0.7,0,1,0s0.7,0,1,0c1.1,0,2.2,0,3.3,0c0.3,0,0.7,0,1,0c0.3,0,0.7,0,1,0c0.3,0,0.7,0,1,0c0.3,0,0.7,0,1,0c0.3,0,0.7,0,1,0
	c1.2,0,2.5,0,3.8,0.1c1.1,0.1,1.6,0.7,1.7,1.9c0.2,3.5,0.1,7,0.8,10.5c0.1,0.5,0.2,1,0.3,1.5c0,0.2,0.1,0.3,0.1,0.5
	c0.1,0.3,0.2,0.7,0.3,1c0.1,0.2,0.1,0.4,0.2,0.6c0.1,0.3,0.2,0.6,0.3,0.9c0.1,0.2,0.1,0.4,0.2,0.6c0.1,0.2,0.2,0.5,0.3,0.8
	c0,0.2,0.1,0.4,0.2,0.6c0.2,0.3,0.3,0.5,0.4,0.8c0.1,0.2,0.2,0.4,0.3,0.6c0.1,0.3,0.3,0.5,0.4,0.8c0.1,0.2,0.2,0.4,0.3,0.6
	c0.2,0.5,0.5,0.9,0.7,1.3c0.1,0.2,0.3,0.5,0.4,0.7c0.2,0.2,0.3,0.4,0.4,0.6c0.2,0.2,0.3,0.5,0.5,0.7c0.1,0.2,0.2,0.3,0.3,0.5
	c0.2,0.3,0.4,0.5,0.6,0.8c0.1,0.1,0.2,0.3,0.3,0.4c0.2,0.3,0.4,0.5,0.6,0.8c0.1,0.1,0.2,0.2,0.3,0.3c0.2,0.3,0.4,0.6,0.7,0.9
	l0.1,0.1c6.1,6.7,15,11.3,25.4,11.2c2.7,0,5.6-0.3,8.5-1c14.9-3.5,25.6-17,26.1-32.8c0.1-1.4,0-2.9,0.1-4.3c0.1-0.9,0.6-1.5,1.5-1.6
	c0.6-0.1,1.3-0.1,1.9-0.1c17.7,0,35.5,0,53.2,0c4.7,0,9.4,0,14.1,0c0.6,0,1.3,0,1.9,0.1c7.4,0.3,13,4.8,15.3,12
	C263.3,13.9,263.4,15.4,263.5,17z M153.5,225.2c19.1,4,30.8,15.9,35.5,34.8c1,3.9,0.4,4.1,4.1,4.1c0.3,0,0.5,0,0.8,0
	c0.1,0,0.1,0,0.2,0c9,0,18.1,0,27.1,0c0.4,0,0.8,0,1.2,0c0.6,0,1.2,0,1.8,0c0.3,0,0.7,0,1,0c0.4,0,0.8,0,1.2,0c0.5,0,1.1,0,1.6,0
	c1.5,0,2.9,0,4.4,0c1.8,0,3.6,0,5.4,0h0.1c0.8,0,1.5,0,2.3,0c4.1-0.2,6.9-2.7,7.4-6.7c0-0.4,0.1-0.8,0.1-1.2c0-1.2,0-2.4,0-3.6
	c0-0.1,0-0.1,0-0.1c0-9.8,0-19.6,0-29.4c0-1.4,0-2.9,0-4.4c0-0.6,0-1.1,0-1.6c0-1.4,0-2.9,0-4.4c0-6.6,0-13.1,0-19.6c0-2,0-4,0-6
	c0-2.8,0-5.6,0-8.4c0-0.4,0-0.9,0-1.3c0-1.6,0-3.1,0-4.7c0-6.6,0-13.1,0-19.6c0-1.4,0-2.9,0-4.4c0-0.6,0-1.1,0-1.6
	c0-1.4,0-2.9,0-4.4c0-1.8,0-3.5,0-5.3c0-1.4,0-2.9,0-4.4c0-8.1,0-16.2,0-24.3c0-0.4,0-0.9,0-1.3c0-1.6,0-3.1,0-4.7
	c0-3.2,0-6.5,0-9.7c0-8.6,0-17.1,0-25.6c0-1.4,0-2.9,0-4.4c0-11.8,0-23.6,0-35.4c0-0.1,0-0.1,0-0.1c0-1.2,0-2.4,0-3.6
	c0-0.4-0.1-0.8-0.1-1.2c-0.5-4-3.3-6.5-7.4-6.7c-0.8,0-1.5,0-2.3,0h-0.1c-1.8,0-3.6,0-5.4,0c-2,0-4,0-6,0c-10.4,0-20.8,0-31.3,0
	c-0.1,0-0.1,0-0.2,0c-0.3,0-0.5,0-0.8,0c-3.7,0-3.2,0.2-4.1,4.1c-4.7,18.9-16.4,30.8-35.5,34.8c-0.4,0.1-0.7,0.1-1.1,0.2l0,0
	c-0.1,0-0.1,0-0.2,0c-1.6,0.3-3.2,0.5-4.7,0.6c-0.1,0-0.2,0-0.3,0c-1.7,0.1-3.3,0.2-5,0.3c-0.2,0-0.4,0-0.6,0c-0.6,0-1.2,0-1.8,0
	s-1.2,0-1.8,0c-0.2,0-0.4,0-0.6,0c-1.7,0-3.4-0.1-5-0.3c-0.1,0-0.2,0-0.3,0c-1.6-0.1-3.1-0.3-4.7-0.6c-0.1,0-0.1,0-0.2,0l0,0
	c-0.4-0.1-0.7-0.1-1.1-0.2C108,50.9,96.3,39,91.6,20.1c-1-3.9-0.4-4.1-4.1-4.1c-0.3,0-0.5,0-0.8,0c-0.1,0-0.1,0-0.2,0
	c-10.1,0-20.1,0-30.2,0c-0.4,0-0.7,0-1.1,0c-0.6,0-1.3,0-1.9,0c-0.3,0-0.7,0-1,0h-0.1c-1.3,0-2.7,0-4,0c-0.5,0-0.9,0-1.4,0h-0.1
	c-0.4,0-0.8,0-1.2,0c-0.9,0-1.8,0-2.7,0h-0.1c-0.8,0-1.5,0-2.3,0c-4.1,0.2-6.9,2.7-7.4,6.7c0,0.4-0.1,0.8-0.1,1.2c0,1.2,0,2.4,0,3.6
	c0,0.1,0,0.1,0,0.1c0,11.8,0,23.6,0,35.4c0,1.4,0,2.9,0,4.4c0,8.6,0,17.1,0,25.6c0,3.2,0,6.5,0,9.7c0,1.6,0,3.1,0,4.7
	c0,8.6,0,17.1,0,25.6c0,1.4,0,2.9,0,4.4c0,1.8,0,3.5,0,5.3c0,1.4,0,2.9,0,4.4c0,8.6,0,17.1,0,25.6c0,1.6,0,3.1,0,4.7
	c0,3.2,0,6.5,0,9.7c0,8.6,0,17.1,0,25.6c0,1.4,0,2.9,0,4.4c0,11.8,0,23.6,0,35.4c0,0.1,0,0.1,0,0.1c0,1.2,0,2.4,0,3.6
	c0,0.4,0.1,0.8,0.1,1.2c0.5,4,3.3,6.5,7.4,6.7c0.8,0,1.5,0,2.3,0h0.1c1.8,0,3.6,0,5.4,0c2,0,4,0,6,0c10.4,0,20.8,0,31.3,0
	c0.1,0,0.1,0,0.2,0c0.3,0,0.5,0,0.8,0c3.7,0,3.2-0.2,4.1-4.1c4.7-18.9,16.4-30.8,35.5-34.8c0.4-0.1,0.7-0.1,1.1-0.2l0,0
	c0.1,0,0.1,0,0.2,0c1.6-0.3,3.2-0.5,4.7-0.6c0.1,0,0.2,0,0.3,0c1.7-0.1,3.3-0.2,5-0.3c0.2,0,0.4,0,0.6,0c0.6,0,1.2,0,1.8,0
	s1.2,0,1.8,0c0.2,0,0.4,0,0.6,0c1.7,0,3.4,0.1,5,0.3c0.1,0,0.2,0,0.3,0c1.6,0.1,3.1,0.3,4.7,0.6c0.1,0,0.1,0,0.2,0l0,0
	C152.7,225,153.1,225.1,153.5,225.2z"/>
</svg>
