<?xml version="1.0" encoding="UTF-8"?> <svg xmlns="http://www.w3.org/2000/svg" width="592" height="592" viewBox="0 0 592 592" fill="none"><rect width="592" height="592" fill="#DD4A1F"></rect><g clip-path="url(#clip0_105_15)"><path d="M135.031 91.3804C135.731 98.5299 137.657 119.106 139.233 137.416C141.685 164.793 142.21 190.078 142.21 281.276C142.21 391.657 142.035 395.319 135.206 481.461L133.98 495.934L140.809 494.713C149.564 492.97 183.707 492.97 194.563 494.713L203.143 496.108L202.092 491.051C200.691 483.728 196.139 424.614 194.038 386.774C191.762 343.006 191.762 222.86 194.213 181.01C195.264 162.875 197.54 132.533 199.116 113.875C200.867 95.2167 202.267 79.6972 202.092 79.5228C201.917 79.3484 196.314 80.046 189.66 81.0922C177.229 83.0103 143.436 82.1385 137.307 79.6972C134.156 78.4766 133.98 79.1741 135.031 91.3804Z" fill="white"></path><path d="M331.137 95.3913C311.001 133.929 268.103 190.775 212.598 251.633C202.793 262.444 197.715 269.419 198.065 271.686C198.24 273.779 203.318 278.312 210.672 283.195C231.858 296.971 249.368 318.768 266.352 351.899C270.904 360.444 281.935 382.938 291.04 401.597C310.651 441.878 318.355 454.084 334.814 470.65C355.65 491.226 378.587 500.294 406.778 498.899C422.886 498.027 438.82 491.749 450.201 481.81C456.504 476.23 461.932 468.383 461.932 464.372C461.932 461.757 455.279 462.28 453.703 464.895C450.551 470.301 442.672 473.44 432.867 473.265C420.435 473.265 412.731 470.65 401.175 463.152C384.366 452.166 374.21 437.518 346.895 385.205C316.429 326.963 298.919 303.597 273.356 286.508C260.749 278.138 243.239 271.512 223.979 267.85L216.275 266.455L256.372 227.918C316.079 170.548 364.23 126.779 402.05 95.7401C418.159 82.4875 420.26 77.9536 409.929 79.6974C396.447 81.7899 357.401 82.8362 348.471 81.0924L339.366 79.523L331.137 95.3913Z" fill="white"></path></g><defs><clipPath id="clip0_105_15"><rect width="386" height="434.758" fill="white" transform="translate(103 79.0001)"></rect></clipPath></defs></svg> 